<svg id="ic_24_thanhtoanthetindung" xmlns="http://www.w3.org/2000/svg" width="24" height="24" viewBox="0 0 24 24">
  <rect id="Rectangle_3" data-name="Rectangle 3" width="24" height="24" fill="none"/>
  <path id="Path_5" data-name="Path 5" d="M2015-2961.09h-8a3.928,3.928,0,0,1-4-3.844v-4.76a3.916,3.916,0,0,1,4-3.694h8a3.928,3.928,0,0,1,4,3.843v4.611A3.928,3.928,0,0,1,2015-2961.09Zm-.468-3.239a.752.752,0,0,0-.707.5.751.751,0,0,0,.458.957,9.549,9.549,0,0,0,1.2.336v.445a.75.75,0,0,0,.75.75.75.75,0,0,0,.75-.75v-.317a1.959,1.959,0,0,0,1.76-1.679.722.722,0,0,0,.006-.1,1.691,1.691,0,0,0-.875-1.6,3.852,3.852,0,0,0-1.4-.348l-.247-.031a.8.8,0,0,0-.08-.006.985.985,0,0,1-.572-.2.2.2,0,0,1-.068-.256v-.014a.673.673,0,0,1,.478-.379c.074-.006.149-.009.221-.009a2.833,2.833,0,0,1,1.3.319.755.755,0,0,0,.346.085.749.749,0,0,0,.666-.4.752.752,0,0,0-.319-1.012,4.326,4.326,0,0,0-1.222-.419v-.537a.751.751,0,0,0-.75-.75.748.748,0,0,0-.405.119.753.753,0,0,0-.7-.482H2006.5a.751.751,0,0,0-.75.751.751.751,0,0,0,.75.75h8.629a.751.751,0,0,0,.355-.09v.261a2.162,2.162,0,0,0-1.337,1.169,1.711,1.711,0,0,0,.524,2.1,2.474,2.474,0,0,0,1.4.495l.226.028a3,3,0,0,1,.862.176c.038.021.085.046.093.229-.07.314-.414.361-.614.361a1.24,1.24,0,0,1-.141-.008,7.9,7.9,0,0,1-1.711-.4.753.753,0,0,0-.256-.035Zm-8.033-.78a.751.751,0,0,0-.75.75.751.751,0,0,0,.75.75h2.093a.751.751,0,0,0,.75-.75.751.751,0,0,0-.75-.75Zm8.985-3.59v-.3a.748.748,0,0,1,.344-.631.75.75,0,0,1,.05.269.75.75,0,0,1-.393.659Z" transform="translate(-1999 2979.234)" fill="rgba(255,255,255,0.87)"/>
</svg>
