<svg id="ic_24_3DSecure" xmlns="http://www.w3.org/2000/svg" width="24" height="24" viewBox="0 0 24 24">
  <rect id="Rectangle_1" data-name="Rectangle 1" width="24" height="24" fill="none"/>
  <g id="Group_1" data-name="Group 1" transform="translate(-5949.001 -1559)">
    <path id="Path_1" data-name="Path 1" d="M2011.16-2944h0c-1.6,0-3.4-1.117-4.8-2.988a11.983,11.983,0,0,1-2.355-7.155c0-2.467,0-4.6,1.724-5.579a1.606,1.606,0,0,1,.814-.178,9.767,9.767,0,0,1,1.876.292,13.591,13.591,0,0,0,2.754.4h.03a10.674,10.674,0,0,0,2.529-.393l.262-.066a8.069,8.069,0,0,1,1.8-.328,1.269,1.269,0,0,1,.753.2c1.908,1.032,1.86,3.521,1.817,5.717a11.631,11.631,0,0,1-3.243,8.064A5.855,5.855,0,0,1,2011.16-2944Zm1.889-12.208a4.18,4.18,0,0,0-.644.044.746.746,0,0,0-.635.741v5.326a.753.753,0,0,0,.589.733,4.275,4.275,0,0,0,.851.081,2.678,2.678,0,0,0,2.534-1.323,4.477,4.477,0,0,0-.17-4.478,2.847,2.847,0,0,0-2.524-1.125Zm-5.556,4.053a.75.75,0,0,0-.749.75,2.107,2.107,0,0,0,2.1,2.106,2.108,2.108,0,0,0,2.1-2.106,2.1,2.1,0,0,0-.5-1.354,2.109,2.109,0,0,0,.495-1.355,2.106,2.106,0,0,0-2.1-2.1,2.106,2.106,0,0,0-2.1,2.1.751.751,0,0,0,.749.751.751.751,0,0,0,.75-.751.6.6,0,0,1,.6-.6.607.607,0,0,1,.606.6.606.606,0,0,1-.606.606.75.75,0,0,0-.75.75.751.751,0,0,0,.75.751.6.6,0,0,1,.606.6.606.606,0,0,1-.606.606.606.606,0,0,1-.6-.606.75.75,0,0,0-.22-.533.75.75,0,0,0-.533-.22Zm5.777,1.372h0v-3.915a1.4,1.4,0,0,1,1.042.424,2.968,2.968,0,0,1,.1,2.973,1.2,1.2,0,0,1-1.143.519Z" transform="translate(3949.816 4523)" fill="rgba(255,255,255,0.87)"/>
  </g>
</svg>
