<svg id="ic_24_smsalert" xmlns="http://www.w3.org/2000/svg" width="24" height="24" viewBox="0 0 24 24">
  <path id="Path_3" data-name="Path 3" d="M0,0H24V24H0Z" fill="none"/>
  <path id="Path_4" data-name="Path 4" d="M10424.3,22784.1v-.389h-3.694a.5.5,0,0,1-.246-.937,3.044,3.044,0,0,0,1.521-2.264v-2.637c0-.006.006-.012.006-.023a6.7,6.7,0,0,1,3.575-5.627,2.278,2.278,0,0,1,4.511,0,6.717,6.717,0,0,1,3.581,5.629v2.658a3.052,3.052,0,0,0,1.521,2.264.5.5,0,0,1-.247.939l-3.693,0v.389a3.417,3.417,0,1,1-6.834,0Zm1.5,0a1.918,1.918,0,0,0,3.837,0v-.389h-3.837Zm9.235-9.709a8.893,8.893,0,0,0-2.293-3.061.756.756,0,0,1-.073-1.059.745.745,0,0,1,1.057-.074,10.528,10.528,0,0,1,2.678,3.57.747.747,0,0,1-.373.988.7.7,0,0,1-.309.066.754.754,0,0,1-.623-.422Zm-15.63.365a.739.739,0,0,1-.365-.988,10.4,10.4,0,0,1,2.669-3.572.747.747,0,0,1,1.059.074.758.758,0,0,1-.072,1.061,8.968,8.968,0,0,0-2.3,3.061.751.751,0,0,1-.68.434.706.706,0,0,1-.319-.127Z" transform="translate(-10415.75 -22766.75)" fill="rgba(255,255,255,0.87)"/>
</svg>
