<svg xmlns="http://www.w3.org/2000/svg" width="24" height="24" viewBox="0 0 24 24"><rect width="24" height="24" fill="none"/><g transform="translate(-34.629 4)"><g transform="translate(39.629)"><g transform="translate(0)"><path d="M50.458,0H41.989a2.36,2.36,0,0,0-2.36,2.36V13.64A2.36,2.36,0,0,0,41.989,16h8.468a2.36,2.36,0,0,0,2.36-2.36V2.36A2.36,2.36,0,0,0,50.458,0ZM44.274,4.465h3.9a.545.545,0,1,1,0,1.089h-3.9a.545.545,0,0,1,0-1.089Zm5.3,7.07H42.87a.545.545,0,0,1,0-1.089h6.707a.545.545,0,1,1,0,1.089Zm0-2.99H42.87a.545.545,0,0,1,0-1.089h6.707a.545.545,0,1,1,0,1.089Z" transform="translate(-39.629)" fill="rgba(255,255,255,0.87)"/></g></g></g></svg>