<svg id="ic_24_PIN" xmlns="http://www.w3.org/2000/svg" width="24" height="24" viewBox="0 0 24 24">
  <rect id="Rectangle_6258" data-name="Rectangle 6258" width="24" height="24" fill="none"/>
  <g id="Group_20091" data-name="Group 20091" transform="translate(4 3)">
    <path id="Path_18592" data-name="Path 18592" d="M13,5V4a3,3,0,0,0-3-3H4A3,3,0,0,0,1,4V14a3,3,0,0,0,3,3h6a3,3,0,0,0,3-3V13" fill="none" stroke="#fff" stroke-width="1.5"/>
    <rect id="Rectangle_6472" data-name="Rectangle 6472" width="11" height="5" rx="1.5" transform="translate(4.5 6.5)" fill="none" stroke="#fff" stroke-width="1"/>
    <path id="Path_18593" data-name="Path 18593" d="M6.712,9.116,6,8.913l.128-.39.7.27L6.8,8h.418l-.035.807.693-.265.126.4-.723.2.467.614L7.4,10l-.42-.664-.415.644-.341-.235Z" fill="#fff"/>
    <path id="Path_18594" data-name="Path 18594" d="M9.712,9.116,9,8.913l.128-.39.7.27L9.8,8h.418l-.035.807.693-.265.126.4-.724.2.467.614L10.4,10l-.42-.664-.415.644-.341-.235Z" fill="#fff"/>
    <path id="Path_18595" data-name="Path 18595" d="M12.712,9.116,12,8.913l.128-.39.7.27L12.8,8h.418l-.035.807.693-.265.126.4-.724.2.467.614L13.4,10l-.42-.664-.415.644-.341-.235Z" fill="#fff"/>
  </g>
</svg>
