<svg id="logo-viettel" xmlns="http://www.w3.org/2000/svg" width="24" height="24" viewBox="0 0 24 24">
  <rect id="Rectangle_6409" data-name="Rectangle 6409" width="24" height="24" fill="none"/>
  <g id="Logo_Viettel" transform="translate(2 6.234)">
    <ellipse id="Ellipse_1413" data-name="Ellipse 1413" cx="10" cy="5.77" rx="10" ry="5.77" transform="translate(0 -0.004)" fill="#fff"/>
    <g id="Group_20197" data-name="Group 20197" transform="translate(0.891 0.43)">
      <path id="Path_19368" data-name="Path 19368" d="M24.411,6.482c-1.829-2.225-5.2-3.717-9.062-3.717S8.118,4.257,6.288,6.482H13.44a7.356,7.356,0,0,1,5.486-2.116A7.355,7.355,0,0,1,24.411,6.482Z" transform="translate(-6.193 -2.765)" fill="#00918c"/>
      <path id="Path_19369" data-name="Path 19369" d="M6.2,47.126c1.83,2.224,5.2,3.717,9.062,3.717s7.231-1.493,9.062-3.717H17.171a7.353,7.353,0,0,1-5.485,2.114A7.354,7.354,0,0,1,6.2,47.126Z" transform="translate(-6.118 -40.171)" fill="#d58431"/>
      <path id="Path_19370" data-name="Path 19370" d="M9.2,31.013H8.449a.562.562,0,0,0-.459.187l-.573.838L6.834,31.2a.765.765,0,0,0-.561-.187H5.68l1.041,1.24a1.062,1.062,0,0,0,.67.186.933.933,0,0,0,.7-.186l.645-.784v.784c0,.089.153.186.462.186s.516-.094.516-.186V31.2C9.713,31.1,9.532,31.013,9.2,31.013Zm13.382,1.073c-.189,0-.3-.064-.3-.242V31.2c0-.1-.185-.187-.491-.187s-.487.014-.487.187v.914H19.691c-.165,0-.236-.021-.236-.152v-.131h1.2c.176,0,.324.008.324-.14v-.148H19.691c-.165,0-.236-.022-.236-.123v-.1h1.3c.165,0,.348-.054.348-.119v-.187h-3.7a.138.138,0,0,1-.14-.141V30.84c0-.087-.173-.185-.456-.185s-.523.071-.523.185v.038l0-.007a.138.138,0,0,1-.14.141H14.959a.138.138,0,0,1-.14-.141l0,.007V30.84c0-.087-.172-.185-.455-.185s-.524.071-.524.185v.031a.138.138,0,0,1-.139.141H10.236c-.177,0-.27.061-.27.187v1.053c0,.092.116.186.4.186H12.3c.149,0,.339-.092.339-.19v-.135H11.171c-.134,0-.226-.031-.226-.157v-.126h1.2c.142,0,.331,0,.331-.143v-.146H11.179c-.134,0-.234-.01-.234-.094v-.083h2.438c.248,0,.454.077.454.325v.562c0,.087.231.186.5.186s.477-.1.477-.186v-.562a.356.356,0,0,1,.4-.325h.672c.223,0,.392.1.392.313v.574c0,.087.173.186.457.186s.523-.072.523-.186v-.574a.38.38,0,0,1,.349-.313h.507a.342.342,0,0,1,.366.325v.562c0,.087.082.186.294.186h4.645c.213,0,.385-.083.385-.186v-.167Z" transform="translate(-5.68 -26.282)" fill="#00918c"/>
    </g>
  </g>
</svg>
