<svg xmlns="http://www.w3.org/2000/svg" width="24" height="24" viewBox="0 0 24 24">
  <g id="Vietinbank" transform="translate(-5.667 -6)">
    <g id="Bank_Logo_Vietinbank" data-name="Bank/Logo/Vietinbank" transform="translate(5.667 6)">
      <rect id="Rectangle_5468" data-name="Rectangle 5468" width="24" height="24" fill="none"/>
      <g id="Group_19442" data-name="Group 19442" transform="translate(-4.002 -4.003)">
        <path id="Path_16501" data-name="Path 16501" d="M18.619,17.884a15.172,15.172,0,0,1,5.538,1.923,9,9,0,1,0-16.311,0,15.156,15.156,0,0,1,5.5-1.917V13.27h5.276v4.614Z" transform="translate(0 0)" fill="#00568f" fill-rule="evenodd"/>
        <path id="Path_16502" data-name="Path 16502" d="M24.213,26.2a16.227,16.227,0,0,0-7.586-1.8,16.227,16.227,0,0,0-7.586,1.8,9,9,0,0,0,15.171,0Z" transform="translate(-0.628 -5.356)" fill="#d5053f" fill-rule="evenodd"/>
      </g>
    </g>
  </g>
</svg>
