<svg id="Eximbank-vip" xmlns="http://www.w3.org/2000/svg" xmlns:xlink="http://www.w3.org/1999/xlink" width="44" height="44" viewBox="0 0 44 44">
  <defs>
    <linearGradient id="linear-gradient" x1="0.5" y1="1" x2="0.5" gradientUnits="objectBoundingBox">
      <stop offset="0" stop-color="#1a1614"/>
      <stop offset="1" stop-color="#ac8e63"/>
    </linearGradient>
    <radialGradient id="radial-gradient" cx="1.13" cy="0.868" r="0.969" gradientTransform="translate(-0.17) scale(1.34 1)" gradientUnits="objectBoundingBox">
      <stop offset="0" stop-color="#734f1b"/>
      <stop offset="0.009" stop-color="#7e5c29"/>
      <stop offset="0.058" stop-color="#b89c6e"/>
      <stop offset="0.093" stop-color="#dcc49a"/>
      <stop offset="0.111" stop-color="#ead4ab"/>
      <stop offset="0.732" stop-color="#f3dfb7"/>
      <stop offset="0.765" stop-color="#eed9b0"/>
      <stop offset="0.813" stop-color="#e2cb9d"/>
      <stop offset="0.869" stop-color="#ceb37f"/>
      <stop offset="0.932" stop-color="#b29354"/>
      <stop offset="0.999" stop-color="#8f691e"/>
      <stop offset="1" stop-color="#8f691e"/>
    </radialGradient>
    <radialGradient id="radial-gradient-2" cx="-0.13" cy="0.132" r="0.798" gradientTransform="matrix(0, 1, -1.34, 0, 0.047, 0.262)" xlink:href="#radial-gradient"/>
    <linearGradient id="linear-gradient-2" x1="0.5" y1="1.001" x2="0.5" y2="0.001" gradientUnits="objectBoundingBox">
      <stop offset="0" stop-color="#734f1b"/>
      <stop offset="0.093" stop-color="#927140"/>
      <stop offset="0.221" stop-color="#b79b6e"/>
      <stop offset="0.336" stop-color="#d3ba8f"/>
      <stop offset="0.431" stop-color="#e3cda3"/>
      <stop offset="0.495" stop-color="#ead4ab"/>
      <stop offset="0.672" stop-color="#f3dfb7"/>
      <stop offset="0.713" stop-color="#eed9b0"/>
      <stop offset="0.772" stop-color="#e2cb9d"/>
      <stop offset="0.84" stop-color="#ceb37f"/>
      <stop offset="0.917" stop-color="#b29354"/>
      <stop offset="0.999" stop-color="#8f691e"/>
      <stop offset="1" stop-color="#8f691e"/>
    </linearGradient>
    <radialGradient id="radial-gradient-3" cx="0.5" cy="0.5" r="0.5" xlink:href="#linear-gradient-2"/>
  </defs>
  <rect id="Rectangle_5468" data-name="Rectangle 5468" width="44" height="44" fill="none"/>
  <g id="Group_21057" data-name="Group 21057" transform="translate(1.833 1.833)">
    <circle id="Ellipse_3376" data-name="Ellipse 3376" cx="20" cy="20" r="20" transform="translate(0.167 0.167)" fill="url(#linear-gradient)"/>
    <g id="Group_207827" data-name="Group 207827" transform="translate(5.571 5.571)">
      <path id="Path_10957" data-name="Path 10957" d="M149.465,108.118a14.314,14.314,0,0,0-12.523,13.669h0v.008h0c-.006.171-.012.344-.012.517a14.5,14.5,0,0,0,.24,2.608s-.11-3.125,4.1-3.125h8.2Z" transform="translate(-136.929 -107.945)" fill="url(#radial-gradient)"/>
      <path id="Path_10958" data-name="Path 10958" d="M144.838,130.606a14.313,14.313,0,0,0,12.523-13.667h0v-.01h0c.006-.171.012-.344.012-.517a14.319,14.319,0,0,0-.24-2.608s.112,3.125-4.094,3.125h-8.2Z" transform="translate(-128.746 -102.062)" fill="url(#radial-gradient-2)"/>
      <path id="Path_10959" data-name="Path 10959" d="M145.232,108.076l-1.681-.01v28.471c.022,0,1.681.006,1.681.006Z" transform="translate(-130.077 -107.999)" fill="url(#linear-gradient-2)"/>
      <path id="Path_10960" data-name="Path 10960" d="M156.724,119.734a4.756,4.756,0,0,1,.073.621,2.578,2.578,0,0,1-2.136,2.531c3.7-.134,3.843-2.663,3.815-3.138a14.31,14.31,0,0,0-13.295-11.685l-.785-.031h-.783l-.061,0v2.946a1.556,1.556,0,0,1,1.691-1.2A12.594,12.594,0,0,1,156.724,119.734Z" transform="translate(-130.077 -108.033)" fill="url(#radial-gradient-3)"/>
      <path id="Path_10961" data-name="Path 10961" d="M138.8,117.954a4.75,4.75,0,0,1-.073-.621,2.578,2.578,0,0,1,2.136-2.531c-3.7.134-3.843,2.663-3.815,3.138a14.31,14.31,0,0,0,13.295,11.685l.785.033h.783l.061-.006V126.7a1.556,1.556,0,0,1-1.691,1.2A12.592,12.592,0,0,1,138.8,117.954Z" transform="translate(-136.813 -101.029)" fill="url(#radial-gradient-3)"/>
    </g>
  </g>
</svg>
