<svg xmlns="http://www.w3.org/2000/svg" width="40" height="40" viewBox="0 0 40 40">
  <g id="ava3" transform="translate(-1323 -862)">
    <path id="Path_68332" data-name="Path 68332" d="M0,25.725a31.811,31.811,0,0,1,5.283-2.366c4.308-1.562,5.679-2.88,5.679-5.694,0-1.687-1.315-1.141-1.894-4.239-.237-1.282-1.4-.02-1.622-2.954,0-1.169.643-1.458.643-1.458s-.323-1.736-.452-3.066C7.475,4.288,8.6,0,14.566,0S21.652,4.288,21.5,5.948c-.129,1.33-.447,3.066-.447,3.066s.633.293.633,1.458c-.226,2.93-1.385,1.672-1.622,2.954-.579,3.1-1.891,2.552-1.891,4.239,0,2.813,1.373,4.131,5.676,5.694a31.843,31.843,0,0,1,5.28,2.365A21.927,21.927,0,0,1,0,25.725Z" transform="translate(1329.436 870)" fill="rgba(255,255,255,0.87)"/>
    <circle id="Ellipse_1428" data-name="Ellipse 1428" cx="20" cy="20" r="20" transform="translate(1323 862)" fill="rgba(255,255,255,0.24)" opacity="0.4"/>
  </g>
</svg>
