<svg xmlns="http://www.w3.org/2000/svg" width="36" height="36" viewBox="0 0 36 36">
  <g id="acc_ic01" transform="translate(12804 -7220)">
    <rect id="Rectangle_5634" data-name="Rectangle 5634" width="36" height="36" transform="translate(-12804 7220)" fill="none"/>
    <path id="Path_15687" data-name="Path 15687" d="M-11386.814,4388.386l-2.651-4.331a1.4,1.4,0,0,0-1.148-.726,3.456,3.456,0,0,0-1.2.343l-10.557,5.028Z" transform="translate(-1392 2844.386)" fill="#deb331"/>
    <path id="Subtraction_48" data-name="Subtraction 48" d="M-2080-11697.334h-14a4,4,0,0,1-4-4v-9a4,4,0,0,1,4-4h14a4,4,0,0,1,4,4v9A4,4,0,0,1-2080-11697.334Zm0-11.336a1,1,0,0,0-1,1v4a1,1,0,0,0,1,1,1,1,0,0,0,1-1v-4A1,1,0,0,0-2080-11708.67Z" transform="translate(-10699 18946.67)" fill="#fff"/>
  </g>
</svg>
