<svg id="contact-manager" xmlns="http://www.w3.org/2000/svg" width="64" height="64" viewBox="0 0 64 64">
  <rect id="Rectangle_6164" data-name="Rectangle 6164" width="64" height="64" fill="none"/>
  <path id="Path_68341" data-name="Path 68341" d="M10759.4,23331a3.4,3.4,0,0,1-3.4-3.4v-40.777a3.405,3.405,0,0,1,3.4-3.395h15.769a1.99,1.99,0,0,0-.047.455v4.639h-5.528v37.379h16.992a1.676,1.676,0,0,0,1.7-1.7v-25.758a2.1,2.1,0,0,0,.563-.41,2.468,2.468,0,0,0,.714-1.75v-12.4a3.932,3.932,0,0,0-.035-.455h.463a3.394,3.394,0,0,1,3.4,3.395v40.777a3.386,3.386,0,0,1-3.4,3.4Zm1.7-40.783v33.984a1.687,1.687,0,0,0,1.7,1.7h3.4v-37.379h-3.4A1.7,1.7,0,0,0,10761.1,23290.217Zm16.564,6.066v-12.4a.81.81,0,0,1,.135-.455.877.877,0,0,1,.749-.428h7.595a.847.847,0,0,1,.726.428h.006a.858.858,0,0,1,.135.455l.035,4.709.047,7.594-2.992-1.8a3.421,3.421,0,0,0-3.2-.164,3.286,3.286,0,0,0-.312.164l-2.922,1.908Z" transform="translate(-10742.999 -23274.998)" fill="rgba(255,255,255,0.87)"/>
</svg>
