<svg xmlns="http://www.w3.org/2000/svg" xmlns:xlink="http://www.w3.org/1999/xlink" width="24" height="24" viewBox="0 0 24 24">
  <defs>
    <radialGradient id="radial-gradient" cx="1.13" cy="0.868" r="0.969" gradientTransform="translate(-0.17) scale(1.34 1)" gradientUnits="objectBoundingBox">
      <stop offset="0" stop-color="#734f1b"/>
      <stop offset="0.009" stop-color="#7e5c29"/>
      <stop offset="0.058" stop-color="#b89c6e"/>
      <stop offset="0.093" stop-color="#dcc49a"/>
      <stop offset="0.111" stop-color="#ead4ab"/>
      <stop offset="0.732" stop-color="#f3dfb7"/>
      <stop offset="0.765" stop-color="#eed9b0"/>
      <stop offset="0.813" stop-color="#e2cb9d"/>
      <stop offset="0.869" stop-color="#ceb37f"/>
      <stop offset="0.932" stop-color="#b29354"/>
      <stop offset="0.999" stop-color="#8f691e"/>
      <stop offset="1" stop-color="#8f691e"/>
    </radialGradient>
    <radialGradient id="radial-gradient-2" cx="-0.13" cy="0.132" r="0.798" gradientTransform="matrix(0, 1, -1.34, 0, 0.047, 0.262)" gradientUnits="objectBoundingBox">
      <stop offset="0" stop-color="#734f1b"/>
      <stop offset="0.009" stop-color="#c3811d"/>
      <stop offset="0.058" stop-color="#b89c6e"/>
      <stop offset="0.093" stop-color="#dcc49a"/>
      <stop offset="0.111" stop-color="#ead4ab"/>
      <stop offset="0.732" stop-color="#f3dfb7"/>
      <stop offset="0.765" stop-color="#eed9b0"/>
      <stop offset="0.813" stop-color="#e2cb9d"/>
      <stop offset="1" stop-color="#b9975d"/>
    </radialGradient>
    <linearGradient id="linear-gradient" x1="0.5" y1="1.001" x2="0.5" y2="0.001" gradientUnits="objectBoundingBox">
      <stop offset="0" stop-color="#734f1b"/>
      <stop offset="0.093" stop-color="#927140"/>
      <stop offset="0.221" stop-color="#b79b6e"/>
      <stop offset="0.336" stop-color="#d3ba8f"/>
      <stop offset="0.431" stop-color="#e3cda3"/>
      <stop offset="0.495" stop-color="#ead4ab"/>
      <stop offset="0.672" stop-color="#f3dfb7"/>
      <stop offset="0.713" stop-color="#eed9b0"/>
      <stop offset="0.772" stop-color="#e2cb9d"/>
      <stop offset="0.84" stop-color="#ceb37f"/>
      <stop offset="0.917" stop-color="#b29354"/>
      <stop offset="0.999" stop-color="#8f691e"/>
      <stop offset="1" stop-color="#8f691e"/>
    </linearGradient>
    <radialGradient id="radial-gradient-3" cx="0.5" cy="0.5" r="0.5" gradientUnits="objectBoundingBox">
      <stop offset="0" stop-color="#734f1b"/>
      <stop offset="0.093" stop-color="#927140"/>
      <stop offset="0.221" stop-color="#b79b6e"/>
      <stop offset="0.336" stop-color="#d3ba8f"/>
      <stop offset="0.431" stop-color="#e3cda3"/>
      <stop offset="0.495" stop-color="#ead4ab"/>
      <stop offset="0.672" stop-color="#f3dfb7"/>
      <stop offset="0.713" stop-color="#eed9b0"/>
      <stop offset="0.772" stop-color="#e2cb9d"/>
      <stop offset="0.84" stop-color="#ceb37f"/>
      <stop offset="0.917" stop-color="#b29354"/>
      <stop offset="1" stop-color="#a98547"/>
    </radialGradient>
  </defs>
  <g id="icons" transform="translate(12222 -13952)">
    <rect id="Rectangle_6403" data-name="Rectangle 6403" width="24" height="24" transform="translate(-12222 13952)" fill="none"/>
    <g id="Group_19787" data-name="Group 19787">
      <rect id="Rectangle_6403-2" data-name="Rectangle 6403" width="24" height="24" transform="translate(-12222 13952)" fill="none"/>
      <g id="Group_19786" data-name="Group 19786" transform="translate(-12220 13954)">
        <path id="Path_10957" data-name="Path 10957" d="M145.687,108.118a10,10,0,0,0-8.749,9.549h0v.006h0c0,.119-.009.24-.009.361a10.129,10.129,0,0,0,.168,1.822s-.077-2.183,2.861-2.183h5.729Z" transform="translate(-136.929 -107.997)" fill="url(#radial-gradient)"/>
        <path id="Path_10958" data-name="Path 10958" d="M144.838,125.542a10,10,0,0,0,8.749-9.548h0v-.007h0c0-.119.009-.24.009-.361a10,10,0,0,0-.168-1.822s.078,2.183-2.86,2.183h-5.73Z" transform="translate(-133.596 -105.601)" fill="url(#radial-gradient-2)"/>
        <path id="Path_10959" data-name="Path 10959" d="M144.725,108.073l-1.174-.007v19.891c.016,0,1.174,0,1.174,0Z" transform="translate(-134.138 -108.019)" fill="url(#linear-gradient)"/>
        <path id="Path_10960" data-name="Path 10960" d="M152.754,116.208a3.308,3.308,0,0,1,.051.434,1.8,1.8,0,0,1-1.493,1.768c2.586-.094,2.685-1.861,2.665-2.192a10,10,0,0,0-9.288-8.163l-.549-.021h-.547l-.043,0v2.058a1.087,1.087,0,0,1,1.181-.837A8.8,8.8,0,0,1,152.754,116.208Z" transform="translate(-134.138 -108.033)" fill="url(#radial-gradient-3)"/>
        <path id="Path_10961" data-name="Path 10961" d="M138.266,117a3.314,3.314,0,0,1-.051-.434,1.8,1.8,0,0,1,1.493-1.768c-2.586.094-2.685,1.861-2.665,2.192a10,10,0,0,0,9.288,8.163l.549.023h.547l.043,0v-2.058a1.087,1.087,0,0,1-1.181.837A8.8,8.8,0,0,1,138.266,117Z" transform="translate(-136.882 -105.18)" fill="url(#radial-gradient-3)"/>
      </g>
    </g>
  </g>
</svg>
