<svg xmlns="http://www.w3.org/2000/svg" xmlns:xlink="http://www.w3.org/1999/xlink" width="64" height="64" viewBox="0 0 64 64">
  <defs>
    <linearGradient id="linear-gradient" x1="-0.014" x2="1" y2="1" gradientUnits="objectBoundingBox">
      <stop offset="0" stop-color="#f3e0b8"/>
      <stop offset="0.134" stop-color="#f9c734"/>
      <stop offset="0.657" stop-color="#916b1f"/>
      <stop offset="1" stop-color="#72501b"/>
    </linearGradient>
  </defs>
  <g id="funtion_ic_wallet" transform="translate(-1420 -1528.5)">
    <rect id="Rectangle_6171" data-name="Rectangle 6171" width="64" height="64" transform="translate(1420 1528.5)" fill="none"/>
    <rect id="Rectangle_6255" data-name="Rectangle 6255" width="32.516" height="9.29" transform="translate(1431.098 1541.145)" fill="#72501b"/>
    <rect id="Rectangle_6256" data-name="Rectangle 6256" width="41.806" height="29.419" transform="translate(1431.098 1550.435)" fill="#fff7e5"/>
    <path id="Union_42" data-name="Union 42" d="M5.42,44.9A5.426,5.426,0,0,1,0,39.484V7.742l.044.011A6.972,6.972,0,0,1,6.968,0H31.742a6.976,6.976,0,0,1,6.966,6.968V9.291H42.58A5.424,5.424,0,0,1,48,14.71V39.484a5.426,5.426,0,0,1-5.42,5.42Zm-.775-5.42a.775.775,0,0,0,.775.773H42.58a.775.775,0,0,0,.775-.773V14.71a.775.775,0,0,0-.775-.773H4.645Zm0-32.516A2.327,2.327,0,0,0,6.968,9.291h27.1V6.968a2.325,2.325,0,0,0-2.322-2.323H6.968A2.327,2.327,0,0,0,4.645,6.968Z" transform="translate(1428 1538.048)" fill="url(#linear-gradient)"/>
    <path id="Rectangle_6257" data-name="Rectangle 6257" d="M4,0H15.484a0,0,0,0,1,0,0V9.29a0,0,0,0,1,0,0H4a4,4,0,0,1-4-4V4A4,4,0,0,1,4,0Z" transform="translate(1460.516 1560.5)" fill="#f9c734"/>
    <path id="Path_18529" data-name="Path 18529" d="M104.493,98.5a2.981,2.981,0,0,1-.879,2.121l-2.994,3a3.058,3.058,0,0,1-2.121.879,2.986,2.986,0,0,1-1.285-.3l1.45-1.492a1,1,0,0,0,0-1.414.95.95,0,0,0-1.372,0L95.8,102.785a2.943,2.943,0,0,1-.3-1.285,2.981,2.981,0,0,1,.879-2.121l2.958-3A3.079,3.079,0,0,1,101.5,95.5a2.977,2.977,0,0,1,1.283.3l-1.522,1.524a1,1,0,1,0,1.412,1.414l1.52-1.524a2.943,2.943,0,0,1,.3,1.285m1.793-6.207-2.035,2.037a4.989,4.989,0,0,0-6.287.635l-3,3a5,5,0,0,0-.637,6.291l-2.035,2.037a1,1,0,1,0,1.414,1.414l2.035-2.037a4.978,4.978,0,0,0,2.758.83,5.056,5.056,0,0,0,3.535-1.465l2.994-3a5,5,0,0,0,.637-6.291l2.041-2.037a1,1,0,1,0-1.42-1.414Z" transform="translate(1347 1465)" fill="#72501b" stroke="#72501b" stroke-width="1"/>
  </g>
</svg>
