<svg id="funtion_ic_mobile" xmlns="http://www.w3.org/2000/svg" xmlns:xlink="http://www.w3.org/1999/xlink" width="64" height="64" viewBox="0 0 64 64">
  <defs>
    <linearGradient id="linear-gradient" x2="1" y2="1" gradientUnits="objectBoundingBox">
      <stop offset="0" stop-color="#f3e0b8"/>
      <stop offset="0.134" stop-color="#f9c734"/>
      <stop offset="0.657" stop-color="#916b1f"/>
      <stop offset="1" stop-color="#72501b"/>
    </linearGradient>
  </defs>
  <rect id="Rectangle_6171" data-name="Rectangle 6171" width="64" height="64" fill="none"/>
  <g id="Group_18929" data-name="Group 18929" transform="translate(-159 -21)">
    <g id="Group_18928" data-name="Group 18928" transform="translate(170 29)">
      <rect id="Rectangle_5944" data-name="Rectangle 5944" width="32.571" height="48" rx="2" fill="url(#linear-gradient)"/>
      <rect id="Rectangle_6073" data-name="Rectangle 6073" width="22.286" height="37.714" rx="1" transform="translate(5.143 5.143)" fill="#fff7e5"/>
    </g>
    <circle id="Ellipse_1117" data-name="Ellipse 1117" cx="2.571" cy="2.571" r="2.571" transform="translate(183.714 63.286)" fill="#72501b"/>
    <g id="Group_18979" data-name="Group 18979" transform="translate(188.857 41)">
      <path id="Path_16389" data-name="Path 16389" d="M12,0A12,12,0,1,1,0,12,12,12,0,0,1,12,0Z" fill="#f9c734"/>
      <g id="Group_18541" data-name="Group 18541" transform="translate(8.749 4.494)">
        <path id="Path_15911" data-name="Path 15911" d="M-661-153.394v2.34" transform="translate(664.346 153.394)" fill="none" stroke="#72501b" stroke-linecap="round" stroke-linejoin="round" stroke-width="1.5"/>
        <path id="Path_15912" data-name="Path 15912" d="M-661-153.394v2.34" transform="translate(664.346 165.83)" fill="none" stroke="#72501b" stroke-linecap="round" stroke-linejoin="round" stroke-width="1.5"/>
        <path id="Path_15910" data-name="Path 15910" d="M-657.032-150.444a4,4,0,0,0-2.927-1.228c-1.722.105-2.449.862-2.75,1.895a2.39,2.39,0,0,0,1.72,2.967,9.667,9.667,0,0,1,2.645.9,2.116,2.116,0,0,1,1.2,1.957c0,1.4-1.4,2.408-3.032,2.344a5.631,5.631,0,0,1-3.26-1.206" transform="translate(663.432 154.039)" fill="none" stroke="#72501b" stroke-linecap="round" stroke-linejoin="round" stroke-width="1.5"/>
      </g>
    </g>
  </g>
</svg>
