<svg id="funtion_ic_otp" xmlns="http://www.w3.org/2000/svg" xmlns:xlink="http://www.w3.org/1999/xlink" width="64" height="64" viewBox="0 0 64 64">
  <defs>
    <linearGradient id="linear-gradient" x2="0.989" y2="1" gradientUnits="objectBoundingBox">
      <stop offset="0" stop-color="#f3e0b8"/>
      <stop offset="0.134" stop-color="#f9c734"/>
      <stop offset="0.657" stop-color="#916b1f"/>
      <stop offset="1" stop-color="#72501b"/>
    </linearGradient>
  </defs>
  <rect id="Rectangle_6171" data-name="Rectangle 6171" width="64" height="64" fill="none"/>
  <g id="Group_19060" data-name="Group 19060" transform="translate(-4 0.13)">
    <g id="Group_18968" data-name="Group 18968" transform="translate(9 15.958)">
      <path id="Path_16422" data-name="Path 16422" d="M-214.311-83.2h-31.14a7.28,7.28,0,0,0-7.279,7.279V-48a3.89,3.89,0,0,0,.437,1.812,3.947,3.947,0,0,0,2.329,2.022,3.918,3.918,0,0,0,1.278.21,4.135,4.135,0,0,0,1.812-.421l8.04-4.028h24.524a7.29,7.29,0,0,0,7.279-7.279V-75.921A7.28,7.28,0,0,0-214.311-83.2Zm2.426,27.516a2.423,2.423,0,0,1-2.426,2.426h-25.672l-7.894,3.947v-26.61a2.423,2.423,0,0,1,2.426-2.426h31.14a2.423,2.423,0,0,1,2.426,2.426Z" transform="translate(252.73 83.2)" fill="url(#linear-gradient)"/>
      <path id="Path_16423" data-name="Path 16423" d="M-213.737-77.774v20.237a2.423,2.423,0,0,1-2.426,2.426h-25.672l-7.894,3.947v-26.61A2.423,2.423,0,0,1-247.3-80.2h31.14A2.423,2.423,0,0,1-213.737-77.774Z" transform="translate(254.583 85.053)" fill="#fff7e5"/>
      <g id="Group_18965" data-name="Group 18965" transform="translate(11.582 12.151)">
        <rect id="Rectangle_6049" data-name="Rectangle 6049" width="5.634" height="9.859" rx="2.817" transform="translate(0 0)" fill="none" stroke="#72501b" stroke-linecap="round" stroke-linejoin="round" stroke-width="2.5"/>
        <path id="Path_16355" data-name="Path 16355" d="M26.466,16h6.407" transform="translate(-18.044 -16)" fill="none" stroke="#72501b" stroke-linecap="round" stroke-width="2.5"/>
        <path id="Path_16356" data-name="Path 16356" d="M0,0H9.859" transform="translate(11.625) rotate(90)" fill="none" stroke="#72501b" stroke-linecap="round" stroke-width="2.5"/>
        <path id="Path_16356-2" data-name="Path 16356" d="M0,0H9.859" transform="translate(18.31) rotate(90)" fill="none" stroke="#72501b" stroke-linecap="round" stroke-width="2.5"/>
        <path id="Rectangle_6050" data-name="Rectangle 6050" d="M0,0H2.225a2,2,0,0,1,2,2V3.634a2,2,0,0,1-2,2H0a0,0,0,0,1,0,0V0A0,0,0,0,1,0,0Z" transform="translate(18.31)" fill="none" stroke="#72501b" stroke-linecap="round" stroke-linejoin="round" stroke-width="2.5"/>
      </g>
    </g>
    <g id="Group_18967" data-name="Group 18967" transform="translate(41.353 7.87)">
      <path id="Path_16424" data-name="Path 16424" d="M11.324,0A11.324,11.324,0,1,1,0,11.324,11.324,11.324,0,0,1,11.324,0Z" transform="translate(0 0)" fill="#f9c734"/>
      <g id="Path_16348" data-name="Path 16348" transform="translate(-670.47 -82.287)" fill="none" stroke-linecap="round" stroke-linejoin="round">
        <path d="M686.168,94.245l1.143,1a.423.423,0,0,1,.087.529l-.926,1.605a.422.422,0,0,1-.5.189l-1.444-.49a.424.424,0,0,0-.373.054,4.3,4.3,0,0,1-.487.282.424.424,0,0,0-.234.3l-.3,1.5a.422.422,0,0,1-.414.34h-1.852a.422.422,0,0,1-.414-.34l-.3-1.5a.426.426,0,0,0-.234-.3,4.231,4.231,0,0,1-.487-.282.425.425,0,0,0-.373-.054l-1.444.49a.423.423,0,0,1-.5-.189l-.926-1.605a.423.423,0,0,1,.087-.529l1.143-1a.431.431,0,0,0,.141-.357c-.006-.092-.009-.185-.009-.278s0-.185.009-.278a.43.43,0,0,0-.141-.356l-1.143-1a.422.422,0,0,1-.087-.529l.926-1.605a.423.423,0,0,1,.5-.189l1.444.49a.423.423,0,0,0,.373-.054,4.181,4.181,0,0,1,.487-.281.425.425,0,0,0,.234-.3l.3-1.5a.423.423,0,0,1,.414-.34h1.852a.422.422,0,0,1,.414.34l.3,1.5a.424.424,0,0,0,.234.3,4.244,4.244,0,0,1,.487.281.422.422,0,0,0,.373.054l1.444-.49a.422.422,0,0,1,.5.189l.926,1.605a.422.422,0,0,1-.087.529l-1.143,1a.431.431,0,0,0-.141.356c.006.092.009.185.009.278s0,.186-.009.278A.432.432,0,0,0,686.168,94.245Z" stroke="none"/>
        <path d="M 681.7952880859375 96.51187133789062 C 682.0330200195312 96.13492584228516 682.3734130859375 95.82349395751953 682.7806396484375 95.62349700927734 C 682.8703002929688 95.57920074462891 682.9579467773438 95.52854156494141 683.0420532226562 95.47225952148438 C 683.4205322265625 95.21926879882812 683.8556518554688 95.07808685302734 684.3056640625 95.06140899658203 C 684.09814453125 94.668701171875 684.0010986328125 94.22039794921875 684.0313720703125 93.75770568847656 C 684.0315551757812 93.75448608398438 684.0317993164062 93.75128173828125 684.0320434570312 93.74805450439453 C 684.0347290039062 93.70926666259766 684.0361328125 93.66301727294922 684.0361328125 93.610595703125 C 684.0361328125 93.55832672119141 684.0347290039062 93.51188659667969 684.031982421875 93.47256469726562 C 684.0317993164062 93.46953582763672 684.0315551757812 93.46649932861328 684.0313720703125 93.46347045898438 C 684.0010375976562 93.00048828125 684.0982055664062 92.5521240234375 684.3052368164062 92.15998840332031 C 683.8538818359375 92.14323425292969 683.4178466796875 92.00125122070312 683.0410766601562 91.74826049804688 C 682.9581909179688 91.69281768798828 682.87158203125 91.64274597167969 682.7848510742188 91.60012054443359 C 682.3748779296875 91.39881896972656 682.0331420898438 91.08652496337891 681.795166015625 90.70993804931641 C 681.5587158203125 91.08746337890625 681.2183837890625 91.39612579345703 680.8020629882812 91.60019683837891 C 680.7151489257812 91.64286804199219 680.629638671875 91.69227600097656 680.5469360351562 91.74774169921875 C 680.1679077148438 92.00164031982422 679.732177734375 92.143310546875 679.2814331054688 92.15999603271484 C 679.4888305664062 92.55241394042969 679.585693359375 93.00026702880859 679.5552368164062 93.46270751953125 C 679.5523071289062 93.5087890625 679.5508422851562 93.55853271484375 679.5508422851562 93.610595703125 C 679.5508422851562 93.66319274902344 679.5523071289062 93.71307373046875 679.5552368164062 93.75890350341797 C 679.5855712890625 94.22089385986328 679.48876953125 94.66864013671875 679.281005859375 95.0614013671875 C 679.73046875 95.07801818847656 680.1651000976562 95.21881103515625 680.54345703125 95.47109985351562 C 680.544921875 95.47209930419922 680.5464477539062 95.47310638427734 680.5479736328125 95.47410583496094 C 680.6298828125 95.52907562255859 680.7163696289062 95.57908630371094 680.801513671875 95.62104797363281 C 681.2183227539062 95.82545471191406 681.5587768554688 96.13431549072266 681.7952880859375 96.51187133789062 M 682.7197265625 99.5501708984375 L 680.8673706054688 99.5501708984375 C 680.6658325195312 99.5501708984375 680.4924926757812 99.40792846679688 680.453125 99.21012878417969 L 680.155029296875 97.71292114257812 C 680.1286010742188 97.58235168457031 680.0406494140625 97.47547912597656 679.9208374023438 97.41671752929688 C 679.7514038085938 97.33322143554688 679.5889282226562 97.23908996582031 679.433837890625 97.13505554199219 C 679.3229370117188 97.06108093261719 679.1862182617188 97.0384521484375 679.0604248046875 97.08129119873047 L 677.6165161132812 97.57170104980469 C 677.4254150390625 97.63682556152344 677.215576171875 97.55755615234375 677.1144409179688 97.38309478759766 L 676.1884765625 95.77764892578125 C 676.087646484375 95.60317993164062 676.1240234375 95.38166809082031 676.2755126953125 95.24863433837891 L 677.418701171875 94.24505615234375 C 677.5203857421875 94.15554809570312 677.5687255859375 94.02354431152344 677.5594482421875 93.88837432861328 C 677.5535278320312 93.79638671875 677.5508422851562 93.70365905761719 677.5508422851562 93.610595703125 C 677.5508422851562 93.51784515380859 677.5535278320312 93.4251708984375 677.5594482421875 93.33280944824219 C 677.5687255859375 93.1976318359375 677.5203857421875 93.06562805175781 677.418701171875 92.97647094726562 L 676.2755126953125 91.97256469726562 C 676.1240234375 91.83950805664062 676.087646484375 91.61835479736328 676.1884765625 91.44390106201172 L 677.1144409179688 89.83840942382812 C 677.2155151367188 89.66362762451172 677.425537109375 89.58465576171875 677.6165161132812 89.64945983886719 L 679.0604248046875 90.13990783691406 C 679.1862182617188 90.18309783935547 679.3229370117188 90.16041564941406 679.433837890625 90.08612060546875 C 679.5889282226562 89.98208618164062 679.7514038085938 89.88795471191406 679.9208374023438 89.80479431152344 C 680.0406494140625 89.74607086181641 680.1286010742188 89.63919067382812 680.155029296875 89.50860595703125 L 680.453125 88.01104736328125 C 680.4924926757812 87.81362915039062 680.6658325195312 87.67100524902344 680.8673706054688 87.67100524902344 L 682.7197265625 87.67100524902344 C 682.921142578125 87.67100524902344 683.0947875976562 87.81362915039062 683.1338500976562 88.01104736328125 L 683.4323120117188 89.50860595703125 C 683.4580078125 89.63919067382812 683.546630859375 89.74607086181641 683.666259765625 89.80479431152344 C 683.8353271484375 89.88795471191406 683.9979248046875 89.98208618164062 684.1533813476562 90.08612060546875 C 684.2640380859375 90.16043090820312 684.4004516601562 90.18304443359375 684.5266723632812 90.13990783691406 L 685.9708251953125 89.64945983886719 C 686.1616821289062 89.58465576171875 686.3719482421875 89.66361999511719 686.47265625 89.83840942382812 L 687.3986206054688 91.44390106201172 C 687.4993286132812 91.61835479736328 687.4628295898438 91.83950805664062 687.3113403320312 91.97256469726562 L 686.168212890625 92.97647094726562 C 686.0663452148438 93.06562805175781 686.0182495117188 93.1976318359375 686.027099609375 93.33280944824219 C 686.0335693359375 93.4251708984375 686.0361328125 93.51784515380859 686.0361328125 93.610595703125 C 686.0361328125 93.70365905761719 686.0335693359375 93.79638671875 686.027099609375 93.88837432861328 C 686.0182495117188 94.02354431152344 686.0663452148438 94.15554809570312 686.168212890625 94.24505615234375 L 687.3113403320312 95.24863433837891 C 687.4628295898438 95.38166809082031 687.4993286132812 95.60317993164062 687.3986206054688 95.77764892578125 L 686.47265625 97.38309478759766 C 686.3719482421875 97.55753326416016 686.1618041992188 97.6368408203125 685.9708251953125 97.57170104980469 L 684.5266723632812 97.08129119873047 C 684.4004516601562 97.03842163085938 684.2639770507812 97.06113433837891 684.1533813476562 97.13505554199219 C 683.9979248046875 97.23908996582031 683.8353271484375 97.33322143554688 683.666259765625 97.41671752929688 C 683.546630859375 97.47547912597656 683.4580078125 97.58235168457031 683.4323120117188 97.71292114257812 L 683.1338500976562 99.21012878417969 C 683.0947875976562 99.40792846679688 682.921142578125 99.5501708984375 682.7197265625 99.5501708984375 Z" stroke="none" fill="#72501b"/>
      </g>
    </g>
  </g>
</svg>
