<svg xmlns="http://www.w3.org/2000/svg" xmlns:xlink="http://www.w3.org/1999/xlink" width="64" height="64" viewBox="0 0 64 64">
  <defs>
    <linearGradient id="linear-gradient" x2="1" y2="1" gradientUnits="objectBoundingBox">
      <stop offset="0" stop-color="#f3e0b8"/>
      <stop offset="0.251" stop-color="#f9c734"/>
      <stop offset="0.657" stop-color="#916b1f"/>
      <stop offset="1" stop-color="#72501b"/>
    </linearGradient>
  </defs>
  <g id="funtion_ic05" transform="translate(-1420 -1281.5)">
    <rect id="Rectangle_6168" data-name="Rectangle 6168" width="64" height="64" transform="translate(1420 1281.5)" fill="none"/>
    <g id="Group_19046" data-name="Group 19046" transform="translate(1417.5 1281.5)">
      <rect id="Rectangle_6098" data-name="Rectangle 6098" width="50" height="37.931" rx="2" transform="translate(9.5 13)" fill="url(#linear-gradient)"/>
      <path id="Exclusion_4" data-name="Exclusion 4" d="M38.655,27.586H1a1,1,0,0,1-1-1V12.069H39.655V26.586A1,1,0,0,1,38.655,27.586Zm1-20.689H0V1A1,1,0,0,1,1,0H38.655a1,1,0,0,1,1,1V6.9Z" transform="translate(14.672 18.173)" fill="#fff7e5" stroke="rgba(0,0,0,0)" stroke-miterlimit="10" stroke-width="1"/>
      <line id="Line_748" data-name="Line 748" x1="8.621" transform="translate(18.983 40.586)" fill="none" stroke="#72501b" stroke-linecap="round" stroke-linejoin="round" stroke-miterlimit="10" stroke-width="1.5"/>
    </g>
  </g>
</svg>
