<svg id="ic_acc01" xmlns="http://www.w3.org/2000/svg" width="36" height="36" viewBox="0 0 36 36">
  <rect id="Rectangle_5634" data-name="Rectangle 5634" width="36" height="36" fill="none"/>
  <g id="Group_19513" data-name="Group 19513" transform="translate(-464 -252.665)">
    <path id="Path_15687" data-name="Path 15687" d="M-11386.814,4388.386l-2.651-4.331a1.4,1.4,0,0,0-1.148-.726,3.456,3.456,0,0,0-1.2.343l-10.557,5.028Z" transform="translate(11876 -4122.949)" fill="#deb331"/>
    <path id="Subtraction_48" data-name="Subtraction 48" d="M-2080-11697.334h-14a4,4,0,0,1-4-4v-9a4,4,0,0,1,4-4h14a4,4,0,0,1,4,4v9A4,4,0,0,1-2080-11697.334Zm0-11.336a1,1,0,0,0-1,1v4a1,1,0,0,0,1,1,1,1,0,0,0,1-1v-4A1,1,0,0,0-2080-11708.67Z" transform="translate(2569 11979.335)" fill="#fff"/>
  </g>
</svg>
