<svg xmlns="http://www.w3.org/2000/svg" width="36" height="36" viewBox="0 0 36 36">
  <g id="ic_acc03" transform="translate(-268 -252)">
    <rect id="Rectangle_5634" data-name="Rectangle 5634" width="36" height="36" transform="translate(268 252)" fill="none"/>
    <g id="Group_19528" data-name="Group 19528" transform="translate(273.156 258.062)">
      <path id="Path_16548" data-name="Path 16548" d="M24.653,12.907a1.79,1.79,0,0,0-.937-.365,1.716,1.716,0,0,0-.968.214L17.971,15.39a2.812,2.812,0,0,1,.264.913,2.9,2.9,0,0,1-.119,1.242,2.436,2.436,0,0,1-.614,1,1.8,1.8,0,0,1-1.25.533,1.641,1.641,0,0,1-.322-.032L9.211,17.716a.4.4,0,0,1-.164-.075.5.5,0,0,1-.128-.145.608.608,0,0,1-.073-.194.662.662,0,0,1-.006-.213.624.624,0,0,1,.061-.2.519.519,0,0,1,.119-.156.416.416,0,0,1,.159-.088.37.37,0,0,1,.175-.007l6.661,1.321a1.172,1.172,0,0,0,.957-.3,1.383,1.383,0,0,0,.316-.557,1.622,1.622,0,0,0,.053-.674,1.505,1.505,0,0,0-.223-.62,1.159,1.159,0,0,0-.443-.409l-5.442-2.758a.971.971,0,0,0-.44-.107H5.415a1.02,1.02,0,0,0-.7.287L3.57,13.895v-.227a.9.9,0,0,0-.192-.565.6.6,0,0,0-.464-.234H1.282a.6.6,0,0,0-.464.234.9.9,0,0,0-.192.565v7.849a.952.952,0,0,0,.05.306.83.83,0,0,0,.142.259.664.664,0,0,0,.213.173.556.556,0,0,0,.251.061H2.913a.6.6,0,0,0,.464-.234.9.9,0,0,0,.192-.565V21.07l7.576,2.093a3.105,3.105,0,0,0,1.514.038,3.419,3.419,0,0,0,1.4-.693l10.594-7.838a.973.973,0,0,0,.3-.377,1.229,1.229,0,0,0,0-1.011.969.969,0,0,0-.3-.375Z" fill="#fff"/>
      <path id="Path_16549" data-name="Path 16549" d="M23.39,7.062A6.462,6.462,0,1,1,16.928.6,6.462,6.462,0,0,1,23.39,7.062ZM16.872,3.526a.6.6,0,0,1,.6.6V4.59a3.529,3.529,0,0,1,1.021.349A.6.6,0,0,1,17.935,6a2.329,2.329,0,0,0-1.269-.259.573.573,0,0,0-.409.325l-.005.011a.195.195,0,0,0,.059.24l0,0a.828.828,0,0,0,.481.168h.031l.03,0,.179.021h0c.137.016.287.033.419.054a2.544,2.544,0,0,1,.646.176,1.349,1.349,0,0,1,.607.516,1.586,1.586,0,0,1,.22.855v.04l-.005.039a1.51,1.51,0,0,1-.957,1.247,2.017,2.017,0,0,1-.495.128V9.86a.6.6,0,1,1-1.2,0V9.469a7.722,7.722,0,0,1-1-.282.6.6,0,0,1,.4-1.131,6.521,6.521,0,0,0,1.414.33,1,1,0,0,0,.432-.055.36.36,0,0,0,.144-.1.334.334,0,0,0,.069-.16.37.37,0,0,0-.037-.178c-.005-.008-.019-.029-.08-.057a1.4,1.4,0,0,0-.341-.086c-.109-.017-.215-.029-.336-.043h0l-.2-.023a2.028,2.028,0,0,1-1.144-.408,1.395,1.395,0,0,1-.426-1.713,1.773,1.773,0,0,1,1.105-.962v-.48A.6.6,0,0,1,16.872,3.526Z" fill="#deb331" fill-rule="evenodd"/>
    </g>
  </g>
</svg>
