<svg xmlns="http://www.w3.org/2000/svg" width="32" height="32" viewBox="0 0 32 32"><rect width="32" height="32" fill="none"/><g transform="translate(-466 -255.004)"><path d="M11416.147,23035.375h-14.727l9.77-4.652s0,0,.01-.008a3.283,3.283,0,0,1,1.188-.336,1.4,1.4,0,0,1,1.144.723l2.615,4.273Z" transform="translate(-10926.999 -22770.375)" fill="#deb331"/><path d="M22796.449,10008h-8.785a3.668,3.668,0,0,1-3.664-3.663v-9.668a3.668,3.668,0,0,1,3.664-3.663h14.67a3.668,3.668,0,0,1,3.664,3.663v.73l-4.711-1.309a2.438,2.438,0,0,0-1.283,0l-4.824,1.339a2.4,2.4,0,0,0-1.729,1.976,20.5,20.5,0,0,0-.156,3.183,10.228,10.228,0,0,0,1.461,5.552,9.55,9.55,0,0,0,1.691,1.858Z" transform="translate(-22313 -9726.004)" fill="rgba(255,255,255,0.87)"/><path d="M22800.672,10008h-.059a.373.373,0,0,1-.064-.012,7.708,7.708,0,0,1-4.145-2.987c-1.666-2.405-.979-7.273-.973-7.321a.388.388,0,0,1,.285-.32l4.82-1.346a.664.664,0,0,1,.107-.011.687.687,0,0,1,.1.011l4.826,1.346a.386.386,0,0,1,.279.32,17.8,17.8,0,0,1,.145,1.975v.784a8.836,8.836,0,0,1-1.111,4.563,7.781,7.781,0,0,1-4.15,2.987A.373.373,0,0,1,22800.672,10008Zm-2.115-7.362a.371.371,0,0,0-.275.116l-.406.406a.384.384,0,0,0,0,.549l2.037,2.038a.391.391,0,0,0,.275.114.4.4,0,0,0,.275-.114l3.291-3.291a.4.4,0,0,0,0-.556l-.406-.4a.375.375,0,0,0-.275-.114.381.381,0,0,0-.275.114l-2.609,2.6-1.352-1.351A.383.383,0,0,0,22798.557,10000.639Z" transform="translate(-22313 -9726.004)" fill="#deb331"/></g></svg>