<svg id="ic_camera" xmlns="http://www.w3.org/2000/svg" width="24" height="24" viewBox="0 0 24 24">
  <rect id="Rectangle_16" data-name="Rectangle 16" width="24" height="24" fill="#14143a" opacity="0"/>
  <g id="Group_19601" data-name="Group 19601" transform="translate(3.25 5.929)">
    <path id="Path_16557" data-name="Path 16557" d="M23.214,19.678A2.314,2.314,0,1,0,20.9,17.364,2.314,2.314,0,0,0,23.214,19.678Z" transform="translate(-14.464 -10.803)" fill="rgba(255,255,255,0.87)"/>
    <path id="Path_16558" data-name="Path 16558" d="M15,1.862H11.9L11.219.508A.879.879,0,0,0,10.4,0H7.071a.942.942,0,0,0-.818.508L5.6,1.862H2.5A1.758,1.758,0,0,0,.75,3.612v6.772a1.758,1.758,0,0,0,1.75,1.75H15a1.758,1.758,0,0,0,1.75-1.75V3.612A1.758,1.758,0,0,0,15,1.862ZM8.764,9.933a3.414,3.414,0,1,1,3.414-3.414A3.408,3.408,0,0,1,8.764,9.933Z" fill="rgba(255,255,255,0.87)"/>
  </g>
</svg>
