<svg id="ic_nap-tien-dien-tu" data-name="ic nap-tien-dien-tu" xmlns="http://www.w3.org/2000/svg" viewBox="0 0 24 24"><defs>
<style>
.cls-1,.cls-2{fill:none;stroke:#fff;}
.cls-1{stroke-width:1px;}
</style>

</defs><path id="Stroke_1" data-name="Stroke 1" class="cls-1" d="M7,18.73H4.57A2.57,2.57,0,0,1,2,16.17V6.57A2.57,2.57,0,0,1,4.57,4H19.43A2.57,2.57,0,0,1,22,6.57v9.6a2.57,2.57,0,0,1-2,2.5"/><path id="Stroke_3" data-name="Stroke 3" class="cls-1" d="M2,7.24H22"/><path id="Stroke_5" data-name="Stroke 5" class="cls-1" d="M2,10.36H22"/><rect class="cls-1" x="7" y="14" width="13" height="7" rx="1.3"/><line class="cls-2" x1="16" y1="17.59" x2="16" y2="15.59"/><line class="cls-2" x1="16" y1="17.59" x2="14.1" y2="16.97"/><line class="cls-2" x1="16" y1="17.59" x2="14.82" y2="19.21"/><line class="cls-2" x1="16" y1="17.59" x2="17.18" y2="19.21"/><line class="cls-2" x1="16" y1="17.59" x2="17.9" y2="16.97"/><line class="cls-2" x1="11" y1="17.59" x2="11" y2="15.59"/><line class="cls-2" x1="11" y1="17.59" x2="9.1" y2="16.97"/><line class="cls-2" x1="11" y1="17.59" x2="9.82" y2="19.21"/><line class="cls-2" x1="11" y1="17.59" x2="12.18" y2="19.21"/><line class="cls-2" x1="11" y1="17.59" x2="12.9" y2="16.97"/>
  <style type="text/css" media="screen"> 
  path[stroke-width*='1.'] {
      vector-effect: non-scaling-stroke;
   }  
   @media (min-width: 40px) {
      path[stroke-width*='1.'] {
         stroke-width: 2 !important;
      }
   }
   @media screen and (min-width:0\0) and (min-width: 40px) {
      path[stroke-width*='1.'] {
         stroke-width: 1.1 !important;
      }
   }
   @supports (-ms-accelerator: true) or (-ms-ime-align: auto) {
      @media (min-width: 40px) {
         path[stroke-width*="1."] {
         stroke-width: 1.1 !important;
         }
      } 
   }
  </style>
</svg>