<svg id="ic_edit" xmlns="http://www.w3.org/2000/svg" width="24" height="24" viewBox="0 0 24 24">
  <rect id="Rectangle_6242" data-name="Rectangle 6242" width="24" height="24" fill="none"/>
  <g id="Group_19244" data-name="Group 19244" transform="translate(3.49 4.348)">
    <path id="Path_16481" data-name="Path 16481" d="M9.5,2.5,2.928,9.072a2.1,2.1,0,0,0-.389.449,2.1,2.1,0,0,0-.158.573l-.734,3.671c-.067.333-.1.5-.005.594s.261.061.594-.005l3.671-.734a2.1,2.1,0,0,0,.573-.158,2.1,2.1,0,0,0,.449-.389L13.5,6.5Z" fill="rgba(255,255,255,0.6)"/>
    <path id="Path_16482" data-name="Path 16482" d="M2.954,14.38h0l.026-.007h0l2.628-.657.048-.012a2.408,2.408,0,0,0,.621-.215,2.408,2.408,0,0,0,.5-.422l.035-.035L14.01,5.838h0l.027-.027a9.226,9.226,0,0,0,.776-.835A1.584,1.584,0,0,0,15.186,4a1.584,1.584,0,0,0-.373-.976,9.228,9.228,0,0,0-.776-.835l-.027-.027-.172-.172-.027-.027a9.225,9.225,0,0,0-.835-.776,1.465,1.465,0,0,0-1.953,0,9.225,9.225,0,0,0-.835.776l-.027.027L2.967,9.184l-.035.035a2.408,2.408,0,0,0-.421.5,2.407,2.407,0,0,0-.215.621l-.012.048L1.62,13.046l-.007.029a3.513,3.513,0,0,0-.1.477.849.849,0,0,0,.227.706.85.85,0,0,0,.706.227,3.513,3.513,0,0,0,.477-.1Z" fill="none" stroke="#fff" stroke-width="1.6"/>
    <path id="Path_16483" data-name="Path 16483" d="M9.5,2.5l4,4" fill="none" stroke="#fff" stroke-width="1.6"/>
  </g>
</svg>
