<svg xmlns="http://www.w3.org/2000/svg" width="24" height="24" viewBox="0 0 24 24">
  <g id="ic_img" transform="translate(-10 -10.5)">
    <rect id="Rectangle_4104" data-name="Rectangle 4104" width="24" height="24" transform="translate(10 10.5)" fill="none"/>
    <path id="Image_2" data-name="Image 2" d="M0,3.25A2.25,2.25,0,0,1,2.251,1h13.5A2.25,2.25,0,0,1,18,3.25V14.5a2.25,2.25,0,0,1-2.25,2.25H2.251A2.25,2.25,0,0,1,0,14.5ZM1.126,13.375,4.1,10.727a.562.562,0,0,1,.709-.07L7.8,12.651l4.174-4.173a.562.562,0,0,1,.649-.106l4.249,2.19V14.5a1.125,1.125,0,0,1-1.126,1.126H2.251A1.125,1.125,0,0,1,1.126,14.5V13.375ZM6.751,6.063A1.688,1.688,0,1,1,5.063,4.375,1.688,1.688,0,0,1,6.751,6.063Z" transform="translate(13 13.5)" fill="rgba(255,255,255,0.87)" fill-rule="evenodd"/>
  </g>
</svg>
