<svg id="ic_saving" xmlns="http://www.w3.org/2000/svg" width="24" height="24" viewBox="0 0 24 24">
  <rect id="Rectangle_5634" data-name="Rectangle 5634" width="24" height="24" fill="none"/>
  <g id="Group_19526" data-name="Group 19526" transform="translate(4 4.667)">
    <path id="Path_16546" data-name="Path 16546" d="M12.623,3.755l-.043.01-.021.01a3.787,3.787,0,0,0-1.433.651A3.624,3.624,0,0,0,10.1,5.592,9.028,9.028,0,0,0,8.26,5.379,7.389,7.389,0,0,0,3.689,6.831,4.094,4.094,0,0,0,2.33,8.647l-.2.615q-.023.1-.043.2a.361.361,0,0,0-.053,0A1.12,1.12,0,0,1,1.341,9.2a1.047,1.047,0,0,1-.364-.623A1.353,1.353,0,0,1,1.45,7.275a2.172,2.172,0,0,1,.45-.3c.063-.032.116-.055.151-.069l.039-.015.008,0a.329.329,0,0,0,.213-.422.348.348,0,0,0-.438-.205h0l-.006,0-.018.007-.062.024c-.051.021-.121.051-.2.093a2.863,2.863,0,0,0-.595.4A2,2,0,0,0,.3,8.687v0A1.7,1.7,0,0,0,.891,9.706,1.824,1.824,0,0,0,2,10.124a5.74,5.74,0,0,0-.007.72,4.244,4.244,0,0,0,.577,1.737,4.416,4.416,0,0,0,1.265,1.357h.011a.376.376,0,0,1,.095.091l0,0c.006,0,.011,0-.015.08-.1.3-.3.751-.3.751v.011a.855.855,0,0,0,.021.672.9.9,0,0,0,.506.464v.01l1.085.387a.96.96,0,0,0,.706-.017.908.908,0,0,0,.489-.491s.134-.365.253-.67a.228.228,0,0,1,.043-.071l.043.01a6.569,6.569,0,0,0,1.485.173,13.98,13.98,0,0,0,1.493-.091.626.626,0,0,1,.074,0,.046.046,0,0,1,0,.014.084.084,0,0,0,.006.017v.01c.107.311.238.6.242.608a.011.011,0,0,0,.008.007s0,0,0,0a.894.894,0,0,0,.479.479.944.944,0,0,0,.69.019l1.084-.386v-.01a.9.9,0,0,0,.507-.463.851.851,0,0,0,.019-.673l-.168-.436a.449.449,0,0,0-.032-.05,3.539,3.539,0,0,0,1.163-.776,3.389,3.389,0,0,0,.754-1.153.587.587,0,0,1,.095-.152c.025-.023.044-.04.146-.04h.548a.908.908,0,0,0,.624-.251.842.842,0,0,0,.261-.6V9.833a.841.841,0,0,0-.26-.6.907.907,0,0,0-.624-.251h-.548a.32.32,0,0,1-.115-.01,3.554,3.554,0,0,0-.774-1.628,3.744,3.744,0,0,0-1.49-1.071,5.794,5.794,0,0,1,.505-2.07.314.314,0,0,0,.022-.162.319.319,0,0,0-.062-.152.336.336,0,0,0-.13-.1A.349.349,0,0,0,12.623,3.755ZM1.986,6.573l-.113-.314ZM12.4,9.251a.646.646,0,1,1-.646-.622A.635.635,0,0,1,12.4,9.251Z" transform="translate(-0.266 -1.959)" fill="rgba(255,255,255,0.87)" fill-rule="evenodd"/>
    <path id="Path_16547" data-name="Path 16547" d="M7.015,4.18a7.179,7.179,0,0,1,4.056-1.207,7.775,7.775,0,0,1,.788.04A2.538,2.538,0,1,0,7.015,4.18Z" transform="translate(-3.634 -0.588)" fill="#deb331" fill-rule="evenodd"/>
  </g>
</svg>
