<svg xmlns="http://www.w3.org/2000/svg" width="30" height="30" viewBox="0 0 30 30">
    <g fill="none" fill-rule="evenodd">
        <g stroke="#FFF">
            <g>
                <g stroke-width="1.3">
                    <path d="M.117 3.892L23.451 3.892M.117 7.542L23.451 7.542M11.597 17.305H3.112c-1.655 0-2.995-1.341-2.995-2.994V3.11c0-1.653 1.34-2.995 2.995-2.995h17.344c1.653 0 2.995 1.342 2.995 2.995v11.2c0 1.425-.998 2.619-2.332 2.921" transform="translate(-58 -462) translate(58 462) translate(3.158 5.526)"/>
                </g>
                <path stroke-width="1.36" d="M16.368 18.947h6.264c.64 0 1.21.442 1.21 1.074v4.168c0 .569-.498 1.074-1.21 1.074h-6.264c-.64 0-1.21-.442-1.21-1.074v-4.168c.071-.568.57-1.074 1.21-1.074zM17.921 18.947L17.921 25.263M15.158 22.105L17.526 22.105" transform="translate(-58 -462) translate(58 462)"/>
            </g>
        </g>
    </g>
</svg>
