<svg id="ic_wallet_cancel" xmlns="http://www.w3.org/2000/svg" width="24" height="24" viewBox="0 0 24 24">
  <path id="Path_18549" data-name="Path 18549" d="M0,0H24V24H0Z" fill="none"/>
  <path id="Path_18550" data-name="Path 18550" d="M14.2,11.988l-1.106-1.106L14.2,9.775A3.13,3.13,0,0,0,9.775,5.349L8.669,6.455,7.562,5.349,8.669,4.243a4.694,4.694,0,1,1,6.639,6.639L14.2,11.988ZM11.988,14.2l-1.106,1.106A4.694,4.694,0,1,1,4.243,8.669L5.349,7.562,6.455,8.669,5.349,9.775A3.13,3.13,0,0,0,9.775,14.2l1.106-1.106Zm0-7.746,1.107,1.107L7.562,13.094,6.455,11.988l5.532-5.532ZM4.9,2.18l1.512-.405L7.226,4.8,5.715,5.2,4.9,2.181Zm7.419,12.572,1.511-.405.811,3.023-1.512.405ZM2.18,4.9,5.2,5.715,4.8,7.226l-3.023-.81L2.18,4.9Zm12.572,7.419,3.023.81-.405,1.512-3.023-.811Z" transform="translate(2 2)" fill="rgba(255,255,255,0.87)"/>
</svg>
