<?xml version="1.0" encoding="UTF-8"?>
<svg width="50px" height="50px" viewBox="0 0 50 50" version="1.1" xmlns="http://www.w3.org/2000/svg" xmlns:xlink="http://www.w3.org/1999/xlink">
    <title>8D5C55A6-EDDC-49A6-8CD7-B694B1C06339</title>
    <defs>
        <circle id="path-1" cx="25" cy="25" r="25"></circle>
    </defs>
    <g id="Chuyen-tien" stroke="none" stroke-width="1" fill="none" fill-rule="evenodd">
        <g id="22001_noibo_2_themnguoinhan" transform="translate(-88.000000, -434.000000)">
            <g id="ic/avatar/main" transform="translate(88.000000, 434.000000)">
                <mask id="mask-2" fill="white">
                    <use xlink:href="#path-1"></use>
                </mask>
                <circle stroke="#FFFFFF" cx="25" cy="25" r="24.5"></circle>
                <path d="M28.546429,26.2903226 C28.4899713,28.3108504 28.3711132,29.4164223 31.092964,30.5806452 C34.1476175,31.5219941 39,31.1609971 39,39.9384164 C39,39.9384164 34.5787753,46 25.0014857,46 C15.4215218,46 11,39.9384164 11,39.9384164 C11,31.1609971 15.8523825,31.5219941 18.9100074,30.5806452 C21.6288868,29.4164223 21.5100287,28.3108504 21.453571,26.2903226 C20.291733,25.5014663 19.4805264,24.2375367 19.3200679,22.7595308 L18.9100074,19.0087977 C18.9100074,15.6891496 21.6378011,13 25.0014857,13 C26.683328,13 28.2076833,13.6715543 29.3071209,14.7595308 C30.4125013,15.8475073 31.092964,17.3489736 31.092964,19.0087977 L30.6829035,22.7595308 C30.5194736,24.2375367 29.708267,25.5014663 28.546429,26.2903226" id="Fill-1" fill="#FFFFFF" opacity="0.803164528" mask="url(#mask-2)"></path>
            </g>
        </g>
    </g>
</svg>