<svg id="Icon_Home_Promotion_-64px" data-name="Icon / Home / Promotion -64px" xmlns="http://www.w3.org/2000/svg" xmlns:xlink="http://www.w3.org/1999/xlink" width="64" height="64" viewBox="0 0 64 64">
  <defs>
    <linearGradient id="linear-gradient" x2="1" y2="1.017" gradientUnits="objectBoundingBox">
      <stop offset="0" stop-color="#f3e0b8"/>
      <stop offset="0.251" stop-color="#f9c734"/>
      <stop offset="0.657" stop-color="#916b1f"/>
      <stop offset="1" stop-color="#72501b"/>
    </linearGradient>
  </defs>
  <rect id="Rectangle_6171" data-name="Rectangle 6171" width="64" height="64" fill="none"/>
  <g id="Group_19038" data-name="Group 19038" transform="translate(-3578.419 -792)">
    <path id="Union_37" data-name="Union 37" d="M30.325,0,27.882,23.695H2.443L0,0Z" transform="translate(3595.417 819.228)" fill="#fff7e5" stroke="rgba(0,0,0,0)" stroke-miterlimit="10" stroke-width="1"/>
    <line id="Line_756" data-name="Line 756" x2="36" transform="translate(3592.562 826.571)" fill="none" stroke="#72501b" stroke-linecap="round" stroke-width="1.5"/>
    <path id="Union_36" data-name="Union 36" d="M23.188,48H6.282a3.448,3.448,0,0,1-3.474-3.046L.018,17.874A3.425,3.425,0,0,1,3.49,14.151H7.517a8.173,8.173,0,0,1-2.23-3.741A8.006,8.006,0,0,1,6.823,3.167a8.673,8.673,0,0,1,13.731.423A8.633,8.633,0,0,1,27.359,0h.174a8.565,8.565,0,0,1,6.735,3.165,7.965,7.965,0,0,1,1.553,7.243,8.171,8.171,0,0,1-2.231,3.741h4.062a3.425,3.425,0,0,1,3.472,3.723l-2.79,27.08A3.447,3.447,0,0,1,34.862,48Zm10.1-5.077,2.442-23.7H23.188v23.7Zm-25.439,0h10.1v-23.7H5.409ZM27.5,5.079a3.322,3.322,0,0,0-3.123,2.387l-1.116,4.062-.017.067h.035l4.38-.1a3.3,3.3,0,0,0,3.1-2.387,3.1,3.1,0,0,0-.592-2.81,3.219,3.219,0,0,0-2.479-1.225Q27.595,5.072,27.5,5.079ZM10.94,6.3a3.107,3.107,0,0,0-.594,2.81,3.284,3.284,0,0,0,3.106,2.387l4.38.1h.017v-.034l-1.116-4.1a3.339,3.339,0,0,0-3.123-2.387h-.086A3.3,3.3,0,0,0,10.94,6.3Z" transform="translate(3589.99 800)" stroke="rgba(0,0,0,0)" stroke-miterlimit="10" stroke-width="1" fill="url(#linear-gradient)"/>
  </g>
</svg>
