<svg id="logo-vietnammobi" xmlns="http://www.w3.org/2000/svg" width="24" height="24" viewBox="0 0 24 24">
  <rect id="Rectangle_6404" data-name="Rectangle 6404" width="24" height="24" fill="none"/>
  <g id="Group_20198" data-name="Group 20198" transform="translate(-119.781 433.063)">
    <path id="path22" d="M251.115-425.674a1.734,1.734,0,0,0-2.362.632l-3.594,6.227a1.733,1.733,0,0,0,.632,2.361,1.734,1.734,0,0,0,2.362-.633l3.6-6.227a1.734,1.734,0,0,0-.633-2.361Zm4.684,0a1.733,1.733,0,0,0-2.361.632l-3.6,6.227a1.735,1.735,0,0,0,.634,2.361,1.733,1.733,0,0,0,2.361-.633l3.595-6.227A1.733,1.733,0,0,0,255.8-425.674Zm-9.352,0a1.733,1.733,0,0,0-2.361.632l-3.595,6.227a1.733,1.733,0,0,0,.633,2.361,1.733,1.733,0,0,0,2.361-.633l3.595-6.226a1.735,1.735,0,0,0-.633-2.362" transform="translate(-114.881)" fill="#f57c17" fill-rule="evenodd"/>
    <path id="path24" d="M125.007-425.042a1.735,1.735,0,0,0-2.362-.632,1.735,1.735,0,0,0-.633,2.362l3.088,5.348a1.994,1.994,0,0,1,.268-.991l1.576-2.731-1.937-3.357" transform="translate(0 0)" fill="#918f90" fill-rule="evenodd"/>
  </g>
</svg>
