<svg xmlns="http://www.w3.org/2000/svg" width="64" height="64" viewBox="0 0 64 64">
  <g id="menu_ic02" transform="translate(-764 -211)">
    <rect id="Rectangle_6370" data-name="Rectangle 6370" width="64" height="64" transform="translate(764 211)" fill="none"/>
    <g id="Group_19682" data-name="Group 19682" transform="translate(769 226)">
      <path id="Path_15422" data-name="Path 15422" d="M212.394,73.923a10.16,10.16,0,0,0-13.854-3.79l-1.243.683-.683-1.243a10.16,10.16,0,0,0-13.854-3.79h0A10.234,10.234,0,0,0,178.1,71.5h.249a10.151,10.151,0,0,1,5.591,2.112,10.533,10.533,0,0,1,1.926,14.662l-1.118,1.491,4.97,8.7L207.362,88.4l1.243-.683A10.02,10.02,0,0,0,212.394,73.923Z" transform="translate(-158.745 -64.447)" fill="#fff7e5"/>
      <g id="Path_15423" data-name="Path 15423" transform="translate(-146.946 -70.658)" fill="none" stroke-miterlimit="10">
        <path d="M170.526,82.371h0a7.34,7.34,0,0,0-10.313,1.367l-.621.808-.808-.621a7.34,7.34,0,0,0-10.313,1.367h0A7.339,7.339,0,0,0,149.837,95.6l12.487,9.63,9.008-11.68.621-.808A7.473,7.473,0,0,0,170.526,82.371Z" stroke="none"/>
        <path d="M 166.0601348876953 84.84617614746094 C 165.0090484619141 84.84617614746094 164.0333099365234 85.33098602294922 163.3831329345703 86.17623138427734 L 162.7619018554688 86.98387145996094 L 160.3230743408203 90.15452575683594 L 157.1524963378906 87.71559143066406 L 156.3448944091797 87.0943603515625 C 155.59814453125 86.51995086669922 154.8309631347656 86.39937591552734 154.3188629150391 86.39937591552734 C 153.2673645019531 86.39937591552734 152.2913513183594 86.88417816162109 151.64111328125 87.72946929931641 C 151.0944366455078 88.44016265869141 150.8580627441406 89.31685638427734 150.9755554199219 90.19805908203125 C 151.0938568115234 91.08517456054688 151.5557861328125 91.87895965576172 152.2800903320313 92.43611907958984 L 161.6002502441406 99.62331390380859 L 168.1659545898438 91.11057281494141 L 168.1659698486328 91.11058044433594 L 168.7533111572266 90.34700775146484 C 169.8720092773438 88.79662322998047 169.5827026367188 86.69184875488281 168.0868377685547 85.54117584228516 C 167.3401794433594 84.96682739257813 166.57275390625 84.84621429443359 166.060546875 84.84617614746094 L 166.0602111816406 84.84617614746094 L 166.0601348876953 84.84617614746094 M 166.0608062744141 80.84617614746094 C 167.6185760498047 80.8463134765625 169.1893768310547 81.34275817871094 170.5256805419922 82.37068176269531 C 173.7562103271484 84.85572052001953 174.3774871826172 89.453125 171.9545593261719 92.74585723876953 L 171.3333129882813 93.55349731445313 L 162.3249053955078 105.2333221435547 L 149.8374328613281 95.60368347167969 C 146.6068420410156 93.11859893798828 145.9855499267578 88.52123260498047 148.4706268310547 85.29062652587891 C 149.9277954101563 83.39633178710938 152.1105804443359 82.39936828613281 154.3188629150391 82.39936828613281 C 155.8766326904297 82.39936828613281 157.4474029541016 82.89593505859375 158.7837066650391 83.92384338378906 L 159.5913391113281 84.54511260986328 L 160.2125701904297 83.73747253417969 C 161.6697235107422 81.84314727783203 163.8525085449219 80.84598541259766 166.0608062744141 80.84617614746094 Z" stroke="none" fill="#fff7e5"/>
      </g>
    </g>
  </g>
</svg>
