<svg id="menu_ic04" xmlns="http://www.w3.org/2000/svg" width="53.516" height="45.932" viewBox="0 0 53.516 45.932">
  <g id="Group_18922" data-name="Group 18922" transform="translate(0 4.656)">
    <path id="Path_16387" data-name="Path 16387" d="M0,8.944S5.444,4.763,2.236,0" transform="translate(49.056 7.899) rotate(25)" fill="none" stroke="#fff7e5" stroke-linecap="round" stroke-width="2"/>
    <path id="Path_16384" data-name="Path 16384" d="M357.976,62.814A3.027,3.027,0,0,1,358.118,64l-2.661,1.352a2.475,2.475,0,0,1-.64-.726l-.128-.285-.228-1.58-1.537.4a41.831,41.831,0,0,1-11.455,1.38,25.054,25.054,0,0,1-7.272-1.067l-1.594-.484-.213,1.551-.1.2a2.607,2.607,0,0,1-.768.683l-2.576-1.508a3.429,3.429,0,0,1,.3-1.21l.626-1.138-1.067-.74a12.193,12.193,0,0,1-4.369-5.393l-.356-.882h-2.931a8.119,8.119,0,0,1-.669-3.572,8.477,8.477,0,0,1,.683-3.557h2.846l.242-1.124a10.98,10.98,0,0,1,7.03-8.011l.526-.2.256-.484c.754-1.466,1.893-4.568,1.893-4.568a12.956,12.956,0,0,1,3.23,3.059l.427.8,1.594-.085c2.462-.157,8.239-.541,12.736,1.224,5.194,2.049,8.581,5.009,9.306,8.139,1.537,6.3.484,11.142-3.145,14.4l-.726.655.356.925c.014.043.028.085.043.142Z" transform="translate(-316.071 -28.586)" fill="#b2945d"/>
    <path id="Path_16385" data-name="Path 16385" d="M332.133,144.307a2.84,2.84,0,0,1-1.444-.382l-3.329-1.942c-1.538-.947-1.623-2.743-1.352-4.156a16.334,16.334,0,0,1-3.871-4.84h-1.158c-2.666,0-3.859-3.709-3.859-7.383,0-2.548.807-7.365,3.859-7.365h.623a14.986,14.986,0,0,1,8.277-8.9,26.829,26.829,0,0,0,1.393-3.549,3.205,3.205,0,0,1,1.367-2.372,2.856,2.856,0,0,1,2.6-.149,10.814,10.814,0,0,1,5.331,3.954c3.064-.191,9.1-.427,14.137,1.557,6.624,2.606,10.84,6.514,11.87,11.008,2.162,8.822-.377,14.262-3.317,17.45.39,1.628.295,4.051-1.53,4.977l-3.415,1.725a3,3,0,0,1-2.4.1,5.523,5.523,0,0,1-2.345-1.831,47.4,47.4,0,0,1-11.078,1.122,29.631,29.631,0,0,1-6.892-.806,5.921,5.921,0,0,1-2.488,1.634A3.46,3.46,0,0,1,332.133,144.307Zm24.194-4.312-.009,0Zm-26.038-1.98a2.09,2.09,0,0,0,2.147,1.178c.789-.19.624.491,1.008-1.937l1.774.588a24.759,24.759,0,0,0,7.2,1.068h.106a42.687,42.687,0,0,0,11.676-1.4l1.882-.439c.454,2.6.314,2.173.89,2.2a2.217,2.217,0,0,0,2.042-1.283c.25-.888-.884-1.949-.884-1.949l1.133-1.053c3.534-3.17,4.55-7.941,3.021-14.178-.692-3.017-4.038-5.889-9.186-7.915-4.5-1.769-10.356-1.385-12.86-1.22l-2.124.116-.661-1.239c-.542-1.016-2.081-2.7-2.421-2.489s-.92,2.742-1.584,4.031l-.4.769-.813.3a10.623,10.623,0,0,0-6.8,7.762,1.465,1.465,0,0,1-.849,1.245c-.858.435-1.517-.167-2.277.693s-.765,1.422-.765,2.746a2.994,2.994,0,0,0,.865,2.6c.752.823,1.243.352,2.145.693a1.533,1.533,0,0,1,1.031,1.035,11.948,11.948,0,0,0,4.26,5.271l1.283.837C330.151,137.844,330.053,137.3,330.288,138.015Z" transform="translate(-317.119 -103.03)" fill="#fff7e5"/>
    <path id="Path_16386" data-name="Path 16386" d="M0,.142a15.532,15.532,0,0,1,7.88.978" transform="translate(30.296 11.468) rotate(9)" fill="none" stroke="#fff7e5" stroke-linecap="round" stroke-width="1.5"/>
    <path id="Path_16388" data-name="Path 16388" d="M-552.29-1236.761a2.614,2.614,0,0,1,1.983-1.346,2.626,2.626,0,0,1,1.988,1.346" transform="translate(566.281 1253.334)" fill="none" stroke="#fff7e5" stroke-linecap="round" stroke-width="1.5"/>
  </g>
  <circle id="Ellipse_1114" data-name="Ellipse 1114" cx="5.027" cy="5.027" r="5.027" transform="translate(36.865)" fill="#fff7e5"/>
</svg>
