<svg xmlns="http://www.w3.org/2000/svg" width="64" height="64" viewBox="0 0 64 64">
  <g id="menu_ic06" transform="translate(-764 -211)">
    <rect id="Rectangle_6370" data-name="Rectangle 6370" width="64" height="64" transform="translate(764 211)" fill="none"/>
    <g id="Group_19690" data-name="Group 19690" transform="translate(-2814.562 -579)">
      <rect id="Rectangle_6192" data-name="Rectangle 6192" width="31" height="2" transform="translate(3595.562 823.739)" fill="#fff7e5"/>
      <path id="Union_36" data-name="Union 36" d="M23.189,44H6.282A3.359,3.359,0,0,1,2.81,41.207L.018,16.384A3.267,3.267,0,0,1,3.49,12.971H7.518A7.4,7.4,0,0,1,5.288,9.543,6.876,6.876,0,0,1,6.823,2.9,8.974,8.974,0,0,1,13.75,0a8.873,8.873,0,0,1,6.8,3.289A8.873,8.873,0,0,1,27.359,0h.175a8.887,8.887,0,0,1,6.735,2.9,6.843,6.843,0,0,1,1.552,6.64,7.4,7.4,0,0,1-2.23,3.429h4.063a3.268,3.268,0,0,1,3.472,3.413L38.334,41.207A3.359,3.359,0,0,1,34.862,44Zm10.1-4.655,2.443-21.72H23.189v21.72Zm-25.439,0h10.1V17.626H5.409ZM27.5,4.655a3.289,3.289,0,0,0-3.123,2.188l-1.117,3.723-.017.062h.034l4.379-.092a3.262,3.262,0,0,0,3.106-2.188,2.664,2.664,0,0,0-.593-2.576A3.329,3.329,0,0,0,27.69,4.65Q27.6,4.65,27.5,4.655ZM10.941,5.772a2.664,2.664,0,0,0-.593,2.576,3.246,3.246,0,0,0,3.106,2.188l4.379.092h.017V10.6L16.733,6.843A3.306,3.306,0,0,0,13.61,4.655h-.087A3.419,3.419,0,0,0,10.941,5.772Z" transform="translate(3589.99 800)" fill="#fff7e5"/>
    </g>
  </g>
</svg>
