<svg id="saving_ic02" xmlns="http://www.w3.org/2000/svg" width="64" height="64" viewBox="0 0 64 64">
  <rect id="Rectangle_6164" data-name="Rectangle 6164" width="64" height="64" fill="none"/>
  <path id="Union_67" data-name="Union 67" d="M19013.563-17330.4l-5.271-6.006-.439-.5a1.572,1.572,0,0,1-.377-1.041,1.561,1.561,0,0,1,1.57-1.57h1.777v-18.355l7.863,5.252v13.1h1.777a1.574,1.574,0,0,1,1.18,2.611l-5.707,6.508a1.565,1.565,0,0,1-1.187.545A1.555,1.555,0,0,1,19013.563-17330.4Zm-23.244-4.984-3.023-1.762a3.4,3.4,0,0,1-1.227-3.771,14.674,14.674,0,0,1-3.52-4.389h-1.041c-2.42,0-3.51-3.367-3.51-6.7,0-2.316.727-6.686,3.51-6.686h.549a13.6,13.6,0,0,1,7.521-8.07,25.666,25.666,0,0,0,1.256-3.223,2.907,2.907,0,0,1,1.242-2.158,2.614,2.614,0,0,1,2.357-.125,9.748,9.748,0,0,1,4.832,3.586,31.323,31.323,0,0,1,12.832,1.42c4.262,1.664,7.408,3.941,9.213,6.57h0a3.5,3.5,0,0,0,1.48-3.525,1.561,1.561,0,0,1,1.3-1.789,1.557,1.557,0,0,1,1.811,1.3,6.6,6.6,0,0,1-3.191,6.84,0,0,0,0,1,0,0c.063.191.109.393.152.584,1.672,6.779.268,11.354-1.824,14.357v-10.977l-.988-.66-.645-.424h-.129l-.014-.016c0-.006,0-.012,0-.02a.481.481,0,0,1-.018-.076c-.076-.41-.172-.834-.281-1.26a.078.078,0,0,0-.006-.035.043.043,0,0,0-.01-.008,5.184,5.184,0,0,0-.443-1.215v0l-.006-.012a7.333,7.333,0,0,0-.764-1.182,16.6,16.6,0,0,0-7.109-4.73,15.836,15.836,0,0,0-2.791-.793,35.065,35.065,0,0,0-8.859-.307l-1.934.109-.6-1.131a6.654,6.654,0,0,0-.674-.977,7.6,7.6,0,0,0-.939-.988c-.266-.225-.484-.348-.588-.283-.314.186-.836,2.482-1.447,3.646l-.344.707-.744.268a9.643,9.643,0,0,0-6.18,7.043,1.212,1.212,0,0,1-.328.789c0,.014-.035.047-.062.061a1.2,1.2,0,0,1-.377.287c-.789.391-1.371-.158-2.064.625a3.028,3.028,0,0,0-.658,1.295c0,.014-.014.029,0,.043a2.566,2.566,0,0,0-.047.979v0a.763.763,0,0,0,.014.176c0,.047-.014.1-.014.139v.047a2.19,2.19,0,0,0,.033.713c0,.047.014.076.014.123a2.851,2.851,0,0,0,.754,1.338l.063.066c.641.643,1.082.258,1.871.559a.589.589,0,0,1,.146.068.217.217,0,0,1,.031.014,1.156,1.156,0,0,1,.516.41,1.084,1.084,0,0,1,.254.453,10.779,10.779,0,0,0,3.867,4.785l1.164.754c-.883,1.633-.973,1.131-.754,1.777a1.877,1.877,0,0,0,1.7,1.086,1.814,1.814,0,0,0,.25-.018,1.467,1.467,0,0,1,.348-.033h.049c.264,0,.254-.082.516-1.715l1.6.535a22.487,22.487,0,0,0,6.527.961h.1c.277.006.553.008.828.008a38.346,38.346,0,0,0,3.9-.2.452.452,0,0,0-.049.066,3.99,3.99,0,0,0-.611,2.105,4,4,0,0,0,.473,1.873,44.837,44.837,0,0,1-4.578.172,27.022,27.022,0,0,1-6.246-.736,5.29,5.29,0,0,1-2.264,1.477,2.781,2.781,0,0,1-.879.123c-.029,0-.059,0-.088,0A2.38,2.38,0,0,1,18990.318-17335.383Zm3.973-20.881a1.179,1.179,0,0,1-1.016-.58c-.008-.012-.014-.023-.021-.035a1.145,1.145,0,0,0-.768-.584,1.151,1.151,0,0,0-.754.584,1.184,1.184,0,0,1-1.037.609h0a1.216,1.216,0,0,1-.564-.143,1.186,1.186,0,0,1-.617-1.035,1.184,1.184,0,0,1,.145-.564,3.573,3.573,0,0,1,2.7-1.828l.129-.016.143.016a3.573,3.573,0,0,1,2.7,1.828,1.179,1.179,0,0,1-.473,1.6,1.163,1.163,0,0,1-.566.148Zm14.172-6.012v1.947a12.244,12.244,0,0,0-3.018-.439,1.19,1.19,0,0,1-1.164-1.207v0a1.179,1.179,0,0,1,1.178-1.146h.033a15.328,15.328,0,0,1,7.5,2.152,1.186,1.186,0,0,1,.576,1.014,1.161,1.161,0,0,1-.17.605.645.645,0,0,1-.186.238Z" transform="translate(-18970 17383.488)" fill="#fff7e5" stroke="rgba(0,0,0,0)" stroke-miterlimit="10" stroke-width="1"/>
</svg>
