<svg id="saving_ic01" xmlns="http://www.w3.org/2000/svg" width="64" height="64" viewBox="0 0 64 64">
  <rect id="Rectangle_6167" data-name="Rectangle 6167" width="64" height="64" fill="none"/>
  <g id="Group_20062" data-name="Group 20062" transform="translate(-1556.43 -1137.059)">
    <g id="Group_18922" data-name="Group 18922" transform="translate(1564.43 1156.318)">
      <g id="Path_16387" data-name="Path 16387" transform="translate(37.905 6.161)">
        <path id="Path_19267" data-name="Path 19267" d="M1594.44,1164.84a9.527,9.527,0,0,1-3.135,1.365,2.691,2.691,0,0,1-.33.03h-.12a5.978,5.978,0,0,0-1.155-2.31.329.329,0,0,0,.075-.12,1.475,1.475,0,0,1,.87-.54,6.9,6.9,0,0,0,2.46-1.14,3.341,3.341,0,0,0,1.41-3.36,1.5,1.5,0,0,1,1.245-1.71,1.52,1.52,0,0,1,1.725,1.245A6.33,6.33,0,0,1,1594.44,1164.84Z" transform="translate(-1589.7 -1157.039)" fill="#fff7e5"/>
      </g>
      <g id="Path_16384" data-name="Path 16384" transform="translate(3.84 3.852)">
        <path id="Path_19268" data-name="Path 19268" d="M1569.56,1168.465a.8.8,0,0,1,.165.075h-2.2a6.777,6.777,0,0,1-.51-1.89,2.6,2.6,0,0,0,.69,1.215C1568.36,1168.585,1568.78,1168.165,1569.56,1168.465Z" transform="translate(-1566.98 -1149.925)" fill="#b2945d"/>
        <path id="Path_19269" data-name="Path 19269" d="M1567.545,1163.8h2.415a1.089,1.089,0,0,1-.36.27c-.75.375-1.305-.15-1.965.6a2.89,2.89,0,0,0-.645,1.26A7.211,7.211,0,0,1,1567.545,1163.8Z" transform="translate(-1566.99 -1151.35)" fill="#b2945d"/>
        <path id="Path_19270" data-name="Path 19270" d="M1571.886,1162.73a3.37,3.37,0,0,1,2.565-1.74l.135-.03.135.03a3.371,3.371,0,0,1,2.58,1.74,1.113,1.113,0,0,1-.45,1.515,1.129,1.129,0,0,1-1.53-.435,1.131,1.131,0,0,0-.735-.57,1.167,1.167,0,0,0-.72.555,1.126,1.126,0,0,1-1.53.465A1.134,1.134,0,0,1,1571.886,1162.73Z" transform="translate(-1564.611 -1152.77)" fill="#b2945d"/>
        <path id="Path_19271" data-name="Path 19271" d="M1594.155,1175.16l.915-.21-1.11.285a36.282,36.282,0,0,1-9.915,1.2,21.875,21.875,0,0,1-6.3-.93l-1.38-.42-.18,1.35-.09.165a2.286,2.286,0,0,1-.66.6l-2.235-1.305a3.171,3.171,0,0,1,.255-1.05l.555-.99-.93-.645a10.56,10.56,0,0,1-3.78-4.665l-.15-.375a1.12,1.12,0,0,1,.24.435,10.235,10.235,0,0,0,3.675,4.56l1.11.735c-.825,1.545-.915,1.065-.7,1.695a1.8,1.8,0,0,0,1.845,1.02c.69-.165.54.42.885-1.68l1.53.51a21.354,21.354,0,0,0,6.225.93h.09A37.1,37.1,0,0,0,1594.155,1175.16Z" transform="translate(-1565.91 -1149.165)" fill="#b2945d"/>
        <path id="Path_19272" data-name="Path 19272" d="M1582.25,1161.13a1.123,1.123,0,0,1-1.11-1.14,1.14,1.14,0,0,1,1.125-1.11h.03a14.671,14.671,0,0,1,7.155,2.07,1.123,1.123,0,0,1,.39,1.545,1.137,1.137,0,0,1-.975.54,1,1,0,0,1-.57-.165A12.441,12.441,0,0,0,1582.25,1161.13Z" transform="translate(-1559.915 -1153.81)" fill="#b2945d"/>
        <path id="Path_19273" data-name="Path 19273" d="M1587.84,1174.47a1.945,1.945,0,0,0,.825-.18l-1.23.63a2.052,2.052,0,0,1-.555-.63l-.1-.24-.2-1.365.48-.105C1587.465,1174.83,1587.345,1174.455,1587.84,1174.47Z" transform="translate(-1557.195 -1146.96)" fill="#b2945d"/>
        <path id="Path_19274" data-name="Path 19274" d="M1588.855,1173.115a2.623,2.623,0,0,1,.135,1.02l-.84.42a2.178,2.178,0,0,0,.7-.81c.21-.765-.765-1.68-.765-1.68l.27-.255.285.735c.015.045.015.075.03.135Z" transform="translate(-1556.44 -1147.345)" fill="#b2945d"/>
        <path id="Path_19275" data-name="Path 19275" d="M1601.785,1170.5a20.556,20.556,0,0,0-.57-3.465c0-.015,0-.015-.015-.03a5.977,5.977,0,0,0-1.155-2.31,15.8,15.8,0,0,0-6.78-4.5c-3.885-1.53-8.955-1.2-11.13-1.05l-1.83.09-.57-1.065c-.48-.885-1.8-2.34-2.1-2.16s-.8,2.37-1.38,3.5l-.345.66-.69.255a9.217,9.217,0,0,0-5.9,6.72,1.252,1.252,0,0,1-.315.75l.195-.915a9.55,9.55,0,0,1,6.09-6.93l.45-.165.225-.42c.645-1.275,1.635-3.96,1.635-3.96a11.183,11.183,0,0,1,2.79,2.655l.375.69,1.38-.075c2.13-.135,7.125-.465,11.025,1.05a15.844,15.844,0,0,1,6.945,4.755,6.237,6.237,0,0,1,1.11,2.295c.015.045.015.09.03.135A20.578,20.578,0,0,1,1601.785,1170.5Z" transform="translate(-1565.98 -1155.5)" fill="#b2945d"/>
      </g>
      <g id="Path_16385" data-name="Path 16385">
        <path id="Path_19276" data-name="Path 19276" d="M1607.225,1167.434c-.045-.18-.09-.36-.15-.54a8.963,8.963,0,0,0-1.335-2.715c-1.71-2.505-4.725-4.68-8.79-6.27a29.973,29.973,0,0,0-12.24-1.35,9.366,9.366,0,0,0-4.6-3.42,2.481,2.481,0,0,0-2.25.135,2.7,2.7,0,0,0-1.185,2.055,24.42,24.42,0,0,1-1.2,3.06,12.992,12.992,0,0,0-7.17,7.71h-.54c-2.64,0-3.33,4.17-3.33,6.375,0,3.18,1.035,6.39,3.33,6.39h1.005a14.165,14.165,0,0,0,3.36,4.185,3.248,3.248,0,0,0,1.17,3.6l2.88,1.68a2.418,2.418,0,0,0,1.245.33,3.159,3.159,0,0,0,.84-.12,5.16,5.16,0,0,0,2.145-1.41,25.857,25.857,0,0,0,5.97.69,40.4,40.4,0,0,0,9.585-.975,4.78,4.78,0,0,0,2.025,1.59,2.588,2.588,0,0,0,2.085-.09l2.955-1.5c1.575-.8,1.665-2.9,1.32-4.3C1606.895,1179.779,1609.1,1175.069,1607.225,1167.434Zm-3.165,6.435a9.563,9.563,0,0,1-3.165,6.72l-.705.66-.27.255s.975.915.765,1.68a2.179,2.179,0,0,1-.7.81,1.8,1.8,0,0,1-.24.12,1.944,1.944,0,0,1-.825.18c-.495-.015-.375.36-.78-1.89l-.48.105-.225.06-.915.21a37.1,37.1,0,0,1-10.11,1.215h-.09a21.358,21.358,0,0,1-6.225-.93l-1.53-.51c-.345,2.1-.195,1.515-.885,1.68a1.805,1.805,0,0,1-1.845-1.02c-.21-.63-.12-.15.7-1.7l-1.11-.735a10.236,10.236,0,0,1-3.675-4.56,1.121,1.121,0,0,0-.24-.435,1.053,1.053,0,0,0-.495-.39.813.813,0,0,0-.165-.075c-.78-.3-1.2.12-1.86-.6a2.6,2.6,0,0,1-.69-1.215,2.649,2.649,0,0,1-.06-1.035,2.694,2.694,0,0,1,.03-1.1v-.015a2.888,2.888,0,0,1,.645-1.26c.66-.75,1.215-.225,1.965-.6a1.085,1.085,0,0,0,.36-.27.118.118,0,0,0,.06-.06,1.251,1.251,0,0,0,.315-.75,9.217,9.217,0,0,1,5.9-6.72l.69-.255.345-.66c.585-1.125,1.08-3.315,1.38-3.5s1.62,1.275,2.1,2.16l.57,1.065,1.83-.09c2.175-.15,7.245-.48,11.13,1.05a15.8,15.8,0,0,1,6.78,4.5,5.978,5.978,0,0,1,1.155,2.31c.015.015.015.015.015.03a20.557,20.557,0,0,1,.57,3.465A13.729,13.729,0,0,1,1604.06,1173.869Z" transform="translate(-1564.43 -1152.932)" fill="#fff7e5"/>
      </g>
      <g id="Path_16386" data-name="Path 16386" transform="translate(25.065 8.922)">
        <path id="Path_19277" data-name="Path 19277" d="M1589.84,1162.495a1.137,1.137,0,0,1-.975.54,1,1,0,0,1-.57-.165,12.441,12.441,0,0,0-6.045-1.74,1.123,1.123,0,0,1-1.11-1.14,1.14,1.14,0,0,1,1.125-1.11h.03a14.671,14.671,0,0,1,7.155,2.07A1.123,1.123,0,0,1,1589.84,1162.495Z" transform="translate(-1581.14 -1158.88)" fill="#fff7e5"/>
      </g>
      <g id="Path_16388" data-name="Path 16388" transform="translate(10.978 12.042)">
        <path id="Path_19278" data-name="Path 19278" d="M1576.851,1164.245a1.129,1.129,0,0,1-1.53-.435,1.131,1.131,0,0,0-.735-.57,1.167,1.167,0,0,0-.72.555,1.126,1.126,0,0,1-1.53.465,1.134,1.134,0,0,1-.45-1.53,3.37,3.37,0,0,1,2.565-1.74l.135-.03.135.03a3.371,3.371,0,0,1,2.58,1.74A1.113,1.113,0,0,1,1576.851,1164.245Z" transform="translate(-1571.749 -1160.96)" fill="#fff7e5"/>
      </g>
    </g>
    <g id="Group_20063" data-name="Group 20063" transform="translate(1597.43 1146.16)">
      <g id="Path_16414" data-name="Path 16414">
        <path id="Path_19279" data-name="Path 19279" d="M1593.93,1146.16a7.5,7.5,0,1,0,7.5,7.5A7.5,7.5,0,0,0,1593.93,1146.16Zm3.6,8.625h-2.475v2.475a1.125,1.125,0,0,1-2.25,0v-2.475h-2.475a1.125,1.125,0,0,1,0-2.25h2.475v-2.475a1.125,1.125,0,0,1,2.25,0v2.475h2.475a1.125,1.125,0,0,1,0,2.25Z" transform="translate(-1586.43 -1146.16)" fill="#fff7e5"/>
      </g>
    </g>
  </g>
</svg>
