<svg id="toast_ic_warning" xmlns="http://www.w3.org/2000/svg" width="24" height="24" viewBox="0 0 24 24">
  <rect id="Rectangle_4009" data-name="Rectangle 4009" width="24" height="24" fill="none"/>
  <path id="Subtraction_1" data-name="Subtraction 1" d="M9,18a9,9,0,1,1,9-9A9.01,9.01,0,0,1,9,18Zm.241-6.24a1.262,1.262,0,0,0-.872.333A1.031,1.031,0,0,0,8,12.88a1.046,1.046,0,0,0,.369.8A1.3,1.3,0,0,0,9.241,14a1.324,1.324,0,0,0,.89-.319,1.046,1.046,0,0,0,.369-.8,1,1,0,0,0-.369-.787A1.289,1.289,0,0,0,9.241,11.76Zm0-7.76a1.212,1.212,0,0,0-.89.375.977.977,0,0,0-.268.742l.352,4.707a.818.818,0,0,0,1.612,0L10.4,5.117a.977.977,0,0,0-.268-.742A1.213,1.213,0,0,0,9.241,4Z" transform="translate(3 3)" fill="#fff"/>
</svg>
