<svg id="toast_ic_error" xmlns="http://www.w3.org/2000/svg" width="24" height="24" viewBox="0 0 24 24">
  <rect id="Rectangle_4008" data-name="Rectangle 4008" width="24" height="24" fill="none"/>
  <path id="Path_10237" data-name="Path 10237" d="M15,7a8,8,0,1,0,8,8A8.024,8.024,0,0,0,15,7Zm3.2,9.8a.967.967,0,0,1,0,1.4.967.967,0,0,1-1.4,0L15,16.4l-1.8,1.8a.967.967,0,0,1-1.4,0,.967.967,0,0,1,0-1.4L13.6,15l-1.8-1.8a.99.99,0,0,1,1.4-1.4L15,13.6l1.8-1.8a.99.99,0,0,1,1.4,1.4L16.4,15Z" transform="translate(-3 -3)" fill="#fff"/>
</svg>
