<svg id="transfers_ic06" xmlns="http://www.w3.org/2000/svg" width="64" height="64" viewBox="0 0 64 64">
  <rect id="Rectangle_6166" data-name="Rectangle 6166" width="64" height="64" fill="none"/>
  <path id="Union_66" data-name="Union 66" d="M19014.766-17039.168v-2.711h-21.01l1.992-3.008,3.008-4.518,1.008-1.5h15v-2.789a.134.134,0,0,0,.006-.049.091.091,0,0,0,0-.033c0-.023,0-.047,0-.066.006,0,.006,0,.006-.01.014-.076.033-.156.053-.229h0a.155.155,0,0,1,.02-.062v-.014c.01-.01.014-.029.023-.043a.086.086,0,0,1,.01-.029c.006-.01.01-.014.01-.023a1.5,1.5,0,0,1,2.115-.66c.076.045.143.1.211.148,0,.006.008.006.008.006l.02.02,4.26,3.748,3.959,3.471a1.48,1.48,0,0,1,0,2.258l-8.219,7.221a1.517,1.517,0,0,1-.979.381A1.507,1.507,0,0,1,19014.766-17039.168Zm-33.764-5.719a3.012,3.012,0,0,1-3-3.014v-27.078a3.011,3.011,0,0,1,3-3.01h37.512a2.973,2.973,0,0,1,2.131.889,2.975,2.975,0,0,1,.873,2.121v20.967l-2.773-2.426a3.879,3.879,0,0,0-1.725-.865v-14.664a1.507,1.507,0,0,0-1.5-1.508h-31.51a1.5,1.5,0,0,0-1.5,1.508v21.059a1.5,1.5,0,0,0,1.5,1.5h12.047l-3,4.518Zm13.842-10.764a3.01,3.01,0,0,0-2.873-3.109,3,3,0,0,0-2.885,3.109,1.007,1.007,0,0,1-1.008,1,1,1,0,0,1-1-1,5.018,5.018,0,0,1,4.895-5.109,5,5,0,0,1,4.869,5.109.993.993,0,0,1-1,1A1,1,0,0,1,18994.844-17055.65Zm7.158-3.332a1,1,0,0,1-1-1,1,1,0,0,1,1-1h9a1,1,0,0,1,1,1,1,1,0,0,1-1,1Zm-13.742-6.5a3.61,3.61,0,0,1,3.615-3.605,3.614,3.614,0,0,1,3.615,3.605,3.625,3.625,0,0,1-3.615,3.629A3.621,3.621,0,0,1,18988.26-17065.486Zm2,0a1.619,1.619,0,0,0,1.619,1.619,1.625,1.625,0,0,0,1.619-1.619,1.624,1.624,0,0,0-1.619-1.609A1.618,1.618,0,0,0,18990.256-17065.486Zm11.746,2.5a1,1,0,0,1-1-1,1,1,0,0,1,1-1h9a1,1,0,0,1,1,1,1,1,0,0,1-1,1Z" transform="translate(-18970 17088.984)" fill="#fff7e5"/>
</svg>
