<svg id="transfers_ic01" xmlns="http://www.w3.org/2000/svg" width="64" height="64" viewBox="0 0 64 64">
  <rect id="Rectangle_6166" data-name="Rectangle 6166" width="64" height="64" fill="none"/>
  <g id="Group_19047" data-name="Group 19047" transform="translate(-296.25 -389.85)">
    <g id="Union_41" data-name="Union 41" transform="translate(336.568 406.686)">
      <path id="Path_18625" data-name="Path 18625" d="M340.524,414.351a1.442,1.442,0,0,1-.159.141l-8.7,7.543a1.563,1.563,0,0,1-1.032.393,1.6,1.6,0,0,1-1.6-1.571v-2.829h-3.843q-.476-.448-.953-.849a13.722,13.722,0,0,0,2.858-8.391V408.6h1.937v-2.829a1.574,1.574,0,0,1,1.588-1.571,1.642,1.642,0,0,1,1.048.377l8.7,7.543A1.577,1.577,0,0,1,340.524,414.351Z" transform="translate(-324.23 -404.2)" fill="#fff5df"/>
    </g>
    <g id="Group_19045" data-name="Group 19045" transform="translate(306.601 399.85)">
      <g id="Union_34" data-name="Union 34">
        <g id="Group_20136" data-name="Group 20136" transform="translate(1.191)">
          <path id="Path_18626" data-name="Path 18626" d="M319.005,423.8a10.922,10.922,0,0,0-5.256-1.886,8.049,8.049,0,0,0-1.064-.063,4.09,4.09,0,0,0-.619.031,21.77,21.77,0,0,0-3.3,4.259,17.4,17.4,0,0,0-2.652,8.659c0,3.316,1.556,7.087,7.7,8.989h.016a10.634,10.634,0,0,0,2.541-.566,11.085,11.085,0,0,0,5.606-4.321,10.839,10.839,0,0,0,1.826-6.05A10.964,10.964,0,0,0,319.005,423.8Zm-3.573,13.97a3.477,3.477,0,0,1-1.366.676v1.069a1.191,1.191,0,0,1-2.382,0V438.4a6.177,6.177,0,0,1-2.652-1.21,1.167,1.167,0,0,1-.191-1.65,1.2,1.2,0,0,1,1.668-.2,4.03,4.03,0,0,0,2.335.849c.032,0,.127.016.159.016.048,0,.1.016.143.016a.938.938,0,0,0,.207-.031,1.256,1.256,0,0,0,1.064-1.1.767.767,0,0,0-.445-.6,7.822,7.822,0,0,0-1.683-.629c-.159-.047-.318-.079-.476-.11-.032,0-.127-.031-.159-.031a3.378,3.378,0,0,1-2.35-4.164,3.61,3.61,0,0,1,2.382-2.436v-1.147a1.191,1.191,0,0,1,2.382,0v1.1a3.608,3.608,0,0,1,.667.2,4.738,4.738,0,0,1,1.826,1.179,1.163,1.163,0,0,1-.032,1.666,1.208,1.208,0,0,1-1.683-.047,2.421,2.421,0,0,0-1.493-.707,1.337,1.337,0,0,0-.349-.047,1.3,1.3,0,0,0-1.413.88,1.016,1.016,0,0,0,.715,1.241c.063.016.143.031.206.047a10.271,10.271,0,0,1,2.525.88,3.112,3.112,0,0,1,1.747,2.876,3.607,3.607,0,0,1-1.239,2.436C315.511,437.706,315.464,437.737,315.432,437.769Zm16.675-17.254c-.254-.189-.524-.361-.794-.534a11.388,11.388,0,0,0,4.05-8.706.756.756,0,0,0-.016-.189,11.546,11.546,0,1,0-19.041,8.894,14.586,14.586,0,0,1,1.556.534,13.116,13.116,0,0,1,3.748,2.326,10.173,10.173,0,0,1,2.192-.236c6.384,0,11.561,6.176,11.561,10.686,0,4.274-5.193,5.531-10.672,5.641a13.489,13.489,0,0,1-4.192,4.809c1.1.079,2.191.11,3.3.11,8.258,0,16.516-1.839,16.516-9.051C340.317,429.959,337.014,423.971,332.107,420.514Zm-14.9-9.24a6.593,6.593,0,0,1,13.181-.189.759.759,0,0,1,.016.189,6.6,6.6,0,0,1-13.2,0Z" transform="translate(-306.11 -399.85)" fill="#fff5df"/>
        </g>
        <g id="Group_20137" data-name="Group 20137" transform="translate(0 22)">
          <path id="Path_18627" data-name="Path 18627" d="M307.742,426.8c0-4.227,2.525-9.35,6.448-12.886a8.05,8.05,0,0,0-1.064-.063,4.089,4.089,0,0,0-.619.031,10,10,0,0,0-1.842.236c-3.224,3.724-5.3,8.439-5.3,12.681a9.576,9.576,0,0,0,5.415,8.8,10.562,10.562,0,0,0,2.35.251,9.032,9.032,0,0,0,1.128-.063h.016a10.634,10.634,0,0,0,2.541-.566C311.665,434.184,307.742,431.78,307.742,426.8Z" transform="translate(-305.36 -413.85)" fill="#a58048"/>
        </g>
      </g>
      <g id="Group_18975" data-name="Group 18975" transform="translate(7.369 23.949)">
        <g id="Path_16426" data-name="Path 16426">
          <path id="Path_18628" data-name="Path 18628" d="M312.128,422.716a1.256,1.256,0,0,1-1.064,1.1A4.014,4.014,0,0,1,310,421.49a7.822,7.822,0,0,1,1.683.629A.767.767,0,0,1,312.128,422.716Z" transform="translate(-310 -411.433)" fill="#a58048"/>
          <path id="Path_18629" data-name="Path 18629" d="M321.431,424.141a10.839,10.839,0,0,1-1.826,6.05,18.71,18.71,0,0,1-6.432-1.226,3.607,3.607,0,0,0,1.239-2.436,3.112,3.112,0,0,0-1.747-2.876,10.271,10.271,0,0,0-2.525-.88,9.074,9.074,0,0,1,.842-2.121,2.422,2.422,0,0,1,1.493.707,1.208,1.208,0,0,0,1.683.047,1.163,1.163,0,0,0,.032-1.666,4.738,4.738,0,0,0-1.826-1.179,12.944,12.944,0,0,1,4.272-3.473A10.964,10.964,0,0,1,321.431,424.141Z" transform="translate(-309.918 -415.09)" fill="#a58048"/>
        </g>
      </g>
    </g>
    <g id="Group_19046" data-name="Group 19046" transform="translate(303.25 421.85)">
      <g id="Path_16414" data-name="Path 16414">
        <g id="Group_20138" data-name="Group 20138">
          <path id="Path_18630" data-name="Path 18630" d="M320.687,415.8a10.922,10.922,0,0,0-5.256-1.886,8.049,8.049,0,0,0-1.064-.063,4.09,4.09,0,0,0-.619.031,10,10,0,0,0-1.842.236,10.978,10.978,0,0,0,.111,21.481,10.562,10.562,0,0,0,2.35.251,9.032,9.032,0,0,0,1.127-.063h.016a10.634,10.634,0,0,0,2.541-.566,11.085,11.085,0,0,0,5.606-4.321,10.839,10.839,0,0,0,1.826-6.05A10.964,10.964,0,0,0,320.687,415.8Zm-3.573,13.97a3.477,3.477,0,0,1-1.366.676v1.069a1.191,1.191,0,0,1-2.382,0V430.4a6.177,6.177,0,0,1-2.652-1.21,1.167,1.167,0,0,1-.191-1.65,1.2,1.2,0,0,1,1.668-.2,4.03,4.03,0,0,0,2.335.849c.032,0,.127.016.159.016.048,0,.1.016.143.016a.938.938,0,0,0,.207-.031,1.256,1.256,0,0,0,1.064-1.1.767.767,0,0,0-.445-.6,7.822,7.822,0,0,0-1.683-.629c-.159-.047-.318-.079-.476-.11-.032,0-.127-.031-.159-.031a3.378,3.378,0,0,1-2.35-4.164,3.61,3.61,0,0,1,2.382-2.436v-1.147a1.191,1.191,0,0,1,2.382,0v1.1a3.609,3.609,0,0,1,.667.2,4.738,4.738,0,0,1,1.826,1.179,1.163,1.163,0,0,1-.032,1.666,1.208,1.208,0,0,1-1.683-.047,2.421,2.421,0,0,0-1.493-.707,1.337,1.337,0,0,0-.349-.047,1.3,1.3,0,0,0-1.413.88,1.016,1.016,0,0,0,.715,1.241c.063.016.143.031.206.047a10.271,10.271,0,0,1,2.525.88,3.112,3.112,0,0,1,1.747,2.876,3.607,3.607,0,0,1-1.239,2.436C317.193,429.706,317.146,429.737,317.114,429.769Z" transform="translate(-303.25 -413.85)" fill="#fff5df"/>
        </g>
      </g>
    </g>
  </g>
</svg>
