<svg id="transfers_ic03" xmlns="http://www.w3.org/2000/svg" width="64" height="64" viewBox="0 0 64 64">
  <rect id="Rectangle_6166" data-name="Rectangle 6166" width="64" height="64" fill="none"/>
  <path id="Union_64" data-name="Union 64" d="M18792.783-16815.187v-2.705h-21.01l1.994-3.008,3-4.514,1-1.5h15.008v-2.709c0-.033,0-.064,0-.1a1.49,1.49,0,0,1,2.248-1.2,1.683,1.683,0,0,1,.24.164l4.26,3.748,3.965,3.471a1.494,1.494,0,0,1,0,2.258l-8.225,7.219a1.5,1.5,0,0,1-.979.381A1.512,1.512,0,0,1,18792.783-16815.187Zm-33.764-5.713a3.013,3.013,0,0,1-3-3.008v-27.08a3.007,3.007,0,0,1,3-3.012h37.516a3,3,0,0,1,3,3.012v20.973l-2.779-2.439a3.719,3.719,0,0,0-1.721-.854v-5.648h-34.516v12.039a1.508,1.508,0,0,0,1.5,1.506h12.047l-3,4.512Zm1.5-27.08v4.516h34.516v-4.516a1.506,1.506,0,0,0-1.5-1.5h-31.516A1.506,1.506,0,0,0,18760.52-16847.98Zm3.75,19.182a1.138,1.138,0,0,1-1.127-1.127,1.126,1.126,0,0,1,1.127-1.131h7.5a1.113,1.113,0,0,1,1.123,1.131,1.124,1.124,0,0,1-1.123,1.127Z" transform="translate(-18748.016 16866)" fill="#fff7e5" stroke="rgba(0,0,0,0)" stroke-miterlimit="10" stroke-width="1"/>
</svg>
