<svg id="ultinity_ic_04" xmlns="http://www.w3.org/2000/svg" width="24" height="24" viewBox="0 0 24 24">
  <rect id="Rectangle_6012" data-name="Rectangle 6012" width="24" height="24" fill="none"/>
  <g id="Group_19641" data-name="Group 19641" transform="translate(-3585.99 -797)">
    <path id="Union_46" data-name="Union 46" d="M-384.523-1586h-6.916a1.373,1.373,0,0,1-1.42-1.143L-394-1597.3a1.336,1.336,0,0,1,1.42-1.4h1.648a3.022,3.022,0,0,1-.913-1.4,2.812,2.812,0,0,1,.628-2.716,3.673,3.673,0,0,1,2.833-1.187,3.632,3.632,0,0,1,2.784,1.346,3.632,3.632,0,0,1,2.784-1.346h.072a3.636,3.636,0,0,1,2.755,1.187,2.8,2.8,0,0,1,.635,2.716,3.029,3.029,0,0,1-.913,1.4h1.662a1.337,1.337,0,0,1,1.42,1.4l-1.142,10.155a1.373,1.373,0,0,1-1.42,1.143Zm0-1.9h4.133l.583-5.184h-4.716Zm-6.275,0h4.133v-5.184h-4.716Zm11.125-6.385.281-2.5h-5.132v2.5Zm-6.993,0v-2.5H-391.8l.281,2.5Zm3.905-7.807a1.345,1.345,0,0,0-1.278.895l-.456,1.524-.007.025h.014l1.792-.038a1.335,1.335,0,0,0,1.271-.9,1.087,1.087,0,0,0-.243-1.053,1.36,1.36,0,0,0-1.013-.46Zm-6.774.457a1.088,1.088,0,0,0-.242,1.053,1.328,1.328,0,0,0,1.271.9l1.791.038h.007v-.013l-.457-1.536a1.351,1.351,0,0,0-1.277-.895h-.036A1.4,1.4,0,0,0-389.534-1601.638Z" transform="translate(3984 2404)" fill="rgba(255,255,255,0.87)"/>
  </g>
</svg>
