<svg xmlns="http://www.w3.org/2000/svg" width="24" height="24" viewBox="0 0 24 24">
  <g id="footer_ic03" transform="translate(-1084 -2262.024)">
    <rect id="Rectangle_5689" data-name="Rectangle 5689" width="24" height="24" transform="translate(1084 2262.024)" fill="none"/>
    <path id="Path_15819" data-name="Path 15819" d="M5.458,8.649,4.424,8.363l.206-.6,1.012.416L5.563,7.063h.679L6.16,8.2,7.143,7.8l.206.606L6.3,8.687,7,9.527,6.448,9.9l-.581-.933-.584.9-.549-.358Z" transform="translate(1087.375 2265.399)" fill="rgba(255,255,255,0.87)"/>
    <path id="Path_15820" data-name="Path 15820" d="M10.1,8.649,9.062,8.363l.206-.6,1.012.416L10.2,7.063h.679L10.8,8.2l.983-.406.206.606-1.047.286.695.841-.549.374-.58-.933-.584.9-.549-.358Z" transform="translate(1087.375 2265.399)" fill="rgba(255,255,255,0.87)"/>
    <path id="Path_15821" data-name="Path 15821" d="M14.734,8.649,13.7,8.363l.206-.6,1.012.416-.079-1.117h.679L15.435,8.2l.983-.406.206.606-1.047.286.695.841-.549.374-.58-.933-.584.9-.549-.358Z" transform="translate(1087.375 2265.399)" fill="rgba(255,255,255,0.87)"/>
    <path id="Path_15822" data-name="Path 15822" d="M12.625,6.125v-2.5a3,3,0,0,0-3-3h-6a3,3,0,0,0-3,3v10a3,3,0,0,0,3,3h6a3,3,0,0,0,3-3v-2.5" transform="translate(1087.375 2265.399)" fill="none" stroke="rgba(255,255,255,0.87)" stroke-width="1"/>
    <line id="Line_794" data-name="Line 794" x2="3" transform="translate(1092.5 2278.899)" fill="none" stroke="rgba(255,255,255,0.87)" stroke-width="1"/>
  </g>
</svg>
