<svg xmlns="http://www.w3.org/2000/svg" width="24" height="24" viewBox="0 0 24 24">
  <g id="footer_ic02" transform="translate(-909 -2262.024)">
    <rect id="Rectangle_5688" data-name="Rectangle 5688" width="24" height="24" transform="translate(909 2262.024)" fill="none"/>
    <path id="Path_15817" data-name="Path 15817" d="M1,6.082V1.61a.6.6,0,0,1,.186-.431A.651.651,0,0,1,1.636,1H14.364a.651.651,0,0,1,.45.179A.6.6,0,0,1,15,1.61V6.082c0,6.4-5.672,8.527-6.8,8.887a.626.626,0,0,1-.391,0C6.672,14.609,1,12.487,1,6.082Z" transform="translate(913 2266.024)" fill="none" stroke="rgba(255,255,255,0.87)" stroke-linecap="round" stroke-linejoin="round" stroke-width="1"/>
    <path id="Path_15818" data-name="Path 15818" d="M14.536,13.97,8.618,10,2.7,13.97" transform="translate(912.382 2262.513)" fill="none" stroke="rgba(255,255,255,0.87)" stroke-linecap="round" stroke-linejoin="round" stroke-width="1"/>
  </g>
</svg>
