<svg xmlns="http://www.w3.org/2000/svg" width="24" height="24" viewBox="0 0 24 24">
  <g id="footer_ic04" transform="translate(-1331 -2262.024)">
    <rect id="Rectangle_5690" data-name="Rectangle 5690" width="24" height="24" transform="translate(1331 2262.024)" fill="none"/>
    <path id="Path_15826" data-name="Path 15826" d="M15.667,1H2.333A1.457,1.457,0,0,0,1,2.556V13.444A1.457,1.457,0,0,0,2.333,15H15.667A1.457,1.457,0,0,0,17,13.444V2.556A1.457,1.457,0,0,0,15.667,1Z" transform="translate(1334 2266.024)" fill="none" stroke="rgba(255,255,255,0.87)" stroke-linecap="round" stroke-linejoin="round" stroke-width="1"/>
    <path id="Path_15827" data-name="Path 15827" d="M1,9H5.734a.61.61,0,0,1,.421.175.808.808,0,0,1,.231.447,3.235,3.235,0,0,0,.927,1.788,2.379,2.379,0,0,0,3.374,0,3.235,3.235,0,0,0,.927-1.788.807.807,0,0,1,.231-.447A.61.61,0,0,1,12.266,9H17" transform="translate(1334 2264.246)" fill="none" stroke="rgba(255,255,255,0.87)" stroke-linecap="round" stroke-linejoin="round" stroke-width="1"/>
    <path id="Path_15828" data-name="Path 15828" d="M1,5H17" transform="translate(1334 2265.135)" fill="none" stroke="rgba(255,255,255,0.87)" stroke-linecap="round" stroke-linejoin="round" stroke-width="1"/>
  </g>
</svg>
