<svg id="icon_24px_default_acc" data-name="icon 24px / default acc" xmlns="http://www.w3.org/2000/svg" width="24" height="24" viewBox="0 0 24 24">
  <rect id="Rectangle_6446" data-name="Rectangle 6446" width="24" height="24" fill="none"/>
  <g id="Group_19790" data-name="Group 19790" transform="translate(-126.002 -127.002)">
    <path id="Subtraction_54" data-name="Subtraction 54" d="M17830.684,23672h-7.348a3.263,3.263,0,0,1-3.334-3.338v-12.328a3.261,3.261,0,0,1,3.334-3.334h11.109a2.106,2.106,0,0,1,2.223,2.223v2.223a2.1,2.1,0,0,1,2.221,2.221v3.852a6.02,6.02,0,0,0-2.221-1.9v-1.955h-13.332a3.216,3.216,0,0,1-1.107-.223l0,9.219a1.041,1.041,0,0,0,1.111,1.111h5.342a6.041,6.041,0,0,0,2,2.225Zm-7.348-16.777a1.111,1.111,0,0,0,0,2.223h11.109v-2.223Zm14.184,16.637h0a6.141,6.141,0,0,0,1.2-1.158A1.983,1.983,0,0,1,17837.52,23671.861Z" transform="translate(-17692 -23524)" fill="#f9c734"/>
    <g id="Group_19791" data-name="Group 19791" transform="translate(17820 23653)">
      <path id="Subtraction_55" data-name="Subtraction 55" d="M6,12a6,6,0,1,1,6-6A6.007,6.007,0,0,1,6,12Zm.017-3.783h0l.008,0c.781.4,1.218.621,1.446.736A.437.437,0,0,0,7.659,9a.269.269,0,0,0,.2-.086.384.384,0,0,0,.08-.3c-.068-.632-.191-1.572-.192-1.582S8.51,6.173,8.93,5.661a.293.293,0,0,0,.051-.292.362.362,0,0,0-.294-.214c-.551-.105-1.378-.268-1.538-.3h0s-.508-.949-.836-1.543c-.116-.219-.2-.287-.259-.305A.078.078,0,0,0,6.017,3c-.051,0-.156.04-.293.311-.322.574-.826,1.5-.847,1.542l-.142.028c-.285.055-.953.184-1.418.272a.364.364,0,0,0-.3.214.29.29,0,0,0,.052.29c.416.5,1.16,1.336,1.191,1.371,0,.005-.124.941-.194,1.58a.38.38,0,0,0,.079.3A.273.273,0,0,0,4.356,9a.448.448,0,0,0,.19-.046c.525-.26,1.307-.65,1.47-.732Z" transform="translate(-17684 -23516)" fill="#f9c734"/>
    </g>
  </g>
</svg>
