<svg id="Master" xmlns="http://www.w3.org/2000/svg" width="36" height="36" viewBox="0 0 36 36">
  <rect id="Rectangle_6168" data-name="Rectangle 6168" width="36" height="36" rx="18" fill="rgba(255,255,255,0.87)"/>
  <g id="layer1" transform="translate(-1545.785 -1996.17)">
    <g id="g13" transform="translate(1551.785 2007.046)">
      <g id="XMLID_328_" transform="translate(0 0)">
        <rect id="rect19" width="6.489" height="11.66" transform="translate(8.755 1.586)" fill="#ff5f00"/>
        <path id="XMLID_330_" d="M2907.9,2246.918a7.437,7.437,0,0,1,2.822-5.83,7.416,7.416,0,1,0,0,11.66A7.406,7.406,0,0,1,2907.9,2246.918Z" transform="translate(-2898.734 -2239.502)" fill="#eb001b"/>
        <path id="path22" d="M3411.157,2246.918a7.409,7.409,0,0,1-11.99,5.83,7.433,7.433,0,0,0,0-11.66,7.408,7.408,0,0,1,11.99,5.83Z" transform="translate(-3387.157 -2239.502)" fill="#f79e1b"/>
      </g>
    </g>
  </g>
</svg>
