<svg xmlns="http://www.w3.org/2000/svg" xmlns:xlink="http://www.w3.org/1999/xlink" width="64" height="64" viewBox="0 0 64 64"><defs><linearGradient id="a" x2="1" y2="1" gradientUnits="objectBoundingBox"><stop offset="0" stop-color="#f3e0b8"/><stop offset="0.134" stop-color="#f9c734"/><stop offset="0.657" stop-color="#916b1f"/><stop offset="1" stop-color="#72501b"/></linearGradient></defs><rect width="64" height="64" rx="20" fill="none"/><g transform="translate(-1091.684 -1107.076)"><g transform="translate(1100 1124.082)"><g transform="translate(0 0)"><rect width="39.84" height="31.303" rx="2" fill="url(#a)"/><rect width="31.303" height="22.766" rx="1" transform="translate(4.269 4.269)" fill="#fff7e5"/><path d="M-2.3-5.223-5.678,2.728a.963.963,0,0,1-.337.462.823.823,0,0,1-.493.164.785.785,0,0,1-.626-.235.853.853,0,0,1-.2-.579,1.035,1.035,0,0,1,.047-.3l3.9-9.36A1.021,1.021,0,0,1-3.009-7.6a.82.82,0,0,1,.556-.141.917.917,0,0,1,.524.164.927.927,0,0,1,.352.462l3.85,9.172a1.053,1.053,0,0,1,.078.376.867.867,0,0,1-.274.673.875.875,0,0,1-.6.25.821.821,0,0,1-.509-.172,1.119,1.119,0,0,1-.352-.47L-2.751-5.129ZM-5.193.819l.861-1.8H-.106l.3,1.8Zm13.57-8.5a4.558,4.558,0,0,1,2,.423A4.185,4.185,0,0,1,11.86-6.076a5.282,5.282,0,0,1,.908,1.753A7.187,7.187,0,0,1,13.073-2.2,6.783,6.783,0,0,1,12.525.561a4.67,4.67,0,0,1-1.589,1.98,4.321,4.321,0,0,1-2.559.736H4.636a.936.936,0,0,1-.955-.955V-6.725a.924.924,0,0,1,.274-.681.924.924,0,0,1,.681-.274ZM8.221,1.476A2.475,2.475,0,0,0,9.833.967a2.917,2.917,0,0,0,.916-1.346,5.545,5.545,0,0,0,.29-1.823,5.822,5.822,0,0,0-.164-1.4,3.625,3.625,0,0,0-.509-1.174,2.544,2.544,0,0,0-.876-.806,2.559,2.559,0,0,0-1.268-.3H5.482l.157-.141V1.648l-.094-.172Z" transform="translate(16.818 18.067)" fill="#72501b"/></g><rect width="22.766" height="2.846" rx="1" transform="translate(8.537 34.149)" fill="#f9c734"/></g><g transform="translate(1127.448 1117.076)"><path d="M9.96,0A9.96,9.96,0,1,1,0,9.96,9.96,9.96,0,0,1,9.96,0Z" transform="translate(0)" fill="#f9c734"/><g transform="translate(4.98 4.736)"><path d="M681.113,95.548a2.1,2.1,0,0,1,.89-.836,2.093,2.093,0,0,0,.236-.137,2.086,2.086,0,0,1,1.162-.354h.008a2.1,2.1,0,0,1-.277-1.2c0-.037,0-.08,0-.128s0-.091,0-.132a2.091,2.091,0,0,1,.276-1.194,2.08,2.08,0,0,1-1.17-.355,2.039,2.039,0,0,0-.231-.134,2.106,2.106,0,0,1-.894-.837,2.078,2.078,0,0,1-.9.837,2,2,0,0,0-.23.133,2.084,2.084,0,0,1-1.164.356h-.008a2.076,2.076,0,0,1,.276,1.191c0,.043,0,.088,0,.135s0,.092,0,.129a2.087,2.087,0,0,1-.277,1.2,2.09,2.09,0,0,1,1.172.355,2.027,2.027,0,0,0,.229.133,2.078,2.078,0,0,1,.9.838m.814,2.571H680.3a.371.371,0,0,1-.364-.3l-.262-1.317a.374.374,0,0,0-.206-.261,3.734,3.734,0,0,1-.428-.248.374.374,0,0,0-.328-.047l-1.27.431a.372.372,0,0,1-.442-.166l-.814-1.412a.372.372,0,0,1,.076-.465l1.006-.883a.38.38,0,0,0,.124-.314c-.005-.081-.008-.162-.008-.244s0-.163.008-.244a.379.379,0,0,0-.124-.313l-1.006-.883a.371.371,0,0,1-.076-.465L677,89.577a.372.372,0,0,1,.442-.166l1.27.431a.372.372,0,0,0,.328-.047,3.689,3.689,0,0,1,.428-.247.374.374,0,0,0,.206-.261l.262-1.317a.372.372,0,0,1,.364-.3h1.629a.372.372,0,0,1,.364.3l.263,1.317a.373.373,0,0,0,.206.261,3.742,3.742,0,0,1,.429.247.371.371,0,0,0,.328.047l1.27-.431a.372.372,0,0,1,.441.166l.815,1.412a.372.372,0,0,1-.077.465l-1.005.883a.379.379,0,0,0-.124.313c.006.081.008.163.008.244s0,.163-.008.244a.38.38,0,0,0,.124.314l1.005.883a.372.372,0,0,1,.077.465l-.815,1.412a.372.372,0,0,1-.441.166l-1.27-.431a.374.374,0,0,0-.328.047,3.788,3.788,0,0,1-.429.248.373.373,0,0,0-.206.261l-.263,1.317A.371.371,0,0,1,681.927,98.12Z" transform="translate(-676.132 -87.671)" fill="#72501b"/></g></g></g></svg>