<svg xmlns="http://www.w3.org/2000/svg" width="48" height="48" viewBox="0 0 48 48">
  <g id="ava_primary" transform="translate(-887 -642)">
    <circle id="Ellipse_1428" data-name="Ellipse 1428" cx="24" cy="24" r="24" transform="translate(887 642)" fill="#c2a87c"/>
    <path id="Intersection_1" data-name="Intersection 1" d="M0,30.012a37.127,37.127,0,0,1,6.164-2.76c5.025-1.823,6.625-3.361,6.625-6.643,0-1.969-1.535-1.331-2.209-4.946-.277-1.5-1.629-.023-1.893-3.446,0-1.364.75-1.7.75-1.7S9.061,8.49,8.91,6.938C8.721,5,10.029,0,16.994,0s8.268,5,8.088,6.938c-.15,1.552-.521,3.577-.521,3.577s.738.342.738,1.7c-.264,3.418-1.615,1.95-1.893,3.446C22.73,19.278,21.2,18.64,21.2,20.609c0,3.282,1.6,4.82,6.621,6.643a37.1,37.1,0,0,1,6.16,2.759A25.582,25.582,0,0,1,0,30.012Z" transform="translate(894.008 653.529)" fill="rgba(255,255,255,0.87)"/>
  </g>
</svg>
