<svg xmlns="http://www.w3.org/2000/svg" xmlns:xlink="http://www.w3.org/1999/xlink" width="64" height="64" viewBox="0 0 64 64"><defs><linearGradient id="a" x1="-0.014" x2="1" y2="1" gradientUnits="objectBoundingBox"><stop offset="0" stop-color="#f3e0b8"/><stop offset="0.134" stop-color="#f9c734"/><stop offset="0.657" stop-color="#916b1f"/><stop offset="1" stop-color="#72501b"/></linearGradient></defs><g transform="translate(-1921 -200)"><rect width="64" height="64" rx="20" transform="translate(1921 200)" fill="none"/><g transform="translate(1929 210.423)"><path d="M15.529,44.37H28.84c11.092,0,15.529-4.437,15.529-15.529V15.529C44.37,4.437,39.933,0,28.84,0H15.529C4.437,0,0,4.437,0,15.529V28.84C0,39.933,4.437,44.37,15.529,44.37Z" transform="translate(0 1.709)" fill="url(#a)"/><path d="M12.407,35.45H23.042C31.9,35.45,35.45,31.9,35.45,23.042V12.407C35.45,3.545,31.9,0,23.042,0H12.407C3.545,0,0,3.545,0,12.407V23.042C0,31.9,3.545,35.45,12.407,35.45Z" transform="translate(4.46 6.169)" fill="#fff7e5"/><path d="M0,0H44.37V44.37H0Z" transform="translate(0 1.709)" fill="none" opacity="0"/><path d="M20.242,22.57A3.565,3.565,0,1,1,23.808,19,3.569,3.569,0,0,1,20.242,22.57Zm0-4.753A1.188,1.188,0,1,0,21.431,19,1.189,1.189,0,0,0,20.242,17.817Zm-9.624,0a3.8,3.8,0,0,1-3.14-1.668L.675,6.163a3.877,3.877,0,0,1-.222-4A3.8,3.8,0,0,1,3.815.121H14.373A3.844,3.844,0,0,1,15.336,0h9.428a3.857,3.857,0,0,1,3.431,2.129,4.076,4.076,0,0,1-.31,4.255L23.17,12.949a3.814,3.814,0,0,1-6.24,0l-.509-.709-2.662,3.908A3.8,3.8,0,0,1,10.618,17.816ZM3.815,2.5a1.4,1.4,0,0,0-1.261.771,1.486,1.486,0,0,0,.085,1.555l6.8,9.985a1.413,1.413,0,0,0,2.351,0L15.413,9.5a1.188,1.188,0,0,1,1.948-.024l1.5,2.088a1.438,1.438,0,0,0,2.379,0L25.954,5a1.712,1.712,0,0,0,.126-1.784,1.472,1.472,0,0,0-1.316-.837H15.336a1.452,1.452,0,0,0-.438.066,1.188,1.188,0,0,1-.358.055Z" transform="translate(36.881 35.768) rotate(180)" fill="#72501b"/><g transform="translate(25.815 -2.923)"><path d="M11.092,0A11.092,11.092,0,1,1,0,11.092,11.092,11.092,0,0,1,11.092,0Z" fill="#f9c734"/><path d="M681.679,96.444a2.333,2.333,0,0,1,.991-.931,2.339,2.339,0,0,0,.263-.152,2.323,2.323,0,0,1,1.294-.394h.009a2.337,2.337,0,0,1-.308-1.335c0-.041,0-.089,0-.142s0-.1,0-.147a2.328,2.328,0,0,1,.308-1.33,2.317,2.317,0,0,1-1.3-.4,2.283,2.283,0,0,0-.258-.149,2.346,2.346,0,0,1-1-.932,2.315,2.315,0,0,1-1,.932,2.232,2.232,0,0,0-.256.148,2.321,2.321,0,0,1-1.3.4h-.009a2.311,2.311,0,0,1,.308,1.327c0,.048,0,.1,0,.15s0,.1,0,.143a2.325,2.325,0,0,1-.308,1.334,2.327,2.327,0,0,1,1.306.4,2.259,2.259,0,0,0,.255.148,2.314,2.314,0,0,1,1,.934m.906,2.864h-1.815a.414.414,0,0,1-.406-.333l-.292-1.467a.417.417,0,0,0-.229-.29,4.158,4.158,0,0,1-.477-.276.416.416,0,0,0-.366-.053l-1.414.48a.414.414,0,0,1-.492-.185l-.907-1.573a.414.414,0,0,1,.085-.518l1.12-.983a.422.422,0,0,0,.138-.349q-.009-.135-.009-.272t.009-.272a.421.421,0,0,0-.138-.349l-1.12-.983a.414.414,0,0,1-.085-.518l.907-1.573a.414.414,0,0,1,.492-.185l1.414.48a.414.414,0,0,0,.366-.053,4.109,4.109,0,0,1,.477-.276.417.417,0,0,0,.229-.29L680.365,88a.414.414,0,0,1,.406-.333h1.815a.414.414,0,0,1,.406.333l.292,1.467a.415.415,0,0,0,.229.29,4.172,4.172,0,0,1,.477.276.414.414,0,0,0,.366.053l1.415-.48a.414.414,0,0,1,.492.185l.907,1.573a.414.414,0,0,1-.085.518l-1.12.983a.422.422,0,0,0-.138.349c.006.09.009.181.009.272s0,.182-.009.272a.423.423,0,0,0,.138.349l1.12.983a.415.415,0,0,1,.085.518l-.907,1.573a.414.414,0,0,1-.492.185l-1.415-.48a.416.416,0,0,0-.366.053,4.223,4.223,0,0,1-.477.276.415.415,0,0,0-.229.29l-.292,1.467A.414.414,0,0,1,682.585,99.308Z" transform="translate(-670.586 -82.398)" fill="#72501b"/></g></g></g></svg>