<svg xmlns="http://www.w3.org/2000/svg" xmlns:xlink="http://www.w3.org/1999/xlink" width="64" height="64" viewBox="0 0 64 64"><defs><linearGradient id="a" x1="0.855" y1="1.078" x2="0" gradientUnits="objectBoundingBox"><stop offset="0" stop-color="#f3e0b8"/><stop offset="0.134" stop-color="#f9c734"/><stop offset="0.657" stop-color="#916b1f"/><stop offset="1" stop-color="#72501b"/></linearGradient></defs><rect width="64" height="64" rx="20" fill="none"/><g transform="translate(-400.402 -2334.227)"><g transform="translate(408.402 2355.625)"><g transform="translate(0 0)"><path d="M21.9,22.175q-1.154,0-2.307,0c-1.665.006-3.332.012-5-.021a7.554,7.554,0,0,1-6.338-3.533,11.167,11.167,0,0,1-1.4-3.765c-.332-1.334-2.267-2.3-3.547-2.893A3.277,3.277,0,0,1,1.334,8.845c-.033-2.043,0-4.089,0-6.132l.1-.01a3.246,3.246,0,0,1-.4-.087A1.386,1.386,0,0,1,0,1.683V1.032A1.441,1.441,0,0,1,1.126.055,8.407,8.407,0,0,1,2.5.011l.262.005V0H45.239V.007h.077c.447-.007.894-.013,1.339.015a1.332,1.332,0,0,1,1.17,1.992,1.559,1.559,0,0,1-1.155.7c.3,1.688.6,3.38.915,5.067.41,2.162-2.2,4.1-4.4,4.308-2.56.237-2.68.4-5.246.568a.583.583,0,0,0-.63.458c-.319,1.019-.668,2.03-1.016,3.04a8.683,8.683,0,0,1-4.539,5.183,11.928,11.928,0,0,1-2.764.826,10.838,10.838,0,0,1-2.122.1C24.824,22.26,22.035,22.175,21.9,22.175Z" transform="translate(48 22.26) rotate(180)" stroke="rgba(0,0,0,0)" stroke-miterlimit="10" stroke-width="1" fill="url(#a)"/><path d="M17.418,15.207c-.584,0-1.292,0-2.046,0-1.659,0-3.54.009-4.825-.015-2.1-.04-3.342-.7-4.05-2.46S5.92,10.276,4.984,8.759,1.531,6.665,1.531,6.665A2.338,2.338,0,0,1,.012,4.431c0-.036,0-.071,0-.107H0V0H35.059V.032h2.964c.82,2.859,2.085,5.059-2.28,5.475-1.966.17-2.715.283-4.685.407-.267.017-.4.083-.484.328-.244.729-1.839,3.932-2.107,4.654A6.373,6.373,0,0,1,24.981,14.6a9.663,9.663,0,0,1-2.123.591,9.017,9.017,0,0,1-1.633.072C19.657,15.267,17.519,15.207,17.418,15.207Z" transform="translate(43.251 18.385) rotate(180)" fill="#fff7e5" stroke="rgba(0,0,0,0)" stroke-miterlimit="10" stroke-width="1"/><path d="M360.183,545.678a4.736,4.736,0,1,0,4.846-4.659A4.753,4.753,0,0,0,360.183,545.678Z" transform="translate(-326.254 -523.66)" fill="#72501b"/><path d="M578.694,545.677a4.719,4.719,0,0,0-4.9-4.652,4.734,4.734,0,1,0,4.9,4.652Z" transform="translate(-564.316 -523.665)" fill="#72501b"/><path d="M645,514.644c0,.53.011,1.06,0,1.59-.007.239.084.289.3.265a1.886,1.886,0,0,0-.022-3.726c-.2-.023-.282.018-.278.235C645.006,513.552,645,514.1,645,514.644Z" transform="translate(-643.032 -499.332)" fill="#f9c734"/><path d="M382.28,561.2a1.932,1.932,0,1,0,1.962,1.892A1.9,1.9,0,0,0,382.28,561.2Z" transform="translate(-343.648 -541.036)" fill="#f9c734"/><path d="M591.126,565.056a1.932,1.932,0,1,0-1.941-1.925A1.952,1.952,0,0,0,591.126,565.056Z" transform="translate(-581.492 -541.032)" fill="#f9c734"/></g><path d="M4,0H5.316a1,1,0,0,1,1,1V5.316a1,1,0,0,1-1,1H1a1,1,0,0,1-1-1V4A4,4,0,0,1,4,0Z" transform="translate(16.46 5.204)" fill="#72501b"/></g><g transform="translate(432.402 2350)"><path d="M8.572,0A8.572,8.572,0,1,1,0,8.572,8.572,8.572,0,0,1,8.572,0Z" transform="translate(0 0)" fill="#f9c734"/><g transform="translate(6.25 3.211)"><path d="M-661-153.394v1.671" transform="translate(663.391 153.394)" fill="none" stroke="#72501b" stroke-linecap="round" stroke-linejoin="round" stroke-width="1.5"/><path d="M-661-153.394v1.671" transform="translate(663.391 162.278)" fill="none" stroke="#72501b" stroke-linecap="round" stroke-linejoin="round" stroke-width="1.5"/><path d="M-658.86-150.8a2.854,2.854,0,0,0-2.091-.877,1.875,1.875,0,0,0-1.965,1.353,1.707,1.707,0,0,0,1.229,2.12,6.905,6.905,0,0,1,1.89.645,1.511,1.511,0,0,1,.86,1.4,1.9,1.9,0,0,1-2.166,1.674,4.023,4.023,0,0,1-2.329-.861" transform="translate(663.432 153.365)" fill="none" stroke="#72501b" stroke-linecap="round" stroke-linejoin="round" stroke-width="1.5"/></g></g></g></svg>