<svg width="24" height="24" viewBox="0 0 24 24" fill="none" xmlns="http://www.w3.org/2000/svg">
<path d="M3.77501 3.69999L15.087 2.08099C15.1508 2.07182 15.2159 2.07647 15.2777 2.09462C15.3396 2.11278 15.3968 2.14401 15.4456 2.1862C15.4943 2.2284 15.5334 2.28058 15.5602 2.3392C15.587 2.39782 15.601 2.46152 15.601 2.52599V21.286C15.6009 21.3504 15.587 21.414 15.5603 21.4725C15.5335 21.5311 15.4945 21.5832 15.4459 21.6254C15.3973 21.6675 15.3402 21.6988 15.2784 21.717C15.2167 21.7352 15.1518 21.74 15.088 21.731L3.77401 20.117C3.55984 20.0862 3.36392 19.9793 3.22215 19.8159C3.08037 19.6524 3.00222 19.4434 3.00201 19.227V4.58799C3.0027 4.37196 3.08106 4.16339 3.2228 4.00036C3.36453 3.83733 3.56118 3.73071 3.77501 3.69999ZM16.502 3.80799H20.102C20.3407 3.80799 20.5696 3.90281 20.7384 4.07159C20.9072 4.24038 21.002 4.4693 21.002 4.70799V19.108C21.002 19.3467 20.9072 19.5756 20.7384 19.7444C20.5696 19.9132 20.3407 20.008 20.102 20.008H16.502V3.80799ZM10.382 11.908L12.902 8.30799H10.742L9.30201 10.365L7.86201 8.30699H5.70201L8.22201 11.907L5.70201 15.507H7.86201L9.30201 13.45L10.742 15.507H12.902L10.382 11.908Z" fill="#C2A87C"/>
</svg>
