<svg id="funtion_ic_gdtl" xmlns="http://www.w3.org/2000/svg" xmlns:xlink="http://www.w3.org/1999/xlink" width="64" height="64" viewBox="0 0 64 64">
  <defs>
    <linearGradient id="linear-gradient" y1="0.046" x2="0.945" y2="1" gradientUnits="objectBoundingBox">
      <stop offset="0" stop-color="#f3e0b8"/>
      <stop offset="0.251" stop-color="#f9c734"/>
      <stop offset="0.657" stop-color="#916b1f"/>
      <stop offset="1" stop-color="#72501b"/>
    </linearGradient>
  </defs>
  <rect id="Rectangle_6166" data-name="Rectangle 6166" width="64" height="64" fill="none"/>
  <g id="Group_19044" data-name="Group 19044" transform="translate(-102.559 -32.524)">
    <path id="Union_35" data-name="Union 35" d="M28.794,14.383l-.375-2.676a81.213,81.213,0,0,1-14-.12C1.794,10.648,0,1.186,0,1.186S2.669,5.013,12.7,5.794A54.269,54.269,0,0,0,27.444,4.771l-.412-2.939A1.6,1.6,0,0,1,29.567.309L36.88,5.683a1.6,1.6,0,0,1,.341,2.243l-.022.03-5.548,7.179a1.6,1.6,0,0,1-2.857-.757Z" transform="translate(150.093 55.282) rotate(180)" fill="#916b1f"/>
    <g id="Group_18920" data-name="Group 18920" transform="translate(115.264 45.19)">
      <circle id="Ellipse_1105" data-name="Ellipse 1105" cx="19.238" cy="19.238" r="19.238" fill="url(#linear-gradient)"/>
      <circle id="Ellipse_1111" data-name="Ellipse 1111" cx="14.428" cy="14.428" r="14.428" transform="translate(4.809 4.809)" fill="#fff7e5"/>
      <g id="Group_20174" data-name="Group 20174" transform="translate(0 0.037)">
        <rect id="Rectangle_6463" data-name="Rectangle 6463" width="2" height="6" transform="translate(18.296 12.834)" fill="#72501b"/>
        <rect id="Rectangle_6464" data-name="Rectangle 6464" width="2" height="10" transform="translate(28.455 23.834) rotate(120)" fill="#72501b"/>
        <circle id="Ellipse_1412" data-name="Ellipse 1412" cx="2" cy="2" r="2" transform="translate(17.296 17.834)" fill="#72501b"/>
      </g>
    </g>
    <path id="Union_35-2" data-name="Union 35" d="M28.878,21.539,28.5,18.864a81.213,81.213,0,0,1-14-.12C1.878,17.8.084,8.342.084,8.342s2.669,3.827,12.7,4.607a54.269,54.269,0,0,0,14.746-1.023l-.412-2.939a1.6,1.6,0,0,1,2.535-1.523l7.314,5.374a1.6,1.6,0,0,1,.341,2.243l-.022.03-5.548,7.179a1.6,1.6,0,0,1-2.857-.757Z" transform="translate(118.941 67.396)" fill="#f9c734"/>
  </g>
</svg>
