<svg xmlns="http://www.w3.org/2000/svg" width="32" height="32" viewBox="0 0 32 32">
  <g id="home_32px" data-name="home 32px" transform="translate(-9 -8)">
    <rect id="Rectangle_6457" data-name="Rectangle 6457" width="32" height="32" transform="translate(9 8)" fill="none"/>
    <path id="Path_2" data-name="Path 2" d="M9.208,23.526v-3.68a1.682,1.682,0,0,1,1.649-1.7H14.2a1.682,1.682,0,0,1,1.66,1.7h0v3.691A1.446,1.446,0,0,0,17.251,25h2.228A4.075,4.075,0,0,0,23.5,20.874h0V10.405A2.964,2.964,0,0,0,22.386,8.12l-7.619-6.3a3.582,3.582,0,0,0-4.567,0L2.614,8.131A2.941,2.941,0,0,0,1.5,10.417V20.874A4.075,4.075,0,0,0,5.521,25H7.749a1.456,1.456,0,0,0,1.437-1.474h0" transform="translate(12.5 11)" fill="#c2a87c"/>
  </g>
</svg>
