<svg xmlns="http://www.w3.org/2000/svg" width="24" height="24" viewBox="0 0 24 24">
  <g id="ic_ask" transform="translate(-1437 -149)">
    <rect id="Rectangle_6275" data-name="Rectangle 6275" width="24" height="24" transform="translate(1437 149)" fill="none"/>
    <g id="Rectangle_6276" data-name="Rectangle 6276" transform="translate(1441 153)" fill="none" stroke="#c2a87c" stroke-width="1.6">
      <rect width="16" height="16" rx="8" stroke="none"/>
      <rect x="0.8" y="0.8" width="14.4" height="14.4" rx="7.2" fill="none"/>
    </g>
    <path id="Path_16497" data-name="Path 16497" d="M1.7,5.131a2.684,2.684,0,0,1,.121-.843A2.162,2.162,0,0,1,2.282,3.6L2.869,3a1.359,1.359,0,0,0,.377-.915A1.037,1.037,0,0,0,3,1.347a.924.924,0,0,0-.717-.269,1.08,1.08,0,0,0-.735.242.819.819,0,0,0-.278.65H.439A1.507,1.507,0,0,1,.955.8,1.939,1.939,0,0,1,2.282.352,1.813,1.813,0,0,1,3.6.809a1.64,1.64,0,0,1,.475,1.246A2.258,2.258,0,0,1,3.349,3.6l-.489.484a1.509,1.509,0,0,0-.327,1.045ZM1.668,6.552a.484.484,0,0,1,.121-.336.47.47,0,0,1,.368-.139.486.486,0,0,1,.368.811.488.488,0,0,1-.368.13.488.488,0,0,1-.368-.13A.484.484,0,0,1,1.668,6.552Z" transform="translate(1446.894 157.648)" fill="#c2a87c" stroke="#c2a87c" stroke-width="0.4"/>
  </g>
</svg>
