<svg id="ic_bdsd_04" xmlns="http://www.w3.org/2000/svg" xmlns:xlink="http://www.w3.org/1999/xlink" width="48" height="48" viewBox="0 0 48 48">
  <defs>
    <linearGradient id="linear-gradient" x2="1" y2="1" gradientUnits="objectBoundingBox">
      <stop offset="0" stop-color="#f3e0b8"/>
      <stop offset="0.134" stop-color="#f9c734"/>
      <stop offset="0.657" stop-color="#916b1f"/>
      <stop offset="1" stop-color="#72501b"/>
    </linearGradient>
  </defs>
  <circle id="Ellipse_1088" data-name="Ellipse 1088" cx="24" cy="24" r="24" fill="none"/>
  <g id="Icon_YCKH_-36pt" data-name="Icon / YCKH -36pt" transform="translate(6 6)">
    <rect id="Rectangle_6166" data-name="Rectangle 6166" width="36" height="36" fill="none"/>
    <g id="Group_20089" data-name="Group 20089" transform="translate(6 7)">
      <g id="Group_20081" data-name="Group 20081">
        <path id="Vector" d="M16.223,0H5.408A5.4,5.4,0,0,0,0,5.389v7.553a5.4,5.4,0,0,0,5.408,5.389H7.03a1.243,1.243,0,0,1,.865.433l1.622,2.153a1.536,1.536,0,0,0,2.6,0l1.622-2.153a1.1,1.1,0,0,1,.865-.433h1.622a5.4,5.4,0,0,0,5.408-5.389V5.389A5.4,5.4,0,0,0,16.223,0Z" stroke="rgba(0,0,0,0)" stroke-miterlimit="10" stroke-width="1" fill="url(#linear-gradient)"/>
        <path id="Vector-2" data-name="Vector" d="M12.7,0H4.234A4.227,4.227,0,0,0,0,4.219v5.913A4.227,4.227,0,0,0,4.234,14.35H12.7a4.227,4.227,0,0,0,4.234-4.219V4.219A4.227,4.227,0,0,0,12.7,0Z" transform="translate(2.349 1.99)" fill="#fff7e5"/>
        <path id="Union_56" data-name="Union 56" d="M3.054,7.166A1.51,1.51,0,0,1,2.3,5.928a1.522,1.522,0,0,1,.76-1.245,3.827,3.827,0,0,1,3.913,0,1.517,1.517,0,0,1,.755,1.237A1.52,1.52,0,0,1,6.97,7.166a3.565,3.565,0,0,1-1.958.544A3.559,3.559,0,0,1,3.054,7.166ZM8,6.842a1.374,1.374,0,0,0,.47-.894,1.518,1.518,0,0,0-.643-1.3,3.208,3.208,0,0,0-.887-.486,3.013,3.013,0,0,1,2.583.451,1.174,1.174,0,0,1,.5,1.014,1.175,1.175,0,0,1-.671.917,2.7,2.7,0,0,1-1.279.3Zm-7.32-.3A1.175,1.175,0,0,1,0,5.624a1.172,1.172,0,0,1,.5-1.014,3.013,3.013,0,0,1,2.583-.451,3.22,3.22,0,0,0-.887.486,1.519,1.519,0,0,0-.643,1.3,1.375,1.375,0,0,0,.47.894H1.953A2.7,2.7,0,0,1,.675,6.541ZM5.07,3.658H5.05a.331.331,0,0,0-.085,0,1.821,1.821,0,1,1,.111,0Zm1.912-.42A1.766,1.766,0,0,0,7.56,1.773a1.794,1.794,0,0,0-.3-.84A1.384,1.384,0,1,1,8.042,3.55H8.022a.172.172,0,0,0-.065.008l-.077,0A1.377,1.377,0,0,1,6.981,3.238Zm-4.914.32A.178.178,0,0,0,2,3.55H1.982A1.384,1.384,0,0,1,2.271.8a1.4,1.4,0,0,1,.49.135,1.784,1.784,0,0,0-.3.84,1.765,1.765,0,0,0,.578,1.465,1.377,1.377,0,0,1-.9.322Z" transform="translate(5.804 5.311)" fill="#72501b"/>
      </g>
      <g id="Group_20082" data-name="Group 20082" transform="translate(13.906 11.537)">
        <g id="Group_20080" data-name="Group 20080">
          <path id="Path_16414" data-name="Path 16414" d="M5.047,0a5.047,5.047,0,1,0,5.047,5.047A5.047,5.047,0,0,0,5.047,0Z" fill="#f9c734"/>
          <g id="Group_20079" data-name="Group 20079" transform="translate(5.047 2.702)">
            <path id="Path_16495" data-name="Path 16495" d="M8,2.647v3.09" transform="translate(-8 -1.102)" fill="none" stroke="#72501b" stroke-linecap="round" stroke-linejoin="round" stroke-miterlimit="10" stroke-width="1.5"/>
            <path id="Path_18614" data-name="Path 18614" d="M8,2.647H8" transform="translate(-8 -2.647)" fill="none" stroke="#72501b" stroke-linecap="round" stroke-linejoin="round" stroke-miterlimit="10" stroke-width="1.5"/>
          </g>
        </g>
      </g>
    </g>
  </g>
</svg>
