<svg id="ic_bdsd_03" xmlns="http://www.w3.org/2000/svg" xmlns:xlink="http://www.w3.org/1999/xlink" width="48" height="48" viewBox="0 0 48 48">
  <defs>
    <linearGradient id="linear-gradient" x2="1" y2="1" gradientUnits="objectBoundingBox">
      <stop offset="0" stop-color="#f3e0b8"/>
      <stop offset="0.134" stop-color="#f9c734"/>
      <stop offset="0.657" stop-color="#916b1f"/>
      <stop offset="1" stop-color="#72501b"/>
    </linearGradient>
  </defs>
  <circle id="Ellipse_1088" data-name="Ellipse 1088" cx="24" cy="24" r="24" fill="none"/>
  <g id="Icon_VNTopup_-36px" data-name="Icon / VNTopup -36px" transform="translate(6 6)">
    <rect id="Rectangle_6166" data-name="Rectangle 6166" width="36" height="36" fill="none"/>
    <g id="Group_18929" data-name="Group 18929" transform="translate(6 5)">
      <g id="Group_18928" data-name="Group 18928">
        <rect id="Rectangle_5944" data-name="Rectangle 5944" width="18.24" height="26.88" rx="2" fill="url(#linear-gradient)"/>
        <rect id="Rectangle_6073" data-name="Rectangle 6073" width="12.48" height="21.12" rx="1" transform="translate(2.88 2.88)" fill="#fff7e5"/>
      </g>
      <ellipse id="Ellipse_1117" data-name="Ellipse 1117" cx="1.44" cy="1.44" rx="1.44" ry="1.44" transform="translate(7.68 19.2)" fill="#72501b"/>
      <g id="Group_18979" data-name="Group 18979" transform="translate(10.56 6.72)">
        <path id="Path_16389" data-name="Path 16389" d="M6.72,0A6.72,6.72,0,1,1,0,6.72,6.72,6.72,0,0,1,6.72,0Z" fill="#f9c734"/>
        <path id="Path_68229" data-name="Path 68229" d="M-9853.936,1777.28v-2.626h-2.625v-1.749h2.625v-2.626h1.749v2.626h2.626v1.749h-2.626v2.626Z" transform="translate(8228.138 5719.634) rotate(45)" fill="#72501b"/>
      </g>
    </g>
  </g>
</svg>
