<svg xmlns="http://www.w3.org/2000/svg" xmlns:xlink="http://www.w3.org/1999/xlink" width="24" height="24" viewBox="0 0 24 24"><defs><clipPath id="a"><rect width="24" height="24" transform="translate(569 146)" fill="#fff"/></clipPath></defs><g transform="translate(-569 -146)" clip-path="url(#a)"><path d="M17.08,20.873H6.406a3.288,3.288,0,0,1-3.28-3.279V6.443A3.287,3.287,0,0,1,6.4,3.164H17.556a3.288,3.288,0,0,1,3.28,3.279V16.776l-1.582-1.582a5.475,5.475,0,0,0-2.815-1.5l-2.152-.435h-.028a.736.736,0,0,0-.122-.013.763.763,0,0,0-.744.619.847.847,0,0,0,0,.292l.426,2.161a5.553,5.553,0,0,0,1.5,2.806l1.755,1.755ZM7.047,9.722a.885.885,0,0,0,0,1.77h9.74a.885.885,0,1,0,0-1.77ZM10.59,6.181a.885.885,0,1,0,0,1.77h6.2a.885.885,0,1,0,0-1.77Zm-3.542,0a.886.886,0,1,0,.338.067A.885.885,0,0,0,7.048,6.181ZM19.953,20.835a.986.986,0,0,1-.708-.3L16.58,17.864a3.679,3.679,0,0,1-1.018-1.9l-.142-.673.673.133a3.626,3.626,0,0,1,1.9,1.018l2.674,2.665a1.025,1.025,0,0,1,.165.221v.987a1.023,1.023,0,0,1-.882.519Z" transform="translate(568.874 146.836)" fill="#c2a87c"/></g></svg>