<svg id="icon_48px_Lien_ke_vi_Reg" data-name="icon 48px / Lien ke vi / Reg" xmlns="http://www.w3.org/2000/svg" xmlns:xlink="http://www.w3.org/1999/xlink" width="48" height="48" viewBox="0 0 48 48">
  <defs>
    <linearGradient id="linear-gradient" x1="-0.014" x2="1" y2="1" gradientUnits="objectBoundingBox">
      <stop offset="0" stop-color="#f3e0b8"/>
      <stop offset="0.134" stop-color="#f9c734"/>
      <stop offset="0.657" stop-color="#916b1f"/>
      <stop offset="1" stop-color="#72501b"/>
    </linearGradient>
  </defs>
  <circle id="Ellipse_1088" data-name="Ellipse 1088" cx="24" cy="24" r="24" fill="rgba(255,255,255,0.08)"/>
  <g id="Group_20402" data-name="Group 20402">
    <rect id="Rectangle_6166" data-name="Rectangle 6166" width="36" height="36" transform="translate(6 6)" fill="none"/>
    <g id="Group_20068" data-name="Group 20068" transform="translate(-198 -993)">
      <g id="Group_20067" data-name="Group 20067" transform="translate(208 1003)">
        <g id="archive" transform="translate(0 0)">
          <path id="Vector" d="M9.8,28h8.4c7,0,9.8-2.8,9.8-9.8V9.8c0-7-2.8-9.8-9.8-9.8H9.8C2.8,0,0,2.8,0,9.8v8.4C0,25.2,2.8,28,9.8,28Z" transform="translate(0 0)" fill="url(#linear-gradient)"/>
          <path id="Vector-2" data-name="Vector" d="M7.83,22.371h6.711c5.593,0,7.83-2.237,7.83-7.83V7.83c0-5.593-2.237-7.83-7.83-7.83H7.83C2.237,0,0,2.237,0,7.83v6.711C0,20.134,2.237,22.371,7.83,22.371Z" transform="translate(2.815 2.815)" fill="#fff7e5"/>
          <g id="Group_20071" data-name="Group 20071">
            <g id="Group" transform="translate(5.177 6.052)">
              <path id="Vector-3" data-name="Vector" d="M2.24-.75h9.333a2.993,2.993,0,0,1,2.99,2.99v7.875a.656.656,0,1,1-1.312,0,1.679,1.679,0,0,0-1.677-1.677H2.24A1.679,1.679,0,0,0,.562,10.114a.656.656,0,0,1-.656.656.656.656,0,0,1-.656-.656V2.24A2.993,2.993,0,0,1,2.24-.75ZM13.25,7.641V2.24A1.679,1.679,0,0,0,11.573.562H2.24A1.679,1.679,0,0,0,.562,2.24v5.4A2.973,2.973,0,0,1,2.24,7.125h9.333A2.973,2.973,0,0,1,13.25,7.641Z" transform="translate(1.917 0.75)" fill="#72501b" stroke="#72501b" stroke-linecap="round" stroke-width="0.25"/>
              <path id="Vector-4" data-name="Vector" d="M1.073.562H-.094A.656.656,0,0,1-.75-.094.656.656,0,0,1-.094-.75H1.073a.656.656,0,0,1,.656.656A.656.656,0,0,1,1.073.562Z" transform="translate(15.917 12.417)" fill="#72501b" stroke="#72501b" stroke-linecap="round" stroke-width="0.25"/>
              <path id="Vector-5" data-name="Vector" d="M1.073.562H-.094A.656.656,0,0,1-.75-.094.656.656,0,0,1-.094-.75H1.073a.656.656,0,0,1,.656.656A.656.656,0,0,1,1.073.562Z" transform="translate(0.75 12.417)" fill="#72501b" stroke="#72501b" stroke-linecap="round" stroke-width="0.25"/>
            </g>
            <path id="Vector-6" data-name="Vector" d="M13.906,6.4a.656.656,0,0,1-.656-.656V2.24A1.679,1.679,0,0,0,11.573.562H2.24A1.679,1.679,0,0,0,.562,2.24v3.5A.656.656,0,0,1-.094,6.4.656.656,0,0,1-.75,5.74V2.24A2.993,2.993,0,0,1,2.24-.75h9.333a2.993,2.993,0,0,1,2.99,2.99v3.5A.656.656,0,0,1,13.906,6.4Z" transform="translate(7.094 10.594)" fill="#72501b" stroke="#72501b" stroke-linecap="round" stroke-width="0.25"/>
            <path id="Vector-7" data-name="Vector" d="M2.24-.75h9.333a2.993,2.993,0,0,1,2.99,2.99V3.7a.656.656,0,0,1-.656.656H10.419a3.573,3.573,0,0,1-7.025,0H-.094A.656.656,0,0,1-.75,3.7V2.24A2.993,2.993,0,0,1,2.24-.75ZM13.25,3.042v-.8A1.679,1.679,0,0,0,11.573.562H2.24A1.679,1.679,0,0,0,.562,2.24v.8H3.99a.656.656,0,0,1,.656.656,2.26,2.26,0,0,0,4.521,0,.656.656,0,0,1,.656-.656Z" transform="translate(7.094 14.677)" fill="#72501b" stroke="#72501b" stroke-linecap="round" stroke-width="0.25"/>
          </g>
          <path id="Vector-8" data-name="Vector" d="M0,0H28V28H0Z" transform="translate(0 0)" fill="none" opacity="0"/>
        </g>
      </g>
      <g id="Group_19071" data-name="Group 19071" transform="translate(222.933 1017.933)">
        <path id="Path_16414" data-name="Path 16414" d="M6.533,0a6.533,6.533,0,1,0,6.533,6.533A6.533,6.533,0,0,0,6.533,0Z" transform="translate(0)" fill="#f9c734"/>
        <path id="Path_16495" data-name="Path 16495" d="M8,2.647V8.919" transform="translate(-1.467 0.75)" fill="none" stroke="#72501b" stroke-linecap="round" stroke-linejoin="round" stroke-miterlimit="10" stroke-width="1.5"/>
        <path id="Path_16496" data-name="Path 16496" d="M0,0V6.272" transform="translate(9.669 6.533) rotate(90)" fill="none" stroke="#72501b" stroke-linecap="round" stroke-linejoin="round" stroke-miterlimit="10" stroke-width="1.5"/>
      </g>
    </g>
  </g>
</svg>
