<svg id="icon_48px_Lien_ke_vi_topup" data-name="icon 48px / Lien ke vi / topup" xmlns="http://www.w3.org/2000/svg" xmlns:xlink="http://www.w3.org/1999/xlink" width="48" height="48" viewBox="0 0 48 48">
  <defs>
    <linearGradient id="linear-gradient" x1="-0.014" x2="1" y2="1" gradientUnits="objectBoundingBox">
      <stop offset="0" stop-color="#f3e0b8"/>
      <stop offset="0.134" stop-color="#f9c734"/>
      <stop offset="0.657" stop-color="#916b1f"/>
      <stop offset="1" stop-color="#72501b"/>
    </linearGradient>
  </defs>
  <circle id="Ellipse_1088" data-name="Ellipse 1088" cx="24" cy="24" r="24" fill="rgba(255,255,255,0.08)"/>
  <g id="Group_20403" data-name="Group 20403">
    <rect id="Rectangle_6166" data-name="Rectangle 6166" width="36" height="36" transform="translate(6 6)" fill="none"/>
    <g id="Group_20068" data-name="Group 20068" transform="translate(-198 -993)">
      <path id="Vector" d="M9.8,28h8.4c7,0,9.8-2.8,9.8-9.8V9.8c0-7-2.8-9.8-9.8-9.8H9.8C2.8,0,0,2.8,0,9.8v8.4C0,25.2,2.8,28,9.8,28Z" transform="translate(208 1003)" fill="url(#linear-gradient)"/>
      <path id="Vector-2" data-name="Vector" d="M7.83,22.371h6.711c5.593,0,7.83-2.237,7.83-7.83V7.83c0-5.593-2.237-7.83-7.83-7.83H7.83C2.237,0,0,2.237,0,7.83v6.711C0,20.134,2.237,22.371,7.83,22.371Z" transform="translate(210.815 1005.814)" fill="#fff7e5"/>
      <path id="Vector-3" data-name="Vector" d="M0,0H28V28H0Z" transform="translate(208 1003)" fill="none" opacity="0"/>
      <path id="Union_57" data-name="Union 57" d="M-4058.3-1009.4v-.893a4.947,4.947,0,0,1-2.244-1.09,1,1,0,0,1,0-1.415,1,1,0,0,1,1.409-.005,3.4,3.4,0,0,0,1.809.627,1.46,1.46,0,0,0,1.057-.343.6.6,0,0,0,.2-.424.628.628,0,0,0-.412-.626,4.621,4.621,0,0,0-1.327-.467l-.443-.12a2.825,2.825,0,0,1-1.745-1.338,2.865,2.865,0,0,1-.255-2.156,2.8,2.8,0,0,1,1.948-1.975v-.976a1,1,0,0,1,1-1,1,1,0,0,1,1,1v.873a4.168,4.168,0,0,1,2.056,1.182l-1.484,1.34.007.007a2.047,2.047,0,0,0-1.423-.609c-.994.06-1.1.44-1.185.717a.85.85,0,0,0,.081.62.811.811,0,0,0,.527.385l.437.119a6.384,6.384,0,0,1,1.8.664,2.585,2.585,0,0,1,1.414,2.329v.02a2.587,2.587,0,0,1-.815,1.875,3.23,3.23,0,0,1-1.417.781v.9a1,1,0,0,1-1,1A1,1,0,0,1-4058.3-1009.4Z" transform="translate(4283.674 2029.2)" fill="#72501b"/>
      <path id="Union_53" data-name="Union 53" d="M-3711-.2V-2h-7.466V-8H-3711V-9.8a1,1,0,0,1,1.658-.753l5.482,4.8a1,1,0,0,1,0,1.505l-5.482,4.8a.983.983,0,0,1-.653.249A1,1,0,0,1-3711-.2Z" transform="translate(3926.465 1026.202)" fill="#f9c734"/>
    </g>
  </g>
</svg>
