<svg xmlns="http://www.w3.org/2000/svg" width="24" height="24" viewBox="0 0 24 24"><path d="M0,0H24V24H0Z" fill="none"/><g transform="translate(5 5)"><path d="M10.5,11.5H2.333V3.333H4.667V1h-3.5A1.167,1.167,0,0,0,0,2.167v10.5a1.167,1.167,0,0,0,1.167,1.167h10.5a1.167,1.167,0,0,0,1.167-1.167v-3.5H10.5Z" transform="translate(0 0.167)" fill="#c2a87c"/><path d="M12.844.482a1.644,1.644,0,0,0-2.326,0L5.167,5.833,4,9.333,7.5,8.166l5.351-5.351a1.644,1.644,0,0,0,0-2.326Z" transform="translate(0.667)" fill="#c2a87c"/></g></svg>