<svg id="ic_dichvucong" xmlns="http://www.w3.org/2000/svg" xmlns:xlink="http://www.w3.org/1999/xlink" width="48" height="48" viewBox="0 0 48 48">
  <defs>
    <linearGradient id="linear-gradient" x2="1" y2="1" gradientUnits="objectBoundingBox">
      <stop offset="0" stop-color="#f3e0b8"/>
      <stop offset="0.134" stop-color="#f9c734"/>
      <stop offset="0.657" stop-color="#916b1f"/>
      <stop offset="1" stop-color="#72501b"/>
    </linearGradient>
  </defs>
  <rect id="Rectangle_6274" data-name="Rectangle 6274" width="48" height="48" rx="16" fill="rgba(255,255,255,0.08)"/>
  <g id="Group_20097" data-name="Group 20097" transform="translate(0.254 1)">
    <g id="Group_19106" data-name="Group 19106" transform="translate(-387 -1826)">
      <path id="Union_48" data-name="Union 48" d="M1,28a1,1,0,0,1-1-1v-.8a1,1,0,0,1,1-1H31a1,1,0,0,1,1,1V27a1,1,0,0,1-1,1Zm.883-2.8V23.4a1,1,0,0,1,1-1H29.118a1,1,0,0,1,1,1v1.8Zm1.882-2.8V11.2H28.236V22.4ZM.973,11.2A1.121,1.121,0,0,1,.517,9.14L15.545.129a.873.873,0,0,1,.911,0L31.484,9.14a1.122,1.122,0,0,1-.455,2.06Z" transform="translate(395 1834)" stroke="rgba(0,0,0,0)" stroke-miterlimit="10" stroke-width="1" fill="url(#linear-gradient)"/>
      <rect id="Rectangle_6307" data-name="Rectangle 6307" width="2.824" height="10.267" transform="translate(400.647 1846.134)" fill="#fff7e5"/>
      <rect id="Rectangle_6308" data-name="Rectangle 6308" width="9.412" height="10.267" transform="translate(406.294 1846.134)" fill="#fff7e5"/>
      <rect id="Rectangle_6310" data-name="Rectangle 6310" width="2.824" height="10.267" transform="translate(418.529 1846.134)" fill="#fff7e5"/>
      <path id="Rectangle_6311" data-name="Rectangle 6311" d="M1.882,0h0A1.882,1.882,0,0,1,3.765,1.882V7.467a0,0,0,0,1,0,0H0a0,0,0,0,1,0,0V1.882A1.882,1.882,0,0,1,1.882,0Z" transform="translate(409.118 1848.934)" fill="#72501b"/>
      <circle id="Ellipse_1148" data-name="Ellipse 1148" cx="3" cy="3" r="3" transform="translate(408 1838)" fill="#fff7e5"/>
    </g>
    <g id="Group_19107" data-name="Group 19107" transform="translate(-156 -13)">
      <path id="Path_16389" data-name="Path 16389" d="M7,0A7,7,0,1,1,0,7,7,7,0,0,1,7,0Z" transform="translate(182 37)" fill="#f9c734"/>
      <g id="Group_18541" data-name="Group 18541" transform="translate(187.104 39.622)">
        <path id="Path_15911" data-name="Path 15911" d="M-661-153.394v1.365" transform="translate(662.952 153.394)" fill="none" stroke="#72501b" stroke-linecap="round" stroke-linejoin="round" stroke-width="1.5"/>
        <path id="Path_15912" data-name="Path 15912" d="M-661-153.394v1.365" transform="translate(662.952 160.648)" fill="none" stroke="#72501b" stroke-linecap="round" stroke-linejoin="round" stroke-width="1.5"/>
        <path id="Path_15910" data-name="Path 15910" d="M-659.7-150.958a2.331,2.331,0,0,0-1.707-.716,1.531,1.531,0,0,0-1.6,1.105,1.394,1.394,0,0,0,1,1.731,5.639,5.639,0,0,1,1.543.527,1.234,1.234,0,0,1,.7,1.141,1.554,1.554,0,0,1-1.769,1.367,3.285,3.285,0,0,1-1.9-.7" transform="translate(663.432 153.055)" fill="none" stroke="#72501b" stroke-linecap="round" stroke-linejoin="round" stroke-width="1.5"/>
      </g>
    </g>
  </g>
</svg>
