<svg xmlns="http://www.w3.org/2000/svg" xmlns:xlink="http://www.w3.org/1999/xlink" width="48" height="48" viewBox="0 0 48 48">
  <defs>
    <linearGradient id="linear-gradient" x2="1" y2="1" gradientUnits="objectBoundingBox">
      <stop offset="0" stop-color="#f3e0b8"/>
      <stop offset="0.251" stop-color="#f9c734"/>
      <stop offset="0.657" stop-color="#916b1f"/>
      <stop offset="1" stop-color="#72501b"/>
    </linearGradient>
  </defs>
  <g id="Group_23415" data-name="Group 23415" transform="translate(-2321 -119)">
    <rect id="Rectangle_6304" data-name="Rectangle 6304" width="48" height="48" rx="12" transform="translate(2321 119)" fill="none"/>
    <g id="Group_23414" data-name="Group 23414" transform="translate(2328.5 124.249)">
      <g id="Group_23410" data-name="Group 23410" transform="translate(0 0)">
        <path id="Exclusion_6" data-name="Exclusion 6" d="M10.714,23.571H8a8.009,8.009,0,0,1-8-8V8A8.009,8.009,0,0,1,8,0h2.713a8.009,8.009,0,0,1,8,8v7.571A8.009,8.009,0,0,1,10.714,23.571ZM7.509,3.535a4,4,0,0,0-4,4v12.5H15.2V7.536a4,4,0,0,0-4-4Z" transform="translate(4.314 0)" stroke="rgba(0,0,0,0)" stroke-width="1" fill="url(#linear-gradient)"/>
        <rect id="Rectangle_6160" data-name="Rectangle 6160" width="27.342" height="21.214" rx="3" transform="translate(0 11.786)" fill="url(#linear-gradient)"/>
        <rect id="Rectangle_6161" data-name="Rectangle 6161" width="21.032" height="14.143" rx="1" transform="translate(3.215 15.038)" fill="#fff7e5"/>
        <circle id="Ellipse_1128" data-name="Ellipse 1128" cx="2.051" cy="2.051" r="2.051" transform="translate(11.34 20.507)" fill="#72501b"/>
      </g>
      <g id="Group_23413" data-name="Group 23413" transform="translate(17.366 22.707)">
        <path id="Path_16429" data-name="Path 16429" d="M7.5,0A7.5,7.5,0,1,1,0,7.5,7.5,7.5,0,0,1,7.5,0Z" fill="#f9c734"/>
        <path id="Union_116" data-name="Union 116" d="M3,6.68V4.352H.674A.675.675,0,0,1,.674,3H3V.68a.674.674,0,1,1,1.349,0V3H6.675a.675.675,0,1,1,0,1.35H4.352V6.68A.674.674,0,0,1,3,6.68Z" transform="translate(3.824 3.823)" fill="#72501b"/>
      </g>
    </g>
  </g>
</svg>
