<svg id="Group_23444" data-name="Group 23444" xmlns="http://www.w3.org/2000/svg" xmlns:xlink="http://www.w3.org/1999/xlink" width="48" height="48" viewBox="0 0 48 48">
  <defs>
    <linearGradient id="linear-gradient" x2="1" y2="1" gradientUnits="objectBoundingBox">
      <stop offset="0" stop-color="#f3e0b8"/>
      <stop offset="0.251" stop-color="#f9c734"/>
      <stop offset="0.657" stop-color="#916b1f"/>
      <stop offset="1" stop-color="#72501b"/>
    </linearGradient>
  </defs>
  <rect id="Rectangle_6304" data-name="Rectangle 6304" width="48" height="48" rx="12" fill="none"/>
  <g id="Group_23414" data-name="Group 23414" transform="translate(7.533 5.273)">
    <g id="Group_23410" data-name="Group 23410" transform="translate(0 0)">
      <path id="Exclusion_6" data-name="Exclusion 6" d="M10.8,23.677H8a8.009,8.009,0,0,1-8-8V8A8.009,8.009,0,0,1,8,0h2.8a8.009,8.009,0,0,1,8,8v7.677A8.009,8.009,0,0,1,10.8,23.677ZM7.525,3.551a4.005,4.005,0,0,0-4,4V20.125H15.273V7.552a4,4,0,0,0-4-4Z" transform="translate(4.333 0)" stroke="rgba(0,0,0,0)" stroke-width="1" fill="url(#linear-gradient)"/>
      <rect id="Rectangle_6160" data-name="Rectangle 6160" width="27.465" height="21.31" rx="3" transform="translate(0 11.839)" fill="url(#linear-gradient)"/>
      <rect id="Rectangle_6161" data-name="Rectangle 6161" width="21.127" height="14.206" rx="1" transform="translate(3.23 15.106)" fill="#fff7e5"/>
      <circle id="Ellipse_1128" data-name="Ellipse 1128" cx="2.06" cy="2.06" r="2.06" transform="translate(11.391 20.599)" fill="#72501b"/>
    </g>
    <g id="Group_23413" data-name="Group 23413" transform="translate(17.445 22.809)">
      <path id="Path_16429" data-name="Path 16429" d="M7.534,0A7.534,7.534,0,1,1,0,7.534,7.534,7.534,0,0,1,7.534,0Z" fill="#f9c734"/>
      <g id="Group_18984" data-name="Group 18984" transform="translate(3.828 3.201)">
        <path id="Union_117" data-name="Union 117" d="M0,4.766A3.76,3.76,0,0,1,6.922,2.732L6.651.64A.564.564,0,0,1,7.045.028.793.793,0,0,1,7.139,0a.566.566,0,0,1,.633.489l.394,3.061a.564.564,0,0,1-.488.632L4.623,4.58a.564.564,0,1,1-.147-1.118l1.45-.188A2.6,2.6,0,0,0,3.768,2.135h0a2.633,2.633,0,1,0,0,5.266c1.267,0,1.515-.267,1.966-.753.088-.092.177-.19.279-.29a.557.557,0,0,1,.8,0,.566.566,0,0,1,0,.8c-.084.084-.168.173-.248.257A3.122,3.122,0,0,1,3.764,8.529,3.765,3.765,0,0,1,0,4.766Z" transform="translate(0 0)" fill="#72501b"/>
      </g>
    </g>
  </g>
</svg>
