<svg width="24" height="24" viewBox="0 0 24 24" fill="none" xmlns="http://www.w3.org/2000/svg">
<path fill-rule="evenodd" clip-rule="evenodd" d="M17.76 5.20942C16.168 3.61742 14.609 3.57642 12.976 5.20942L11.984 6.20042C11.9431 6.2433 11.914 6.29608 11.8996 6.35358C11.8852 6.41108 11.8861 6.47133 11.902 6.52842C12.2154 7.60567 12.7954 8.58646 13.5885 9.38003C14.3815 10.1736 15.3619 10.7543 16.439 11.0684C16.4715 11.0778 16.5051 11.0832 16.539 11.0844C16.5833 11.0847 16.6273 11.0759 16.6682 11.0587C16.7091 11.0416 16.7461 11.0163 16.777 10.9844L17.762 9.99142C18.1118 9.69796 18.3988 9.33686 18.6057 8.92978C18.8126 8.5227 18.9351 8.07802 18.966 7.62242C18.9415 7.15894 18.8218 6.70548 18.6143 6.29031C18.4068 5.87515 18.116 5.5072 17.76 5.20942ZM19.385 20.4064H4.615C4.45212 20.4051 4.29631 20.3398 4.18123 20.2245C4.06614 20.1092 4.00105 19.9533 4 19.7904C4.00131 19.6277 4.06652 19.472 4.18157 19.357C4.29663 19.2419 4.4523 19.1767 4.615 19.1754H19.385C19.5477 19.1767 19.7034 19.2419 19.8184 19.357C19.9335 19.472 19.9987 19.6277 20 19.7904C19.999 19.9533 19.9339 20.1092 19.8188 20.2245C19.7037 20.3398 19.5479 20.4051 19.385 20.4064ZM14.273 11.4574C14.494 11.5884 14.724 11.7034 14.962 11.8184C15.0057 11.8361 15.0486 11.8536 15.0909 11.8708C15.2877 11.951 15.4716 12.0259 15.665 12.0934L10.512 17.2464C10.3864 17.3641 10.23 17.4438 10.061 17.4764L6.91 17.9194C6.81088 17.9361 6.71052 17.9445 6.61 17.9444C6.18386 17.9524 5.77151 17.7934 5.461 17.5014C5.28511 17.3106 5.15577 17.0817 5.08308 16.8326C5.01039 16.5834 4.99633 16.3209 5.042 16.0654L5.485 12.9224C5.52119 12.7547 5.60046 12.5992 5.715 12.4714L10.868 7.31842C10.95 7.54042 11.04 7.77742 11.156 8.02742C11.271 8.25742 11.386 8.47842 11.517 8.70042C11.6132 8.86846 11.72 9.03013 11.837 9.18442C11.9429 9.34147 12.0581 9.49207 12.182 9.63542C12.2181 9.68859 12.2593 9.73816 12.305 9.78342C12.5615 10.0916 12.8442 10.377 13.15 10.6364C13.1924 10.6816 13.239 10.7228 13.289 10.7594C13.435 10.8859 13.5882 11.0038 13.748 11.1124C13.92 11.2354 14.092 11.3504 14.273 11.4574Z" fill="#C2A87C"/>
</svg>
