<svg id="ic_phi_chung_cu" data-name="ic_phi chung cu" xmlns="http://www.w3.org/2000/svg" xmlns:xlink="http://www.w3.org/1999/xlink" width="48" height="48" viewBox="0 0 48 48">
  <defs>
    <linearGradient id="linear-gradient" x1="0.177" y1="0.171" x2="1" y2="1" gradientUnits="objectBoundingBox">
      <stop offset="0" stop-color="#f3e0b8"/>
      <stop offset="0.134" stop-color="#f9c734"/>
      <stop offset="0.657" stop-color="#916b1f"/>
      <stop offset="1" stop-color="#72501b"/>
    </linearGradient>
  </defs>
  <rect id="Rectangle_6274" data-name="Rectangle 6274" width="48" height="48" rx="16" fill="rgba(255,255,255,0.08)"/>
  <g id="Group_20592" data-name="Group 20592" transform="translate(10.498 7.924)">
    <g id="Group_20576" data-name="Group 20576" transform="translate(0 0.152)">
      <path id="Path_68415" data-name="Path 68415" d="M12.305-1.9,3.593,5.081a4.9,4.9,0,0,0-1.549,4.17l.9,16.249a4.488,4.488,0,0,0,4.244,3.683H22.816A4.515,4.515,0,0,0,27.06,25.5l.9-16.249a4.986,4.986,0,0,0-1.549-4.17L17.693-1.89A4.409,4.409,0,0,0,12.305-1.9Z" transform="translate(-1.997 2.816)" stroke="rgba(0,0,0,0)" stroke-miterlimit="10" stroke-width="1" fill="url(#linear-gradient)"/>
      <path id="Path_68418" data-name="Path 68418" d="M10.229-2.06,3.271,3.73A4.152,4.152,0,0,0,2.034,7.188l.715,13.47a3.629,3.629,0,0,0,3.389,3.053H18.623a3.651,3.651,0,0,0,3.389-3.053l.715-13.47A4.222,4.222,0,0,0,21.49,3.73L14.532-2.049A3.419,3.419,0,0,0,10.229-2.06Z" transform="translate(0.621 5.552)" fill="#fff"/>
    </g>
    <path id="Rectangle_6463" data-name="Rectangle 6463" d="M3.747,0h0A3.747,3.747,0,0,1,7.494,3.747V8.585a0,0,0,0,1,0,0H0a0,0,0,0,1,0,0V3.747A3.747,3.747,0,0,1,3.747,0Z" transform="translate(9.253 21.002)" fill="#72501b"/>
    <rect id="Rectangle_6464" data-name="Rectangle 6464" width="12" height="2" rx="1" transform="translate(7 12)" fill="#72501b"/>
    <rect id="Rectangle_6465" data-name="Rectangle 6465" width="12" height="2" rx="1" transform="translate(7.003 16.152)" fill="#72501b"/>
    <g id="Group_20575" data-name="Group 20575" transform="translate(13.003)">
      <path id="Path_16414" data-name="Path 16414" d="M7,0a7,7,0,1,0,7,7A7,7,0,0,0,7,0Z" fill="#f9c734"/>
      <g id="Group_18958" data-name="Group 18958" transform="translate(4.413 1.87)">
        <path id="Path_68419" data-name="Path 68419" d="M18440.289-6378.174v-.7a3.77,3.77,0,0,1-1.734-.837.749.749,0,0,1,0-1.06.755.755,0,0,1,1.059,0,2.639,2.639,0,0,0,1.4.486,1.145,1.145,0,0,0,.83-.269.5.5,0,0,0,.162-.343.5.5,0,0,0-.33-.5,3.541,3.541,0,0,0-1.021-.361c-.107-.028-.219-.061-.344-.093a2.143,2.143,0,0,1-1.328-1.023,2.2,2.2,0,0,1-.2-1.643,2.149,2.149,0,0,1,1.5-1.51v-.767a.75.75,0,0,1,.75-.75.753.753,0,0,1,.75.75v.69a3.213,3.213,0,0,1,1.588.907l-1.115,1a1.568,1.568,0,0,0-1.1-.467c-.783.046-.875.356-.936.564a.707.707,0,0,0,.064.491.643.643,0,0,0,.422.306c.125.037.236.065.334.093a4.877,4.877,0,0,1,1.383.509,1.976,1.976,0,0,1,1.078,1.777v.014a1.986,1.986,0,0,1-.619,1.43,2.5,2.5,0,0,1-1.1.6v.707a.753.753,0,0,1-.75.75A.75.75,0,0,1,18440.289-6378.174Zm1.975-6.02,0,0S18442.266-6384.193,18442.264-6384.194Zm0,0h0l0,0Z" transform="translate(-18438.336 6387.547)" fill="#72501b"/>
      </g>
    </g>
  </g>
</svg>
