<svg id="ic_hocphi" xmlns="http://www.w3.org/2000/svg" xmlns:xlink="http://www.w3.org/1999/xlink" width="48" height="48" viewBox="0 0 48 48">
  <defs>
    <linearGradient id="linear-gradient" x2="1" y2="1" gradientUnits="objectBoundingBox">
      <stop offset="0" stop-color="#f3e0b8"/>
      <stop offset="0.134" stop-color="#f9c734"/>
      <stop offset="0.657" stop-color="#916b1f"/>
      <stop offset="1" stop-color="#72501b"/>
    </linearGradient>
  </defs>
  <rect id="Rectangle_6274" data-name="Rectangle 6274" width="48" height="48" rx="16" fill="rgba(255,255,255,0.08)"/>
  <g id="Group_19110" data-name="Group 19110" transform="translate(-201.141 -1946.25)">
    <rect id="Rectangle_6313" data-name="Rectangle 6313" width="29.12" height="20.8" transform="translate(210.06 1959.85)" fill="#fff7e5" stroke="rgba(0,0,0,0)" stroke-miterlimit="10" stroke-width="1"/>
    <g id="Group_19108" data-name="Group 19108" transform="translate(208.499 1957.25)">
      <path id="Union_49" data-name="Union 49" d="M29.689,26H29.65c-.031,0-.062,0-.094-.006h0l-.017,0h0l-.042-.005-.017,0h0a1.47,1.47,0,0,1-.565-.21,12.315,12.315,0,0,0-12.522,0,1.468,1.468,0,0,1-1.568,0A12.316,12.316,0,0,0,2.3,25.768,1.466,1.466,0,0,1,1.56,26H1.51A1.47,1.47,0,0,1,.6,25.686h0l-.014-.011-.007-.005-.006,0a1.521,1.521,0,0,1-.23-.233l-.01-.013-.005-.006L.317,25.4l0,0a1.582,1.582,0,0,1-.225-.424l0-.008,0-.006A1.587,1.587,0,0,1,0,24.414V3.531a1.454,1.454,0,0,1,0-.149.011.011,0,0,1,0,0V3.368a1.586,1.586,0,0,1,.227-.7l0-.007,0,0a1.529,1.529,0,0,1,.518-.51A15.217,15.217,0,0,1,15.6,1.73a15.217,15.217,0,0,1,14.843.418,1.535,1.535,0,0,1,.607.674l0,0,0,.009a1.587,1.587,0,0,1,.122.4v.01a1.617,1.617,0,0,1,.02.293V24.4a1.6,1.6,0,0,1-.091.571l0,.006,0,.008a1.567,1.567,0,0,1-.218.405l0,.006-.008.01a1.54,1.54,0,0,1-.306.3l-.006,0-.007,0A1.468,1.468,0,0,1,29.69,26Zm-12.58-4.017a15.185,15.185,0,0,1,11.071,0V4.439a12.316,12.316,0,0,0-11.071,0Zm-3.019,0V4.439a12.315,12.315,0,0,0-11.07,0V21.982a15.184,15.184,0,0,1,11.07,0Z" transform="translate(0)" fill="url(#linear-gradient)"/>
    </g>
    <g id="Group_19109" data-name="Group 19109" transform="translate(229.3 1969.73)">
      <g id="Path_15358" data-name="Path 15358" transform="translate(0 12.48) rotate(-90)">
        <path id="Path_16505" data-name="Path 16505" d="M11.391,6.157,7.836,2.607A7.312,7.312,0,0,0,4.08.6L1.211.024A1.163,1.163,0,0,0,1.01,0,1.02,1.02,0,0,0,.018.826a1.079,1.079,0,0,0,0,.389L.585,4.093A7.349,7.349,0,0,0,2.592,7.832l3.567,3.562a3.7,3.7,0,0,0,5.232-5.237Z" transform="translate(0)" fill="#f9c734"/>
      </g>
      <path id="Intersection_1" data-name="Intersection 1" d="M.825,3.1A1.021,1.021,0,0,1,0,2.11a1.178,1.178,0,0,1,.023-.2L.408,0,.52,0a2.6,2.6,0,0,1,2.6,2.6c0,.043,0,.086,0,.128l-1.9.375a1.1,1.1,0,0,1-.39,0Z" transform="translate(0 9.36)" fill="#fff"/>
    </g>
    <path id="Path_16533" data-name="Path 16533" d="M3924.3,1984.871a8.675,8.675,0,0,1,3.708-.608,8.273,8.273,0,0,1,3.657.608" transform="translate(-3710.808 -19.98)" fill="none" stroke="#72501b" stroke-linecap="round" stroke-width="1.5"/>
    <path id="Path_16534" data-name="Path 16534" d="M3924.3,1984.871a8.675,8.675,0,0,1,3.708-.608,8.273,8.273,0,0,1,3.657.608" transform="translate(-3710.808 -15.82)" fill="none" stroke="#72501b" stroke-linecap="round" stroke-width="1.5"/>
    <path id="Path_16535" data-name="Path 16535" d="M3924.3,1984.871a8.675,8.675,0,0,1,3.708-.608,8.273,8.273,0,0,1,3.657.608" transform="translate(-3710.808 -11.66)" fill="none" stroke="#72501b" stroke-linecap="round" stroke-width="1.5"/>
  </g>
</svg>
