<svg id="icon_48px_-_Tất_toán" data-name="icon 48px - Tất toán" xmlns="http://www.w3.org/2000/svg" xmlns:xlink="http://www.w3.org/1999/xlink" width="64" height="64" viewBox="0 0 64 64">
  <defs>
    <linearGradient id="linear-gradient" x2="1" y2="1" gradientUnits="objectBoundingBox">
      <stop offset="0" stop-color="#f3e0b8"/>
      <stop offset="0.134" stop-color="#f9c734"/>
      <stop offset="0.657" stop-color="#916b1f"/>
      <stop offset="1" stop-color="#72501b"/>
    </linearGradient>
  </defs>
  <rect id="Rectangle_11088" data-name="Rectangle 11088" width="64" height="64" rx="32" fill="rgba(255,255,255,0.12)"/>
  <g id="Group_20598" data-name="Group 20598" transform="translate(12.346 12.667)">
    <path id="Path_68458" data-name="Path 68458" d="M18.065,13.563V11.339H0L5.161,3.6h12.9V1.374a1.334,1.334,0,0,1,2.212-1l6.965,6.094a1.334,1.334,0,0,1,0,2.008l-6.965,6.094a1.309,1.309,0,0,1-.871.333A1.334,1.334,0,0,1,18.065,13.563Z" transform="translate(10.323 1.563)" fill="#f9c734"/>
    <path id="Path_68459" data-name="Path 68459" d="M0,25.807C0,18.926,4.142,11.59,10.069,8.27L7.742,1.29A1.29,1.29,0,0,1,9.032,0H24.516a1.291,1.291,0,0,1,1.291,1.29L23.48,8.27c5.926,3.32,10.068,10.656,10.068,17.537C33.549,35.071,26.038,40,16.774,40S0,35.071,0,25.807Z" stroke="rgba(0,0,0,0)" stroke-width="1" fill="url(#linear-gradient)"/>
    <path id="Path_20774" data-name="Path 20774" d="M12.9,0c7.126,0,12.9,8.358,12.9,15.484S20.03,25.807,12.9,25.807,0,22.61,0,15.484,5.777,0,12.9,0Z" transform="translate(3.871 10.322)" fill="#fff7e5" stroke="rgba(0,0,0,0)" stroke-width="1"/>
    <rect id="Rectangle_6427" data-name="Rectangle 6427" width="18.065" height="3.871" rx="1" transform="translate(7.742 5.161)" fill="#fff7e5"/>
    <path id="Path_68457" data-name="Path 68457" d="M10917.149,22924.057v-.877a5.791,5.791,0,0,1-2.516-1.262,1.332,1.332,0,0,1,1.873-1.895,3.793,3.793,0,0,0,1.955.666h.022l.047,0a1.48,1.48,0,0,0,1-.346.464.464,0,0,0,.169-.346c-.008-.277-.045-.367-.376-.553a5.032,5.032,0,0,0-1.473-.521c-.152-.039-.321-.082-.513-.137a3.439,3.439,0,0,1-2.109-1.621,3.5,3.5,0,0,1-.308-2.613,3.372,3.372,0,0,1,2.224-2.348v-.98a1.331,1.331,0,1,1,2.662,0v.854a4.951,4.951,0,0,1,2.31,1.377l-1.976,1.785a2.087,2.087,0,0,0-1.469-.625c-1.013.059-1.113.406-1.188.682a.742.742,0,0,0,.56.92c.184.055.354.094.5.137a7.565,7.565,0,0,1,2.117.777,3.161,3.161,0,0,1,1.711,2.83v.021a3.159,3.159,0,0,1-.99,2.285,3.863,3.863,0,0,1-1.572.9v.883a1.331,1.331,0,1,1-2.662,0Zm2.992-8.812,0,0a.091.091,0,0,1,.012.01Z" transform="translate(-10901.58 -22894.414)" fill="#72501b"/>
  </g>
</svg>
