<svg id="ic_loan_04" xmlns="http://www.w3.org/2000/svg" xmlns:xlink="http://www.w3.org/1999/xlink" width="64" height="64" viewBox="0 0 64 64">
  <defs>
    <linearGradient id="linear-gradient" x2="1" y2="1" gradientUnits="objectBoundingBox">
      <stop offset="0" stop-color="#f3e0b8"/>
      <stop offset="0.134" stop-color="#f9c734"/>
      <stop offset="0.657" stop-color="#916b1f"/>
      <stop offset="1" stop-color="#72501b"/>
    </linearGradient>
  </defs>
  <rect id="Rectangle_11088" data-name="Rectangle 11088" width="64" height="64" rx="32" fill="rgba(255,255,255,0.12)"/>
  <g id="Group_20599" data-name="Group 20599" transform="translate(14.667 12.057)">
    <rect id="Rectangle_6429" data-name="Rectangle 6429" width="32.587" height="23.276" transform="translate(1.746 11.99)" fill="#fff7e5"/>
    <path id="Rectangle_6429_-_Outline" data-name="Rectangle 6429 - Outline" d="M-.5-.5H33.42V24.109H-.5ZM32.087.833H.833V22.776H32.087Z" transform="translate(1.58 11.823)" fill="rgba(0,0,0,0)"/>
    <path id="Path_68454" data-name="Path 68454" d="M10856.225,22944.072v-12.254a6.191,6.191,0,0,1-4.644-1.078c-2.1-1.582-3.078-3.809-2.2-4.967s3.285-.828,5.381.752a5.723,5.723,0,0,1,1.466,1.652v-1.561a1.164,1.164,0,0,1,2.327,0v4.256a6.038,6.038,0,0,1,2.041-2.006c2.188-1.26,4.5-1.344,5.166-.186s-.561,3.117-2.748,4.375a6.06,6.06,0,0,1-4.459.561v10.455a1.164,1.164,0,1,1-2.327,0Z" transform="translate(-10839.93 -22925.08)" fill="#f9c734"/>
    <path id="Path_68456" data-name="Path 68456" d="M33.223,29.095h-.044c-.035,0-.07,0-.105-.006h0l-.019,0h0L33,29.08l-.019,0h0a1.645,1.645,0,0,1-.632-.235,13.781,13.781,0,0,0-14.013,0,1.643,1.643,0,0,1-1.755,0,13.782,13.782,0,0,0-14-.006,1.641,1.641,0,0,1-.831.259H1.689a1.645,1.645,0,0,1-1.016-.352l0,0-.016-.013-.007-.006-.007-.005a1.7,1.7,0,0,1-.257-.261l-.011-.014-.006-.007-.012-.016,0,0A1.77,1.77,0,0,1,.1,27.941l0-.009,0-.007A1.776,1.776,0,0,1,0,27.32V3.951a1.627,1.627,0,0,1,0-.167.013.013,0,0,1,0,0V3.769A1.774,1.774,0,0,1,.26,2.988l0-.008,0,0A1.711,1.711,0,0,1,.847,2.4a17.028,17.028,0,0,1,16.61-.468A17.028,17.028,0,0,1,34.066,2.4a1.718,1.718,0,0,1,.679.755l0,0,0,.01a1.775,1.775,0,0,1,.137.451v.011a1.809,1.809,0,0,1,.022.328V27.307a1.79,1.79,0,0,1-.1.639l0,.007,0,.009a1.754,1.754,0,0,1-.244.453l0,.006-.009.011a1.723,1.723,0,0,1-.342.337l-.006,0-.008.006a1.643,1.643,0,0,1-.969.316ZM19.146,24.6a16.993,16.993,0,0,1,12.389,0V4.968a13.782,13.782,0,0,0-12.389,0Zm-3.378,0V4.968a13.781,13.781,0,0,0-12.388,0V24.6a16.992,16.992,0,0,1,12.388,0Z" transform="translate(0 9.081)" fill="url(#linear-gradient)"/>
    <g id="Group_20293" data-name="Group 20293" transform="translate(9.31 23.046)">
      <path id="Path_16389" data-name="Path 16389" d="M8.147,0A8.147,8.147,0,1,1,0,8.147,8.147,8.147,0,0,1,8.147,0Z" transform="translate(0 0)" fill="#f9c734"/>
      <path id="Path_68455" data-name="Path 68455" d="M10844.835,22914.412v-.713a4.467,4.467,0,0,1-1.978-.982,1,1,0,0,1,1.4-1.426,2.969,2.969,0,0,0,1.558.535h.016c.017,0,.035,0,.052,0a1.185,1.185,0,0,0,.8-.279.447.447,0,0,0,.154-.3c-.008-.232-.054-.322-.322-.477a3.99,3.99,0,0,0-1.158-.406c-.123-.031-.253-.068-.4-.107a2.611,2.611,0,0,1-1.625-1.25,2.665,2.665,0,0,1-.238-2.008,2.589,2.589,0,0,1,1.74-1.816v-.8a1,1,0,0,1,2,0v.7a3.828,3.828,0,0,1,1.81,1.07l-1.48,1.342h0a1.745,1.745,0,0,0-1.189-.506c-.812.053-.9.336-.965.568a.673.673,0,0,0,.061.475.641.641,0,0,0,.414.3c.145.039.269.068.391.1a5.948,5.948,0,0,1,1.633.605,2.4,2.4,0,0,1,1.319,2.178.024.024,0,0,1,.008.016,2.429,2.429,0,0,1-.767,1.756,3.051,3.051,0,0,1-1.234.705v.721a1,1,0,1,1-2,0Zm2.332-6.916a.029.029,0,0,0,.007.008Z" transform="translate(-10837.623 -22901.334)" fill="#72501b"/>
    </g>
  </g>
</svg>
