<svg id="icon_48px_-_Tính_lịch_trả_nợ" data-name="icon 48px - Tính lịch trả nợ" xmlns="http://www.w3.org/2000/svg" xmlns:xlink="http://www.w3.org/1999/xlink" width="64" height="64" viewBox="0 0 64 64">
  <defs>
    <linearGradient id="linear-gradient" x1="-0.014" x2="1" y2="1" gradientUnits="objectBoundingBox">
      <stop offset="0" stop-color="#f3e0b8"/>
      <stop offset="0.134" stop-color="#f9c734"/>
      <stop offset="0.657" stop-color="#916b1f"/>
      <stop offset="1" stop-color="#72501b"/>
    </linearGradient>
  </defs>
  <rect id="Rectangle_11088" data-name="Rectangle 11088" width="64" height="64" rx="32" fill="rgba(255,255,255,0.12)"/>
  <g id="Group_20600" data-name="Group 20600" transform="translate(12.484 10.664)">
    <path id="Path_68463" data-name="Path 68463" d="M10811.568,22938.76v-5.172a2.587,2.587,0,1,1,5.175,0v5.172a2.587,2.587,0,1,1-5.175,0Zm-12.934,0v-5.172a2.587,2.587,0,1,1,5.174,0v5.172a2.587,2.587,0,1,1-5.174,0Z" transform="translate(-10789.587 -22930.998)" fill="#fff7e5"/>
    <path id="Vector" d="M12.671,36.2H23.531c9.051,0,12.671-3.62,12.671-12.671V12.671C36.2,3.62,32.582,0,23.531,0H12.671C3.62,0,0,3.62,0,12.671V23.531C0,32.582,3.62,36.2,12.671,36.2Z" transform="translate(0 3.881)" stroke="rgba(0,0,0,0)" stroke-width="1" fill="url(#linear-gradient)"/>
    <path id="Subtraction_21" data-name="Subtraction 21" d="M18.8,28.924H10.124c-3.7,0-6.17-.747-7.774-2.35S0,22.5,0,18.8V10.582H28.924V18.8c0,3.7-.747,6.17-2.35,7.773S22.5,28.924,18.8,28.924ZM28.827,8H.1C.376,5.14,1.29,3.137,2.89,1.869S6.844,0,10.124,0H18.8c3.28,0,5.646.611,7.234,1.869S28.548,5.141,28.827,8Z" transform="translate(3.639 7.521)" fill="#fff7e5"/>
    <g id="Group_22707" data-name="Group 22707" transform="translate(6.462 20.688)">
      <path id="Path_68461" data-name="Path 68461" d="M10806.435,22934.881a1.337,1.337,0,0,1-1.336-1.336v-1.213a1.337,1.337,0,0,1,1.336-1.334h1.213a1.336,1.336,0,0,1,1.334,1.334v1.213a1.335,1.335,0,0,1-1.334,1.336Zm-6.462,0a1.336,1.336,0,0,1-1.336-1.336v-1.213a1.337,1.337,0,0,1,1.336-1.334h1.212a1.335,1.335,0,0,1,1.328,1.334v1.213a1.334,1.334,0,0,1-1.328,1.336Z" transform="translate(-10798.633 -22930.998)" fill="#f7b500"/>
      <path id="Path_68462" data-name="Path 68462" d="M10812.9,22941.344a1.337,1.337,0,0,1-1.336-1.336v-1.215a1.331,1.331,0,0,1,1.336-1.328h1.212a1.329,1.329,0,0,1,1.328,1.328v1.215a1.336,1.336,0,0,1-1.328,1.336Zm-6.47,0a1.331,1.331,0,0,1-1.328-1.336v-1.215a1.324,1.324,0,0,1,1.328-1.328h1.212a1.331,1.331,0,0,1,1.336,1.328v1.215a1.337,1.337,0,0,1-1.336,1.336Zm-6.464,0a1.337,1.337,0,0,1-1.336-1.336v-1.215a1.331,1.331,0,0,1,1.336-1.328h1.212a1.331,1.331,0,0,1,1.336,1.328v1.215a1.337,1.337,0,0,1-1.336,1.336Zm19.4-6.465a1.336,1.336,0,0,1-1.336-1.336v-1.213a1.331,1.331,0,0,1,1.336-1.328h1.212a1.331,1.331,0,0,1,1.336,1.328v1.213a1.336,1.336,0,0,1-1.336,1.336Zm-6.464,0a1.336,1.336,0,0,1-1.336-1.336v-1.213a1.331,1.331,0,0,1,1.336-1.328h1.212a1.329,1.329,0,0,1,1.328,1.328v1.213a1.334,1.334,0,0,1-1.328,1.336Z" transform="translate(-10798.634 -22930.996)" fill="#72501b"/>
    </g>
    <g id="Group_22706" data-name="Group 22706" transform="translate(20.688 24.568)">
      <path id="Path_20780" data-name="Path 20780" d="M9.051,0A9.051,9.051,0,1,1,0,9.051,9.051,9.051,0,0,1,9.051,0Z" fill="#f9c734"/>
      <path id="Path_68460" data-name="Path 68460" d="M10770.7,22915.174v-.881a4.979,4.979,0,0,1-2.231-1.084,1,1,0,0,1,1.411-1.418,3.451,3.451,0,0,0,1.793.621h.074a1.414,1.414,0,0,0,.977-.346.562.562,0,0,0,.2-.414c-.008-.312-.091-.437-.406-.619a4.671,4.671,0,0,0-1.319-.461c-.13-.039-.275-.076-.443-.123a2.812,2.812,0,0,1-1.733-1.334,2.847,2.847,0,0,1-.261-2.148,2.8,2.8,0,0,1,1.94-1.963v-.971a1,1,0,0,1,2,0v.863a4.169,4.169,0,0,1,2.048,1.176l-1.488,1.34a2.009,2.009,0,0,0-1.4-.6c-.981.063-1.1.438-1.173.713a.83.83,0,0,0,.077.615.778.778,0,0,0,.521.375c.161.047.308.082.438.121a6.32,6.32,0,0,1,1.794.66,2.587,2.587,0,0,1,1.41,2.322v.023a2.582,2.582,0,0,1-.812,1.865,3.212,3.212,0,0,1-1.411.781v.883a1,1,0,1,1-2,0Zm2.56-7.762h0l.008.008Z" transform="translate(-10762.574 -22900.643)" fill="#72501b"/>
    </g>
  </g>
</svg>
