<svg xmlns="http://www.w3.org/2000/svg" xmlns:xlink="http://www.w3.org/1999/xlink" width="64" height="64" viewBox="0 0 64 64"><defs><linearGradient id="a" x2="1" y2="1" gradientUnits="objectBoundingBox"><stop offset="0" stop-color="#f3e0b8"/><stop offset="0.134" stop-color="#f9c734"/><stop offset="0.657" stop-color="#916b1f"/><stop offset="1" stop-color="#72501b"/></linearGradient></defs><rect width="64" height="64" rx="20" fill="none"/><g transform="translate(-250.389 -504)"><g transform="translate(262 512)"><path d="M24.529,8.279,23.28,0H4.951A4.968,4.968,0,0,0,0,5.008V39.667a4.929,4.929,0,0,0,4.951,4.963H22.338L34.863,27.644V12.14Zm0,0" stroke="rgba(0,0,0,0)" stroke-miterlimit="10" stroke-width="1" fill="url(#a)"/><path d="M24.9,5.087,20.285-.5H4.041c-2.2,0-3.969.8-3.969,3L-.072,33.539A3.932,3.932,0,0,0,3.878,37.5H17.747L28.73,22.38V8.058Z" transform="translate(3.453 4.006)" fill="#fff7e5"/><g transform="translate(6.904 23.211)"><path d="M100.542,318.676h-14.8a1.136,1.136,0,1,0,0,2.271h14.8a1.136,1.136,0,1,0,0-2.271Zm0,0" transform="translate(-84.609 -312.998)" fill="#72501b"/><path d="M85.745,251.369h11.5a1.136,1.136,0,1,0,0-2.271h-11.5a1.136,1.136,0,1,0,0,2.271Zm0,0" transform="translate(-84.609 -249.098)" fill="#72501b"/><path d="M96.806,389.648H85.745a1.136,1.136,0,1,0,0,2.271H96.806a1.136,1.136,0,1,0,0-2.271Zm0,0" transform="translate(-84.609 -378.179)" fill="#72501b"/></g><path d="M285.277.141l11.549,12.128h-7.688a3.858,3.858,0,0,1-3.861-3.861Z" transform="translate(-261.997 -0.129)" stroke="rgba(0,0,0,0)" stroke-miterlimit="10" stroke-width="1" fill="url(#a)"/><g transform="translate(6.904 7.67)"><g transform="translate(0 0)"><path d="M-76.546-29.971c-.008,0-.747-.005-.747-.005V-17.3c.009,0,.747,0,.747,0Z" transform="translate(83.295 30.007)" fill="#72501b"/><g transform="translate(0 0.078)"><path d="M-81.139-23.785a2.268,2.268,0,0,1-.033-.277,1.151,1.151,0,0,1,.952-1.127c-1.649.06-1.712,1.187-1.7,1.4A6.375,6.375,0,0,0-76-18.586l.349.014h.349l.027,0v-1.312a.691.691,0,0,1-.752.533A5.609,5.609,0,0,1-81.139-23.785Z" transform="translate(82.022 31.246)" fill="#72501b"/><g transform="translate(0 0)"><path d="M-76.416-29.939a6.376,6.376,0,0,0-5.579,6.087h0v0h0c0,.077-.005.153-.005.231a6.475,6.475,0,0,0,.107,1.162s-.05-1.392,1.824-1.392h3.653Z" transform="translate(82 29.939)" fill="#72501b"/></g></g><g transform="translate(6.002)"><path d="M-71.426-24.787a2.222,2.222,0,0,1,.033.277,1.151,1.151,0,0,1-.952,1.127c1.649-.06,1.712-1.187,1.7-1.4a6.375,6.375,0,0,0-5.921-5.2l-.35-.014h-.349l-.027,0v1.312a.693.693,0,0,1,.753-.534A5.611,5.611,0,0,1-71.426-24.787Z" transform="translate(77.293 30)" fill="#72501b"/><g transform="translate(1.165 5.19)"><path d="M-76.379-18.446A6.376,6.376,0,0,0-70.8-24.534h0v0h0c0-.076.005-.153.005-.231A6.477,6.477,0,0,0-70.9-25.93s.05,1.392-1.824,1.392h-3.653Z" transform="translate(76.379 25.93)" fill="#72501b"/></g></g></g></g></g><g transform="translate(280.464 537.676)"><path d="M237.321,307.21a11.126,11.126,0,1,0-1.558.114A13.2,13.2,0,0,0,237.321,307.21Zm0,0" transform="translate(-224.605 -285)" fill="#f9c734"/><path d="M312.957,368.663a.869.869,0,0,1-1.278,0l-5.128-5.5a.875.875,0,0,1,.639-1.47.916.916,0,0,1,.656.28l3.623,3.877v-9.556a.875.875,0,1,1,1.75,0v9.556l3.6-3.877a.873.873,0,0,1,1.278,1.19Zm0,0" transform="translate(-301.178 -351.048)" fill="#72501b"/></g></g></svg>