<svg width="24" height="24" viewBox="0 0 24 24" fill="none" xmlns="http://www.w3.org/2000/svg">
<path d="M12 21C10.22 21 8.47991 20.4722 6.99987 19.4832C5.51983 18.4943 4.36628 17.0887 3.68509 15.4442C3.0039 13.7996 2.82567 11.99 3.17294 10.2442C3.5202 8.49836 4.37737 6.89472 5.63604 5.63604C6.89472 4.37737 8.49836 3.5202 10.2442 3.17294C11.99 2.82567 13.7996 3.0039 15.4442 3.68509C17.0887 4.36628 18.4943 5.51983 19.4832 6.99987C20.4722 8.47991 21 10.22 21 12C20.9974 14.3861 20.0483 16.6738 18.361 18.361C16.6738 20.0483 14.3861 20.9974 12 21ZM10.068 16.487C9.9451 16.4879 9.82529 16.5256 9.72391 16.5951C9.62253 16.6645 9.54422 16.7627 9.499 16.877C9.47251 16.9449 9.45862 17.0171 9.458 17.09C9.45722 17.2131 9.49378 17.3336 9.56287 17.4356C9.63196 17.5375 9.73033 17.6161 9.845 17.661C10.3987 17.8785 10.9825 18.01 11.576 18.051C11.6005 18.0575 11.6257 18.0605 11.651 18.06C11.8034 18.0575 11.9494 17.9981 12.0604 17.8936C12.1713 17.7891 12.2393 17.647 12.251 17.495V17.459C12.2534 17.3034 12.1958 17.1529 12.0903 17.0386C11.9847 16.9243 11.8393 16.855 11.684 16.845H11.681C11.2029 16.8089 10.7328 16.7021 10.286 16.528C10.2166 16.5007 10.1426 16.4868 10.068 16.487ZM12.03 7.209C13.2016 7.20902 14.3332 7.63561 15.2132 8.40907C16.0933 9.18253 16.6616 10.2499 16.812 11.4119C16.9625 12.5738 16.6847 13.7508 16.0307 14.7228C15.3766 15.6949 14.391 16.3956 13.258 16.694C13.1124 16.73 12.9851 16.8186 12.9008 16.9426C12.8164 17.0666 12.7807 17.2175 12.8007 17.3662C12.8206 17.5149 12.8947 17.651 13.0089 17.7484C13.123 17.8458 13.269 17.8976 13.419 17.894C13.465 17.8939 13.5109 17.8892 13.556 17.88H13.574C14.9972 17.5103 16.2365 16.6339 17.0593 15.4152C17.8821 14.1966 18.2319 12.7196 18.043 11.2614C17.8541 9.80317 17.1395 8.46403 16.0333 7.49531C14.9271 6.52659 13.5054 5.99489 12.035 6C10.235 6.00694 8.50766 6.71043 7.215 7.963V7.149C7.20864 6.99215 7.14185 6.84384 7.02862 6.73511C6.91539 6.62638 6.76449 6.56566 6.6075 6.56566C6.45052 6.56566 6.29962 6.62638 6.18639 6.73511C6.07316 6.84384 6.00637 6.99215 6 7.149V9.676C6.00925 9.7596 6.03509 9.84052 6.076 9.914V9.923C6.11882 10.0001 6.17868 10.0665 6.251 10.117C6.30712 10.1561 6.36882 10.1864 6.434 10.207H6.443C6.49722 10.223 6.55347 10.2311 6.61 10.231H9.018C9.17979 10.2301 9.33457 10.1649 9.44831 10.0499C9.56205 9.93481 9.62543 9.77929 9.6245 9.6175C9.62358 9.45572 9.55842 9.30093 9.44336 9.18719C9.32831 9.07345 9.17279 9.01008 9.011 9.011H7.875C8.41239 8.44871 9.05683 7.9996 9.77041 7.69013C10.484 7.38066 11.2523 7.21707 12.03 7.209ZM7.55 14.5C7.43956 14.4992 7.33103 14.5288 7.23637 14.5857C7.1417 14.6426 7.06458 14.7246 7.0135 14.8225C6.96242 14.9204 6.93936 15.0305 6.94686 15.1407C6.95436 15.2509 6.99213 15.3569 7.056 15.447C7.39646 15.9445 7.80858 16.389 8.279 16.766C8.40721 16.8635 8.56818 16.9075 8.72815 16.8888C8.88811 16.8702 9.03464 16.7903 9.137 16.666C9.22222 16.5558 9.268 16.4203 9.267 16.281C9.26665 16.1907 9.24608 16.1016 9.2068 16.0203C9.16751 15.9389 9.11052 15.8674 9.04 15.811C8.65959 15.5126 8.32737 15.1575 8.055 14.758C7.99863 14.6767 7.92302 14.6106 7.83491 14.5656C7.7468 14.5206 7.64893 14.498 7.55 14.5ZM6.608 11.429C6.4471 11.429 6.29275 11.4928 6.17879 11.6064C6.06482 11.72 6.00053 11.8741 6 12.035C5.99912 12.6391 6.08947 13.2399 6.268 13.817C6.30553 13.9408 6.38208 14.0492 6.48625 14.126C6.59041 14.2028 6.71661 14.2438 6.846 14.243C6.90506 14.2435 6.96391 14.2361 7.021 14.221L7.032 14.216C7.15409 14.1778 7.26079 14.1017 7.33652 13.9986C7.41226 13.8955 7.45307 13.7709 7.453 13.643C7.45435 13.5811 7.44625 13.5194 7.429 13.46C7.2872 12.9983 7.2154 12.518 7.216 12.035C7.21587 11.9553 7.20004 11.8764 7.16942 11.8028C7.13879 11.7292 7.09397 11.6624 7.03751 11.6061C6.98105 11.5498 6.91406 11.5052 6.84037 11.4748C6.76667 11.4444 6.68772 11.4289 6.608 11.429Z" fill="#C2A87C"/>
</svg>
