<svg xmlns="http://www.w3.org/2000/svg" xmlns:xlink="http://www.w3.org/1999/xlink" width="48" height="48" viewBox="0 0 48 48"><defs><linearGradient id="a" x2="1" y2="1" gradientUnits="objectBoundingBox"><stop offset="0" stop-color="#f3e0b8"/><stop offset="0.134" stop-color="#f9c734"/><stop offset="0.657" stop-color="#916b1f"/><stop offset="1" stop-color="#72501b"/></linearGradient></defs><rect width="48" height="48" rx="24" fill="rgba(255,255,255,0.12)"/><g transform="translate(-1.258)"><path d="M13.549,10.182V8.514H0L3.871,2.708h9.678V1.04A1,1,0,0,1,15.207.288l5.224,4.57a1,1,0,0,1,0,1.506l-5.224,4.57a.982.982,0,0,1-.653.25A1,1,0,0,1,13.549,10.182Z" transform="translate(18.742 10.163)" fill="#f9c734"/><path d="M0,19.355A15.76,15.76,0,0,1,7.552,6.2L5.806.967A.968.968,0,0,1,6.774,0H18.387a.968.968,0,0,1,.968.967L17.61,6.2a15.761,15.761,0,0,1,7.551,13.153C25.162,26.3,19.529,30,12.581,30S0,26.3,0,19.355Z" transform="translate(11 9)" stroke="rgba(0,0,0,0)" stroke-width="1" fill="url(#a)"/><path d="M9.678,0c5.345,0,9.678,6.268,9.678,11.613s-4.333,7.742-9.678,7.742S0,16.958,0,11.613,4.333,0,9.678,0Z" transform="translate(13.903 16.742)" fill="#fff7e5" stroke="rgba(0,0,0,0)" stroke-width="1"/><rect width="13.549" height="2.903" rx="1" transform="translate(16.807 12.871)" fill="#fff7e5"/><path d="M10916.423,22920.514v-.658a4.346,4.346,0,0,1-1.887-.945,1,1,0,0,1,1.4-1.422,2.832,2.832,0,0,0,1.467.5h.017l.035,0a1.113,1.113,0,0,0,.753-.26.348.348,0,0,0,.127-.26c-.006-.207-.034-.275-.282-.414a3.737,3.737,0,0,0-1.1-.391c-.114-.029-.241-.062-.385-.1a2.58,2.58,0,0,1-1.582-1.215,2.626,2.626,0,0,1-.23-1.961,2.529,2.529,0,0,1,1.668-1.76v-.736a1,1,0,1,1,2,0v.641a3.7,3.7,0,0,1,1.732,1.033l-1.481,1.338a1.576,1.576,0,0,0-1.1-.469c-.76.045-.835.3-.892.512a.557.557,0,0,0,.42.689c.138.041.265.07.373.1a5.639,5.639,0,0,1,1.588.582,2.371,2.371,0,0,1,1.283,2.123v.016a2.372,2.372,0,0,1-.742,1.715,2.911,2.911,0,0,1-1.18.678v.662a1,1,0,1,1-2,0Zm2.244-6.609,0,0,.009.008Z" transform="translate(-10893.746 -22889.281)" fill="#72501b"/></g></svg>