<svg id="ic_trash" xmlns="http://www.w3.org/2000/svg" width="24" height="24" viewBox="0 0 24 24">
  <rect id="Rectangle_6286" data-name="Rectangle 6286" width="24" height="24" fill="none"/>
  <path id="Path_16503" data-name="Path 16503" d="M25.947,6.867v.747a.373.373,0,0,1-.373.373h-11.2A.373.373,0,0,1,14,7.613V6.867a.373.373,0,0,1,.373-.373h3.36V5.747A.747.747,0,0,1,18.48,5h2.987a.747.747,0,0,1,.747.747v.747h3.36A.373.373,0,0,1,25.947,6.867ZM15.4,17.611A1.493,1.493,0,0,0,16.89,19h6.182a1.493,1.493,0,0,0,1.493-1.389L25.2,8.547H14.747Z" transform="translate(-8)" fill="rgba(255,255,255,0.87)"/>
</svg>
