<svg xmlns="http://www.w3.org/2000/svg" xmlns:xlink="http://www.w3.org/1999/xlink" width="64" height="64" viewBox="0 0 64 64"><defs><linearGradient id="a" x2="1" y2="1" gradientUnits="objectBoundingBox"><stop offset="0" stop-color="#f3e0b8"/><stop offset="0.134" stop-color="#f9c734"/><stop offset="0.657" stop-color="#916b1f"/><stop offset="1" stop-color="#72501b"/></linearGradient></defs><rect width="64" height="64" rx="20" fill="none"/><g transform="translate(-517.6 -1776)"><path d="M16.926,41.385a4.579,4.579,0,0,1-3.874-2.123L11.431,37.1a1.518,1.518,0,0,0-.255-.292,1.254,1.254,0,0,0-.83-.31,1.278,1.278,0,0,0-.966.443c-1.528,1.64-2.992,2.44-4.41,2.44C3.051,39.381,1,37.845,1,33.53v-22.4C1,3.46,3.333,1,10.6,1h12.68c2.774,0,5.594.252,7.427,2.091,1.9,1.9,2.153,4.987,2.145,8.041V33.515a7.991,7.991,0,0,1-.842,3.931,3.556,3.556,0,0,1-3.121,1.918c-1.415,0-2.881-.8-4.355-2.373a1.568,1.568,0,0,0-.3-.283,1.262,1.262,0,0,0-.714-.221,1.275,1.275,0,0,0-1.053.555l-1.736,2.323a4.416,4.416,0,0,1-1.33,1.3,4.573,4.573,0,0,1-2.467.723" transform="translate(528.677 1784.678)" fill="#fff7e5"/><path d="M23.951,3.354c6.339,0,7.912,1.694,7.9,8.452V34.192c0,2.718-.9,4.172-2.284,4.172a4.761,4.761,0,0,1-3.133-1.841,2.946,2.946,0,0,0-4.679.252l-1.694,2.264a2.914,2.914,0,0,1-4.914,0l-1.694-2.264a3,3,0,0,0-.5-.558,2.95,2.95,0,0,0-4.161.307l-.017.017a4.732,4.732,0,0,1-3.126,1.841c-1.382,0-2.291-1.454-2.291-4.172v-22.4c0-6.758,1.58-8.452,7.919-8.452Zm0-3.354H11.273C3.055,0,0,3.2,0,11.806v22.4c0,5.556,3.04,7.526,5.645,7.526a7.57,7.57,0,0,0,5.34-2.656L12.4,40.967a6.27,6.27,0,0,0,8.576,1.788,6.321,6.321,0,0,0,1.83-1.788l1.422-1.9a7.585,7.585,0,0,0,5.338,2.65c2.6,0,5.638-1.97,5.638-7.526V11.806c.008-3.406-.305-6.887-2.633-9.222C30.295.307,26.937,0,23.951,0" transform="translate(528 1784)" stroke="rgba(0,0,0,0)" stroke-miterlimit="10" stroke-width="1" fill="url(#a)"/><path d="M9.58,14.3a3.034,3.034,0,1,1,3.039,3.039A3.041,3.041,0,0,1,9.58,14.3ZM.674,15.914a2.278,2.278,0,0,1,0-3.234L11.934,1.414a2.288,2.288,0,0,1,3.24,3.23L3.9,15.914a2.278,2.278,0,0,1-3.23,0ZM.189,3.027A3.034,3.034,0,1,1,3.217,6.07,3.029,3.029,0,0,1,.189,3.027Z" transform="translate(537.681 1793.684)" fill="#72501b" stroke="rgba(0,0,0,0)" stroke-miterlimit="10" stroke-width="1"/><g transform="translate(548.8 1809.6)"><path d="M11.2,0A11.2,11.2,0,1,1,0,11.2,11.2,11.2,0,0,1,11.2,0Z" fill="#f9c734"/><path d="M10.452,12.148,7.729,9.426A5.083,5.083,0,1,1,10.171,5.09,5.031,5.031,0,0,1,9.427,7.73l2.721,2.723a1.2,1.2,0,1,1-1.7,1.7ZM2.4,5.09A2.685,2.685,0,1,0,5.08,2.4,2.68,2.68,0,0,0,2.4,5.09Z" transform="translate(4.952 4.947)" fill="#72501b"/></g></g></svg>