<svg xmlns="http://www.w3.org/2000/svg" xmlns:xlink="http://www.w3.org/1999/xlink" width="24" height="24" viewBox="0 0 24 24">
  <defs>
    <linearGradient id="linear-gradient" x1="0.338" x2="0.728" y2="1.08" gradientUnits="objectBoundingBox">
      <stop offset="0" stop-color="#f3e0b8"/>
      <stop offset="0.134" stop-color="#f9c734"/>
      <stop offset="0.657" stop-color="#916b1f"/>
      <stop offset="1" stop-color="#72501b"/>
    </linearGradient>
    <linearGradient id="linear-gradient-2" x1="0.648" y1="0" x2="0.614" y2="1.122" xlink:href="#linear-gradient"/>
  </defs>
  <g id="Group_22680" data-name="Group 22680" transform="translate(-1575 -512)">
    <rect id="Rectangle_11079" data-name="Rectangle 11079" width="24" height="24" transform="translate(1575 512)" fill="none"/>
    <g id="Group_22681" data-name="Group 22681" transform="translate(1576.999 514)">
      <g id="Page-1" transform="translate(0.001 0.001)">
        <g id="_026---Star-Confetti" data-name="026---Star-Confetti" transform="translate(0 0)">
          <path id="Shape" d="M4.737,26.567l1.872,2.365a.414.414,0,0,0,.353.156l2.98-.212a.414.414,0,0,1,.376.637L8.681,32.051a.414.414,0,0,0-.036.38l1.14,2.816a.413.413,0,0,1-.493.553l-2.875-.805a.411.411,0,0,0-.379.084L3.773,37.02a.413.413,0,0,1-.68-.294L2.94,33.692a.414.414,0,0,0-.192-.329L.193,31.75a.414.414,0,0,1,.073-.736l2.792-1.064a.413.413,0,0,0,.254-.29l.7-2.934a.412.412,0,0,1,.724-.16Z" transform="translate(-0.001 -17.458)" fill="url(#linear-gradient)"/>
          <path id="Shape-2" data-name="Shape" d="M37.293,18.32l.752,2.47a.345.345,0,0,0,.228.232l2.386.724a.359.359,0,0,1,.1.626l-2.034,1.555a.364.364,0,0,0-.141.3l.047,2.614a.346.346,0,0,1-.549.3l-2-1.514a.335.335,0,0,0-.32-.046l-2.345.885a.346.346,0,0,1-.441-.441l.787-2.493a.364.364,0,0,0-.052-.323l-1.509-2.068a.359.359,0,0,1,.276-.571l2.494-.018a.345.345,0,0,0,.284-.157l1.424-2.155a.339.339,0,0,1,.61.088Z" transform="translate(-21.242 -11.95)" fill="url(#linear-gradient-2)"/>
          <path id="Shape-3" data-name="Shape" d="M12.469.117l1.5,1.819a.315.315,0,0,0,.274.115l2.27-.227a.328.328,0,0,1,.307.492L15.653,4.344a.333.333,0,0,0-.015.3L16.6,6.831a.317.317,0,0,1-.359.444L14.016,6.7a.305.305,0,0,0-.287.074L12.06,8.346a.317.317,0,0,1-.528-.217l-.212-2.38a.333.333,0,0,0-.157-.255l-2-1.214A.328.328,0,0,1,9.2,3.7l2.1-.893a.315.315,0,0,0,.182-.232L11.922.258a.31.31,0,0,1,.548-.141Z" transform="translate(-5.952 -0.001)" fill="#f9c734"/>
          <path id="Path_68407" data-name="Path 68407" d="M6297.019,6636.373v-.339a.339.339,0,1,1,.677,0v.339a.339.339,0,1,1-.677,0Zm1.017-.679a.339.339,0,1,1,0-.678h.339a.339.339,0,0,1,0,.678Zm-1.695,0a.339.339,0,1,1,0-.678h.339a.339.339,0,1,1,0,.678Zm.678-1.017v-.339a.339.339,0,1,1,.677,0v.339a.339.339,0,1,1-.677,0Z" transform="translate(-6285.153 -6630.949)" fill="#fff7e5"/>
          <path id="Path_68405" data-name="Path 68405" d="M6297.019,6636.373v-.339a.339.339,0,1,1,.677,0v.339a.339.339,0,1,1-.677,0Zm1.017-.679a.339.339,0,1,1,0-.678h.339a.339.339,0,0,1,0,.678Zm-1.695,0a.339.339,0,1,1,0-.678h.339a.339.339,0,1,1,0,.678Zm.678-1.017v-.339a.339.339,0,1,1,.677,0v.339a.339.339,0,1,1-.677,0Z" transform="translate(-6288.882 -6626.203)" fill="#fff7e5"/>
          <g id="Group_22680-2" data-name="Group 22680" transform="translate(0.678 4.067)">
            <path id="Path_68406" data-name="Path 68406" d="M6297.019,6636.373v-.339a.339.339,0,1,1,.677,0v.339a.339.339,0,1,1-.677,0Zm1.017-.679a.339.339,0,1,1,0-.678h.339a.339.339,0,0,1,0,.678Zm-1.695,0a.339.339,0,1,1,0-.678h.339a.339.339,0,1,1,0,.678Zm.678-1.017v-.339a.339.339,0,1,1,.677,0v.339a.339.339,0,1,1-.677,0Z" transform="translate(-6296.001 -6632.304)" fill="#fff7e5"/>
            <path id="Path_68408" data-name="Path 68408" d="M6297.019,6636.373v-.339a.339.339,0,1,1,.677,0v.339a.339.339,0,1,1-.677,0Zm1.017-.679a.339.339,0,1,1,0-.678h.339a.339.339,0,0,1,0,.678Zm-1.695,0a.339.339,0,1,1,0-.678h.339a.339.339,0,1,1,0,.678Zm.678-1.017v-.339a.339.339,0,1,1,.677,0v.339a.339.339,0,1,1-.677,0Z" transform="translate(-6279.391 -6633.999)" fill="#fff7e5"/>
          </g>
          <path id="Path_68409" data-name="Path 68409" d="M6297.019,6636.373v-.339a.339.339,0,1,1,.677,0v.339a.339.339,0,1,1-.677,0Zm1.017-.679a.339.339,0,1,1,0-.678h.339a.339.339,0,0,1,0,.678Zm-1.695,0a.339.339,0,1,1,0-.678h.339a.339.339,0,1,1,0,.678Zm.678-1.017v-.339a.339.339,0,1,1,.677,0v.339a.339.339,0,1,1-.677,0Z" transform="translate(-6285.493 -6618.406)" fill="#f9c734"/>
          <circle id="Oval" cx="0.678" cy="0.678" r="0.678" transform="translate(14.576 2.373)" fill="#f9c734"/>
          <circle id="Oval-2" data-name="Oval" cx="0.678" cy="0.678" r="0.678" transform="translate(14.576 15.593)" fill="#f9c734"/>
          <circle id="Oval-3" data-name="Oval" cx="0.678" cy="0.678" r="0.678" transform="translate(0.678 10.17)" fill="#f9c734"/>
        </g>
      </g>
    </g>
  </g>
</svg>
