<svg xmlns="http://www.w3.org/2000/svg" xmlns:xlink="http://www.w3.org/1999/xlink" width="64" height="64" viewBox="0 0 64 64"><defs><linearGradient id="a" x2="1" y2="1" gradientUnits="objectBoundingBox"><stop offset="0" stop-color="#f3e0b8"/><stop offset="0.134" stop-color="#f9c734"/><stop offset="0.657" stop-color="#916b1f"/><stop offset="1" stop-color="#72501b"/></linearGradient></defs><rect width="64" height="64" rx="20" fill="none"/><g transform="translate(-517.293 -1776)"><path d="M17.075,41.763a4.622,4.622,0,0,1-3.91-2.143l-1.637-2.182a1.532,1.532,0,0,0-.257-.295,1.266,1.266,0,0,0-.838-.313,1.29,1.29,0,0,0-.975.447c-1.542,1.655-3.02,2.463-4.452,2.463C3.07,39.74,1,38.19,1,33.835V11.224C1,3.483,3.355,1,10.686,1h12.8c2.8,0,5.647.254,7.5,2.111,1.914,1.918,2.173,5.034,2.165,8.116V33.819a8.066,8.066,0,0,1-.85,3.968,3.589,3.589,0,0,1-3.15,1.936c-1.429,0-2.908-.807-4.4-2.4a1.583,1.583,0,0,0-.306-.286,1.274,1.274,0,0,0-.721-.223,1.287,1.287,0,0,0-1.063.56l-1.752,2.344a4.457,4.457,0,0,1-1.342,1.31,4.616,4.616,0,0,1-2.49.73" transform="translate(528.692 1784.693)" fill="#fff7e5"/><path d="M24.175,3.385c6.4,0,7.986,1.71,7.969,8.531v22.6c0,2.744-.912,4.211-2.305,4.211a4.806,4.806,0,0,1-3.162-1.859,2.974,2.974,0,0,0-4.723.254L20.244,39.4a2.942,2.942,0,0,1-4.96,0l-1.71-2.285a3.023,3.023,0,0,0-.506-.564,2.978,2.978,0,0,0-4.2.31l-.017.017A4.776,4.776,0,0,1,5.7,38.74c-1.395,0-2.312-1.468-2.312-4.211V11.916c0-6.822,1.595-8.531,7.993-8.531Zm0-3.385h-12.8C3.084,0,0,3.23,0,11.916V34.529c0,5.608,3.069,7.6,5.7,7.6a7.641,7.641,0,0,0,5.39-2.681l1.425,1.906a6.328,6.328,0,0,0,8.656,1.8,6.38,6.38,0,0,0,1.847-1.8l1.435-1.916a7.656,7.656,0,0,0,5.388,2.674c2.625,0,5.691-1.989,5.691-7.6v-22.6c.008-3.438-.308-6.952-2.658-9.308C30.578.31,27.19,0,24.175,0" transform="translate(528 1784)" stroke="rgba(0,0,0,0)" stroke-miterlimit="10" stroke-width="1" fill="url(#a)"/><path d="M10320.964,25160.436a3.063,3.063,0,1,1,3.063,3.068A3.067,3.067,0,0,1,10320.964,25160.436Zm-9,1.635a2.309,2.309,0,0,1,0-3.258l11.38-11.381a2.307,2.307,0,0,1,3.259,3.266l-11.374,11.373a2.3,2.3,0,0,1-3.265,0Zm-.479-13.01a3.063,3.063,0,1,1,3.063,3.07A3.066,3.066,0,0,1,10311.485,25149.061Z" transform="translate(-9773.521 -23352.23)" fill="#72501b" stroke="rgba(0,0,0,0)" stroke-miterlimit="10" stroke-width="1"/><path d="M10.8,0a10.8,10.8,0,1,0,10.8,10.8A10.8,10.8,0,0,0,10.8,0Z" transform="translate(548.995 1810.408)" fill="#f9c734"/><path d="M10314.3,25160.5v-1.037a5.858,5.858,0,0,1-2.652-1.293,1.213,1.213,0,0,1,1.705-1.725,4,4,0,0,0,2.128.74h.09a1.658,1.658,0,0,0,1.147-.4.641.641,0,0,0,.234-.486c-.013-.361-.107-.506-.474-.721a5.365,5.365,0,0,0-1.572-.549c-.158-.045-.329-.088-.524-.145a3.364,3.364,0,0,1-2.084-1.6,3.443,3.443,0,0,1-.31-2.578,3.36,3.36,0,0,1,2.312-2.354v-1.139a1.212,1.212,0,1,1,2.425,0v1.012a4.959,4.959,0,0,1,2.438,1.408l-1.8,1.623.006.012a2.348,2.348,0,0,0-1.667-.719c-1.161.068-1.294.51-1.383.832a.988.988,0,0,0,.089.721.943.943,0,0,0,.612.441c.2.057.366.1.518.139a7.675,7.675,0,0,1,2.147.8,3.086,3.086,0,0,1,1.692,2.785v.025a3.088,3.088,0,0,1-.979,2.24,3.881,3.881,0,0,1-1.673.928v1.043a1.212,1.212,0,1,1-2.425,0Z" transform="translate(-9755.547 -23332.758)" fill="#72501b"/></g></svg>