<svg xmlns="http://www.w3.org/2000/svg" xmlns:xlink="http://www.w3.org/1999/xlink" width="24" height="24" viewBox="0 0 24 24">
  <defs>
    <linearGradient id="linear-gradient" x1="-0.014" x2="1" y2="1" gradientUnits="objectBoundingBox">
      <stop offset="0" stop-color="#f3e0b8"/>
      <stop offset="0.134" stop-color="#f9c734"/>
      <stop offset="0.657" stop-color="#916b1f"/>
      <stop offset="1" stop-color="#72501b"/>
    </linearGradient>
  </defs>
  <g id="Group_22678" data-name="Group 22678" transform="translate(-586 -4)">
    <g id="Group_20528" data-name="Group 20528" transform="translate(3511 4)">
      <rect id="Rectangle_6489" data-name="Rectangle 6489" width="24" height="24" transform="translate(-2925)" fill="none"/>
      <g id="Group_20542" data-name="Group 20542" transform="translate(-2923 2.957)">
        <g id="Group_20541" data-name="Group 20541">
          <g id="Group_20681" data-name="Group 20681" transform="translate(4.029)">
            <path id="Path_68255" data-name="Path 68255" d="M104.237,24.5c-.2,0-.214.09-.325.255l-.705.995c-.108.171-.106.215.019.39l1.458,2.034,1.075.693,1.119-.693,1.459-2.034c.124-.175.128-.218.019-.39l-.7-.995c-.111-.165-.127-.255-.325-.255h-3.089Z" transform="translate(-103.128 -24.5)" fill="#eedeb9" fill-rule="evenodd"/>
            <path id="Path_68260" data-name="Path 68260" d="M104.208,24.755l-.705.993h0a.674.674,0,0,0-.066.123h5.282a.674.674,0,0,0-.066-.123l-.7-.995c-.111-.165-.127-.255-.325-.255h-3.089a.241.241,0,0,0-.232.109c-.027.039-.055.087-.094.145h0Z" transform="translate(-103.425 -24.5)" fill="#fff7e5" fill-rule="evenodd"/>
            <path id="Path_68262" data-name="Path 68262" d="M180.592,24.5l.664,1.023c.092.16.1.218.029.35h1.575a.674.674,0,0,0-.066-.123l-.7-.995c-.111-.165-.127-.255-.325-.255h-1.172Z" transform="translate(-177.566 -24.5)" fill="#eedeb9" fill-rule="evenodd"/>
            <path id="Path_68263" data-name="Path 68263" d="M162.491,59.725l-1.407,2.143c.129-.007.259-.01.389-.01a6.673,6.673,0,0,1,1.1.089l1.458-2.032h0l0-.006c.086-.12.111-.177.081-.259h-1.575C162.526,59.671,162.51,59.7,162.491,59.725Z" transform="translate(-158.821 -58.275)" fill="#ebd198" fill-rule="evenodd"/>
          </g>
          <g id="Group_20682" data-name="Group 20682" transform="translate(15.591 2.07)">
            <path id="Path_68257" data-name="Path 68257" d="M399.118,78.3l0,2.5.534,1.156,1.25.125,2.367-.8c.2-.069.23-.1.242-.305l.006-1.22c.006-.2.046-.281-.116-.4l-.156-.112-.206-.149-.892-.64-.892-.641-.208-.149-.156-.112c-.161-.117-.227-.051-.412.017l-1.151.4C399.141,78.051,399.118,78.087,399.118,78.3Z" transform="translate(-399.118 -77.496)" fill="#eedeb9" fill-rule="evenodd"/>
            <path id="Path_68261" data-name="Path 68261" d="M401.309,78.036l4.122,3.23a.291.291,0,0,0,.144-.089.38.38,0,0,0,.044-.2l.006-1.22c.006-.2.046-.281-.116-.4l-.156-.112-.206-.149-.892-.64-.892-.641-.208-.149L403,77.56c-.161-.117-.227-.051-.412.017l-1.151.4A.642.642,0,0,0,401.309,78.036Z" transform="translate(-401.223 -77.496)" fill="#fff7e5" fill-rule="evenodd"/>
            <path id="Path_68264" data-name="Path 68264" d="M419.4,154.041a6.584,6.584,0,0,1,.84.713l2.367-.8.054-.019-1.042-.816a.979.979,0,0,1-.114.043l-2.266.767Q419.32,153.982,419.4,154.041Z" transform="translate(-418.454 -150.163)" fill="#ebd198" fill-rule="evenodd"/>
            <path id="Path_68265" data-name="Path 68265" d="M480.286,107.1c-.009.157-.027.213-.129.262l1.042.816a.3.3,0,0,0,.143-.088h0a.38.38,0,0,0,.044-.2l.006-1.22c.006-.2.046-.281-.116-.4l-.156-.112-.206-.149-.714-.512c.133.106.1.191.092.378Z" transform="translate(-476.991 -104.411)" fill="#eedeb9" fill-rule="evenodd"/>
          </g>
          <path id="Path_68254" data-name="Path 68254" d="M155.248,146.045a6.71,6.71,0,0,0-1.6,8.848s0,0,0,0a6.659,6.659,0,0,0,1.605,1.771l.007,0c.055.043.112.085.169.126a6.691,6.691,0,0,0,8.625-10.17,6.868,6.868,0,0,0-.84-.713,6.668,6.668,0,0,0-5.711-1c-.01,0-.07.015-.08.017l.043,1.305,1.565.472a4.656,4.656,0,1,1-1.646,8.884,4.546,4.546,0,0,1-.772-.45,4.666,4.666,0,0,1,.176-7.693c.027-.018.169-.1.2-.114l-.382-1.259-1.312-.066C155.281,146.015,155.258,146.037,155.248,146.045Z" transform="translate(-146.676 -139.966)" stroke="rgba(0,0,0,0)" stroke-width="1" fill-rule="evenodd" fill="url(#linear-gradient)"/>
          <path id="Path_68256" data-name="Path 68256" d="M6.681,116.214a6.7,6.7,0,1,0,1.895,13.119,6.659,6.659,0,0,1-1.605-1.771s0,0,0,0c-.106.007-.18.009-.289.009a4.65,4.65,0,1,1,2.336-.631,4.633,4.633,0,0,0,.919.87,4.547,4.547,0,0,0,.772.45,6.752,6.752,0,0,0,2.653-5.348,6.671,6.671,0,0,0-1.007-3.537,6.751,6.751,0,0,0-1.608-1.778,6.668,6.668,0,0,0-4.066-1.381Z" transform="translate(0 -112.631)" stroke="rgba(0,0,0,0)" stroke-width="1" fill-rule="evenodd" fill="url(#linear-gradient)"/>
        </g>
      </g>
    </g>
  </g>
</svg>
