<svg xmlns="http://www.w3.org/2000/svg" width="24" height="24" viewBox="0 0 24 24">
  <g id="ic_transfer" transform="translate(-1611 -453)">
    <rect id="ic_transfer-2" data-name="ic_transfer" width="24" height="24" transform="translate(1611 453)" fill="none" opacity="0"/>
    <path id="Exclusion_5" data-name="Exclusion 5" d="M27-927H17a2,2,0,0,1-2-2v-6a2,2,0,0,1,2-2H27a2,2,0,0,1,2,2v6A2,2,0,0,1,27-927Zm-4.468-7.907a.5.5,0,0,0-.383.178l-1.928,2.3v.005a.51.51,0,0,0-.218.414.5.5,0,0,0,.5.5h1.96l-1.338,1.6a.5.5,0,0,0,.061.7.5.5,0,0,0,.321.117.5.5,0,0,0,.383-.179l1.929-2.3a.494.494,0,0,0,.083-.14.492.492,0,0,0,.1-.3.5.5,0,0,0-.5-.5H21.595l1.321-1.574a.5.5,0,0,0,.115-.365.5.5,0,0,0-.177-.34.5.5,0,0,0-.322-.116Z" transform="translate(1604 1397)" fill="#deb331"/>
    <rect id="Rectangle_6308" data-name="Rectangle 6308" width="4" height="1" rx="0.5" transform="translate(1614 465)" fill="#deb331"/>
    <rect id="Rectangle_6310" data-name="Rectangle 6310" width="3" height="1" rx="0.5" transform="translate(1615 462)" fill="#deb331"/>
    <rect id="Rectangle_6309" data-name="Rectangle 6309" width="5" height="1" rx="0.5" transform="translate(1613 468)" fill="#deb331"/>
  </g>
</svg>
