<svg id="ic_wallet_cancel" xmlns="http://www.w3.org/2000/svg" width="24" height="24" viewBox="0 0 24 24">
  <path id="Path_18549" data-name="Path 18549" d="M0,0H24V24H0Z" fill="none"/>
  <path id="Path_18550" data-name="Path 18550" d="M11.679,9.915,10.8,9.034l.882-.882A2.494,2.494,0,1,0,8.151,4.623l-.881.882-.882-.882.882-.882a3.742,3.742,0,1,1,5.292,5.292ZM9.916,11.678l-.882.882A3.741,3.741,0,1,1,3.742,7.27l.882-.882.882.882-.882.882a2.494,2.494,0,1,0,3.528,3.527l.881-.882Zm0-6.174.882.882L6.388,10.8l-.882-.882L9.915,5.506ZM4.266,2.1l1.205-.323L6.12,4.186l-1.2.319L4.266,2.1ZM10.18,12.118l1.2-.323.646,2.409-1.205.323ZM2.1,4.266l2.407.65-.319,1.2L1.777,5.474Zm10.021,5.913,2.409.646-.323,1.205L11.8,11.383Z" transform="translate(3.895 3.896)" fill="#fff"/>
</svg>
