<svg id="icon_24px_-_system_-_image" data-name="icon 24px - system - image" xmlns="http://www.w3.org/2000/svg" width="24" height="24" viewBox="0 0 24 24">
  <rect id="Rectangle_4104" data-name="Rectangle 4104" width="24" height="24" fill="none"/>
  <path id="Image_2" data-name="Image 2" d="M0,3.5A2.5,2.5,0,0,1,2.5,1h15A2.5,2.5,0,0,1,20,3.5V16a2.5,2.5,0,0,1-2.5,2.5H2.5A2.5,2.5,0,0,1,0,16ZM1.251,14.75l3.308-2.943a.625.625,0,0,1,.788-.078l3.325,2.216,4.638-4.637a.625.625,0,0,1,.721-.117l4.721,2.433V16A1.25,1.25,0,0,1,17.5,17.25H2.5A1.25,1.25,0,0,1,1.251,16V14.75ZM7.5,6.625A1.875,1.875,0,1,1,5.626,4.75,1.875,1.875,0,0,1,7.5,6.625Z" transform="translate(2 2)" fill="#c2a87c" fill-rule="evenodd"/>
</svg>
