<svg width="25" height="24" viewBox="0 0 25 24" fill="none" xmlns="http://www.w3.org/2000/svg">
<path fill-rule="evenodd" clip-rule="evenodd" d="M20.5038 6.34171C21.5431 6.62599 22.4269 7.3113 22.961 8.247C23.2288 8.70746 23.4021 9.21669 23.4709 9.74492C23.5396 10.2731 23.5024 10.8098 23.3613 11.3234C23.2203 11.8371 22.9782 12.3175 22.6494 12.7366C22.3205 13.1556 21.9114 13.5049 21.446 13.764L20.946 14.037L13.888 18.063L11.9 14.584L12.347 13.984C13.0149 13.1013 13.3085 11.9911 13.1644 10.8936C13.0203 9.79613 12.4501 8.79943 11.577 8.119C10.9331 7.61915 10.1536 7.32471 9.34 7.274H9.23999C9.55571 6.30687 10.2202 5.49193 11.104 4.988C12.04 4.45445 13.1496 4.31443 14.1888 4.59871C15.2281 4.88299 16.1119 5.56831 16.646 6.504L16.919 7.004L17.419 6.731C18.355 6.19746 19.4646 6.05743 20.5038 6.34171ZM9.90312 8.63325C10.2766 8.73337 10.6265 8.90627 10.933 9.14201C11.5526 9.62101 11.9595 10.3241 12.0661 11.1C12.1727 11.8759 11.9705 12.6627 11.503 13.291L11.255 13.614L7.65499 18.286L2.65799 14.435C2.35052 14.2006 2.09239 13.9078 1.8984 13.5733C1.70441 13.2389 1.57838 12.8694 1.52755 12.4861C1.47673 12.1029 1.50211 11.7133 1.60223 11.3399C1.70235 10.9664 1.87525 10.6165 2.11099 10.31C2.3454 10.0025 2.63823 9.74441 2.97267 9.55042C3.30711 9.35643 3.67658 9.2304 4.05986 9.17958C4.44313 9.12875 4.83267 9.15413 5.20611 9.25425C5.57955 9.35437 5.92954 9.52727 6.23599 9.76301L6.55899 10.012L6.80799 9.68901C7.04241 9.38154 7.33523 9.12341 7.66967 8.92942C8.00411 8.73542 8.37357 8.6094 8.75685 8.55857C9.14012 8.50775 9.52968 8.53313 9.90312 8.63325Z" fill="#DEB331"/>
</svg>
