<svg xmlns="http://www.w3.org/2000/svg" xmlns:xlink="http://www.w3.org/1999/xlink" width="64" height="64" viewBox="0 0 64 64">
  <defs>
    <linearGradient id="linear-gradient" x2="1" y2="1" gradientUnits="objectBoundingBox">
      <stop offset="0" stop-color="#f3e0b8"/>
      <stop offset="0.134" stop-color="#f9c734"/>
      <stop offset="0.657" stop-color="#916b1f"/>
      <stop offset="1" stop-color="#72501b"/>
    </linearGradient>
  </defs>
  <g id="funtion_ic_invoice" transform="translate(-25.293 6.488)">
    <rect id="Rectangle_6171" data-name="Rectangle 6171" width="64" height="64" transform="translate(25.293 -6.488)" fill="none"/>
    <g id="Group_18931" data-name="Group 18931" transform="translate(-199.571 -26.025)">
      <rect id="Rectangle_6075" data-name="Rectangle 6075" width="34.961" height="44.496" rx="2" transform="translate(237 30.451)" fill="url(#linear-gradient)"/>
      <rect id="Rectangle_6076" data-name="Rectangle 6076" width="25.426" height="34.961" rx="1" transform="translate(241.767 35.219)" fill="#fff7e5"/>
      <path id="Path_16259" data-name="Path 16259" d="M29.625,8.357H16.264a1.044,1.044,0,0,1-.832-1.394l.97-3.513A1.819,1.819,0,0,1,18.068,2h9.754a1.819,1.819,0,0,1,1.666,1.449l.97,3.513A1.044,1.044,0,0,1,29.625,8.357Z" transform="translate(231.536 24.536)" fill="#72501b"/>
      <rect id="Rectangle_6077" data-name="Rectangle 6077" width="19.07" height="2.326" rx="1" transform="translate(244.946 41.575)" fill="#72501b"/>
      <rect id="Rectangle_6078" data-name="Rectangle 6078" width="14.302" height="2.326" rx="1" transform="translate(244.946 46.227)" fill="#c2a87c"/>
      <rect id="Rectangle_6079" data-name="Rectangle 6079" width="12.326" height="2.326" rx="1" transform="translate(244.946 50.878)" fill="#f9c734"/>
      <g id="Group_19049" data-name="Group 19049" transform="translate(254.48 54.288)">
        <g id="Group_18807" data-name="Group 18807">
          <path id="Rectangle_5957" data-name="Rectangle 5957" d="M1,0H20.248a2,2,0,0,1,2,2V20.248a2,2,0,0,1-2,2H2a2,2,0,0,1-2-2V1A1,1,0,0,1,1,0Z" transform="translate(0 0)" fill="#f9c734"/>
        </g>
        <path id="Path_16261" data-name="Path 16261" d="M25.316,21.427a1.188,1.188,0,0,1-.792-.3L19.9,17.013a1.192,1.192,0,0,1,1.584-1.781l3.763,3.346,6.886-7.257a1.192,1.192,0,1,1,1.729,1.641L26.18,21.056A1.189,1.189,0,0,1,25.316,21.427Z" transform="translate(-15.581 -5.064)" fill="#72501b"/>
      </g>
    </g>
  </g>
</svg>
