<svg id="invoice_ic08" xmlns="http://www.w3.org/2000/svg" xmlns:xlink="http://www.w3.org/1999/xlink" width="48" height="48" viewBox="0 0 48 48">
  <defs>
    <linearGradient id="linear-gradient" x2="1" y2="1" gradientUnits="objectBoundingBox">
      <stop offset="0" stop-color="#f3e0b8"/>
      <stop offset="0.134" stop-color="#f9c734"/>
      <stop offset="0.657" stop-color="#916b1f"/>
      <stop offset="1" stop-color="#72501b"/>
    </linearGradient>
  </defs>
  <rect id="Rectangle_6274" data-name="Rectangle 6274" width="48" height="48" rx="16" fill="rgba(255,255,255,0.08)"/>
  <g id="Group_19085" data-name="Group 19085" transform="translate(-188 -1833)">
    <path id="Path_16523" data-name="Path 16523" d="M264.092,258.3a11.747,11.747,0,0,1-2.773,4.319,15.042,15.042,0,0,1-5.629,3.3c-.055.009-.055.037-.274-.018a14.965,14.965,0,0,1-5.574-3.283,11.558,11.558,0,0,1-2.774-4.319c-1.168-3.154-1.095-6.758-1.04-9.656.009-.266.018-.541.027-.844a1.338,1.338,0,0,1,1.268-1.311,11.956,11.956,0,0,0,8.065-3.4.269.269,0,0,1,.192-.083.249.249,0,0,1,.182.064,11.929,11.929,0,0,0,8.074,3.42,1.345,1.345,0,0,1,1.277,1.3c0,.312.009.587.018.834C265.2,251.519,265.26,255.122,264.092,258.3Z" transform="translate(-43.582 1602.538)" fill="#fff7e5"/>
    <path id="Path_16524" data-name="Path 16524" d="M267.36,248.129c-.009-.226-.018-.47-.018-.741a4.053,4.053,0,0,0-3.821-3.956,9.142,9.142,0,0,1-6.3-2.646,3,3,0,0,0-1.978-.786,3.085,3.085,0,0,0-2.114.831,9.1,9.1,0,0,1-6.25,2.6,4.04,4.04,0,0,0-3.821,3.956c-.009.271-.018.515-.027.831-.054,3.08-.135,6.91,1.2,10.5a13.978,13.978,0,0,0,3.4,5.266,17.567,17.567,0,0,0,6.53,3.848,2.914,2.914,0,0,0,.425.108,3,3,0,0,0,.65.063,2.653,2.653,0,0,0,.587-.063,2.575,2.575,0,0,0,.434-.117,17.458,17.458,0,0,0,6.5-3.839,14.142,14.142,0,0,0,3.405-5.266C267.5,255.111,267.424,251.272,267.36,248.129Zm-3.739,9.646a11.564,11.564,0,0,1-2.746,4.254,14.908,14.908,0,0,1-5.573,3.252c-.054.009-.054.036-.271-.018a14.832,14.832,0,0,1-5.519-3.234,11.379,11.379,0,0,1-2.746-4.254c-1.156-3.107-1.084-6.657-1.03-9.511.009-.262.018-.533.027-.831a1.321,1.321,0,0,1,1.255-1.292A11.867,11.867,0,0,0,255,242.791a.267.267,0,0,1,.19-.081.247.247,0,0,1,.181.063,11.84,11.84,0,0,0,7.994,3.369,1.328,1.328,0,0,1,1.265,1.283c0,.307.009.578.018.822C264.714,251.1,264.777,254.65,263.621,257.775Z" transform="translate(-43.196 1603)" stroke="rgba(0,0,0,0)" stroke-miterlimit="10" stroke-width="1" fill="url(#linear-gradient)"/>
    <circle id="Ellipse_1138" data-name="Ellipse 1138" cx="3" cy="3" r="3" transform="translate(209 1854)" fill="#72501b"/>
  </g>
</svg>
