<svg xmlns="http://www.w3.org/2000/svg" xmlns:xlink="http://www.w3.org/1999/xlink" width="64" height="64" viewBox="0 0 64 64">
  <defs>
    <linearGradient id="linear-gradient" x1="0.036" x2="1" y2="1" gradientUnits="objectBoundingBox">
      <stop offset="0" stop-color="#f3e0b8"/>
      <stop offset="0.251" stop-color="#f9c734"/>
      <stop offset="0.657" stop-color="#916b1f"/>
      <stop offset="1" stop-color="#72501b"/>
    </linearGradient>
  </defs>
  <g id="funtion_ic02" transform="translate(-837 -1264.895)">
    <g id="funtion_ic02-2" data-name="funtion_ic02" transform="translate(14 -19.605)">
      <rect id="Rectangle_6165" data-name="Rectangle 6165" width="64" height="64" transform="translate(823 1284.5)" fill="none"/>
      <g id="Group_17433" data-name="Group 17433" transform="translate(588.9 1162.775)">
        <path id="Path_15422" data-name="Path 15422" d="M212.394,73.923a10.16,10.16,0,0,0-13.854-3.79l-1.243.683-.683-1.243a10.16,10.16,0,0,0-13.854-3.79h0A10.234,10.234,0,0,0,178.1,71.5h.249a10.151,10.151,0,0,1,5.591,2.112,10.533,10.533,0,0,1,1.926,14.662l-1.118,1.491,4.97,8.7L207.362,88.4l1.243-.683A10.02,10.02,0,0,0,212.394,73.923Z" transform="translate(79.855 71.991)" fill="url(#linear-gradient)"/>
        <g id="Path_15423" data-name="Path 15423" transform="translate(91.654 65.78)" fill="#fff7e5" stroke-miterlimit="10">
          <path d="M 162.0531616210938 103.1295852661133 L 150.7534637451172 94.41585540771484 C 149.5043640136719 93.45503234863281 148.7036895751953 92.07485961914063 148.4974975585938 90.52849578857422 C 148.2913970947266 88.98271179199219 148.7040863037109 87.44734191894531 149.6595764160156 86.20521545410156 C 150.7868194580078 84.73982238769531 152.4850769042969 83.89937591552734 154.3189086914063 83.89937591552734 C 155.6095275878906 83.89937591552734 156.8371887207031 84.3189697265625 157.8691711425781 85.11277770996094 L 158.6767272949219 85.73403167724609 L 159.8657073974609 86.64868927001953 L 160.7802886962891 85.45967102050781 L 161.4015502929688 84.65200042724609 C 162.5287475585938 83.18663024902344 164.2269897460938 82.34619140625 166.0608367919922 82.34619140625 C 167.3514709472656 82.34619140625 168.5791473388672 82.76577758789063 169.6111297607422 83.55961608886719 C 170.8573760986328 84.51827239990234 171.6610412597656 85.90306091308594 171.8740692138672 87.45888519287109 C 172.0867156982422 89.01189422607422 171.6895294189453 90.56871032714844 170.7554473876953 91.84457397460938 L 170.1444091796875 92.63894653320313 L 162.0531616210938 103.1295852661133 Z" stroke="none"/>
          <path d="M 166.0601959228516 83.84617614746094 C 164.6961669921875 83.84617614746094 163.4315032958984 84.47323608398438 162.5904846191406 85.56655883789063 L 161.9692230224609 86.37422180175781 L 160.1400451660156 88.75222015380859 L 157.7621307373047 86.92294311523438 L 156.9546051025391 86.30171966552734 C 156.1871795654297 85.71140289306641 155.2757720947266 85.39937591552734 154.3188934326172 85.39937591552734 C 152.9544677734375 85.39937591552734 151.6895599365234 86.02644348144531 150.8485107421875 87.11978912353516 C 150.1383056640625 88.04304504394531 149.8314056396484 89.18321228027344 149.9843444824219 90.33024597167969 C 150.1377868652344 91.48105621337891 150.7352294921875 92.50939178466797 151.6694488525391 93.22803497314453 L 161.7814178466797 101.0258560180664 L 168.9554443359375 91.72442626953125 L 169.5546722412109 90.94540405273438 C 170.2509613037109 89.98741149902344 170.5468139648438 88.82266998291016 170.387939453125 87.66237640380859 C 170.228759765625 86.49993133544922 169.6280975341797 85.46512603759766 168.6965484619141 84.74854278564453 C 167.9292449951172 84.15830230712891 167.0177154541016 83.84626770019531 166.0605621337891 83.84617614746094 L 166.0602569580078 83.84617614746094 L 166.0601959228516 83.84617614746094 M 166.0608215332031 80.84618377685547 C 167.6186065673828 80.84632110595703 169.1894226074219 81.34276580810547 170.5256958007813 82.37068939208984 C 173.7562713623047 84.85573577880859 174.3775177001953 89.45314788818359 171.95458984375 92.74586486816406 L 171.3333435058594 93.55351257324219 L 162.3249053955078 105.2333602905273 L 149.8374633789063 95.60369873046875 C 146.6068572998047 93.11863708496094 145.9855499267578 88.52124786376953 148.4706420898438 85.29064178466797 C 149.9278106689453 83.39635467529297 152.1106109619141 82.39937591552734 154.3188934326172 82.39937591552734 C 155.8766632080078 82.39937591552734 157.4474182128906 82.89593505859375 158.7837219238281 83.92384338378906 L 159.5913391113281 84.54512023925781 L 160.2126007080078 83.73745727539063 C 161.6697387695313 81.8431396484375 163.8525238037109 80.84598541259766 166.0608215332031 80.84618377685547 Z" stroke="none" fill="#dbac2e"/>
        </g>
      </g>
    </g>
  </g>
</svg>
