<svg width="24" height="24" viewBox="0 0 24 24" fill="none" xmlns="http://www.w3.org/2000/svg">
<path d="M6 22C5.46957 22 4.96101 21.7891 4.58594 21.4141C4.21086 21.039 4 20.5304 4 20V4C4 3.46957 4.21086 2.96101 4.58594 2.58594C4.96101 2.21086 5.46957 2 6 2H14L20 8V20C20 20.5304 19.7891 21.039 19.4141 21.4141C19.039 21.7891 18.5304 22 18 22H6ZM10.4414 14.0859V18C10.7799 18.0396 11.1201 18.0581 11.4609 18.0552C12.1154 18.0996 12.7651 17.9188 13.3027 17.543C13.5271 17.3405 13.7031 17.0905 13.8184 16.811C13.9336 16.5316 13.9852 16.23 13.9688 15.9282C13.9858 15.642 13.9326 15.3555 13.8145 15.0942C13.6963 14.8329 13.5171 14.6046 13.291 14.4282C12.8109 14.1066 12.2361 13.9569 11.6602 14.0039H11.5605C11.1867 14.0029 10.8132 14.0297 10.4434 14.084L10.4414 14.0859ZM14.5586 18.021H15.4688V16.4209H16.9004V15.688H15.4688V14.7729H17V14.0342H14.5586V18.021ZM6.99609 14.0859V18.021H7.89062V16.5942C7.99303 16.6078 8.09593 16.6131 8.19922 16.6108C8.66861 16.6421 9.13205 16.4922 9.49414 16.1919C9.61713 16.0675 9.71388 15.9194 9.77734 15.7563C9.84081 15.5933 9.86977 15.419 9.86328 15.2441C9.86679 15.0687 9.8293 14.8947 9.75586 14.7354C9.68242 14.576 9.57511 14.4355 9.43945 14.3242C9.07885 14.0826 8.64757 13.9695 8.21484 14.0039H8.11328C7.74048 14.0029 7.36884 14.0298 7 14.084L6.99609 14.0859ZM12.9961 8.99902H17.9961L12.9961 3.99902V8.99902ZM11.6582 17.3599C11.553 17.3648 11.4492 17.3574 11.3457 17.3379V14.731C11.4799 14.7033 11.6169 14.6901 11.7539 14.6919C11.9241 14.6748 12.0949 14.6961 12.2559 14.7539C12.4169 14.8118 12.5632 14.9048 12.6836 15.0264C12.804 15.1479 12.8949 15.295 12.9512 15.4565C13.0075 15.6181 13.0285 15.7899 13.0098 15.96C13.0348 16.1442 13.0183 16.3315 12.9609 16.5083C12.9036 16.6851 12.8061 16.847 12.6777 16.9814C12.5494 17.1159 12.3927 17.2196 12.2188 17.2852C12.0448 17.3507 11.859 17.3763 11.6738 17.3599H11.6582ZM7.88867 15.894V14.7202C8.01115 14.6893 8.13745 14.6761 8.26367 14.6812C8.71467 14.6812 8.96875 14.902 8.96875 15.271C8.96875 15.679 8.66841 15.9209 8.19141 15.9209C8.09089 15.9246 7.99051 15.915 7.89258 15.8921L7.88867 15.894Z" fill="#C2A87C"/>
</svg>
