<svg id="funtion_ic_rate" xmlns="http://www.w3.org/2000/svg" xmlns:xlink="http://www.w3.org/1999/xlink" width="64" height="64" viewBox="0 0 64 64">
  <defs>
    <linearGradient id="linear-gradient" x2="1" y2="1" gradientUnits="objectBoundingBox">
      <stop offset="0" stop-color="#f3e0b8"/>
      <stop offset="0.134" stop-color="#f9c734"/>
      <stop offset="0.657" stop-color="#916b1f"/>
      <stop offset="1" stop-color="#72501b"/>
    </linearGradient>
  </defs>
  <rect id="Rectangle_6170" data-name="Rectangle 6170" width="64" height="64" fill="none"/>
  <g id="Group_18955" data-name="Group 18955" transform="translate(-47.73 -837.475)">
    <path id="Path_16411" data-name="Path 16411" d="M49.419,42.482H32.37a1.37,1.37,0,0,1-1.357-.858L23.307,15.88c-.211-.7.455-1.38,1.357-1.38H49.419c2.313,0,4.188,1.5,4.188,3.358V39.124C53.607,40.979,51.732,42.482,49.419,42.482Z" transform="translate(52.122 846.03)" fill="#f9c734"/>
    <g id="Group_18956" data-name="Group 18956" transform="translate(92.132 869.014)">
      <path id="Union_57" data-name="Union 57" d="M21350.508,20250.152a5.371,5.371,0,0,1-1.615-2.375h-1.295a1,1,0,0,1,0-2h.881c-.025-.3-.039-.607-.039-.928,0-.236.008-.467.021-.691h-.863a1,1,0,1,1,0-2h1.221a5.175,5.175,0,0,1,1.689-2.535,6.555,6.555,0,0,1,5.107-1.02,1,1,0,0,1-.443,1.951,4.557,4.557,0,0,0-3.426.643,2.967,2.967,0,0,0-.771.961h1.684a1,1,0,1,1,0,2h-2.193c-.018.221-.025.451-.025.691a8.747,8.747,0,0,0,.047.928h2.172a1,1,0,0,1,0,2h-1.568a3.119,3.119,0,0,0,.705.842,4.736,4.736,0,0,0,3.42.8,1,1,0,1,1,.354,1.967,6.133,6.133,0,0,1-1.062.08A6.227,6.227,0,0,1,21350.508,20250.152Z" transform="translate(-21347.598 -20239.459)" fill="#72501b"/>
    </g>
    <path id="Path_16412" data-name="Path 16412" d="M29.945,41.947l-3.228-10.48,7.765.464,1.14-.464Z" transform="translate(53.381 846.272)" fill="#72501b"/>
    <g id="Group_18957" data-name="Group 18957" transform="translate(53.728 849.475)">
      <path id="Path_16409" data-name="Path 16409" d="M-104.81-14.854l-4.628-22.137a4.708,4.708,0,0,0-4.361-3.84h-19.924l-.14.013a6.57,6.57,0,0,0-6.065,6.8v18.22a6.569,6.569,0,0,0,6.065,6.8l.14.013h24.552l.165-.013a4.8,4.8,0,0,0,.852-.165A4.752,4.752,0,0,0-104.81-14.854Zm-4.361,2.022a.891.891,0,0,1-.178.038h-24.234a2.739,2.739,0,0,1-2.53-2.912V-34.1a2.739,2.739,0,0,1,2.53-2.912H-114a.882.882,0,0,1,.826.737l4.654,22.289A.941.941,0,0,1-109.172-12.832Z" transform="translate(139.934 40.83)" fill="url(#linear-gradient)"/>
      <path id="Path_16410" data-name="Path 16410" d="M-109.986-13.646a.891.891,0,0,1-.178.038H-134.4a2.739,2.739,0,0,1-2.53-2.912v-18.4a2.739,2.739,0,0,1,2.53-2.912h19.581a.882.882,0,0,1,.826.737l4.654,22.289A.941.941,0,0,1-109.986-13.646Z" transform="translate(140.748 41.644)" fill="#fff7e5"/>
    </g>
    <g id="Group_18955-2" data-name="Group 18955" transform="translate(67.364 857.99)">
      <path id="Union_56" data-name="Union 56" d="M21374.7,20265.2v-1.43a6.449,6.449,0,0,1-3.037-1.393,1,1,0,0,1,1.416-1.418,4.718,4.718,0,0,0,2.576.908h.049c.021,0,.043,0,.064,0a2.217,2.217,0,0,0,1.506-.539,1.105,1.105,0,0,0,.361-.789,1.122,1.122,0,0,0-.7-1.09,6.462,6.462,0,0,0-1.818-.643c-.172-.049-.365-.1-.58-.156a3.358,3.358,0,0,1-2.1-1.609,3.45,3.45,0,0,1-.311-2.592,3.355,3.355,0,0,1,2.57-2.443v-1.521a1,1,0,0,1,2,0v1.41a5.21,5.21,0,0,1,2.783,1.5l-1.486,1.336.006.01a2.978,2.978,0,0,0-2.113-.9c-1.412.086-1.691.648-1.842,1.164a1.428,1.428,0,0,0,.135,1.057,1.364,1.364,0,0,0,.885.654c.211.059.4.113.574.156a8.126,8.126,0,0,1,2.291.842,3.111,3.111,0,0,1,1.7,2.795v.021a3.1,3.1,0,0,1-.977,2.238,3.982,3.982,0,0,1-1.957,1v1.422a1,1,0,0,1-2,0Z" transform="translate(-21372.365 -20250.484)" fill="#72501b"/>
    </g>
  </g>
</svg>
