<svg id="funtion_ic_dkdv" xmlns="http://www.w3.org/2000/svg" xmlns:xlink="http://www.w3.org/1999/xlink" width="64" height="64" viewBox="0 0 64 64">
  <defs>
    <linearGradient id="linear-gradient" x2="1" y2="1" gradientUnits="objectBoundingBox">
      <stop offset="0" stop-color="#f3e0b8"/>
      <stop offset="0.134" stop-color="#f9c734"/>
      <stop offset="0.657" stop-color="#916b1f"/>
      <stop offset="1" stop-color="#72501b"/>
    </linearGradient>
  </defs>
  <rect id="Rectangle_6169" data-name="Rectangle 6169" width="64" height="64" fill="none"/>
  <g id="Group_18940" data-name="Group 18940" transform="translate(-147 -704.484)">
    <rect id="Rectangle_6117" data-name="Rectangle 6117" width="26.387" height="26.416" rx="2" transform="translate(196.331 742.934) rotate(-169)" fill="#f9c734"/>
    <rect id="Rectangle_6118" data-name="Rectangle 6118" width="23.285" height="20.355" rx="2" transform="translate(187.047 738.506) rotate(176)" fill="#72501b"/>
    <path id="Rectangle_6115" data-name="Rectangle 6115" d="M2,0H46a2,2,0,0,1,2,2V29.286a5,5,0,0,1-5,5H5a5,5,0,0,1-5-5V2A2,2,0,0,1,2,0Z" transform="translate(155 727.451)" fill="url(#linear-gradient)"/>
    <path id="Rectangle_6116" data-name="Rectangle 6116" d="M1,0H36.714a1,1,0,0,1,1,1V21a3,3,0,0,1-3,3H3a3,3,0,0,1-3-3V1A1,1,0,0,1,1,0Z" transform="translate(160.143 732.594)" fill="#fff7e5"/>
    <g id="Group_18939" data-name="Group 18939" transform="translate(163.571 736.023)">
      <g id="Group_18303" data-name="Group 18303" transform="translate(0 0)">
        <path id="Path_15435" data-name="Path 15435" d="M-76.288-29.969c-.01,0-1-.007-1-.007v17.049c.012,0,1,0,1,0Z" transform="translate(85.362 30.017)" fill="#72501b"/>
        <g id="Group_18300" data-name="Group 18300" transform="translate(0 0.105)">
          <path id="Path_15436" data-name="Path 15436" d="M-80.87-23.3a3.045,3.045,0,0,1-.045-.372,1.547,1.547,0,0,1,1.281-1.515c-2.217.081-2.3,1.6-2.285,1.879a8.571,8.571,0,0,0,7.961,7l.47.019h.47l.036,0v-1.764a.929.929,0,0,1-1.011.717A7.54,7.54,0,0,1-80.87-23.3Z" transform="translate(82.057 33.332)" fill="#72501b"/>
          <g id="Group_18299" data-name="Group 18299">
            <path id="Path_15437" data-name="Path 15437" d="M-74.493-29.939a8.571,8.571,0,0,0-7.5,8.184h0v.005h0c0,.1-.007.206-.007.31a8.69,8.69,0,0,0,.144,1.562s-.067-1.872,2.451-1.872h4.911Z" transform="translate(82 29.939)" fill="#72501b"/>
          </g>
        </g>
        <g id="Group_18302" data-name="Group 18302" transform="translate(8.069)">
          <path id="Path_15438" data-name="Path 15438" d="M-69.406-22.992a2.993,2.993,0,0,1,.045.372A1.547,1.547,0,0,1-70.642-21.1c2.217-.081,2.3-1.6,2.285-1.879a8.571,8.571,0,0,0-7.961-7l-.47-.019h-.47l-.036,0v1.764a.931.931,0,0,1,1.011-.718A7.543,7.543,0,0,1-69.406-22.992Z" transform="translate(77.293 30)" fill="#72501b"/>
          <g id="Group_18301" data-name="Group 18301" transform="translate(1.567 6.977)">
            <path id="Path_15439" data-name="Path 15439" d="M-76.379-15.869a8.571,8.571,0,0,0,7.5-8.184h0v-.005h0c0-.1.007-.206.007-.31a8.691,8.691,0,0,0-.144-1.562s.067,1.872-2.451,1.872h-4.911Z" transform="translate(76.379 25.93)" fill="#72501b"/>
          </g>
        </g>
      </g>
    </g>
    <path id="Path_16392" data-name="Path 16392" d="M76.915,212H67.851" transform="translate(116.055 525.305)" fill="none" stroke="#72501b" stroke-linecap="round" stroke-linejoin="round" stroke-width="1.5"/>
    <path id="Path_16393" data-name="Path 16393" d="M72.88,212h-5.03" transform="translate(120.089 529.274)" fill="none" stroke="#72501b" stroke-linecap="round" stroke-linejoin="round" stroke-width="1.5"/>
  </g>
</svg>
