<svg xmlns="http://www.w3.org/2000/svg" xmlns:xlink="http://www.w3.org/1999/xlink" width="64" height="64" viewBox="0 0 64 64"><defs><linearGradient id="a" x2="0.989" y2="1" gradientUnits="objectBoundingBox"><stop offset="0" stop-color="#f3e0b8"/><stop offset="0.134" stop-color="#f9c734"/><stop offset="0.657" stop-color="#916b1f"/><stop offset="1" stop-color="#72501b"/></linearGradient></defs><rect width="64" height="64" rx="20" fill="none"/><g transform="translate(7.705 11.088)"><rect width="44.148" height="34.688" rx="2" transform="translate(3.852 6.598)" fill="url(#a)"/><rect width="36.264" height="26.804" rx="1" transform="translate(7.794 10.54)" fill="#fff7e5"/><g transform="translate(18.714 22.758)"><path d="M11.318,5.478A5.476,5.476,0,1,1,16.8,10.952,5.485,5.485,0,0,1,11.318,5.478Zm2.341,0A3.141,3.141,0,1,0,16.8,2.337,3.146,3.146,0,0,0,13.659,5.478ZM3.153,9.368a1.043,1.043,0,0,0-.964-.5c-.682-.028-1.02-.028-1.174-.028a.722.722,0,0,1-.283.018A.784.784,0,0,1,.785,7.292a1.746,1.746,0,0,1,.246-.009H1.05c.246,0,.637.009,1.185.028A2.564,2.564,0,0,1,4.318,8.331a1.246,1.246,0,0,0,1.166.536,1.125,1.125,0,0,0,1.073-.5A2.78,2.78,0,0,1,8.951,7.31a.772.772,0,0,1,.774.774.78.78,0,0,1-.774.783A1.284,1.284,0,0,0,7.723,9.4a2.627,2.627,0,0,1-2.239,1.019A2.737,2.737,0,0,1,3.153,9.368Zm0-3.451a1.067,1.067,0,0,0-.964-.5c-.682-.016-1.02-.025-1.174-.025a.644.644,0,0,1-.283.018A.784.784,0,0,1,0,4.571a.792.792,0,0,1,.783-.73c.054,0,.137-.009.246-.009H1.05c.246,0,.637.009,1.185.028A2.59,2.59,0,0,1,4.318,4.88a1.231,1.231,0,0,0,1.166.543,1.142,1.142,0,0,0,1.073-.5A2.758,2.758,0,0,1,8.951,3.859a.777.777,0,0,1,0,1.554,1.285,1.285,0,0,0-1.228.538A2.605,2.605,0,0,1,5.484,6.98,2.739,2.739,0,0,1,3.153,5.917Zm0-3.451a1.074,1.074,0,0,0-.964-.5c-.52-.018-.819-.018-.984-.018a1.146,1.146,0,0,1-.255.018.8.8,0,0,1-.81-.841A.781.781,0,0,1,.931.39h.238c.218,0,.573.009,1.066.018a2.552,2.552,0,0,1,2.083,1.03,1.242,1.242,0,0,0,1.166.538,1.125,1.125,0,0,0,1.073-.5A2.781,2.781,0,0,1,8.951.409a.78.78,0,0,1,0,1.559,1.269,1.269,0,0,0-1.228.543A2.628,2.628,0,0,1,5.484,3.534,2.716,2.716,0,0,1,3.153,2.467Z" transform="translate(0 0)" fill="#72501b"/></g><g transform="translate(0)"><path d="M10.54,0A10.54,10.54,0,1,0,21.08,10.54,10.54,10.54,0,0,0,10.54,0Z" fill="#f9c734"/><g transform="translate(6.886 3.06)"><path d="M2.943,13.862V12.607A5.586,5.586,0,0,1,.264,11.378a.877.877,0,0,1,0-1.255.875.875,0,0,1,1.252,0,4.206,4.206,0,0,0,2.27.8h.042a.419.419,0,0,1,.052,0,1.952,1.952,0,0,0,1.332-.473.977.977,0,0,0,.319-.69A1,1,0,0,0,4.915,8.8a5.556,5.556,0,0,0-1.605-.562c-.151-.04-.317-.087-.512-.143A2.952,2.952,0,0,1,.943,6.669a3.04,3.04,0,0,1-.271-2.29,2.966,2.966,0,0,1,2.27-2.156V.884a.886.886,0,0,1,1.772,0v1.24A4.622,4.622,0,0,1,7.171,3.452L5.853,4.641A2.629,2.629,0,0,0,4,3.848c-1.24.077-1.489.573-1.62,1.029a1.258,1.258,0,0,0,.117.929,1.223,1.223,0,0,0,.777.573c.185.055.352.1.5.138A7.06,7.06,0,0,1,5.8,7.259,2.734,2.734,0,0,1,7.3,9.731V9.75a2.7,2.7,0,0,1-.865,1.973,3.516,3.516,0,0,1-1.723.888v1.251a.886.886,0,1,1-1.772,0ZM5.849,4.643l0,0,0,0Z" transform="translate(0)" fill="#72501b"/></g></g></g></svg>