<svg id="icon_48px_-_Đăng_ký" data-name="icon 48px - Đăng ký" xmlns="http://www.w3.org/2000/svg" xmlns:xlink="http://www.w3.org/1999/xlink" width="64" height="64" viewBox="0 0 64 64">
  <defs>
    <linearGradient id="linear-gradient" x2="1" y2="1" gradientUnits="objectBoundingBox">
      <stop offset="0" stop-color="#f3e0b8"/>
      <stop offset="0.134" stop-color="#f9c734"/>
      <stop offset="0.657" stop-color="#916b1f"/>
      <stop offset="1" stop-color="#72501b"/>
    </linearGradient>
  </defs>
  <rect id="Rectangle_11088" data-name="Rectangle 11088" width="64" height="64" rx="32" fill="rgba(255,255,255,0.12)"/>
  <g id="Group_20299" data-name="Group 20299" transform="translate(11.646 12.667)">
    <g id="Group_20296" data-name="Group 20296">
      <path id="Vector" d="M28,0H9.333A9.319,9.319,0,0,0,0,9.3V22.337a9.319,9.319,0,0,0,9.333,9.3h2.8a2.145,2.145,0,0,1,1.493.747l2.8,3.717a2.652,2.652,0,0,0,4.48,0l2.8-3.717a1.892,1.892,0,0,1,1.493-.747H28a9.319,9.319,0,0,0,9.333-9.3V9.3A9.319,9.319,0,0,0,28,0Z" transform="translate(0 0)" stroke="rgba(0,0,0,0)" stroke-width="1" fill="url(#linear-gradient)"/>
      <path id="Vector-2" data-name="Vector" d="M21.92,0H7.307A7.3,7.3,0,0,0,0,7.281V17.486a7.3,7.3,0,0,0,7.307,7.281H21.92a7.3,7.3,0,0,0,7.307-7.281V7.281A7.3,7.3,0,0,0,21.92,0Z" transform="translate(4.052 3.435)" fill="#fff7e5"/>
      <path id="Path_20783" data-name="Path 20783" d="M9.43,10.762,8.34,12.125A11.512,11.512,0,0,1,4.252,8.037l1.363-1.09a.926.926,0,0,0,.268-1.1l-1.242-2.8a.926.926,0,0,0-1.079-.521l-2.367.617A.926.926,0,0,0,.507,4.177,13.737,13.737,0,0,0,12.2,15.868a.926.926,0,0,0,1.029-.687l.617-2.367a.926.926,0,0,0-.521-1.078l-2.8-1.24a.926.926,0,0,0-1.1.267Z" transform="translate(12.027 6.797)" fill="#72501b" stroke="#72501b" stroke-linecap="round" stroke-linejoin="round" stroke-width="0.5"/>
    </g>
    <g id="Group_22708" data-name="Group 22708" transform="translate(20.709 16)">
      <path id="Path_68465" data-name="Path 68465" d="M-3725,2.624a11.807,11.807,0,0,1,6-9.938l-1.387-3.955a.751.751,0,0,1,.77-.731h9.23a.751.751,0,0,1,.77.731L-3711-7.313a11.808,11.808,0,0,1,6,9.937c0,5.25-4.477,8.043-10,8.043S-3725,7.874-3725,2.624Z" transform="translate(3725 12)" fill="#f9c734" stroke="rgba(0,0,0,0)" stroke-width="1"/>
      <path id="Path_68464" data-name="Path 68464" d="M10814.33,25460v-.941a5.116,5.116,0,0,1-2.309-1.113,1,1,0,0,1,1.414-1.422,3.486,3.486,0,0,0,1.874.648,1.469,1.469,0,0,0,1.1-.359.608.608,0,0,0,.214-.449c0-.336-.094-.477-.436-.664a4.4,4.4,0,0,0-1.363-.48c-.135-.043-.289-.082-.459-.129a2.848,2.848,0,0,1-2.027-3.551,2.855,2.855,0,0,1,1.993-2.016v-1.016a1,1,0,1,1,2,0v.91a4.242,4.242,0,0,1,2.121,1.211l-1.481,1.344a2.118,2.118,0,0,0-1.474-.629c-1.039.059-1.159.477-1.244.758a.9.9,0,0,0,.085.656.874.874,0,0,0,.555.4c.171.047.315.086.45.125a6.727,6.727,0,0,1,1.85.684,2.6,2.6,0,0,1,1.431,2.359v.027a2.638,2.638,0,0,1-.825,1.906,3.294,3.294,0,0,1-1.467.8v.938a1,1,0,0,1-2,0Z" transform="translate(-10805.22 -25441.008)" fill="#72501b"/>
    </g>
  </g>
</svg>
