<svg id="icon_48px_-_transfer_-_to_stock" data-name="icon 48px - transfer - to stock" xmlns="http://www.w3.org/2000/svg" xmlns:xlink="http://www.w3.org/1999/xlink" width="64" height="64" viewBox="0 0 64 64">
  <defs>
    <linearGradient id="linear-gradient" x2="1" y2="1" gradientUnits="objectBoundingBox">
      <stop offset="0" stop-color="#f3e0b8"/>
      <stop offset="0.134" stop-color="#f9c734"/>
      <stop offset="0.657" stop-color="#916b1f"/>
      <stop offset="1" stop-color="#72501b"/>
    </linearGradient>
  </defs>
  <rect id="Rectangle_10978" data-name="Rectangle 10978" width="64" height="64" rx="32" fill="rgba(255,255,255,0.12)"/>
  <g id="Group_22726" data-name="Group 22726" transform="translate(11.337 11.155)">
    <rect id="Rectangle_6303" data-name="Rectangle 6303" width="33.105" height="33.105" rx="2" transform="translate(5.093 5.093)" fill="url(#linear-gradient)"/>
    <rect id="Rectangle_6305" data-name="Rectangle 6305" width="25.465" height="25.465" rx="1" transform="translate(8.663 8.845)" fill="#fff7e5"/>
    <g id="Group_19097" data-name="Group 19097">
      <path id="Path_16414" data-name="Path 16414" d="M8.913,0a8.913,8.913,0,1,0,8.913,8.913A8.913,8.913,0,0,0,8.913,0Z" transform="translate(0)" fill="#f9c734"/>
      <path id="Path_68727" data-name="Path 68727" d="M9115.094,23418.223v-.937a7.814,7.814,0,0,1-3.111-1.168.922.922,0,0,1,0-1.543,1.729,1.729,0,0,1,2-.012,5.49,5.49,0,0,0,2.49.672h.1a2.368,2.368,0,0,0,1.354-.367.558.558,0,0,0,.266-.441c-.012-.324-.123-.461-.555-.652a8.121,8.121,0,0,0-1.834-.492c-.189-.043-.389-.078-.621-.129a4.039,4.039,0,0,1-2.445-1.441,2.53,2.53,0,0,1-.355-2.328,3.523,3.523,0,0,1,2.713-2.133v-1.031a1.466,1.466,0,0,1,2.832,0v.918a6.236,6.236,0,0,1,2.854,1.277l-2.109,1.461a3.169,3.169,0,0,0-1.945-.641c-1.355.07-1.51.465-1.621.758a.724.724,0,0,0,.111.648,1.146,1.146,0,0,0,.723.4c.221.043.422.086.6.129a10.378,10.378,0,0,1,2.51.711,2.784,2.784,0,0,1,1.979,2.512v.023a2.534,2.534,0,0,1-1.135,2.023,5.007,5.007,0,0,1-1.965.84v.941a1.462,1.462,0,0,1-2.832,0Zm3.576-8.348h0l.01.012Z" transform="translate(-9107.384 -23403.379)" fill="#72501b"/>
    </g>
    <path id="Union_48" data-name="Union 48" d="M17.826,14.02V11.13H0L5.093,3.491H17.826V.6a1,1,0,0,1,1.659-.752l7.667,6.71a1,1,0,0,1,0,1.5l-7.667,6.71a.984.984,0,0,1-.653.249A1,1,0,0,1,17.826,14.02Z" transform="translate(14.006 27.068)" fill="#f9c734"/>
    <path id="Path_68728" data-name="Path 68728" d="M10.053,18.105a8.053,8.053,0,1,1,8.053-8.053A8.053,8.053,0,0,1,10.053,18.105Zm5.118-4.87v-.085c0-.742,0-1.081-.525-1.382q-.253-.144-.519-.262a1.479,1.479,0,0,1-.755-.609l-.093-.139a1.031,1.031,0,0,0-1.242-.606c-1.5.238-1.613.5-1.679.949l-.01.073c-.1.652-.115.871.157,1.157a9.908,9.908,0,0,1,1.814,2.29,2.685,2.685,0,0,1,.163,1.545,6.591,6.591,0,0,0,2.537-1.8,3.993,3.993,0,0,0,.153-1.131ZM10.053,3.476A6.559,6.559,0,0,0,5.3,5.5a1.017,1.017,0,0,1,.352.43,2.564,2.564,0,0,1,.164,1.083,1.755,1.755,0,0,0,.085.7c.116.248.617.354,1.059.446.159.034.321.068.469.109a2.209,2.209,0,0,1,.975.773,2.245,2.245,0,0,0,.338.346.819.819,0,0,0,.234-.4.472.472,0,0,0-.036-.419,2.353,2.353,0,0,1-.287-1.932c.219-.6.9-.551,1.4-.519a2.877,2.877,0,0,0,.494.007c.5-.063.655-.825.764-.974a7.158,7.158,0,0,1,1.4-1.107A6.553,6.553,0,0,0,10.053,3.476Z" transform="translate(11.664 11.845)" fill="#72501b"/>
  </g>
</svg>
