<svg id="transfer_ic05" xmlns="http://www.w3.org/2000/svg" xmlns:xlink="http://www.w3.org/1999/xlink" width="36" height="36" viewBox="0 0 36 36">
  <defs>
    <linearGradient id="linear-gradient" x2="1" y2="1" gradientUnits="objectBoundingBox">
      <stop offset="0" stop-color="#f3e0b8"/>
      <stop offset="0.134" stop-color="#f9c734"/>
      <stop offset="0.657" stop-color="#916b1f"/>
      <stop offset="1" stop-color="#72501b"/>
    </linearGradient>
  </defs>
  <rect id="Rectangle_6166" data-name="Rectangle 6166" width="36" height="36" fill="none"/>
  <g id="Group_19060" data-name="Group 19060" transform="translate(-5.5 -6)">
    <rect id="Rectangle_6248" data-name="Rectangle 6248" width="25.39" height="19.261" rx="2" transform="translate(9.5 13)" fill="url(#linear-gradient)"/>
    <path id="Path_16488" data-name="Path 16488" d="M.876,0H19.261a.876.876,0,0,1,.876.876V13.133a.876.876,0,0,1-.876.876H.876A.876.876,0,0,1,0,13.133V.876A.876.876,0,0,1,.876,0Z" transform="translate(12.127 15.627)" fill="#fff7e5" stroke="rgba(0,0,0,0)" stroke-width="1"/>
    <path id="Union_39" data-name="Union 39" d="M12.257,9V7.7H0L3.5,2.45h8.755v-1.3A1,1,0,0,1,13.916.4L18.4,4.324a1,1,0,0,1,0,1.506L13.916,9.754a.982.982,0,0,1-.652.249A1,1,0,0,1,12.257,9Z" transform="translate(18.693 24.558)" fill="#f9c734"/>
    <path id="Path_10445" data-name="Path 10445" d="M13.436,26.877l1.822-1.958a2.585,2.585,0,0,1,3.976-.122l.516.528a3.107,3.107,0,0,0,4.843-.066l2.333-2.8M24.593,20l3.555-.3A1.358,1.358,0,0,1,29.5,21.057a1.132,1.132,0,0,1-.006.123l-.321,3.487" transform="translate(0.031 -1.694)" fill="none" stroke="#72501b" stroke-linecap="round" stroke-width="1.5"/>
  </g>
</svg>
