<svg id="transfer_ic06" xmlns="http://www.w3.org/2000/svg" xmlns:xlink="http://www.w3.org/1999/xlink" width="36" height="36" viewBox="0 0 36 36">
  <defs>
    <linearGradient id="linear-gradient" x2="1" y2="1" gradientUnits="objectBoundingBox">
      <stop offset="0" stop-color="#f3e0b8"/>
      <stop offset="0.134" stop-color="#f9c734"/>
      <stop offset="0.657" stop-color="#916b1f"/>
      <stop offset="1" stop-color="#72501b"/>
    </linearGradient>
  </defs>
  <rect id="Rectangle_6166" data-name="Rectangle 6166" width="36" height="36" fill="none"/>
  <g id="Group_19104" data-name="Group 19104" transform="translate(-5.469 -5.781)">
    <rect id="Rectangle_6248" data-name="Rectangle 6248" width="25.39" height="19.261" rx="2" transform="translate(9.5 13)" fill="url(#linear-gradient)"/>
    <path id="Path_16488" data-name="Path 16488" d="M.876,0H19.261a.876.876,0,0,1,.876.876V13.133a.876.876,0,0,1-.876.876H.876A.876.876,0,0,1,0,13.133V.876A.876.876,0,0,1,.876,0Z" transform="translate(12.127 15.627)" fill="#fff7e5" stroke="rgba(0,0,0,0)" stroke-width="1"/>
    <line id="Line_758" data-name="Line 758" x1="5.253" transform="translate(23.071 20.004)" fill="none" stroke="#72501b" stroke-linecap="round" stroke-linejoin="round" stroke-miterlimit="10" stroke-width="1.5"/>
    <line id="Line_759" data-name="Line 759" x1="5.253" transform="translate(23.071 23.506)" fill="none" stroke="#72501b" stroke-linecap="round" stroke-linejoin="round" stroke-miterlimit="10" stroke-width="1.5"/>
    <path id="Union_39" data-name="Union 39" d="M12.257,9V7.7H0L3.5,2.45h8.755v-1.3A1,1,0,0,1,13.916.4L18.4,4.324a1,1,0,0,1,0,1.506L13.916,9.754a.982.982,0,0,1-.652.249A1,1,0,0,1,12.257,9Z" transform="translate(18.693 24.558)" fill="#f9c734"/>
    <g id="Group_20034" data-name="Group 20034" transform="translate(15.58 18.564)">
      <path id="Path_15911" data-name="Path 15911" d="M-661-153.394v1.214" transform="translate(662.736 153.394)" fill="none" stroke="#72501b" stroke-linecap="round" stroke-linejoin="round" stroke-width="1.5"/>
      <path id="Path_15912" data-name="Path 15912" d="M-661-153.394v1.214" transform="translate(662.736 159.846)" fill="none" stroke="#72501b" stroke-linecap="round" stroke-linejoin="round" stroke-width="1.5"/>
      <path id="Path_15910" data-name="Path 15910" d="M-660.111-151.038a2.073,2.073,0,0,0-1.518-.637,1.362,1.362,0,0,0-1.427.983,1.24,1.24,0,0,0,.892,1.54,5.013,5.013,0,0,1,1.372.469,1.1,1.1,0,0,1,.625,1.015,1.383,1.383,0,0,1-1.573,1.216,2.922,2.922,0,0,1-1.691-.626" transform="translate(663.432 152.903)" fill="none" stroke="#72501b" stroke-linecap="round" stroke-linejoin="round" stroke-width="1.5"/>
    </g>
  </g>
</svg>
