<svg id="transfer_ic03" xmlns="http://www.w3.org/2000/svg" xmlns:xlink="http://www.w3.org/1999/xlink" width="36" height="36" viewBox="0 0 36 36">
  <defs>
    <linearGradient id="linear-gradient" x2="0.989" y2="1" gradientUnits="objectBoundingBox">
      <stop offset="0" stop-color="#f3e0b8"/>
      <stop offset="0.134" stop-color="#f9c734"/>
      <stop offset="0.657" stop-color="#916b1f"/>
      <stop offset="1" stop-color="#72501b"/>
    </linearGradient>
  </defs>
  <rect id="Rectangle_6166" data-name="Rectangle 6166" width="36" height="36" fill="none"/>
  <g id="Group_19047" data-name="Group 19047" transform="translate(-315.481 -1159)">
    <path id="Union_41" data-name="Union 41" d="M12.452,9.179V7.826H0L3.558,2.489h8.895V1.135A1,1,0,0,1,14.11.383l4.6,4.022a1,1,0,0,1,0,1.5l-4.6,4.022a.982.982,0,0,1-.653.25A1,1,0,0,1,12.452,9.179Z" transform="translate(328.894 1168.873)" fill="#f9c734"/>
    <g id="Group_19045" data-name="Group 19045" transform="translate(323.205 1165)">
      <path id="Union_34" data-name="Union 34" d="M0,19.782c0-2.875,2.05-6.494,5.044-8.386a6.473,6.473,0,1,1,8.4,0c2.995,1.892,5.045,5.512,5.045,8.386,0,4.085-4.624,5.121-9.247,5.121S0,23.868,0,19.782Z" transform="translate(0 0)" stroke="rgba(0,0,0,0)" stroke-miterlimit="10" stroke-width="1" fill="url(#linear-gradient)"/>
      <g id="Group_18975" data-name="Group 18975" transform="translate(2.774 12.883)">
        <path id="Path_16426" data-name="Path 16426" d="M6.473,0c3.575,0,6.473,3.493,6.473,6.046s-3.236,3.2-6.473,3.2S0,8.6,0,6.046,2.9,0,6.473,0Z" transform="translate(0 0)" fill="#fff7e5"/>
      </g>
      <g id="Group_18974" data-name="Group 18974" transform="translate(5.548 2.774)">
        <circle id="Ellipse_1126" data-name="Ellipse 1126" cx="3.699" cy="3.699" r="3.699" transform="translate(0 0)" fill="#fff7e5" stroke="rgba(0,0,0,0)" stroke-miterlimit="10" stroke-width="1"/>
      </g>
    </g>
    <g id="Group_19046" data-name="Group 19046" transform="translate(320 1177.452)">
      <path id="Path_16414" data-name="Path 16414" d="M6.226,0a6.226,6.226,0,1,0,6.226,6.226A6.226,6.226,0,0,0,6.226,0Z" transform="translate(0)" fill="#f9c734"/>
      <g id="Group_18958" data-name="Group 18958" transform="translate(4.592 2.332)">
        <path id="Path_15911" data-name="Path 15911" d="M-661-153.394v1.214" transform="translate(662.736 153.394)" fill="none" stroke="#72501b" stroke-linecap="round" stroke-linejoin="round" stroke-width="1.5"/>
        <path id="Path_15912" data-name="Path 15912" d="M-661-153.394v1.214" transform="translate(662.736 159.846)" fill="none" stroke="#72501b" stroke-linecap="round" stroke-linejoin="round" stroke-width="1.5"/>
        <path id="Path_15910" data-name="Path 15910" d="M-660.111-151.038a2.073,2.073,0,0,0-1.518-.637,1.362,1.362,0,0,0-1.427.983,1.24,1.24,0,0,0,.892,1.54,5.013,5.013,0,0,1,1.372.469,1.1,1.1,0,0,1,.625,1.015,1.383,1.383,0,0,1-1.573,1.216,2.922,2.922,0,0,1-1.691-.626" transform="translate(663.432 152.903)" fill="none" stroke="#72501b" stroke-linecap="round" stroke-linejoin="round" stroke-width="1.5"/>
      </g>
    </g>
  </g>
</svg>
