<svg id="icon_48px_-_Tất_toán" data-name="icon 48px - Tất toán" xmlns="http://www.w3.org/2000/svg" xmlns:xlink="http://www.w3.org/1999/xlink" width="64" height="64" viewBox="0 0 64 64">
  <defs>
    <linearGradient id="linear-gradient" x1="-0.014" x2="1" y2="1" gradientUnits="objectBoundingBox">
      <stop offset="0" stop-color="#f3e0b8"/>
      <stop offset="0.134" stop-color="#f9c734"/>
      <stop offset="0.657" stop-color="#916b1f"/>
      <stop offset="1" stop-color="#72501b"/>
    </linearGradient>
  </defs>
  <rect id="Rectangle_11088" data-name="Rectangle 11088" width="64" height="64" rx="32" fill="rgba(255,255,255,0.12)"/>
  <g id="Group_20600" data-name="Group 20600" transform="translate(3 4.1)">
    <rect id="Rectangle_6440" data-name="Rectangle 6440" width="5.067" height="10.133" rx="2" transform="translate(18.867 7)" fill="#fff7e5"/>
    <rect id="Rectangle_6441" data-name="Rectangle 6441" width="5.067" height="10.133" rx="2" transform="translate(31.533 7)" fill="#fff7e5"/>
    <path id="Vector" d="M12.413,35.467h10.64c8.867,0,12.413-3.547,12.413-12.413V12.413C35.467,3.547,31.92,0,23.053,0H12.413C3.547,0,0,3.547,0,12.413v10.64C0,31.92,3.547,35.467,12.413,35.467Z" transform="translate(10 10.8)" stroke="rgba(0,0,0,0)" stroke-miterlimit="10" stroke-width="1" fill="url(#linear-gradient)"/>
    <path id="Subtraction_21" data-name="Subtraction 21" d="M18.418,28.336h-8.5c-3.625,0-6.045-.732-7.616-2.3S0,22.043,0,18.418V10.367H28.336v8.051c0,3.625-.731,6.045-2.3,7.615S22.044,28.336,18.418,28.336Zm9.824-20.5H.095c.274-2.8,1.169-4.761,2.737-6S6.706,0,9.918,0h8.5c3.213,0,5.532.6,7.087,1.831s2.462,3.2,2.736,6Z" transform="translate(13.565 14.366)" fill="#fff7e5"/>
    <rect id="Rectangle_6432" data-name="Rectangle 6432" width="3.8" height="3.8" rx="1" transform="translate(16.333 27.267)" fill="#f7b500"/>
    <rect id="Rectangle_6438" data-name="Rectangle 6438" width="3.8" height="3.8" rx="1" transform="translate(16.333 33.6)" fill="#72501b"/>
    <rect id="Rectangle_6433" data-name="Rectangle 6433" width="3.8" height="3.8" rx="1" transform="translate(22.667 27.267)" fill="#f7b500"/>
    <rect id="Rectangle_6437" data-name="Rectangle 6437" width="3.8" height="3.8" rx="1" transform="translate(22.667 33.6)" fill="#72501b"/>
    <rect id="Rectangle_6434" data-name="Rectangle 6434" width="3.8" height="3.8" rx="1" transform="translate(29 27.267)" fill="#72501b"/>
    <rect id="Rectangle_6436" data-name="Rectangle 6436" width="3.8" height="3.8" rx="1" transform="translate(29 33.6)" fill="#72501b"/>
    <rect id="Rectangle_6435" data-name="Rectangle 6435" width="3.8" height="3.8" rx="1" transform="translate(35.333 27.267)" fill="#72501b"/>
    <rect id="Rectangle_6439" data-name="Rectangle 6439" width="3.8" height="3.8" rx="1" transform="translate(35.333 33.6)" fill="#72501b"/>
    <path id="Path_20780" data-name="Path 20780" d="M8.867,0A8.867,8.867,0,1,1,0,8.867,8.867,8.867,0,0,1,8.867,0Z" transform="translate(30.267 31.067)" fill="#f9c734"/>
    <g id="Group_20295" data-name="Group 20295" transform="translate(35.781 33.439)">
      <path id="Union_114" data-name="Union 114" d="M2.471,11.866v-.89a4.835,4.835,0,0,1-2.2-1.06A.952.952,0,0,1,1.619,8.567a3.281,3.281,0,0,0,1.779.62h.057a1.453,1.453,0,0,0,.99-.346.609.609,0,0,0,.205-.428.643.643,0,0,0-.416-.633,4.569,4.569,0,0,0-1.3-.454c-.127-.038-.275-.077-.434-.121A2.716,2.716,0,0,1,.82,5.914,2.769,2.769,0,0,1,.57,3.83a2.721,2.721,0,0,1,1.9-1.91V.946a.948.948,0,0,1,1.9,0v.875A4.021,4.021,0,0,1,6.381,2.967l-1.4,1.279v.007a2.026,2.026,0,0,0-1.4-.607c-.992.064-1.105.46-1.182.722a.846.846,0,0,0,.08.62.826.826,0,0,0,.533.39c.152.038.293.077.42.115a5.936,5.936,0,0,1,1.754.646A2.484,2.484,0,0,1,6.551,8.382V8.4a2.525,2.525,0,0,1-.787,1.816,3.149,3.149,0,0,1-1.4.757v.893a.948.948,0,1,1-1.9,0Z" fill="#72501b"/>
    </g>
  </g>
</svg>
