<svg id="Icon_Home_Link_Wallet_-64px" data-name="Icon / Home / Link Wallet -64px" xmlns="http://www.w3.org/2000/svg" xmlns:xlink="http://www.w3.org/1999/xlink" width="64" height="64" viewBox="0 0 64 64">
  <defs>
    <linearGradient id="linear-gradient" x1="-0.014" x2="1" y2="1" gradientUnits="objectBoundingBox">
      <stop offset="0" stop-color="#f3e0b8"/>
      <stop offset="0.134" stop-color="#f9c734"/>
      <stop offset="0.657" stop-color="#916b1f"/>
      <stop offset="1" stop-color="#72501b"/>
    </linearGradient>
  </defs>
  <rect id="Rectangle_6171" data-name="Rectangle 6171" width="64" height="64" fill="none"/>
  <g id="Group_20068" data-name="Group 20068" transform="translate(-201 -995.5)">
    <g id="Group_20067" data-name="Group 20067" transform="translate(208 1003)">
      <g id="archive" transform="translate(0 0)">
        <path id="Vector" d="M17.5,50h15C45,50,50,45,50,32.5v-15C50,5,45,0,32.5,0h-15C5,0,0,5,0,17.5v15C0,45,5,50,17.5,50Z" transform="translate(0 0)" fill="url(#linear-gradient)"/>
        <path id="Vector-2" data-name="Vector" d="M13.982,39.948H25.966c9.987,0,13.982-3.995,13.982-13.982V13.982C39.948,3.995,35.953,0,25.966,0H13.982C3.995,0,0,3.995,0,13.982V25.966C0,35.953,3.995,39.948,13.982,39.948Z" transform="translate(5.026 5.026)" fill="#fff7e5"/>
        <g id="Group_20071" data-name="Group 20071" transform="translate(9.245 10.807)">
          <g id="Group">
            <path id="Vector-3" data-name="Vector" d="M4.589-.75H21.255a5.345,5.345,0,0,1,5.339,5.338V18.651a1.172,1.172,0,1,1-2.344,0,3,3,0,0,0-2.995-2.995H4.589a3,3,0,0,0-2.995,2.995,1.172,1.172,0,1,1-2.344,0V4.588A5.345,5.345,0,0,1,4.589-.75ZM24.25,14.234V4.588a3,3,0,0,0-2.995-2.995H4.589A3,3,0,0,0,1.594,4.588v9.645a5.308,5.308,0,0,1,2.995-.921H21.255A5.308,5.308,0,0,1,24.25,14.234Z" transform="translate(2.833 0.75)" fill="#72501b" stroke="#72501b" stroke-linecap="round" stroke-width="0.25"/>
            <path id="Vector-4" data-name="Vector" d="M2.505,1.594H.422a1.172,1.172,0,1,1,0-2.344H2.505a1.172,1.172,0,1,1,0,2.344Z" transform="translate(27.833 21.583)" fill="#72501b" stroke="#72501b" stroke-linecap="round" stroke-width="0.25"/>
            <path id="Vector-5" data-name="Vector" d="M2.505,1.594H.422a1.172,1.172,0,1,1,0-2.344H2.505a1.172,1.172,0,1,1,0,2.344Z" transform="translate(0.75 21.583)" fill="#72501b" stroke="#72501b" stroke-linecap="round" stroke-width="0.25"/>
          </g>
          <path id="Vector-6" data-name="Vector" d="M25.422,12.01a1.172,1.172,0,0,1-1.172-1.172V4.588a3,3,0,0,0-2.995-2.995H4.589A3,3,0,0,0,1.594,4.588v6.25a1.172,1.172,0,0,1-2.344,0V4.588A5.345,5.345,0,0,1,4.589-.75H21.255a5.345,5.345,0,0,1,5.339,5.338v6.25A1.172,1.172,0,0,1,25.422,12.01Z" transform="translate(2.833 7.521)" fill="#72501b" stroke="#72501b" stroke-linecap="round" stroke-width="0.25"/>
          <path id="Vector-7" data-name="Vector" d="M4.589-.75H21.255a5.345,5.345,0,0,1,5.339,5.338v2.6a1.172,1.172,0,0,1-1.172,1.172H19.194a6.381,6.381,0,0,1-12.545,0H.422A1.172,1.172,0,0,1-.75,7.193v-2.6A5.345,5.345,0,0,1,4.589-.75ZM24.25,6.021V4.588a3,3,0,0,0-2.995-2.995H4.589A3,3,0,0,0,1.594,4.588V6.021h6.12A1.172,1.172,0,0,1,8.885,7.193a4.036,4.036,0,0,0,8.073,0A1.172,1.172,0,0,1,18.13,6.021Z" transform="translate(2.833 14.813)" fill="#72501b" stroke="#72501b" stroke-linecap="round" stroke-width="0.25"/>
        </g>
        <path id="Vector-8" data-name="Vector" d="M0,0H50V50H0Z" transform="translate(0 0)" fill="none" opacity="0"/>
      </g>
    </g>
    <g id="Group_19071" data-name="Group 19071" transform="translate(234.667 1029.667)">
      <path id="Path_16414" data-name="Path 16414" d="M11.667,0A11.667,11.667,0,1,0,23.333,11.667,11.667,11.667,0,0,0,11.667,0Z" transform="translate(0)" fill="#f9c734"/>
      <path id="Union_68" data-name="Union 68" d="M5.6,12.547V8.285H1.344a1.338,1.338,0,1,1,0-2.676H5.6V1.344a1.342,1.342,0,1,1,2.684,0V5.609h4.254a1.338,1.338,0,1,1,0,2.676H8.281v4.262a1.342,1.342,0,0,1-2.684,0Z" transform="translate(4.729 4.722)" fill="#72501b"/>
    </g>
  </g>
</svg>
