<svg id="icon_24px_default_acc_disable" data-name="icon 24px / default acc / disable" xmlns="http://www.w3.org/2000/svg" width="24" height="24" viewBox="0 0 24 24">
  <rect id="Rectangle_6446" data-name="Rectangle 6446" width="24" height="24" fill="none"/>
  <g id="Group_19790" data-name="Group 19790" transform="translate(-126.003 -127.003)">
    <path id="Subtraction_54" data-name="Subtraction 54" d="M17830.684,23672h-7.348a3.263,3.263,0,0,1-3.334-3.338v-12.328a3.261,3.261,0,0,1,3.334-3.334h11.109a2.106,2.106,0,0,1,2.223,2.223v2.223a2.1,2.1,0,0,1,2.221,2.221v3.852a6.02,6.02,0,0,0-2.221-1.9v-1.955h-13.332a3.216,3.216,0,0,1-1.107-.223l0,9.219a1.041,1.041,0,0,0,1.111,1.111h5.342a6.041,6.041,0,0,0,2,2.225Zm-7.348-16.777a1.111,1.111,0,0,0,0,2.223h11.109v-2.223Zm14.184,16.637h0a6.141,6.141,0,0,0,1.2-1.158A1.983,1.983,0,0,1,17837.52,23671.861Z" transform="translate(-17692 -23524)" fill="rgba(255,255,255,0.6)"/>
    <g id="Group_19791" data-name="Group 19791" transform="translate(17820 23653)">
      <path id="Ellipse_1140" data-name="Ellipse 1140" d="M4-.5A4.5,4.5,0,1,0,8.5,4,4.5,4.5,0,0,0,4-.5M4-2A6,6,0,1,1-2,4,6.007,6.007,0,0,1,4-2Z" transform="translate(-17682 -23514)" fill="rgba(255,255,255,0.6)"/>
      <path id="Path_16566" data-name="Path 16566" d="M10.026,6.759C9.6,7.277,8.848,8.133,8.848,8.133s.123.94.192,1.581c.03.327-.206.468-.473.341C8.059,9.8,7.287,9.4,7.113,9.316l-1.471.731a.313.313,0,0,1-.478-.34c.07-.641.194-1.579.194-1.579S4.6,7.273,4.167,6.756c-.152-.188-.054-.455.246-.5.612-.116,1.56-.3,1.56-.3S6.491,5,6.819,4.41c.181-.356.306-.315.327-.3.056.019.144.088.258.3.324.586.837,1.544.837,1.544s.937.184,1.542.3a.312.312,0,0,1,.243.5Z" transform="translate(-17685.096 -23517.098)" fill="rgba(255,255,255,0.6)"/>
    </g>
  </g>
</svg>
