<svg id="ic_eye-open" xmlns="http://www.w3.org/2000/svg" width="16" height="16" viewBox="0 0 16 16">
  <g id="eye" opacity="0.7">
    <rect id="Rectangle_3984" data-name="Rectangle 3984" width="16" height="16" fill="none"/>
    <path id="Path_10211" data-name="Path 10211" d="M5.994,10.981c2.694,0,4.79-2.32,5.688-3.667a1.46,1.46,0,0,0,0-1.721C10.784,4.32,8.688,2,5.994,2S1.2,4.32.306,5.667a1.347,1.347,0,0,0,0,1.647C1.2,8.661,3.3,10.981,5.994,10.981Zm0-6.736A2.205,2.205,0,0,1,8.239,6.491,2.205,2.205,0,0,1,5.994,8.736,2.205,2.205,0,0,1,3.748,6.491,2.205,2.205,0,0,1,5.994,4.245Z" transform="translate(1.975 1.509)" fill="rgba(255,255,255,0.87)"/>
  </g>
</svg>
