<svg xmlns="http://www.w3.org/2000/svg" width="24" height="24" viewBox="0 0 24 24"><defs><style>.a{fill:#333;}</style></defs><g transform="translate(-4 -4)"><g transform="translate(4 4)"><path class="a" d="M9,1a8.914,8.914,0,0,0-9,9c0,5.55,9,13.5,9,13.5s9-7.95,9-13.5A8.914,8.914,0,0,0,9,1ZM9,13a3,3,0,1,1,3-3A3.009,3.009,0,0,1,9,13Z" transform="translate(0 0.5)"/><path class="a" d="M15.95,10.5a11.906,11.906,0,0,1-1.2,4.8c1.95-2.25,4.2-5.4,4.2-7.95A7.345,7.345,0,0,0,11.6,0a5.1,5.1,0,0,0-1.5.15A11.794,11.794,0,0,1,15.95,10.5Z" transform="translate(5.05)"/></g></g></svg>