<svg xmlns="http://www.w3.org/2000/svg" width="24" height="24" viewBox="0 0 24 24">
  <g id="lang_en" transform="translate(5707 10688)">
    <rect id="Rectangle_6280" data-name="Rectangle 6280" width="24" height="24" transform="translate(-5707 -10688)" fill="none"/>
    <g id="Group_16760" data-name="Group 16760" transform="translate(-38.968 23.032)">
      <circle id="Ellipse_1152" data-name="Ellipse 1152" cx="8" cy="8" r="8" transform="translate(-5664.032 -10707.032)" fill="#f0f0f0"/>
      <path id="Path_16629" data-name="Path 16629" d="M244.87,191.287h8.283a7.946,7.946,0,0,0-.273-2.07h-8.01Z" transform="translate(-5901.277 -10890.349)" fill="#d80027"/>
      <path id="Path_16630" data-name="Path 16630" d="M244.87,57.722h7.118a7.979,7.979,0,0,0-1.832-2.07H244.87Z" transform="translate(-5901.277 -10760.926)" fill="#d80027"/>
      <path id="Path_16631" data-name="Path 16631" d="M101.585,458.074a7.9,7.9,0,0,0,4.941-1.726H96.644A7.9,7.9,0,0,0,101.585,458.074Z" transform="translate(-5757.646 -11149.196)" fill="#d80027"/>
      <path id="Path_16632" data-name="Path 16632" d="M9.711,324.852H23.256a7.891,7.891,0,0,0,.892-2.07H8.819a7.891,7.891,0,0,0,.892,2.07Z" transform="translate(-5672.545 -11019.771)" fill="#d80027"/>
      <path id="Path_16633" data-name="Path 16633" d="M3.677,1.24H4.4l-.673.489.257.794-.673-.491-.673.489.222-.683A7.981,7.981,0,0,0,1.323,3.552h.232l-.43.311q-.1.167-.192.339l.2.63L.755,4.555q-.142.3-.259.617l.226.694h.831L.88,6.35l.257.794L.463,6.655l-.4.29A8.014,8.014,0,0,0,0,7.938H7.938V0A7.9,7.9,0,0,0,3.677,1.24Zm.308,5.9-.673-.489-.673.489L2.9,6.35l-.673-.486h.831l.257-.794.257.794H4.4l-.673.486Zm-.257-3.1.257.794-.673-.492-.673.486L2.9,4.035l-.673-.483h.831l.257-.794.257.794H4.4Zm3.1,3.1-.673-.489-.673.489.257-.794L5.07,5.864H5.9l.257-.794.257.794h.831l-.673.486Zm-.257-3.1.257.794-.673-.492-.673.486.257-.794L5.07,3.552H5.9l.257-.794.258.794h.831Zm0-2.315.257.794-.673-.489-.673.489.257-.794L5.07,1.24H5.9L6.158.446l.257.794h.831Z" transform="translate(-5663.999 -10706.999)" fill="#0052b4"/>
    </g>
  </g>
</svg>
