<svg xmlns="http://www.w3.org/2000/svg" width="7" height="7" viewBox="0 0 7 7">
  <g id="edit_ic" transform="translate(-1.499 -1.554)">
    <path id="Path_16481" data-name="Path 16481" d="M4.985,2.5,2.161,5.324a.9.9,0,0,0-.167.193.9.9,0,0,0-.068.246L1.611,7.34c-.029.143-.043.214,0,.255s.112.026.255,0l1.577-.315a.9.9,0,0,0,.246-.068.9.9,0,0,0,.193-.167L6.7,4.219Z" transform="translate(0.453 0.397)" fill="#fff"/>
    <path id="Path_16482" data-name="Path 16482" d="M2.144,6.766h0l.011,0h0l1.153-.288.021-.005A1.057,1.057,0,0,0,3.6,6.375a1.056,1.056,0,0,0,.221-.185l.015-.016L6.994,3.019h0l.012-.012a4.048,4.048,0,0,0,.34-.366.7.7,0,0,0,.164-.428.7.7,0,0,0-.164-.428,4.049,4.049,0,0,0-.34-.366l-.012-.012L6.919,1.33l-.012-.012a4.047,4.047,0,0,0-.366-.34.643.643,0,0,0-.857,0,4.048,4.048,0,0,0-.366.34l-.012.012L2.15,4.486,2.134,4.5a1.056,1.056,0,0,0-.185.221A1.056,1.056,0,0,0,1.855,5l-.005.021L1.558,6.181l0,.013a1.541,1.541,0,0,0-.042.209.356.356,0,0,0,.409.409,1.541,1.541,0,0,0,.209-.042Z" transform="translate(0.49 1.24)" fill="none" stroke="#fff" stroke-width="1"/>
    <path id="Path_16483" data-name="Path 16483" d="M9.5,2.5l2,2" transform="translate(-4.343 0.397)" fill="none" stroke="#fff" stroke-width="1"/>
  </g>
</svg>
