<svg id="Icon_24px_Login_HD_Bao_mat" data-name="Icon 24px / Login  / HD Bao mat" xmlns="http://www.w3.org/2000/svg" width="24" height="24" viewBox="0 0 24 24">
  <rect id="Rectangle_6388" data-name="Rectangle 6388" width="24" height="24" fill="none"/>
  <path id="Exclusion_35" data-name="Exclusion 35" d="M-3959.333-1387H-3966a5.006,5.006,0,0,1-5-5v-10a5.006,5.006,0,0,1,5-5h6.666a5.006,5.006,0,0,1,5,5v10A5.006,5.006,0,0,1-3959.333-1387Zm-6.707-15.725a1.155,1.155,0,0,0-.584.125c-1.25.718-1.25,2.262-1.25,4.05,0,4.071,2.836,7.35,5.183,7.35h.009a4.233,4.233,0,0,0,2.855-1.459,8.445,8.445,0,0,0,2.361-5.849c.024-1.6.052-3.4-1.324-4.15a.916.916,0,0,0-.542-.141,5.887,5.887,0,0,0-1.3.236,8.451,8.451,0,0,1-2.024.33h-.025a9.69,9.69,0,0,1-2.007-.282A7.1,7.1,0,0,0-3966.041-1402.725Zm3.35,9.858a3.252,3.252,0,0,1-2.142-1.5,7.108,7.108,0,0,1-1.374-4.184,10.9,10.9,0,0,1,.115-2.067.985.985,0,0,1,.176-.432,6.027,6.027,0,0,1,.884.166,11.017,11.017,0,0,0,2.341.317h.034a9.955,9.955,0,0,0,2.425-.376c.23-.063.553-.141.759-.174a1.171,1.171,0,0,1,.241.55,9.283,9.283,0,0,1,.1,1.918v.165a6.728,6.728,0,0,1-1.875,4.65A2.745,2.745,0,0,1-3962.691-1392.867Z" transform="translate(3974.668 1409)" fill="rgba(255,255,255,0.87)"/>
</svg>
