<svg id="Icon_24px_Login_HDSD" data-name="Icon 24px / Login  / HDSD" xmlns="http://www.w3.org/2000/svg" width="24" height="24" viewBox="0 0 24 24">
  <rect id="Rectangle_6385" data-name="Rectangle 6385" width="24" height="24" fill="none"/>
  <path id="Exclusion_34" data-name="Exclusion 34" d="M-3783.333-1387h-6.31v-20h6.31a5.005,5.005,0,0,1,5,5v10A5.005,5.005,0,0,1-3783.333-1387Zm-4.227-10a.834.834,0,0,0-.833.833.834.834,0,0,0,.833.833h4.167a.834.834,0,0,0,.833-.833.834.834,0,0,0-.833-.833Zm0-4.166a.834.834,0,0,0-.833.833.834.834,0,0,0,.833.832h6.667a.834.834,0,0,0,.833-.832.834.834,0,0,0-.833-.833Zm-2.583,14.166h-1.167v-.173a5.011,5.011,0,0,0,1.167.171Zm-1.167-.173h0A5.009,5.009,0,0,1-3795-1392v-10a5.008,5.008,0,0,1,3.691-4.827v19.652Zm0-19.653h0V-1407h1.273a5.022,5.022,0,0,0-1.272.173Z" transform="translate(3798.668 1409)" fill="rgba(255,255,255,0.87)"/>
</svg>
