<svg id="Icon_24px_Login_ATM" data-name="Icon 24px / Login  / ATM" xmlns="http://www.w3.org/2000/svg" width="24" height="24" viewBox="0 0 24 24">
  <rect id="Rectangle_6389" data-name="Rectangle 6389" width="24" height="24" fill="none"/>
  <path id="Exclusion_36" data-name="Exclusion 36" d="M-3280.542-361h0a45.022,45.022,0,0,1-3.728-4.36c-1.7-2.277-3.729-5.539-3.729-8.148a7.4,7.4,0,0,1,7.457-7.492,7.4,7.4,0,0,1,7.458,7.492c0,2.609-2.028,5.871-3.729,8.148a45.121,45.121,0,0,1-3.728,4.36Zm.042-15.833a3.337,3.337,0,0,0-3.333,3.334,3.337,3.337,0,0,0,3.333,3.333,3.337,3.337,0,0,0,3.334-3.333A3.338,3.338,0,0,0-3280.5-376.834Zm0,5a1.668,1.668,0,0,1-1.667-1.666,1.669,1.669,0,0,1,1.667-1.667,1.669,1.669,0,0,1,1.667,1.667A1.669,1.669,0,0,1-3280.5-371.833Z" transform="translate(3292.543 383)" fill="rgba(255,255,255,0.87)"/>
</svg>
