<svg id="Icon_24px_Login_Quy_dinh_su_dung" data-name="Icon 24px / Login  / Quy dinh su dung" xmlns="http://www.w3.org/2000/svg" width="24" height="24" viewBox="0 0 24 24">
  <rect id="Rectangle_6387" data-name="Rectangle 6387" width="24" height="24" fill="none"/>
  <g id="content-marketing" transform="translate(-8.776 -8.814)">
    <path id="Subtraction_10" data-name="Subtraction 10" d="M13.954,17.709H3.28A3.288,3.288,0,0,1,0,14.43V3.279A3.287,3.287,0,0,1,3.279,0H14.43a3.288,3.288,0,0,1,3.28,3.279V13.612L16.128,12.03a5.475,5.475,0,0,0-2.815-1.5l-2.152-.435-.028,0a.74.74,0,0,0-.122-.013.763.763,0,0,0-.744.619.846.846,0,0,0,0,.292l.426,2.161a5.553,5.553,0,0,0,1.5,2.806l1.755,1.755ZM3.921,6.558a.886.886,0,1,0,0,1.771h9.74a.886.886,0,1,0,0-1.771ZM7.464,3.017a.885.885,0,1,0,0,1.77h6.2a.885.885,0,1,0,0-1.77Zm-3.542,0a.885.885,0,1,0,.886.885A.886.886,0,0,0,3.921,3.017ZM16.827,17.671a.986.986,0,0,1-.708-.3L13.454,14.7a3.679,3.679,0,0,1-1.018-1.9l-.142-.673.673.133a3.626,3.626,0,0,1,1.9,1.018l2.674,2.665a1.028,1.028,0,0,1,.165.221v.987a1.023,1.023,0,0,1-.882.519Z" transform="translate(11.984 11.979)" fill="rgba(255,255,255,0.87)"/>
    <path id="Path_10135" data-name="Path 10135" d="M26.916,28.679l-.542.542-2.667-2.667a4.739,4.739,0,0,1-1.3-2.423l-.431-2.156,2.156.431c.073.014.144.031.216.05l.569,3.1a4.739,4.739,0,0,0,1.3,2.423ZM14.142,26.007V15.659a3.807,3.807,0,0,1,3.807-3.807l8.064-.029v-.008l-10.346.04a3.807,3.807,0,0,0-3.807,3.807V26.007a3.807,3.807,0,0,0,3.807,3.807l1.981-.012A3.807,3.807,0,0,1,14.142,26.007Z" fill="none"/>
  </g>
</svg>
