<svg id="account" xmlns="http://www.w3.org/2000/svg" width="64" height="64" viewBox="0 0 64 64">
  <rect id="Rectangle_6164" data-name="Rectangle 6164" width="64" height="64" fill="none"/>
  <g id="Group_19051" data-name="Group 19051" transform="translate(-248.5 -889.952)">
    <rect id="Rectangle_6255" data-name="Rectangle 6255" width="32.516" height="9.29" transform="translate(259.097 903.097)" fill="none"/>
    <rect id="Rectangle_6256" data-name="Rectangle 6256" width="41.806" height="29.419" transform="translate(259.097 912.386)" fill="none"/>
    <g id="Group_19057" data-name="Group 19057" transform="translate(256 900)">
      <path id="Union_42" data-name="Union 42" d="M5.42,44.9A5.426,5.426,0,0,1,0,39.484V7.742l.044.011A6.972,6.972,0,0,1,6.968,0H31.742a6.976,6.976,0,0,1,6.966,6.968V9.291H42.58A5.424,5.424,0,0,1,48,14.71V39.484a5.426,5.426,0,0,1-5.42,5.42Zm-.775-5.42a.775.775,0,0,0,.775.773H42.58a.775.775,0,0,0,.775-.773V14.71a.775.775,0,0,0-.775-.773H4.645Zm0-32.516A2.327,2.327,0,0,0,6.968,9.291h27.1V6.968a2.325,2.325,0,0,0-2.322-2.323H6.968A2.327,2.327,0,0,0,4.645,6.968Z" transform="translate(0 0)" fill="#fff"/>
    </g>
    <g id="Group_19058" data-name="Group 19058" transform="translate(266.839 919.355)">
      <g id="Group_18303" data-name="Group 18303" transform="translate(0 0)">
        <path id="Path_15435" data-name="Path 15435" d="M-76.386-29.97c-.01,0-.907-.006-.907-.006v15.4c.011,0,.907,0,.907,0Z" transform="translate(84.581 30.013)" fill="#fff"/>
        <g id="Group_18300" data-name="Group 18300" transform="translate(0 0.094)">
          <path id="Path_15436" data-name="Path 15436" d="M-80.972-23.484a2.755,2.755,0,0,1-.04-.336,1.4,1.4,0,0,1,1.157-1.369c-2,.073-2.079,1.442-2.064,1.7a7.741,7.741,0,0,0,7.19,6.32l.424.017h.424l.033,0v-1.593a.839.839,0,0,1-.914.647A6.811,6.811,0,0,1-80.972-23.484Z" transform="translate(82.043 32.544)" fill="#fff"/>
          <g id="Group_18299" data-name="Group 18299" transform="translate(0 0)">
            <path id="Path_15437" data-name="Path 15437" d="M-75.22-29.939a7.742,7.742,0,0,0-6.774,7.392h0v0h0c0,.093-.006.186-.006.28a7.864,7.864,0,0,0,.13,1.411s-.06-1.691,2.214-1.691h4.436Z" transform="translate(82 29.939)" fill="#fff"/>
          </g>
        </g>
        <g id="Group_18302" data-name="Group 18302" transform="translate(7.288)">
          <path id="Path_15438" data-name="Path 15438" d="M-70.169-23.67a2.7,2.7,0,0,1,.04.336,1.4,1.4,0,0,1-1.157,1.369c2-.073,2.079-1.442,2.064-1.7a7.741,7.741,0,0,0-7.19-6.32L-76.836-30h-.424l-.033,0V-28.4a.841.841,0,0,1,.914-.649A6.813,6.813,0,0,1-70.169-23.67Z" transform="translate(77.293 30)" fill="#fff"/>
          <g id="Group_18301" data-name="Group 18301" transform="translate(1.415 6.302)">
            <path id="Path_15439" data-name="Path 15439" d="M-76.379-16.843A7.742,7.742,0,0,0-69.6-24.235h0v0h0c0-.093.006-.186.006-.28a7.864,7.864,0,0,0-.13-1.411s.06,1.691-2.214,1.691h-4.436Z" transform="translate(76.379 25.93)" fill="#fff"/>
          </g>
        </g>
      </g>
    </g>
    <path id="Rectangle_6257" data-name="Rectangle 6257" d="M4,0H15.484a0,0,0,0,1,0,0V9.29a0,0,0,0,1,0,0H4a4,4,0,0,1-4-4V4A4,4,0,0,1,4,0Z" transform="translate(288.515 922.452)" fill="#fff"/>
  </g>
</svg>
