<svg id="card" xmlns="http://www.w3.org/2000/svg" width="64" height="64" viewBox="0 0 64 64">
  <rect id="Rectangle_6168" data-name="Rectangle 6168" width="64" height="64" fill="none"/>
  <path id="Path_19311" data-name="Path 19311" d="M20470.01-16643.707a3.3,3.3,0,0,1-3.311-3.311v-29.795a3.308,3.308,0,0,1,3.311-3.311h41.379a3.318,3.318,0,0,1,3.311,3.311v29.795a3.308,3.308,0,0,1-3.311,3.311Zm1.652-6.621a1.649,1.649,0,0,0,1.658,1.652h34.758a1.66,1.66,0,0,0,1.658-1.652v-13.242h-38.074Zm0-23.174v4.963h38.074v-4.963a1.664,1.664,0,0,0-1.658-1.658h-34.758A1.653,1.653,0,0,0,20471.662-16673.5Zm5.236,20.852a1.44,1.44,0,0,1-1.437-1.441,1.438,1.438,0,0,1,1.438-1.441h9.607a1.452,1.452,0,0,1,1.441,1.441,1.453,1.453,0,0,1-1.441,1.441Z" transform="translate(-20458.703 16693.914)" fill="#fff"/>
</svg>
