<svg xmlns="http://www.w3.org/2000/svg" xmlns:xlink="http://www.w3.org/1999/xlink" width="64" height="64" viewBox="0 0 64 64">
  <defs>
    <clipPath id="clip-path">
      <rect id="Rectangle_6491" data-name="Rectangle 6491" width="64" height="64" transform="translate(1782 269)" fill="#fff"/>
    </clipPath>
  </defs>
  <g id="menu_ic_favourite" transform="translate(-1782 -269)" clip-path="url(#clip-path)">
    <path id="Path_19313" data-name="Path 19313" d="M18375.9-16523.875a8.961,8.961,0,0,1-2.635-6.371,9.011,9.011,0,0,1,9-9,9.012,9.012,0,0,1,9,9,9.014,9.014,0,0,1-9,9.006A8.952,8.952,0,0,1,18375.9-16523.875Zm.691-6.371a.988.988,0,0,0,1,1h3.67v3.684a1,1,0,0,0,1,1,1,1,0,0,0,1-1v-3.684h3.322a1,1,0,0,0,1-1,1,1,0,0,0-1-1h-3.322v-3.324a1,1,0,0,0-1-1,1,1,0,0,0-1,1v3.324h-3.67A1,1,0,0,0,18376.6-16530.246Zm-20.912,6.592a1.858,1.858,0,0,1-.734-1.809l2.2-12.693-9.3-8.992a1.863,1.863,0,0,1-.475-1.9,1.858,1.858,0,0,1,1.494-1.266l12.846-1.842,5.742-11.561a1.877,1.877,0,0,1,1.656-1.029h.006a1.877,1.877,0,0,1,1.656,1.029l5.746,11.553,12.846,1.846a1.856,1.856,0,0,1,1.5,1.26,1.843,1.843,0,0,1-.477,1.9l-6.494,6.281a11.237,11.237,0,0,0-1.615-.119,10.947,10.947,0,0,0-4.611,1.01c.047-.055.1-.111.148-.162l7.283-7.043-10.062-1.449a1.854,1.854,0,0,1-1.393-1.006l-4.523-9.094-4.52,9.1a1.851,1.851,0,0,1-1.393,1.006l-10.072,1.455,7.293,7.043a1.872,1.872,0,0,1,.535,1.648l-1.721,9.965,9.031-4.713a1.842,1.842,0,0,1,.859-.207,1.836,1.836,0,0,1,.854.207l1.564.813a11.088,11.088,0,0,0-.271,2.432,11.242,11.242,0,0,0,.125,1.672l-2.277-1.191-11.492,6.01a1.936,1.936,0,0,1-.854.2A1.827,1.827,0,0,1,18355.684-16523.654Z" transform="translate(-16555.281 16843.746)" fill="#fff7e5" stroke="rgba(0,0,0,0)" stroke-width="1"/>
  </g>
</svg>
