<svg xmlns="http://www.w3.org/2000/svg" xmlns:xlink="http://www.w3.org/1999/xlink" width="64" height="64" viewBox="0 0 64 64">
  <defs>
    <linearGradient id="linear-gradient" x2="0.989" y2="1" gradientUnits="objectBoundingBox">
      <stop offset="0" stop-color="#f3e0b8"/>
      <stop offset="0.134" stop-color="#f9c734"/>
      <stop offset="0.657" stop-color="#916b1f"/>
      <stop offset="1" stop-color="#72501b"/>
    </linearGradient>
  </defs>
  <g id="funtion_ic_bdsd" transform="translate(-25.293 6.488)">
    <rect id="Rectangle_6171" data-name="Rectangle 6171" width="64" height="64" transform="translate(25.293 -6.488)" fill="none"/>
    <g id="Group_18981" data-name="Group 18981" transform="translate(-413.707 -952.989)">
      <rect id="Rectangle_6153" data-name="Rectangle 6153" width="42" height="33" rx="2" transform="translate(453 961)" fill="url(#linear-gradient)"/>
      <rect id="Rectangle_6154" data-name="Rectangle 6154" width="33" height="24" rx="1" transform="translate(457.5 965.5)" fill="#fff7e5"/>
      <path id="Path_10445" data-name="Path 10445" d="M13.436,30.468l2.733-2.937a3.877,3.877,0,0,1,5.965-.183l.774.792a4.66,4.66,0,0,0,7.264-.1l3.5-4.2m-3.5-3.689,5.333-.455a2.037,2.037,0,0,1,2.029,2.044,1.7,1.7,0,0,1-.009.184l-.481,5.231" transform="translate(448.515 950.306)" fill="none" stroke="#72501b" stroke-linecap="round" stroke-width="1.5"/>
      <g id="Group_18980" data-name="Group 18980" transform="translate(447 976)">
        <path id="Path_16389" data-name="Path 16389" d="M10.5,0A10.5,10.5,0,1,1,0,10.5,10.5,10.5,0,0,1,10.5,0Z" fill="#f9c734"/>
        <g id="Group_18541" data-name="Group 18541" transform="translate(7.655 3.933)">
          <path id="Path_15911" data-name="Path 15911" d="M-661-153.394v2.047" transform="translate(663.928 153.394)" fill="none" stroke="#72501b" stroke-linecap="round" stroke-linejoin="round" stroke-width="1.5"/>
          <path id="Path_15912" data-name="Path 15912" d="M-661-153.394v2.047" transform="translate(663.928 164.276)" fill="none" stroke="#72501b" stroke-linecap="round" stroke-linejoin="round" stroke-width="1.5"/>
          <path id="Path_15910" data-name="Path 15910" d="M-657.832-150.6a3.5,3.5,0,0,0-2.561-1.074,2.3,2.3,0,0,0-2.407,1.658,2.091,2.091,0,0,0,1.5,2.6,8.46,8.46,0,0,1,2.315.79,1.851,1.851,0,0,1,1.054,1.712,2.332,2.332,0,0,1-2.653,2.051,4.927,4.927,0,0,1-2.852-1.055" transform="translate(663.432 153.744)" fill="none" stroke="#72501b" stroke-linecap="round" stroke-linejoin="round" stroke-width="1.5"/>
        </g>
      </g>
    </g>
  </g>
</svg>
