<svg id="funtion_ic_atm" xmlns="http://www.w3.org/2000/svg" xmlns:xlink="http://www.w3.org/1999/xlink" width="64" height="64" viewBox="0 0 64 64">
  <defs>
    <linearGradient id="linear-gradient" x2="0.989" y2="1" gradientUnits="objectBoundingBox">
      <stop offset="0" stop-color="#f3e0b8"/>
      <stop offset="0.134" stop-color="#f9c734"/>
      <stop offset="0.657" stop-color="#916b1f"/>
      <stop offset="1" stop-color="#72501b"/>
    </linearGradient>
  </defs>
  <rect id="Rectangle_6170" data-name="Rectangle 6170" width="64" height="64" fill="none"/>
  <g id="Group_18952" data-name="Group 18952" transform="translate(-316 -833)">
    <g id="Group_18950" data-name="Group 18950" transform="translate(325 839)">
      <path id="Path_16403" data-name="Path 16403" d="M-37.579,19.805v.41a8.976,8.976,0,0,1-.066,1.147l-.1.606c-1,5.556-6.014,13.815-13.733,22.6l-.77.852c-6.637-7.44-14.5-18.42-14.5-25.189v-.164A14.31,14.31,0,0,1-62.6,9.874,14.283,14.283,0,0,1-52.476,5.58h.1l.164.016h.115l.164-.016A14.41,14.41,0,0,1-37.579,19.805Z" transform="translate(71.667 -0.664)" fill="#fff7e5"/>
      <path id="Path_16404" data-name="Path 16404" d="M-50.018,2.58a1.082,1.082,0,0,0-.229.016.866.866,0,0,0-.213-.016h-.131A19.315,19.315,0,0,0-69.75,22.016v.131c0,13.094,19.5,32.432,19.5,32.432l4.343-4.785c5.179-5.916,13.373-16.372,14.913-25.041l.033-.049a14.953,14.953,0,0,0,.213-2.557v-.492A19.284,19.284,0,0,0-50.018,2.58Zm14.356,19.551a8.974,8.974,0,0,1-.066,1.147l-.1.606c-1,5.556-6.014,13.815-13.733,22.6l-.77.852c-6.637-7.44-14.5-18.42-14.5-25.189v-.164A14.31,14.31,0,0,1-60.687,11.79,14.283,14.283,0,0,1-50.559,7.5h.1l.164.016h.115l.164-.016A14.41,14.41,0,0,1-35.662,21.722Z" transform="translate(69.75 -2.58)" fill="url(#linear-gradient)"/>
    </g>
    <circle id="Ellipse_1119" data-name="Ellipse 1119" cx="6" cy="6" r="6" transform="translate(338.302 849.5)" fill="#72501b"/>
    <g id="Group_18951" data-name="Group 18951" transform="translate(347.533 861.533)">
      <path id="Path_16286" data-name="Path 16286" d="M12.133,0A12.133,12.133,0,1,1,0,12.133,12.133,12.133,0,0,1,12.133,0Z" fill="#f9c734"/>
      <g id="Group_18835" data-name="Group 18835" transform="translate(5.621 5.624)">
        <path id="Union_59" data-name="Union 59" d="M11.242,12.711,8.148,9.617a5.186,5.186,0,0,1-2.9.875A5.252,5.252,0,1,1,9.617,8.148l3.1,3.094a1.044,1.044,0,0,1,0,1.469,1.023,1.023,0,0,1-.738.309A1.036,1.036,0,0,1,11.242,12.711ZM2.078,5.242a3.168,3.168,0,0,0,5.4,2.25l0,0L7.5,7.477A3.168,3.168,0,1,0,2.078,5.242Z" fill="#72501b"/>
      </g>
    </g>
  </g>
</svg>
