<svg id="Icon_Home_Sercurity_Method_-64px" data-name="Icon / Home / Sercurity Method -64px" xmlns="http://www.w3.org/2000/svg" xmlns:xlink="http://www.w3.org/1999/xlink" width="64" height="64" viewBox="0 0 64 64">
  <defs>
    <linearGradient id="linear-gradient" x2="1" y2="1" gradientUnits="objectBoundingBox">
      <stop offset="0" stop-color="#f3e0b8"/>
      <stop offset="0.134" stop-color="#f9c734"/>
      <stop offset="0.657" stop-color="#916b1f"/>
      <stop offset="1" stop-color="#72501b"/>
    </linearGradient>
  </defs>
  <rect id="Rectangle_6170" data-name="Rectangle 6170" width="64" height="64" fill="none"/>
  <g id="Group_18995" data-name="Group 18995" transform="translate(-622.403 -177)">
    <g id="Group_18992" data-name="Group 18992" transform="translate(629.807 186.323)">
      <path id="Path_16444" data-name="Path 16444" d="M278.1,270.137a20.842,20.842,0,0,1-4.921,7.663,26.688,26.688,0,0,1-9.987,5.857c-.1.016-.1.065-.486-.033a26.552,26.552,0,0,1-9.89-5.824,20.506,20.506,0,0,1-4.921-7.663c-2.072-5.6-1.942-11.99-1.845-17.131.016-.472.032-.96.049-1.5a2.374,2.374,0,0,1,2.25-2.326,21.213,21.213,0,0,0,14.309-6.036.477.477,0,0,1,.34-.146.442.442,0,0,1,.324.114,21.165,21.165,0,0,0,14.325,6.068,2.385,2.385,0,0,1,2.266,2.31c0,.553.016,1.041.032,1.48C280.056,258.114,280.169,264.508,278.1,270.137Z" transform="translate(-241.366 -238.497)" fill="#fff7e5"/>
      <path id="Path_16443" data-name="Path 16443" d="M286.218,254.422c-.016-.4-.032-.833-.032-1.314a7.191,7.191,0,0,0-6.779-7.019,16.219,16.219,0,0,1-11.185-4.7A5.325,5.325,0,0,0,264.712,240a5.473,5.473,0,0,0-3.75,1.474,16.148,16.148,0,0,1-11.089,4.615,7.167,7.167,0,0,0-6.779,7.019c-.016.481-.032.913-.048,1.474-.1,5.464-.24,12.259,2.131,18.621a24.8,24.8,0,0,0,6.025,9.343,31.167,31.167,0,0,0,11.586,6.827,5.168,5.168,0,0,0,.753.192,5.318,5.318,0,0,0,1.154.112,4.706,4.706,0,0,0,1.042-.112,4.568,4.568,0,0,0,.769-.208,30.974,30.974,0,0,0,11.538-6.811,25.091,25.091,0,0,0,6.041-9.343C286.458,266.81,286.33,260,286.218,254.422Zm-6.634,17.115a20.517,20.517,0,0,1-4.872,7.548,26.45,26.45,0,0,1-9.887,5.769c-.1.016-.1.064-.481-.032a26.314,26.314,0,0,1-9.791-5.737,20.189,20.189,0,0,1-4.872-7.548c-2.051-5.513-1.923-11.81-1.827-16.874.016-.465.032-.945.048-1.474a2.344,2.344,0,0,1,2.228-2.292,21.054,21.054,0,0,0,14.166-5.945.474.474,0,0,1,.337-.144.438.438,0,0,1,.32.112,21.006,21.006,0,0,0,14.182,5.977,2.355,2.355,0,0,1,2.244,2.276c0,.545.016,1.026.032,1.458C281.522,259.695,281.634,265.993,279.583,271.537Z" transform="translate(-243.003 -240)" stroke="rgba(0,0,0,0)" stroke-miterlimit="10" stroke-width="1" fill="url(#linear-gradient)"/>
      <g id="Group_18993" data-name="Group 18993" transform="translate(12.76 15.968)">
        <g id="Group_18303" data-name="Group 18303" transform="translate(0 0)">
          <path id="Path_15435" data-name="Path 15435" d="M-76.253-29.969c-.011,0-1.04-.007-1.04-.007v17.644c.012,0,1.04,0,1.04,0Z" transform="translate(85.644 30.019)" fill="#72501b"/>
          <g id="Group_18300" data-name="Group 18300" transform="translate(0 0.108)">
            <path id="Path_15436" data-name="Path 15436" d="M-80.833-23.236a3.152,3.152,0,0,1-.046-.385,1.6,1.6,0,0,1,1.325-1.568c-2.294.083-2.383,1.652-2.365,1.945A8.87,8.87,0,0,0-73.68-16l.486.02h.486l.037,0v-1.826a.961.961,0,0,1-1.047.742A7.8,7.8,0,0,1-80.833-23.236Z" transform="translate(82.061 33.616)" fill="#72501b"/>
            <g id="Group_18299" data-name="Group 18299">
              <path id="Path_15437" data-name="Path 15437" d="M-74.231-29.939a8.871,8.871,0,0,0-7.762,8.47h0v.005h0c0,.106-.007.213-.007.321a8.993,8.993,0,0,0,.149,1.616s-.069-1.937,2.537-1.937h5.083Z" transform="translate(82 29.939)" fill="#72501b"/>
            </g>
          </g>
          <g id="Group_18302" data-name="Group 18302" transform="translate(8.351)">
            <path id="Path_15438" data-name="Path 15438" d="M-69.13-22.747a3.1,3.1,0,0,1,.046.385,1.6,1.6,0,0,1-1.325,1.568c2.294-.083,2.383-1.652,2.365-1.945a8.87,8.87,0,0,0-8.239-7.242L-76.77-30h-.486l-.037,0v1.826a.964.964,0,0,1,1.047-.743A7.807,7.807,0,0,1-69.13-22.747Z" transform="translate(77.293 30)" fill="#72501b"/>
            <g id="Group_18301" data-name="Group 18301" transform="translate(1.622 7.221)">
              <path id="Path_15439" data-name="Path 15439" d="M-76.379-15.517a8.871,8.871,0,0,0,7.762-8.47h0v-.005h0c0-.106.007-.213.007-.321a9,9,0,0,0-.149-1.616s.069,1.937-2.537,1.937h-5.083Z" transform="translate(76.379 25.93)" fill="#72501b"/>
            </g>
          </g>
        </g>
      </g>
    </g>
    <g id="Group_18994" data-name="Group 18994" transform="translate(653.214 181)">
      <path id="Path_16424" data-name="Path 16424" d="M12.419,0A12.419,12.419,0,1,1,0,12.419,12.419,12.419,0,0,1,12.419,0Z" fill="#f9c734"/>
      <g id="Group_18966" data-name="Group 18966" transform="translate(6.209 5.905)">
        <g id="Path_16348" data-name="Path 16348" transform="translate(-676.132 -87.671)" fill="none" stroke-linecap="round" stroke-linejoin="round">
          <path d="M687.14,94.881l1.254,1.1a.464.464,0,0,1,.1.58l-1.016,1.761a.463.463,0,0,1-.55.207l-1.584-.538a.466.466,0,0,0-.409.059,4.731,4.731,0,0,1-.534.309.465.465,0,0,0-.256.325l-.327,1.642a.463.463,0,0,1-.454.373h-2.031a.463.463,0,0,1-.454-.373l-.327-1.642a.467.467,0,0,0-.257-.325,4.654,4.654,0,0,1-.534-.309.466.466,0,0,0-.41-.059l-1.583.538a.464.464,0,0,1-.551-.207l-1.016-1.761a.464.464,0,0,1,.1-.58l1.254-1.1a.473.473,0,0,0,.154-.391q-.01-.151-.009-.3t.009-.3a.471.471,0,0,0-.154-.391l-1.254-1.1a.463.463,0,0,1-.1-.58l1.016-1.761a.464.464,0,0,1,.551-.207l1.583.538a.464.464,0,0,0,.41-.059,4.6,4.6,0,0,1,.534-.309.467.467,0,0,0,.257-.325l.327-1.642a.463.463,0,0,1,.454-.373h2.031a.464.464,0,0,1,.454.373l.327,1.642a.465.465,0,0,0,.256.325,4.671,4.671,0,0,1,.534.309.463.463,0,0,0,.409.059l1.584-.538a.463.463,0,0,1,.55.207l1.016,1.761a.464.464,0,0,1-.1.58l-1.254,1.1a.472.472,0,0,0-.155.391c.007.1.01.2.01.3s0,.2-.01.3A.473.473,0,0,0,687.14,94.881Z" stroke="none"/>
          <path d="M 682.3424682617188 97.77782440185547 C 682.575927734375 97.25685119628906 682.9893798828125 96.82215118408203 683.5100708007813 96.5665283203125 C 683.615478515625 96.51450347900391 683.7193603515625 96.45442962646484 683.8184814453125 96.38816833496094 C 684.2294311523438 96.11353302001953 684.7056884765625 95.96836853027344 685.1959228515625 95.96836853027344 C 685.2819213867188 95.96836853027344 685.3675537109375 95.97286987304688 685.45263671875 95.98182678222656 C 685.1161499023438 95.51943969726563 684.9503173828125 94.94989013671875 684.989501953125 94.35480499267578 C 684.9928588867188 94.30518341064453 684.9945678710938 94.24819183349609 684.9945678710938 94.18540954589844 C 684.9945678710938 94.12283325195313 684.9928588867188 94.065673828125 684.9892578125 94.01209259033203 C 684.9501953125 93.41923522949219 685.1162719726563 92.85018920898438 685.4518432617188 92.38929748535156 C 685.366943359375 92.39822387695313 685.2814331054688 92.4027099609375 685.195556640625 92.4027099609375 C 684.703857421875 92.4027099609375 684.2263793945313 92.25658416748047 683.8187866210938 91.98284149169922 C 683.719482421875 91.91648864746094 683.6166381835938 91.85703277587891 683.51416015625 91.806640625 C 682.9898681640625 91.54927825927734 682.5753784179688 91.11358642578125 682.34228515625 90.59387969970703 C 682.1104736328125 91.11735534667969 681.7008666992188 91.5455322265625 681.1691284179688 91.80657196044922 C 681.0657958984375 91.8572998046875 680.9642944335938 91.91596984863281 680.8670654296875 91.98114013671875 C 680.4556274414063 92.25693511962891 679.9785766601563 92.4027099609375 679.4873657226563 92.4027099609375 C 679.4013061523438 92.4027099609375 679.3156127929688 92.39820861816406 679.2305908203125 92.38924407958984 C 679.5667724609375 92.85079956054688 679.7322998046875 93.41831207275391 679.6935424804688 94.0093994140625 C 679.6900634765625 94.06632995605469 679.6882934570313 94.12553405761719 679.6882934570313 94.18540954589844 C 679.6882934570313 94.24545288085938 679.6900634765625 94.30445098876953 679.6935424804688 94.36080932617188 C 679.7323608398438 94.95140838623047 679.5670166015625 95.51897430419922 679.22998046875 95.98185729980469 C 679.3151245117188 95.97287750244141 679.40087890625 95.96836853027344 679.487060546875 95.96836853027344 C 679.9766845703125 95.96836853027344 680.4525756835938 96.11317443847656 680.867431640625 96.38988494873047 C 680.9644165039063 96.45496368408203 681.0669555664063 96.51422882080078 681.1690673828125 96.5645751953125 C 681.7009887695313 96.82571411132813 682.1107177734375 97.25412750244141 682.3424682617188 97.77782440185547 M 683.3572387695313 100.6997985839844 L 681.3257446289063 100.6997985839844 C 681.1045532226563 100.6997985839844 680.9144897460938 100.5437927246094 680.8713989257813 100.3268585205078 L 680.5443725585938 98.68476867675781 C 680.5153198242188 98.54153442382813 680.4188842773438 98.42430877685547 680.2876586914063 98.35989379882813 C 680.1018676757813 98.26829528808594 679.9236450195313 98.16506958007813 679.7534790039063 98.05096435546875 C 679.6731567382813 97.99739837646484 679.5804443359375 97.96837615966797 679.4869995117188 97.96837615966797 C 679.43896484375 97.96837615966797 679.3907470703125 97.97604370117188 679.3439331054688 97.99198913574219 L 677.7604370117188 98.52986907958984 C 677.7112426757813 98.54664611816406 677.6608276367188 98.5546875 677.6111450195313 98.55469512939453 C 677.44921875 98.55470275878906 677.2943115234375 98.46942901611328 677.2095336914063 98.32302856445313 L 676.1940307617188 96.56217956542969 C 676.0834350585938 96.370849609375 676.1233520507813 96.12789916992188 676.2893676757813 95.98197937011719 L 677.5433959960938 94.88127136230469 C 677.6548461914063 94.7830810546875 677.7079467773438 94.63835144042969 677.6976928710938 94.49008178710938 C 677.6913452148438 94.38919067382813 677.6882934570313 94.28749084472656 677.6882934570313 94.18540954589844 C 677.6882934570313 94.08372497558594 677.6913452148438 93.98204040527344 677.6976928710938 93.88075256347656 C 677.7079467773438 93.73245239257813 677.6548461914063 93.58769226074219 677.5433959960938 93.48991394042969 L 676.2893676757813 92.38885498046875 C 676.1233520507813 92.24293518066406 676.0834350585938 92.00035858154297 676.1940307617188 91.80899810791016 L 677.2095336914063 90.04817199707031 C 677.2943725585938 89.90142822265625 677.4494018554688 89.81627655029297 677.6113891601563 89.81627655029297 C 677.6610107421875 89.81627655029297 677.7113037109375 89.82427215576172 677.7604370117188 89.8409423828125 L 679.3439331054688 90.37886047363281 C 679.390869140625 90.39496612548828 679.439208984375 90.40271759033203 679.4873657226563 90.40271759033203 C 679.5806884765625 90.40271759033203 679.6732788085938 90.37361145019531 679.7534790039063 90.31985473632813 C 679.9236450195313 90.20574951171875 680.1018676757813 90.10250854492188 680.2876586914063 90.01129150390625 C 680.4188842773438 89.94686889648438 680.5153198242188 89.82965087890625 680.5443725585938 89.68645477294922 L 680.8713989257813 88.04396057128906 C 680.9144897460938 87.82742309570313 681.1045532226563 87.67100524902344 681.3257446289063 87.67100524902344 L 683.3572387695313 87.67100524902344 C 683.5780639648438 87.67100524902344 683.7687377929688 87.82742309570313 683.8117065429688 88.04396057128906 L 684.1389770507813 89.68645477294922 C 684.1671752929688 89.82965087890625 684.2642211914063 89.94686889648438 684.3954467773438 90.01129150390625 C 684.5809936523438 90.10250854492188 684.7590942382813 90.20574951171875 684.9298706054688 90.31985473632813 C 685.0098876953125 90.37361145019531 685.1022338867188 90.40271759033203 685.195556640625 90.40271759033203 C 685.2437133789063 90.40271759033203 685.2921142578125 90.39496612548828 685.3392944335938 90.37886047363281 L 686.9230346679688 89.8409423828125 C 686.97216796875 89.82427215576172 687.0224609375 89.81627655029297 687.0720825195313 89.81627655029297 C 687.2340087890625 89.81627655029297 687.388916015625 89.90141296386719 687.4734497070313 90.04817199707031 L 688.4893188476563 91.80899810791016 C 688.5995483398438 92.00035858154297 688.5593872070313 92.24293518066406 688.3933715820313 92.38885498046875 L 687.1397094726563 93.48991394042969 C 687.0278930664063 93.58769226074219 686.9751586914063 93.73245239257813 686.9849243164063 93.88075256347656 C 686.9917602539063 93.98204040527344 686.9945678710938 94.08372497558594 686.9945678710938 94.18540954589844 C 686.9945678710938 94.28749084472656 686.9917602539063 94.38919067382813 686.9849243164063 94.49008178710938 C 686.9751586914063 94.63835144042969 687.0278930664063 94.7830810546875 687.1397094726563 94.88127136230469 L 688.3933715820313 95.98197937011719 C 688.5593872070313 96.12789916992188 688.5995483398438 96.370849609375 688.4893188476563 96.56217956542969 L 687.4734497070313 98.32302856445313 C 687.388916015625 98.46941375732422 687.2341918945313 98.55469512939453 687.0723266601563 98.55469512939453 C 687.0225830078125 98.55469512939453 686.9722290039063 98.54665374755859 686.9230346679688 98.52986907958984 L 685.3392944335938 97.99198913574219 C 685.292236328125 97.97604370117188 685.2439575195313 97.96837615966797 685.1959228515625 97.96837615966797 C 685.1024169921875 97.96837615966797 685.010009765625 97.99739074707031 684.9298706054688 98.05096435546875 C 684.7590942382813 98.16506958007813 684.5809936523438 98.26829528808594 684.3954467773438 98.35989379882813 C 684.2642211914063 98.42430877685547 684.1671752929688 98.54153442382813 684.1389770507813 98.68476867675781 L 683.8117065429688 100.3268585205078 C 683.7687377929688 100.5437927246094 683.5780639648438 100.6997985839844 683.3572387695313 100.6997985839844 Z" stroke="none" fill="#72501b"/>
        </g>
      </g>
    </g>
  </g>
</svg>
