<svg xmlns="http://www.w3.org/2000/svg" xmlns:xlink="http://www.w3.org/1999/xlink" width="64" height="64" viewBox="0 0 64 64">
  <defs>
    <linearGradient id="linear-gradient" x2="1" y2="1" gradientUnits="objectBoundingBox">
      <stop offset="0" stop-color="#f3e0b8"/>
      <stop offset="0.251" stop-color="#f9c734"/>
      <stop offset="0.657" stop-color="#916b1f"/>
      <stop offset="1" stop-color="#72501b"/>
    </linearGradient>
  </defs>
  <g id="funtion_ic06" transform="translate(-1623 -1284.5)">
    <rect id="Rectangle_6169" data-name="Rectangle 6169" width="64" height="64" transform="translate(1623 1284.5)" fill="none"/>
    <g id="Group_18938" data-name="Group 18938" transform="translate(1477 593.5)">
      <rect id="Rectangle_6102" data-name="Rectangle 6102" width="46.667" height="36.667" rx="2" transform="translate(153 706)" fill="url(#linear-gradient)"/>
      <rect id="Rectangle_6103" data-name="Rectangle 6103" width="36.667" height="26.667" rx="1" transform="translate(158 711)" fill="#fff7e5"/>
      <rect id="Rectangle_6104" data-name="Rectangle 6104" width="4.519" height="8.333" rx="2" transform="translate(158.86 701)" fill="#72501b"/>
      <rect id="Rectangle_6105" data-name="Rectangle 6105" width="4.519" height="8.333" rx="2" transform="translate(168.874 701)" fill="#72501b"/>
      <rect id="Rectangle_6106" data-name="Rectangle 6106" width="4.519" height="8.333" rx="2" transform="translate(179.081 701)" fill="#72501b"/>
      <rect id="Rectangle_6107" data-name="Rectangle 6107" width="4.519" height="8.333" rx="2" transform="translate(189.288 701)" fill="#72501b"/>
      <rect id="Rectangle_6108" data-name="Rectangle 6108" width="5" height="5" rx="1" transform="translate(161.334 714.333)" fill="#72501b"/>
      <rect id="Rectangle_6111" data-name="Rectangle 6111" width="5" height="5" rx="1" transform="translate(169.667 714.333)" fill="#72501b"/>
      <rect id="Rectangle_6109" data-name="Rectangle 6109" width="5" height="5" rx="1" transform="translate(161.334 721.833)" fill="#72501b"/>
      <rect id="Rectangle_6112" data-name="Rectangle 6112" width="5" height="5" rx="1" transform="translate(169.667 721.833)" fill="#72501b"/>
      <rect id="Rectangle_6113" data-name="Rectangle 6113" width="5" height="5" rx="1" transform="translate(178 714.333)" fill="#72501b"/>
      <rect id="Rectangle_6110" data-name="Rectangle 6110" width="5" height="5" rx="1" transform="translate(161.334 729.333)" fill="#72501b"/>
      <path id="Path_16391" data-name="Path 16391" d="M10,0A10,10,0,1,1,0,10,10,10,0,0,1,10,0Z" transform="translate(183 724.333)" fill="#f9c734"/>
      <g id="Group_18937" data-name="Group 18937" transform="translate(190.291 728.079)">
        <path id="Path_15911" data-name="Path 15911" d="M-661-153.394v1.95" transform="translate(663.789 153.394)" fill="none" stroke="#72501b" stroke-linecap="round" stroke-linejoin="round" stroke-width="1.5"/>
        <path id="Path_15912" data-name="Path 15912" d="M-661-153.394v1.95" transform="translate(663.789 163.757)" fill="none" stroke="#72501b" stroke-linecap="round" stroke-linejoin="round" stroke-width="1.5"/>
        <path id="Path_15910" data-name="Path 15910" d="M-658.1-150.65a3.329,3.329,0,0,0-2.439-1.023,2.187,2.187,0,0,0-2.292,1.579,1.991,1.991,0,0,0,1.433,2.473,8.055,8.055,0,0,1,2.2.753,1.763,1.763,0,0,1,1,1.631,2.221,2.221,0,0,1-2.527,1.953,4.693,4.693,0,0,1-2.717-1" transform="translate(663.432 153.646)" fill="none" stroke="#72501b" stroke-linecap="round" stroke-linejoin="round" stroke-width="1.5"/>
      </g>
    </g>
  </g>
</svg>
