<svg xmlns="http://www.w3.org/2000/svg" xmlns:xlink="http://www.w3.org/1999/xlink" width="64" height="64" viewBox="0 0 64 64">
  <defs>
    <linearGradient id="linear-gradient" x2="0.989" y2="1" gradientUnits="objectBoundingBox">
      <stop offset="0" stop-color="#f3e0b8"/>
      <stop offset="0.251" stop-color="#f9c734"/>
      <stop offset="0.657" stop-color="#916b1f"/>
      <stop offset="1" stop-color="#72501b"/>
    </linearGradient>
  </defs>
  <g id="funtion_ic04" transform="translate(-1220 -1285.5)">
    <rect id="Rectangle_6167" data-name="Rectangle 6167" width="64" height="64" transform="translate(1220 1285.5)" fill="none"/>
    <g id="Group_19045" data-name="Group 19045" transform="translate(1219 1284.206)">
      <g id="Group_18922" data-name="Group 18922" transform="translate(8 15.771)">
        <path id="Path_16387" data-name="Path 16387" d="M0,8.6S5.234,4.58,2.15,0" transform="translate(47.17 7.595) rotate(25)" fill="none" stroke="#72501b" stroke-linecap="round" stroke-width="2"/>
        <path id="Path_16384" data-name="Path 16384" d="M356.534,61.669a2.912,2.912,0,0,1,.137,1.136l-2.559,1.3a2.379,2.379,0,0,1-.616-.7l-.123-.274-.219-1.519L351.676,62a40.222,40.222,0,0,1-11.014,1.327A24.09,24.09,0,0,1,333.67,62.3l-1.532-.465-.205,1.491-.1.192a2.507,2.507,0,0,1-.739.657l-2.477-1.45a3.3,3.3,0,0,1,.287-1.163l.6-1.095-1.026-.711a11.724,11.724,0,0,1-4.2-5.186l-.342-.848h-2.819a7.808,7.808,0,0,1-.643-3.434,8.15,8.15,0,0,1,.657-3.421h2.736l.233-1.081a10.558,10.558,0,0,1,6.759-7.7l.506-.192.246-.465c.725-1.409,1.82-4.392,1.82-4.392a12.457,12.457,0,0,1,3.106,2.942l.41.766,1.533-.082c2.367-.151,7.922-.52,12.246,1.177,4.994,1.97,8.251,4.816,8.948,7.826,1.478,6.061.465,10.713-3.024,13.847l-.7.629.342.889c.014.041.027.082.041.137Z" transform="translate(-316.241 -28.757)" fill="#fff7e5"/>
        <path id="Path_16385" data-name="Path 16385" d="M331.555,142.719a2.73,2.73,0,0,1-1.388-.367l-3.2-1.867c-1.479-.911-1.561-2.637-1.3-4a15.707,15.707,0,0,1-3.722-4.654H320.83c-2.564,0-3.711-3.567-3.711-7.1,0-2.45.776-7.082,3.711-7.082h.6a14.409,14.409,0,0,1,7.959-8.558,25.789,25.789,0,0,0,1.34-3.412,3.082,3.082,0,0,1,1.314-2.28,2.746,2.746,0,0,1,2.5-.143,10.4,10.4,0,0,1,5.126,3.8c2.946-.184,8.746-.411,13.593,1.5,6.37,2.506,10.423,6.263,11.413,10.585,2.079,8.483-.363,13.714-3.19,16.779.375,1.565.283,3.9-1.472,4.786l-3.283,1.659a2.881,2.881,0,0,1-2.31.095,5.31,5.31,0,0,1-2.255-1.761,45.575,45.575,0,0,1-10.651,1.079,28.493,28.493,0,0,1-6.627-.775,5.693,5.693,0,0,1-2.392,1.571A3.325,3.325,0,0,1,331.555,142.719Zm23.263-4.146-.008,0Zm-25.036-1.9a2.01,2.01,0,0,0,2.064,1.133c.758-.182.6.472.969-1.862l1.705.565a23.806,23.806,0,0,0,6.921,1.027h.1a41.045,41.045,0,0,0,11.226-1.347l1.81-.422c.436,2.5.3,2.09.856,2.115a2.132,2.132,0,0,0,1.964-1.234c.24-.854-.85-1.874-.85-1.874l1.089-1.013c3.4-3.048,4.375-7.636,2.905-13.633-.666-2.9-3.882-5.663-8.833-7.61-4.323-1.7-9.957-1.331-12.365-1.173l-2.042.112-.636-1.191c-.521-.977-2-2.594-2.328-2.393s-.884,2.637-1.523,3.876l-.382.739-.782.285a10.214,10.214,0,0,0-6.541,7.463,1.409,1.409,0,0,1-.816,1.2c-.825.418-1.458-.16-2.19.666s-.736,1.367-.736,2.641a2.879,2.879,0,0,0,.831,2.5c.723.792,1.195.338,2.062.666a1.473,1.473,0,0,1,.991.995,11.49,11.49,0,0,0,4.1,5.068l1.234.8C329.65,136.5,329.556,135.985,329.782,136.669Z" transform="translate(-317.119 -103.03)" fill="url(#linear-gradient)"/>
        <path id="Path_16386" data-name="Path 16386" d="M0,.136a14.935,14.935,0,0,1,7.577.94" transform="translate(29.131 11.027) rotate(9)" fill="none" stroke="#72501b" stroke-linecap="round" stroke-width="1.5"/>
        <path id="Path_16388" data-name="Path 16388" d="M-552.29-1236.813a2.514,2.514,0,0,1,1.907-1.294,2.525,2.525,0,0,1,1.911,1.294" transform="translate(565.743 1252.748)" fill="none" stroke="#72501b" stroke-linecap="round" stroke-width="1.5"/>
      </g>
      <circle id="Ellipse_1114" data-name="Ellipse 1114" cx="4.834" cy="4.834" r="4.834" transform="translate(43.447 11.294)" fill="#f9c734"/>
    </g>
  </g>
</svg>
