<svg id="funtion_ic_interet" xmlns="http://www.w3.org/2000/svg" xmlns:xlink="http://www.w3.org/1999/xlink" width="64" height="64" viewBox="0 0 64 64">
  <defs>
    <linearGradient id="linear-gradient" x2="0.989" y2="1" gradientUnits="objectBoundingBox">
      <stop offset="0" stop-color="#f3e0b8"/>
      <stop offset="0.134" stop-color="#f9c734"/>
      <stop offset="0.657" stop-color="#916b1f"/>
      <stop offset="1" stop-color="#72501b"/>
    </linearGradient>
  </defs>
  <rect id="Rectangle_6171" data-name="Rectangle 6171" width="64" height="64" fill="none"/>
  <g id="Group_18941" data-name="Group 18941" transform="translate(-6.516 -5.5)">
    <g id="Group_18922" data-name="Group 18922" transform="translate(8 15.588)">
      <path id="Path_16387" data-name="Path 16387" d="M0,10.141S6.173,5.4,2.535,0" transform="translate(55.623 8.956) rotate(25)" fill="none" stroke="#72501b" stroke-linecap="round" stroke-width="2"/>
      <path id="Path_16384" data-name="Path 16384" d="M362.995,66.8a3.435,3.435,0,0,1,.161,1.339l-3.017,1.533a2.806,2.806,0,0,1-.726-.823l-.145-.323-.258-1.791-1.743.452a47.43,47.43,0,0,1-12.988,1.565,28.407,28.407,0,0,1-8.245-1.21l-1.807-.549-.242,1.759-.113.226a2.955,2.955,0,0,1-.871.774l-2.92-1.71a3.89,3.89,0,0,1,.339-1.371l.71-1.291-1.21-.839a13.825,13.825,0,0,1-4.953-6.115l-.4-1h-3.324a9.207,9.207,0,0,1-.758-4.05,9.612,9.612,0,0,1,.775-4.034h3.227l.274-1.275a12.449,12.449,0,0,1,7.97-9.084l.6-.226.29-.549c.855-1.662,2.146-5.179,2.146-5.179s2.84,1.936,3.663,3.469l.484.9,1.807-.1c2.791-.177,9.342-.613,14.44,1.388,5.889,2.323,9.729,5.679,10.552,9.229,1.742,7.148.548,12.633-3.566,16.328l-.823.742.4,1.049c.016.048.032.1.048.161Z" transform="translate(-315.481 -27.991)" fill="#fff7e5"/>
      <path id="Path_16385" data-name="Path 16385" d="M334.142,149.832a3.22,3.22,0,0,1-1.637-.433l-3.775-2.2c-1.744-1.074-1.841-3.11-1.533-4.712A18.52,18.52,0,0,1,322.808,137H321.5c-3.023,0-4.376-4.206-4.376-8.371,0-2.89.915-8.351,4.376-8.351h.706a16.992,16.992,0,0,1,9.385-10.092,30.4,30.4,0,0,0,1.58-4.024,3.634,3.634,0,0,1,1.55-2.689,3.238,3.238,0,0,1,2.951-.169,12.262,12.262,0,0,1,6.045,4.483c3.474-.217,10.314-.484,16.029,1.765,7.511,2.955,12.291,7.386,13.459,12.482,2.452,10-.428,16.171-3.761,19.786.443,1.846.334,4.593-1.735,5.644l-3.872,1.956a3.4,3.4,0,0,1-2.724.112,6.262,6.262,0,0,1-2.659-2.076,53.741,53.741,0,0,1-12.56,1.273,33.6,33.6,0,0,1-7.815-.914,6.712,6.712,0,0,1-2.821,1.852A3.921,3.921,0,0,1,334.142,149.832Zm27.432-4.889-.01.005ZM332.051,142.7a2.37,2.37,0,0,0,2.434,1.336c.894-.215.707.557,1.143-2.2l2.011.666a28.074,28.074,0,0,0,8.161,1.211h.12a48.4,48.4,0,0,0,13.238-1.588l2.134-.5c.514,2.95.356,2.464,1.009,2.494a2.514,2.514,0,0,0,2.316-1.455c.284-1.007-1-2.21-1-2.21l1.284-1.194c4.007-3.594,5.159-9,3.426-16.076-.785-3.421-4.578-6.678-10.416-8.974-5.1-2.006-11.742-1.57-14.581-1.383l-2.409.132-.75-1.4c-.615-1.152-2.36-3.059-2.745-2.822s-1.043,3.109-1.8,4.571l-.451.872-.922.336a12.045,12.045,0,0,0-7.713,8.8,1.661,1.661,0,0,1-.963,1.412c-.973.493-1.72-.189-2.582.786s-.868,1.612-.868,3.114a3.4,3.4,0,0,0,.98,2.948c.853.933,1.409.4,2.432.786a1.737,1.737,0,0,1,1.169,1.173,13.549,13.549,0,0,0,4.83,5.976l1.455.949C331.9,142.5,331.784,141.891,332.051,142.7Z" transform="translate(-317.119 -103.03)" fill="url(#linear-gradient)"/>
      <path id="Path_16386" data-name="Path 16386" d="M0,.161A17.611,17.611,0,0,1,8.935,1.269" transform="translate(34.352 13.004) rotate(9)" fill="none" stroke="#72501b" stroke-linecap="round" stroke-width="1.5"/>
      <path id="Path_16388" data-name="Path 16388" d="M-552.29-1236.581a2.964,2.964,0,0,1,2.249-1.526,2.977,2.977,0,0,1,2.254,1.526" transform="translate(568.154 1255.371)" fill="none" stroke="#72501b" stroke-linecap="round" stroke-width="2"/>
    </g>
    <g id="Group_18945" data-name="Group 18945" transform="translate(41.938 12.389)">
      <g id="Group_18946" data-name="Group 18946" transform="translate(0 0)">
        <path id="Path_16294" data-name="Path 16294" d="M13.3,0A13.3,13.3,0,1,1,0,13.3,13.3,13.3,0,0,1,13.3,0Z" fill="#f9c734"/>
        <g id="Group_18839" data-name="Group 18839" transform="translate(5.826 15.135) rotate(-45)">
          <path id="Path_15894" data-name="Path 15894" d="M0,0H12.43" transform="translate(0 3.987)" fill="none" stroke="#72501b" stroke-linecap="round" stroke-linejoin="round" stroke-width="2"/>
          <path id="Path_15895" data-name="Path 15895" d="M0,0V5.563H5.715" transform="translate(9.231 7.975) rotate(-135)" fill="none" stroke="#72501b" stroke-linecap="round" stroke-linejoin="round" stroke-width="2"/>
        </g>
      </g>
    </g>
  </g>
</svg>
