<svg id="funtion_ic09" xmlns="http://www.w3.org/2000/svg" xmlns:xlink="http://www.w3.org/1999/xlink" width="64" height="64" viewBox="0 0 64 64">
  <defs>
    <linearGradient id="linear-gradient" x2="0.989" y2="1" gradientUnits="objectBoundingBox">
      <stop offset="0" stop-color="#f3e0b8"/>
      <stop offset="0.134" stop-color="#f9c734"/>
      <stop offset="0.657" stop-color="#916b1f"/>
      <stop offset="1" stop-color="#72501b"/>
    </linearGradient>
  </defs>
  <rect id="Rectangle_6170" data-name="Rectangle 6170" width="64" height="64" fill="none"/>
  <g id="Group_18978" data-name="Group 18978" transform="translate(-456.207 -728)">
    <path id="Union_34" data-name="Union 34" d="M0,38.129c0-5.541,3.952-12.517,9.723-16.164a12.477,12.477,0,1,1,16.2,0c5.772,3.648,9.724,10.623,9.724,16.164C35.645,46,26.733,48,17.822,48S0,46,0,38.129Z" transform="translate(465.207 736)" fill="url(#linear-gradient)"/>
    <path id="Path_16426" data-name="Path 16426" d="M13.3,0c7.345,0,13.3,7.176,13.3,12.423S19.95,19,13.3,19,0,17.67,0,12.423,5.955,0,13.3,0Z" transform="translate(469.553 760.83)" fill="#fff7e5"/>
    <circle id="Ellipse_1126" data-name="Ellipse 1126" cx="9.13" cy="9.13" r="9.13" transform="translate(473.9 739.346)" fill="#fff7e5" stroke="rgba(0,0,0,0)" stroke-miterlimit="10" stroke-width="1"/>
    <path id="Path_16424" data-name="Path 16424" d="M10.286,0A10.286,10.286,0,1,1,0,10.286,10.286,10.286,0,0,1,10.286,0Z" transform="translate(490.567 758.572)" fill="#f9c734"/>
    <g id="Path_16348" data-name="Path 16348" transform="translate(-181.28 674.892)" fill="none" stroke-linecap="round" stroke-linejoin="round">
      <path d="M686.768,94.638l1.211,1.064a.448.448,0,0,1,.093.561l-.981,1.7a.447.447,0,0,1-.532.2l-1.53-.52a.45.45,0,0,0-.4.057,4.568,4.568,0,0,1-.516.3.449.449,0,0,0-.248.314l-.316,1.587a.447.447,0,0,1-.439.36H681.15a.447.447,0,0,1-.439-.36l-.316-1.587a.451.451,0,0,0-.248-.314,4.5,4.5,0,0,1-.516-.3.45.45,0,0,0-.4-.057l-1.53.52a.448.448,0,0,1-.532-.2l-.981-1.7a.448.448,0,0,1,.092-.561l1.211-1.064a.457.457,0,0,0,.149-.378q-.009-.146-.009-.294t.009-.294a.456.456,0,0,0-.149-.378l-1.211-1.064a.447.447,0,0,1-.092-.56l.981-1.7a.448.448,0,0,1,.532-.2l1.53.52a.448.448,0,0,0,.4-.057,4.447,4.447,0,0,1,.516-.3.451.451,0,0,0,.248-.314l.316-1.587a.448.448,0,0,1,.439-.36h1.963a.448.448,0,0,1,.439.36l.316,1.587a.449.449,0,0,0,.248.314,4.51,4.51,0,0,1,.516.3.448.448,0,0,0,.4.057l1.53-.52a.448.448,0,0,1,.532.2l.981,1.7a.448.448,0,0,1-.093.56l-1.211,1.064a.457.457,0,0,0-.15.378c.007.1.009.2.009.294s0,.2-.009.294A.458.458,0,0,0,686.768,94.638Z" stroke="none"/>
      <path d="M 682.1329956054688 97.28105926513672 C 682.3720092773438 96.82161712646484 682.755859375 96.43992614746094 683.2307739257812 96.20563507080078 C 683.3304443359375 96.15641021728516 683.4281616210938 96.09992980957031 683.5217895507812 96.03734588623047 C 683.929931640625 95.76469421386719 684.4029541015625 95.62057495117188 684.8898315429688 95.62057495117188 C 684.9275512695312 95.62057495117188 684.9651489257812 95.62144470214844 685.002685546875 95.62318420410156 C 684.7228393554688 95.18702697753906 684.5874633789062 94.66799926757812 684.62255859375 94.129638671875 C 684.6227416992188 94.12716674804688 684.6229248046875 94.12471008300781 684.623046875 94.12223815917969 C 684.6261596679688 94.07731628417969 684.6277465820312 94.02455902099609 684.6277465820312 93.96540069580078 C 684.6277465820312 93.90558624267578 684.626220703125 93.85409545898438 684.623046875 93.80800628662109 C 684.6228637695312 93.80571746826172 684.6227416992188 93.80342864990234 684.62255859375 93.80113983154297 C 684.5874633789062 93.26233673095703 684.7229614257812 92.74320220947266 685.002197265625 92.30785369873047 C 684.4774780273438 92.3319091796875 683.9581909179688 92.18636322021484 683.5211791992188 91.89302825927734 C 683.4283447265625 91.83097839355469 683.3316650390625 91.77508544921875 683.2356567382812 91.72786712646484 C 682.7582397460938 91.49369812011719 682.3724365234375 91.11074066162109 682.1329345703125 90.65108489990234 C 681.8952026367188 91.11296081542969 681.5128173828125 91.49009704589844 681.028564453125 91.72761535644531 C 680.931640625 91.77518463134766 680.8359985351562 91.83045959472656 680.7450561523438 91.89141845703125 C 680.3363037109375 92.16555023193359 679.8622436523438 92.31044769287109 679.3740844726562 92.31044769287109 C 679.3363037109375 92.31044769287109 679.298583984375 92.30957794189453 679.260986328125 92.30783081054688 C 679.5407104492188 92.74372100830078 679.6759033203125 93.26236724853516 679.640625 93.80049896240234 C 679.6373291015625 93.85321044921875 679.6356811523438 93.90867614746094 679.6356811523438 93.96540069580078 C 679.6356811523438 94.02251434326172 679.6373291015625 94.07801055908203 679.640625 94.13036346435547 C 679.6758422851562 94.66796112060547 679.5408325195312 95.18637847900391 679.2603759765625 95.62320709228516 C 679.298095703125 95.62145233154297 679.3358764648438 95.62057495117188 679.3737182617188 95.62057495117188 C 679.8604125976562 95.62057495117188 680.3333129882812 95.76453399658203 680.744384765625 96.03889465332031 C 680.8362426757812 96.10045623779297 680.9328002929688 96.15631866455078 681.0281982421875 96.20333862304688 C 681.5125732421875 96.44098663330078 681.8948974609375 96.81797790527344 682.1329956054688 97.28105926513672 M 683.11328125 100.259765625 L 681.150390625 100.259765625 C 680.9366455078125 100.259765625 680.7531127929688 100.1090240478516 680.71142578125 99.8994140625 L 680.3953247070312 98.31277465820312 C 680.367431640625 98.17440032958984 680.274169921875 98.06113433837891 680.1472778320312 97.99887847900391 C 679.9677124023438 97.91037750244141 679.7955932617188 97.81064605712891 679.6310424804688 97.70038604736328 C 679.5136108398438 97.62204742431641 679.3687744140625 97.59797668457031 679.2355346679688 97.64340972900391 L 677.705322265625 98.16312408447266 C 677.5029907226562 98.232177734375 677.2802734375 98.14810180664062 677.1731567382812 97.9632568359375 L 676.1919555664062 96.26189422607422 C 676.0850830078125 96.07701110839844 676.1236572265625 95.84225463867188 676.2841796875 95.70127105712891 L 677.4956665039062 94.63777160644531 C 677.6033325195312 94.54288482666016 677.654541015625 94.40301513671875 677.6448364257812 94.259765625 C 677.6386108398438 94.16227722167969 677.6356811523438 94.06401824951172 677.6356811523438 93.96540069580078 C 677.6356811523438 93.86712646484375 677.6386108398438 93.76889801025391 677.6448364257812 93.6710205078125 C 677.654541015625 93.52775573730469 677.6033325195312 93.38787078857422 677.4956665039062 93.29338836669922 L 676.2841796875 92.22951507568359 C 676.1236572265625 92.08851623535156 676.0850830078125 91.85414123535156 676.1919555664062 91.66925811767578 L 677.1731567382812 89.96786499023438 C 677.2802124023438 89.78263092041016 677.5032348632812 89.69902038574219 677.705322265625 89.76765441894531 L 679.2355346679688 90.28739929199219 C 679.3687133789062 90.33309936523438 679.5135498046875 90.30912780761719 679.6310424804688 90.23038482666016 C 679.7955932617188 90.12012481689453 679.9677124023438 90.0203857421875 680.1472778320312 89.9322509765625 C 680.274169921875 89.87001037597656 680.367431640625 89.75675964355469 680.3953247070312 89.61837768554688 L 680.71142578125 88.03136444091797 C 680.7531127929688 87.82212829589844 680.9366455078125 87.67099761962891 681.150390625 87.67099761962891 L 683.11328125 87.67099761962891 C 683.32666015625 87.67099761962891 683.5109252929688 87.82212829589844 683.55224609375 88.03136444091797 L 683.8685302734375 89.61837768554688 C 683.895751953125 89.75675964355469 683.989501953125 89.87001037597656 684.1163940429688 89.9322509765625 C 684.2955932617188 90.0203857421875 684.4678344726562 90.12012481689453 684.6327514648438 90.23038482666016 C 684.7500610351562 90.30912017822266 684.8946533203125 90.33315277099609 685.0283813476562 90.28739929199219 L 686.55859375 89.76765441894531 C 686.7611083984375 89.69895172119141 686.9835815429688 89.78268432617188 687.0903930664062 89.96786499023438 L 688.0718383789062 91.66925811767578 C 688.178466796875 91.85414123535156 688.1398315429688 92.08851623535156 687.979248046875 92.22951507568359 L 686.7678833007812 93.29338836669922 C 686.6599731445312 93.38787078857422 686.6090087890625 93.52775573730469 686.6183471679688 93.6710205078125 C 686.6250610351562 93.76889801025391 686.6277465820312 93.86712646484375 686.6277465820312 93.96540069580078 C 686.6277465820312 94.06401824951172 686.6250610351562 94.16227722167969 686.6183471679688 94.259765625 C 686.6090087890625 94.40301513671875 686.6599731445312 94.54288482666016 686.7678833007812 94.63777160644531 L 687.979248046875 95.70127105712891 C 688.1398315429688 95.84225463867188 688.178466796875 96.07701110839844 688.0718383789062 96.26189422607422 L 687.0903930664062 97.9632568359375 C 686.983642578125 98.14814758300781 686.7609252929688 98.23210906982422 686.55859375 98.16312408447266 L 685.0283813476562 97.64340972900391 C 684.89453125 97.59803009033203 684.7501220703125 97.62200164794922 684.6327514648438 97.70038604736328 C 684.4678344726562 97.81064605712891 684.2955932617188 97.91037750244141 684.1163940429688 97.99887847900391 C 683.989501953125 98.06113433837891 683.895751953125 98.17440032958984 683.8685302734375 98.31277465820312 L 683.55224609375 99.8994140625 C 683.5109252929688 100.1090240478516 683.32666015625 100.259765625 683.11328125 100.259765625 Z" stroke="none" fill="#72501b"/>
    </g>
  </g>
</svg>
