<svg id="ic_acc02" xmlns="http://www.w3.org/2000/svg" width="36" height="36" viewBox="0 0 36 36">
  <rect id="Rectangle_5634" data-name="Rectangle 5634" width="36" height="36" fill="none"/>
  <g id="Group_19526" data-name="Group 19526" transform="translate(5.734 5.715)">
    <path id="Path_16546" data-name="Path 16546" d="M18.8,3.756a.61.61,0,0,0-.065.015l-.032.015a5.68,5.68,0,0,0-2.149.976A5.436,5.436,0,0,0,15.023,6.51a13.542,13.542,0,0,0-2.765-.319A11.083,11.083,0,0,0,5.4,8.369a6.141,6.141,0,0,0-2.038,2.725l-.3.922q-.035.153-.064.306a.542.542,0,0,0-.079-.007,1.68,1.68,0,0,1-1.041-.385A1.57,1.57,0,0,1,1.332,11a2.029,2.029,0,0,1,.709-1.959,3.258,3.258,0,0,1,.675-.452,2.346,2.346,0,0,1,.227-.1L3,8.457h.012a.494.494,0,0,0,.32-.633.522.522,0,0,0-.658-.308H2.665l-.028.01-.092.036c-.077.031-.182.077-.306.14a4.294,4.294,0,0,0-.892.6A3,3,0,0,0,.313,11.153h0a2.557,2.557,0,0,0,.89,1.525A2.736,2.736,0,0,0,2.87,13.3a8.61,8.61,0,0,0-.011,1.08A6.366,6.366,0,0,0,3.725,17a6.624,6.624,0,0,0,1.9,2.036h.016a.564.564,0,0,1,.142.137h.006c.008,0,.016.007-.022.12-.152.45-.443,1.126-.443,1.126v.016a1.283,1.283,0,0,0,.032,1.008,1.357,1.357,0,0,0,.758.7v.015l1.627.581A1.439,1.439,0,0,0,8.8,22.71a1.362,1.362,0,0,0,.733-.737s.2-.548.379-1a.341.341,0,0,1,.065-.106.611.611,0,0,1,.065.015,9.854,9.854,0,0,0,2.227.259A20.97,20.97,0,0,0,14.507,21a.94.94,0,0,1,.11,0,.07.07,0,0,1,.007.02.126.126,0,0,0,.008.026v.015c.161.466.357.9.363.913a.017.017,0,0,0,.012.011h0a1.341,1.341,0,0,0,.718.719,1.416,1.416,0,0,0,1.035.028l1.626-.579v-.015a1.351,1.351,0,0,0,.761-.7,1.276,1.276,0,0,0,.029-1.01l-.252-.655a.674.674,0,0,0-.048-.076,5.309,5.309,0,0,0,1.744-1.164,5.083,5.083,0,0,0,1.131-1.729.881.881,0,0,1,.142-.228c.038-.035.065-.06.219-.06h.822a1.361,1.361,0,0,0,.936-.377,1.262,1.262,0,0,0,.391-.9V12.873a1.262,1.262,0,0,0-.391-.9,1.36,1.36,0,0,0-.937-.376h-.822a.481.481,0,0,1-.172-.015A5.331,5.331,0,0,0,20.778,9.14a5.616,5.616,0,0,0-2.236-1.606,8.69,8.69,0,0,1,.758-3.1.471.471,0,0,0,.033-.242.478.478,0,0,0-.093-.227.5.5,0,0,0-.2-.156A.524.524,0,0,0,18.8,3.756ZM2.846,7.982c-.168-.471-.169-.47-.169-.47ZM18.467,12a.97.97,0,1,1-.969-.933A.952.952,0,0,1,18.467,12Z" transform="translate(0 0.224)" fill="rgba(255,255,255,0.87)" fill-rule="evenodd"/>
    <path id="Path_16547" data-name="Path 16547" d="M7.13,5.977a10.768,10.768,0,0,1,6.085-1.81,11.665,11.665,0,0,1,1.183.06A3.807,3.807,0,1,0,7.13,5.977Z" transform="translate(-1.792 0.698)" fill="#00a1e4" fill-rule="evenodd"/>
  </g>
</svg>
