<svg id="ic_card-lock" xmlns="http://www.w3.org/2000/svg" width="24" height="24" viewBox="0 0 24 24">
  <g id="Rectangle_182" data-name="Rectangle 182" fill="#fff" stroke="#fff" stroke-width="1" opacity="0">
    <rect width="24" height="24" stroke="none"/>
    <rect x="0.5" y="0.5" width="23" height="23" fill="none"/>
  </g>
  <g id="Group_2910" data-name="Group 2910" transform="translate(-11 -12)">
    <g id="Group_2908" data-name="Group 2908" transform="translate(13.275 15.641)">
      <path id="Path_706" data-name="Path 706" d="M.117,3.892h19.51M.117,6.944h19.51M2.284,10.939H4.007m1.57,0H7.3m9.737,6.89H11.67a.636.636,0,0,1-.635-.635V13.18a.636.636,0,0,1,.635-.635h5.37a.635.635,0,0,1,.635.635v4.013A.635.635,0,0,1,17.04,17.828ZM14.356,8.614h0a2.119,2.119,0,0,0-2.119,2.118v1.812h4.236V10.732a2.117,2.117,0,0,0-2.118-2.118Z" transform="translate(-0.117 -0.734)" fill="none" stroke="#fff" stroke-width="1.3" fill-rule="evenodd"/>
      <path id="Path_707" data-name="Path 707" d="M11.036,14.488H2.621a2.5,2.5,0,0,1-2.5-2.5V2.619a2.5,2.5,0,0,1,2.5-2.5h14.5a2.505,2.505,0,0,1,2.5,2.5v9.365a2.507,2.507,0,0,1-1.95,2.442" transform="translate(-0.117 -0.115)" fill="none" stroke="#fff" stroke-width="1.3" fill-rule="evenodd"/>
    </g>
  </g>
</svg>
