<svg xmlns="http://www.w3.org/2000/svg" width="30" height="30" viewBox="0 0 30 30">
    <g fill="none" fill-rule="evenodd">
        <g stroke="#FFF">
            <g>
                <g>
                    <g>
                        <g>
                            <g stroke-width="1.3">
                                <path d="M15.19 18.55H1.955c-.918 0-1.66-.743-1.66-1.66V1.952c0-.916.742-1.659 1.66-1.659h21.574c.916 0 1.66.743 1.66 1.66v13.562M4.288 13.11L6.349 13.11M8.227 13.11L10.291 13.11M.294 4.266L25.189 4.266M.294 7.51L25.189 7.51" transform="translate(-173 -2748) translate(25 2341) translate(0 201) translate(115 196) translate(33 10) translate(1.579 4.737)"/>
                            </g>
                            <g stroke-width="1.36">
                                <path d="M6.572 7.119L5.329 7.297 5.507 6.053z" transform="translate(-173 -2748) translate(25 2341) translate(0 201) translate(115 196) translate(33 10) rotate(62 -2.478 28.288) rotate(-17 5.95 6.675)"/>
                                <path d="M1.342 2.628L1.52 1.384 0.276 1.562z" transform="translate(-173 -2748) translate(25 2341) translate(0 201) translate(115 196) translate(33 10) rotate(62 -2.478 28.288) rotate(-17 .898 2.006)"/>
                                <path d="M5.95 6.675c.721-1.266 1.435-2.608.885-3.935C6.285 1.412 4.838.817 3.636.178M.547 2.374c-.43.809-.826 1.757-.276 3.085.55 1.327 1.721 1.77 2.846 2.37" transform="translate(-173 -2748) translate(25 2341) translate(0 201) translate(115 196) translate(33 10) rotate(62 -2.478 28.288)"/>
                            </g>
                        </g>
                    </g>
                </g>
            </g>
        </g>
    </g>
</svg>
