<svg xmlns="http://www.w3.org/2000/svg" width="30" height="30" viewBox="0 0 30 30">
    <g fill="none" fill-rule="evenodd">
        <g stroke="#FFF" stroke-width="1.3">
            <g>
                <g>
                    <path d="M7.296 18.55H1.954c-.918 0-1.66-.743-1.66-1.66V1.952c0-.916.742-1.659 1.66-1.659h21.574c.916 0 1.66.743 1.66 1.66v10.404M.294 4.266L25.189 4.266M.294 7.51L25.189 7.51" transform="translate(-172 -2650) translate(172 2650) translate(1.579 4.737)"/>
                    <g stroke-linecap="square" transform="translate(-172 -2650) translate(172 2650) translate(1.579 4.737) translate(7.105 11.842)">
                        <rect width="19.895" height="9.474" rx="3"/>
                    </g>
                    <path d="M10.263 15.743L15.337 15.743M10.263 18.111L17.706 18.111" transform="translate(-172 -2650) translate(172 2650) translate(1.579 4.737)"/>
                </g>
                <path d="M21.316 21.132L23.004 22.435 24.811 19.737" transform="translate(-172 -2650) translate(172 2650)"/>
            </g>
        </g>
    </g>
</svg>
