<svg xmlns="http://www.w3.org/2000/svg" width="31" height="30" viewBox="0 0 31 30">
    <defs>
        <filter id="x8lz8r712a" width="180%" height="180%" x="-40%" y="-40%" filterUnits="objectBoundingBox">
            <feOffset dy="2" in="SourceAlpha" result="shadowOffsetOuter1"/>
            <feGaussianBlur in="shadowOffsetOuter1" result="shadowBlurOuter1" stdDeviation="2"/>
            <feColorMatrix in="shadowBlurOuter1" result="shadowMatrixOuter1" values="0 0 0 0 0.0705882353 0 0 0 0 0.403921569 0 0 0 0 0.192156863 0 0 0 1 0"/>
            <feMerge>
                <feMergeNode in="SourceGraphic"/>
            </feMerge>
        </filter>
    </defs>
    <g fill="none" fill-rule="evenodd">
        <g stroke-width="1.3">
            <g>
                <g>
                    <g filter="url(#x8lz8r712a)" transform="translate(-264 -284) translate(15 271) translate(239.5 3) translate(10 10)">
                        <g>
                            <path stroke="#FEFEFE" d="M0.485 11.434L6.029 11.434 11.005 11.434 17.149 11.434 23.63 11.434" transform="translate(3.158 1.579)"/>
                            <path stroke="#FEFEFE" stroke-linecap="square" d="M5.27 7.226h-.884c-.47 0-.912.22-1.193.596L.485 11.434v12.491c0 1.236 1 2.237 2.236 2.237h18.671c1.236 0 2.237-1.001 2.237-2.237v-12.49L20.92 7.821c-.28-.375-.723-.596-1.193-.596h-1.152" transform="translate(3.158 1.579)"/>
                            <path stroke="#FFF" d="M5.893 11.822V1.582c0-.607.49-1.097 1.096-1.097h9.87c.605 0 1.095.49 1.095 1.097v9.834M15.329.485L15.329 11.713M13.186.485L13.186 11.713M11.951 13.873L11.951 16.197M11.951 21.643L11.951 23.967M8.855 21.643h4.212c.753 0 1.362-.61 1.362-1.361 0-.752-.61-1.362-1.362-1.362H10.91c-.753 0-1.363-.61-1.363-1.363 0-.752.61-1.361 1.363-1.361h4.139" transform="translate(3.158 1.579)"/>
                        </g>
                    </g>
                </g>
            </g>
        </g>
    </g>
    <style type="text/css" media="screen"> 
    path[stroke-width*='1.'] {
        vector-effect: non-scaling-stroke;
    }  
    @media (min-width: 40px) {
        path[stroke-width*='1.'] {
          stroke-width: 1 !important;
        }
    }
    @media screen and (min-width:0\0) and (min-width: 40px) {
        path[stroke-width*='1.'] {
          stroke-width: 1.1 !important;
        }
    }
    @supports (-ms-accelerator: true) or (-ms-ime-align: auto) {
        @media (min-width: 40px) {
          path[stroke-width*="1."] {
          stroke-width: 1.1 !important;
          }
        } 
    }
    </style>
</svg>
