<svg id="ic_hearh" xmlns="http://www.w3.org/2000/svg" width="24" height="24" viewBox="0 0 24 24">
  <rect id="Rectangle_5505" data-name="Rectangle 5505" width="24" height="24" fill="none"/>
  <path id="Path_15612" data-name="Path 15612" d="M14.65,7.829a4.593,4.593,0,0,0-6.492,0L8,7.989l-.16-.16a4.591,4.591,0,0,0-6.5,6.489l.16.16,4.136,4.137h0l.96.96.016.018.41.411a1.381,1.381,0,0,0,1.947,0l.379-.379h0l1-1h0l4.133-4.136.16-.16a4.582,4.582,0,0,0,0-6.5Z" transform="translate(4.002 -1.482)" fill="none" stroke="rgba(255,255,255,0.6)" stroke-width="1.5"/>
</svg>
