<svg xmlns="http://www.w3.org/2000/svg" width="17.1" height="18" viewBox="0 0 17.1 18">
  <path id="ic_home-border" d="M7.491,17.894v-2.76a1.284,1.284,0,0,1,1.281-1.277h2.6a1.284,1.284,0,0,1,1.29,1.277h0V17.9A1.1,1.1,0,0,0,13.743,19h1.732A3.11,3.11,0,0,0,18.6,15.906h0V8.054a2.2,2.2,0,0,0-.866-1.714L11.812,1.617a2.862,2.862,0,0,0-3.55,0l-5.9,4.732A2.178,2.178,0,0,0,1.5,8.063v7.843A3.11,3.11,0,0,0,4.626,19H6.357a1.111,1.111,0,0,0,1.117-1.106h0" transform="translate(-1.5 -1)" fill="#c2a87c"/>
</svg>
