<svg id="ic_nap-tien-dien-tu" xmlns="http://www.w3.org/2000/svg" width="24" height="24" viewBox="0 0 24 24">
  <g id="Rectangle_268" data-name="Rectangle 268" fill="#fff" stroke="#707070" stroke-width="1" opacity="0">
    <rect width="24" height="24" stroke="none"/>
    <rect x="0.5" y="0.5" width="23" height="23" fill="none"/>
  </g>
  <g id="white_38_x_38_19_" data-name="white_38_x_38 (19)" transform="translate(-0.379 -0.379)">
    <path id="Path_702" data-name="Path 702" d="M3.379,8.7H21.41M12.446,6.362H14.24m.9,0h1.8m.9,0h1.8" transform="translate(0 -0.647)" fill="none" stroke="#fff" stroke-width="1.3" fill-rule="evenodd"/>
    <g id="Group_2907" data-name="Group 2907" transform="translate(9.827 10.483)">
      <path id="Path_703" data-name="Path 703" d="M2.567,0V1.927m0,4.516V8.37M0,6.443H3.492a1.129,1.129,0,0,0,0-2.257H1.7a1.13,1.13,0,1,1,0-2.259H5.134" fill="none" stroke="#fff" stroke-width="1.3" fill-rule="evenodd"/>
    </g>
    <path id="Path_704" data-name="Path 704" d="M20.246,21.409H4.544A1.163,1.163,0,0,1,3.38,20.245V4.543A1.163,1.163,0,0,1,4.544,3.379h15.7A1.164,1.164,0,0,1,21.41,4.543v15.7A1.164,1.164,0,0,1,20.246,21.409Z" transform="translate(0)" fill="none" stroke="#fff" stroke-width="1.3" fill-rule="evenodd"/>
  </g>
  <style type="text/css" media="screen"> 
  path[stroke-width*='1.'] {
      vector-effect: non-scaling-stroke;
   }  
   @media (min-width: 40px) {
      path[stroke-width*='1.'] {
         stroke-width: 2 !important;
      }
   }
   @media screen and (min-width:0\0) and (min-width: 40px) {
      path[stroke-width*='1.'] {
         stroke-width: 1.1 !important;
      }
   }
   @supports (-ms-accelerator: true) or (-ms-ime-align: auto) {
      @media (min-width: 40px) {
         path[stroke-width*="1."] {
         stroke-width: 1.1 !important;
         }
      } 
   }
  </style>
</svg>
