<svg xmlns="http://www.w3.org/2000/svg" width="24" height="24" viewBox="0 0 24 24"><defs><style>.a,.b,.d{fill:none;fill-rule:evenodd;}.a,.b{stroke:#fff;}.b{stroke-width:1.3px;}.c{fill:#fff;}</style></defs><g transform="translate(1.675 3.013)"><path class="a" d="M5.1,3.5H6.895m.858,0H9.547m.858,0H12.2" transform="translate(-1.726 -1.159)"/><path class="b" d="M11.488,10.037V11.6m0,3.518v1.563M9.456,15.118h2.735a.86.86,0,0,0,0-1.72H10.784a.86.86,0,0,1,0-1.72H13.52M2.5,5.581V1.673A1.2,1.2,0,0,1,3.672.5H19.3a1.2,1.2,0,0,1,1.172,1.173V5.19" transform="translate(-1.162 -0.5)"/><path class="b" d="M20.476,11.078V19.66a1.2,1.2,0,0,1-1.172,1.17H3.672A1.2,1.2,0,0,1,2.5,19.66V11" transform="translate(-1.162 -2.777)"/><path class="c" d="M19.94,6.714l.469,2.653H1.812l.469-2.653H19.94M20.175,5.7H2.047a.684.684,0,0,0-.7.546L.8,9.523a.675.675,0,0,0,.7.78H20.8a.675.675,0,0,0,.7-.78l-.547-3.277A.85.85,0,0,0,20.175,5.7Z" transform="translate(-0.785 -1.634)"/></g><path class="d" d="M0,0H24V24H0Z"/></svg>