<svg xmlns="http://www.w3.org/2000/svg" width="30" height="30" viewBox="0 0 30 30">
    <g fill="none" fill-rule="evenodd">
        <g stroke="#FFF" stroke-width="1.3">
            <g>
                <g>
                    <g>
                        <path d="M.117 3.892L23.451 3.892M.117 7.542L23.451 7.542M2.709 12.32L4.77 12.32M6.648 12.32L8.712 12.32M11.597 17.485H3.112c-1.655 0-2.995-1.356-2.995-3.026V3.143c0-1.671 1.34-3.027 2.995-3.027h17.344c1.653 0 2.995 1.356 2.995 3.027v11.316c0 1.44-.998 2.646-2.332 2.951" transform="translate(-58 -334) translate(25 324) translate(33 10) translate(3.158 5.526)"/>
                    </g>
                    <g stroke-linejoin="round">
                        <path d="M1 0h6.017l2.15 2.073c.196.189.307.449.307.72v6.47c0 .552-.448 1-1 1H1c-.552 0-1-.448-1-1V1c0-.552.448-1 1-1zM2.368 4.342L6.316 4.342M2.368 6.711L7.105 6.711" transform="translate(-58 -334) translate(25 324) translate(33 10) translate(15 16.579)"/>
                    </g>
                </g>
            </g>
        </g>
    </g>
</svg>
