<svg id="ic_template" xmlns="http://www.w3.org/2000/svg" width="24" height="24" viewBox="0 0 24 24">
  <rect id="Rectangle_16" data-name="Rectangle 16" width="24" height="24" fill="#14143a" opacity="0"/>
  <g id="Group_74" data-name="Group 74" transform="translate(3.75 3.25)">
    <path id="Subtraction_40" data-name="Subtraction 40" d="M-19893.445-3844.263h-6.963a3.342,3.342,0,0,1-3.342-3.412V-3857a3.157,3.157,0,0,1,1-2.3,3.354,3.354,0,0,1,2.344-.949h3.416l.02.015v7h6.773v5.554A3.377,3.377,0,0,1-19893.445-3844.263Zm-6.289-4.236,2.5,2.663,2.5-2.663h-1.664v-1.333h-1.668v1.333Zm9.535-4.742-.779-.808.779.8v0Z" transform="translate(19905 3861.013)" fill="rgba(255,255,255,0.87)"/>
    <path id="Path_16489" data-name="Path 16489" d="M10.879.735l.012,6.1h5.791Z" transform="translate(-1.881)" fill="rgba(255,255,255,0.87)"/>
  </g>
</svg>
