<svg id="ic_transfer" xmlns="http://www.w3.org/2000/svg" width="24" height="24" viewBox="0 0 24 24">
  <rect id="Rectangle_6312" data-name="Rectangle 6312" width="24" height="24" fill="none"/>
  <g id="Group_19049" data-name="Group 19049" transform="translate(4.202 3)">
    <path id="Subtraction_49" data-name="Subtraction 49" d="M-6498.15-12134a.544.544,0,0,1-.344-.119.562.562,0,0,1-.217-.369l-.131-.945c-.735.058-1.486.086-2.232.086-.913,0-1.833-.043-2.733-.129a5.694,5.694,0,0,1-4.323-2.086,7.331,7.331,0,0,0,4.7,1.708,7.349,7.349,0,0,0,5.883-2.966l1.7,1.249a.573.573,0,0,1,.122.8l-.008.012-1.967,2.544A.572.572,0,0,1-6498.15-12134Zm-11.312-13.317h0l-1.511-1.111a.566.566,0,0,1-.226-.373.566.566,0,0,1,.1-.422l.006-.01,1.967-2.544a.567.567,0,0,1,.453-.224.551.551,0,0,1,.346.119.575.575,0,0,1,.213.374l.134.944c.735-.058,1.486-.086,2.23-.086.912,0,1.831.043,2.731.129a6.789,6.789,0,0,1,2.718.733,7.229,7.229,0,0,0-3.133-.7,7.32,7.32,0,0,0-6.033,3.175Z" transform="translate(6511.203 12151.999)" fill="#00a1e4"/>
    <g id="Group_18920" data-name="Group 18920" transform="translate(0.959 2.008)">
      <path id="Subtraction_50" data-name="Subtraction 50" d="M-6557.34-12080.4a6.824,6.824,0,0,1-6.817-6.817,6.825,6.825,0,0,1,6.817-6.82,6.828,6.828,0,0,1,6.821,6.821A6.827,6.827,0,0,1-6557.34-12080.4Zm0-11.932a5.121,5.121,0,0,0-5.114,5.115,5.121,5.121,0,0,0,5.114,5.113,5.119,5.119,0,0,0,5.114-5.114,5.121,5.121,0,0,0-5.114-5.082Z" transform="translate(6564.161 12094.008)" fill="rgba(255,255,255,0.87)"/>
      <g id="Group_18803" data-name="Group 18803" transform="translate(3.693 3.693)">
        <g id="Group_18303" data-name="Group 18303">
          <path id="Path_15435" data-name="Path 15435" d="M-76.927-29.973h-.366v6.216h.366Z" transform="translate(80.235 29.991)" fill="rgba(255,255,255,0.87)"/>
          <g id="Group_18300" data-name="Group 18300" transform="translate(0 0.038)">
            <path id="Path_15436" data-name="Path 15436" d="M-81.538-24.5a1.11,1.11,0,0,1-.016-.136.564.564,0,0,1,.467-.553c-.808.029-.839.582-.833.685a3.125,3.125,0,0,0,2.9,2.551l.171.007h.184v-.643a.339.339,0,0,1-.369.261A2.749,2.749,0,0,1-81.538-24.5Z" transform="translate(81.97 28.158)" fill="rgba(255,255,255,0.87)"/>
            <g id="Group_18299" data-name="Group 18299">
              <path id="Path_15437" data-name="Path 15437" d="M-79.263-29.939A3.125,3.125,0,0,0-82-26.955h0v.113a3.166,3.166,0,0,0,.053.569s-.024-.683.894-.683h1.791Z" transform="translate(82 29.939)" fill="rgba(255,255,255,0.87)"/>
            </g>
          </g>
          <g id="Group_18302" data-name="Group 18302" transform="translate(2.942)">
            <path id="Path_15438" data-name="Path 15438" d="M-74.417-27.445a1.092,1.092,0,0,1,.016.136.564.564,0,0,1-.467.553c.808-.029.839-.582.833-.685a3.125,3.125,0,0,0-2.9-2.551L-77.109-30h-.184v.643a.339.339,0,0,1,.369-.262,2.75,2.75,0,0,1,2.507,2.174Z" transform="translate(77.293 30)" fill="rgba(255,255,255,0.87)"/>
            <g id="Group_18301" data-name="Group 18301" transform="translate(0.571 2.544)">
              <path id="Path_15439" data-name="Path 15439" d="M-76.379-22.262a3.125,3.125,0,0,0,2.734-2.984h0v-.113a3.17,3.17,0,0,0-.052-.569s.024.683-.894.683h-1.791Z" transform="translate(76.379 25.93)" fill="rgba(255,255,255,0.87)"/>
            </g>
          </g>
        </g>
      </g>
    </g>
  </g>
</svg>
