<svg xmlns="http://www.w3.org/2000/svg" width="30" height="30" viewBox="0 0 30 30">
    <g fill="none" fill-rule="evenodd">
        <g stroke="#FFF" stroke-width="1.46">
            <g>
                <g>
                    <g transform="translate(-58 -535) translate(0 89) translate(58 446) translate(2.368 2.368)">
                        <path stroke-linecap="square" d="M10.947 5.895L10.947 10.947 5.895 10.947"/>
                        <path d="M15.158 16v3.368c0 1.396 2.262 2.527 5.053 2.527 2.79 0 5.052-1.131 5.052-2.527V16"/>
                        <path d="M15.158 19.368v3.369c0 1.395 2.262 2.526 5.053 2.526 2.79 0 5.052-1.13 5.052-2.526v-3.369"/>
                        <ellipse cx="20.211" cy="16" stroke-linecap="square" rx="5.053" ry="2.526"/>
                        <path stroke-linecap="square" d="M11.79 21.863c-.278.02-.56.032-.843.032C4.901 21.895 0 16.994 0 10.947 0 4.901 4.901 0 10.947 0c5.763 0 10.486 4.453 10.916 10.105"/>
                    </g>
                </g>
            </g>
        </g>
    </g>
</svg>
