<svg xmlns="http://www.w3.org/2000/svg" width="50" height="50" viewBox="0 0 50 50"><defs><style>.a{fill:#72bf00;}.b{fill:none;stroke:rgba(255,255,255,0.8);}.c{opacity:0.9;}.d{fill:#fff;fill-rule:evenodd;}</style></defs><g transform="translate(-1325.5 361.5)"><circle class="a" cx="24.5" cy="24.5" r="24.5" transform="translate(1326 -361)"/><g transform="translate(1336.5 -378.5)"><g transform="translate(-11 17)"><circle class="b" cx="24.5" cy="24.5" r="24.5" transform="translate(0.5 0.5)"/><g class="c"><path class="d" d="M17.546,13.29c-.056,2.02-.175,3.126,2.547,4.29,3.055.942,7.907.581,7.907,9.358,0,0-4.421,6.062-14,6.062S0,26.938,0,26.938c0-8.777,4.852-8.416,7.91-9.357,2.719-1.165,2.6-2.27,2.544-4.29A4.907,4.907,0,0,1,8.32,9.76L7.91,6.009a6.108,6.108,0,0,1,10.4-4.249,5.936,5.936,0,0,1,1.786,4.249l-.41,3.75a4.915,4.915,0,0,1-2.137,3.531" transform="translate(11 13)"/></g></g></g></g></svg>