<svg id="invoice" xmlns="http://www.w3.org/2000/svg" width="64" height="64" viewBox="0 0 64 64">
  <rect id="Rectangle_6165" data-name="Rectangle 6165" width="64" height="64" fill="none"/>
  <g id="Group_18931" data-name="Group 18931" transform="translate(-1570.07 -1135.462)">
    <g id="Rectangle_6075" data-name="Rectangle 6075" transform="translate(1583.07 1147.227)">
      <path id="Path_19293" data-name="Path 19293" d="M1601.8,1156.963a1.113,1.113,0,0,1-1.114,1.129H1589.2a1.121,1.121,0,1,1,0-2.242h11.486A1.11,1.11,0,0,1,1601.8,1156.963Z" transform="translate(-1580.443 -1140.719)" fill="#fff"/>
      <path id="Path_19294" data-name="Path 19294" d="M1606.374,1154.044a1.11,1.11,0,0,1-1.113,1.113H1589.2a1.114,1.114,0,1,1,0-2.227h16.062A1.1,1.1,0,0,1,1606.374,1154.044Z" transform="translate(-1580.443 -1142.253)" fill="#fff"/>
      <path id="Path_19295" data-name="Path 19295" d="M1601.42,1165.531h-9.594a1.114,1.114,0,1,0,0,2.227h5.766a4.576,4.576,0,0,1,3.783-2h.7A1.01,1.01,0,0,0,1601.42,1165.531Zm0,0h-9.594a1.114,1.114,0,1,0,0,2.227h5.766a4.576,4.576,0,0,1,3.783-2h.7A1.01,1.01,0,0,0,1601.42,1165.531Zm4.1,13.026,3.615,3.2,2.913-3.066,3.691-3.89a1.15,1.15,0,0,1,.885-.351v-5.644h-15.254a1.52,1.52,0,0,0-1.525,1.525v16.779a2.908,2.908,0,0,0,.427,1.525h13.3a3.05,3.05,0,0,0,3.051-3.051v-8.374l-4.576,4.79-1.952,2.059-.076.076a1.09,1.09,0,0,1-.824.366,1.11,1.11,0,0,1-.763-.29l-.168-.152-4.271-3.8a1.145,1.145,0,0,1,1.526-1.708Zm8.054-32.627h-27.456a3.05,3.05,0,0,0-3.051,3.051v36.609a3.06,3.06,0,0,0,3.051,3.051H1597a5.586,5.586,0,0,1-.2-1.525v-3.051h-7.627a1.53,1.53,0,0,1-1.525-1.525v-30.507a1.52,1.52,0,0,1,1.525-1.525h21.355a1.51,1.51,0,0,1,1.525,1.525v13.728h4.576v-16.779A3.04,3.04,0,0,0,1613.577,1145.93Zm-12.157,19.6h-9.594a1.114,1.114,0,1,0,0,2.227h5.766a4.576,4.576,0,0,1,3.783-2h.7A1.01,1.01,0,0,0,1601.42,1165.531Zm0,0h-9.594a1.114,1.114,0,1,0,0,2.227h5.766a4.576,4.576,0,0,1,3.783-2h.7A1.01,1.01,0,0,0,1601.42,1165.531Zm0,0h-9.594a1.114,1.114,0,1,0,0,2.227h5.766a4.576,4.576,0,0,1,3.783-2h.7A1.01,1.01,0,0,0,1601.42,1165.531Z" transform="translate(-1583.07 -1145.93)" fill="#fff"/>
    </g>
    <g id="Rectangle_6076" data-name="Rectangle 6076" transform="translate(1590.697 1157.904)">
      <path id="Path_19296" data-name="Path 19296" d="M1588.07,1156.963a1.123,1.123,0,0,1,1.129-1.113h11.486a1.121,1.121,0,0,1,0,2.242H1589.2A1.126,1.126,0,0,1,1588.07,1156.963Z" transform="translate(-1588.07 -1151.396)" fill="#fff"/>
      <path id="Path_19297" data-name="Path 19297" d="M1588.07,1154.044a1.113,1.113,0,0,1,1.129-1.114h16.062a1.113,1.113,0,1,1,0,2.227H1589.2A1.123,1.123,0,0,1,1588.07,1154.044Z" transform="translate(-1588.07 -1152.93)" fill="#fff"/>
      <path id="Path_19298" data-name="Path 19298" d="M1599.449,1159.009h-.7a4.577,4.577,0,0,0-3.783,2H1589.2a1.114,1.114,0,1,1,0-2.227h9.594A1.01,1.01,0,0,1,1599.449,1159.009Z" transform="translate(-1588.07 -1149.857)" fill="#fff"/>
      <path id="Path_19299" data-name="Path 19299" d="M1606.273,1160.93v9.884l-2.913,3.066-3.615-3.2a1.145,1.145,0,0,0-1.525,1.709l4.271,3.8h-8.42v-13.728a1.52,1.52,0,0,1,1.525-1.525Z" transform="translate(-1584.918 -1148.727)" fill="#fff"/>
      <path id="Path_19300" data-name="Path 19300" d="M1600.79,1171.639l1.952-2.059v.534a1.52,1.52,0,0,1-1.525,1.525Z" transform="translate(-1581.387 -1144.183)" fill="#fff"/>
    </g>
    <g id="Path_16259" data-name="Path 16259" transform="translate(1592.584 1143.462)">
      <path id="Path_19301" data-name="Path 19301" d="M1602.993,1149.564h-12.825a1,1,0,0,1-.85-1.135.944.944,0,0,1,.052-.2l.93-3.372a1.746,1.746,0,0,1,1.6-1.391h9.363a1.745,1.745,0,0,1,1.6,1.391l.93,3.372a1,1,0,0,1-.595,1.286A.941.941,0,0,1,1602.993,1149.564Z" transform="translate(-1589.307 -1143.462)" fill="#fff"/>
    </g>
    <g id="Rectangle_6077" data-name="Rectangle 6077" transform="translate(1590.697 1157.904)">
      <path id="Path_19302" data-name="Path 19302" d="M1606.374,1154.044a1.11,1.11,0,0,1-1.113,1.113H1589.2a1.114,1.114,0,1,1,0-2.227h16.062A1.1,1.1,0,0,1,1606.374,1154.044Z" transform="translate(-1588.07 -1152.93)" fill="#fff"/>
    </g>
    <g id="Rectangle_6078" data-name="Rectangle 6078" transform="translate(1590.697 1162.358)">
      <path id="Path_19303" data-name="Path 19303" d="M1601.8,1156.963a1.113,1.113,0,0,1-1.114,1.129H1589.2a1.121,1.121,0,1,1,0-2.242h11.486A1.11,1.11,0,0,1,1601.8,1156.963Z" transform="translate(-1588.07 -1155.85)" fill="#fff"/>
    </g>
    <g id="Rectangle_6079" data-name="Rectangle 6079" transform="translate(1590.697 1166.827)">
      <path id="Path_19304" data-name="Path 19304" d="M1599.449,1159.009h-.7a4.577,4.577,0,0,0-3.783,2H1589.2a1.114,1.114,0,1,1,0-2.227h9.594A1.01,1.01,0,0,1,1599.449,1159.009Z" transform="translate(-1588.07 -1158.78)" fill="#fff"/>
    </g>
    <g id="Group_19049" data-name="Group 19049" transform="translate(1599.849 1170.107)">
      <g id="Group_18807" data-name="Group 18807">
        <g id="Rectangle_5957" data-name="Rectangle 5957">
          <g id="Group_20164" data-name="Group 20164">
            <path id="Path_19305" data-name="Path 19305" d="M1612.374,1160.93H1595.6a1.52,1.52,0,0,0-1.525,1.525v16.779a2.908,2.908,0,0,0,.427,1.525,3,3,0,0,0,.915.991,2.164,2.164,0,0,0,.519.29,3.07,3.07,0,0,0,1.19.244h15.254a3.05,3.05,0,0,0,3.051-3.051v-15.254A3.04,3.04,0,0,0,1612.374,1160.93Zm-.748,7.581-.778.824-4.576,4.79-1.952,2.059-.076.076a1.09,1.09,0,0,1-.824.366,1.111,1.111,0,0,1-.763-.29l-.168-.152-4.271-3.8a1.145,1.145,0,0,1,1.525-1.709l3.615,3.2,2.913-3.066,3.691-3.89a1.15,1.15,0,0,1,.885-.351,1.177,1.177,0,0,1,.732.32A1.151,1.151,0,0,1,1611.627,1168.511Z" transform="translate(-1594.07 -1160.93)" fill="#fff"/>
          </g>
        </g>
      </g>
    </g>
  </g>
</svg>
