<svg id="loyalty" xmlns="http://www.w3.org/2000/svg" width="64" height="64" viewBox="0 0 64 64">
  <rect id="Rectangle_6165" data-name="Rectangle 6165" width="64" height="64" fill="none"/>
  <g id="Group_17433" data-name="Group 17433" transform="translate(-233.602 -122.438)">
    <path id="Path_15422" data-name="Path 15422" d="M212.394,73.923a10.16,10.16,0,0,0-13.854-3.79l-1.243.683-.683-1.243a10.16,10.16,0,0,0-13.854-3.79h0A10.234,10.234,0,0,0,178.1,71.5h.249a10.151,10.151,0,0,1,5.591,2.112,10.533,10.533,0,0,1,1.926,14.662l-1.118,1.491,4.97,8.7L207.362,88.4l1.243-.683A10.02,10.02,0,0,0,212.394,73.923Z" transform="translate(79.855 71.991)" fill="#fff"/>
    <path id="Path_15423" data-name="Path 15423" d="M166.06,83.846a4.353,4.353,0,0,0-3.47,1.72l-2.45,3.186L156.955,86.3a4.29,4.29,0,0,0-2.636-.9,4.353,4.353,0,0,0-3.47,1.72,4.3,4.3,0,0,0-.864,3.21,4.365,4.365,0,0,0,1.685,2.9l10.112,7.8,7.773-10.081a4.517,4.517,0,0,0,.833-3.283,4.41,4.41,0,0,0-1.691-2.914,4.291,4.291,0,0,0-2.636-.9h0m0-3a7.3,7.3,0,0,1,4.465,1.524,7.473,7.473,0,0,1,1.429,10.375l-.621.808-9.008,11.68L149.837,95.6a7.356,7.356,0,1,1,8.946-11.68l.808.621.621-.808A7.363,7.363,0,0,1,166.061,80.846Z" transform="translate(91.654 65.78)" fill="#fff"/>
  </g>
</svg>
