<svg xmlns="http://www.w3.org/2000/svg" width="64" height="64" viewBox="0 0 64 64">
  <g id="menu_ic03" transform="translate(-764 -211)">
    <rect id="Rectangle_6370" data-name="Rectangle 6370" width="64" height="64" transform="translate(764 211)" fill="none"/>
    <g id="Group_19684" data-name="Group 19684" transform="translate(772 216)">
      <path id="Union_35" data-name="Union 35" d="M31.267,22.733l-.406-2.9A87.951,87.951,0,0,1,15.7,19.7C2.027,18.688.084,8.441.084,8.441s2.891,4.144,13.752,4.99a58.772,58.772,0,0,0,15.969-1.108L29.359,9.14A1.737,1.737,0,0,1,32.1,7.491l7.92,5.82a1.737,1.737,0,0,1,.37,2.429l-.024.033-6.009,7.774a1.737,1.737,0,0,1-3.094-.819Z" transform="translate(6.92 30.779)" fill="#fff7e5"/>
      <path id="Union_35-2" data-name="Union 35" d="M31.183,15.577l-.406-2.9a87.952,87.952,0,0,1-15.165-.13C1.943,11.532,0,1.285,0,1.285s2.891,4.144,13.752,4.99A58.772,58.772,0,0,0,29.721,5.167l-.446-3.182A1.737,1.737,0,0,1,32.02.335l7.92,5.82a1.737,1.737,0,0,1,.37,2.429l-.024.033-6.009,7.774a1.737,1.737,0,0,1-3.094-.819Z" transform="translate(40.648 17.065) rotate(180)" fill="#fff7e5"/>
      <g id="Group_18920" data-name="Group 18920" transform="translate(2.93 6.136)">
        <g id="Ellipse_1105" data-name="Ellipse 1105" fill="#fff7e5" stroke="#d4b264" stroke-width="1">
          <circle cx="20.834" cy="20.834" r="20.834" stroke="none"/>
          <circle cx="20.834" cy="20.834" r="21.334" fill="none"/>
        </g>
        <circle id="Ellipse_1111" data-name="Ellipse 1111" cx="15.625" cy="15.625" r="15.625" transform="translate(5.208 5.208)" fill="#d4b264"/>
        <g id="Group_18803" data-name="Group 18803" transform="translate(11.285 11.285)">
          <g id="Group_18303" data-name="Group 18303" transform="translate(0 0)">
            <path id="Path_15435" data-name="Path 15435" d="M-76.174-29.968c-.011,0-1.119-.008-1.119-.008v18.993c.013,0,1.119,0,1.119,0Z" transform="translate(86.282 30.022)" fill="#fff7e5"/>
            <g id="Group_18300" data-name="Group 18300" transform="translate(0 0.116)">
              <path id="Path_15436" data-name="Path 15436" d="M-80.75-23.086a3.393,3.393,0,0,1-.05-.414,1.724,1.724,0,0,1,1.427-1.688c-2.469.09-2.565,1.778-2.546,2.093a9.548,9.548,0,0,0,8.869,7.8l.523.021H-72l.04,0v-1.965a1.035,1.035,0,0,1-1.127.8A8.4,8.4,0,0,1-80.75-23.086Z" transform="translate(82.072 34.26)" fill="#fff7e5"/>
              <g id="Group_18299" data-name="Group 18299">
                <path id="Path_15437" data-name="Path 15437" d="M-73.637-29.939a9.549,9.549,0,0,0-8.355,9.117h0v.006h0c0,.115-.008.229-.008.346a9.679,9.679,0,0,0,.16,1.74s-.075-2.085,2.731-2.085h5.471Z" transform="translate(82 29.939)" fill="#fff7e5"/>
              </g>
            </g>
            <g id="Group_18302" data-name="Group 18302" transform="translate(8.989)">
              <path id="Path_15438" data-name="Path 15438" d="M-68.506-22.193a3.337,3.337,0,0,1,.05.414,1.724,1.724,0,0,1-1.427,1.688c2.469-.09,2.565-1.778,2.546-2.093a9.548,9.548,0,0,0-8.869-7.8L-76.73-30h-.523l-.04,0v1.965a1.037,1.037,0,0,1,1.127-.8A8.4,8.4,0,0,1-68.506-22.193Z" transform="translate(77.293 30)" fill="#fff7e5"/>
              <g id="Group_18301" data-name="Group 18301" transform="translate(1.746 7.773)">
                <path id="Path_15439" data-name="Path 15439" d="M-76.379-14.722a9.549,9.549,0,0,0,8.355-9.117h0v-.006h0c0-.115.008-.229.008-.346a9.682,9.682,0,0,0-.16-1.74s.074,2.085-2.731,2.085h-5.471Z" transform="translate(76.379 25.93)" fill="#fff7e5"/>
              </g>
            </g>
          </g>
        </g>
      </g>
    </g>
  </g>
</svg>
