<svg id="others_ic05" xmlns="http://www.w3.org/2000/svg" width="64" height="64" viewBox="0 0 64 64">
  <rect id="Rectangle_6168" data-name="Rectangle 6168" width="64" height="64" fill="none"/>
  <path id="Path_19310" data-name="Path 19310" d="M20669.543-16629.691a3.425,3.425,0,0,1-3.426-3.424v-41.146a3.436,3.436,0,0,1,3.426-3.426h25.717a3.426,3.426,0,0,1,3.43,3.426v5.244a14.236,14.236,0,0,0-1.715-.1,16.006,16.006,0,0,0-3.43.375v-2.09a1.716,1.716,0,0,0-1.711-1.715h-18.861a1.721,1.721,0,0,0-1.715,1.715v34.287a1.725,1.725,0,0,0,1.715,1.715h18.861a1.72,1.72,0,0,0,1.711-1.715v-2.1a15.761,15.761,0,0,0,3.43.379,14.234,14.234,0,0,0,1.715-.1v5.25a3.414,3.414,0,0,1-3.43,3.424Zm10.285-11.143a2.575,2.575,0,0,1,2.506-2.57c.023,0,.045,0,.066,0a2.576,2.576,0,0,1,2.574,2.572,2.575,2.575,0,0,1-2.574,2.572A2.574,2.574,0,0,1,20679.828-16640.834Zm16.7-.865a11.848,11.848,0,0,1-2.986-.49v0a12.022,12.022,0,0,1-8.426-9.633,12.1,12.1,0,0,1-.145-1.873,11.979,11.979,0,0,1,8.57-11.486,11.525,11.525,0,0,1,3.43-.514,9.3,9.3,0,0,1,1.715.141,11.974,11.974,0,0,1,10.285,11.859,11.968,11.968,0,0,1-10.285,11.865,9.465,9.465,0,0,1-1.715.135C20696.826-16641.691,20696.678-16641.693,20696.531-16641.7Zm.547-3.437a1.283,1.283,0,0,0,1.283-1.283v-1.164a2.478,2.478,0,0,0,.328-.09,3.721,3.721,0,0,0,1.148-.633,4,4,0,0,0,1.455-2.76,3.382,3.382,0,0,0-1.887-3.135c-.238-.125-.479-.229-.717-.326a10.44,10.44,0,0,0-2.23-.687,1.124,1.124,0,0,1-.807-1.084,1.085,1.085,0,0,1,.039-.271,1.433,1.433,0,0,1,1.521-.977h.037a2.712,2.712,0,0,1,1.439.43,3.008,3.008,0,0,1,.514.412,1.285,1.285,0,0,0,1.82.035,1.279,1.279,0,0,0,.031-1.818,5.276,5.276,0,0,0-2.365-1.424c-.1-.037-.223-.053-.328-.084v-1.2a1.3,1.3,0,0,0-1.283-1.287,1.287,1.287,0,0,0-1.289,1.287v1.27a3.77,3.77,0,0,0-2.24,1.881,3.5,3.5,0,0,0-.291.66c-.012.037-.023.076-.035.115a3.584,3.584,0,0,0-.131.711c-.006.094-.01.188-.01.281a3.387,3.387,0,0,0,.014.346v.008l.012.1c0,.02.006.039.008.059l.006.035.012.074v.006a3.647,3.647,0,0,0,.416,1.156,3.74,3.74,0,0,0,.98,1.135,3.652,3.652,0,0,0,1.229.615c.031.016.135.031.172.053a8.827,8.827,0,0,1,2.328.785.911.911,0,0,1,.432.467.491.491,0,0,1,.053.2,1.532,1.532,0,0,1-.053.26,1.408,1.408,0,0,1-.463.666,1.44,1.44,0,0,1-1.014.291.738.738,0,0,0-.187-.016,4.341,4.341,0,0,1-2.5-.926,1.308,1.308,0,0,0-.844-.273l-.129.014a1.251,1.251,0,0,0-.826.463.381.381,0,0,0-.033.045,1.32,1.32,0,0,0-.242.672,1.306,1.306,0,0,0,.484,1.1,3.567,3.567,0,0,0,.617.41,6.359,6.359,0,0,0,1.941.84q.149.038.3.07v1.2A1.274,1.274,0,0,0,20697.078-16645.137Z" transform="translate(-20655.547 16685.688)" fill="#fff7e5" stroke="rgba(0,0,0,0)" stroke-width="1"/>
</svg>
