<svg id="saving" xmlns="http://www.w3.org/2000/svg" width="64" height="64" viewBox="0 0 64 64">
  <rect id="Rectangle_6164" data-name="Rectangle 6164" width="64" height="64" fill="none"/>
  <g id="Group_18926" data-name="Group 18926" transform="translate(-1532.66 -1125.56)">
    <g id="Group_18922" data-name="Group 18922" transform="translate(1539.66 1139.951)">
      <g id="Path_16387" data-name="Path 16387" transform="translate(41.595 6.796)">
        <path id="Path_19207" data-name="Path 19207" d="M1570.925,1151.039a10.474,10.474,0,0,1-3.44,1.49,2.393,2.393,0,0,1-.349.032h-.063a.269.269,0,0,0-.016-.111,6.81,6.81,0,0,0-1.157-2.457,1.625,1.625,0,0,1,.9-.555,7.86,7.86,0,0,0,2.727-1.268,3.715,3.715,0,0,0,1.538-3.725,1.589,1.589,0,0,1,3.139-.492A6.879,6.879,0,0,1,1570.925,1151.039Z" transform="translate(-1565.9 -1142.617)" fill="#fff"/>
      </g>
      <g id="Path_16384" data-name="Path 16384" transform="translate(4.169 9.797)">
        <path id="Path_19208" data-name="Path 19208" d="M1542.29,1151.69a.778.778,0,0,0,.016.19c0,.047-.016.111-.016.158Z" transform="translate(-1542.29 -1140.308)" fill="#fff"/>
        <path id="Path_19209" data-name="Path 19209" d="M1545.12,1154.531a.968.968,0,0,1,.19.079H1542.9a7.247,7.247,0,0,1-.571-2.14,2.579,2.579,0,0,0,.761,1.411C1543.8,1154.657,1544.28,1154.214,1545.12,1154.531Z" transform="translate(-1542.267 -1139.852)" fill="#fff"/>
        <path id="Path_19210" data-name="Path 19210" d="M1542.911,1149.57h2.631a1.064,1.064,0,0,1-.4.285c-.808.412-1.427-.158-2.156.666a2.913,2.913,0,0,0-.65,1.284A7.873,7.873,0,0,1,1542.911,1149.57Z" transform="translate(-1542.261 -1141.549)" fill="#fff"/>
        <path id="Path_19211" data-name="Path 19211" d="M1547.876,1150.183a1.209,1.209,0,0,1-.476-1.617,3.667,3.667,0,0,1,2.79-1.871l.143-.016.143.016a3.707,3.707,0,0,1,2.774,1.871,1.185,1.185,0,0,1-.476,1.617,1.163,1.163,0,0,1-1.6-.476,1.394,1.394,0,0,0-.856-.634,1.279,1.279,0,0,0-.824.634,1.187,1.187,0,0,1-1.046.618A1.268,1.268,0,0,1,1547.876,1150.183Z" transform="translate(-1539.38 -1143.24)" fill="#fff"/>
        <path id="Path_19212" data-name="Path 19212" d="M1571.879,1161.725l.792-.19-1,.269a39.678,39.678,0,0,1-10.843,1.3,24.085,24.085,0,0,1-6.88-1l-1.506-.46-.206,1.458-.1.19a2.206,2.206,0,0,1-.729.65l-2.425-1.427a2.828,2.828,0,0,1,.285-1.141l.587-1.078-1.015-.7a11.488,11.488,0,0,1-4.122-5.1l-.174-.4a1.011,1.011,0,0,1,.253.46,11.292,11.292,0,0,0,4.027,4.993l1.221.793c-.92,1.7-1.015,1.189-.793,1.87a2,2,0,0,0,2.029,1.11c.745-.19.586.46.951-1.839l1.68.555a23.582,23.582,0,0,0,6.817,1.015h.095A40.571,40.571,0,0,0,1571.879,1161.725Z" transform="translate(-1540.967 -1138.898)" fill="#fff"/>
        <path id="Path_19213" data-name="Path 19213" d="M1558.137,1146.888a1.184,1.184,0,0,1-1.157-1.2,1.245,1.245,0,0,1,1.22-1.173,15.844,15.844,0,0,1,7.783,2.251,1.2,1.2,0,0,1-.6,2.219,1.258,1.258,0,0,1-.618-.174A13.517,13.517,0,0,0,1558.137,1146.888Z" transform="translate(-1533.694 -1144.51)" fill="#fff"/>
        <path id="Path_19214" data-name="Path 19214" d="M1563.949,1160.726a2.139,2.139,0,0,0,.84-.158l-1.268.65a2.363,2.363,0,0,1-.618-.7l-.111-.269-.222-1.474.539-.127C1563.537,1161.107,1563.41,1160.711,1563.949,1160.726Z" transform="translate(-1530.422 -1136.235)" fill="#fff"/>
        <path id="Path_19215" data-name="Path 19215" d="M1564.98,1159.3a2.891,2.891,0,0,1,.127,1.109l-.9.46a2.148,2.148,0,0,0,.761-.872c.238-.84-.824-1.855-.824-1.855l.317-.3.3.824a1.1,1.1,0,0,1,.047.127Z" transform="translate(-1529.503 -1136.709)" fill="#fff"/>
        <path id="Path_19216" data-name="Path 19216" d="M1567.287,1153.937a20.6,20.6,0,0,0-.666-4.962.224.224,0,0,0-.032-.095.144.144,0,0,0,.079.016A19.524,19.524,0,0,1,1567.287,1153.937Z" transform="translate(-1528.07 -1141.953)" fill="#fff"/>
      </g>
      <g id="Path_16385" data-name="Path 16385">
        <path id="Path_19217" data-name="Path 19217" d="M1586.455,1154.182c-.047-.206-.111-.428-.174-.634a10.427,10.427,0,0,0-1.395-2.869c-1.886-2.758-5.184-5.152-9.654-6.911a33.016,33.016,0,0,0-13.379-1.474,10.2,10.2,0,0,0-5.041-3.725,2.725,2.725,0,0,0-2.473.127,3.063,3.063,0,0,0-1.284,2.251,28.917,28.917,0,0,1-1.316,3.361,14.111,14.111,0,0,0-7.831,8.417h-.6c-2.869,0-3.646,4.565-3.646,6.975,0,3.471,1.125,6.975,3.646,6.975h1.11a14.9,14.9,0,0,0,3.662,4.581,3.546,3.546,0,0,0,1.268,3.931l3.155,1.839a2.742,2.742,0,0,0,1.363.365,3.706,3.706,0,0,0,.935-.143,5.6,5.6,0,0,0,2.346-1.553,28.259,28.259,0,0,0,6.515.761,44.717,44.717,0,0,0,10.478-1.062,5.264,5.264,0,0,0,2.219,1.728,2.858,2.858,0,0,0,2.283-.079l3.234-1.633c1.728-.888,1.807-3.17,1.442-4.708C1586.09,1167.672,1588.5,1162.536,1586.455,1154.182Zm-3.408,5.929a12.617,12.617,0,0,1-.206,2.362,10.185,10.185,0,0,1-3.313,6.087l-.745.7-.317.3s1.062,1.014.824,1.854a2.146,2.146,0,0,1-.761.872,1.675,1.675,0,0,1-.333.174,2.139,2.139,0,0,1-.84.158c-.539-.016-.412.38-.84-2.077l-.539.127-.444.1-.793.19a40.57,40.57,0,0,1-11.049,1.331h-.095a23.582,23.582,0,0,1-6.816-1.015l-1.68-.555c-.365,2.3-.206,1.649-.951,1.839a2,2,0,0,1-2.029-1.11c-.222-.682-.127-.174.792-1.87l-1.221-.793a11.292,11.292,0,0,1-4.026-4.993,1.01,1.01,0,0,0-.254-.46,1.241,1.241,0,0,0-.539-.444.969.969,0,0,0-.19-.079c-.84-.317-1.315.127-2.029-.65a2.581,2.581,0,0,1-.761-1.411.273.273,0,0,1-.031-.19,2.043,2.043,0,0,1-.032-.7c0-.048.016-.111.016-.158a.778.778,0,0,1-.016-.19,2.459,2.459,0,0,1,.079-1.125,2.913,2.913,0,0,1,.65-1.284c.729-.824,1.347-.254,2.156-.666a1.063,1.063,0,0,0,.4-.285c.047-.032.079-.063.079-.1l.222-.967a10.385,10.385,0,0,1,6.658-7.593l.492-.174.238-.46c.713-1.4,1.791-4.328,1.791-4.328a11.835,11.835,0,0,1,3.06,2.9l.412.745,1.506-.079c2.33-.143,7.783-.507,12.047,1.157,3.535,1.4,6.166,3.218,7.641,5.247a6.808,6.808,0,0,1,1.157,2.457" transform="translate(-1539.66 -1138.33)" fill="#fff"/>
      </g>
      <g id="Path_16386" data-name="Path 16386" transform="translate(27.455 9.797)">
        <path id="Path_19218" data-name="Path 19218" d="M1566.4,1148.394a1.176,1.176,0,0,1-1.014.586,1.258,1.258,0,0,1-.618-.174,13.517,13.517,0,0,0-6.626-1.918,1.184,1.184,0,0,1-1.157-1.2,1.245,1.245,0,0,1,1.22-1.173,15.844,15.844,0,0,1,7.783,2.251A1.18,1.18,0,0,1,1566.4,1148.394Z" transform="translate(-1556.98 -1144.51)" fill="#fff"/>
      </g>
      <g id="Path_16388" data-name="Path 16388" transform="translate(12.052 13.237)">
        <path id="Path_19219" data-name="Path 19219" d="M1552.774,1150.183a1.163,1.163,0,0,1-1.6-.476,1.394,1.394,0,0,0-.856-.634,1.279,1.279,0,0,0-.824.634,1.187,1.187,0,0,1-1.046.618,1.268,1.268,0,0,1-.571-.143,1.209,1.209,0,0,1-.476-1.617,3.667,3.667,0,0,1,2.79-1.871l.143-.016.143.016a3.707,3.707,0,0,1,2.774,1.871A1.185,1.185,0,0,1,1552.774,1150.183Z" transform="translate(-1547.263 -1146.68)" fill="#fff"/>
      </g>
    </g>
    <g id="Ellipse_1114" data-name="Ellipse 1114" transform="translate(1574.537 1135.559)">
      <circle id="Ellipse_1411" data-name="Ellipse 1411" cx="4.756" cy="4.756" r="4.756" fill="#fff"/>
    </g>
  </g>
</svg>
