<svg id="smart_otp" xmlns="http://www.w3.org/2000/svg" width="64" height="64" viewBox="0 0 64 64">
  <rect id="Rectangle_6164" data-name="Rectangle 6164" width="64" height="64" fill="none"/>
  <path id="Path_19312" data-name="Path 19312" d="M20264.395-16636.215a3.736,3.736,0,0,1-2.168-1.881,3.705,3.705,0,0,1-.406-1.687v-25.951a6.768,6.768,0,0,1,6.77-6.77h22.566a11.7,11.7,0,0,0-.387,3.006,10.31,10.31,0,0,0,.1,1.5h-22.281a2.257,2.257,0,0,0-2.26,2.26V-16641l7.342-3.67h23.861a2.262,2.262,0,0,0,2.258-2.254v-11.219a11.449,11.449,0,0,0,2.631.3,10.866,10.866,0,0,0,1.881-.148v11.066a6.776,6.776,0,0,1-6.77,6.766h-22.8l-7.473,3.746a3.83,3.83,0,0,1-1.682.393A4.073,4.073,0,0,1,20264.395-16636.215Zm25.156-14.711a1.124,1.124,0,0,1-1.066-1.127v-9.156a1.128,1.128,0,0,1,1.1-1.131h1.336a3.729,3.729,0,0,1,3.369,2.105c.006,0,.006.01.012.016a3.744,3.744,0,0,1,.367,1.625,3.743,3.743,0,0,1-3.748,3.742h-.178v2.8a1.12,1.12,0,0,1-1.07,1.127c-.021,0-.041,0-.057,0S20289.57-16650.926,20289.551-16650.926Zm1.188-6.18h.178a1.493,1.493,0,0,0,1.488-1.488,1.479,1.479,0,0,0-1.488-1.488h-.178Zm-7.34,6.184a1.118,1.118,0,0,1-1.127-1.131v-8.029h-1.852a1.125,1.125,0,0,1-1.127-1.127,1.123,1.123,0,0,1,1.1-1.131h6.01a1.132,1.132,0,0,1,1.1,1.131,1.135,1.135,0,0,1-1.131,1.127h-1.846v8.029a1.132,1.132,0,0,1-1.127,1.131Zm-8.387-.01a3.753,3.753,0,0,1-3.553-3.736v-3.926a3.742,3.742,0,0,1,3.318-3.721,3.813,3.813,0,0,1,.428-.025,3.9,3.9,0,0,1,.43.025,3.743,3.743,0,0,1,3.328,3.721v3.926a3.755,3.755,0,0,1-3.568,3.736c-.061.006-.127.01-.189.01S20275.072-16650.926,20275.012-16650.932Zm-1.295-7.662v3.926a1.493,1.493,0,0,0,1.412,1.488h.152a1.5,1.5,0,0,0,1.428-1.488v-3.926a1.5,1.5,0,0,0-1.5-1.488A1.49,1.49,0,0,0,20273.717-16658.594Zm26.074-1.881a9.384,9.384,0,0,1-6.631-7.52,8.159,8.159,0,0,1-.139-1.5,9.474,9.474,0,0,1,.5-3.006,9.419,9.419,0,0,1,8.9-6.389,9.4,9.4,0,0,1,9.4,9.395,9.423,9.423,0,0,1-7.52,9.207,8.845,8.845,0,0,1-1.881.193A9.432,9.432,0,0,1,20299.791-16660.475Zm.434-5.76a2.909,2.909,0,0,0,.453.27.388.388,0,0,1,.225.275l.27,1.4a.423.423,0,0,0,.393.316h1.729a.385.385,0,0,0,.377-.316l.287-1.4a.353.353,0,0,1,.209-.275c.045-.016.076-.041.121-.061v-.01a1.426,1.426,0,0,0,.18-.092c.014-.016.029-.016.045-.031a1.18,1.18,0,0,1,.107-.076.279.279,0,0,1,.117-.041.561.561,0,0,1,.229,0l1.336.449h.016a.465.465,0,0,0,.137.014h.031a.288.288,0,0,0,.148-.045.362.362,0,0,0,.152-.133l.857-1.5a.39.39,0,0,0-.092-.484l-1.051-.928a.377.377,0,0,1-.139-.291v-.045c0-.086.016-.178.016-.256s-.016-.178-.016-.27a.377.377,0,0,1,.139-.332l1.051-.932a.438.438,0,0,0,.1-.133.424.424,0,0,0-.01-.348l-.316-.555-.021-.035.021.035-.557-.947a.4.4,0,0,0-.469-.164l-1.336.449a.337.337,0,0,1-.27-.016.1.1,0,0,1-.041-.01.184.184,0,0,1-.035-.021,1.18,1.18,0,0,1-.107-.076c-.016-.016-.031-.016-.045-.025a1.785,1.785,0,0,0-.3-.168.335.335,0,0,1-.148-.123.183.183,0,0,1-.047-.1c-.014-.016-.029-.031-.029-.045l-.271-1.4a.38.38,0,0,0-.377-.311h-1.729a.418.418,0,0,0-.393.311l-.27,1.4a.28.28,0,0,1-.076.146.152.152,0,0,1-.076.076.209.209,0,0,1-.072.047,4.249,4.249,0,0,0-.453.27.379.379,0,0,1-.342.047l-1.34-.449a.389.389,0,0,0-.465.164l-.3.523-.561.979a.414.414,0,0,0-.051.188.386.386,0,0,0,.127.293l1.066.932a.472.472,0,0,1,.137.332,1.6,1.6,0,0,0-.016.27,1.484,1.484,0,0,0,.016.256.471.471,0,0,1-.137.336l-1.051.912-.016.016a.4.4,0,0,0-.127.3.421.421,0,0,0,.051.188l.861,1.5a.282.282,0,0,0,.133.133.4.4,0,0,0,.217.049.783.783,0,0,0,.115-.018l1.188-.408.152-.047a.36.36,0,0,1,.15-.02.394.394,0,0,1,.191.066Zm1.248-1.352c-.07-.045-.162-.092-.238-.133a2.115,2.115,0,0,0-.418-.225,2.217,2.217,0,0,0-.7-.148l-.016,0-.1,0c.014-.023.025-.045.037-.068,0,0,0-.006,0-.01a2.277,2.277,0,0,0,.244-1.186v-.51c0-.012,0-.021,0-.031s0-.027,0-.041,0-.031,0-.047,0-.016,0-.023l-.006-.062a.007.007,0,0,1,0-.006,2.3,2.3,0,0,0-.252-.8c-.006-.01-.01-.02-.016-.031a2.109,2.109,0,0,0,1.234-.377.337.337,0,0,0,.092-.061.527.527,0,0,0,.146-.076,2.146,2.146,0,0,0,.949-.883,2.318,2.318,0,0,0,.947.883.173.173,0,0,0,.037.02c.076.041.137.082.2.117a2.214,2.214,0,0,0,.393.215,2.29,2.29,0,0,0,.855.162,2.2,2.2,0,0,0-.3,1.266c0,.045.016.086.016.146s-.016.092-.016.123a2.211,2.211,0,0,0,.3,1.279h-.014a2.051,2.051,0,0,0-.9.193,1.875,1.875,0,0,0-.332.184c-.076.041-.152.088-.24.133a2.244,2.244,0,0,0-.947.887A2.132,2.132,0,0,0,20301.473-16667.586Z" transform="translate(-20254.82 16689.893)" fill="#fff"/>
</svg>
