<svg xmlns="http://www.w3.org/2000/svg" width="24" height="24" viewBox="0 0 24 24">
  <g id="toast_ic_check" transform="translate(-564 -801)">
    <rect id="Rectangle_4007" data-name="Rectangle 4007" width="24" height="24" transform="translate(564 801)" fill="none"/>
    <path id="Path_10236" data-name="Path 10236" d="M15,6a9,9,0,1,0,9,9A8.963,8.963,0,0,0,15,6Zm4.7,6.7-5.5,6a.967.967,0,0,1-1.4,0L10.3,16a.992.992,0,0,1,1.5-1.3l1.7,1.9,4.8-5.2a1.071,1.071,0,0,1,1.4-.1A.965.965,0,0,1,19.7,12.7Z" transform="translate(561 798)" fill="#fff"/>
  </g>
</svg>
