<svg id="transfers_ic05" xmlns="http://www.w3.org/2000/svg" width="64" height="64" viewBox="0 0 64 64">
  <rect id="Rectangle_6166" data-name="Rectangle 6166" width="64" height="64" fill="none"/>
  <path id="Union_65" data-name="Union 65" d="M19201.594-17024.967v-2.619H19181.1l5.854-8.785h14.639V-17039a1.478,1.478,0,0,1,.008-.162c0-.008,0-.018,0-.025s0-.035.006-.051a1.463,1.463,0,0,1,2.412-.861l.5.438,4.393,3.838,3.129,2.734a1.481,1.481,0,0,1,0,2.213l-8.023,7.025a1.434,1.434,0,0,1-.963.354A1.459,1.459,0,0,1,19201.594-17024.967Zm-27.812-2.619a2.923,2.923,0,0,1-2.926-2.926v-19.1a12.151,12.151,0,0,0,4.393.8v8.02l6.277-7.73a1.058,1.058,0,0,1,.82-.395.986.986,0,0,1,.834.338l4.219,4.42,6.148-9.951a1.071,1.071,0,0,1,.92-.531,1.1,1.1,0,0,1,.922.5l4.248,6.529,3.51-4.055a.467.467,0,0,1,.043-.045,1.1,1.1,0,0,1,1.336-.191v-7.889a1.462,1.462,0,0,0-1.465-1.467h-15.373a12.019,12.019,0,0,0-.8-4.387h19.1a2.925,2.925,0,0,1,2.932,2.926v23.994l-3.457-3.033a3.529,3.529,0,0,0-.936-.6v-7.557l-4.17,4.832a1.139,1.139,0,0,1-.742.375c-.039,0-.08.006-.119.006h-.051a1.283,1.283,0,0,1-.129-.018,1.1,1.1,0,0,1-.719-.479l-4.1-6.293-5.969,9.7a1.207,1.207,0,0,1-.82.516.917.917,0,0,1-.1,0,1.091,1.091,0,0,1-.725-.262.794.794,0,0,1-.082-.08l-4.346-4.551-5.814,7.156a1.1,1.1,0,0,1-.85.395c-.023,0-.047,0-.07,0a1.126,1.126,0,0,1-.469-.129v5.3a1.456,1.456,0,0,0,1.461,1.461h4.672l-2.926,4.393Zm-2.926-24.416a10.227,10.227,0,0,1-5.854-9.254,10.241,10.241,0,0,1,10.246-10.246,10.218,10.218,0,0,1,9.252,5.859,10.058,10.058,0,0,1,.994,4.387v.006h0a10.174,10.174,0,0,1-1.053,4.52c0,.01-.01.02-.014.029a.058.058,0,0,0-.008.016,10.259,10.259,0,0,1-8.777,5.674c-.131.006-.262.008-.395.008A10.032,10.032,0,0,1,19170.855-17052Zm4.393-1.963a.62.62,0,0,0,.158.014,1.094,1.094,0,0,0,1.1-1.094v-1a3.423,3.423,0,0,0,2.518-2.984,2.911,2.911,0,0,0-.965-2.223h.006l-.006-.006a3.208,3.208,0,0,0-.66-.434,8.862,8.862,0,0,0-2.518-.883.884.884,0,0,1-.568-.437.93.93,0,0,1-.115-.447.858.858,0,0,1,.043-.271,1.185,1.185,0,0,1,1.287-.82,2.414,2.414,0,0,1,1.7.719,1.12,1.12,0,0,0,1.553.029,1.1,1.1,0,0,0,.338-.77,1.1,1.1,0,0,0-.309-.783c-.1-.1-.207-.2-.309-.289a4.487,4.487,0,0,0-1.992-1.014v-1.008a1.1,1.1,0,0,0-1.1-1.1,1.1,1.1,0,0,0-1.094,1.1v1.066a3.33,3.33,0,0,0-1.625,1.156,3.156,3.156,0,0,0-.574,1.115,3.319,3.319,0,0,0-.115.838,3.13,3.13,0,0,0,.395,1.549,3.084,3.084,0,0,0,1.877,1.475.475.475,0,0,0,.174.049,8.289,8.289,0,0,1,.861.217,8.37,8.37,0,0,1,1.115.467.7.7,0,0,1,.41.561,1.13,1.13,0,0,1-.439.791,1.042,1.042,0,0,1-.7.262l-.061,0a.286.286,0,0,1-.1-.014c-.033,0-.117-.016-.148-.016a.393.393,0,0,0-.131.016v-.029a3.623,3.623,0,0,1-2.021-.777,1.1,1.1,0,0,0-1.537.193,1.07,1.07,0,0,0-.236.7,1.084,1.084,0,0,0,.41.832,5.9,5.9,0,0,0,2.449,1.143v1.027A1.1,1.1,0,0,0,19175.248-17053.965Z" transform="translate(-19157 17079.5)" fill="#fff"/>
</svg>
