<svg id="transfer" xmlns="http://www.w3.org/2000/svg" width="64" height="64" viewBox="0 0 64 64">
  <rect id="Rectangle_6166" data-name="Rectangle 6166" width="64" height="64" fill="none"/>
  <g id="Group_18918" data-name="Group 18918" transform="translate(10.001 7.607)">
    <g id="Union_35" data-name="Union 35" transform="translate(6.467 35.026)">
      <path id="Path_19194" data-name="Path 19194" d="M1548.508,1159.393c-.465-.4-.93-.817-1.363-1.25a19.385,19.385,0,0,1-1.843-2.116c0-.016,0-.032-.016-.032v-.016a.666.666,0,0,1-.016-.112s2.677,3.831,12.7,4.616a54.224,54.224,0,0,0,14.747-1.026l-.417-2.949a1.6,1.6,0,0,1,1.362-1.811,1.656,1.656,0,0,1,1.186.289l1.346.994.032.016c-.208.257-.417.529-.641.785v.016c-.3.353-.609.689-.93,1.026-.321.321-.641.641-.978.962-.224.208-.449.417-.689.609h-.016l-.721.577a17.856,17.856,0,0,1-2.324,1.491,19.248,19.248,0,0,1-18.337,0,16.143,16.143,0,0,1-1.587-.962Q1549.229,1159.97,1548.508,1159.393Z" transform="translate(-1545.27 -1154.679)" fill="#fff"/>
      <path id="Path_19195" data-name="Path 19195" d="M1581.458,1161.754l-.016.032-5.546,7.181a1.612,1.612,0,0,1-2.869-.753l-.369-2.677a81.781,81.781,0,0,1-14.01-.112c-6.043-.449-9.585-2.853-11.669-5.241a20.787,20.787,0,0,0,29.478-4.1l4.665,3.43A1.611,1.611,0,0,1,1581.458,1161.754Z" transform="translate(-1544.239 -1153.834)" fill="#fff"/>
    </g>
    <g id="Union_35-2" data-name="Union 35-2">
      <path id="Path_19196" data-name="Path 19196" d="M1546.02,1145.943l-4.119-3.03a1.6,1.6,0,0,1-.353-2.244l.032-.032,5.546-7.181a1.607,1.607,0,0,1,2.244-.3,1.629,1.629,0,0,1,.609,1.058l.369,2.677a80.11,80.11,0,0,1,12.711,0A20.754,20.754,0,0,0,1546.02,1145.943Z" transform="translate(-1541.235 -1132.827)" fill="#fff"/>
      <path id="Path_19197" data-name="Path 19197" d="M1576.469,1145.24c-.3-.385-3.206-3.847-12.679-4.584a54.214,54.214,0,0,0-14.747,1.026l.417,2.949a1.606,1.606,0,0,1-2.533,1.523l-1.907-1.395v-.016a19.763,19.763,0,0,1,2.949-3.382,16.779,16.779,0,0,1,1.427-1.17,18.712,18.712,0,0,1,4.648-2.565,19.08,19.08,0,0,1,6.844-1.266,19.3,19.3,0,0,1,6.62,1.17,18.241,18.241,0,0,1,2.549,1.154c.273.16.545.3.818.465a18.417,18.417,0,0,1,1.523,1.042h.016a15.814,15.814,0,0,1,1.395,1.17c.24.208.465.433.673.641a12.6,12.6,0,0,1,1.25,1.362,1.611,1.611,0,0,0,.208.256c0,.016,0,.016.016.032A8.223,8.223,0,0,1,1576.469,1145.24Z" transform="translate(-1538.953 -1130.698)" fill="#fff"/>
    </g>
    <g id="Group_18920" data-name="Group 18920" transform="translate(2.717 5.662)">
      <g id="Ellipse_1105" data-name="Ellipse 1105">
        <g id="Group_20152" data-name="Group 20152">
          <path id="Path_19198" data-name="Path 19198" d="M1566.918,1150.147a9.379,9.379,0,0,1,.128,1.507v.321a8.826,8.826,0,0,1-7.71,8.415v-8.415h5.049a2.95,2.95,0,0,0,.385-.016,1.6,1.6,0,0,0,1.106-1.507,1.572,1.572,0,0,0-.048-.385,7.723,7.723,0,0,0-7.053-6.123h-.016v16.494h-.016v.048h-.513l-.481-.016a8.817,8.817,0,0,1-8.175-7.165c-.016-.016-.016-.016-.016-.032v-.064a9.379,9.379,0,0,1-.128-1.507v-.321a8.812,8.812,0,0,1,7.71-8.415v8.415h-5.049a2.745,2.745,0,0,0-.369.016,1.572,1.572,0,0,0-1.074,1.891,7.741,7.741,0,0,0,7.069,6.123V1142.9h.016v-.032h.513l.481.016a8.817,8.817,0,0,1,8.175,7.165c.016.016.016.016.016.032Z" transform="translate(-1539.011 -1132.435)" fill="#fff"/>
          <path id="Path_19199" data-name="Path 19199" d="M1581.288,1153.639a18.913,18.913,0,0,0-.289-1.907,19.617,19.617,0,0,0-1.122-3.607q-.192-.457-.385-.865a20.434,20.434,0,0,0-2.276-3.607c-.016-.016-.016-.016-.016-.032a1.611,1.611,0,0,1-.208-.256,12.6,12.6,0,0,0-1.25-1.362c-.208-.208-.433-.433-.673-.641a15.814,15.814,0,0,0-1.395-1.17h-.016a18.417,18.417,0,0,0-1.523-1.042c-.273-.16-.545-.3-.818-.465a18.241,18.241,0,0,0-2.549-1.154,19.3,19.3,0,0,0-6.62-1.17,19.08,19.08,0,0,0-6.844,1.266,18.712,18.712,0,0,0-4.648,2.565,16.779,16.779,0,0,0-1.427,1.17,19.763,19.763,0,0,0-2.949,3.382v.016c-.128.176-.257.369-.385.561a17,17,0,0,0-1.555,3.046c-.208.5-.385.994-.545,1.507a19.32,19.32,0,0,0-.865,5.722,19.962,19.962,0,0,0,.657,5.033c.145.529.321,1.058.5,1.571a18.655,18.655,0,0,0,2.292,4.376,4.529,4.529,0,0,0,.321.449v.016c.016,0,.016.016.016.032a19.363,19.363,0,0,0,1.843,2.116c.433.433.9.85,1.363,1.25q.721.577,1.49,1.106a16.143,16.143,0,0,0,1.587.962,19.248,19.248,0,0,0,18.337,0,17.855,17.855,0,0,0,2.324-1.491l.721-.577h.016c.24-.192.465-.4.689-.609.337-.321.657-.641.978-.962.321-.337.625-.673.93-1.026v-.016c.224-.257.433-.529.641-.785.064-.1.128-.208.192-.321.064-.1.128-.192.208-.3.369-.545.721-1.09,1.042-1.667.144-.256.289-.529.417-.8l.385-.865a19.607,19.607,0,0,0,1.122-3.606,18.915,18.915,0,0,0,.289-1.908,16.088,16.088,0,0,0,.112-1.972A15.831,15.831,0,0,0,1581.288,1153.639Zm-19.123,16.382a14.426,14.426,0,1,1,14.426-14.426A14.417,14.417,0,0,1,1562.165,1170.021Z" transform="translate(-1542.93 -1136.36)" fill="#fff"/>
        </g>
        <g id="Group_20153" data-name="Group 20153" transform="translate(25.839 1.17)">
          <path id="Path_19200" data-name="Path 19200" d="M1559.05,1137.09a22.929,22.929,0,0,1,2.549,1.154A18.24,18.24,0,0,0,1559.05,1137.09Zm12.631,18.065a15.832,15.832,0,0,0-.112-1.956c.064.641.1,1.3.1,1.956,0,.673-.032,1.314-.1,1.972A16.092,16.092,0,0,0,1571.681,1155.155Zm-10.066,16.911a17.856,17.856,0,0,0,2.324-1.491A22,22,0,0,1,1561.615,1172.066Zm6.267-5.482c-.192.273-.4.529-.609.8.224-.257.433-.529.641-.785.064-.1.128-.208.192-.321C1568.026,1166.391,1567.946,1166.488,1567.882,1166.583Zm-8.832-29.493a22.929,22.929,0,0,1,2.549,1.154A18.24,18.24,0,0,0,1559.05,1137.09Z" transform="translate(-1559.05 -1137.09)" fill="#fff"/>
        </g>
      </g>
      <g id="Ellipse_1111" data-name="Ellipse 1111" transform="translate(10.419 10.435)">
        <path id="Path_19201" data-name="Path 19201" d="M1567.046,1151.654v.321a8.826,8.826,0,0,1-7.71,8.415v-8.415h5.049a2.95,2.95,0,0,0,.385-.016,1.6,1.6,0,0,0,1.106-1.507,1.572,1.572,0,0,0-.048-.385,7.723,7.723,0,0,0-7.053-6.123h-.016v16.494h-.016v.048h-.513l-.481-.016a8.817,8.817,0,0,1-8.175-7.165c-.016-.016-.016-.016-.016-.032v-.064a9.379,9.379,0,0,1-.128-1.507v-.321a8.812,8.812,0,0,1,7.71-8.415v8.415h-5.049a2.745,2.745,0,0,0-.369.016,1.572,1.572,0,0,0-1.074,1.891,7.741,7.741,0,0,0,7.069,6.123V1142.9h.016v-.032h.513l.481.016a8.817,8.817,0,0,1,8.175,7.165c.016.016.016.016.016.032v.064A9.379,9.379,0,0,1,1567.046,1151.654Z" transform="translate(-1549.43 -1142.87)" fill="#fff"/>
      </g>
      <g id="Group_18803" data-name="Group 18803" transform="translate(10.419 10.435)">
        <g id="Group_18303" data-name="Group 18303">
          <g id="Path_15435" data-name="Path 15435" transform="translate(8.287 0.032)">
            <path id="Path_19202" data-name="Path 19202" d="M1555.642,1142.89v17.536H1554.6V1142.89h1.042Z" transform="translate(-1554.6 -1142.89)" fill="#fff"/>
          </g>
          <g id="Group_18300" data-name="Group 18300" transform="translate(0 0.096)">
            <g id="Path_15436" data-name="Path 15436" transform="translate(0.128 8.383)">
              <path id="Path_19203" data-name="Path 19203" d="M1558.695,1155.485v1.811h-.513l-.481-.016a8.817,8.817,0,0,1-8.175-7.165c-.016-.016-.016-.016-.016-.032v-.064c0-.4.208-1.779,2.356-1.859l-.192.048a1.572,1.572,0,0,0-1.074,1.891,7.741,7.741,0,0,0,7.069,6.123A.936.936,0,0,0,1558.695,1155.485Z" transform="translate(-1549.51 -1148.16)" fill="#fff"/>
            </g>
            <g id="Group_18299" data-name="Group 18299">
              <g id="Path_15437" data-name="Path 15437">
                <path id="Path_19204" data-name="Path 19204" d="M1557.14,1142.93v8.415h-5.049a2.745,2.745,0,0,0-.369.016c-2.083.16-2.148,1.7-2.148,1.891,0-.016-.016-.048-.016-.064v-.016a9.379,9.379,0,0,1-.128-1.507v-.321A8.812,8.812,0,0,1,1557.14,1142.93Z" transform="translate(-1549.43 -1142.93)" fill="#fff"/>
              </g>
            </g>
          </g>
          <g id="Group_18302" data-name="Group 18302" transform="translate(8.303)">
            <g id="Path_15438" data-name="Path 15438">
              <path id="Path_19205" data-name="Path 19205" d="M1563.795,1150.083v.064c0,.4-.208,1.779-2.356,1.875a1.032,1.032,0,0,0,.208-.064,1.6,1.6,0,0,0,1.106-1.507,1.572,1.572,0,0,0-.048-.385,7.723,7.723,0,0,0-7.053-6.123h-.016a.926.926,0,0,0-1.026.737v-1.811h.513l.481.016a8.817,8.817,0,0,1,8.175,7.165C1563.795,1150.067,1563.795,1150.067,1563.795,1150.083Z" transform="translate(-1554.61 -1142.87)" fill="#fff"/>
            </g>
            <g id="Group_18301" data-name="Group 18301" transform="translate(1.603 7.197)">
              <g id="Path_15439" data-name="Path 15439">
                <path id="Path_19206" data-name="Path 19206" d="M1563.32,1148.947v.321a8.825,8.825,0,0,1-7.71,8.415v-8.415h5.049a2.95,2.95,0,0,0,.385-.016c2.068-.176,2.132-1.747,2.132-1.891,0,.016.016.048.016.064v.016A9.38,9.38,0,0,1,1563.32,1148.947Z" transform="translate(-1555.61 -1147.36)" fill="#fff"/>
              </g>
            </g>
          </g>
        </g>
      </g>
    </g>
  </g>
</svg>
