<svg id="transfers_ic02" xmlns="http://www.w3.org/2000/svg" width="64" height="64" viewBox="0 0 64 64">
  <rect id="Rectangle_6166" data-name="Rectangle 6166" width="64" height="64" fill="none"/>
  <g id="Group_18918" data-name="Group 18918" transform="translate(-1541.176 -1124.031)">
    <g id="Subtraction_16" data-name="Subtraction 16" transform="translate(1552.785 1132.032)">
      <path id="Path_19220" data-name="Path 19220" d="M1556.139,1143.085h0l-2.77-2.033a1.435,1.435,0,0,1-.306-2.007l0,0,.019-.029,4.967-6.423a1.435,1.435,0,0,1,2.556.674l.339,2.392c1.874-.144,3.774-.221,5.641-.221,2.288,0,4.607.11,6.889.329a18.849,18.849,0,0,1,4.881.983H1568.6c-6.888,0-10.726,1.955-12.454,6.336Z" transform="translate(-1552.785 -1132.032)" fill="#fff"/>
    </g>
    <g id="Group_20072" data-name="Group 20072" transform="translate(1556.509 1138.229)">
      <g id="Vector">
        <path id="Path_19221" data-name="Path 19221" d="M1567.564,1148.208a1.165,1.165,0,0,0,.8,1.435,11.866,11.866,0,0,1,3.215,1.1,3.722,3.722,0,0,1,2.081,3.444,4.371,4.371,0,0,1-1.607,3.028,4.082,4.082,0,0,1-1.593.8v1.234a1.435,1.435,0,0,1-2.87,0v-1.277a7.532,7.532,0,0,1-3.1-1.464,1.436,1.436,0,0,1,1.779-2.253,4.7,4.7,0,0,0,2.712,1c.072,0,.129.014.187.014a.536.536,0,0,0,.144.014,1.4,1.4,0,0,0,.947-.316,1.44,1.44,0,0,0,.545-.99.9.9,0,0,0-.5-.675,9.076,9.076,0,0,0-2.526-.861c-.043-.014-.157-.043-.2-.057a4.036,4.036,0,0,1-2.784-4.98,4.33,4.33,0,0,1,2.8-2.885v-1.349a1.435,1.435,0,0,1,2.87,0v1.249a5.86,5.86,0,0,1,2.927,1.665,1.436,1.436,0,0,1-2.067,1.995,2.93,2.93,0,0,0-2.109-.9h-.029A1.46,1.46,0,0,0,1567.564,1148.208Z" transform="translate(-1551.649 -1134)" fill="#fff"/>
        <path id="Path_19222" data-name="Path 19222" d="M1577.768,1136.35h-10.333c-8.611,0-12.055,3.444-12.055,12.055v10.333c0,8.611,3.444,12.055,12.055,12.055h10.333c8.611,0,12.055-3.444,12.055-12.055V1148.4C1589.823,1139.794,1586.379,1136.35,1577.768,1136.35Zm8.6,21.34c0,6.889-2.755,9.63-9.63,9.63h-8.252c-6.888,0-9.644-2.741-9.644-9.63v-8.252c0-6.874,2.756-9.63,9.644-9.63h8.252c6.874,0,9.63,2.755,9.63,9.63Z" transform="translate(-1555.38 -1136.35)" fill="#fff"/>
      </g>
      <g id="Vector-2" transform="translate(12.306 7.75)">
        <path id="Path_19223" data-name="Path 19223" d="M1573.664,1154.192a4.371,4.371,0,0,1-1.607,3.028,4.082,4.082,0,0,1-1.593.8v1.234a1.435,1.435,0,0,1-2.87,0v-1.277a7.532,7.532,0,0,1-3.1-1.464,1.436,1.436,0,0,1,1.779-2.253,4.7,4.7,0,0,0,2.712,1c.072,0,.129.014.187.014a.536.536,0,0,0,.144.014,1.4,1.4,0,0,0,.947-.316,1.44,1.44,0,0,0,.545-.99.9.9,0,0,0-.5-.675,9.076,9.076,0,0,0-2.526-.861c-.043-.014-.157-.043-.2-.057a4.036,4.036,0,0,1-2.784-4.98,4.33,4.33,0,0,1,2.8-2.885v-1.349a1.435,1.435,0,0,1,2.87,0v1.249a5.86,5.86,0,0,1,2.927,1.665,1.436,1.436,0,0,1-2.067,1.995,2.93,2.93,0,0,0-2.109-.9h-.029a1.46,1.46,0,0,0-1.622,1.019,1.165,1.165,0,0,0,.8,1.435,11.866,11.866,0,0,1,3.215,1.1A3.722,3.722,0,0,1,1573.664,1154.192Z" transform="translate(-1563.955 -1141.75)" fill="#fff"/>
      </g>
      <g id="Group_20073" data-name="Group 20073" transform="translate(12.306 7.75)">
        <g id="Path_15911" data-name="Path 15911" transform="translate(3.638)">
          <path id="Path_19224" data-name="Path 19224" d="M1569.36,1143.185v2.54a1.435,1.435,0,0,1-2.87,0v-2.54a1.435,1.435,0,0,1,2.87,0Z" transform="translate(-1566.49 -1141.75)" fill="#fff"/>
        </g>
        <g id="Path_15912" data-name="Path 15912" transform="translate(3.638 13.519)">
          <path id="Path_19225" data-name="Path 19225" d="M1569.36,1152.605v2.554a1.435,1.435,0,0,1-2.87,0v-2.554a1.44,1.44,0,0,1,1.392-1.435c.072,0,.129.014.187.014a.541.541,0,0,0,.144.014A1.432,1.432,0,0,1,1569.36,1152.605Z" transform="translate(-1566.49 -1151.17)" fill="#fff"/>
        </g>
        <g id="Path_15910" data-name="Path 15910" transform="translate(0 2.557)">
          <path id="Path_19226" data-name="Path 19226" d="M1573.664,1153.417a4.37,4.37,0,0,1-1.607,3.028,4.31,4.31,0,0,1-2.7.947,2.889,2.889,0,0,1-.488-.028h-.058a6.944,6.944,0,0,1-1.22-.158,7.53,7.53,0,0,1-3.1-1.464,1.436,1.436,0,0,1,1.779-2.253,4.7,4.7,0,0,0,2.712,1c.072,0,.129.014.187.014a.55.55,0,0,0,.144.014,1.4,1.4,0,0,0,.947-.316,1.441,1.441,0,0,0,.545-.99.9.9,0,0,0-.5-.674,9.069,9.069,0,0,0-2.526-.861c-.043-.014-.157-.043-.2-.057a4.036,4.036,0,0,1-2.784-4.98,4.33,4.33,0,0,1,2.8-2.885,4.25,4.25,0,0,1,1.708-.215h.072a5.626,5.626,0,0,1,1.091.115,5.863,5.863,0,0,1,2.927,1.665,1.436,1.436,0,0,1-2.067,1.995,2.931,2.931,0,0,0-2.109-.9h-.029a1.46,1.46,0,0,0-1.622,1.019,1.165,1.165,0,0,0,.8,1.435,11.883,11.883,0,0,1,3.215,1.105A3.722,3.722,0,0,1,1573.664,1153.417Z" transform="translate(-1563.955 -1143.531)" fill="#fff"/>
        </g>
      </g>
    </g>
    <g id="Subtraction_17" data-name="Subtraction 17" transform="translate(1562.487 1169.217)">
      <path id="Path_19227" data-name="Path 19227" d="M1583.285,1168.758a1.5,1.5,0,0,1-.914-.312,1.519,1.519,0,0,1-.565-.979l-.35-2.494c-1.948.152-3.925.23-5.877.23-2.392,0-4.819-.115-7.213-.341a16.768,16.768,0,0,1-8.82-2.971,20.951,20.951,0,0,0,5.729.672h11.035a18.522,18.522,0,0,0,6.983-1.1,8.267,8.267,0,0,0,4.162-3.519l1.9,1.4a1.5,1.5,0,0,1,.323,2.1l-.023.029-5.186,6.708A1.489,1.489,0,0,1,1583.285,1168.758Z" transform="translate(-1559.545 -1157.943)" fill="#fff"/>
    </g>
  </g>
</svg>
