<svg id="transfers_ic04" xmlns="http://www.w3.org/2000/svg" width="64" height="64" viewBox="0 0 64 64">
  <rect id="Rectangle_6164" data-name="Rectangle 6164" width="64" height="64" fill="none"/>
  <g id="Group_18972" data-name="Group 18972" transform="translate(-1557.699 -1132.855)">
    <g id="Group_18971" data-name="Group 18971" transform="translate(1569.7 1141.655)">
      <g id="Rectangle_6147" data-name="Rectangle 6147">
        <path id="Path_19235" data-name="Path 19235" d="M1600.743,1146.645l-.034-4.707a.854.854,0,0,0-.136-.459H1591.5a.853.853,0,0,0-.136.459v12.4l2.923-1.9a3.434,3.434,0,0,1,3.517,0l2.99,1.8Zm2.939-5.165h-.458a4.2,4.2,0,0,1,.034.459v12.4a2.5,2.5,0,0,1-.713,1.75,2.143,2.143,0,0,1-.561.408v25.759a1.682,1.682,0,0,1-1.7,1.7h-16.991v-37.38h5.522v-4.639a2.112,2.112,0,0,1,.051-.459H1573.1a3.408,3.408,0,0,0-3.4,3.4v40.779a3.4,3.4,0,0,0,3.4,3.4h30.584a3.386,3.386,0,0,0,3.4-3.4v-40.779A3.4,3.4,0,0,0,1603.682,1141.48Zm-23.788,42.478h-3.4a1.693,1.693,0,0,1-1.7-1.7v-33.982a1.7,1.7,0,0,1,1.7-1.7h3.4Z" transform="translate(-1569.7 -1141.48)" fill="#fff"/>
      </g>
      <g id="Exclusion_5" data-name="Exclusion 5" transform="translate(21.664 5.097)">
        <path id="Path_19236" data-name="Path 19236" d="M1591.829,1144.548a1.429,1.429,0,0,0-.459-.068h-8.92v7.765l2.923-1.9a3.435,3.435,0,0,1,3.517,0l2.99,1.8Z" transform="translate(-1582.45 -1144.48)" fill="#fff"/>
      </g>
    </g>
    <g id="Path_16351" data-name="Path 16351" transform="translate(1591.364 1141.23)">
      <path id="Path_19237" data-name="Path 19237" d="M1591.88,1154.415l-2.99-1.8a3.435,3.435,0,0,0-3.517,0l-2.923,1.9v-12.4a.853.853,0,0,1,.136-.459.885.885,0,0,1,.748-.425h7.595a.9.9,0,0,1,.866.884l.034,4.707Z" transform="translate(-1582.45 -1141.23)" fill="#fff"/>
    </g>
  </g>
</svg>
