<svg id="ultinity_ic_03" xmlns="http://www.w3.org/2000/svg" width="24" height="24" viewBox="0 0 24 24">
  <rect id="Rectangle_6364" data-name="Rectangle 6364" width="24" height="24" fill="none"/>
  <g id="Group_18987" data-name="Group 18987" transform="translate(14.113 14.225)">
    <path id="Subtraction_53" data-name="Subtraction 53" d="M9.288,16.128H3a3,3,0,0,1-3-3V8.76a3.012,3.012,0,0,1,2.949-3,4.7,4.7,0,0,1-.072-.82V4.606a4.607,4.607,0,0,1,9.213,0v.335a4.675,4.675,0,0,1-.073.819,3.015,3.015,0,0,1,2.953,3v1.6a4.44,4.44,0,0,0-5.687,5.764Zm-1.8-5.856a1,1,0,1,0,1,1A1,1,0,0,0,7.488,10.272Zm0-8.544A2.882,2.882,0,0,0,4.609,4.607V5.76h5.757V4.607A2.882,2.882,0,0,0,7.488,1.728Z" transform="translate(-10.117 -11.225)" fill="rgba(255,255,255,0.87)"/>
    <path id="Path_16429" data-name="Path 16429" d="M3.457,0A3.457,3.457,0,1,1,0,3.457,3.457,3.457,0,0,1,3.457,0Z" transform="translate(0.043 -0.139)" fill="rgba(255,255,255,0.87)"/>
    <g id="Group_18984" data-name="Group 18984" transform="translate(1.827 1.534)">
      <path id="Path_10172" data-name="Path 10172" d="M4.781,4.3a1.23,1.23,0,0,1-1.174.537,1.42,1.42,0,1,1,0-2.84,1.4,1.4,0,0,1,1.264.781" transform="translate(-2.187 -1.555)" fill="none" stroke="#3a3423" stroke-linecap="round" stroke-linejoin="round" stroke-width="0.6"/>
      <path id="Path_10173" data-name="Path 10173" d="M0,1.35.229,0l1.35.229" transform="translate(3.247 1.291) rotate(163)" fill="none" stroke="#3a3423" stroke-linecap="round" stroke-linejoin="round" stroke-width="0.6"/>
    </g>
  </g>
</svg>
