<svg id="ultinity_ic_04" xmlns="http://www.w3.org/2000/svg" width="24" height="24" viewBox="0 0 24 24">
  <rect id="Rectangle_6012" data-name="Rectangle 6012" width="24" height="24" fill="none"/>
  <g id="Group_18860" data-name="Group 18860" transform="translate(4.667 3)">
    <path id="Subtraction_45" data-name="Subtraction 45" d="M-1983.667-2386h-6.553v-18h6.553a4,4,0,0,1,4,4v10A4,4,0,0,1-1983.667-2386Zm-3.552-8.25a.746.746,0,0,0-.531.22.749.749,0,0,0-.218.472c0,.02,0,.039,0,.059a.751.751,0,0,0,.75.75h4.5a.757.757,0,0,0,.2-.026.75.75,0,0,0,.555-.724c0-.013,0-.027,0-.04a.748.748,0,0,0-.127-.379.75.75,0,0,0-.622-.331Zm0-4.5a.746.746,0,0,0-.531.22.749.749,0,0,0-.218.472c0,.02,0,.039,0,.059a.751.751,0,0,0,.75.75h4.5a.757.757,0,0,0,.2-.026.75.75,0,0,0,.555-.724c0-.013,0-.027,0-.04a.748.748,0,0,0-.127-.379.75.75,0,0,0-.622-.331Zm-4.5,12.611h0a4.007,4.007,0,0,1-2.945-3.859v-10a4.006,4.006,0,0,1,2.947-3.859v17.72Z" transform="translate(1994.667 2404)" fill="rgba(255,255,255,0.87)"/>
  </g>
</svg>
