<svg id="others_ic03" xmlns="http://www.w3.org/2000/svg" width="64" height="64" viewBox="0 0 64 64">
  <rect id="Rectangle_6164" data-name="Rectangle 6164" width="64" height="64" fill="none"/>
  <path id="Path_19309" data-name="Path 19309" d="M20352.588-16476.836c-9.27,0-13.842-3.125-15.064-10.68a30.293,30.293,0,0,1-.332-4.717v-13.2c0-11,4.4-15.4,15.4-15.4h13.2c11,0,15.4,4.4,15.4,15.4v13.2c0,11-4.4,15.4-15.4,15.4Zm1.34-4.414h10.537c8.787,0,12.307-3.52,12.307-12.3v-10.541c0-8.8-3.52-12.3-12.307-12.3h-10.537c-8.8,0-12.307,3.5-12.307,12.3v7.15h7.309v-2.834a1.578,1.578,0,0,1,1.57-1.57,1.628,1.628,0,0,1,1.039.395l8.607,7.545c.02.016.035.031.053.047s.023.023.033.035.01.01.016.014.025.027.037.043l.006.006a1.534,1.534,0,0,1,.342.67.058.058,0,0,1,0,.02c0,.014.006.027.01.041s0,.02,0,.029.006.025.008.037a.172.172,0,0,0,0,.033c0,.012,0,.023,0,.035s0,.027,0,.041,0,.023,0,.033,0,.041,0,.063v.068a.262.262,0,0,1,0,.039v.027c0,.016,0,.031,0,.047s0,.01,0,.014a1.565,1.565,0,0,1-.375.873l-.02.018a1.507,1.507,0,0,1-.125.125l-8.607,7.539a1.518,1.518,0,0,1-1.039.395c-.035,0-.07,0-.105,0a1.556,1.556,0,0,1-1.465-1.553v-2.844h-6.475C20343.918-16483.117,20347.514-16481.25,20353.928-16481.25Zm10.572-13.182v-1.381a8.337,8.337,0,0,1-3.4-1.605,1.579,1.579,0,0,1-.6-1.244,1.59,1.59,0,0,1,.338-.971c.006-.006.01-.016.016-.021a1.591,1.591,0,0,1,.844-.527,1.578,1.578,0,0,1,1.34.3,5.148,5.148,0,0,0,2.988,1.1c.029,0,.184.016.234.016s.076.016.123.016a1.609,1.609,0,0,0,1.355-.7v-.01c.006-.006.01-.016.016-.02a.014.014,0,0,0,0-.012c.006,0,.012-.016.016-.02a.006.006,0,0,1,.006-.006.08.08,0,0,1,.016-.025c0-.006,0-.01.01-.016s.006-.01.006-.02.01-.01.01-.016a.069.069,0,0,1,.01-.016.037.037,0,0,1,.01-.02c0-.006.006-.006.006-.012s.01-.02.016-.029v-.006a1.141,1.141,0,0,0,.076-.2.006.006,0,0,1,.006-.006.236.236,0,0,1,.01-.035c.006-.025.01-.047.016-.072,0-.01,0-.02.01-.025v-.016a.02.02,0,0,1,.006-.016.039.039,0,0,1,0-.02v-.01a.455.455,0,0,1,.01-.066c0-.012.006-.025.006-.037a.285.285,0,0,0-.006-.07.952.952,0,0,0-.547-.666,9.964,9.964,0,0,0-2.746-.961,1.091,1.091,0,0,1-.24-.047,4.431,4.431,0,0,1-3.2-4.244,4.5,4.5,0,0,1,.168-1.207,4.7,4.7,0,0,1,1.531-2.338,4.59,4.59,0,0,1,1.533-.84v-1.473a1.562,1.562,0,0,1,1.57-1.57,1.57,1.57,0,0,1,1.57,1.57v1.412a6.275,6.275,0,0,1,3.191,1.775,1.549,1.549,0,0,1,.441,1.084,1.6,1.6,0,0,1-.492,1.15,1.576,1.576,0,0,1-1.084.436,1.555,1.555,0,0,1-1.131-.486,3.235,3.235,0,0,0-2.342-.973c-.062,0-.129-.01-.189-.01a1.564,1.564,0,0,0-1.545,1,.157.157,0,0,1-.021.061v.006c0,.02-.01.041-.014.061a1.106,1.106,0,0,0-.053.344,1.28,1.28,0,0,0,.932,1.211,13.907,13.907,0,0,1,3.52,1.213,4.084,4.084,0,0,1,2.291,3.693v.076a4.812,4.812,0,0,1-3.5,4.2v1.35a1.573,1.573,0,0,1-1.57,1.57A1.564,1.564,0,0,1,20364.5-16494.432Z" transform="translate(-20327.188 16530.832)" fill="#fff7e5" stroke="rgba(0,0,0,0)" stroke-width="1"/>
</svg>
