<svg id="wallet_connect" xmlns="http://www.w3.org/2000/svg" width="64" height="64" viewBox="0 0 64 64">
  <rect id="Rectangle_6164" data-name="Rectangle 6164" width="64" height="64" fill="none"/>
  <path id="Path_19308" data-name="Path 19308" d="M18992.4-17621.984c-11,0-15.4-4.4-15.4-15.4v-13.2c0-11,4.4-15.4,15.4-15.4h13.2c11,0,15.4,4.4,15.4,15.4v10.984a12.759,12.759,0,0,0-4.416-3.848v-5.814c0-8.783-3.523-12.307-12.307-12.307h-10.545c-8.8,0-12.3,3.523-12.3,12.307v10.545c0,8.8,3.5,12.3,12.3,12.3h5.814a12.814,12.814,0,0,0,3.865,4.436Zm17.252-.006-.912-.143c.063,0,.125-.014.191-.014a9.713,9.713,0,0,1-1.008-.234,7.34,7.34,0,0,1-.85-.281.685.685,0,0,1-.158-.062h-.014c-.158-.053-.281-.115-.424-.176-.049-.029-.111-.062-.172-.092a1.183,1.183,0,0,1-.158-.08c-.109-.062-.234-.125-.35-.191a1.47,1.47,0,0,1-.328-.186,1.034,1.034,0,0,1-.109-.049c-.062-.047-.139-.1-.2-.139-.086-.047-.162-.1-.244-.152-.018-.014-.037-.023-.057-.039-.033-.033-.082-.047-.109-.094-.145-.092-.268-.2-.41-.3-.125-.109-.268-.219-.393-.348-.076-.062-.156-.139-.238-.2l-.139-.143c-.219-.234-.439-.473-.658-.727a8.333,8.333,0,0,1-.615-.783,10.286,10.286,0,0,1-1.791-5.074.431.431,0,0,1-.012-.1.426.426,0,0,1,.012-.1.849.849,0,0,1-.014-.186,2.476,2.476,0,0,1-.02-.377v-.027a9.162,9.162,0,0,1,.109-1.439,1.307,1.307,0,0,1,.033-.232l.049-.24c.01-.053.02-.105.031-.158,0-.023.01-.047.016-.07s.012-.061.02-.09a.3.3,0,0,1,.01-.045c.008-.039.018-.078.027-.115a.277.277,0,0,1,.01-.043c.01-.037.018-.074.027-.111a10.28,10.28,0,0,1,6.1-6.957,2.233,2.233,0,0,1,.281-.09l.037-.018a1.41,1.41,0,0,1,.26-.092,8.679,8.679,0,0,1,1.293-.35,1.172,1.172,0,0,1,.2-.027.685.685,0,0,1,.191-.035,3.555,3.555,0,0,1,.453-.061c.1-.02.176-.02.271-.033a1.174,1.174,0,0,1,.234,0,4.245,4.245,0,0,1,.611-.029h.1a1.074,1.074,0,0,1,.205.014.282.282,0,0,1,.121,0l.064,0a10.447,10.447,0,0,1,2.838.535l.014,0,.066.023a10,10,0,0,1,2.443,1.242,10.386,10.386,0,0,1,1.428,1.2c.123.137.266.281.377.424a1.587,1.587,0,0,1,.176.172c.125.158.268.33.391.5a10.129,10.129,0,0,1,1.3,2.357,7.358,7.358,0,0,1,.295.863,1.327,1.327,0,0,1,.082.254c.014.014.014.014.014.029a4.65,4.65,0,0,1,.109.52c.033.125.049.234.082.363v.043a8.287,8.287,0,0,1,.158,1.494v.219a10.268,10.268,0,0,1-10.264,10.277Zm-5.031-10.277a1.178,1.178,0,0,0,1.178,1.18h3.758v3.756a1.366,1.366,0,0,0,.033.3,1.194,1.194,0,0,0,1.146.883,1.187,1.187,0,0,0,1.178-1.18v-3.756h3.738a1.164,1.164,0,0,0,1.18-1.18,1.175,1.175,0,0,0-.865-1.131,1.038,1.038,0,0,0-.314-.043h-3.738v-3.742a1.12,1.12,0,0,0-.256-.723l-.008-.01a.043.043,0,0,1-.008-.01c-.01-.012-.02-.021-.029-.031l-.008-.012a.81.81,0,0,0-.191-.17h-.191v-.115a1.026,1.026,0,0,0-.186-.061.609.609,0,0,0-.172-.029c-.01-.01-.016-.014-.02-.014a.07.07,0,0,0-.014.014h-.207a1.048,1.048,0,0,1-.123.066,1.227,1.227,0,0,1-.363.092c-.014,0-.023,0-.037,0a.169.169,0,0,0-.02.014.077.077,0,0,0-.02.029.619.619,0,0,0-.219.2,1.058,1.058,0,0,0-.287.754v3.738h-3.758A1.189,1.189,0,0,0,19004.623-17632.268Zm-6.473.9c-.078-.016-.139-.016-.2-.029a5.831,5.831,0,0,1-4.621-4.482H18988a.421.421,0,0,1-.129-.014h-1.693a1.241,1.241,0,0,1-1.242-1.223,1.185,1.185,0,0,1,.234-.711,1.24,1.24,0,0,1,1.008-.516h.6v-13.437a4.915,4.915,0,0,1,4.9-4.9h14.727a4.9,4.9,0,0,1,3.854,1.977,4.854,4.854,0,0,1,.969,2.926v6.912a.753.753,0,0,0-.186-.016h-.3c-.215,0-.43.006-.641.016-.314.014-.621.043-.93.08l-.092.016-.1.014a.883.883,0,0,0-.2.033v-1.1a2.453,2.453,0,0,0-2.439-2.439h-14.66a2.452,2.452,0,0,0-2.447,2.439v2.168a.24.24,0,0,1,.109-.049,4.866,4.866,0,0,1,.877-.377l.33-.1a1.869,1.869,0,0,1,.426-.062,3.583,3.583,0,0,1,.705-.061h14.666a4.3,4.3,0,0,1,.5.033c-.023,0-.047.014-.07.02-.062.018-.119.037-.182.061-.082.029-.158.063-.234.092h-.014c-.158.063-.316.123-.459.186a12.568,12.568,0,0,0-2.621,1.471s0,.01-.01.01l0,0c-.082.063-.162.119-.238.182a.1.1,0,0,0-.02.014c-.082.068-.148.125-.215.178a.084.084,0,0,0-.02.014l-.047.039-.191.152h-10.842a2.417,2.417,0,0,0-2.023,1.078,2.415,2.415,0,0,0-.348.76,2.4,2.4,0,0,0-.076.611v1.055h5.2a1.232,1.232,0,0,1,.826.314,1.22,1.22,0,0,1,.4.908,3.343,3.343,0,0,0,1.084,2.467,3.3,3.3,0,0,0,1.48.8c0,.063-.02.123-.02.191a.886.886,0,0,0-.014.2,9.7,9.7,0,0,0-.062,1.2c0,.172,0,.344.014.5v.2c0,.057.016.109.016.162v.006a.046.046,0,0,1,0,.023Zm8.186-19.344h.006a4.8,4.8,0,0,1,2.367.621.643.643,0,0,1,.066.039v-1.729a2.439,2.439,0,0,0-2.439-2.436h-14.66a2.448,2.448,0,0,0-1.646.631,2.421,2.421,0,0,0-.8,1.8v1.729a4.772,4.772,0,0,1,2.447-.66Z" transform="translate(-18967 17676.488)" fill="#fff"/>
</svg>
