<svg xmlns="http://www.w3.org/2000/svg" xmlns:xlink="http://www.w3.org/1999/xlink" width="64" height="64" viewBox="0 0 64 64"><defs><linearGradient id="a" y1="0.453" x2="1" y2="0.448" gradientUnits="objectBoundingBox"><stop offset="0" stop-color="#7ed9ff"/><stop offset="0.531" stop-color="#00a1e4"/><stop offset="1" stop-color="#0073bc"/></linearGradient></defs><rect width="64" height="64" rx="20" fill="none"/><g transform="translate(-448.662 -856.748)"><path d="M37.643,28.539a2.246,2.246,0,0,1-.44-3.146,17.943,17.943,0,0,0,3.631-10.9A17.943,17.943,0,0,0,37.2,3.6,2.246,2.246,0,0,1,40.789.894a22.4,22.4,0,0,1,4.537,13.6,22.4,22.4,0,0,1-4.537,13.6,2.245,2.245,0,0,1-3.146.44ZM4.537,28.1A22.4,22.4,0,0,1,0,14.5,22.4,22.4,0,0,1,4.537.894,2.246,2.246,0,0,1,8.123,3.6,17.943,17.943,0,0,0,4.492,14.5a17.943,17.943,0,0,0,3.631,10.9A2.246,2.246,0,1,1,4.537,28.1Zm26.579-4.456a2.245,2.245,0,0,1-.449-3.144,10,10,0,0,0,0-12.005,2.246,2.246,0,1,1,3.593-2.7,14.5,14.5,0,0,1,0,17.4,2.245,2.245,0,0,1-3.144.449Zm-20.049-.449a14.494,14.494,0,0,1,0-17.4,2.246,2.246,0,1,1,3.593,2.7,10,10,0,0,0,0,12.005,2.246,2.246,0,0,1-3.593,2.695Z" transform="translate(458 874.584)" fill="url(#a)"/><g transform="translate(460.163 890.413)"><path d="M11.168,0A11.168,11.168,0,1,1,0,11.168,11.168,11.168,0,0,1,11.168,0Z" transform="translate(0 0)" fill="#fff"/><path d="M9.43,8.706A3.792,3.792,0,0,1,7.837,7.087a5.285,5.285,0,0,1-.543-2.464,5.233,5.233,0,0,1,.543-2.441A3.875,3.875,0,0,1,9.4.559,4.772,4.772,0,0,1,11.75,0a4.454,4.454,0,0,1,2.96.982l.01.009A1.263,1.263,0,0,1,15,1.349a1.009,1.009,0,0,1,.1.457,1.007,1.007,0,0,1-.217.648.759.759,0,0,1-.6.3.982.982,0,0,1-.359-.064,1.811,1.811,0,0,1-.313-.17L13.6,2.519a3.5,3.5,0,0,0-.887-.473,2.975,2.975,0,0,0-.918-.131,2.109,2.109,0,0,0-1.7.65,3.114,3.114,0,0,0-.578,2.058c0,1.88.754,2.755,2.374,2.755a5.654,5.654,0,0,0,1.283-.15V5.716h-1.01a.964.964,0,0,1-.666-.227.837.837,0,0,1-.273-.652.838.838,0,0,1,.273-.653.964.964,0,0,1,.666-.227h2.1a.932.932,0,0,1,.67.253.894.894,0,0,1,.269.662V7.426a1.765,1.765,0,0,1-.195.949,1.331,1.331,0,0,1-.757.506,6.4,6.4,0,0,1-1.162.276,8.489,8.489,0,0,1-1.262.1A5.027,5.027,0,0,1,9.43,8.706ZM1.714,8.99A3.925,3.925,0,0,1,.39,8.261,1.059,1.059,0,0,1,0,7.449a1.019,1.019,0,0,1,.223-.655.763.763,0,0,1,.609-.307.855.855,0,0,1,.348.069,3.287,3.287,0,0,1,.293.152l.019.013a4.8,4.8,0,0,0,.889.477,2.333,2.333,0,0,0,.864.155A1.5,1.5,0,0,0,4.2,7.116a.852.852,0,0,0,.26-.7.783.783,0,0,0-.267-.669,1.746,1.746,0,0,0-1.028-.234H2.484A.835.835,0,0,1,1.8,5.206a1.014,1.014,0,0,1,0-1.272.846.846,0,0,1,.679-.3h.475c1.294,0,1.294-.624,1.294-.89a.8.8,0,0,0-.233-.631,1.049,1.049,0,0,0-.728-.224,2.984,2.984,0,0,0-1.663.628L1.6,2.535a3.125,3.125,0,0,1-.293.152.857.857,0,0,1-.347.07.766.766,0,0,1-.61-.308A1.01,1.01,0,0,1,.131,1.8a.972.972,0,0,1,.1-.458A1.275,1.275,0,0,1,.513.991L.524.981a4.155,4.155,0,0,1,1.3-.718A4.621,4.621,0,0,1,3.352,0,3.314,3.314,0,0,1,5.529.684,2.319,2.319,0,0,1,6.38,2.556a2.5,2.5,0,0,1-.419,1.392,2.239,2.239,0,0,1-.486.519,2.177,2.177,0,0,1,.643.567,2.455,2.455,0,0,1,.464,1.513,2.427,2.427,0,0,1-.92,1.983A3.665,3.665,0,0,1,3.3,9.244,5.031,5.031,0,0,1,1.714,8.99Z" transform="translate(3.563 6.54)" fill="#0073bc"/></g><g transform="translate(477.996 864.749)"><path d="M11.168,0A11.168,11.168,0,1,1,0,11.168,11.168,11.168,0,0,1,11.168,0Z" transform="translate(0 0)" fill="#f9c734"/><path d="M9.231,8.421A3.658,3.658,0,0,1,7.689,6.854a5.1,5.1,0,0,1-.526-2.383,5.053,5.053,0,0,1,.526-2.36A3.748,3.748,0,0,1,9.2.541,4.612,4.612,0,0,1,11.474,0a4.3,4.3,0,0,1,2.863.95l.011.009a1.22,1.22,0,0,1,.273.349.985.985,0,0,1,.1.447.982.982,0,0,1-.211.632.743.743,0,0,1-.593.3.963.963,0,0,1-.35-.063,1.631,1.631,0,0,1-.3-.165l-.007-.005A3.34,3.34,0,0,0,12.4,2a2.81,2.81,0,0,0-.881-.128,2.019,2.019,0,0,0-1.633.624,2.986,2.986,0,0,0-.556,1.977c0,1.805.724,2.647,2.28,2.647a5.437,5.437,0,0,0,1.226-.143V5.538h-.963a.948.948,0,0,1-.65-.221.823.823,0,0,1-.267-.639.818.818,0,0,1,.267-.638.942.942,0,0,1,.65-.222H13.9a.92.92,0,0,1,.656.249.872.872,0,0,1,.261.647V7.176a1.723,1.723,0,0,1-.188.922,1.3,1.3,0,0,1-.738.494,6.236,6.236,0,0,1-1.122.265,8.239,8.239,0,0,1-1.219.1A4.851,4.851,0,0,1,9.231,8.421Zm-5.272.21a1.057,1.057,0,0,1-.3-.79V7.269H.987a.958.958,0,0,1-.72-.279A.945.945,0,0,1,0,6.317,1.209,1.209,0,0,1,.245,5.6L3.785.51A1.105,1.105,0,0,1,4.2.155a1.131,1.131,0,0,1,.5-.12,1.078,1.078,0,0,1,.739.279,1.029,1.029,0,0,1,.328.8V5.456h.252a1.088,1.088,0,0,1,.734.231.858.858,0,0,1,.287.676c0,.567-.381.906-1.021.906H5.767v.572a1.051,1.051,0,0,1-.3.79,1.04,1.04,0,0,1-.753.289A1.041,1.041,0,0,1,3.958,8.631ZM2.494,5.456H3.656V3.774Z" transform="translate(3.384 6.691)" fill="#0073bc"/></g></g></svg>