<svg xmlns="http://www.w3.org/2000/svg" xmlns:xlink="http://www.w3.org/1999/xlink" width="64" height="64" viewBox="0 0 64 64"><defs><linearGradient id="a" y1="0.453" x2="1" y2="0.448" gradientUnits="objectBoundingBox"><stop offset="0" stop-color="#7ed9ff"/><stop offset="0.531" stop-color="#00a1e4"/><stop offset="1" stop-color="#0073bc"/></linearGradient></defs><rect width="64" height="64" rx="20" fill="none"/><g transform="translate(-243.199 -887.088)"><rect width="25.302" height="7.229" transform="translate(259.233 902.41)" fill="#0073bc"/><rect width="32.531" height="22.892" transform="translate(259.233 909.706)" fill="#fff"/><g transform="translate(256.823 900)"><path d="M4.217,34.941A4.222,4.222,0,0,1,0,30.723V6.025l.034.009A5.424,5.424,0,0,1,5.422,0H24.7a5.428,5.428,0,0,1,5.422,5.422V7.23h3.011a4.221,4.221,0,0,1,4.217,4.217V30.723a4.222,4.222,0,0,1-4.217,4.217Zm-.6-4.217a.6.6,0,0,0,.6.6H33.133a.6.6,0,0,0,.6-.6V23.405H28.916a3.614,3.614,0,0,1,0-7.229h4.819v-4.73a.6.6,0,0,0-.6-.6H3.614Zm0-25.3A1.81,1.81,0,0,0,5.422,7.23H26.507V5.422A1.809,1.809,0,0,0,24.7,3.614H5.422A1.809,1.809,0,0,0,3.614,5.422Z" transform="translate(0 0)" fill="url(#a)"/></g><rect width="44" height="18.118" rx="4" transform="translate(253.2 920.059)" fill="#f9c734"/><path d="M2.554-2.684a2.208,2.208,0,0,1,1.192.794A2.249,2.249,0,0,1,4.165-.513a2.188,2.188,0,0,1-.913,1.866,4.179,4.179,0,0,1-2.524.673A4.179,4.179,0,0,1-1.8,1.354,2.188,2.188,0,0,1-2.71-.513a2.264,2.264,0,0,1,.419-1.4,2.163,2.163,0,0,1,1.205-.774,2.147,2.147,0,0,1-1.027-.787,2.137,2.137,0,0,1-.368-1.244,2.105,2.105,0,0,1,.863-1.771A3.8,3.8,0,0,1,.728-7.14a3.819,3.819,0,0,1,2.353.648,2.107,2.107,0,0,1,.856,1.777,2.218,2.218,0,0,1-.368,1.27A1.919,1.919,0,0,1,2.554-2.684ZM.728-5.629Q-.63-5.629-.63-4.5T.728-3.357q1.357,0,1.357-1.143T.728-5.629Zm0,6.145q1.6,0,1.6-1.181T.728-1.846q-1.6,0-1.6,1.181T.728.516Z" transform="translate(260.492 931.998)" fill="#0073bc"/><path d="M2.554-2.684a2.208,2.208,0,0,1,1.192.794A2.249,2.249,0,0,1,4.165-.513a2.188,2.188,0,0,1-.913,1.866,4.179,4.179,0,0,1-2.524.673A4.179,4.179,0,0,1-1.8,1.354,2.188,2.188,0,0,1-2.71-.513a2.264,2.264,0,0,1,.419-1.4,2.163,2.163,0,0,1,1.205-.774,2.147,2.147,0,0,1-1.027-.787,2.137,2.137,0,0,1-.368-1.244,2.105,2.105,0,0,1,.863-1.771A3.8,3.8,0,0,1,.728-7.14a3.819,3.819,0,0,1,2.353.648,2.107,2.107,0,0,1,.856,1.777,2.218,2.218,0,0,1-.368,1.27A1.919,1.919,0,0,1,2.554-2.684ZM.728-5.629Q-.63-5.629-.63-4.5T.728-3.357q1.357,0,1.357-1.143T.728-5.629Zm0,6.145q1.6,0,1.6-1.181T.728-1.846q-1.6,0-1.6,1.181T.728.516Z" transform="translate(279.742 931.998)" fill="#0073bc"/><path d="M2.554-2.684a2.208,2.208,0,0,1,1.192.794A2.249,2.249,0,0,1,4.165-.513a2.188,2.188,0,0,1-.913,1.866,4.179,4.179,0,0,1-2.524.673A4.179,4.179,0,0,1-1.8,1.354,2.188,2.188,0,0,1-2.71-.513a2.264,2.264,0,0,1,.419-1.4,2.163,2.163,0,0,1,1.205-.774,2.147,2.147,0,0,1-1.027-.787,2.137,2.137,0,0,1-.368-1.244,2.105,2.105,0,0,1,.863-1.771A3.8,3.8,0,0,1,.728-7.14a3.819,3.819,0,0,1,2.353.648,2.107,2.107,0,0,1,.856,1.777,2.218,2.218,0,0,1-.368,1.27A1.919,1.919,0,0,1,2.554-2.684ZM.728-5.629Q-.63-5.629-.63-4.5T.728-3.357q1.357,0,1.357-1.143T.728-5.629Zm0,6.145q1.6,0,1.6-1.181T.728-1.846q-1.6,0-1.6,1.181T.728.516Z" transform="translate(269.66 931.998)" fill="#0073bc"/><path d="M2.554-2.684a2.208,2.208,0,0,1,1.192.794A2.249,2.249,0,0,1,4.165-.513a2.188,2.188,0,0,1-.913,1.866,4.179,4.179,0,0,1-2.524.673A4.179,4.179,0,0,1-1.8,1.354,2.188,2.188,0,0,1-2.71-.513a2.264,2.264,0,0,1,.419-1.4,2.163,2.163,0,0,1,1.205-.774,2.147,2.147,0,0,1-1.027-.787,2.137,2.137,0,0,1-.368-1.244,2.105,2.105,0,0,1,.863-1.771A3.8,3.8,0,0,1,.728-7.14a3.819,3.819,0,0,1,2.353.648,2.107,2.107,0,0,1,.856,1.777,2.218,2.218,0,0,1-.368,1.27A1.919,1.919,0,0,1,2.554-2.684ZM.728-5.629Q-.63-5.629-.63-4.5T.728-3.357q1.357,0,1.357-1.143T.728-5.629Zm0,6.145q1.6,0,1.6-1.181T.728-1.846q-1.6,0-1.6,1.181T.728.516Z" transform="translate(288.909 931.998)" fill="#0073bc"/></g></svg>