<svg id="accout_default" xmlns="http://www.w3.org/2000/svg" xmlns:xlink="http://www.w3.org/1999/xlink" width="64" height="64" viewBox="0 0 64 64">
  <defs>
    <linearGradient id="linear-gradient" y1="0.453" x2="1" y2="0.448" gradientUnits="objectBoundingBox">
      <stop offset="0" stop-color="#7ed9ff"/>
      <stop offset="0.531" stop-color="#00a1e4"/>
      <stop offset="1" stop-color="#0073bc"/>
    </linearGradient>
  </defs>
  <rect id="Rectangle_6166" data-name="Rectangle 6166" width="64" height="64" fill="none"/>
  <g id="Group_20675" data-name="Group 20675" transform="translate(0.2 2)">
    <g id="Group_20096" data-name="Group 20096" transform="translate(9.8 11.526)">
      <rect id="Rectangle_6398" data-name="Rectangle 6398" width="27.569" height="7.877" transform="translate(2.625 2.625)" fill="#0073bc"/>
      <path id="Path_16492" data-name="Path 16492" d="M51.32,112.315H24.408a5.908,5.908,0,1,1,0-11.815h21a5.915,5.915,0,0,1,5.908,5.907Zm-26.912-7.877a1.969,1.969,0,0,0,0,3.938H47.382v-1.969a1.972,1.972,0,0,0-1.969-1.969Z" transform="translate(-18.5 -100.5)" fill="#00a1e4"/>
    </g>
    <g id="Group_20095" data-name="Group 20095" transform="translate(22.773 8)">
      <path id="Path_16424" data-name="Path 16424" d="M9.871,0A9.871,9.871,0,1,1,0,9.871,9.871,9.871,0,0,1,9.871,0Z" transform="translate(0)" fill="#f7b500"/>
      <g id="Group_18966" data-name="Group 18966" transform="translate(4.935 4.693)">
        <path id="Path_16348" data-name="Path 16348" d="M681.068,95.478a2.078,2.078,0,0,1,.883-.829,2.07,2.07,0,0,0,.234-.135,2.075,2.075,0,0,1,1.159-.351,2.076,2.076,0,0,1-.274-1.186c0-.037,0-.081,0-.128s0-.091,0-.131a2.073,2.073,0,0,1,.274-1.183,2.075,2.075,0,0,1-1.159-.351,2.018,2.018,0,0,0-.23-.133,2.087,2.087,0,0,1-.886-.83,2.062,2.062,0,0,1-.888.83,1.97,1.97,0,0,0-.228.132,2.075,2.075,0,0,1-1.161.352,2.068,2.068,0,0,1,.274,1.181c0,.043,0,.088,0,.133s0,.09,0,.132a2.068,2.068,0,0,1-.274,1.183h.008a2.071,2.071,0,0,1,1.154.352,2.014,2.014,0,0,0,.228.132,2.06,2.06,0,0,1,.888.83m.806,2.548H680.26a.368.368,0,0,1-.361-.3l-.26-1.305a.371.371,0,0,0-.2-.258,3.7,3.7,0,0,1-.425-.246.371.371,0,0,0-.326-.047l-1.258.428a.369.369,0,0,1-.438-.164l-.807-1.4a.368.368,0,0,1,.076-.461l1-.875a.376.376,0,0,0,.123-.311q-.008-.12-.008-.242t.008-.242a.375.375,0,0,0-.123-.311l-1-.875a.368.368,0,0,1-.076-.461l.807-1.4a.369.369,0,0,1,.438-.165l1.258.428a.369.369,0,0,0,.326-.047,3.651,3.651,0,0,1,.425-.245.371.371,0,0,0,.2-.258l.26-1.305a.368.368,0,0,1,.361-.3h1.615a.368.368,0,0,1,.361.3l.26,1.305a.369.369,0,0,0,.2.258,3.7,3.7,0,0,1,.425.245.368.368,0,0,0,.325.047l1.259-.428a.368.368,0,0,1,.438.165l.807,1.4a.369.369,0,0,1-.076.461l-1,.875a.375.375,0,0,0-.123.311c.005.081.008.161.008.242s0,.162-.008.242a.376.376,0,0,0,.123.311l1,.875a.369.369,0,0,1,.076.461l-.807,1.4a.368.368,0,0,1-.437.164l-1.259-.428a.37.37,0,0,0-.325.047,3.755,3.755,0,0,1-.425.246.369.369,0,0,0-.2.258l-.26,1.305A.368.368,0,0,1,681.875,98.026Z" transform="translate(-676.132 -87.671)" fill="#0073bc"/>
      </g>
    </g>
    <g id="Group_19051" data-name="Group 19051" transform="translate(9.8 18.09)">
      <rect id="Rectangle_6256" data-name="Rectangle 6256" width="35.446" height="24.943" transform="translate(2.626 3.937)" fill="#fff"/>
      <g id="Group_19057" data-name="Group 19057" transform="translate(0 0)">
        <path id="Union_42" data-name="Union 42" d="M4.6,31.506A4.6,4.6,0,0,1,0,26.912V0L5.023,1.312H36.1A4.6,4.6,0,0,1,40.7,5.907V26.912A4.6,4.6,0,0,1,36.1,31.506Zm-.657-4.594a.658.658,0,0,0,.657.656H36.1a.657.657,0,0,0,.656-.656V5.907a.657.657,0,0,0-.656-.656H3.938Z" transform="translate(0 0)" fill="url(#linear-gradient)"/>
      </g>
      <path id="Path_18620" data-name="Path 18620" d="M3,0h9.19a3.938,3.938,0,0,1,0,7.876H3Z" transform="translate(0.948 12.471)" fill="#0073bc"/>
    </g>
    <path id="Polygon_15" data-name="Polygon 15" d="M10.438,1.317a1,1,0,0,1,1.685,0l3.01,4.707a1,1,0,0,0,.582.427L21.085,7.9a1,1,0,0,1,.52,1.591L18.09,13.874a1,1,0,0,0-.218.679l.3,5.625a1,1,0,0,1-1.362.985l-5.164-2.015a1,1,0,0,0-.727,0L5.753,21.162a1,1,0,0,1-1.362-.985l.3-5.625a1,1,0,0,0-.218-.679L.957,9.491A1,1,0,0,1,1.476,7.9l5.37-1.449a1,1,0,0,0,.582-.427Z" transform="translate(31.559 30.274)" fill="#f7b500"/>
  </g>
</svg>
