<svg xmlns="http://www.w3.org/2000/svg" xmlns:xlink="http://www.w3.org/1999/xlink" width="64" height="64" viewBox="0 0 64 64"><defs><linearGradient id="a" y1="0.453" x2="1" y2="0.448" gradientUnits="objectBoundingBox"><stop offset="0" stop-color="#7ed9ff"/><stop offset="0.531" stop-color="#00a1e4"/><stop offset="1" stop-color="#0073bc"/></linearGradient></defs><rect width="64" height="64" rx="20" fill="none"/><g transform="translate(-1091.684 -1107.076)"><g transform="translate(1100 1124.082)"><g transform="translate(0 0)"><rect width="39.84" height="31.303" rx="2" fill="url(#a)"/><rect width="31.303" height="22.766" rx="1" transform="translate(4.269 4.269)" fill="#fff"/><path d="M-12088.9,2219.463a1.428,1.428,0,0,1-.446-.592l-.734-1.709h-4.272l-.731,1.718a1.252,1.252,0,0,1-.437.595,1.136,1.136,0,0,1-.672.222,1.072,1.072,0,0,1-.853-.34,1.143,1.143,0,0,1-.276-.774,1.372,1.372,0,0,1,.061-.385l.009-.027,3.9-9.36a1.3,1.3,0,0,1,.5-.619,1.119,1.119,0,0,1,.632-.2c.033,0,.069,0,.105.006a1.227,1.227,0,0,1,.678.216,1.224,1.224,0,0,1,.461.6l3.854,9.175a1.373,1.373,0,0,1,.1.483,1.156,1.156,0,0,1-.37.893,1.176,1.176,0,0,1-.808.331A1.119,1.119,0,0,1-12088.9,2219.463Zm-.17-.708a1.1,1.1,0,0,0,.353.468.817.817,0,0,0,.507.173.872.872,0,0,0,.6-.252.862.862,0,0,0,.273-.671.862.862,0,0,1-.273.671.872.872,0,0,1-.6.252.817.817,0,0,1-.507-.173,1.1,1.1,0,0,1-.353-.468l-.812-1.895h0Zm-7.951-.173a.856.856,0,0,0,.2.58.792.792,0,0,0,.625.234.827.827,0,0,0,.5-.164.993.993,0,0,0,.337-.462.993.993,0,0,1-.337.462.827.827,0,0,1-.5.164.792.792,0,0,1-.625-.234.856.856,0,0,1-.2-.58ZM-12089.487,2216.861Zm-.392,0h0Zm-3.449-2.1h2.223l-1.117-2.6Zm2.406-.331-1.3-3.032h0Zm-1.514-6.107a.81.81,0,0,1,.3-.022c-.03,0-.061-.006-.088-.006A.8.8,0,0,0-12092.436,2208.322Zm7.393,11.3a1.22,1.22,0,0,1-.893-.361,1.2,1.2,0,0,1-.361-.893v-9.047a1.205,1.205,0,0,1,.361-.893,1.22,1.22,0,0,1,.893-.361h3.74a4.874,4.874,0,0,1,2.135.452,4.525,4.525,0,0,1,1.582,1.263,5.578,5.578,0,0,1,.959,1.852,7.484,7.484,0,0,1,.318,2.21,7.086,7.086,0,0,1-.573,2.884,5.012,5.012,0,0,1-1.688,2.1,4.655,4.655,0,0,1-2.732.789Zm-.956-1.254a.924.924,0,0,0,.273.68.936.936,0,0,0,.683.273h3.74a4.337,4.337,0,0,0,2.56-.735,4.684,4.684,0,0,0,1.588-1.979,6.811,6.811,0,0,0,.547-2.763,6.811,6.811,0,0,1-.547,2.763,4.684,4.684,0,0,1-1.588,1.979,4.337,4.337,0,0,1-2.56.735h-3.74a.936.936,0,0,1-.683-.273A.924.924,0,0,1-12086,2218.364Zm1.958-.847v0Zm.3-.3h2.28a2.165,2.165,0,0,0,1.424-.443,2.663,2.663,0,0,0,.822-1.211,5.3,5.3,0,0,0,.273-1.724,5.544,5.544,0,0,0-.158-1.33,3.327,3.327,0,0,0-.464-1.078,2.262,2.262,0,0,0-.774-.71,2.276,2.276,0,0,0-1.123-.261h-2.28Zm-.3-7.059h2.581a2.573,2.573,0,0,1,1.269.3,2.575,2.575,0,0,1,.878.808,3.631,3.631,0,0,1,.507,1.172,5.854,5.854,0,0,1,.164,1.4,5.854,5.854,0,0,0-.164-1.4,3.631,3.631,0,0,0-.507-1.172,2.575,2.575,0,0,0-.878-.808,2.573,2.573,0,0,0-1.269-.3Z" transform="translate(12106.497 -2197.975)" fill="#0073bc"/></g><rect width="22.766" height="2.846" rx="1" transform="translate(8.537 34.149)" fill="#f9c734"/></g><g transform="translate(1127.448 1117.076)"><path d="M9.96,0A9.96,9.96,0,1,1,0,9.96,9.96,9.96,0,0,1,9.96,0Z" transform="translate(0)" fill="#f9c734"/><g transform="translate(4.98 4.736)"><path d="M681.113,95.548a2.1,2.1,0,0,1,.89-.836,2.093,2.093,0,0,0,.236-.137,2.086,2.086,0,0,1,1.162-.354h.008a2.1,2.1,0,0,1-.277-1.2c0-.037,0-.08,0-.128s0-.091,0-.132a2.091,2.091,0,0,1,.276-1.194,2.08,2.08,0,0,1-1.17-.355,2.039,2.039,0,0,0-.231-.134,2.106,2.106,0,0,1-.894-.837,2.078,2.078,0,0,1-.9.837,2,2,0,0,0-.23.133,2.084,2.084,0,0,1-1.164.356h-.008a2.076,2.076,0,0,1,.276,1.191c0,.043,0,.088,0,.135s0,.092,0,.129a2.087,2.087,0,0,1-.277,1.2,2.09,2.09,0,0,1,1.172.355,2.027,2.027,0,0,0,.229.133,2.078,2.078,0,0,1,.9.838m.814,2.571H680.3a.371.371,0,0,1-.364-.3l-.262-1.317a.374.374,0,0,0-.206-.261,3.734,3.734,0,0,1-.428-.248.374.374,0,0,0-.328-.047l-1.27.431a.372.372,0,0,1-.442-.166l-.814-1.412a.372.372,0,0,1,.076-.465l1.006-.883a.38.38,0,0,0,.124-.314c-.005-.081-.008-.162-.008-.244s0-.163.008-.244a.379.379,0,0,0-.124-.313l-1.006-.883a.371.371,0,0,1-.076-.465L677,89.577a.372.372,0,0,1,.442-.166l1.27.431a.372.372,0,0,0,.328-.047,3.689,3.689,0,0,1,.428-.247.374.374,0,0,0,.206-.261l.262-1.317a.372.372,0,0,1,.364-.3h1.629a.372.372,0,0,1,.364.3l.263,1.317a.373.373,0,0,0,.206.261,3.742,3.742,0,0,1,.429.247.371.371,0,0,0,.328.047l1.27-.431a.372.372,0,0,1,.441.166l.815,1.412a.372.372,0,0,1-.077.465l-1.005.883a.379.379,0,0,0-.124.313c.006.081.008.163.008.244s0,.163-.008.244a.38.38,0,0,0,.124.314l1.005.883a.372.372,0,0,1,.077.465l-.815,1.412a.372.372,0,0,1-.441.166l-1.27-.431a.374.374,0,0,0-.328.047,3.788,3.788,0,0,1-.429.248.373.373,0,0,0-.206.261l-.263,1.317A.371.371,0,0,1,681.927,98.12Z" transform="translate(-676.132 -87.671)" fill="#0073bc"/></g></g></g></svg>