<svg id="atm" xmlns="http://www.w3.org/2000/svg" xmlns:xlink="http://www.w3.org/1999/xlink" width="64" height="64" viewBox="0 0 64 64">
  <defs>
    <linearGradient id="linear-gradient" x2="1" y2="1" gradientUnits="objectBoundingBox">
      <stop offset="0" stop-color="#7ed9ff"/>
      <stop offset="0.531" stop-color="#00a1e4"/>
      <stop offset="1" stop-color="#0073bc"/>
    </linearGradient>
  </defs>
  <rect id="Rectangle_10966" data-name="Rectangle 10966" width="64" height="64" fill="none"/>
  <g id="Group_20144" data-name="Group 20144" transform="translate(-311 -829)">
    <g id="Group_18950" data-name="Group 18950" transform="translate(325 839)">
      <path id="Path_16403" data-name="Path 16403" d="M-42.067,17.617v.347a7.594,7.594,0,0,1-.055.971l-.083.513c-.846,4.7-5.089,11.69-11.621,19.123l-.652.721C-60.094,33-66.75,23.7-66.75,17.977v-.139a12.108,12.108,0,0,1,3.508-8.625,12.086,12.086,0,0,1,8.57-3.633h.083l.139.014h.1l.139-.014A12.193,12.193,0,0,1-42.067,17.617Z" transform="translate(70.91 -1.42)" fill="#fff"/>
      <path id="Path_16404" data-name="Path 16404" d="M-53.054,2.58a.915.915,0,0,0-.194.014.733.733,0,0,0-.18-.014h-.111A16.343,16.343,0,0,0-69.75,19.026v.111c0,11.08,16.5,27.443,16.5,27.443l3.675-4.049c4.382-5.006,11.315-13.853,12.619-21.189l.028-.042a12.652,12.652,0,0,0,.18-2.163v-.416A16.317,16.317,0,0,0-53.054,2.58Zm12.147,16.543a7.594,7.594,0,0,1-.055.971l-.083.513c-.846,4.7-5.089,11.69-11.621,19.123l-.652.721c-5.616-6.3-12.272-15.587-12.272-21.314V19a12.108,12.108,0,0,1,3.508-8.625,12.086,12.086,0,0,1,8.57-3.633h.083l.139.014h.1l.139-.014A12.193,12.193,0,0,1-40.907,18.777Z" transform="translate(69.75 -2.58)" fill="url(#linear-gradient)"/>
    </g>
    <circle id="Ellipse_1119" data-name="Ellipse 1119" cx="4.4" cy="4.4" r="4.4" transform="translate(337.102 848.731)" fill="#0073bc"/>
    <g id="Group_18951" data-name="Group 18951" transform="translate(344.067 858.067)">
      <path id="Path_16286" data-name="Path 16286" d="M10.267,0A10.267,10.267,0,1,1,0,10.267,10.267,10.267,0,0,1,10.267,0Z" fill="#f7b500"/>
      <g id="Group_18835" data-name="Group 18835" transform="translate(4.399 4.4)">
        <path id="Path_68192" data-name="Path 68192" d="M8194.24-523.205a4.632,4.632,0,0,1-2.424.682,4.665,4.665,0,0,1-4.66-4.66,4.665,4.665,0,0,1,4.66-4.66,4.663,4.663,0,0,1,4.659,4.66,4.632,4.632,0,0,1-.68,2.423l2.5,2.5-1.557,1.553Zm-4.883-3.978a2.464,2.464,0,0,0,2.459,2.461,2.464,2.464,0,0,0,2.461-2.461,2.464,2.464,0,0,0-2.461-2.461A2.464,2.464,0,0,0,8189.357-527.183Z" transform="translate(-8187.156 531.844)" fill="#0073bc"/>
      </g>
    </g>
  </g>
</svg>
