<svg id="authentication" xmlns="http://www.w3.org/2000/svg" xmlns:xlink="http://www.w3.org/1999/xlink" width="64" height="64" viewBox="0 0 64 64">
  <defs>
    <linearGradient id="linear-gradient" x2="1" y2="1" gradientUnits="objectBoundingBox">
      <stop offset="0" stop-color="#7ed9ff"/>
      <stop offset="0.531" stop-color="#00a1e4"/>
      <stop offset="1" stop-color="#0073bc"/>
    </linearGradient>
  </defs>
  <rect id="Rectangle_10973" data-name="Rectangle 10973" width="64" height="64" fill="none"/>
  <g id="Group_20504" data-name="Group 20504" transform="translate(-616.807 -171)">
    <g id="Group_18992" data-name="Group 18992" transform="translate(629.807 185.258)">
      <path id="Path_16444" data-name="Path 16444" d="M271.678,264.709a16.673,16.673,0,0,1-3.937,6.13,21.35,21.35,0,0,1-7.99,4.685c-.078.013-.078.052-.388-.026a21.241,21.241,0,0,1-7.912-4.659,16.405,16.405,0,0,1-3.937-6.13c-1.658-4.477-1.554-9.592-1.476-13.7.013-.377.026-.768.039-1.2a1.9,1.9,0,0,1,1.8-1.861,16.971,16.971,0,0,0,11.447-4.829A.382.382,0,0,1,259.6,243a.353.353,0,0,1,.259.091,16.932,16.932,0,0,0,11.46,4.855,1.908,1.908,0,0,1,1.813,1.848c0,.443.013.833.026,1.184C273.245,255.091,273.336,260.206,271.678,264.709Z" transform="translate(-242.293 -239.398)" fill="#fff"/>
      <path id="Path_16443" data-name="Path 16443" d="M277.575,251.538c-.013-.32-.026-.667-.026-1.051a5.753,5.753,0,0,0-5.423-5.615,12.975,12.975,0,0,1-8.948-3.756A4.26,4.26,0,0,0,260.37,240a4.379,4.379,0,0,0-3,1.179,12.919,12.919,0,0,1-8.871,3.692,5.734,5.734,0,0,0-5.423,5.615c-.013.385-.026.731-.038,1.18-.077,4.372-.192,9.807,1.705,14.9a19.84,19.84,0,0,0,4.82,7.474,24.933,24.933,0,0,0,9.269,5.461,4.133,4.133,0,0,0,.6.154,4.254,4.254,0,0,0,.923.09,3.765,3.765,0,0,0,.833-.09,3.654,3.654,0,0,0,.615-.167,24.779,24.779,0,0,0,9.23-5.448,20.073,20.073,0,0,0,4.833-7.474C277.767,261.448,277.664,256,277.575,251.538Zm-5.308,13.692a16.414,16.414,0,0,1-3.9,6.038,21.16,21.16,0,0,1-7.91,4.615c-.077.013-.077.051-.385-.026a21.051,21.051,0,0,1-7.833-4.589,16.152,16.152,0,0,1-3.9-6.038c-1.641-4.41-1.538-9.448-1.461-13.5.013-.372.026-.756.038-1.179a1.875,1.875,0,0,1,1.782-1.833,16.843,16.843,0,0,0,11.333-4.756.379.379,0,0,1,.269-.115.351.351,0,0,1,.256.09,16.8,16.8,0,0,0,11.346,4.782,1.884,1.884,0,0,1,1.795,1.82c0,.436.013.82.026,1.167C273.818,255.756,273.908,260.794,272.267,265.23Z" transform="translate(-243.003 -240)" fill="url(#linear-gradient)"/>
      <g id="Group_18993" data-name="Group 18993" transform="translate(10.208 12.774)">
        <path id="Path_68200" data-name="Path 68200" d="M-7675.114-2255.839l-.39-.015a7.1,7.1,0,0,1-6.586-5.763v0a7.155,7.155,0,0,1-.119-1.294c0-.087,0-.171.005-.256v0a7.1,7.1,0,0,1,6.21-6.777v6.781h-4.066c-.126,0-.246.006-.357.017a1.287,1.287,0,0,0-.846,1.2,2.567,2.567,0,0,0,.037.309,6.243,6.243,0,0,0,5.693,4.932h.006v-13.321l.029,0h.39l.389.015a7.1,7.1,0,0,1,6.586,5.776v-.013a7.317,7.317,0,0,1,.117,1.292c0,.087,0,.172-.005.259v0a7.1,7.1,0,0,1-6.208,6.775v-6.779h4.066c.124,0,.24-.006.349-.016a1.285,1.285,0,0,0,.854-1.2,2.46,2.46,0,0,0-.037-.308,6.245,6.245,0,0,0-5.693-4.934h-.006v13.323l-.029,0Z" transform="translate(7682.208 2270.032)" fill="#0073bc" stroke="rgba(0,0,0,0)" stroke-width="1"/>
      </g>
    </g>
    <g id="Group_18994" data-name="Group 18994" transform="translate(648.532 181)">
      <path id="Path_16424" data-name="Path 16424" d="M9.935,0A9.935,9.935,0,1,1,0,9.935,9.935,9.935,0,0,1,9.935,0Z" fill="#f7b500"/>
      <path id="Path_16348" data-name="Path 16348" d="M681.1,96.05a1.886,1.886,0,0,1,.979-1.173,2.293,2.293,0,0,0,.258-.149,1.878,1.878,0,0,1,1.046-.319,1.853,1.853,0,0,1,.46.058,1.87,1.87,0,0,1-.526-1.441c0-.042,0-.091,0-.143s0-.1,0-.145a1.867,1.867,0,0,1,.526-1.439,1.851,1.851,0,0,1-.46.058,1.872,1.872,0,0,1-1.046-.319,2.251,2.251,0,0,0-.255-.148,1.887,1.887,0,0,1-.982-1.174,1.863,1.863,0,0,1-.982,1.174,2.182,2.182,0,0,0-.253.146,1.877,1.877,0,0,1-1.048.32,1.853,1.853,0,0,1-.46-.058,1.866,1.866,0,0,1,.526,1.438c0,.048,0,.1,0,.146s0,.1,0,.147a1.867,1.867,0,0,1-.526,1.438,1.852,1.852,0,0,1,.461-.058,1.882,1.882,0,0,1,1.049.32,2.221,2.221,0,0,0,.253.146,1.863,1.863,0,0,1,.982,1.175m.812,2.044h-1.625a.37.37,0,0,1-.364-.3l-.262-1.314a.374.374,0,0,0-.205-.26,3.721,3.721,0,0,1-.427-.247.373.373,0,0,0-.328-.047l-1.267.43a.371.371,0,0,1-.441-.165l-.812-1.409a.371.371,0,0,1,.076-.464l1-.881a.378.378,0,0,0,.123-.313q-.008-.121-.008-.244t.008-.244a.377.377,0,0,0-.123-.313l-1-.881a.371.371,0,0,1-.076-.464l.812-1.409a.371.371,0,0,1,.441-.166l1.267.43a.371.371,0,0,0,.328-.047,3.675,3.675,0,0,1,.427-.247.374.374,0,0,0,.205-.26l.262-1.314a.371.371,0,0,1,.364-.3h1.625a.371.371,0,0,1,.364.3l.262,1.314a.372.372,0,0,0,.205.26,3.74,3.74,0,0,1,.428.247.371.371,0,0,0,.328.047l1.267-.43a.371.371,0,0,1,.44.166l.813,1.409a.371.371,0,0,1-.077.464l-1,.881a.378.378,0,0,0-.124.313c.005.081.008.162.008.244s0,.163-.008.244a.379.379,0,0,0,.124.313l1,.881a.371.371,0,0,1,.077.464l-.813,1.409a.371.371,0,0,1-.44.165l-1.267-.43a.372.372,0,0,0-.328.047,3.788,3.788,0,0,1-.428.247.372.372,0,0,0-.205.26l-.262,1.314A.371.371,0,0,1,681.912,98.094Z" transform="translate(-671.165 -82.947)" fill="#0073bc"/>
    </g>
  </g>
</svg>
