<svg xmlns="http://www.w3.org/2000/svg" xmlns:xlink="http://www.w3.org/1999/xlink" width="64" height="64" viewBox="0 0 64 64"><defs><linearGradient id="a" y1="0.453" x2="1" y2="0.448" gradientUnits="objectBoundingBox"><stop offset="0" stop-color="#7ed9ff"/><stop offset="0.531" stop-color="#00a1e4"/><stop offset="1" stop-color="#0073bc"/></linearGradient></defs><g transform="translate(-2021 -200)"><rect width="64" height="64" rx="20" transform="translate(2021 200)" fill="none"/><g transform="translate(1821 -792.578)"><g transform="translate(208 1000.076)"><g transform="translate(0 0)"><path d="M15.529,44.37H28.84c11.092,0,15.529-4.437,15.529-15.529V15.529C44.37,4.437,39.933,0,28.84,0H15.529C4.437,0,0,4.437,0,15.529V28.84C0,39.933,4.437,44.37,15.529,44.37Z" transform="translate(0 4.633)" fill="url(#a)"/><path d="M12.407,35.45H23.042C31.9,35.45,35.45,31.9,35.45,23.042V12.407C35.45,3.545,31.9,0,23.042,0H12.407C3.545,0,0,3.545,0,12.407V23.042C0,31.9,3.545,35.45,12.407,35.45Z" transform="translate(4.46 9.093)" fill="#fff"/><path d="M0,0H44.37V44.37H0Z" transform="translate(0 4.633)" fill="none" opacity="0"/><path d="M19.056,21.193a3.377,3.377,0,1,1,3.377-3.377A3.381,3.381,0,0,1,19.056,21.193Zm0-4.753a1.377,1.377,0,1,0,1.377,1.376A1.378,1.378,0,0,0,19.056,16.44Zm-9.624,0a3.613,3.613,0,0,1-2.984-1.586l-6.8-9.985a3.689,3.689,0,0,1-.211-3.81,3.612,3.612,0,0,1,3.2-1.937H13.211A3.653,3.653,0,0,1,14.15-1h9.428a3.623,3.623,0,0,1,3.263,2.026,3.888,3.888,0,0,1-.3,4.059L21.83,11.65a3.626,3.626,0,0,1-5.934,0l-.666-.928-2.814,4.13A3.613,3.613,0,0,1,9.432,16.439ZM2.629,1.121A1.6,1.6,0,0,0,1.2,1.993a1.672,1.672,0,0,0,.1,1.75l6.8,9.985a1.6,1.6,0,0,0,2.663,0l3.619-5.312a1,1,0,0,1,1.639-.02l1.5,2.088a1.626,1.626,0,0,0,2.685,0l4.715-6.565a1.9,1.9,0,0,0,.141-1.98A1.657,1.657,0,0,0,23.578,1H14.15a1.64,1.64,0,0,0-.5.075,1,1,0,0,1-.3.047Z" transform="translate(35.695 37.503) rotate(180)" fill="#0073bc"/><g transform="translate(25.815)"><path d="M11.092,0A11.092,11.092,0,1,1,0,11.092,11.092,11.092,0,0,1,11.092,0Z" fill="#f9c734"/><g transform="translate(5.546 5.274)"><path d="M681.94,98.108l.166-.831a1.6,1.6,0,0,1,.875-1.134,3.044,3.044,0,0,0,.342-.2,1.623,1.623,0,0,1,.9-.276,1.6,1.6,0,0,1,.514.085l.8.273.263-.455-.636-.559a1.616,1.616,0,0,1-.543-1.333c0-.057.006-.119.006-.189s0-.133-.006-.194a1.612,1.612,0,0,1,.544-1.329l.636-.558-.263-.455-.8.272a1.593,1.593,0,0,1-.517.086,1.619,1.619,0,0,1-.9-.277,2.982,2.982,0,0,0-.339-.2,1.6,1.6,0,0,1-.877-1.133l-.166-.835h-.524l-.167.839a1.607,1.607,0,0,1-.877,1.128,2.916,2.916,0,0,0-.338.2,1.622,1.622,0,0,1-.906.277,1.585,1.585,0,0,1-.514-.085l-.8-.273-.263.456.635.558a1.611,1.611,0,0,1,.544,1.329c0,.064-.006.129-.006.194s0,.13.006.193a1.614,1.614,0,0,1-.544,1.33l-.635.558.263.455.8-.273a1.593,1.593,0,0,1,.515-.085,1.627,1.627,0,0,1,.906.277,2.962,2.962,0,0,0,.337.2,1.61,1.61,0,0,1,.878,1.133l.166.834h.524m.645,1.2h-1.815a.414.414,0,0,1-.406-.333l-.292-1.467a.417.417,0,0,0-.229-.29,4.162,4.162,0,0,1-.477-.276.416.416,0,0,0-.366-.053l-1.414.48a.414.414,0,0,1-.492-.185l-.907-1.573a.414.414,0,0,1,.085-.518l1.12-.983a.422.422,0,0,0,.138-.349q-.009-.135-.009-.272t.009-.272a.421.421,0,0,0-.138-.349l-1.12-.983a.414.414,0,0,1-.085-.518l.907-1.573a.414.414,0,0,1,.492-.185l1.414.48a.414.414,0,0,0,.366-.053,4.105,4.105,0,0,1,.477-.276.417.417,0,0,0,.229-.29L680.365,88a.414.414,0,0,1,.406-.333h1.815a.414.414,0,0,1,.406.333l.292,1.467a.415.415,0,0,0,.229.29,4.169,4.169,0,0,1,.477.276.414.414,0,0,0,.366.053l1.415-.48a.414.414,0,0,1,.492.185l.907,1.573a.414.414,0,0,1-.085.518l-1.12.983a.422.422,0,0,0-.138.349c.006.09.009.181.009.272s0,.182-.009.272a.423.423,0,0,0,.138.349l1.12.983a.414.414,0,0,1,.085.518l-.907,1.573a.414.414,0,0,1-.492.185l-1.415-.48a.416.416,0,0,0-.366.053,4.227,4.227,0,0,1-.477.276.415.415,0,0,0-.229.29l-.292,1.467A.414.414,0,0,1,682.585,99.308Z" transform="translate(-676.132 -87.671)" fill="#0073bc"/></g></g></g></g></g></g></svg>