<svg xmlns="http://www.w3.org/2000/svg" xmlns:xlink="http://www.w3.org/1999/xlink" width="64" height="64" viewBox="0 0 64 64"><defs><linearGradient id="a" y1="0.453" x2="1" y2="0.448" gradientUnits="objectBoundingBox"><stop offset="0" stop-color="#7ed9ff"/><stop offset="0.531" stop-color="#00a1e4"/><stop offset="1" stop-color="#0073bc"/></linearGradient></defs><g transform="translate(-2021 -200)"><rect width="64" height="64" rx="20" transform="translate(2021 200)" fill="none"/><g transform="translate(1620.598 -2134.226)"><g transform="translate(408.402 2355.625)"><g transform="translate(0 0)"><path d="M21.9,22.176q-1.138,0-2.276,0c-1.677.006-3.353.013-5.027-.021a7.554,7.554,0,0,1-6.339-3.534,11.164,11.164,0,0,1-1.4-3.765c-.333-1.334-2.268-2.3-3.547-2.893A3.274,3.274,0,0,1,1.334,8.846c-.033-2.044,0-4.089,0-6.133l.093-.01a3.3,3.3,0,0,1-.4-.086A1.381,1.381,0,0,1,0,1.684V1.032A1.439,1.439,0,0,1,1.126.057,8.4,8.4,0,0,1,2.5.012l.265.005V0H45.239V.008h.067c.45-.006.9-.013,1.349.015a1.331,1.331,0,0,1,1.171,1.991,1.558,1.558,0,0,1-1.155.7c.3,1.689.6,3.38.915,5.067.409,2.162-2.2,4.1-4.4,4.308-2.56.237-2.68.4-5.247.567a.583.583,0,0,0-.63.459c-.318,1.02-.668,2.03-1.015,3.04a8.684,8.684,0,0,1-4.539,5.182,11.849,11.849,0,0,1-2.765.825,11.031,11.031,0,0,1-2.134.1C24.812,22.26,22.034,22.176,21.9,22.176Z" transform="translate(48 22.26) rotate(180)" fill="url(#a)"/><path d="M17.419,15.208c-.605,0-1.339,0-2.12,0-1.641,0-3.487.009-4.752-.015-2.1-.042-3.342-.7-4.049-2.461S5.92,10.277,4.984,8.758,1.529,6.665,1.529,6.665A2.338,2.338,0,0,1,.013,4.43c0-.036,0-.071,0-.107H0V3.265q0-.4,0-.806V0H.775C.884,0,.991,0,1.1,0H35.06v.03h2.962c.822,2.862,2.087,5.061-2.279,5.477-1.968.169-2.716.285-4.685.407-.267.015-.4.083-.483.329-.246.727-1.841,3.93-2.107,4.654a6.382,6.382,0,0,1-3.485,3.708,9.9,9.9,0,0,1-2.125.591,8.972,8.972,0,0,1-1.629.072C19.659,15.268,17.519,15.208,17.419,15.208Z" transform="translate(43.251 18.385) rotate(180)" fill="#fff" stroke="rgba(0,0,0,0)" stroke-miterlimit="10" stroke-width="1"/><path d="M360.183,545.678a4.736,4.736,0,1,0,4.846-4.659A4.753,4.753,0,0,0,360.183,545.678Z" transform="translate(-326.254 -523.66)" fill="#0073bc"/><path d="M578.694,545.677a4.719,4.719,0,0,0-4.9-4.652,4.734,4.734,0,1,0,4.9,4.652Z" transform="translate(-564.316 -523.665)" fill="#0073bc"/><path d="M382.28,561.2a1.932,1.932,0,1,0,1.962,1.892A1.9,1.9,0,0,0,382.28,561.2Z" transform="translate(-343.648 -541.036)" fill="#f9c734"/><path d="M591.126,565.056a1.932,1.932,0,1,0-1.941-1.925A1.952,1.952,0,0,0,591.126,565.056Z" transform="translate(-581.492 -541.032)" fill="#f9c734"/></g><path d="M4,0H5.316a1,1,0,0,1,1,1V5.316a1,1,0,0,1-1,1H1a1,1,0,0,1-1-1V4A4,4,0,0,1,4,0Z" transform="translate(16.46 5.204)" fill="#0073bc"/></g><g transform="translate(432.402 2350)"><path d="M8.572,0A8.572,8.572,0,1,1,0,8.572,8.572,8.572,0,0,1,8.572,0Z" transform="translate(0 0)" fill="#f9c734"/><g transform="translate(6.25 3.211)"><path d="M-11850.861,2136.32v-1a4.6,4.6,0,0,1-2.169-1.005.746.746,0,0,1,0-1.059.745.745,0,0,1,1.06,0,3.4,3.4,0,0,0,1.829.642h.069a1.562,1.562,0,0,0,1.067-.379.752.752,0,0,0,.25-.542.773.773,0,0,0-.485-.756,4.524,4.524,0,0,0-1.3-.458l-.416-.113a2.433,2.433,0,0,1-1.526-1.169,2.5,2.5,0,0,1-.224-1.883,2.433,2.433,0,0,1,1.842-1.771v-1.064a.75.75,0,0,1,.75-.75.751.751,0,0,1,.752.75v.982a3.769,3.769,0,0,1,1.987,1.083l-1.112,1.005,0,.006a2.112,2.112,0,0,0-1.49-.636c-.991.06-1.187.452-1.291.815a.98.98,0,0,0,.092.732.966.966,0,0,0,.613.455l.413.11a5.934,5.934,0,0,1,1.654.607,2.256,2.256,0,0,1,1.234,2.032v.018a2.244,2.244,0,0,1-.708,1.627,2.884,2.884,0,0,1-1.4.723v1a.751.751,0,0,1-.752.75A.75.75,0,0,1-11850.861,2136.32Z" transform="translate(11852.5 -2125.765)" fill="#0073bc"/></g></g></g></g></svg>