<svg id="card" xmlns="http://www.w3.org/2000/svg" xmlns:xlink="http://www.w3.org/1999/xlink" width="64" height="64" viewBox="0 0 64 64">
  <defs>
    <linearGradient id="linear-gradient" x2="1" y2="1" gradientUnits="objectBoundingBox">
      <stop offset="0" stop-color="#7ed9ff"/>
      <stop offset="0.531" stop-color="#00a1e4"/>
      <stop offset="1" stop-color="#0073bc"/>
    </linearGradient>
  </defs>
  <rect id="Rectangle_10966" data-name="Rectangle 10966" width="64" height="64" fill="none"/>
  <g id="Group_20142" data-name="Group 20142" transform="translate(0.5 3)">
    <rect id="Rectangle_6098" data-name="Rectangle 6098" width="44" height="33.379" rx="2" transform="translate(9.5 13)" fill="url(#linear-gradient)"/>
    <path id="Path_68192" data-name="Path 68192" d="M33.9,24.277H1a1,1,0,0,1-1-1V10.621H34.9V23.276A1,1,0,0,1,33.9,24.277Zm1-18.206H0V1A1,1,0,0,1,1,0H33.9a1,1,0,0,1,1,1V6.07Z" transform="translate(14.052 17.551)" fill="#fff" stroke="rgba(0,0,0,0)" stroke-width="1"/>
    <path id="Line_748" data-name="Line 748" d="M7.586,1.5H0A1.5,1.5,0,0,1-1.5,0,1.5,1.5,0,0,1,0-1.5H7.586A1.5,1.5,0,0,1,9.086,0,1.5,1.5,0,0,1,7.586,1.5Z" transform="translate(18.845 36.276)" fill="#f7b500"/>
  </g>
</svg>
