<svg width="64" height="64" viewBox="0 0 64 64" fill="none" xmlns="http://www.w3.org/2000/svg">
<path d="M44.2417 14H14.8088C10.4961 14 7 17.4961 7 21.8088V38.8492C7 43.1619 10.4961 46.658 14.8088 46.658H44.2417C48.5544 46.658 52.0505 43.1619 52.0505 38.8492V21.8088C52.0505 17.4961 48.5544 14 44.2417 14Z" fill="url(#paint0_linear_593_7613)"/>
<path d="M42.6722 19.5989H16.3784C13.7908 19.5989 11.6931 21.6965 11.6931 24.2842V37.3077C11.6931 39.8953 13.7908 41.993 16.3784 41.993H42.6722C45.2598 41.993 47.3575 39.8953 47.3575 37.3077V24.2842C47.3575 21.6965 45.2598 19.5989 42.6722 19.5989Z" fill="#F2FBFF"/>
<path d="M42.0568 26.099H33.5468C33.2983 26.099 33.0599 26.0002 32.8842 25.8245C32.7085 25.6488 32.6097 25.4104 32.6097 25.1619C32.6097 24.9134 32.7085 24.675 32.8842 24.4993C33.0599 24.3236 33.2983 24.2249 33.5468 24.2249H42.0568C42.3054 24.2249 42.5437 24.3236 42.7194 24.4993C42.8952 24.675 42.9939 24.9134 42.9939 25.1619C42.9939 25.4104 42.8952 25.6488 42.7194 25.8245C42.5437 26.0002 42.3054 26.099 42.0568 26.099Z" fill="#0073BC"/>
<path d="M38.268 29.8033H33.5468C33.2983 29.8033 33.0599 29.7046 32.8842 29.5289C32.7085 29.3531 32.6097 29.1148 32.6097 28.8663C32.6097 28.6177 32.7085 28.3794 32.8842 28.2037C33.0599 28.0279 33.2983 27.9292 33.5468 27.9292H38.268C38.5165 27.9292 38.7549 28.0279 38.9306 28.2037C39.1063 28.3794 39.2051 28.6177 39.2051 28.8663C39.2051 29.1148 39.1063 29.3531 38.9306 29.5289C38.7549 29.7046 38.5165 29.8033 38.268 29.8033Z" fill="#0073BC"/>
<path d="M24.0935 31.8571H19.3957C18.8258 31.8552 18.2611 31.9657 17.734 32.1821C17.2068 32.3985 16.7274 32.7167 16.3232 33.1184C15.919 33.5202 15.5979 33.9976 15.3782 34.5234C15.1586 35.0493 15.0447 35.6133 15.0431 36.1831C15.0437 36.4126 15.0895 36.6398 15.1779 36.8516C15.2663 37.0634 15.3955 37.2557 15.5582 37.4175C15.7209 37.5794 15.9139 37.7076 16.1262 37.7948C16.3385 37.8821 16.5659 37.9267 16.7954 37.9261H26.6907C26.9202 37.9267 27.1475 37.8821 27.3598 37.7948C27.5721 37.7076 27.7651 37.5794 27.9278 37.4175C28.0905 37.2557 28.2197 37.0634 28.3081 36.8516C28.3965 36.6398 28.4423 36.4126 28.443 36.1831C28.4397 35.0327 27.9796 33.9308 27.1639 33.1195C26.3483 32.3083 25.2439 31.8542 24.0935 31.8571Z" fill="#0073BC"/>
<path d="M21.7446 30.6233C23.8871 30.6233 25.624 28.8962 25.624 26.7658C25.624 24.6353 23.8871 22.9082 21.7446 22.9082C19.602 22.9082 17.8652 24.6353 17.8652 26.7658C17.8652 28.8962 19.602 30.6233 21.7446 30.6233Z" fill="#0073BC"/>
<path d="M48.7115 50.6591C51.1904 50.3026 53.434 48.9978 54.9697 47.0195C56.5054 45.0413 57.2132 42.5441 56.9439 40.0543C56.6747 37.5644 55.4494 35.2764 53.5262 33.6722C51.6031 32.068 49.1324 31.273 46.6346 31.4547C44.1368 31.6364 41.8071 32.7806 40.1364 34.6463C38.4657 36.5119 37.5845 38.9532 37.6784 41.4558C37.7723 43.9584 38.8341 46.3269 40.6399 48.062C42.4458 49.7972 44.8547 50.7636 47.359 50.7576C47.8114 50.7515 48.263 50.7186 48.7115 50.6591Z" fill="#F7B500"/>
<path d="M50.9375 36.6626C51.0418 36.6583 51.1459 36.6756 51.2431 36.7135C51.3403 36.7514 51.4286 36.8091 51.5024 36.8829C51.5762 36.9567 51.6339 37.045 51.6718 37.1423C51.7097 37.2395 51.7271 37.3435 51.7227 37.4478L51.4908 43.9788C51.4848 44.1262 51.436 44.2687 51.3505 44.3888C51.265 44.509 51.1463 44.6017 51.0091 44.6556C50.8718 44.7096 50.7218 44.7225 50.5773 44.6927C50.4329 44.6629 50.3002 44.5918 50.1954 44.4879C50.1204 44.4123 50.0614 44.3225 50.0217 44.2236C49.9821 44.1248 49.9627 44.019 49.9646 43.9126L50.1181 39.3086L44.2508 45.1759C44.1815 45.2518 44.0975 45.3129 44.004 45.3554C43.9104 45.398 43.8092 45.4211 43.7064 45.4234C43.6037 45.4257 43.5015 45.4072 43.4061 45.369C43.3107 45.3307 43.224 45.2735 43.1514 45.2008C43.0787 45.1282 43.0215 45.0415 42.9832 44.9461C42.945 44.8507 42.9265 44.7486 42.9288 44.6458C42.9311 44.543 42.9543 44.4418 42.9968 44.3483C43.0393 44.2547 43.1004 44.1707 43.1763 44.1014L49.0436 38.2341L44.454 38.4064C44.257 38.4069 44.0675 38.3309 43.9256 38.1943C43.7836 38.0577 43.7003 37.8713 43.6933 37.6744C43.6863 37.4776 43.7561 37.2857 43.8879 37.1393C44.0198 36.993 44.2034 36.9036 44.3999 36.8901L50.9375 36.6626Z" fill="#0073BC"/>
<defs>
<linearGradient id="paint0_linear_593_7613" x1="7" y1="24.0587" x2="51.9611" y2="26.9737" gradientUnits="userSpaceOnUse">
<stop stop-color="#7ED9FF"/>
<stop offset="0.531" stop-color="#00A1E4"/>
<stop offset="1" stop-color="#0073BC"/>
</linearGradient>
</defs>
</svg>
