<svg id="contact" xmlns="http://www.w3.org/2000/svg" xmlns:xlink="http://www.w3.org/1999/xlink" width="64" height="64" viewBox="0 0 64 64">
  <defs>
    <linearGradient id="linear-gradient" x2="1" y2="1" gradientUnits="objectBoundingBox">
      <stop offset="0" stop-color="#7ed9ff"/>
      <stop offset="0.531" stop-color="#00a1e4"/>
      <stop offset="1" stop-color="#0073bc"/>
    </linearGradient>
  </defs>
  <rect id="Rectangle_10966" data-name="Rectangle 10966" width="64" height="64" fill="none"/>
  <g id="left_call" transform="translate(8.291 8.305)">
    <g id="Group_7086" data-name="Group 7086" transform="translate(1.709 1.695)">
      <path id="Path_10234" data-name="Path 10234" d="M24.845,25.019l-2.97,3.717A31.379,31.379,0,0,1,10.731,17.592l3.717-2.97a2.524,2.524,0,0,0,.729-3L11.791,4A2.524,2.524,0,0,0,8.849,2.582L2.4,4.265A2.524,2.524,0,0,0,.524,7.07,37.446,37.446,0,0,0,32.407,38.937a2.524,2.524,0,0,0,2.8-1.874L36.9,30.612a2.524,2.524,0,0,0-1.419-2.94l-7.635-3.38a2.524,2.524,0,0,0-3,.726Z" transform="translate(-0.498 5.012)" fill="url(#linear-gradient)"/>
      <path id="Path_10235" data-name="Path 10235" d="M20.218.5a11.7,11.7,0,0,0-10.6,16.7L8.5,23.935l6.736-1.122A11.718,11.718,0,1,0,20.218.5Z" transform="translate(12.043 -0.5)" fill="#f7b500"/>
      <g id="Group_18973" data-name="Group 18973" transform="translate(25.929 10.202)">
        <circle id="Ellipse_1122" data-name="Ellipse 1122" cx="1.571" cy="1.571" r="1.571" fill="#0073bc"/>
        <circle id="Ellipse_1123" data-name="Ellipse 1123" cx="1.571" cy="1.571" r="1.571" transform="translate(4.714)" fill="#0073bc"/>
        <circle id="Ellipse_1124" data-name="Ellipse 1124" cx="1.571" cy="1.571" r="1.571" transform="translate(9.429)" fill="#0073bc"/>
      </g>
    </g>
  </g>
</svg>
