<svg id="favorite" xmlns="http://www.w3.org/2000/svg" xmlns:xlink="http://www.w3.org/1999/xlink" width="64" height="64" viewBox="0 0 64 64">
  <defs>
    <linearGradient id="linear-gradient" x2="1" y2="1" gradientUnits="objectBoundingBox">
      <stop offset="0" stop-color="#7ed9ff"/>
      <stop offset="0.531" stop-color="#00a1e4"/>
      <stop offset="1" stop-color="#0073bc"/>
    </linearGradient>
  </defs>
  <rect id="Rectangle_10973" data-name="Rectangle 10973" width="64" height="64" fill="none"/>
  <g id="Group_20507" data-name="Group 20507" transform="translate(-196.237 -991.348)">
    <g id="Group_20067" data-name="Group 20067" transform="translate(206.237 1001.595)">
      <g id="archive" transform="translate(0 0)">
        <path id="Vector" d="M0,0H38.8V38.8H0Z" transform="translate(2.442 1.33)" fill="none" opacity="0"/>
        <path id="Path_18638" data-name="Path 18638" d="M19.674,29.653,8.762,35.35l2.084-12.068-8.84-8.546,12.2-1.756L19.662,2l5.456,10.979,12.2,1.756-8.84,8.546L30.561,35.35Z" transform="translate(1.96 1.964)" fill="#fff"/>
        <path id="Path_19192" data-name="Path 19192" d="M290.979,446.778a1.852,1.852,0,0,1-1.824-2.167l2.193-12.7-9.3-8.994a1.85,1.85,0,0,1,1.023-3.162l12.849-1.846,5.743-11.564a1.85,1.85,0,0,1,1.657-1.027h0a1.851,1.851,0,0,1,1.657,1.026l5.75,11.558,12.848,1.846a1.85,1.85,0,0,1,1.023,3.162l-9.3,8.993,2.193,12.7a1.853,1.853,0,0,1-2.682,1.957l-11.474-5.994-11.5,6A1.854,1.854,0,0,1,290.979,446.778Zm-3.645-23.893,7.291,7.048a1.854,1.854,0,0,1,.537,1.647l-1.723,9.972,9.035-4.718a1.858,1.858,0,0,1,1.713,0l9.015,4.709-1.724-9.972a1.851,1.851,0,0,1,.538-1.646l7.29-7.048-10.07-1.446a1.851,1.851,0,0,1-1.395-1.007l-4.523-9.093-4.519,9.1a1.85,1.85,0,0,1-1.395,1.009Z" transform="translate(-281.48 -405.322)" stroke="rgba(0,0,0,0)" stroke-miterlimit="10" stroke-width="1" fill="url(#linear-gradient)"/>
      </g>
    </g>
    <g id="Group_19071" data-name="Group 19071" transform="translate(232.234 1027.096)">
      <path id="Path_16414" data-name="Path 16414" d="M9,0a9,9,0,1,0,9,9A9,9,0,0,0,9,0Z" transform="translate(0)" fill="#f7b500"/>
      <path id="Union_62" data-name="Union 62" d="M3.654,8.154V5.344H.846a.846.846,0,1,1,0-1.691H3.654V.846a.846.846,0,1,1,1.691,0V3.652H8.154a.846.846,0,1,1,0,1.691H5.346V8.154a.846.846,0,0,1-1.691,0Z" transform="translate(4.68 4.682)" fill="#0073bc"/>
    </g>
  </g>
</svg>
