<svg id="gdtl" xmlns="http://www.w3.org/2000/svg" xmlns:xlink="http://www.w3.org/1999/xlink" width="64" height="64" viewBox="0 0 64 64">
  <defs>
    <linearGradient id="linear-gradient" x2="1" y2="1" gradientUnits="objectBoundingBox">
      <stop offset="0" stop-color="#7ed9ff"/>
      <stop offset="0.531" stop-color="#00a1e4"/>
      <stop offset="1" stop-color="#0073bc"/>
    </linearGradient>
  </defs>
  <rect id="Rectangle_10972" data-name="Rectangle 10972" width="64" height="64" fill="none"/>
  <g id="Group_20501" data-name="Group 20501" transform="translate(-99.56 -29.524)">
    <path id="Union_35" data-name="Union 35" d="M24.946,12.461l-.325-2.318a70.361,70.361,0,0,1-12.132-.1C1.554,9.225,0,1.028,0,1.028S2.313,4.343,11,5.02a47.017,47.017,0,0,0,12.775-.886L23.42,1.588a1.389,1.389,0,0,1,2.2-1.319l6.336,4.656a1.389,1.389,0,0,1,.3,1.943l-.019.026-4.807,6.22a1.389,1.389,0,0,1-2.475-.656Z" transform="translate(145.078 53.176) rotate(180)" fill="#0073bc"/>
    <g id="Group_18920" data-name="Group 18920" transform="translate(114.902 44.433)">
      <circle id="Ellipse_1105" data-name="Ellipse 1105" cx="16.667" cy="16.667" r="16.667" stroke="rgba(0,0,0,0)" stroke-miterlimit="10" stroke-width="1" fill="url(#linear-gradient)"/>
      <circle id="Ellipse_1111" data-name="Ellipse 1111" cx="12.5" cy="12.5" r="12.5" transform="translate(4.167 4.167)" fill="#fff"/>
      <g id="Group_20174" data-name="Group 20174" transform="translate(14.041 10.301)">
        <rect id="Rectangle_6463" data-name="Rectangle 6463" width="2" height="6" transform="translate(1)" fill="#0073bc"/>
        <rect id="Rectangle_6464" data-name="Rectangle 6464" width="2" height="10" transform="translate(11.159 11) rotate(120)" fill="#0073bc"/>
        <circle id="Ellipse_1412" data-name="Ellipse 1412" cx="2" cy="2" r="2" transform="translate(0 5)" fill="#0073bc"/>
      </g>
    </g>
    <path id="Union_35-2" data-name="Union 35" d="M25.03,19.617,24.705,17.3a70.361,70.361,0,0,1-12.132-.1C1.638,16.381.084,8.184.084,8.184s2.313,3.315,11,3.992a47.017,47.017,0,0,0,12.775-.886L23.5,8.744a1.389,1.389,0,0,1,2.2-1.319l6.336,4.656a1.389,1.389,0,0,1,.3,1.943l-.019.026-4.807,6.22a1.389,1.389,0,0,1-2.475-.656Z" transform="translate(118.077 62.716)" fill="#f7b500"/>
  </g>
</svg>
