<svg id="gift" xmlns="http://www.w3.org/2000/svg" xmlns:xlink="http://www.w3.org/1999/xlink" width="64" height="64" viewBox="0 0 64 64">
  <defs>
    <linearGradient id="linear-gradient" x2="1" y2="1" gradientUnits="objectBoundingBox">
      <stop offset="0" stop-color="#7ed9ff"/>
      <stop offset="0.531" stop-color="#00a1e4"/>
      <stop offset="1" stop-color="#0073bc"/>
    </linearGradient>
  </defs>
  <rect id="Rectangle_10966" data-name="Rectangle 10966" width="64" height="64" fill="none"/>
  <g id="Group_20144" data-name="Group 20144" transform="translate(-3576.99 -790)">
    <path id="Union_37" data-name="Union 37" d="M27.8,0,25.558,21.72H2.239L0,0Z" transform="translate(3594.965 817.626)" fill="#fff" stroke="rgba(0,0,0,0)" stroke-miterlimit="10" stroke-width="1"/>
    <path id="Path_68199" data-name="Path 68199" d="M92.407,72.542a7.848,7.848,0,0,0-6.174-2.9h-.16a7.909,7.909,0,0,0-6.238,3.289,7.952,7.952,0,0,0-12.587-.388,7.34,7.34,0,0,0-1.407,6.64,7.814,7.814,0,0,0,7.373,5.647l2.863.062,3.759.093,3.759-.093,2.863-.062a7.814,7.814,0,0,0,7.373-5.647A7.3,7.3,0,0,0,92.407,72.542Zm-15.05,7.726h-.016l-4.014-.093a3.007,3.007,0,0,1-2.847-2.188,2.842,2.842,0,0,1,.544-2.575,3.02,3.02,0,0,1,2.367-1.117h.08a3.06,3.06,0,0,1,2.863,2.188l1.024,3.754Zm11.836-2.281a3.022,3.022,0,0,1-2.847,2.188l-4.014.093H82.3l.016-.062,1.024-3.723A3.045,3.045,0,0,1,86.2,74.295a2.928,2.928,0,0,1,2.447,1.117A2.842,2.842,0,0,1,89.192,77.987Z" transform="translate(3528.996 730.361)" fill="#0073bc"/>
    <path id="Line_756" data-name="Line 756" d="M33.429,3.64h-33C-.222,3.64-.75,2.657-.75,1.445S-.222-.75.429-.75h33c.651,0,1.179.983,1.179,2.195S34.079,3.64,33.429,3.64Z" transform="translate(3591.919 823.929)" fill="#f7b500"/>
    <path id="Union_36" data-name="Union 36" d="M21.256,44H5.758a3.159,3.159,0,0,1-3.182-2.793L.016,16.385A3.141,3.141,0,0,1,3.2,12.972H34.515A3.141,3.141,0,0,1,37.7,16.385L35.14,41.207A3.161,3.161,0,0,1,31.956,44Zm9.261-4.654,2.239-21.721h-11.5V39.346Zm-23.32,0h9.261V17.626H4.958Z" transform="translate(3589.99 800)" fill="url(#linear-gradient)"/>
  </g>
</svg>
