<svg xmlns="http://www.w3.org/2000/svg" xmlns:xlink="http://www.w3.org/1999/xlink" width="64" height="64" viewBox="0 0 64 64"><defs><linearGradient id="a" y1="0.453" x2="1" y2="0.448" gradientUnits="objectBoundingBox"><stop offset="0" stop-color="#7ed9ff"/><stop offset="0.531" stop-color="#00a1e4"/><stop offset="1" stop-color="#0073bc"/></linearGradient></defs><rect width="64" height="64" rx="20" fill="none"/><g transform="translate(-201.848 -831)"><g transform="translate(219.863 841)"><path d="M19.25,15.394V12.1H0l5.5-8.25H19.25V.551A1,1,0,0,1,20.909-.2L29.39,7.22a1,1,0,0,1,0,1.5l-8.482,7.421a.982.982,0,0,1-.653.25A1,1,0,0,1,19.25,15.394Z" transform="translate(8.061 5.882)" fill="#f7b500"/><path d="M0,28.234V0H18.822V28.234c0,3.249-4.213,5.882-9.411,5.882S0,31.483,0,28.234Z" transform="translate(2.672 8.554)" fill="#fff7e5"/><path d="M-101.949-33.7c-6.4,0-11.414-3.462-11.414-7.881V-71.815h22.829v30.237C-90.534-37.159-95.548-33.7-101.949-33.7Zm-7.407-34.111v26.23c0,1.829,3.167,3.874,7.407,3.874s7.408-2.045,7.408-3.874v-26.23Z" transform="translate(113.363 77.697)" fill="url(#a)"/><ellipse cx="11.415" cy="5.882" rx="11.415" ry="5.882" fill="#00a1e4"/></g><g transform="translate(210.926 864.375)"><path d="M10.313,0A10.313,10.313,0,1,1,0,10.313,10.312,10.312,0,0,1,10.313,0Z" fill="#f9c734"/><path d="M2.873,13.725v-1.09A5.488,5.488,0,0,1,.3,11.412,1.032,1.032,0,0,1,1.759,9.949a3.954,3.954,0,0,0,2.117.736.048.048,0,0,1,.017,0l.016,0,.066,0a1.7,1.7,0,0,0,1.171-.422A.748.748,0,0,0,5.4,9.717a.793.793,0,0,0-.517-.8,5.246,5.246,0,0,0-1.528-.541c-.154-.043-.315-.082-.5-.139A3.023,3.023,0,0,1,.942,6.771,3.183,3.183,0,0,1,.659,4.406a3.046,3.046,0,0,1,2.214-2.2V1.033a1.031,1.031,0,1,1,2.063,0V2.107A4.783,4.783,0,0,1,7.3,3.426L5.769,4.809v.01A2.418,2.418,0,0,0,4.078,4.1c-1.106.064-1.317.471-1.438.889a1.064,1.064,0,0,0,.1.777,1,1,0,0,0,.655.484c.186.049.348.1.5.137a7.157,7.157,0,0,1,2.013.744A2.816,2.816,0,0,1,7.466,9.684V9.7a2.856,2.856,0,0,1-.889,2.055,3.609,3.609,0,0,1-1.642.879v1.092a1.031,1.031,0,1,1-2.062,0Z" transform="translate(6.488 2.831)" fill="#0073bc"/></g></g></svg>