<svg id="gold" xmlns="http://www.w3.org/2000/svg" xmlns:xlink="http://www.w3.org/1999/xlink" width="64" height="64" viewBox="0 0 64 64">
  <defs>
    <linearGradient id="linear-gradient" x2="1" y2="1" gradientUnits="objectBoundingBox">
      <stop offset="0" stop-color="#7ed9ff"/>
      <stop offset="0.531" stop-color="#00a1e4"/>
      <stop offset="1" stop-color="#0073bc"/>
    </linearGradient>
  </defs>
  <rect id="Rectangle_10966" data-name="Rectangle 10966" width="64" height="64" fill="none"/>
  <g id="Group_20144" data-name="Group 20144" transform="translate(-195 -831)">
    <g id="Group_18960" data-name="Group 18960" transform="translate(220.21 841)">
      <path id="Union_22" data-name="Union 22" d="M0,24.912V0H16.608V24.912c0,2.867-3.719,5.19-8.3,5.19S0,27.779,0,24.912Z" transform="translate(3.11 9.89)" fill="#fff"/>
      <path id="Path_16413" data-name="Path 16413" d="M-101.949-33.7c-6.4,0-11.414-3.462-11.414-7.881V-71.815h22.829v30.237C-90.534-37.159-95.548-33.7-101.949-33.7Zm-7.407-34.111v26.23c0,1.829,3.167,3.874,7.407,3.874s7.408-2.045,7.408-3.874v-26.23Z" transform="translate(113.363 77.697)" fill="url(#linear-gradient)"/>
      <ellipse id="Ellipse_1078" data-name="Ellipse 1078" cx="11.415" cy="5.882" rx="11.415" ry="5.882" fill="#0073bc"/>
    </g>
    <g id="Group_18959" data-name="Group 18959" transform="translate(210 864.375)">
      <path id="Path_16414" data-name="Path 16414" d="M10.313,0A10.313,10.313,0,1,1,0,10.313,10.312,10.312,0,0,1,10.313,0Z" fill="#f7b500"/>
      <g id="Group_18958" data-name="Group 18958" transform="translate(6.877 4.125)">
        <path id="Path_68192" data-name="Path 68192" d="M8206.179-515.11v-1.1a5.5,5.5,0,0,1-2.571-1.227l1.456-1.456-.006-.006a4,4,0,0,0,2.119.739,1.748,1.748,0,0,0,1.274-.419.763.763,0,0,0,.261-.555.8.8,0,0,0-.519-.8,5.248,5.248,0,0,0-1.529-.541c-.15-.04-.314-.085-.5-.136a3.057,3.057,0,0,1-1.915-1.467,3.133,3.133,0,0,1-.28-2.365,3.029,3.029,0,0,1,2.211-2.194v-1.18h2.063v1.076a4.73,4.73,0,0,1,2.361,1.323l-1.534,1.382a2.388,2.388,0,0,0-1.685-.716c-1.108.065-1.317.473-1.437.887a1.081,1.081,0,0,0,.1.782,1.029,1.029,0,0,0,.661.484c.184.051.348.094.5.136a7.137,7.137,0,0,1,2.02.742,2.838,2.838,0,0,1,1.553,2.552v.023a2.841,2.841,0,0,1-.892,2.051,3.6,3.6,0,0,1-1.642.88v1.1Zm2.89-8.917h0s.006.005.006.006Z" transform="translate(-8203.607 527.809)" fill="#0073bc"/>
      </g>
    </g>
  </g>
</svg>
