<svg xmlns="http://www.w3.org/2000/svg" width="24" height="24" viewBox="0 0 24 24">
  <g id="ic_ask" transform="translate(-1437)">
    <rect id="Rectangle_6275" data-name="Rectangle 6275" width="24" height="24" transform="translate(1437)" fill="none"/>
    <path id="Path_68208" data-name="Path 68208" d="M-10018-4457a10,10,0,0,1,10-10,10,10,0,0,1,10,10,10,10,0,0,1-10,10A10,10,0,0,1-10018-4457Zm2,0a8.01,8.01,0,0,0,8,8,8.011,8.011,0,0,0,8-8,8.01,8.01,0,0,0-8-8A8.009,8.009,0,0,0-10016-4457Zm7.424,4.595-.007-.006a.855.855,0,0,1-.214-.588.861.861,0,0,1,.214-.587.829.829,0,0,1,.645-.254.826.826,0,0,1,.647.254.829.829,0,0,1,.223.587.842.842,0,0,1-.223.591.873.873,0,0,1-.647.242A.867.867,0,0,1-10008.578-4452.406Zm-.183-2.122.007-.255a3.52,3.52,0,0,1,.169-1.134,2.939,2.939,0,0,1,.619-.939l0-.006.734-.751a1.465,1.465,0,0,0,.4-.974,1.069,1.069,0,0,0-.235-.749.927.927,0,0,0-.717-.257,1.09,1.09,0,0,0-.755.242.783.783,0,0,0-.264.625v.249h-1.536v-.251a2.149,2.149,0,0,1,.732-1.65,2.678,2.678,0,0,1,1.822-.623,2.513,2.513,0,0,1,1.822.645,2.29,2.29,0,0,1,.667,1.735,3.053,3.053,0,0,1-.975,2.105l-.006.006-.606.6a1.679,1.679,0,0,0-.34,1.135v.248Z" transform="translate(11457 4469)" fill="#b4e7fb"/>
  </g>
</svg>
