<svg id="ic_bdsd_01" xmlns="http://www.w3.org/2000/svg" xmlns:xlink="http://www.w3.org/1999/xlink" width="48" height="48" viewBox="0 0 48 48">
  <defs>
    <linearGradient id="linear-gradient" x2="1" y2="1" gradientUnits="objectBoundingBox">
      <stop offset="0" stop-color="#7ed9ff"/>
      <stop offset="0.531" stop-color="#00a1e4"/>
      <stop offset="1" stop-color="#0073bc"/>
    </linearGradient>
  </defs>
  <circle id="Ellipse_1088" data-name="Ellipse 1088" cx="24" cy="24" r="24" fill="rgba(255,255,255,0.08)"/>
  <g id="Icon_SMS_Banking_-_36px" data-name="Icon / SMS Banking - 36px" transform="translate(6 6)">
    <rect id="Rectangle_6166" data-name="Rectangle 6166" width="36" height="36" fill="none"/>
    <g id="Group_18981" data-name="Group 18981" transform="translate(4 8)">
      <rect id="Rectangle_6153" data-name="Rectangle 6153" width="24.5" height="19.25" rx="2" transform="translate(3.5)" fill="url(#linear-gradient)"/>
      <rect id="Rectangle_6154" data-name="Rectangle 6154" width="19.25" height="14" rx="1" transform="translate(6.125 2.625)" fill="#fff7e5"/>
      <path id="Path_10445" data-name="Path 10445" d="M13.436,25.979l1.594-1.713a2.262,2.262,0,0,1,3.479-.107l.451.462a2.718,2.718,0,0,0,4.237-.058l2.041-2.452M23.2,19.96l3.111-.266a1.188,1.188,0,0,1,1.184,1.192.99.99,0,0,1-.005.107l-.28,3.051" transform="translate(-4.714 -13.444)" fill="none" stroke="#005d98" stroke-linecap="round" stroke-width="1.5"/>
      <g id="Group_18980" data-name="Group 18980" transform="translate(0 8.75)">
        <path id="Path_16389" data-name="Path 16389" d="M6.125,0A6.125,6.125,0,1,1,0,6.125,6.125,6.125,0,0,1,6.125,0Z" fill="#f7b500"/>
        <path id="Path_68228" data-name="Path 68228" d="M-9670.757,1771v-.744a3.281,3.281,0,0,1-1.563-.712.5.5,0,0,1,0-.709.5.5,0,0,1,.709,0,2.414,2.414,0,0,0,1.33.471h.054a1.136,1.136,0,0,0,.783-.283.567.567,0,0,0,.189-.41.586.586,0,0,0-.364-.57,3.225,3.225,0,0,0-.935-.333l-.3-.08a1.7,1.7,0,0,1-1.07-.818,1.755,1.755,0,0,1-.158-1.318,1.718,1.718,0,0,1,1.321-1.249v-.788a.5.5,0,0,1,.5-.5.5.5,0,0,1,.5.5v.732a2.667,2.667,0,0,1,1.43.768.5.5,0,0,1-.036.706.5.5,0,0,1-.7-.034,1.544,1.544,0,0,0-1.095-.464c-.731.044-.877.337-.954.607a.742.742,0,0,0,.07.551.714.714,0,0,0,.459.342l.3.08a4.127,4.127,0,0,1,1.173.43,1.577,1.577,0,0,1,.863,1.42v.012a1.569,1.569,0,0,1-.5,1.136,2.036,2.036,0,0,1-1.007.514V1771a.5.5,0,0,1-.5.5A.5.5,0,0,1-9670.757,1771Z" transform="translate(9676.432 -1761.162)" fill="#005d98"/>
      </g>
    </g>
  </g>
</svg>
