<svg xmlns="http://www.w3.org/2000/svg" xmlns:xlink="http://www.w3.org/1999/xlink" width="64" height="64" viewBox="0 0 64 64"><defs><linearGradient id="a" y1="0.453" x2="1" y2="0.448" gradientUnits="objectBoundingBox"><stop offset="0" stop-color="#7ed9ff"/><stop offset="0.531" stop-color="#00a1e4"/><stop offset="1" stop-color="#0073bc"/></linearGradient></defs><circle cx="32" cy="32" r="32" fill="rgba(255,255,255,0.12)"/><g transform="translate(-431 -941)"><rect width="28" height="22" rx="2" transform="translate(451 961)" fill="url(#a)"/><rect width="22" height="16" rx="1" transform="translate(454 964)" fill="#fff"/><g transform="translate(265 934)"><path d="M7,0A7,7,0,1,1,0,7,7,7,0,0,1,7,0Z" transform="translate(182 37)" fill="#f7b500"/><g transform="translate(187.104 39.622)"><path d="M-661-153.394v1.365" transform="translate(662.952 153.394)" fill="none" stroke="#0073bc" stroke-linecap="round" stroke-linejoin="round" stroke-width="1.5"/><path d="M-661-153.394v1.365" transform="translate(662.952 160.648)" fill="none" stroke="#0073bc" stroke-linecap="round" stroke-linejoin="round" stroke-width="1.5"/><path d="M-659.7-150.958a2.331,2.331,0,0,0-1.707-.716,1.531,1.531,0,0,0-1.6,1.105,1.394,1.394,0,0,0,1,1.731,5.639,5.639,0,0,1,1.543.527,1.234,1.234,0,0,1,.7,1.141,1.554,1.554,0,0,1-1.769,1.367,3.285,3.285,0,0,1-1.9-.7" transform="translate(663.432 153.055)" fill="none" stroke="#0073bc" stroke-linecap="round" stroke-linejoin="round" stroke-width="1.5"/></g></g><path d="M-8909-1689a1,1,0,0,1-1-1,1,1,0,0,1,1-1h5a1,1,0,0,1,1,1,1,1,0,0,1-1,1Zm-3-4a1,1,0,0,1-1-1,1,1,0,0,1,1-1h8a1,1,0,0,1,1,1,1,1,0,0,1-1,1Zm-3-4a1,1,0,0,1-1-1,1,1,0,0,1,1-1h11a1,1,0,0,1,1,1,1,1,0,0,1-1,1Z" transform="translate(9376.5 2666.5)" fill="#0073bc"/></g></svg>