<svg id="ic_connect_wallet01" xmlns="http://www.w3.org/2000/svg" xmlns:xlink="http://www.w3.org/1999/xlink" width="48" height="48" viewBox="0 0 48 48">
  <defs>
    <linearGradient id="linear-gradient" x2="1" y2="1" gradientUnits="objectBoundingBox">
      <stop offset="0" stop-color="#7ed9ff"/>
      <stop offset="0.531" stop-color="#00a1e4"/>
      <stop offset="1" stop-color="#0073bc"/>
    </linearGradient>
  </defs>
  <circle id="Ellipse_1088" data-name="Ellipse 1088" cx="24" cy="24" r="24" fill="rgba(255,255,255,0.08)"/>
  <g id="Group_20402" data-name="Group 20402">
    <rect id="Rectangle_6166" data-name="Rectangle 6166" width="36" height="36" transform="translate(6 6)" fill="none"/>
    <g id="Group_20068" data-name="Group 20068" transform="translate(-198 -993)">
      <g id="Group_20067" data-name="Group 20067" transform="translate(208 1003)">
        <g id="archive" transform="translate(0 0)">
          <path id="Vector" d="M9.8,28h8.4c7,0,9.8-2.8,9.8-9.8V9.8c0-7-2.8-9.8-9.8-9.8H9.8C2.8,0,0,2.8,0,9.8v8.4C0,25.2,2.8,28,9.8,28Z" transform="translate(0 0)" fill="url(#linear-gradient)"/>
          <path id="Vector-2" data-name="Vector" d="M7.83,22.371h6.711c5.593,0,7.83-2.237,7.83-7.83V7.83c0-5.593-2.237-7.83-7.83-7.83H7.83C2.237,0,0,2.237,0,7.83v6.711C0,20.134,2.237,22.371,7.83,22.371Z" transform="translate(2.815 2.815)" fill="#fff7e5"/>
          <path id="Path_68230" data-name="Path 68230" d="M-9662.667,1649.23h-4.552a.784.784,0,0,1-.781-.781.782.782,0,0,1,.781-.781h.386v-8.553a3.119,3.119,0,0,1,3.115-3.115h9.334a3.118,3.118,0,0,1,3.113,3.115v8.553h.386a.781.781,0,0,1,.781.781.782.782,0,0,1-.781.781h-4.552a3.7,3.7,0,0,1-3.615,2.917A3.7,3.7,0,0,1-9662.667,1649.23Zm-2.6-2.24v.677h3.3a.782.782,0,0,1,.781.781,2.139,2.139,0,0,0,2.136,2.135,2.137,2.137,0,0,0,2.135-2.135.781.781,0,0,1,.781-.781h3.3v-.677a1.554,1.554,0,0,0-1.551-1.553h-9.334A1.554,1.554,0,0,0-9665.271,1646.991Zm0-4.083v1.383a3.083,3.083,0,0,1,1.233-.4h0l.074-.007h.011l.068,0h0l.071,0h9.51l.069,0h.011l.06,0h.019l.066.006.016,0,.056.006.019,0,.063.009.02,0,.053.009.017,0,.063.012.02,0,.052.011.017,0,.061.015.022.006.052.014.015,0,.06.018.019.006.055.018.016.005.056.02.019.007.057.021.011,0,.055.023.02.008.054.024.013.006.053.025.02.01.048.024.016.008.051.027.021.011.042.024.016.009v-1.383a1.554,1.554,0,0,0-1.551-1.553h-9.334A1.554,1.554,0,0,0-9665.271,1642.907Zm0-3.792v1.092a3.093,3.093,0,0,1,1.553-.415h9.334a3.092,3.092,0,0,1,1.551.415v-1.092a1.554,1.554,0,0,0-1.551-1.553h-9.334A1.554,1.554,0,0,0-9665.271,1639.115Z" transform="translate(9673.051 -1630.073)" fill="#005d98"/>
          <path id="Vector-3" data-name="Vector" d="M0,0H28V28H0Z" transform="translate(0 0)" fill="none" opacity="0"/>
        </g>
      </g>
      <g id="Group_19071" data-name="Group 19071" transform="translate(222.933 1017.933)">
        <path id="Path_16414" data-name="Path 16414" d="M6.533,0a6.533,6.533,0,1,0,6.533,6.533A6.533,6.533,0,0,0,6.533,0Z" transform="translate(0)" fill="#f7b500"/>
        <path id="Path_68231" data-name="Path 68231" d="M-9679.8,1628.089V1625.7h-2.387a.751.751,0,0,1-.751-.751.751.751,0,0,1,.751-.749h2.387v-2.386a.751.751,0,0,1,.748-.751.751.751,0,0,1,.751.751v2.386h2.387a.748.748,0,0,1,.748.749.749.749,0,0,1-.748.751h-2.387v2.386a.749.749,0,0,1-.751.748A.748.748,0,0,1-9679.8,1628.089Z" transform="translate(9685.581 -1618.419)" fill="#005d98"/>
      </g>
    </g>
  </g>
</svg>
