<svg id="ic_dichvucong" xmlns="http://www.w3.org/2000/svg" xmlns:xlink="http://www.w3.org/1999/xlink" width="48" height="48" viewBox="0 0 48 48">
  <defs>
    <linearGradient id="linear-gradient" x2="1" y2="1" gradientUnits="objectBoundingBox">
      <stop offset="0" stop-color="#7ed9ff"/>
      <stop offset="0.531" stop-color="#00a1e4"/>
      <stop offset="1" stop-color="#0073bc"/>
    </linearGradient>
  </defs>
  <rect id="Rectangle_10968" data-name="Rectangle 10968" width="48" height="48" rx="16" fill="rgba(255,255,255,0.08)"/>
  <g id="Group_20097" data-name="Group 20097" transform="translate(0 1)">
    <g id="Group_19106" data-name="Group 19106" transform="translate(-387 -1826)">
      <path id="Union_48" data-name="Union 48" d="M1,28a1,1,0,0,1-1-1v-.8a1,1,0,0,1,1-1H31a1,1,0,0,1,1,1V27a1,1,0,0,1-1,1Zm.883-2.8V23.4a1,1,0,0,1,1-1H29.118a1,1,0,0,1,1,1v1.8Zm1.882-2.8V11.2H28.236V22.4ZM.973,11.2A1.121,1.121,0,0,1,.517,9.14L15.545.129a.873.873,0,0,1,.911,0L31.484,9.14a1.122,1.122,0,0,1-.455,2.06Z" transform="translate(395 1834)" stroke="rgba(0,0,0,0)" stroke-miterlimit="10" stroke-width="1" fill="url(#linear-gradient)"/>
      <rect id="Rectangle_6307" data-name="Rectangle 6307" width="2.824" height="10.267" transform="translate(400.647 1846.134)" fill="#fff7e5"/>
      <rect id="Rectangle_6308" data-name="Rectangle 6308" width="9.412" height="10.267" transform="translate(406.294 1846.134)" fill="#fff7e5"/>
      <rect id="Rectangle_6310" data-name="Rectangle 6310" width="2.824" height="10.267" transform="translate(418.529 1846.134)" fill="#fff7e5"/>
      <path id="Rectangle_6311" data-name="Rectangle 6311" d="M1.882,0h0A1.882,1.882,0,0,1,3.765,1.882V7.467a0,0,0,0,1,0,0H0a0,0,0,0,1,0,0V1.882A1.882,1.882,0,0,1,1.882,0Z" transform="translate(409.118 1848.934)" fill="#0073bc"/>
      <circle id="Ellipse_1148" data-name="Ellipse 1148" cx="3" cy="3" r="3" transform="translate(408 1838)" fill="#fff7e5"/>
    </g>
    <g id="Group_19107" data-name="Group 19107" transform="translate(-156 -13)">
      <path id="Path_16389" data-name="Path 16389" d="M7,0A7,7,0,1,1,0,7,7,7,0,0,1,7,0Z" transform="translate(182 37)" fill="#f7b500"/>
      <path id="Path_68220" data-name="Path 68220" d="M-10128.151,1979.748v-.7a3.79,3.79,0,0,1-1.733-.838.751.751,0,0,1,0-1.06.752.752,0,0,1,1.058,0,2.677,2.677,0,0,0,1.4.488h.062a1.118,1.118,0,0,0,.768-.273.46.46,0,0,0,.16-.341c0-.249-.074-.353-.325-.5a3.6,3.6,0,0,0-1.025-.361q-.152-.038-.343-.091a2.16,2.16,0,0,1-1.33-1.02,2.194,2.194,0,0,1-.2-1.645,2.147,2.147,0,0,1,1.5-1.511v-.765a.75.75,0,0,1,.75-.75.749.749,0,0,1,.75.75v.686a3.188,3.188,0,0,1,1.587.908l-1.111,1,0,.005a1.579,1.579,0,0,0-1.108-.475c-.778.048-.87.361-.931.567a.687.687,0,0,0,.063.493.65.65,0,0,0,.417.305c.127.033.236.064.338.092a4.962,4.962,0,0,1,1.384.508,1.974,1.974,0,0,1,1.075,1.775c0,.008,0,.013,0,.018a1.976,1.976,0,0,1-.622,1.429,2.487,2.487,0,0,1-1.1.6v.706a.749.749,0,0,1-.75.75A.75.75,0,0,1-10128.151,1979.748Z" transform="translate(10316.457 -1931.507)" fill="#0073bc"/>
    </g>
  </g>
</svg>
