<svg id="ic_edit_file" xmlns="http://www.w3.org/2000/svg" width="24" height="24" viewBox="0 0 24 24">
  <rect id="Rectangle_16" data-name="Rectangle 16" width="24" height="24" fill="#14143a" opacity="0"/>
  <g id="Group_19761" data-name="Group 19761" transform="translate(-1 -1)">
    <path id="Subtraction_40" data-name="Subtraction 40" d="M11.578,17.964H3.754A3.754,3.754,0,0,1,0,14.133V3.647A3.564,3.564,0,0,1,1.121,1.065,3.781,3.781,0,0,1,3.754,0H7.6l.018.018V7.889h7.615v6.245a3.794,3.794,0,0,1-3.655,3.83Zm3.65-10.087-.877-.911.877.906h0Z" transform="translate(5 4.018)" fill="#00a1e4"/>
    <path id="Path_16489" data-name="Path 16489" d="M10.879.735l.013,6.856H17.4Z" transform="translate(2.83 3.25)" fill="#00a1e4"/>
  </g>
</svg>
