<svg xmlns="http://www.w3.org/2000/svg" xmlns:xlink="http://www.w3.org/1999/xlink" width="48" height="48" viewBox="0 0 48 48"><defs><linearGradient id="a" y1="0.453" x2="1" y2="0.448" gradientUnits="objectBoundingBox"><stop offset="0" stop-color="#7ed9ff"/><stop offset="0.531" stop-color="#00a1e4"/><stop offset="1" stop-color="#0073bc"/></linearGradient></defs><g transform="translate(-2321 -119)"><rect width="48" height="48" rx="20" transform="translate(2321 119)" fill="none"/><g transform="translate(2328.5 124.249)"><g transform="translate(0 0)"><path d="M10.714,23.571H8a8.009,8.009,0,0,1-8-8V8A8.009,8.009,0,0,1,8,0h2.713a8.009,8.009,0,0,1,8,8v7.571A8.009,8.009,0,0,1,10.714,23.571ZM7.509,3.535a4,4,0,0,0-4,4v12.5H15.2V7.536a4,4,0,0,0-4-4Z" transform="translate(4.314 0)" fill="url(#a)"/><rect width="27.342" height="21.214" rx="2" transform="translate(0 11.786)" fill="url(#a)"/><rect width="21.032" height="14.143" rx="1" transform="translate(3.215 15.038)" fill="#fff7e5"/><circle cx="2.051" cy="2.051" r="2.051" transform="translate(11.34 20.507)" fill="#0073bc"/></g><g transform="translate(17.366 22.707)"><path d="M7.5,0A7.5,7.5,0,1,1,0,7.5,7.5,7.5,0,0,1,7.5,0Z" fill="#f7b500"/><path d="M3,6.677V4.352H.676A.675.675,0,1,1,.676,3H3V.677a.675.675,0,0,1,1.35,0V3H6.676a.675.675,0,0,1,0,1.35H4.351V6.677a.675.675,0,1,1-1.35,0Z" transform="translate(3.824 3.823)" fill="#0073bc"/></g></g></g></svg>