<svg xmlns="http://www.w3.org/2000/svg" xmlns:xlink="http://www.w3.org/1999/xlink" width="48" height="48" viewBox="0 0 48 48"><defs><linearGradient id="a" y1="0.453" x2="1" y2="0.448" gradientUnits="objectBoundingBox"><stop offset="0" stop-color="#7ed9ff"/><stop offset="0.531" stop-color="#00a1e4"/><stop offset="1" stop-color="#0073bc"/></linearGradient></defs><g transform="translate(-2321 -119)"><rect width="48" height="48" rx="20" transform="translate(2321 119)" fill="none"/><g transform="translate(2328.5 124.249)"><g transform="translate(0 0)"><path d="M10.714,23.571H8a8.009,8.009,0,0,1-8-8V8A8.009,8.009,0,0,1,8,0h2.713a8.009,8.009,0,0,1,8,8v7.571A8.009,8.009,0,0,1,10.714,23.571ZM7.509,3.535a4,4,0,0,0-4,4v12.5H15.2V7.536a4,4,0,0,0-4-4Z" transform="translate(4.314 0)" fill="url(#a)"/><rect width="27.342" height="21.214" rx="2" transform="translate(0 11.786)" fill="url(#a)"/><rect width="21.032" height="14.143" rx="1" transform="translate(3.215 15.038)" fill="#fff7e5"/><circle cx="2.051" cy="2.051" r="2.051" transform="translate(11.34 20.507)" fill="#0073bc"/></g><g transform="translate(17.366 22.707)"><path d="M7.5,0A7.5,7.5,0,1,1,0,7.5,7.5,7.5,0,0,1,7.5,0Z" fill="#f7b500"/><g transform="translate(3.811 3.188)"><path d="M0,4.745A3.742,3.742,0,0,1,6.891,2.718L6.621.635a.563.563,0,0,1,.392-.61.541.541,0,0,1,.094-.02.563.563,0,0,1,.63.485l.394,3.045a.564.564,0,0,1-.486.63L4.6,4.559a.563.563,0,0,1-.145-1.116L5.9,3.256A2.585,2.585,0,0,0,3.751,2.124h0a2.621,2.621,0,0,0,0,5.242c1.262,0,1.509-.266,1.958-.75.085-.093.174-.188.275-.29a.563.563,0,1,1,.8.8c-.087.087-.168.175-.247.259a3.111,3.111,0,0,1-2.783,1.11A3.75,3.75,0,0,1,0,4.745Z" fill="#0073bc"/></g></g></g></g></svg>