<svg xmlns="http://www.w3.org/2000/svg" xmlns:xlink="http://www.w3.org/1999/xlink" width="48" height="48" viewBox="0 0 48 48"><defs><linearGradient id="a" y1="0.453" x2="1" y2="0.448" gradientUnits="objectBoundingBox"><stop offset="0" stop-color="#7ed9ff"/><stop offset="0.531" stop-color="#00a1e4"/><stop offset="1" stop-color="#0073bc"/></linearGradient></defs><rect width="48" height="48" rx="24" fill="rgba(255,255,255,0.12)"/><g transform="translate(-527.071 -2168.62)"><path d="M9.8,28h8.4c7,0,9.8-2.8,9.8-9.8V9.8c0-7-2.8-9.8-9.8-9.8H9.8C2.8,0,0,2.8,0,9.8v8.4C0,25.2,2.8,28,9.8,28Z" transform="translate(536 2180)" fill="url(#a)"/><path d="M7.83,22.371h6.711c5.593,0,7.83-2.237,7.83-7.83V7.83c0-5.593-2.237-7.83-7.83-7.83H7.83C2.237,0,0,2.237,0,7.83v6.711C0,20.134,2.237,22.371,7.83,22.371Z" transform="translate(538.814 2182.814)" fill="#fff7e5"/><path d="M24.347,6.76H15.939c-.377,0-.643-.531-.523-1.044l.61-2.631C16.176,2.437,16.6,2,17.074,2h6.138c.475,0,.9.437,1.048,1.085l.61,2.631C24.99,6.229,24.723,6.76,24.347,6.76Z" transform="translate(529.857 2175.24)" fill="#0073bc"/><rect width="14.642" height="1.463" rx="0.732" transform="translate(542.679 2186.683)" fill="#0073bc"/><rect width="9.463" height="1.463" rx="0.732" transform="translate(542.679 2189.537)" fill="#f7b500"/><rect width="12.078" height="1.463" rx="0.732" transform="translate(542.679 2192.39)" fill="#f7b500"/><g transform="translate(316.642 2168.231)"><g transform="translate(-14.5 -18.232)"><g transform="translate(250 44)"><rect width="14" height="14" rx="7" transform="translate(0 0)" fill="#f7b500"/></g></g><path d="M-11611.571,1312.995a1.66,1.66,0,0,1,.909-1.482v-3.373a.752.752,0,0,1,.752-.752.75.75,0,0,1,.749.752v3.372a1.666,1.666,0,0,1,.838.991h2.408a.752.752,0,0,1,.752.752.751.751,0,0,1-.752.749h-2.675a1.659,1.659,0,0,1-1.32.653A1.66,1.66,0,0,1-11611.571,1312.995Z" transform="translate(11852.35 -1279.797)" fill="#0073bc"/></g></g></svg>