<svg xmlns="http://www.w3.org/2000/svg" xmlns:xlink="http://www.w3.org/1999/xlink" width="48" height="48" viewBox="0 0 48 48"><defs><linearGradient id="a" y1="0.453" x2="1" y2="0.448" gradientUnits="objectBoundingBox"><stop offset="0" stop-color="#7ed9ff"/><stop offset="0.531" stop-color="#00a1e4"/><stop offset="1" stop-color="#0073bc"/></linearGradient></defs><rect width="48" height="48" rx="24" fill="rgba(255,255,255,0.12)"/><g transform="translate(10.498 7.924)"><g transform="translate(0 0.152)"><path d="M12.305-1.9,3.593,5.081a4.9,4.9,0,0,0-1.549,4.17l.9,16.249a4.488,4.488,0,0,0,4.244,3.683H22.816A4.515,4.515,0,0,0,27.06,25.5l.9-16.249a4.986,4.986,0,0,0-1.549-4.17L17.693-1.89a4.409,4.409,0,0,0-5.388-.01Z" transform="translate(-1.997 2.816)" fill="url(#a)"/><path d="M10.229-2.06,3.271,3.73A4.152,4.152,0,0,0,2.034,7.188l.715,13.47a3.629,3.629,0,0,0,3.389,3.053H18.623a3.651,3.651,0,0,0,3.389-3.053l.715-13.47A4.222,4.222,0,0,0,21.49,3.73L14.532-2.049A3.419,3.419,0,0,0,10.229-2.06Z" transform="translate(0.621 5.552)" fill="#fff"/></g><path d="M3.747,0h0A3.747,3.747,0,0,1,7.494,3.747V8.585H0V3.747A3.747,3.747,0,0,1,3.747,0Z" transform="translate(9.253 21.002)" fill="#0073bc"/><rect width="12" height="2" rx="1" transform="translate(7 12)" fill="#0073bc"/><rect width="12" height="2" rx="1" transform="translate(7.003 16.152)" fill="#0073bc"/><g transform="translate(13.003)"><path d="M7,0a7,7,0,1,0,7,7A7,7,0,0,0,7,0Z" fill="#f7b500"/><g transform="translate(4.413 1.87)"><path d="M18440.3-6378.17v-.7a3.776,3.776,0,0,1-1.734-.836.749.749,0,0,1-.219-.53.747.747,0,0,1,.219-.53.755.755,0,0,1,1.059,0,2.639,2.639,0,0,0,1.4.484,1.152,1.152,0,0,0,.832-.268.51.51,0,0,0,.16-.343.5.5,0,0,0-.33-.5,3.525,3.525,0,0,0-1.02-.362c-.109-.027-.221-.061-.346-.092a2.139,2.139,0,0,1-1.328-1.022,2.192,2.192,0,0,1-.2-1.644,2.153,2.153,0,0,1,1.5-1.51v-.767a.75.75,0,0,1,.75-.75.755.755,0,0,1,.75.75v.69a3.213,3.213,0,0,1,1.588.907l-1.115,1a1.572,1.572,0,0,0-1.1-.467c-.783.046-.875.356-.936.564a.694.694,0,0,0,.064.492.646.646,0,0,0,.422.306c.125.037.236.064.334.092a4.86,4.86,0,0,1,1.383.508,1.977,1.977,0,0,1,1.078,1.778v.014a2,2,0,0,1-.621,1.431,2.5,2.5,0,0,1-1.1.6v.708a.754.754,0,0,1-.75.75A.75.75,0,0,1,18440.3-6378.17Zm1.975-6.02Zm0,0Z" transform="translate(-18438.336 6387.547)" fill="#0073bc"/></g></g></g></svg>