<svg xmlns="http://www.w3.org/2000/svg" width="24" height="24" viewBox="0 0 24 24"><g transform="translate(-75 -322)"><path d="M0,0H24V24H0Z" transform="translate(75 322)" fill="none"/><g transform="translate(-1.998 -36)"><path d="M4271.383-375.6h-6.664a.72.72,0,0,1-.72-.72V-382.8h10a5.187,5.187,0,0,0-3.2,4.8,5.2,5.2,0,0,0,.586,2.4Zm7.014-7.013h0c-.129-.067-.263-.13-.4-.186h.4Zm0-1.626H4264v-3.6a.72.72,0,0,1,.72-.72h2.88V-390h1.439v1.44h4.32V-390h1.439v1.44h2.88a.72.72,0,0,1,.72.72v3.6Z" transform="translate(-4183 752)" fill="#00a1e4"/><path d="M6,10a4,4,0,1,1,4-4,4,4,0,0,1-4,4Zm.4-4V4H5.6V6.8H8V6Z" transform="translate(86.999 367.999)" fill="#00a1e4"/></g></g></svg>