<svg xmlns="http://www.w3.org/2000/svg" xmlns:xlink="http://www.w3.org/1999/xlink" width="48" height="48" viewBox="0 0 48 48"><defs><linearGradient id="a" y1="0.453" x2="1" y2="0.448" gradientUnits="objectBoundingBox"><stop offset="0" stop-color="#7ed9ff"/><stop offset="0.531" stop-color="#00a1e4"/><stop offset="1" stop-color="#0073bc"/></linearGradient></defs><rect width="48" height="48" rx="24" fill="rgba(255,255,255,0.12)"/><g transform="translate(2 4)"><rect width="24.44" height="17.457" rx="1" transform="translate(10.31 14.035)" fill="#fff" stroke="rgba(0,0,0,0)" stroke-miterlimit="10" stroke-width="1"/><path d="M-.5-.5H24.94V17.957H-.5ZM23.94.5H.5V16.957H23.94Z" transform="translate(10.31 14.035)" fill="rgba(0,0,0,0)"/><path d="M10854.433,22939.324v-9.191a4.643,4.643,0,0,1-3.482-.809c-1.572-1.186-2.309-2.855-1.652-3.725s2.464-.621,4.035.564a4.276,4.276,0,0,1,1.1,1.238v-1.17a.873.873,0,0,1,1.745,0v3.191a4.545,4.545,0,0,1,1.531-1.5c1.641-.945,3.373-1.008,3.874-.139s-.42,2.338-2.061,3.281a4.545,4.545,0,0,1-3.345.42v7.842a.873.873,0,1,1-1.745,0Z" transform="translate(-10833.211 -22920.035)" fill="#f7b500"/><path d="M24.917,21.821h-.033l-.079,0h-.019l-.035,0-.014,0h0a1.234,1.234,0,0,1-.474-.177,10.336,10.336,0,0,0-10.51,0,1.232,1.232,0,0,1-1.316,0,10.337,10.337,0,0,0-10.5,0,1.231,1.231,0,0,1-.623.194H1.267A1.233,1.233,0,0,1,.5,21.557h0l-.012-.009-.006,0,0,0a1.276,1.276,0,0,1-.193-.2L.28,21.332l0-.005-.009-.012,0,0a1.328,1.328,0,0,1-.189-.356l0-.007,0,0A1.332,1.332,0,0,1,0,20.49V2.963a1.22,1.22,0,0,1,0-.125.01.01,0,0,1,0,0V2.827A1.331,1.331,0,0,1,.2,2.241l0-.006,0,0A1.283,1.283,0,0,1,.636,1.8a12.771,12.771,0,0,1,12.457-.351A12.771,12.771,0,0,1,25.55,1.8a1.288,1.288,0,0,1,.51.566l0,0,0,.007a1.332,1.332,0,0,1,.1.338v.008a1.357,1.357,0,0,1,.017.246V20.48a1.343,1.343,0,0,1-.076.479l0,.005,0,.007a1.315,1.315,0,0,1-.183.34l0,0-.006.009a1.292,1.292,0,0,1-.257.253l0,0-.006,0a1.232,1.232,0,0,1-.726.237ZM14.36,18.45a12.745,12.745,0,0,1,9.292,0V3.726a10.336,10.336,0,0,0-9.292,0Zm-2.534,0V3.726a10.336,10.336,0,0,0-9.291,0V18.449a12.744,12.744,0,0,1,9.291,0Z" transform="translate(9 11.854)" fill="url(#a)"/><g transform="translate(14.548 20.893)"><path d="M6.11,0A6.11,6.11,0,1,1,0,6.11,6.11,6.11,0,0,1,6.11,0Z" transform="translate(1.435 1.435)" fill="#f7b500"/><path d="M10844.268,22911.656v-.535a3.348,3.348,0,0,1-1.483-.736.75.75,0,0,1,1.052-1.07,2.231,2.231,0,0,0,1.168.4h.012l.039,0a.889.889,0,0,0,.6-.209.336.336,0,0,0,.115-.229c-.006-.174-.04-.242-.241-.357a3,3,0,0,0-.869-.3c-.092-.023-.189-.051-.3-.08a1.967,1.967,0,0,1-1.219-.937,2,2,0,0,1-.179-1.506,1.944,1.944,0,0,1,1.306-1.363v-.6a.75.75,0,0,1,1.5,0v.525a2.863,2.863,0,0,1,1.357.8l-1.11,1.006h0a1.306,1.306,0,0,0-.893-.379c-.609.039-.673.252-.724.426a.5.5,0,0,0,.046.355.477.477,0,0,0,.311.225c.108.029.2.051.293.074a4.479,4.479,0,0,1,1.225.455,1.8,1.8,0,0,1,.989,1.633.018.018,0,0,1,.006.012,1.818,1.818,0,0,1-.575,1.316,2.276,2.276,0,0,1-.926.529v.541a.75.75,0,1,1-1.5,0Zm1.749-5.187,0,.006Z" transform="translate(-10837.423 -22900.412)" fill="#0073bc"/></g></g></svg>