<svg xmlns="http://www.w3.org/2000/svg" width="32" height="32" viewBox="0 0 32 32"><g transform="translate(-511 -616)"><rect width="32" height="32" rx="8" transform="translate(511 616)" fill="rgba(255,255,255,0.12)"/><g transform="translate(517 621.6)"><path d="M42,2.6V7.067h4.467Z" transform="translate(-28.667 -2.067)" fill="#fff"/><path d="M23.667,10.333V6.667H18.333A.315.315,0,0,1,18,6.333V1H7.333A.315.315,0,0,0,7,1.333v9Z" transform="translate(-5.333 -1)" fill="#fff"/><path d="M7,56v2a.315.315,0,0,0,.333.333h16A.315.315,0,0,0,23.667,58V56Z" transform="translate(-5.333 -37.667)" fill="#fff"/><path d="M21.667,31H2.333A.315.315,0,0,0,2,31.333v7a.315.315,0,0,0,.333.333H21.667A.315.315,0,0,0,22,38.333v-7A.315.315,0,0,0,21.667,31Zm-11.7,3.967a1.38,1.38,0,0,1-.9.267H8.8v1.1H8.133v-3.1h1a1.341,1.341,0,0,1,.867.233.885.885,0,0,1,.3.733A.976.976,0,0,1,9.967,34.967Zm3.133.967a1.8,1.8,0,0,1-1.267.4h-.867v-3.1h.967a1.6,1.6,0,0,1,1.167.4,1.531,1.531,0,0,1,.433,1.133A1.613,1.613,0,0,1,13.1,35.933Zm2.933-2.167H14.9v.8h1.033V35.1H14.9v1.233h-.633v-3.1h1.767v.533Z" transform="translate(-2 -21)" fill="#b4e7fb"/><path d="M31.233,39.3H30.9v2h.267c.633,0,.933-.333.933-1.033C32.1,39.633,31.8,39.3,31.233,39.3Z" transform="translate(-21.267 -26.533)" fill="#b4e7fb"/><path d="M22.7,39.3h-.3v.933h.2a.652.652,0,0,0,.467-.133.463.463,0,0,0,.167-.333.351.351,0,0,0-.133-.333A.531.531,0,0,0,22.7,39.3Z" transform="translate(-15.6 -26.533)" fill="#b4e7fb"/></g></g></svg>