<svg width="24" height="24" viewBox="0 0 24 24" fill="none" xmlns="http://www.w3.org/2000/svg">
<path d="M12 23C5.92487 23 1 18.0751 1 12C1 5.92487 5.92487 1 12 1C18.0751 1 23 5.92487 23 12C23 18.0751 18.0751 23 12 23ZM12 20.8C16.8601 20.8 20.8 16.8601 20.8 12C20.8 7.13989 16.8601 3.2 12 3.2C7.13989 3.2 3.2 7.13989 3.2 12C3.2 16.8601 7.13989 20.8 12 20.8ZM10.4841 8.05605L15.8509 11.6339C16.0531 11.7687 16.1077 12.0419 15.9729 12.2441C15.9406 12.2924 15.8992 12.3338 15.8509 12.3661L10.4841 15.9439C10.2819 16.0788 10.0087 16.0241 9.87392 15.8219C9.82574 15.7497 9.8 15.6648 9.8 15.5779V8.42215C9.8 8.17914 9.99701 7.98215 10.24 7.98215C10.3269 7.98215 10.4118 8.00786 10.4841 8.05605Z" fill="#00A1E4"/>
</svg>
