<svg xmlns="http://www.w3.org/2000/svg" xmlns:xlink="http://www.w3.org/1999/xlink" width="64" height="64" viewBox="0 0 64 64"><defs><linearGradient id="a" y1="0.453" x2="1" y2="0.448" gradientUnits="objectBoundingBox"><stop offset="0" stop-color="#7ed9ff"/><stop offset="0.531" stop-color="#00a1e4"/><stop offset="1" stop-color="#0073bc"/></linearGradient></defs><rect width="64" height="64" rx="20" fill="none"/><g transform="translate(-250.389 -504)"><g transform="translate(262 512)"><path d="M24.529,8.279,23.28,0H4.951A4.968,4.968,0,0,0,0,5.008V39.667a4.929,4.929,0,0,0,4.951,4.963H22.338L34.863,27.644V12.14Zm0,0" fill="url(#a)"/><path d="M24.9,5.087,20.285-.5H4.041c-2.2,0-3.969.8-3.969,3L-.072,33.539A3.932,3.932,0,0,0,3.878,37.5H17.747L28.73,22.38V8.058Z" transform="translate(3.453 4.006)" fill="#fff"/><path d="M-11666.379,2126.53a1.141,1.141,0,0,1-1.137-1.136,1.141,1.141,0,0,1,1.137-1.136h11.06a1.139,1.139,0,0,1,1.136,1.136,1.139,1.139,0,0,1-1.136,1.136Zm0-5.792a1.139,1.139,0,0,1-1.137-1.136,1.141,1.141,0,0,1,1.137-1.136h14.8a1.134,1.134,0,0,1,1.136,1.136,1.139,1.139,0,0,1-1.136,1.136Zm0-5.678a1.141,1.141,0,0,1-1.137-1.136,1.141,1.141,0,0,1,1.137-1.136h11.5a1.139,1.139,0,0,1,1.134,1.136,1.139,1.139,0,0,1-1.134,1.136Z" transform="translate(11674.42 -2089.577)" fill="#0073bc"/><path d="M285.277.141l11.549,12.128h-7.688a3.858,3.858,0,0,1-3.861-3.861Z" transform="translate(-261.997 -0.129)" fill="#0073bc" stroke="rgba(0,0,0,0)" stroke-miterlimit="10" stroke-width="1"/><path d="M-11661.144,2141.083l-.349-.015a6.374,6.374,0,0,1-5.921-5.206v0a6.309,6.309,0,0,1-.1-1.125c0-.079,0-.155.006-.231v-.006a6.378,6.378,0,0,1,5.578-6.088v6.094h-3.654c-.114,0-.221.005-.321.015a1.157,1.157,0,0,0-.759,1.077,2.2,2.2,0,0,0,.032.275,5.612,5.612,0,0,0,5.115,4.433h.006v-11.968l.026,0h.349l.349.015a6.374,6.374,0,0,1,5.923,5.2s0,0,0,0a6.347,6.347,0,0,1,.1,1.129c0,.079,0,.155-.006.231v0a6.375,6.375,0,0,1-5.578,6.088v-6.091h3.654c.113,0,.22-.005.319-.015a1.157,1.157,0,0,0,.762-1.077,2.1,2.1,0,0,0-.035-.278,5.614,5.614,0,0,0-5.115-4.433h0v11.97l-.029,0Z" transform="translate(11674.42 -2120.661)" fill="#0073bc" stroke="rgba(0,0,0,0)" stroke-width="1"/></g><g transform="translate(280.464 537.676)"><path d="M237.321,307.21a11.126,11.126,0,1,0-1.558.114A13.2,13.2,0,0,0,237.321,307.21Zm0,0" transform="translate(-224.605 -285)" fill="#f9c734"/><path d="M312.957,368.663a.869.869,0,0,1-1.278,0l-5.128-5.5a.875.875,0,0,1,.639-1.47.916.916,0,0,1,.656.28l3.623,3.877v-9.556a.875.875,0,1,1,1.75,0v9.556l3.6-3.877a.873.873,0,0,1,1.278,1.19Zm0,0" transform="translate(-301.178 -351.048)" fill="#0073bc"/></g></g></svg>