<svg xmlns="http://www.w3.org/2000/svg" xmlns:xlink="http://www.w3.org/1999/xlink" width="48" height="48" viewBox="0 0 48 48"><defs><linearGradient id="a" y1="0.453" x2="1" y2="0.448" gradientUnits="objectBoundingBox"><stop offset="0" stop-color="#7ed9ff"/><stop offset="0.531" stop-color="#00a1e4"/><stop offset="1" stop-color="#0073bc"/></linearGradient></defs><rect width="48" height="48" rx="24" fill="rgba(255,255,255,0.12)"/><g transform="translate(0.068 -1.547)"><g transform="translate(-123.939 -88.053)"><path d="M161,113.44s3.249-2.495,1.334-5.337" transform="translate(60.989 -59.175) rotate(25)" fill="none" stroke="#72501b" stroke-linecap="round" stroke-width="2"/><path d="M342.857,50.8a1.808,1.808,0,0,1,.085.7l-1.588.807a1.477,1.477,0,0,1-.382-.433l-.076-.17-.136-.943-.917.238a24.964,24.964,0,0,1-6.836.824,14.952,14.952,0,0,1-4.339-.637l-.951-.289-.127.926-.059.119a1.556,1.556,0,0,1-.459.408l-1.537-.9a2.047,2.047,0,0,1,.178-.722l.374-.679-.637-.442a7.276,7.276,0,0,1-2.607-3.218l-.212-.527h-1.749a4.846,4.846,0,0,1-.4-2.132,5.059,5.059,0,0,1,.408-2.123h1.7l.144-.671a6.553,6.553,0,0,1,4.2-4.781l.314-.119.153-.289c.45-.875,1.129-2.726,1.129-2.726a7.732,7.732,0,0,1,1.928,1.826l.255.476.951-.051c1.469-.093,4.917-.323,7.6.73,3.1,1.223,5.121,2.989,5.554,4.857.917,3.762.289,6.649-1.877,8.594l-.433.391.212.552c.008.025.017.051.025.085Z" transform="translate(-185.91 71.747)" fill="#fff"/><path d="M326.079,127.663a1.7,1.7,0,0,1-.862-.228l-1.987-1.159a2.246,2.246,0,0,1-.807-2.48,9.748,9.748,0,0,1-2.31-2.889h-.691c-1.591,0-2.3-2.214-2.3-4.406,0-1.521.482-4.4,2.3-4.4h.372a8.943,8.943,0,0,1,4.94-5.311,16.008,16.008,0,0,0,.832-2.118,1.913,1.913,0,0,1,.816-1.415,1.7,1.7,0,0,1,1.553-.089,6.454,6.454,0,0,1,3.181,2.359,20.62,20.62,0,0,1,8.437.929c3.953,1.555,6.469,3.887,7.084,6.569,1.29,5.265-.225,8.511-1.98,10.414.233.971.176,2.418-.913,2.97l-2.038,1.029a1.788,1.788,0,0,1-1.434.059,3.3,3.3,0,0,1-1.4-1.093,28.286,28.286,0,0,1-6.611.67,17.684,17.684,0,0,1-4.113-.481,3.533,3.533,0,0,1-1.485.975A2.064,2.064,0,0,1,326.079,127.663Zm14.438-2.573-.005,0Zm-15.539-1.182a1.247,1.247,0,0,0,1.281.7c.471-.113.372.293.6-1.156l1.058.351a14.776,14.776,0,0,0,4.3.637h.063a25.474,25.474,0,0,0,6.968-.836l1.123-.262c.271,1.552.188,1.3.531,1.313a1.323,1.323,0,0,0,1.219-.766c.149-.53-.528-1.163-.528-1.163l.676-.629c2.109-1.892,2.715-4.739,1.8-8.461-.413-1.8-2.41-3.515-5.482-4.723-2.683-1.056-6.18-.826-7.674-.728l-1.268.069-.395-.739c-.324-.607-1.242-1.61-1.445-1.485s-.549,1.636-.945,2.406l-.237.459-.485.177a6.34,6.34,0,0,0-4.06,4.632.874.874,0,0,1-.507.743c-.512.259-.905-.1-1.359.414a1.974,1.974,0,0,0-.457,1.639,1.787,1.787,0,0,0,.516,1.552c.449.491.742.21,1.28.414a.914.914,0,0,1,.615.618,7.131,7.131,0,0,0,2.542,3.145l.766.5C324.9,123.806,324.838,123.484,324.978,123.908Z" transform="translate(-185.18 -0.905)" fill="url(#a)"/><path d="M-552.29-1237.3a1.56,1.56,0,0,1,1.184-.8,1.567,1.567,0,0,1,1.186.8" transform="translate(692.579 1349.32)" fill="#005d98" stroke="#005d98" stroke-linecap="round" stroke-width="1.5"/></g><g transform="translate(23.24 10.751)"><g transform="translate(2.623 1.638)"><path d="M7,0A7,7,0,1,1,0,7,7,7,0,0,1,7,0Z" fill="#f7b500"/><g transform="translate(3.066 7.966) rotate(-45)"><path d="M-10979.093,1696.123a.752.752,0,0,1,0-1.061l.818-.819h-5.146a.751.751,0,0,1-.75-.75.751.751,0,0,1,.75-.75h5.092l-.818-.819a.751.751,0,0,1,0-1.061.751.751,0,0,1,1.061,0l2.126,2.128a.752.752,0,0,1,0,1.061l-2.07,2.07a.748.748,0,0,1-.53.219A.753.753,0,0,1-10979.093,1696.123Z" transform="translate(10983.42 -1691.395)" fill="#0073bc"/></g></g></g></g></svg>