<svg id="tan_gia" data-name="tan gia" xmlns="http://www.w3.org/2000/svg" xmlns:xlink="http://www.w3.org/1999/xlink" width="24" height="24" viewBox="0 0 24 24">
  <defs>
    <linearGradient id="linear-gradient" x1="0.606" y1="0.106" x2="0.606" y2="1.215" gradientUnits="objectBoundingBox">
      <stop offset="0" stop-color="#7ed9ff"/>
      <stop offset="0.531" stop-color="#00a1e4"/>
      <stop offset="1" stop-color="#0073bc"/>
    </linearGradient>
  </defs>
  <rect id="Rectangle_11078" data-name="Rectangle 11078" width="24" height="24" fill="none"/>
  <g id="Group_22677" data-name="Group 22677" transform="translate(2.023 2)">
    <path id="Union_99" data-name="Union 99" d="M6816,6594.275v-5.832l7.615-7.441v0l7.616,7.445v5.832l-7.616.835Z" transform="translate(-6813.64 -6578.195)" fill="url(#linear-gradient)"/>
    <path id="Union_97" data-name="Union 97" d="M6825.978,6582.639h0l-9.158,8.947-.818-.837,9.976-9.748v0l9.977,9.748-.818.837Z" transform="translate(-6816 -6578.655)" fill="#0073bc"/>
    <path id="Path_68402" data-name="Path 68402" d="M6816,6584.919V6581h15.234v3.919Z" transform="translate(-6813.64 -6564.919)" fill="#0073bc"/>
    <path id="Path_68404" data-name="Path 68404" d="M6812.482,6579v-13.58h-2.3a3.21,3.21,0,1,1,0-6.42,3.141,3.141,0,0,1,2.2.872,5.646,5.646,0,0,1,1.019,1.478c.462-.264.519-.264.982,0a5.631,5.631,0,0,1,1.017-1.476,3.143,3.143,0,0,1,2.2-.87,3.209,3.209,0,1,1,0,6.418h-2.294v7.958l-.012-.007.01.007V6579Zm3.94-17.653a6.218,6.218,0,0,0-1.089,2.241h1.964a1.291,1.291,0,1,0,0-2.582A1.254,1.254,0,0,0,6816.423,6561.347Zm-7.223.948a1.291,1.291,0,0,0,1.289,1.291h1.962a6.171,6.171,0,0,0-1.085-2.237,1.251,1.251,0,0,0-.876-.343A1.291,1.291,0,0,0,6809.2,6562.295Z" transform="translate(-6803.917 -6559)" fill="#f7b500"/>
  </g>
</svg>
