<svg id="thoi_noi" data-name="thoi noi" xmlns="http://www.w3.org/2000/svg" xmlns:xlink="http://www.w3.org/1999/xlink" width="24" height="24" viewBox="0 0 24 24">
  <defs>
    <linearGradient id="linear-gradient" x1="0.606" y1="0.106" x2="0.606" y2="1.215" gradientUnits="objectBoundingBox">
      <stop offset="0" stop-color="#7ed9ff"/>
      <stop offset="0.531" stop-color="#00a1e4"/>
      <stop offset="1" stop-color="#0073bc"/>
    </linearGradient>
  </defs>
  <rect id="Rectangle_6493" data-name="Rectangle 6493" width="24" height="24" fill="none"/>
  <g id="Group_20559" data-name="Group 20559" transform="translate(1.132 1.998)">
    <g id="Group_20558" data-name="Group 20558" transform="translate(0)">
      <g id="Group_20549" data-name="Group 20549" transform="translate(0 2.346)">
        <path id="Path_68294" data-name="Path 68294" d="M8.83,77.659a8.828,8.828,0,1,1,8.828-8.828A8.838,8.838,0,0,1,8.83,77.659Z" transform="translate(-0.002 -60.003)" fill="url(#linear-gradient)"/>
      </g>
      <g id="Group_20550" data-name="Group 20550" transform="translate(3.073 7.886)">
        <path id="Path_68296" data-name="Path 68296" d="M79.267,204.334a.586.586,0,0,1-.555-.775,2.559,2.559,0,0,1,4.842,0,.586.586,0,1,1-1.109.38,1.387,1.387,0,0,0-2.624,0A.586.586,0,0,1,79.267,204.334Z" transform="translate(-78.681 -201.827)" fill="#fff7e5"/>
      </g>
      <path id="Path_68297" data-name="Path 68297" d="M267.64,350h2.088v2.344H267.64Z" transform="translate(-257.185 -336.33)" fill="#f6efea" fill-rule="evenodd"/>
      <g id="Group_20551" data-name="Group 20551" transform="translate(9.678 7.886)">
        <path id="Path_68298" data-name="Path 68298" d="M248.334,204.334a.586.586,0,0,1-.555-.775,2.559,2.559,0,0,1,4.842,0,.586.586,0,0,1-1.109.38,1.387,1.387,0,0,0-2.624,0A.586.586,0,0,1,248.334,204.334Z" transform="translate(-247.748 -201.827)" fill="#fff7e5"/>
      </g>
      <g id="Group_20552" data-name="Group 20552" transform="translate(8.795 12.111)">
        <path id="Path_68299" data-name="Path 68299" d="M225.731,315.156a.586.586,0,0,1-.358-1.05,2,2,0,0,0,.116-3.08.586.586,0,1,1,.783-.872,3.176,3.176,0,0,1-.183,4.881A.584.584,0,0,1,225.731,315.156Z" transform="translate(-225.145 -310.003)" fill="#fff7e5"/>
      </g>
      <g id="Group_20553" data-name="Group 20553" transform="translate(0 0.002)">
        <path id="Path_68300" data-name="Path 68300" d="M1.809,8.4a.586.586,0,0,1-.578-.488L1.107,7.18,1.5,6.02.886,5.872.657,4.515l.325-1.22L.43,3.173.01.686A.586.586,0,0,1,.782.035L3.159.87l.11.622,1.173-.171,1.3.456.01.646,1.273-.2.674.237a.586.586,0,0,1,.183,1l-5.694,4.8a.586.586,0,0,1-.378.138Z" transform="translate(-0.002 -0.002)" fill="#f7b500"/>
      </g>
      <path id="Path_68301" data-name="Path 68301" d="M11.195,25.874l3.785-3.193L13.7,22.23l-2.729,2.3Z" transform="translate(-10.54 -21.36)" fill="#c0900b"/>
      <path id="Path_68302" data-name="Path 68302" d="M22.644,49.538l.221,1.308a.583.583,0,0,0,.159-.1l5.757-4.857L27.5,45.443Z" transform="translate(-21.76 -43.666)" fill="#c0900b"/>
      <path id="Path_68306" data-name="Path 68306" d="M322.143,293a.2.2,0,0,0-.2.2v1.446a.586.586,0,0,1-.586.586h-4.7v2.344h5.287a2.344,2.344,0,0,0,2.344-2.344v-.078A2.155,2.155,0,0,0,322.143,293Z" transform="translate(-304.292 -281.557)" fill="#f7b500" fill-rule="evenodd"/>
    </g>
  </g>
</svg>
