<svg id="ic_vnpt-haiphong" xmlns="http://www.w3.org/2000/svg" xmlns:xlink="http://www.w3.org/1999/xlink" width="48" height="48" viewBox="0 0 48 48">
  <defs>
    <linearGradient id="linear-gradient" x2="1" y2="1" gradientUnits="objectBoundingBox">
      <stop offset="0" stop-color="#7ed9ff"/>
      <stop offset="0.531" stop-color="#00a1e4"/>
      <stop offset="1" stop-color="#0073bc"/>
    </linearGradient>
  </defs>
  <rect id="Rectangle_10968" data-name="Rectangle 10968" width="48" height="48" rx="16" fill="rgba(255,255,255,0.08)"/>
  <g id="Group_19104" data-name="Group 19104" transform="translate(-72.891 -60.258)">
    <path id="Path_16530" data-name="Path 16530" d="M84.182,89.162a13.48,13.48,0,0,1-.976-3.365,13.971,13.971,0,0,1-.152-2.688,13.639,13.639,0,0,1,7.006-11.424A12.72,12.72,0,0,1,94.427,70.2a13.147,13.147,0,0,1,8.29,1.424.185.185,0,0,0,.226-.016,16.22,16.22,0,0,1,3.676-1.973,6.088,6.088,0,0,1,1.423-.347c.021,0,.043,0,.051-.026h.1a1.453,1.453,0,0,0,.435,0h.1a.809.809,0,0,0,.265.063,2.088,2.088,0,0,1,1.469,1.334,4.225,4.225,0,0,1,.246,2.016,17.984,17.984,0,0,1-.993,4.226,30.782,30.782,0,0,1-3.837,7.584,57.563,57.563,0,0,1-4.724,6.042c-.938,1.058-1.885,2.109-2.9,3.091a28.756,28.756,0,0,1-5.322,4.1,12.021,12.021,0,0,1-3.1,1.372,3.734,3.734,0,0,1-1.757.109,2.21,2.21,0,0,1-1.7-1.676,4.775,4.775,0,0,1-.118-1.893,14.886,14.886,0,0,1,1.153-4.007c.573-1.407,1.269-2.757,1.943-4.116.6-1.21,1.2-2.418,1.711-3.671a12.037,12.037,0,0,0,.763-2.44,8.36,8.36,0,0,0,.044-3.179,2.78,2.78,0,0,0-1.957-2.227,3.1,3.1,0,0,0-2.493.307,5.622,5.622,0,0,0-1.907,1.8,10.807,10.807,0,0,0-1.879,4.727,14.251,14.251,0,0,0,.556,6.266c.005.016.007.033.011.05S84.206,89.166,84.182,89.162Z" transform="translate(0 0)" fill="url(#linear-gradient)"/>
    <path id="Path_16531" data-name="Path 16531" d="M318.24,260.624a13.6,13.6,0,0,1-12.846,16.02c0-.027.016-.034.034-.043a18.527,18.527,0,0,0,3.436-2.383,34.056,34.056,0,0,0,6.172-7.094,27.359,27.359,0,0,0,2.591-4.657,9.7,9.7,0,0,0,.588-1.808C318.216,260.651,318.224,260.645,318.24,260.624Z" transform="translate(-208.551 -179.383)" fill="#f7b500"/>
  </g>
</svg>
