<svg id="invoice_ic04" xmlns="http://www.w3.org/2000/svg" xmlns:xlink="http://www.w3.org/1999/xlink" width="48" height="48" viewBox="0 0 48 48">
  <defs>
    <linearGradient id="linear-gradient" x2="1" y2="1" gradientUnits="objectBoundingBox">
      <stop offset="0" stop-color="#7ed9ff"/>
      <stop offset="0.531" stop-color="#00a1e4"/>
      <stop offset="1" stop-color="#0073bc"/>
    </linearGradient>
  </defs>
  <rect id="Rectangle_10968" data-name="Rectangle 10968" width="48" height="48" rx="16" fill="rgba(255,255,255,0.08)"/>
  <g id="Group_20158" data-name="Group 20158" transform="translate(-158 -19)">
    <g id="Group_18928" data-name="Group 18928" transform="translate(-0.789 1)">
      <rect id="Rectangle_5944" data-name="Rectangle 5944" width="19" height="28" rx="2" transform="translate(170.789 28)" fill="url(#linear-gradient)"/>
      <rect id="Rectangle_6073" data-name="Rectangle 6073" width="13" height="22" rx="1" transform="translate(173.789 31)" fill="#fff"/>
      <circle id="Ellipse_1389" data-name="Ellipse 1389" cx="1.5" cy="1.5" r="1.5" transform="translate(178.789 48)" fill="#005d98"/>
    </g>
    <g id="Group_18979" data-name="Group 18979" transform="translate(-1 -1)">
      <path id="Path_16389" data-name="Path 16389" d="M7,0A7,7,0,1,1,0,7,7,7,0,0,1,7,0Z" transform="translate(182 37)" fill="#f7b500"/>
      <g id="Group_18541" data-name="Group 18541" transform="translate(187.104 39.622)">
        <path id="Path_15911" data-name="Path 15911" d="M-661-153.394v1.365" transform="translate(662.952 153.394)" fill="none" stroke="#0073bc" stroke-linecap="round" stroke-linejoin="round" stroke-width="1.5"/>
        <path id="Path_15912" data-name="Path 15912" d="M-661-153.394v1.365" transform="translate(662.952 160.648)" fill="none" stroke="#0073bc" stroke-linecap="round" stroke-linejoin="round" stroke-width="1.5"/>
        <path id="Path_15910" data-name="Path 15910" d="M-659.7-150.958a2.331,2.331,0,0,0-1.707-.716,1.531,1.531,0,0,0-1.6,1.105,1.394,1.394,0,0,0,1,1.731,5.639,5.639,0,0,1,1.543.527,1.234,1.234,0,0,1,.7,1.141,1.554,1.554,0,0,1-1.769,1.367,3.285,3.285,0,0,1-1.9-.7" transform="translate(663.432 153.055)" fill="none" stroke="#0073bc" stroke-linecap="round" stroke-linejoin="round" stroke-width="1.5"/>
      </g>
    </g>
  </g>
</svg>
