<svg id="invoice" xmlns="http://www.w3.org/2000/svg" xmlns:xlink="http://www.w3.org/1999/xlink" width="64" height="64" viewBox="0 0 64 64">
  <defs>
    <linearGradient id="linear-gradient" x2="1" y2="1" gradientUnits="objectBoundingBox">
      <stop offset="0" stop-color="#7ed9ff"/>
      <stop offset="0.531" stop-color="#00a1e4"/>
      <stop offset="1" stop-color="#0073bc"/>
    </linearGradient>
  </defs>
  <rect id="Rectangle_10966" data-name="Rectangle 10966" width="64" height="64" fill="none"/>
  <g id="Group_20140" data-name="Group 20140" transform="translate(-223 -16.536)">
    <rect id="Rectangle_6075" data-name="Rectangle 6075" width="30.766" height="39.157" rx="2" transform="translate(237 29.982)" fill="url(#linear-gradient)"/>
    <rect id="Rectangle_6076" data-name="Rectangle 6076" width="22.375" height="30.766" rx="1" transform="translate(241.195 34.177)" fill="#fff"/>
    <path id="Path_16259" data-name="Path 16259" d="M27.917,7.594H16.159a.918.918,0,0,1-.732-1.227l.853-3.091A1.6,1.6,0,0,1,17.746,2H26.33A1.6,1.6,0,0,1,27.8,3.275l.853,3.091A.918.918,0,0,1,27.917,7.594Z" transform="translate(230.345 24.536)" fill="#0073bc"/>
    <rect id="Rectangle_6077" data-name="Rectangle 6077" width="16.781" height="2.046" rx="1" transform="translate(243.992 39.771)" fill="#0073bc"/>
    <rect id="Rectangle_6078" data-name="Rectangle 6078" width="12.586" height="2.046" rx="1" transform="translate(243.992 43.864)" fill="#7ed9ff"/>
    <rect id="Rectangle_6079" data-name="Rectangle 6079" width="10.846" height="2.046" rx="1" transform="translate(243.992 47.957)" fill="#f7b500"/>
    <g id="Group_19049" data-name="Group 19049" transform="translate(253.383 50.958)">
      <g id="Group_18807" data-name="Group 18807" transform="translate(0 0)">
        <path id="Rectangle_5957" data-name="Rectangle 5957" d="M1,0H17.578a2,2,0,0,1,2,2V17.578a2,2,0,0,1-2,2H2a2,2,0,0,1-2-2V1A1,1,0,0,1,1,0Z" transform="translate(0 0)" fill="#f7b500"/>
      </g>
      <path id="Path_16261" data-name="Path 16261" d="M24.319,19.822a1,1,0,0,1-.664-.253l-4.07-3.62a1,1,0,0,1,1.329-1.494l3.346,2.976,6.093-6.42A1,1,0,0,1,31.8,12.388L25.044,19.51A1,1,0,0,1,24.319,19.822Z" transform="translate(-15.753 -5.472)" fill="#0073bc"/>
    </g>
  </g>
</svg>
