<svg id="invoice_ic09" xmlns="http://www.w3.org/2000/svg" xmlns:xlink="http://www.w3.org/1999/xlink" width="48" height="48" viewBox="0 0 48 48">
  <defs>
    <linearGradient id="linear-gradient" x2="1" y2="1" gradientUnits="objectBoundingBox">
      <stop offset="0" stop-color="#7ed9ff"/>
      <stop offset="0.531" stop-color="#00a1e4"/>
      <stop offset="1" stop-color="#0073bc"/>
    </linearGradient>
  </defs>
  <rect id="Rectangle_10968" data-name="Rectangle 10968" width="48" height="48" rx="16" fill="rgba(255,255,255,0.08)"/>
  <g id="Group_18972" data-name="Group 18972" transform="translate(-527 -831)">
    <g id="Group_18971" data-name="Group 18971" transform="translate(-67)">
      <rect id="Rectangle_6147" data-name="Rectangle 6147" width="22" height="28" rx="2" transform="translate(607 842)" fill="url(#linear-gradient)"/>
      <path id="Exclusion_5" data-name="Exclusion 5" d="M-2207-1211h-10v-22h10a1,1,0,0,1,1,1v20A1,1,0,0,1-2207-1211Zm-12,0h-2a1,1,0,0,1-1-1v-20a1,1,0,0,1,1-1h2v22Z" transform="translate(2832 2078)" fill="#fff"/>
    </g>
    <path id="Path_16351" data-name="Path 16351" d="M22.94,26.164l-1.788-1.072a1.266,1.266,0,0,0-1.3,0L18.06,26.164a.7.7,0,0,1-1.06-.6v-7.3A1.267,1.267,0,0,1,18.267,17h4.466A1.267,1.267,0,0,1,24,18.267v7.3A.7.7,0,0,1,22.94,26.164Z" transform="translate(536 824)" fill="#f7b500"/>
  </g>
</svg>
