<svg id="login_setting" xmlns="http://www.w3.org/2000/svg" xmlns:xlink="http://www.w3.org/1999/xlink" width="64" height="64" viewBox="0 0 64 64">
  <defs>
    <linearGradient id="linear-gradient" x2="1" y2="1" gradientUnits="objectBoundingBox">
      <stop offset="0" stop-color="#7ed9ff"/>
      <stop offset="0.531" stop-color="#00a1e4"/>
      <stop offset="1" stop-color="#0073bc"/>
    </linearGradient>
  </defs>
  <rect id="Rectangle_10973" data-name="Rectangle 10973" width="64" height="64" fill="none"/>
  <g id="Group_20505" data-name="Group 20505" transform="translate(-454.207 -726)">
    <path id="Union_34" data-name="Union 34" d="M0,34.951c0-5.08,3.622-11.474,8.913-14.817a11.436,11.436,0,1,1,14.848,0c5.291,3.343,8.913,9.737,8.913,14.817C32.674,42.17,24.506,44,16.337,44S0,42.17,0,34.951Z" transform="translate(465.207 736)" stroke="rgba(0,0,0,0)" stroke-miterlimit="10" stroke-width="1" fill="url(#linear-gradient)"/>
    <path id="Union_64" data-name="Union 64" d="M-7300.793-1485.919c0-4.81,5.458-11.387,12.192-11.387s12.192,6.578,12.192,11.387-6.1,6.028-12.192,6.028S-7300.793-1481.109-7300.793-1485.919Zm3.985-22.713a8.369,8.369,0,0,1,8.37-8.368,8.369,8.369,0,0,1,8.368,8.368,8.369,8.369,0,0,1-8.368,8.37A8.37,8.37,0,0,1-7296.809-1508.631Z" transform="translate(7769.984 2256.068)" fill="#fff"/>
    <path id="Path_16424" data-name="Path 16424" d="M9.429,0A9.429,9.429,0,1,1,0,9.429,9.429,9.429,0,0,1,9.429,0Z" transform="translate(488.453 756.691)" fill="#f7b500"/>
    <path id="Path_16348" data-name="Path 16348" d="M681.633,96.48a2.27,2.27,0,0,1,1.006-.986,2.367,2.367,0,0,0,.267-.154,2.251,2.251,0,0,1,1.254-.382l.1,0a2.253,2.253,0,0,1-.348-1.369v-.007c0-.041,0-.09,0-.144s0-.1,0-.144V93.29a2.254,2.254,0,0,1,.348-1.369,2.252,2.252,0,0,1-1.358-.38,2.306,2.306,0,0,0-.262-.151,2.272,2.272,0,0,1-1.011-.987,2.241,2.241,0,0,1-1.012.987,2.252,2.252,0,0,0-.26.15,2.249,2.249,0,0,1-1.257.384l-.1,0a2.25,2.25,0,0,1,.348,1.368c0,.048,0,.1,0,.151s0,.1,0,.151A2.249,2.249,0,0,1,679,94.961l.1,0a2.255,2.255,0,0,1,1.256.383,2.292,2.292,0,0,0,.26.151,2.241,2.241,0,0,1,1.013.988m.9,2.73h-1.8a.41.41,0,0,1-.4-.33l-.29-1.454a.413.413,0,0,0-.227-.288,4.136,4.136,0,0,1-.473-.274.412.412,0,0,0-.363-.052l-1.4.476a.411.411,0,0,1-.488-.183l-.9-1.56a.411.411,0,0,1,.085-.514l1.111-.975a.419.419,0,0,0,.137-.347q-.009-.134-.008-.27t.008-.27a.418.418,0,0,0-.137-.346l-1.111-.975a.41.41,0,0,1-.085-.514l.9-1.56a.411.411,0,0,1,.488-.184l1.4.476a.411.411,0,0,0,.363-.052,4.084,4.084,0,0,1,.473-.273.413.413,0,0,0,.227-.288L680.33,88a.41.41,0,0,1,.4-.33h1.8a.41.41,0,0,1,.4.33l.29,1.455a.411.411,0,0,0,.227.288,4.132,4.132,0,0,1,.473.273.41.41,0,0,0,.363.052l1.4-.476a.41.41,0,0,1,.487.184l.9,1.56a.41.41,0,0,1-.085.514l-1.11.975a.419.419,0,0,0-.137.346c.006.09.009.18.009.27s0,.18-.009.27a.42.42,0,0,0,.137.347l1.11.975a.411.411,0,0,1,.085.514l-.9,1.56a.41.41,0,0,1-.487.183l-1.4-.476a.413.413,0,0,0-.363.052,4.185,4.185,0,0,1-.473.274.411.411,0,0,0-.227.288l-.29,1.454A.41.41,0,0,1,682.531,99.211Z" transform="translate(-183.75 672.678)" fill="#0073bc"/>
  </g>
</svg>
