<svg width="64" height="64" viewBox="0 0 64 64" fill="none" xmlns="http://www.w3.org/2000/svg">
<path d="M39.3207 14.401H9.81172V22.8319H39.3207V14.401Z" fill="#0073BC"/>
<path d="M42.1367 24.2374H13.3236C11.6465 24.2374 10.038 23.5712 8.85214 22.3853C7.66623 21.1994 7 19.5909 7 17.9138C7 16.2367 7.66623 14.6282 8.85214 13.4423C10.038 12.2564 11.6465 11.5902 13.3236 11.5902H35.8071C37.4845 11.5907 39.0931 12.2567 40.2799 13.4422C41.4666 14.6276 42.1344 16.2356 42.1367 17.913V24.2374ZM13.3304 15.8065C12.7713 15.8065 12.2351 16.0286 11.8398 16.424C11.4444 16.8193 11.2223 17.3555 11.2223 17.9147C11.2223 18.4738 11.4444 19.01 11.8398 19.4053C12.2351 19.8007 12.7713 20.0228 13.3304 20.0228H37.9152V17.9147C37.9148 17.3557 37.6925 16.8197 37.2973 16.4245C36.902 16.0292 36.3661 15.807 35.8071 15.8065H13.3304Z" fill="url(#paint0_linear_593_7597)"/>
<path d="M24.9455 23.7244L33.2739 31.2233C34.6805 32.4899 36.8475 32.3763 38.1141 30.9697L45.621 22.6323C46.8876 21.2257 46.774 19.0587 45.3674 17.7922L37.0389 10.2932C35.6323 9.02669 33.4653 9.14026 32.1988 10.5469L24.6918 18.8842C23.4253 20.2909 23.5388 22.4579 24.9455 23.7244Z" fill="#F7B500"/>
<path d="M47.7516 22.8319H9.81172V49.53H47.7516V22.8319Z" fill="#F2FBFF"/>
<path d="M11.9199 52.3408C10.6158 52.3399 9.36546 51.8216 8.44321 50.8997C7.52096 49.9778 7.00222 48.7276 7.00085 47.4235L7.00085 18.6173L12.3775 20.021H45.6434C46.9471 20.0224 48.1971 20.5409 49.119 21.4628C50.0408 22.3847 50.5594 23.6346 50.5607 24.9383V47.4235C50.5594 48.7273 50.0408 49.9772 49.119 50.8991C48.1971 51.821 46.9471 52.3395 45.6434 52.3408H11.9199ZM11.2172 47.4235C11.2172 47.6099 11.2912 47.7887 11.423 47.9204C11.5548 48.0522 11.7335 48.1263 11.9199 48.1263H45.6434C45.8296 48.1258 46.0081 48.0516 46.1398 47.9199C46.2715 47.7883 46.3457 47.6098 46.3461 47.4235V24.9383C46.3457 24.7521 46.2715 24.5736 46.1398 24.4419C46.0081 24.3102 45.8296 24.2361 45.6434 24.2356H11.2172V47.4235Z" fill="url(#paint1_linear_593_7597)"/>
<path d="M11.2274 31.9655H21.0638C22.1818 31.9655 23.254 32.4096 24.0445 33.2001C24.8351 33.9907 25.2792 35.0629 25.2792 36.1809C25.2792 37.2989 24.8351 38.3711 24.0445 39.1617C23.254 39.9522 22.1818 40.3963 21.0638 40.3963H11.2274V31.9655Z" fill="#0073BC"/>
<path d="M46.4352 35.6454C48.5248 35.6454 50.5673 36.265 52.3047 37.4259C54.0421 38.5867 55.3962 40.2367 56.1958 42.1672C56.9954 44.0976 57.2046 46.2218 56.797 48.2712C56.3894 50.3206 55.3832 52.203 53.9057 53.6805C52.4281 55.158 50.5457 56.1642 48.4963 56.5719C46.447 56.9795 44.3228 56.7703 42.3923 55.9707C40.4618 55.1711 38.8119 53.8169 37.651 52.0796C36.4901 50.3422 35.8705 48.2996 35.8705 46.2101C35.8705 43.4082 36.9836 40.721 38.9648 38.7397C40.9461 36.7585 43.6333 35.6454 46.4352 35.6454Z" fill="#F7B500"/>
<path fill-rule="evenodd" clip-rule="evenodd" d="M44.3494 47.259H48.5211C49.2267 47.2941 49.9088 47.5243 50.4913 47.9241C51.0738 48.3238 51.5339 48.8774 51.8205 49.5232C52.0082 49.8853 52.0761 50.2976 52.0145 50.7008C51.9529 51.104 51.765 51.4772 51.4777 51.7667C51.1959 52.0515 50.8595 52.2766 50.4888 52.4286C50.118 52.5805 49.7205 52.6562 49.3198 52.6511H43.5661C43.1655 52.6562 42.7679 52.5805 42.3972 52.4286C42.0264 52.2766 41.6901 52.0515 41.4083 51.7667C41.121 51.4772 40.933 51.104 40.8714 50.7008C40.8098 50.2976 40.8778 49.8853 41.0655 49.5232C41.3508 48.8796 41.8086 48.3276 42.3882 47.928C42.9677 47.5284 43.6465 47.2969 44.3494 47.259ZM44.3957 48.5034C43.9199 48.53 43.4608 48.6883 43.0698 48.9607C42.6788 49.2331 42.3711 49.6088 42.1812 50.0459L42.1658 50.0785C42.09 50.2145 42.0628 50.3723 42.0887 50.5259C42.1145 50.6795 42.1919 50.8197 42.3081 50.9234C42.4735 51.084 42.6691 51.2101 42.8835 51.2945C43.098 51.379 43.3271 51.42 43.5575 51.4153H49.3113C49.5417 51.42 49.7708 51.379 49.9852 51.2945C50.1997 51.2101 50.3953 51.084 50.5607 50.9234C50.6765 50.8198 50.7536 50.6799 50.7794 50.5267C50.8053 50.3735 50.7783 50.2161 50.703 50.0802L50.6876 50.0476C50.4977 49.6105 50.19 49.2348 49.799 48.9624C49.408 48.69 48.9489 48.5317 48.4731 48.5051L44.3957 48.5034ZM46.4353 41.0357C46.0661 41.0357 45.7052 41.1452 45.3983 41.3503C45.0913 41.5554 44.8521 41.8469 44.7109 42.1879C44.5696 42.529 44.5326 42.9043 44.6046 43.2663C44.6767 43.6284 44.8544 43.961 45.1155 44.222C45.3765 44.483 45.7091 44.6608 46.0711 44.7328C46.4332 44.8048 46.8085 44.7679 47.1495 44.6266C47.4906 44.4853 47.7821 44.2461 47.9872 43.9391C48.1923 43.6322 48.3017 43.2713 48.3017 42.9022C48.3017 42.4072 48.1051 41.9324 47.7551 41.5824C47.405 41.2324 46.9303 41.0357 46.4353 41.0357ZM43.3244 42.9022C43.3244 42.2869 43.5069 41.6855 43.8487 41.1739C44.1905 40.6623 44.6764 40.2636 45.2448 40.0282C45.8132 39.7927 46.4387 39.7311 47.0421 39.8512C47.6456 39.9712 48.1999 40.2675 48.6349 40.7025C49.07 41.1376 49.3663 41.6919 49.4863 42.2953C49.6063 42.8987 49.5447 43.5242 49.3093 44.0926C49.0738 44.6611 48.6751 45.1469 48.1635 45.4887C47.652 45.8306 47.0505 46.013 46.4353 46.013C45.6102 46.013 44.819 45.6852 44.2356 45.1019C43.6522 44.5185 43.3244 43.7272 43.3244 42.9022Z" fill="#0073BC" stroke="#0073BC" stroke-width="0.5"/>
<defs>
<linearGradient id="paint0_linear_593_7597" x1="7" y1="15.4855" x2="41.624" y2="20.0066" gradientUnits="userSpaceOnUse">
<stop stop-color="#7ED9FF"/>
<stop offset="0.531" stop-color="#00A1E4"/>
<stop offset="1" stop-color="#0073BC"/>
</linearGradient>
<linearGradient id="paint1_linear_593_7597" x1="7.00085" y1="29.0042" x2="50.4966" y2="31.6447" gradientUnits="userSpaceOnUse">
<stop stop-color="#7ED9FF"/>
<stop offset="0.531" stop-color="#00A1E4"/>
<stop offset="1" stop-color="#0073BC"/>
</linearGradient>
</defs>
</svg>
