<svg id="password_setting" xmlns="http://www.w3.org/2000/svg" xmlns:xlink="http://www.w3.org/1999/xlink" width="64" height="64" viewBox="0 0 64 64">
  <defs>
    <linearGradient id="linear-gradient" x2="1" y2="1" gradientUnits="objectBoundingBox">
      <stop offset="0" stop-color="#7ed9ff"/>
      <stop offset="0.531" stop-color="#00a1e4"/>
      <stop offset="1" stop-color="#0073bc"/>
    </linearGradient>
  </defs>
  <rect id="Rectangle_10973" data-name="Rectangle 10973" width="64" height="64" fill="none"/>
  <g id="Group_20506" data-name="Group 20506" transform="translate(-567 -725)">
    <g id="Group_18985" data-name="Group 18985" transform="translate(578 735)">
      <path id="Exclusion_6" data-name="Exclusion 6" d="M14.843,28.552H8a8.009,8.009,0,0,1-8-8V8A8.009,8.009,0,0,1,8,0h6.843a8.009,8.009,0,0,1,8,8V20.553A8.009,8.009,0,0,1,14.843,28.552ZM8.284,4.283a4,4,0,0,0-4,4V24.27H18.56V8.283a4,4,0,0,0-4-4Z" transform="translate(7.138 0)" stroke="rgba(0,0,0,0)" stroke-miterlimit="10" stroke-width="1" fill="url(#linear-gradient)"/>
      <rect id="Rectangle_6160" data-name="Rectangle 6160" width="37.119" height="25.698" rx="3" transform="translate(0 14.276)" stroke="rgba(0,0,0,0)" stroke-miterlimit="10" stroke-width="1" fill="url(#linear-gradient)"/>
      <rect id="Rectangle_6161" data-name="Rectangle 6161" width="28.553" height="17.132" rx="1" transform="translate(4.283 18.559)" fill="#fff"/>
      <circle id="Ellipse_1128" data-name="Ellipse 1128" cx="3" cy="3" r="3" transform="translate(15.559 24.708)" fill="#0073bc"/>
    </g>
    <g id="Group_18987" data-name="Group 18987" transform="translate(599.287 759)">
      <path id="Path_16429" data-name="Path 16429" d="M10,0A10,10,0,1,1,0,10,10,10,0,0,1,10,0Z" fill="#f7b500"/>
      <path id="Path_68201" data-name="Path 68201" d="M-7896.478-2275.175a5.252,5.252,0,0,1,5.24-5.246,5.183,5.183,0,0,1,2.756.773,5.2,5.2,0,0,1,1.072.883l-.24-1.858a1,1,0,0,1,.7-1.084,1.158,1.158,0,0,1,.167-.036,1,1,0,0,1,1.12.864l.525,4.059a1,1,0,0,1-.864,1.12l-4.059.525a1,1,0,0,1-1.12-.864,1,1,0,0,1,.864-1.12l1.489-.192a3.2,3.2,0,0,0-2.4-1.07h-.006a3.25,3.25,0,0,0-3.246,3.246,3.249,3.249,0,0,0,3.246,3.244c1.573,0,1.841-.289,2.428-.922.109-.117.233-.252.373-.392a1,1,0,0,1,1.415,0,1,1,0,0,1,0,1.415c-.113.113-.218.228-.321.339a4.473,4.473,0,0,1-1.372,1.106,5.724,5.724,0,0,1-2.522.454A5.25,5.25,0,0,1-7896.478-2275.175Z" transform="translate(7901.31 2285.751)" fill="#0073bc"/>
    </g>
  </g>
</svg>
