<svg id="rate" xmlns="http://www.w3.org/2000/svg" xmlns:xlink="http://www.w3.org/1999/xlink" width="64" height="64" viewBox="0 0 64 64">
  <defs>
    <linearGradient id="linear-gradient" x2="1" y2="1" gradientUnits="objectBoundingBox">
      <stop offset="0" stop-color="#7ed9ff"/>
      <stop offset="0.531" stop-color="#00a1e4"/>
      <stop offset="1" stop-color="#0073bc"/>
    </linearGradient>
  </defs>
  <rect id="Rectangle_10966" data-name="Rectangle 10966" width="64" height="64" fill="none"/>
  <g id="Group_20144" data-name="Group 20144" transform="translate(-43.729 -834.475)">
    <path id="Path_16411" data-name="Path 16411" d="M45.4,38.177H30.97a1.159,1.159,0,0,1-1.148-.726L23.3,15.668c-.178-.595.385-1.168,1.148-1.168H45.4c1.957,0,3.544,1.272,3.544,2.841V35.336C48.939,36.9,47.353,38.177,45.4,38.177Z" transform="translate(48.789 844.329)" fill="#f7b500"/>
    <g id="Group_18956" data-name="Group 18956" transform="translate(86.222 864.979)">
      <path id="Path_68193" data-name="Path 68193" d="M8189.713-519.794a4.685,4.685,0,0,1-1.38-1.968h-.966v-2.064h.547c-.012-.195-.019-.394-.019-.6,0-.135,0-.268.008-.4h-.536v-2.064h.9a4.492,4.492,0,0,1,1.451-2.1,5.729,5.729,0,0,1,4.478-.9l-.316,1.387-.141.623h0a3.679,3.679,0,0,0-2.742.509,2.191,2.191,0,0,0-.442.483h1.1v2.064h-1.687c-.007.129-.011.262-.011.4,0,.208.009.408.023.6h1.674v2.064h-.987a2.433,2.433,0,0,0,.37.387,3.809,3.809,0,0,0,2.742.642l.368,2.03a5.92,5.92,0,0,1-.928.068A5.458,5.458,0,0,1,8189.713-519.794Z" transform="translate(-8187.367 530.013)" fill="#0073bc"/>
    </g>
    <path id="Path_16412" data-name="Path 16412" d="M29.448,40.334l-2.731-8.868,6.57.393.965-.393Z" transform="translate(49.324 841.924)" fill="#0073bc"/>
    <g id="Group_18957" data-name="Group 18957" transform="translate(53.728 849.475)">
      <path id="Path_16409" data-name="Path 16409" d="M-110.214-18.85l-3.916-18.731a3.984,3.984,0,0,0-3.69-3.249h-16.859l-.118.011a5.559,5.559,0,0,0-5.132,5.756v15.417A5.559,5.559,0,0,0-134.8-13.89l.118.011H-113.9l.14-.011a4.065,4.065,0,0,0,.721-.14A4.021,4.021,0,0,0-110.214-18.85Zm-3.69,1.711a.753.753,0,0,1-.151.032h-20.506a2.317,2.317,0,0,1-2.141-2.464V-35.139a2.317,2.317,0,0,1,2.141-2.464h16.568a.746.746,0,0,1,.7.624l3.938,18.86A.8.8,0,0,1-113.9-17.139Z" transform="translate(139.934 40.83)" fill="url(#linear-gradient)"/>
      <path id="Path_16410" data-name="Path 16410" d="M-114.132-17.367a.754.754,0,0,1-.151.032h-20.506A2.317,2.317,0,0,1-136.93-19.8V-35.366a2.317,2.317,0,0,1,2.141-2.464h16.568a.746.746,0,0,1,.7.624l3.938,18.86A.8.8,0,0,1-114.132-17.367Z" transform="translate(140.162 41.058)" fill="#fff"/>
    </g>
    <g id="Group_18955" data-name="Group 18955" transform="translate(64.54 856.68)">
      <path id="Path_68192" data-name="Path 68192" d="M8205.127-510.78v-1.056a5.408,5.408,0,0,1-2.515-1.2l1.458-1.459,0-.006a3.86,3.86,0,0,0,2.061.719,1.7,1.7,0,0,0,1.235-.4.748.748,0,0,0,.25-.53.767.767,0,0,0-.5-.762,5.186,5.186,0,0,0-1.494-.527l-.49-.136a3.051,3.051,0,0,1-1.892-1.447,3.1,3.1,0,0,1-.275-2.334,3.039,3.039,0,0,1,2.167-2.157v-1.145h2.062v1.037a4.651,4.651,0,0,1,2.308,1.3l-1.529,1.382.007.009a2.35,2.35,0,0,0-1.646-.7c-1.069.065-1.271.456-1.388.855a1.024,1.024,0,0,0,.1.751.985.985,0,0,0,.635.464c.179.051.34.094.486.133a7.083,7.083,0,0,1,1.983.728,2.806,2.806,0,0,1,1.532,2.521v.023a2.8,2.8,0,0,1-.884,2.025,3.511,3.511,0,0,1-1.6.865v1.059Z" transform="translate(-8202.612 523.228)" fill="#0073bc"/>
    </g>
  </g>
</svg>
