<svg id="saving_interet" xmlns="http://www.w3.org/2000/svg" xmlns:xlink="http://www.w3.org/1999/xlink" width="64" height="64" viewBox="0 0 64 64">
  <defs>
    <linearGradient id="linear-gradient" x2="1" y2="1" gradientUnits="objectBoundingBox">
      <stop offset="0" stop-color="#7ed9ff"/>
      <stop offset="0.531" stop-color="#00a1e4"/>
      <stop offset="1" stop-color="#0073bc"/>
    </linearGradient>
  </defs>
  <rect id="Rectangle_10966" data-name="Rectangle 10966" width="64" height="64" fill="none"/>
  <g id="Group_20144" data-name="Group 20144" transform="translate(2 1.611)">
    <g id="Group_18922" data-name="Group 18922" transform="translate(8 14.714)">
      <path id="Path_16387" data-name="Path 16387" d="M0,7.371S4.486,3.926,1.843,0" transform="translate(40.428 6.509) rotate(25)" fill="none" stroke="#72501b" stroke-linecap="round" stroke-width="2"/>
      <path id="Path_16384" data-name="Path 16384" d="M351.381,57.576a2.5,2.5,0,0,1,.117.973l-2.193,1.114a2.04,2.04,0,0,1-.528-.6l-.106-.235-.188-1.3-1.267.328a34.473,34.473,0,0,1-9.44,1.138,20.648,20.648,0,0,1-5.993-.88l-1.313-.4-.176,1.278-.082.164a2.148,2.148,0,0,1-.633.563l-2.123-1.243a2.828,2.828,0,0,1,.246-1l.516-.938-.879-.61a10.048,10.048,0,0,1-3.6-4.445l-.293-.727h-2.416a6.691,6.691,0,0,1-.551-2.943,6.985,6.985,0,0,1,.563-2.932h2.345l.2-.926a9.049,9.049,0,0,1,5.793-6.6l.434-.164.211-.4c.622-1.208,1.56-3.764,1.56-3.764a10.677,10.677,0,0,1,2.662,2.521l.352.657,1.313-.07c2.029-.129,6.79-.446,10.5,1.009,4.28,1.689,7.071,4.128,7.67,6.708,1.266,5.2.4,9.182-2.592,11.868l-.6.539.293.762c.012.035.023.07.035.117Z" transform="translate(-316.847 -29.368)" fill="#fff"/>
      <path id="Path_16385" data-name="Path 16385" d="M329.492,137.047a2.34,2.34,0,0,1-1.19-.314l-2.744-1.6a3.1,3.1,0,0,1-1.114-3.425,13.462,13.462,0,0,1-3.19-3.989H320.3c-2.2,0-3.181-3.057-3.181-6.084,0-2.1.665-6.07,3.181-6.07h.513a12.35,12.35,0,0,1,6.821-7.335,22.107,22.107,0,0,0,1.148-2.924,2.641,2.641,0,0,1,1.127-1.954,2.354,2.354,0,0,1,2.145-.123,8.913,8.913,0,0,1,4.393,3.258c2.525-.158,7.5-.352,11.651,1.283,5.459,2.148,8.934,5.368,9.782,9.072,1.782,7.271-.311,11.754-2.734,14.381.322,1.341.243,3.338-1.261,4.1l-2.814,1.422a2.469,2.469,0,0,1-1.98.081,4.551,4.551,0,0,1-1.933-1.509,39.06,39.06,0,0,1-9.129.925,24.42,24.42,0,0,1-5.68-.664,4.879,4.879,0,0,1-2.05,1.346A2.851,2.851,0,0,1,329.492,137.047Zm19.938-3.553-.007,0Zm-21.458-1.632a1.723,1.723,0,0,0,1.769.971c.65-.156.514.4.831-1.6l1.462.484a20.4,20.4,0,0,0,5.931.88h.087a35.178,35.178,0,0,0,9.622-1.154l1.551-.362c.374,2.144.259,1.791.734,1.812a1.827,1.827,0,0,0,1.683-1.057c.206-.732-.729-1.606-.729-1.606l.934-.868c2.912-2.612,3.75-6.545,2.49-11.685-.571-2.486-3.328-4.853-7.57-6.523-3.705-1.458-8.534-1.141-10.6-1.005l-1.751.1-.545-1.021c-.447-.838-1.715-2.224-2-2.051s-.758,2.26-1.305,3.322l-.328.634-.67.244a8.755,8.755,0,0,0-5.606,6.4,1.207,1.207,0,0,1-.7,1.026c-.707.358-1.25-.137-1.877.571a2.727,2.727,0,0,0-.631,2.263,2.468,2.468,0,0,0,.713,2.143c.62.678,1.024.29,1.768.571a1.263,1.263,0,0,1,.85.853,9.847,9.847,0,0,0,3.511,4.344l1.057.69C327.859,131.721,327.778,131.275,327.972,131.862Z" transform="translate(-317.119 -103.03)" fill="url(#linear-gradient)"/>
      <path id="Path_16386" data-name="Path 16386" d="M0,.117A12.8,12.8,0,0,1,6.494.923" transform="translate(24.968 9.451) rotate(9)" fill="none" stroke="#0073bc" stroke-linecap="round" stroke-width="1.5"/>
      <path id="Path_16388" data-name="Path 16388" d="M-552.29-1237a2.154,2.154,0,0,1,1.635-1.109,2.164,2.164,0,0,1,1.638,1.109" transform="translate(563.821 1250.655)" fill="none" stroke="#0073bc" stroke-linecap="round" stroke-width="1.5"/>
    </g>
    <g id="Group_18946" data-name="Group 18946" transform="translate(32.667 12.389)">
      <path id="Path_16294" data-name="Path 16294" d="M9.667,0A9.667,9.667,0,1,1,0,9.667,9.667,9.667,0,0,1,9.667,0Z" fill="#f7b500"/>
      <path id="Path_68192" data-name="Path 68192" d="M7.011,7.565a1.038,1.038,0,0,1,0-1.465l1.13-1.13h-7.1a1.035,1.035,0,1,1,0-2.07H8.063L6.934,1.77A1.036,1.036,0,0,1,8.4.3l2.936,2.936a1.033,1.033,0,0,1,0,1.465L8.476,7.565a1.038,1.038,0,0,1-1.465,0Z" transform="translate(2.769 10.999) rotate(-45)" fill="#0073bc"/>
    </g>
  </g>
</svg>
