<svg id="saving" xmlns="http://www.w3.org/2000/svg" xmlns:xlink="http://www.w3.org/1999/xlink" width="64" height="64" viewBox="0 0 64 64">
  <defs>
    <linearGradient id="linear-gradient" x1="0.068" y1="0.085" x2="0.989" y2="1" gradientUnits="objectBoundingBox">
      <stop offset="0" stop-color="#7ed9ff"/>
      <stop offset="0.531" stop-color="#00a1e4"/>
      <stop offset="1" stop-color="#0073bc"/>
    </linearGradient>
  </defs>
  <rect id="Rectangle_10966" data-name="Rectangle 10966" width="64" height="64" fill="none"/>
  <g id="Group_20138" data-name="Group 20138" transform="translate(2)">
    <g id="Group_18922" data-name="Group 18922" transform="translate(8 15.234)">
      <path id="Path_16387" data-name="Path 16387" d="M0,7.568S4.606,4.031,1.892,0" transform="translate(41.509 6.683) rotate(25)" fill="none" stroke="#0073bc" stroke-linecap="round" stroke-width="1.2"/>
      <path id="Path_16384" data-name="Path 16384" d="M352.207,58.232a2.563,2.563,0,0,1,.12,1l-2.252,1.144a2.094,2.094,0,0,1-.542-.614l-.108-.241-.193-1.337-1.3.337a35.4,35.4,0,0,1-9.693,1.168,21.2,21.2,0,0,1-6.153-.9l-1.349-.409-.181,1.312-.084.169a2.206,2.206,0,0,1-.65.578l-2.179-1.276a2.9,2.9,0,0,1,.253-1.023l.53-.963-.9-.626a10.317,10.317,0,0,1-3.7-4.563l-.3-.747h-2.48a6.871,6.871,0,0,1-.566-3.022,7.172,7.172,0,0,1,.578-3.01h2.408l.2-.951a9.291,9.291,0,0,1,5.948-6.779l.445-.169.217-.409c.638-1.24,1.6-3.865,1.6-3.865a10.963,10.963,0,0,1,2.733,2.589l.361.674,1.349-.072c2.083-.132,6.971-.458,10.776,1.035,4.395,1.734,7.261,4.238,7.875,6.887,1.3,5.334.409,9.428-2.661,12.185l-.614.554.3.783c.012.036.024.072.036.12Z" transform="translate(-316.75 -29.27)" fill="#fff"/>
      <path id="Path_16385" data-name="Path 16385" d="M329.823,137.956a2.4,2.4,0,0,1-1.221-.323l-2.817-1.643a3.184,3.184,0,0,1-1.144-3.516,13.821,13.821,0,0,1-3.276-4.1h-.98c-2.256,0-3.266-3.139-3.266-6.247,0-2.156.683-6.232,3.266-6.232h.527a12.68,12.68,0,0,1,7-7.531,22.7,22.7,0,0,0,1.179-3,2.712,2.712,0,0,1,1.157-2.007,2.417,2.417,0,0,1,2.2-.126,9.151,9.151,0,0,1,4.511,3.345c2.593-.162,7.7-.361,11.962,1.317,5.605,2.2,9.173,5.512,10.044,9.315,1.83,7.465-.319,12.068-2.807,14.765.33,1.377.249,3.428-1.295,4.212l-2.889,1.46a2.535,2.535,0,0,1-2.033.084,4.673,4.673,0,0,1-1.984-1.549,40.1,40.1,0,0,1-9.373.95,25.074,25.074,0,0,1-5.832-.682,5.01,5.01,0,0,1-2.105,1.382A2.927,2.927,0,0,1,329.823,137.956Zm20.472-3.648-.008,0Zm-22.032-1.675a1.769,1.769,0,0,0,1.817,1c.667-.16.528.415.853-1.639l1.5.5a20.95,20.95,0,0,0,6.09.9h.09a36.119,36.119,0,0,0,9.879-1.185l1.592-.371c.384,2.2.266,1.839.753,1.861a1.876,1.876,0,0,0,1.728-1.086c.212-.751-.748-1.649-.748-1.649l.959-.891c2.99-2.682,3.85-6.72,2.556-12-.586-2.553-3.417-4.983-7.773-6.7-3.8-1.5-8.762-1.172-10.881-1.032l-1.8.1-.56-1.048c-.459-.86-1.761-2.283-2.049-2.106s-.778,2.32-1.34,3.411l-.336.651-.688.251a8.989,8.989,0,0,0-5.756,6.568,1.24,1.24,0,0,1-.718,1.054c-.726.368-1.283-.141-1.927.586a2.8,2.8,0,0,0-.648,2.324,2.534,2.534,0,0,0,.732,2.2c.637.7,1.051.3,1.815.586a1.3,1.3,0,0,1,.872.876,10.11,10.11,0,0,0,3.6,4.46l1.086.708C328.146,132.488,328.063,132.031,328.262,132.633Z" transform="translate(-317.119 -103.03)" fill="url(#linear-gradient)"/>
      <path id="Path_16386" data-name="Path 16386" d="M0,.12A13.142,13.142,0,0,1,6.668.947" transform="translate(25.635 9.704) rotate(9)" fill="none" stroke="#0073bc" stroke-linecap="round" stroke-width="1.2"/>
      <path id="Path_16388" data-name="Path 16388" d="M-552.29-1236.968a2.212,2.212,0,0,1,1.678-1.139,2.222,2.222,0,0,1,1.682,1.139" transform="translate(564.129 1250.991)" fill="none" stroke="#0073bc" stroke-linecap="round" stroke-width="1.2"/>
    </g>
    <circle id="Ellipse_1114" data-name="Ellipse 1114" cx="4.254" cy="4.254" r="4.254" transform="translate(39.193 11.294)" fill="#f7b500"/>
  </g>
</svg>
