<svg id="signup" xmlns="http://www.w3.org/2000/svg" xmlns:xlink="http://www.w3.org/1999/xlink" width="64" height="64" viewBox="0 0 64 64">
  <defs>
    <linearGradient id="linear-gradient" x2="1" y2="1" gradientUnits="objectBoundingBox">
      <stop offset="0" stop-color="#7ed9ff"/>
      <stop offset="0.531" stop-color="#00a1e4"/>
      <stop offset="1" stop-color="#0073bc"/>
    </linearGradient>
  </defs>
  <rect id="Rectangle_10966" data-name="Rectangle 10966" width="64" height="64" fill="none"/>
  <g id="Group_20142" data-name="Group 20142" transform="translate(-145 -701.831)">
    <path id="Path_68193" data-name="Path 68193" d="M2.07-.014,22.088-.144a2,2,0,0,1,2.056,1.989l-.131,19.4a2.07,2.07,0,0,1-2.083,2.016l-20.018.131A2,2,0,0,1-.145,21.4L-.014,2A2.07,2.07,0,0,1,2.07-.014Z" transform="translate(192.887 739.396) rotate(-169)" fill="#f7b500"/>
    <path id="Path_68194" data-name="Path 68194" d="M2.072.005l17.2.042a2.049,2.049,0,0,1,2.077,2.005l.035,14.011a2.025,2.025,0,0,1-2.067,2l-17.2-.042A2.049,2.049,0,0,1,.04,16.011L.005,2A2.025,2.025,0,0,1,2.072.005Z" transform="translate(184.377 735.479) rotate(176)" fill="#0073bc"/>
    <path id="Rectangle_6115" data-name="Rectangle 6115" d="M2,0H42a2,2,0,0,1,2,2V25.334a5,5,0,0,1-5,5H5a5,5,0,0,1-5-5V2A2,2,0,0,1,2,0Z" transform="translate(155 725.667)" fill="url(#linear-gradient)"/>
    <path id="Rectangle_6116" data-name="Rectangle 6116" d="M1,0H33.571a1,1,0,0,1,1,1V18.233a3,3,0,0,1-3,3H3a3,3,0,0,1-3-3V1A1,1,0,0,1,1,0Z" transform="translate(159.714 730.217)" fill="#fff"/>
    <g id="Group_18939" data-name="Group 18939" transform="translate(162.857 733.25)">
      <g id="Group_18303" data-name="Group 18303" transform="translate(0 0)">
        <path id="Path_15435" data-name="Path 15435" d="M-76.372-29.97c-.009,0-.921-.006-.921-.006v15.628c.011,0,.921,0,.921,0Z" transform="translate(84.69 30.014)" fill="#0073bc"/>
        <g id="Group_18300" data-name="Group 18300" transform="translate(0 0.096)">
          <path id="Path_15436" data-name="Path 15436" d="M-80.958-23.459A2.791,2.791,0,0,1-81-23.8a1.418,1.418,0,0,1,1.174-1.389c-2.032.074-2.11,1.463-2.095,1.722a7.857,7.857,0,0,0,7.3,6.415l.431.017h.431l.033,0v-1.617a.851.851,0,0,1-.927.657A6.911,6.911,0,0,1-80.958-23.459Z" transform="translate(82.045 32.653)" fill="#0073bc"/>
          <g id="Group_18299" data-name="Group 18299">
            <path id="Path_15437" data-name="Path 15437" d="M-75.119-29.939a7.857,7.857,0,0,0-6.875,7.5h0v0h0c0,.094-.006.189-.006.284a7.964,7.964,0,0,0,.132,1.432s-.061-1.716,2.247-1.716h4.5Z" transform="translate(82 29.939)" fill="#0073bc"/>
          </g>
        </g>
        <g id="Group_18302" data-name="Group 18302" transform="translate(7.397)">
          <path id="Path_15438" data-name="Path 15438" d="M-70.063-23.576a2.745,2.745,0,0,1,.041.341A1.418,1.418,0,0,1-71.2-21.846c2.032-.074,2.11-1.463,2.095-1.722a7.856,7.856,0,0,0-7.3-6.415L-76.829-30h-.431l-.033,0v1.617a.853.853,0,0,1,.927-.658A6.915,6.915,0,0,1-70.063-23.576Z" transform="translate(77.293 30)" fill="#0073bc"/>
          <g id="Group_18301" data-name="Group 18301" transform="translate(1.436 6.396)">
            <path id="Path_15439" data-name="Path 15439" d="M-76.379-16.707a7.857,7.857,0,0,0,6.875-7.5h0v0h0c0-.094.006-.189.006-.284a7.969,7.969,0,0,0-.132-1.432s.061,1.716-2.247,1.716h-4.5Z" transform="translate(76.379 25.93)" fill="#0073bc"/>
          </g>
        </g>
      </g>
    </g>
    <path id="Path_68192" data-name="Path 68192" d="M8370.876,207.787a1.138,1.138,0,1,1,0-2.276h4.611a1.138,1.138,0,1,1,0,2.276Zm-3.7-3.512a1.138,1.138,0,1,1,0-2.276h8.309a1.138,1.138,0,1,1,0,2.276Z" transform="translate(-8185.682 531.247)" fill="#f7b500"/>
  </g>
</svg>
