<svg id="topup" xmlns="http://www.w3.org/2000/svg" xmlns:xlink="http://www.w3.org/1999/xlink" width="64" height="64" viewBox="0 0 64 64">
  <defs>
    <linearGradient id="linear-gradient" x2="1" y2="1" gradientUnits="objectBoundingBox">
      <stop offset="0" stop-color="#7ed9ff"/>
      <stop offset="0.531" stop-color="#00a1e4"/>
      <stop offset="1" stop-color="#0073bc"/>
    </linearGradient>
  </defs>
  <rect id="Rectangle_10966" data-name="Rectangle 10966" width="64" height="64" fill="none"/>
  <g id="Group_20140" data-name="Group 20140" transform="translate(-157 -19)">
    <g id="Group_18928" data-name="Group 18928" transform="translate(170 29)">
      <rect id="Rectangle_5944" data-name="Rectangle 5944" width="29.857" height="44" rx="2" transform="translate(0 0)" fill="url(#linear-gradient)"/>
      <rect id="Rectangle_6073" data-name="Rectangle 6073" width="20.429" height="34.571" rx="1" transform="translate(4.714 4.714)" fill="#fff"/>
    </g>
    <circle id="Ellipse_1117" data-name="Ellipse 1117" cx="2.357" cy="2.357" r="2.357" transform="translate(182.571 60.429)" fill="#005d98"/>
    <g id="Group_18979" data-name="Group 18979" transform="translate(187.286 40)">
      <path id="Path_16389" data-name="Path 16389" d="M11,0A11,11,0,1,1,0,11,11,11,0,0,1,11,0Z" transform="translate(0 0)" fill="#f7b500"/>
      <g id="Group_18541" data-name="Group 18541" transform="translate(7.14 3.24)">
        <path id="Path_68192" data-name="Path 68192" d="M8187.311-504.757v-1.351a5.87,5.87,0,0,1-2.811-1.28.882.882,0,0,1,0-1.245.881.881,0,0,1,1.245,0,4.416,4.416,0,0,0,2.4.849,2.1,2.1,0,0,0,1.52-.508,1.024,1.024,0,0,0,.346-.753,1.069,1.069,0,0,0-.662-1.039,5.919,5.919,0,0,0-1.685-.6l-.534-.145a3.045,3.045,0,0,1-1.909-1.462,3.126,3.126,0,0,1-.28-2.354,3.058,3.058,0,0,1,2.369-2.231v-1.43a.879.879,0,0,1,.881-.879.879.879,0,0,1,.879.879v1.33a4.744,4.744,0,0,1,2.573,1.377l-1.306,1.18a2.787,2.787,0,0,0-1.976-.838c-1.323.081-1.587.613-1.729,1.105a1.351,1.351,0,0,0,.126,1,1.315,1.315,0,0,0,.838.622l.53.143a7.542,7.542,0,0,1,2.1.771,2.823,2.823,0,0,1,1.545,2.537v.018a2.808,2.808,0,0,1-.887,2.032,3.633,3.633,0,0,1-1.815.92v1.345a.88.88,0,0,1-.879.879A.88.88,0,0,1,8187.311-504.757Zm3.027-9.659h0l0,0Z" transform="translate(-8184.244 519.181)" fill="#0073bc"/>
      </g>
    </g>
  </g>
</svg>
