<svg xmlns="http://www.w3.org/2000/svg" xmlns:xlink="http://www.w3.org/1999/xlink" width="48" height="48" viewBox="0 0 48 48">
  <defs>
    <linearGradient id="linear-gradient" x1="0.108" y1="0.093" x2="0.867" y2="0.874" gradientUnits="objectBoundingBox">
      <stop offset="0" stop-color="#7ed9ff"/>
      <stop offset="0.531" stop-color="#00a1e4"/>
      <stop offset="1" stop-color="#0073bc"/>
    </linearGradient>
  </defs>
  <g id="transfer_ic05" transform="translate(-11.292 20.489)">
    <circle id="Ellipse_1088" data-name="Ellipse 1088" cx="24" cy="24" r="24" transform="translate(11.292 -20.489)" fill="none"/>
    <g id="Icon_Transfer_To_Stock_-36pt" data-name="Icon / Transfer / To Stock -36pt" transform="translate(11.292 -20.489)">
      <rect id="Rectangle_6166" data-name="Rectangle 6166" width="48" height="48" fill="none"/>
      <g id="Group_19060" data-name="Group 19060" transform="translate(5.333 9.333)">
        <rect id="Rectangle_6248" data-name="Rectangle 6248" width="33.853" height="25.682" rx="2" fill="url(#linear-gradient)"/>
        <path id="Path_16488" data-name="Path 16488" d="M1.167,0H25.682a1.167,1.167,0,0,1,1.167,1.167V17.51a1.167,1.167,0,0,1-1.167,1.167H1.167A1.167,1.167,0,0,1,0,17.51V1.167A1.167,1.167,0,0,1,1.167,0Z" transform="translate(3.502 3.502)" fill="#fff"/>
        <path id="Union_39" data-name="Union 39" d="M16.345,11.8v-1.73H0L4.669,3.065H16.345V1.335a1.333,1.333,0,0,1,2.211-1l5.978,5.232a1.334,1.334,0,0,1,0,2.008L18.556,12.8a1.312,1.312,0,0,1-.871.333A1.333,1.333,0,0,1,16.345,11.8Z" transform="translate(12.257 15.611)" fill="#f7b500"/>
        <path id="Path_10445" data-name="Path 10445" d="M13.436,26.515l1.814-1.95a2.574,2.574,0,0,1,3.96-.121l.514.526a3.094,3.094,0,0,0,4.823-.066l2.324-2.791M23.214,21l3.541-.3A1.352,1.352,0,0,1,28.1,22.051a1.127,1.127,0,0,1-.006.122l-.152,1.648-.071.776-.1,1.049" transform="translate(-4.146 -11.361)" fill="none" stroke="#0073bc" stroke-linecap="square" stroke-width="1.5"/>
      </g>
    </g>
  </g>
</svg>
