<svg xmlns="http://www.w3.org/2000/svg" xmlns:xlink="http://www.w3.org/1999/xlink" width="64" height="64" viewBox="0 0 64 64"><defs><linearGradient id="a" y1="0.453" x2="1" y2="0.448" gradientUnits="objectBoundingBox"><stop offset="0" stop-color="#7ed9ff"/><stop offset="0.531" stop-color="#00a1e4"/><stop offset="1" stop-color="#0073bc"/></linearGradient></defs><rect width="64" height="64" rx="20" fill="none"/><g transform="translate(-200 -994.172)"><path d="M16.221,46.345h13.9c11.586,0,16.221-4.634,16.221-16.221v-13.9C46.345,4.634,41.71,0,30.124,0h-13.9C4.634,0,0,4.634,0,16.221v13.9C0,41.71,4.634,46.345,16.221,46.345Z" transform="translate(208 1003)" fill="url(#a)"/><path d="M12.96,37.027H24.068c9.257,0,12.96-3.7,12.96-12.96V12.96C37.027,3.7,33.325,0,24.068,0H12.96C3.7,0,0,3.7,0,12.96V24.068C0,33.325,3.7,37.027,12.96,37.027Z" transform="translate(212.659 1007.659)" fill="#fff"/><path d="M0,0H46.345V46.345H0Z" transform="translate(208 1003)" fill="none" opacity="0"/><g transform="translate(215.737 1011.057)"><path d="M3.848,18.645V17.4A7.627,7.627,0,0,1,.48,15.742a1.676,1.676,0,0,1,0-2.348,1.662,1.662,0,0,1,2.329-.012,5.049,5.049,0,0,0,2.659.914H5.5a.8.8,0,0,1,.1,0,2.01,2.01,0,0,0,1.379-.488.74.74,0,0,0,.262-.535c-.01-.406-.087-.562-.555-.836A6.793,6.793,0,0,0,4.7,11.75c-.2-.059-.427-.113-.68-.184A4.42,4.42,0,0,1,1.3,9.473,4.477,4.477,0,0,1,.9,6.094a4.38,4.38,0,0,1,2.95-3.059V1.66a1.655,1.655,0,1,1,3.311,0V2.871A6.516,6.516,0,0,1,10.243,4.68L7.788,6.9A2.938,2.938,0,0,0,5.75,6.035c-1.406.09-1.552.586-1.678.984a1.142,1.142,0,0,0,.116.832,1.1,1.1,0,0,0,.718.523c.242.07.456.129.659.176A10.039,10.039,0,0,1,8.331,9.57a4.066,4.066,0,0,1,2.213,3.648v.039A4.033,4.033,0,0,1,9.263,16.2a4.979,4.979,0,0,1-2.1,1.2v1.25a1.655,1.655,0,1,1-3.311,0ZM7.788,6.9h0l.01.008Z" fill="#0073bc"/></g><g transform="translate(226.207 1026.173)"><rect width="29.793" height="16.552" rx="3" fill="#f9c734"/><path d="M20.517,2.31H.655A1.655,1.655,0,0,1,.655-1H20.517a1.655,1.655,0,0,1,0,3.31Z" transform="translate(4.31 7.621)" fill="#0073bc"/><circle cx="3.31" cy="3.31" r="3.31" transform="translate(14.897 4.965)" fill="#fff"/><path d="M3.966-1A4.966,4.966,0,1,1-1,3.966,4.971,4.971,0,0,1,3.966-1Zm0,6.621A1.655,1.655,0,1,0,2.31,3.966,1.657,1.657,0,0,0,3.966,5.621Z" transform="translate(14.241 4.31)" fill="#0073bc"/></g></g></svg>