<svg xmlns="http://www.w3.org/2000/svg" xmlns:xlink="http://www.w3.org/1999/xlink" width="48" height="48" viewBox="0 0 48 48"><defs><linearGradient id="a" y1="0.453" x2="1" y2="0.448" gradientUnits="objectBoundingBox"><stop offset="0" stop-color="#7ed9ff"/><stop offset="0.531" stop-color="#00a1e4"/><stop offset="1" stop-color="#0073bc"/></linearGradient></defs><rect width="48" height="48" rx="24" fill="rgba(255,255,255,0.12)"/><g transform="translate(-81.732 -2515.5)"><g transform="translate(80.467 2514)"><path d="M21,0H7A6.989,6.989,0,0,0,0,6.975v9.777a6.989,6.989,0,0,0,7,6.975H9.1a1.609,1.609,0,0,1,1.12.56l2.1,2.787a1.989,1.989,0,0,0,3.36,0l2.1-2.787a1.419,1.419,0,0,1,1.12-.56H21a6.989,6.989,0,0,0,7-6.975V6.975A6.989,6.989,0,0,0,21,0Z" transform="translate(10 11)" fill="url(#a)"/><path d="M16.44,0H5.48A5.472,5.472,0,0,0,0,5.461v7.654a5.472,5.472,0,0,0,5.48,5.461H16.44a5.472,5.472,0,0,0,5.48-5.461V5.461A5.472,5.472,0,0,0,16.44,0Z" transform="translate(13.039 13.576)" fill="#fff" stroke="rgba(0,0,0,0)" stroke-miterlimit="10" stroke-width="1"/><path d="M-10635.74,1718.023a10.483,10.483,0,0,1-6-2.987,10.454,10.454,0,0,1-2.989-5.995.942.942,0,0,1,.7-1.047l1.771-.462a.928.928,0,0,1,.24-.032.95.95,0,0,1,.863.561l.93,2.1a.945.945,0,0,1-.272,1.119l-.853.681a8.394,8.394,0,0,0,2.683,2.68l.681-.85a.935.935,0,0,1,.737-.355.917.917,0,0,1,.383.083l2.1.93a.937.937,0,0,1,.531,1.1l-.462,1.776a.946.946,0,0,1-.914.711A1.155,1.155,0,0,1-10635.74,1718.023Z" transform="translate(10663.878 -1689.776)" fill="#0073bc"/></g><path d="M-3725-1.032a8.856,8.856,0,0,1,4.5-7.453l-1.041-2.967a.563.563,0,0,1,.577-.548h6.923a.563.563,0,0,1,.577.548l-1.04,2.967a8.856,8.856,0,0,1,4.5,7.453c0,3.937-3.358,6.032-7.5,6.032S-3725,2.905-3725-1.032Z" transform="translate(3830.999 2549)" fill="#f7b500"/><path d="M10813.681,25456.871v-.707a3.836,3.836,0,0,1-1.731-.834.752.752,0,0,1,1.061-1.066,2.6,2.6,0,0,0,1.405.486,1.1,1.1,0,0,0,.824-.27.454.454,0,0,0,.16-.338c0-.25-.07-.357-.326-.5a3.364,3.364,0,0,0-1.022-.359c-.1-.031-.217-.062-.345-.1a2.139,2.139,0,0,1-1.521-2.664,2.144,2.144,0,0,1,1.5-1.512v-.762a.75.75,0,1,1,1.5,0v.682a3.2,3.2,0,0,1,1.591.908l-1.111,1.01a1.582,1.582,0,0,0-1.105-.473c-.779.045-.869.357-.933.568a.673.673,0,0,0,.063.492.648.648,0,0,0,.416.3c.128.037.236.064.338.1a4.947,4.947,0,0,1,1.387.512,1.955,1.955,0,0,1,1.073,1.77v.02a1.973,1.973,0,0,1-.619,1.43,2.481,2.481,0,0,1-1.1.6v.7a.751.751,0,0,1-1.5,0Z" transform="translate(-10700.85 -22905.629)" fill="#0073bc"/></g></svg>