<svg xmlns="http://www.w3.org/2000/svg" xmlns:xlink="http://www.w3.org/1999/xlink" width="48" height="48" viewBox="0 0 48 48"><defs><linearGradient id="a" y1="0.453" x2="1" y2="0.448" gradientUnits="objectBoundingBox"><stop offset="0" stop-color="#7ed9ff"/><stop offset="0.531" stop-color="#00a1e4"/><stop offset="1" stop-color="#0073bc"/></linearGradient></defs><rect width="48" height="48" rx="24" fill="rgba(255,255,255,0.12)"/><g transform="translate(-0.637 1)"><path d="M10808.335,22936.818v-3.879a1.94,1.94,0,1,1,3.881,0v3.879a1.94,1.94,0,1,1-3.881,0Zm-9.7,0v-3.879a1.94,1.94,0,1,1,3.88,0v3.879a1.94,1.94,0,1,1-3.88,0Z" transform="translate(-10781.849 -22924)" fill="#fff"/><path d="M9.5,27.152h8.145c6.788,0,9.5-2.715,9.5-9.5V9.5c0-6.788-2.715-9.5-9.5-9.5H9.5C2.715,0,0,2.715,0,9.5v8.145C0,24.436,2.715,27.152,9.5,27.152Z" transform="translate(10 9.909)" fill="url(#a)"/><path d="M14.1,21.693H7.592c-2.775,0-4.627-.56-5.83-1.763S0,16.875,0,14.1V7.937H21.693V14.1c0,2.775-.56,4.627-1.762,5.83S16.875,21.693,14.1,21.693ZM21.62,6H.072a6.3,6.3,0,0,1,2.1-4.6C3.359.459,5.133,0,7.592,0H14.1c2.46,0,4.234.459,5.425,1.4A6.3,6.3,0,0,1,21.62,6Z" transform="translate(12.729 12.639)" fill="#fff" stroke="rgba(0,0,0,0)" stroke-miterlimit="10" stroke-width="1"/><path d="M10804.485,22933.91a1,1,0,0,1-1-1v-.91a1,1,0,0,1,1-1h.909a1,1,0,0,1,1,1v.91a1,1,0,0,1-1,1Zm-4.847,0a1,1,0,0,1-1-1v-.91a1,1,0,0,1,1-1h.909a1,1,0,0,1,1,1v.91a1,1,0,0,1-1,1Z" transform="translate(-10783.787 -22908.484)" fill="#f7b500"/><path d="M10809.336,22938.758a1,1,0,0,1-1-1v-.91a1,1,0,0,1,1-1h.909a1,1,0,0,1,1,1v.91a1,1,0,0,1-1,1Zm-4.853,0a1,1,0,0,1-1-1v-.91a.993.993,0,0,1,1-1h.909a1,1,0,0,1,1,1v.91a1,1,0,0,1-1,1Zm-4.848,0a1,1,0,0,1-1-1v-.91a1,1,0,0,1,1-1h.909a1,1,0,0,1,1,1v.91a1,1,0,0,1-1,1Zm14.548-4.848a1,1,0,0,1-1-1v-.91a1,1,0,0,1,1-1h.909a1,1,0,0,1,1,1v.91a1,1,0,0,1-1,1Zm-4.848,0a1,1,0,0,1-1-1v-.91a1,1,0,0,1,1-1h.909a1,1,0,0,1,1,1v.91a1,1,0,0,1-1,1Z" transform="translate(-10783.787 -22908.484)" fill="#0073bc"/><path d="M6.788,0A6.788,6.788,0,1,1,0,6.788,6.788,6.788,0,0,1,6.788,0Z" transform="translate(25.516 25.424)" fill="#f7b500"/><path d="M10770.063,22912.139v-.66a3.741,3.741,0,0,1-1.674-.812.751.751,0,0,1,1.059-1.064,2.586,2.586,0,0,0,1.345.467h.056a1.064,1.064,0,0,0,.732-.26.421.421,0,0,0,.149-.311c-.006-.234-.068-.328-.3-.465a3.542,3.542,0,0,0-.989-.346c-.1-.029-.207-.057-.333-.092a2.112,2.112,0,0,1-1.3-1,2.135,2.135,0,0,1-.2-1.611,2.1,2.1,0,0,1,1.455-1.473v-.729a.75.75,0,0,1,1.5,0v.648a3.138,3.138,0,0,1,1.536.881l-1.116,1.006a1.51,1.51,0,0,0-1.052-.449c-.736.047-.822.328-.88.535a.625.625,0,0,0,.058.461.584.584,0,0,0,.391.281c.121.035.23.063.328.092a4.719,4.719,0,0,1,1.346.494,1.942,1.942,0,0,1,1.058,1.742v.018a1.936,1.936,0,0,1-.609,1.4,2.389,2.389,0,0,1-1.059.586v.662a.75.75,0,1,1-1.5,0Zm1.92-5.82h0l.006.006Z" transform="translate(-10738.457 -22875.816)" fill="#0073bc"/></g></svg>