<svg xmlns="http://www.w3.org/2000/svg" xmlns:xlink="http://www.w3.org/1999/xlink" width="48" height="48" viewBox="0 0 48 48"><defs><linearGradient id="a" y1="0.453" x2="1" y2="0.448" gradientUnits="objectBoundingBox"><stop offset="0" stop-color="#7ed9ff"/><stop offset="0.531" stop-color="#00a1e4"/><stop offset="1" stop-color="#0073bc"/></linearGradient></defs><g transform="translate(-478 -788)"><rect width="48" height="48" rx="24" transform="translate(478 788)" fill="rgba(255,255,255,0.12)"/><g transform="translate(487 797)"><rect width="23.932" height="23.932" rx="2" transform="translate(3.682 3.682)" fill="url(#a)"/><rect width="18.409" height="18.409" rx="1" transform="translate(6.262 6.394)" fill="#fff7e5"/><g transform="translate(0)"><path d="M6.443,0a6.443,6.443,0,1,0,6.443,6.443A6.443,6.443,0,0,0,6.443,0Z" fill="#f7b500"/><path d="M9264.326,23559.75v-.488a3.252,3.252,0,0,1-1.407-.707.75.75,0,0,1,1.052-1.07,2.028,2.028,0,0,0,1.088.373h.053a.838.838,0,0,0,.551-.189.255.255,0,0,0,.095-.189c-.006-.154-.029-.207-.207-.312a3,3,0,0,0-.828-.285l-.283-.076a1.954,1.954,0,0,1-1.188-.91,1.986,1.986,0,0,1-.172-1.467,1.9,1.9,0,0,1,1.248-1.316v-.547a.748.748,0,1,1,1.5,0v.475a2.842,2.842,0,0,1,1.295.773l-1.117,1,.006.012a1.156,1.156,0,0,0-.822-.361c-.562.035-.62.23-.662.385a.406.406,0,0,0,.042.313.412.412,0,0,0,.271.2c.1.029.2.055.278.078a4.062,4.062,0,0,1,1.183.438,1.759,1.759,0,0,1,.964,1.584v.012a1.764,1.764,0,0,1-.562,1.283,2.149,2.149,0,0,1-.876.5v.5a.748.748,0,1,1-1.5,0Z" transform="translate(-9258.535 -23549.715)" fill="#0073bc"/></g><path d="M12.886,9.814V8.336H0L3.682,2.813h9.2V1.335A1,1,0,0,1,14.545.582l4.846,4.239a1,1,0,0,1,0,1.506l-4.846,4.239a.982.982,0,0,1-.653.25A1,1,0,0,1,12.886,9.814Z" transform="translate(10.125 19.278)" fill="#f7b500"/><path d="M7.821,13.643a5.821,5.821,0,1,1,5.821-5.821A5.821,5.821,0,0,1,7.821,13.643Zm3.7-3.521v-.061c0-.537,0-.782-.38-1q-.183-.1-.375-.189a1.069,1.069,0,0,1-.546-.44l-.068-.1a.745.745,0,0,0-.9-.438c-1.086.172-1.166.363-1.214.686l-.008.053c-.07.472-.083.63.114.837a7.163,7.163,0,0,1,1.312,1.656,1.941,1.941,0,0,1,.118,1.117,4.765,4.765,0,0,0,1.834-1.3,2.887,2.887,0,0,0,.111-.817Zm-3.7-7.055A4.742,4.742,0,0,0,4.389,4.532a.735.735,0,0,1,.254.311,1.854,1.854,0,0,1,.119.783,1.268,1.268,0,0,0,.061.5c.084.179.446.256.766.323.115.024.232.049.339.079a1.6,1.6,0,0,1,.7.559,1.623,1.623,0,0,0,.244.25.592.592,0,0,0,.169-.29.341.341,0,0,0-.026-.3,1.7,1.7,0,0,1-.207-1.4c.158-.43.653-.4,1.015-.375a2.08,2.08,0,0,0,.357.005c.362-.045.474-.6.552-.7a5.175,5.175,0,0,1,1.013-.8A4.737,4.737,0,0,0,7.821,3.067Z" transform="translate(7.878 8.009)" fill="#0073bc"/></g></g></svg>