<svg id="transaction" xmlns="http://www.w3.org/2000/svg" xmlns:xlink="http://www.w3.org/1999/xlink" width="64" height="64" viewBox="0 0 64 64">
  <defs>
    <linearGradient id="linear-gradient" x2="1" y2="1" gradientUnits="objectBoundingBox">
      <stop offset="0" stop-color="#7ed9ff"/>
      <stop offset="0.531" stop-color="#00a1e4"/>
      <stop offset="1" stop-color="#0073bc"/>
    </linearGradient>
  </defs>
  <rect id="Rectangle_10966" data-name="Rectangle 10966" width="64" height="64" fill="none"/>
  <g id="Group_20142" data-name="Group 20142" transform="translate(-143 -689.001)">
    <rect id="Rectangle_6102" data-name="Rectangle 6102" width="41.067" height="32.267" rx="2" transform="translate(153 705.4)" fill="url(#linear-gradient)"/>
    <rect id="Rectangle_6103" data-name="Rectangle 6103" width="32.267" height="23.467" rx="1" transform="translate(157.4 709.8)" fill="#fff"/>
    <path id="Path_68194" data-name="Path 68194" d="M8392.777,199.345v-3.357a1.988,1.988,0,0,1,3.977,0v3.357a1.988,1.988,0,1,1-3.977,0Zm-8.983,0v-3.357a1.988,1.988,0,0,1,3.977,0v3.357a1.988,1.988,0,1,1-3.977,0Zm-8.981,0v-3.357a1.988,1.988,0,0,1,3.977,0v3.357a1.988,1.988,0,1,1-3.977,0Zm-8.812,0v-3.357a1.988,1.988,0,0,1,3.977,0v3.357a1.988,1.988,0,1,1-3.977,0Z" transform="translate(-8207.844 507)" fill="#0073bc"/>
    <path id="Path_68193" data-name="Path 68193" d="M8367,211.6a1,1,0,0,1-1-1v-2.4a1,1,0,0,1,1-1h2.4a1,1,0,0,1,1,1v2.4a1,1,0,0,1-1,1Zm7.331-6.6a1,1,0,0,1-1-1v-2.4a1,1,0,0,1,1-1h2.4a1,1,0,0,1,1,1V204a1,1,0,0,1-1,1ZM8367,205a1,1,0,0,1-1-1v-2.4a1,1,0,0,1,1-1h2.4a1,1,0,0,1,1,1V204a1,1,0,0,1-1,1Zm14.665-6.6a1,1,0,0,1-1-1V195a1,1,0,0,1,1-1h2.4a1,1,0,0,1,1,1v2.4a1,1,0,0,1-1,1Zm-7.334,0a1,1,0,0,1-1-1V195a1,1,0,0,1,1-1h2.4a1,1,0,0,1,1,1v2.4a1,1,0,0,1-1,1Zm-7.331,0a1,1,0,0,1-1-1V195a1,1,0,0,1,1-1h2.4a1,1,0,0,1,1,1v2.4a1,1,0,0,1-1,1Z" transform="translate(-8205.666 518.733)" fill="#0073bc"/>
    <g id="Group_19048" data-name="Group 19048" transform="translate(176.467 720.067)">
      <path id="Path_16391" data-name="Path 16391" d="M10.267,0A10.267,10.267,0,1,1,0,10.267,10.267,10.267,0,0,1,10.267,0Z" transform="translate(-0.467 -0.067)" fill="#f7b500"/>
      <path id="Path_68192" data-name="Path 68192" d="M8185.325-515.27v-2.113a5.469,5.469,0,0,1-2.569-1.217l-.707-.707,1.414-1.414.705.705a3.987,3.987,0,0,0,2.123.742,1.781,1.781,0,0,0,1.289-.423.8.8,0,0,0,.267-.573.829.829,0,0,0-.528-.816,5.326,5.326,0,0,0-1.529-.541c-.15-.039-.316-.084-.5-.136a3.011,3.011,0,0,1-1.889-1.449,3.1,3.1,0,0,1-.278-2.333,3,3,0,0,1,2.2-2.172v-2.2h2v2.093a4.657,4.657,0,0,1,2.355,1.313l-1.484,1.34.006.006a2.439,2.439,0,0,0-1.706-.728c-1.12.068-1.332.483-1.455.9a1.093,1.093,0,0,0,.1.8,1.055,1.055,0,0,0,.672.5c.183.049.347.093.5.134a7.127,7.127,0,0,1,2,.736,2.8,2.8,0,0,1,1.531,2.52v.021a2.793,2.793,0,0,1-.882,2.025,3.555,3.555,0,0,1-1.64.874v2.112Z" transform="translate(-8176.515 532.846)" fill="#0073bc"/>
    </g>
  </g>
</svg>
