<svg xmlns="http://www.w3.org/2000/svg" xmlns:xlink="http://www.w3.org/1999/xlink" width="48" height="48" viewBox="0 0 48 48">
  <defs>
    <linearGradient id="linear-gradient" x1="0.108" y1="0.093" x2="0.867" y2="0.874" gradientUnits="objectBoundingBox">
      <stop offset="0" stop-color="#7ed9ff"/>
      <stop offset="0.531" stop-color="#00a1e4"/>
      <stop offset="1" stop-color="#0073bc"/>
    </linearGradient>
  </defs>
  <g id="transfer_ic01" transform="translate(-11.292 20.489)">
    <g id="icon_64px_home_transfer" data-name="icon 64px / home / transfer" transform="translate(11.292 -20.489)">
      <rect id="Rectangle_6166" data-name="Rectangle 6166" width="48" height="48" fill="none"/>
      <g id="Group_18918" data-name="Group 18918" transform="translate(7.5 5.25)">
        <path id="Union_35" data-name="Union 35" d="M21.6,10.788l-.281-2.007a60.91,60.91,0,0,1-10.5-.09C1.345,7.986,0,.89,0,.89S2,3.76,9.524,4.345a40.7,40.7,0,0,0,11.059-.767l-.309-2.2a1.2,1.2,0,0,1,1.9-1.142l5.485,4.03a1.2,1.2,0,0,1,.256,1.682l-.017.023-4.161,5.384a1.2,1.2,0,0,1-2.143-.568Z" transform="translate(28.151 11.818) rotate(180)" fill="#0073bc"/>
        <g id="Group_18920" data-name="Group 18920" transform="translate(2.028 4.25)">
          <circle id="Ellipse_1105" data-name="Ellipse 1105" cx="14.428" cy="14.428" r="14.428" fill="url(#linear-gradient)"/>
          <circle id="Ellipse_1111" data-name="Ellipse 1111" cx="10.821" cy="10.821" r="10.821" transform="translate(3.607 3.607)" fill="#fff"/>
          <g id="Group_18803" data-name="Group 18803" transform="translate(7.815 7.815)">
            <g id="Group_18303" data-name="Group 18303" transform="translate(0 0)">
              <path id="Path_15435" data-name="Path 15435" d="M-76.518-29.971c-.008,0-.775-.005-.775-.005v13.153c.009,0,.775,0,.775,0Z" transform="translate(83.518 30.008)" fill="#00a1e4" stroke="rgba(0,0,0,0)" stroke-width="1"/>
              <g id="Group_18300" data-name="Group 18300" transform="translate(0 0.081)">
                <path id="Path_15436" data-name="Path 15436" d="M-81.11-23.733a2.35,2.35,0,0,1-.034-.287,1.194,1.194,0,0,1,.988-1.169c-1.71.062-1.776,1.231-1.763,1.45a6.612,6.612,0,0,0,6.142,5.4l.362.015h.362l.028,0V-19.69a.717.717,0,0,1-.78.553A5.817,5.817,0,0,1-81.11-23.733Z" transform="translate(82.026 31.471)" fill="#00a1e4" stroke="rgba(0,0,0,0)" stroke-width="1"/>
                <g id="Group_18299" data-name="Group 18299">
                  <path id="Path_15437" data-name="Path 15437" d="M-76.208-29.939a6.613,6.613,0,0,0-5.786,6.314h0v0h0c0,.079-.005.159-.005.239a6.7,6.7,0,0,0,.111,1.2S-81.94-23.621-80-23.621h3.789Z" transform="translate(82 29.939)" fill="#00a1e4" stroke="rgba(0,0,0,0)" stroke-width="1"/>
                </g>
              </g>
              <g id="Group_18302" data-name="Group 18302" transform="translate(6.225)">
                <path id="Path_15438" data-name="Path 15438" d="M-71.208-24.593a2.311,2.311,0,0,1,.034.287,1.194,1.194,0,0,1-.988,1.169c1.71-.062,1.776-1.231,1.763-1.45a6.612,6.612,0,0,0-6.142-5.4L-76.9-30h-.362l-.028,0v1.361a.718.718,0,0,1,.78-.554A5.82,5.82,0,0,1-71.208-24.593Z" transform="translate(77.293 30)" fill="#00a1e4" stroke="rgba(0,0,0,0)" stroke-width="1"/>
                <g id="Group_18301" data-name="Group 18301" transform="translate(1.209 5.383)">
                  <path id="Path_15439" data-name="Path 15439" d="M-76.379-18.168a6.613,6.613,0,0,0,5.786-6.314h0v0h0c0-.079.005-.159.005-.239a6.7,6.7,0,0,0-.111-1.2s.052,1.444-1.891,1.444h-3.789Z" transform="translate(76.379 25.93)" fill="#00a1e4" stroke="rgba(0,0,0,0)" stroke-width="1"/>
                </g>
              </g>
            </g>
          </g>
        </g>
        <path id="Union_35-2" data-name="Union 35" d="M21.679,17.944,21.4,15.937a60.91,60.91,0,0,1-10.5-.09c-9.466-.7-10.812-7.8-10.812-7.8s2,2.87,9.524,3.456a40.7,40.7,0,0,0,11.059-.767l-.309-2.2a1.2,1.2,0,0,1,1.9-1.142l5.485,4.03A1.2,1.2,0,0,1,28,13.1l-.017.023-4.161,5.384a1.2,1.2,0,0,1-2.143-.568Z" transform="translate(4.765 19.116)" fill="#f9c734"/>
      </g>
    </g>
  </g>
</svg>
