<svg xmlns="http://www.w3.org/2000/svg" xmlns:xlink="http://www.w3.org/1999/xlink" width="48" height="48" viewBox="0 0 48 48">
  <defs>
    <linearGradient id="linear-gradient" x1="0.108" y1="0.093" x2="0.867" y2="0.874" gradientUnits="objectBoundingBox">
      <stop offset="0" stop-color="#7ed9ff"/>
      <stop offset="0.531" stop-color="#00a1e4"/>
      <stop offset="1" stop-color="#0073bc"/>
    </linearGradient>
  </defs>
  <g id="transfer_ic06" transform="translate(-11.292 20.489)">
    <g id="icon_64px_transfer_to_lo" data-name="icon 64px / transfer / to lo" transform="translate(11.292 -20.489)">
      <rect id="Rectangle_10974" data-name="Rectangle 10974" width="48" height="48" fill="none"/>
      <g id="Group_20590" data-name="Group 20590" transform="translate(7.5 11.25)">
        <rect id="Rectangle_6248" data-name="Rectangle 6248" width="29.993" height="22.753" rx="2" fill="url(#linear-gradient)"/>
        <path id="Path_16488" data-name="Path 16488" d="M1.034,0H22.753a1.034,1.034,0,0,1,1.034,1.034V15.513a1.034,1.034,0,0,1-1.034,1.034H1.034A1.034,1.034,0,0,1,0,15.513V1.034A1.034,1.034,0,0,1,1.034,0Z" transform="translate(3.103 3.103)" fill="#fff" stroke="rgba(0,0,0,0)" stroke-width="1"/>
        <path id="Path_68205" data-name="Path 68205" d="M-8776.646-4136.31a.887.887,0,0,1-.888-.885.889.889,0,0,1,.888-.887h6.2a.887.887,0,0,1,.887.887.886.886,0,0,1-.887.885Zm0-4.138a.886.886,0,0,1-.888-.884.889.889,0,0,1,.888-.888h6.2a.888.888,0,0,1,.887.888.885.885,0,0,1-.887.884Z" transform="translate(8792.677 4149.607)" fill="#0073bc"/>
        <path id="Union_39" data-name="Union 39" d="M14.478,10.457V8.922H0l4.138-6.2h10.34V1.185A1.182,1.182,0,0,1,16.439.3l5.3,4.636a1.179,1.179,0,0,1,0,1.779l-5.3,4.636a1.159,1.159,0,0,1-.771.294A1.183,1.183,0,0,1,14.478,10.457Z" transform="translate(10.86 13.83)" fill="#f7b500"/>
        <g id="Group_20034" data-name="Group 20034" transform="translate(6.295 5.688)">
          <path id="Path_68204" data-name="Path 68204" d="M-8791.062-4150.842v-.66a4.056,4.056,0,0,1-1.791-.886.886.886,0,0,1,0-1.254.887.887,0,0,1,1.246-.008,2.677,2.677,0,0,0,1.414.488h.06a1.087,1.087,0,0,0,.737-.256.42.42,0,0,0,.142-.287c-.007-.213-.048-.3-.3-.441a3.709,3.709,0,0,0-1.056-.37l-.358-.1a2.375,2.375,0,0,1-1.458-1.119,2.413,2.413,0,0,1-.212-1.8,2.329,2.329,0,0,1,1.572-1.631v-.733a.885.885,0,0,1,.887-.884.884.884,0,0,1,.886.884v.645a3.435,3.435,0,0,1,1.642.966l-1.313,1.188a1.554,1.554,0,0,0-1.081-.463c-.751.047-.83.313-.893.526a.617.617,0,0,0,.061.44.571.571,0,0,0,.381.274c.13.037.246.067.349.1a5.214,5.214,0,0,1,1.478.544,2.166,2.166,0,0,1,1.183,1.948v.018a2.178,2.178,0,0,1-.681,1.575,2.712,2.712,0,0,1-1.124.633v.666a.885.885,0,0,1-.886.887A.886.886,0,0,1-8791.062-4150.842Zm2.1-6.257h0a.015.015,0,0,1,0,.005Z" transform="translate(8793.112 4160.783)" fill="#0073bc"/>
        </g>
      </g>
    </g>
  </g>
</svg>
