<svg id="icon_64px_home_link_wallet" data-name="icon 64px / home / link wallet" xmlns="http://www.w3.org/2000/svg" xmlns:xlink="http://www.w3.org/1999/xlink" width="64" height="64" viewBox="0 0 64 64">
  <defs>
    <linearGradient id="linear-gradient" x2="1" y2="1" gradientUnits="objectBoundingBox">
      <stop offset="0" stop-color="#7ed9ff"/>
      <stop offset="0.531" stop-color="#00a1e4"/>
      <stop offset="1" stop-color="#0073bc"/>
    </linearGradient>
  </defs>
  <rect id="Rectangle_10973" data-name="Rectangle 10973" width="64" height="64" fill="none"/>
  <g id="Group_20670" data-name="Group 20670" transform="translate(-198 -993)">
    <g id="Group_20067" data-name="Group 20067" transform="translate(208 1003)">
      <g id="archive" transform="translate(0 0)">
        <path id="Vector" d="M15.4,44H28.6C39.6,44,44,39.6,44,28.6V15.4C44,4.4,39.6,0,28.6,0H15.4C4.4,0,0,4.4,0,15.4V28.6C0,39.6,4.4,44,15.4,44Z" transform="translate(0 0)" fill="url(#linear-gradient)"/>
        <path id="Vector-2" data-name="Vector" d="M12.3,35.154H22.85c8.789,0,12.3-3.515,12.3-12.3V12.3c0-8.789-3.515-12.3-12.3-12.3H12.3C3.515,0,0,3.515,0,12.3V22.85C0,31.639,3.515,35.154,12.3,35.154Z" transform="translate(4.423 4.423)" fill="#fff"/>
        <g id="Group_20071" data-name="Group 20071" transform="translate(8.135 9.511)">
          <g id="Group">
            <path id="Vector-3" data-name="Vector" d="M3.948-.75H18.614a4.7,4.7,0,0,1,4.7,4.7V16.323a1.031,1.031,0,1,1-2.062,0,2.638,2.638,0,0,0-2.635-2.635H3.948a2.638,2.638,0,0,0-2.635,2.635,1.031,1.031,0,1,1-2.062,0V3.948A4.7,4.7,0,0,1,3.948-.75Zm17.3,13.186V3.948a2.638,2.638,0,0,0-2.635-2.635H3.948A2.638,2.638,0,0,0,1.312,3.948v8.488a4.671,4.671,0,0,1,2.635-.811H18.614A4.671,4.671,0,0,1,21.25,12.436Z" transform="translate(2.583 0.75)" fill="#0073bc"/>
            <path id="Vector-4" data-name="Vector" d="M2.115,1.312H.281a1.031,1.031,0,1,1,0-2.062H2.115a1.031,1.031,0,1,1,0,2.062Z" transform="translate(24.583 19.083)" fill="#0073bc"/>
            <path id="Vector-5" data-name="Vector" d="M2.115,1.312H.281a1.031,1.031,0,1,1,0-2.062H2.115a1.031,1.031,0,1,1,0,2.062Z" transform="translate(0.75 19.083)" fill="#0073bc"/>
          </g>
          <path id="Vector-6" data-name="Vector" d="M22.281,10.479A1.031,1.031,0,0,1,21.25,9.448v-5.5a2.638,2.638,0,0,0-2.635-2.635H3.948A2.638,2.638,0,0,0,1.312,3.948v5.5a1.031,1.031,0,0,1-2.062,0v-5.5a4.7,4.7,0,0,1,4.7-4.7H18.614a4.7,4.7,0,0,1,4.7,4.7v5.5A1.031,1.031,0,0,1,22.281,10.479Z" transform="translate(2.583 6.708)" fill="#0073bc"/>
          <path id="Vector-7" data-name="Vector" d="M3.948-.75H18.614a4.7,4.7,0,0,1,4.7,4.7V6.24a1.031,1.031,0,0,1-1.031,1.031H16.8a5.615,5.615,0,0,1-11.039,0H.281A1.031,1.031,0,0,1-.75,6.24V3.948A4.7,4.7,0,0,1,3.948-.75Zm17.3,5.958V3.948a2.638,2.638,0,0,0-2.635-2.635H3.948A2.638,2.638,0,0,0,1.312,3.948v1.26H6.7A1.031,1.031,0,0,1,7.729,6.24a3.552,3.552,0,0,0,7.1,0,1.031,1.031,0,0,1,1.031-1.031Z" transform="translate(2.583 13.125)" fill="#0073bc"/>
        </g>
        <path id="Vector-8" data-name="Vector" d="M0,0H44V44H0Z" transform="translate(0 0)" fill="none" opacity="0"/>
      </g>
    </g>
    <g id="Group_19071" data-name="Group 19071" transform="translate(231.467 1026.467)">
      <path id="Path_16414" data-name="Path 16414" d="M10.267,0A10.267,10.267,0,1,0,20.533,10.267,10.267,10.267,0,0,0,10.267,0Z" transform="translate(0)" fill="#f7b500"/>
      <path id="Union_68" data-name="Union 68" d="M4.926,11.041V7.291H1.183a1.177,1.177,0,1,1,0-2.355H4.926V1.183a1.181,1.181,0,1,1,2.362,0V4.936h3.743a1.177,1.177,0,1,1,0,2.355H7.288v3.75a1.181,1.181,0,0,1-2.362,0Z" transform="translate(4.162 4.156)" fill="#0073bc"/>
    </g>
  </g>
</svg>
