<svg id="Icon_24px_Login_HDSD_Smart_OTP" data-name="Icon 24px / Login  / HDSD Smart OTP" xmlns="http://www.w3.org/2000/svg" width="24" height="24" viewBox="0 0 24 24">
  <rect id="Rectangle_6386" data-name="Rectangle 6386" width="24" height="24" fill="none"/>
  <g id="insurance" transform="translate(-38.981 3.634)">
    <path id="Exclusion_31" data-name="Exclusion 31" d="M8.95,20h0c-2,0-4.248-1.4-6-3.735A14.977,14.977,0,0,1,0,7.321C0,4.238,0,1.575,2.155.348A2.007,2.007,0,0,1,3.172.125,12.224,12.224,0,0,1,5.517.49,16.993,16.993,0,0,0,8.959.984H9A13.282,13.282,0,0,0,12.156.491L12.479.41A10.117,10.117,0,0,1,14.729,0a1.587,1.587,0,0,1,.944.248c2.385,1.29,2.325,4.4,2.272,7.145a14,14,0,0,1-1.129,5.633,14.355,14.355,0,0,1-2.925,4.446A7.318,7.318,0,0,1,8.95,20ZM8.822,5a2.375,2.375,0,0,0-1.428.489l-.058.05a2.259,2.259,0,0,0-.26.245,1.983,1.983,0,0,0-.6,1.407V8.45A2.378,2.378,0,0,0,4.82,10.723v1.891a2.368,2.368,0,0,0,.7,1.685,2.578,2.578,0,0,0,.349.293l.028.017c.054.034.11.069.171.1a2.535,2.535,0,0,0,.652.238A2.406,2.406,0,0,0,7.2,15h3.551a2.388,2.388,0,0,0,.484-.048,2.516,2.516,0,0,0,.652-.238c.068-.037.129-.076.189-.113l.01-.006a3.152,3.152,0,0,0,.34-.284l.01-.009a2.4,2.4,0,0,0,.7-1.685V10.723A2.379,2.379,0,0,0,11.479,8.45V7.195a1.984,1.984,0,0,0-.6-1.407,2.29,2.29,0,0,0-.266-.251l-.051-.044A2.352,2.352,0,0,0,9.131,5c-.051,0-.1,0-.155.005S8.873,5,8.822,5Zm1.934,8.4H7.2a.8.8,0,0,1-.795-.795V10.723A.8.8,0,0,1,7.2,9.928h3.551a.8.8,0,0,1,.795.795v1.891A.8.8,0,0,1,10.756,13.408Zm-1.781-3.1a1.241,1.241,0,1,0,1.162,1.233A1.2,1.2,0,0,0,8.975,10.312ZM9.89,7.79H8.07v-.6c0-.281.387-.6.905-.6s.914.315.914.6v.595Z" transform="translate(42.001 -1.634)" fill="rgba(255,255,255,0.87)"/>
    <path id="Path_10138" data-name="Path 10138" d="M70.16,36.573l-1.718-2.009a9.894,9.894,0,0,1-2.27-6.407V25.1c0-2.356,1.815-4.193,3.8-3.765a1.875,1.875,0,0,0,1.569-.615,13.006,13.006,0,0,1-3.513-.186c-2-.381-3.824,1.419-3.824,3.792v3.894A12.173,12.173,0,0,0,66.993,36.1l1.2,1.4a2.927,2.927,0,0,0,4.254.2A3.06,3.06,0,0,1,70.16,36.573Z" transform="translate(-21.686 -22.111)" fill="none"/>
  </g>
</svg>
