<svg xmlns="http://www.w3.org/2000/svg" width="24" height="24" viewBox="0 0 24 24">
  <g id="Agribank" transform="translate(-5.667 -6)">
    <g id="Logo_Bank_Agribank" data-name="Logo / Bank / Agribank" transform="translate(5.667 6)">
      <circle id="Ellipse_511" data-name="Ellipse 511" cx="12" cy="12" r="12" fill="#f8f8f8" opacity="0"/>
      <g id="Group_17520" data-name="Group 17520" transform="translate(3 3.145)">
        <path id="Path_15570" data-name="Path 15570" d="M27.5,10.921a1.272,1.272,0,0,0-1.286-1.252H21.972L9.5,22.2V26.12a1.267,1.267,0,0,0,1.273,1.26H15l12.5-12.3Z" transform="translate(-9.5 -9.669)" fill="#992836"/>
        <path id="Path_15571" data-name="Path 15571" d="M10.777,9.669A1.267,1.267,0,0,0,9.5,10.921v10.5l12-11.756Z" transform="translate(-9.5 -9.669)" fill="#005c3b"/>
        <path id="Path_15572" data-name="Path 15572" d="M22.129,9.991a5.552,5.552,0,0,0-2.03.536c-.487.374-.7.491-1.014,1.69a6.471,6.471,0,0,1,1.749-.5,1.6,1.6,0,0,0,1.156-1.042,2.594,2.594,0,0,0,.142-.686" transform="translate(-10.869 -9.715)" fill="#221f1f"/>
        <path id="Path_15573" data-name="Path 15573" d="M22.075,10.125a5.673,5.673,0,0,0-1.126.184,2.081,2.081,0,0,0-1.64,1.68c.619-.136,1.6-.36,1.69-.36l-.134.113a1.74,1.74,0,0,0,1.02-.727,1.874,1.874,0,0,0,.19-.467l-.13.12a1.2,1.2,0,0,0,.13-.54" transform="translate(-10.901 -9.734)" fill="#a33728"/>
        <path id="Path_15574" data-name="Path 15574" d="M19.415,11.921a2.116,2.116,0,0,1,1.208-1.38,4.154,4.154,0,0,1,1.315-.295c-.049.263-.23.96-.686,1.174s-1.51.283-1.837.5" transform="translate(-10.917 -9.751)" fill="#f2e006"/>
        <path id="Path_15575" data-name="Path 15575" d="M19.436,11.7a4.937,4.937,0,0,0-1.628,1.186c-.32.5-.476.673-.331,1.886a6.474,6.474,0,0,1,1.38-1.048,1.481,1.481,0,0,0,.688-1.328,2.272,2.272,0,0,0-.114-.694" transform="translate(-10.632 -9.959)" fill="#221f1f"/>
        <path id="Path_15576" data-name="Path 15576" d="M19.416,11.863a5.18,5.18,0,0,0-.954.535,1.988,1.988,0,0,0-.882,2.1c.491-.32,1.292-.865,1.38-.893a.526.526,0,0,1-.086.14,1.594,1.594,0,0,0,.679-1,2.427,2.427,0,0,0,.014-.48l-.079.145a1.168,1.168,0,0,0-.07-.544" transform="translate(-10.648 -9.981)" fill="#a33728"/>
        <path id="Path_15577" data-name="Path 15577" d="M17.632,14.425a2.044,2.044,0,0,1,.614-1.68,4.954,4.954,0,0,1,1.08-.72,1.644,1.644,0,0,1-.2,1.32c-.338.36-1.248.764-1.487,1.08" transform="translate(-10.66 -10.007)" fill="#f2e006"/>
        <path id="Path_15578" data-name="Path 15578" d="M18.009,13.844a5.43,5.43,0,0,0-.48.972,2.072,2.072,0,0,0,.514,2.3c.223-.556.587-1.432.64-1.5.013.131.013.166.013.166a1.616,1.616,0,0,0-.031-1.228,2.023,2.023,0,0,0-.287-.428l.026.172a1.42,1.42,0,0,0-.4-.45" transform="translate(-10.625 -10.266)" fill="#a33728"/>
        <path id="Path_15579" data-name="Path 15579" d="M28.507,27.089V16.451l-11.958,11.9H27.221a1.274,1.274,0,0,0,1.286-1.26" transform="translate(-10.507 -10.638)" fill="#005c3b"/>
        <path id="Path_15580" data-name="Path 15580" d="M18.038,17.028a2.166,2.166,0,0,1-.487-1.775,3.982,3.982,0,0,1,.487-1.2,1.841,1.841,0,0,1,.614,1.264c-.071.48-.6,1.316-.614,1.709" transform="translate(-10.646 -10.295)" fill="#f2e006"/>
        <path id="Path_15581" data-name="Path 15581" d="M19.911,27.633a5.22,5.22,0,0,1-1.481.323c-.691.032-.938.1-1.733,1.577.606.052,2,.172,2.626-.36a1.771,1.771,0,0,0,.6-1.576Z" transform="translate(-10.528 -12.231)" fill="#a43228"/>
        <path id="Path_15582" data-name="Path 15582" d="M19.839,28.022a1.286,1.286,0,0,1-.434,1,4.064,4.064,0,0,1-2.718.571c1.134.06,2.356.212,2.95-.726a1.448,1.448,0,0,0,.2-.845" transform="translate(-10.527 -12.29)" fill="#221f1f"/>
        <path id="Path_15583" data-name="Path 15583" d="M17.08,29.5a3.485,3.485,0,0,1,.653-1.028c.476-.472,1.56-.131,2.04-.317a1.5,1.5,0,0,1-.917,1.147,9.386,9.386,0,0,1-1.778.2" transform="translate(-10.582 -12.309)" fill="#f2e006"/>
        <path id="Path_15584" data-name="Path 15584" d="M21.839,25.213a5.707,5.707,0,0,1-1.316.727c-.656.248-.864.377-1.2,2.036.61-.143,1.972-.439,2.42-1.128a1.828,1.828,0,0,0,.1-1.687Z" transform="translate(-10.903 -11.882)" fill="#a43228"/>
        <path id="Path_15585" data-name="Path 15585" d="M21.876,25.6a1.33,1.33,0,0,1-.12,1.08,4.01,4.01,0,0,1-2.425,1.354c1.1-.284,2.31-.5,2.6-1.571a1.45,1.45,0,0,0-.055-.864" transform="translate(-10.904 -11.943)" fill="#221f1f"/>
        <path id="Path_15586" data-name="Path 15586" d="M19.674,27.846a3.514,3.514,0,0,1,.31-1.178c.317-.592,1.457-.584,1.854-.9a1.451,1.451,0,0,1-.527,1.363,8.6,8.6,0,0,1-1.636.716" transform="translate(-10.954 -11.97)" fill="#f2e006"/>
        <path id="Path_15587" data-name="Path 15587" d="M22.826,22.836a5.908,5.908,0,0,1-1.034,1.1c-.56.42-.724.614-.54,2.285.54-.311,1.748-.989,1.952-1.786a1.757,1.757,0,0,0-.4-1.639Z" transform="translate(-11.169 -11.545)" fill="#a43228"/>
        <path id="Path_15588" data-name="Path 15588" d="M22.962,23.208a1.315,1.315,0,0,1,.212,1.07,4.039,4.039,0,0,1-1.92,2c.97-.6,2.065-1.166,2.014-2.268a1.348,1.348,0,0,0-.308-.8" transform="translate(-11.177 -11.603)" fill="#221f1f"/>
        <path id="Path_15589" data-name="Path 15589" d="M21.5,26.019a3.753,3.753,0,0,1-.06-1.216c.136-.667,1.22-.989,1.5-1.42a1.476,1.476,0,0,1-.086,1.463A9.086,9.086,0,0,1,21.5,26.019" transform="translate(-11.204 -11.628)" fill="#f2e006"/>
        <path id="Path_15590" data-name="Path 15590" d="M21.875,20.853s-.2.514-.316.935-.1.773.745,1.733a.972.972,0,0,1,.06.407,1.666,1.666,0,0,0,.459-1.787c-.332-1.054-.752-.924-.943-1.286" transform="translate(-11.215 -11.267)" fill="#a43228"/>
        <path id="Path_15591" data-name="Path 15591" d="M22,21.143c-.136.514-.428.818-.23,1.38.2.485.708.914.686,1.136a1.372,1.372,0,0,0,.3-1.367A2.894,2.894,0,0,0,22,21.143" transform="translate(-11.243 -11.308)" fill="#f2e006"/>
        <path id="Path_15592" data-name="Path 15592" d="M20.114,18.985s.106.592.233,1.04.328.764,1.553,1.156c.125.048.276.343.276.343a1.873,1.873,0,0,0-.568-1.886c-.844-.772-1.134-.407-1.494-.647" transform="translate(-11.016 -11)" fill="#a43228"/>
        <path id="Path_15593" data-name="Path 15593" d="M20.36,19.193c.172.544.086.991.553,1.393.428.324,1.1.428,1.182.634a1.534,1.534,0,0,0-.474-1.412,2.94,2.94,0,0,0-1.26-.614" transform="translate(-11.052 -11.029)" fill="#f2e006"/>
        <path id="Path_15594" data-name="Path 15594" d="M18.248,16.682s.1.595.226,1.036.331.761,1.56,1.151c.124.049.274.343.274.343a1.9,1.9,0,0,0-.577-1.886c-.85-.772-1.128-.41-1.484-.638" transform="translate(-10.749 -10.671)" fill="#a43228"/>
        <path id="Path_15595" data-name="Path 15595" d="M18.487,16.879c.172.553.086,1,.548,1.4.446.325,1.1.428,1.2.63a1.532,1.532,0,0,0-.485-1.408,2.923,2.923,0,0,0-1.26-.619" transform="translate(-10.784 -10.699)" fill="#f2e006"/>
      </g>
    </g>
  </g>
</svg>
