<svg id="VIB" xmlns="http://www.w3.org/2000/svg" width="24" height="24" viewBox="0 0 24 24">
  <rect id="Rectangle_5468" data-name="Rectangle 5468" width="24" height="24" fill="none"/>
  <g id="Group_17554" data-name="Group 17554" transform="translate(3 4)">
    <path id="Path_15617" data-name="Path 15617" d="M331.156,190.5a3.137,3.137,0,0,0-2.74,1.121l-1.744,1.931-1.744-1.931a3.215,3.215,0,0,0-2.74-1.121h-2.056s3.175,3.986,3.613,4.423a2.5,2.5,0,0,0,2.055,1.119h1.681a2.607,2.607,0,0,0,2.119-1.119c.434-.438,3.612-4.423,3.612-4.423Z" transform="translate(-317.642 -190.498)" fill="#fba400" stroke="rgba(0,0,0,0)" stroke-miterlimit="10" stroke-width="1"/>
    <path id="Path_15618" data-name="Path 15618" d="M357.619,213.151a2.573,2.573,0,0,0-2.055,1.244l-.436.684-.372.749a2.4,2.4,0,0,0-.065,2.427c.188.562,2,5.3,2,5.3l1.06-1.746a3.147,3.147,0,0,0,.37-2.927l-.747-2.49,2.495-.562a3.118,3.118,0,0,0,2.365-1.806l1-1.808S358.24,213.026,357.619,213.151Z" transform="translate(-345.226 -207.98)" fill="#ec6213" stroke="rgba(0,0,0,0)" stroke-miterlimit="10" stroke-width="1"/>
    <path id="Path_15619" data-name="Path 15619" d="M315.891,215.828l-.435-.749-.374-.684a2.575,2.575,0,0,0-2.058-1.244c-.619-.125-5.665-.937-5.665-.937l1.06,1.808a3.116,3.116,0,0,0,2.305,1.806l2.55.562-.808,2.49a3.176,3.176,0,0,0,.434,2.927l1,1.746s1.869-4.736,2.054-5.3A2.562,2.562,0,0,0,315.891,215.828Z" transform="translate(-307.359 -207.98)" fill="#f47c10" stroke="rgba(0,0,0,0)" stroke-miterlimit="10" stroke-width="1"/>
  </g>
</svg>
