<svg xmlns="http://www.w3.org/2000/svg" width="24" height="24" viewBox="0 0 24 24">
  <g id="BIDV" transform="translate(-5.667 -6)">
    <g id="Bank_Logo_BIDV" data-name="Bank/Logo/BIDV" transform="translate(5.667 6)">
      <rect id="Rectangle_5490" data-name="Rectangle 5490" width="24" height="24" fill="none"/>
      <g id="Group_17521" data-name="Group 17521" transform="translate(1.875 1.875)">
        <path id="Path_15596" data-name="Path 15596" d="M74.221,3l-9.5,9.488,9.489,9.488h0l9.5-9.48-9.5-9.489" transform="translate(-64.097 -2.368)" fill="#fff"/>
        <path id="Path_15597" data-name="Path 15597" d="M75.773,7.258v7.749h3.1V7.257H77.391" transform="translate(-67.198 -3.445)" fill="#ed1d24"/>
        <path id="Path_15598" data-name="Path 15598" d="M79.137,14.1H78.3V9.411h.84c.849,0,1.5,1.051,1.505,2.344C80.653,13.018,79.991,14.1,79.137,14.1Zm-5.8-4.691h1.552V14.1H73.341V9.409Z" transform="translate(-66.454 -4.038)" fill="#21409a"/>
        <path id="Path_15599" data-name="Path 15599" d="M63.828,12.241l.083.084,9.66,9.662.38.38.38-.38,9.747-9.743L73.952,2.119,63.827,12.244Zm10.125,9.474h0l-9.474-9.474,9.482-9.474h0l9.482,9.474Z" transform="translate(-63.827 -2.119)" fill="#ed1d24"/>
        <path id="Path_15600" data-name="Path 15600" d="M74.4,20.421l-4.58-4.474H65.328l7.913,7.73.084.083L74.4,24.808l9.082-8.859H78.989" transform="translate(-64.278 -5.611)" fill="#ed1d24"/>
      </g>
    </g>
  </g>
</svg>
