<svg xmlns="http://www.w3.org/2000/svg" width="24" height="24" viewBox="0 0 24 24">
  <g id="Techcombank" transform="translate(-5.667 -6)">
    <g id="Logo_Bank_Techcombank" data-name="Logo / Bank / Techcombank" transform="translate(5.667 6)">
      <rect id="Rectangle_5468" data-name="Rectangle 5468" width="24" height="24" fill="none"/>
      <g id="Group_17561" data-name="Group 17561" transform="translate(-207.384 -195.796)">
        <path id="Path_15626" data-name="Path 15626" d="M283.657,204.743c.06,0,.1.078.193.175.2.2.382.385.574.574.414.406.753.768,1.149,1.146.144.138,1.087,1.056,1.142,1.155l-3.057,3.059v.041h0l3.082,3.076,5.649-5.663V207.27l-5.662-5.647-3.071,3.07v.05Z" transform="translate(-64.006 0)" fill="#e20019" fill-rule="evenodd"/>
        <path id="Path_15627" data-name="Path 15627" d="M219.646,210.875c-.1-.039-2.434-2.42-2.881-2.861-.234-.23-.279-.122.194-.6l1.147-1.147c.446-.445,1.01-.988,1.434-1.435.048-.051.082-.073.11-.074v-.05l0,0-3.1-3.07-6.161,6.175,6.177,6.165,3.075-3.075.015,0v-.041Z" transform="translate(0 -0.018)" fill="#e20019" fill-rule="evenodd"/>
      </g>
    </g>
  </g>
</svg>
