<svg xmlns="http://www.w3.org/2000/svg" width="36" height="24" viewBox="0 0 36 24">
  <g id="flag_china" data-name="flag / china" transform="translate(-491 -483)">
    <rect id="Rectangle_11037" data-name="Rectangle 11037" width="36" height="24" transform="translate(491 483)" fill="none"/>
    <g id="Group_21075" data-name="Group 21075" transform="translate(493.737 396.724)">
      <path id="Path_19457" data-name="Path 19457" d="M30,108.276H.526A.526.526,0,0,1,0,107.75V88.8a.526.526,0,0,1,.526-.526H30a.526.526,0,0,1,.526.526V107.75A.526.526,0,0,1,30,108.276Z" fill="#ff4b55"/>
      <g id="Group_21074" data-name="Group 21074" transform="translate(2.363 89.779)">
        <path id="Path_19458" data-name="Path 19458" d="M42.333,138.428l.5,1.5,1.586.012a.214.214,0,0,1,.125.386l-1.276.942.478,1.512a.214.214,0,0,1-.328.238l-1.29-.922-1.29.922a.214.214,0,0,1-.328-.238l.478-1.512-1.276-.942a.214.214,0,0,1,.125-.386l1.586-.012.5-1.5A.214.214,0,0,1,42.333,138.428Z" transform="translate(-39.628 -136.804)" fill="#ffe15a"/>
        <path id="Path_19459" data-name="Path 19459" d="M169.156,146.42l.36.491.581-.182a.082.082,0,0,1,.091.126l-.355.494.352.5a.082.082,0,0,1-.092.126l-.579-.185-.363.488a.082.082,0,0,1-.148-.049l0-.608-.577-.194a.082.082,0,0,1,0-.156l.578-.191.007-.608A.082.082,0,0,1,169.156,146.42Z" transform="translate(-160.691 -144.425)" fill="#ffe15a"/>
        <path id="Path_19460" data-name="Path 19460" d="M143.421,114.022l.6.066.258-.551a.082.082,0,0,1,.154.018l.124.6.6.075a.082.082,0,0,1,.031.153l-.528.3.115.6a.082.082,0,0,1-.136.076l-.451-.409-.533.294a.082.082,0,0,1-.114-.105l.249-.555-.444-.416A.082.082,0,0,1,143.421,114.022Z" transform="translate(-137.147 -113.49)" fill="#ffe15a"/>
        <path id="Path_19461" data-name="Path 19461" d="M144.377,220.783l-.36.491-.581-.182a.082.082,0,0,0-.091.126l.355.494-.352.5a.082.082,0,0,0,.092.126l.579-.185.363.488a.082.082,0,0,0,.148-.049l0-.608.577-.194a.082.082,0,0,0,0-.156l-.578-.191-.007-.608A.082.082,0,0,0,144.377,220.783Z" transform="translate(-137.147 -214.354)" fill="#ffe15a"/>
        <path id="Path_19462" data-name="Path 19462" d="M168.969,189.864l-.6.066-.258-.551a.082.082,0,0,0-.154.018l-.124.6-.6.075a.082.082,0,0,0-.031.153l.528.3-.115.6a.082.082,0,0,0,.136.076l.451-.409.533.294a.082.082,0,0,0,.114-.105l-.249-.555.444-.416A.082.082,0,0,0,168.969,189.864Z" transform="translate(-159.549 -184.81)" fill="#ffe15a"/>
      </g>
    </g>
  </g>
</svg>
