<svg xmlns="http://www.w3.org/2000/svg" width="36" height="24" viewBox="0 0 36 24">
  <g id="flag_gbp" data-name="flag / gbp" transform="translate(-491 -483)">
    <rect id="Rectangle_11037" data-name="Rectangle 11037" width="36" height="24" transform="translate(491 483)" fill="none"/>
    <g id="Group_21088" data-name="Group 21088" transform="translate(494 399.67)">
      <rect id="Rectangle_11044" data-name="Rectangle 11044" width="29.999" height="20" transform="translate(0 85.33)" fill="#f0f0f0"/>
      <path id="Path_19525" data-name="Path 19525" d="M16.875,85.33h-3.75v8.125H0V97.2H13.125v8.125h3.75V97.2H30v-3.75H16.875Z" fill="#d80027"/>
      <g id="Group_21084" data-name="Group 21084" transform="translate(18.261 98.808)">
        <path id="Path_19526" data-name="Path 19526" d="M393.785,315.358l6.927,3.848v-3.848Z" transform="translate(-388.973 -315.358)" fill="#0052b4"/>
        <path id="Path_19527" data-name="Path 19527" d="M311.652,315.358l11.739,6.522v-1.844l-8.419-4.677Z" transform="translate(-311.652 -315.358)" fill="#0052b4"/>
        <path id="Path_19528" data-name="Path 19528" d="M320.264,349.783,311.652,345v4.785Z" transform="translate(-311.652 -343.261)" fill="#0052b4"/>
      </g>
      <path id="Path_19529" data-name="Path 19529" d="M311.652,315.358l11.739,6.522v-1.844l-8.419-4.677Z" transform="translate(-293.392 -216.55)" fill="#f0f0f0"/>
      <path id="Path_19530" data-name="Path 19530" d="M311.652,315.358l11.739,6.522v-1.844l-8.419-4.677Z" transform="translate(-293.392 -216.55)" fill="#d80027"/>
      <g id="Group_21085" data-name="Group 21085" transform="translate(0 98.808)">
        <path id="Path_19531" data-name="Path 19531" d="M5.293,315.356,0,318.3v-2.941Z" transform="translate(0 -315.356)" fill="#0052b4"/>
        <path id="Path_19532" data-name="Path 19532" d="M35.736,329.51V335.2H25.491Z" transform="translate(-23.997 -328.681)" fill="#0052b4"/>
      </g>
      <path id="Path_19533" data-name="Path 19533" d="M8.419,315.358,0,320.035v1.844H0l11.739-6.522Z" transform="translate(0 -216.55)" fill="#d80027"/>
      <g id="Group_21086" data-name="Group 21086" transform="translate(0 85.33)">
        <path id="Path_19534" data-name="Path 19534" d="M6.927,134.806,0,130.958v3.848Z" transform="translate(0 -128.285)" fill="#0052b4"/>
        <path id="Path_19535" data-name="Path 19535" d="M11.739,91.852,0,85.33v1.844l8.419,4.677Z" transform="translate(0 -85.33)" fill="#0052b4"/>
        <path id="Path_19536" data-name="Path 19536" d="M53.366,85.33l8.612,4.785V85.33Z" transform="translate(-50.239 -85.33)" fill="#0052b4"/>
      </g>
      <path id="Path_19537" data-name="Path 19537" d="M11.739,91.852,0,85.33v1.844l8.419,4.677Z" fill="#f0f0f0"/>
      <path id="Path_19538" data-name="Path 19538" d="M11.739,91.852,0,85.33v1.844l8.419,4.677Z" fill="#d80027"/>
      <g id="Group_21087" data-name="Group 21087" transform="translate(18.261 85.33)">
        <path id="Path_19539" data-name="Path 19539" d="M421.659,149.387l5.293-2.941v2.941Z" transform="translate(-415.213 -142.865)" fill="#0052b4"/>
        <path id="Path_19540" data-name="Path 19540" d="M311.652,91.023V85.331H321.9Z" transform="translate(-311.652 -85.331)" fill="#0052b4"/>
      </g>
      <path id="Path_19541" data-name="Path 19541" d="M314.972,91.852l8.419-4.677V85.33h0l-11.739,6.522Z" transform="translate(-293.392)" fill="#d80027"/>
    </g>
  </g>
</svg>
