<svg xmlns="http://www.w3.org/2000/svg" width="36" height="24" viewBox="0 0 36 24">
  <g id="flag_hongkong" data-name="flag / hongkong" transform="translate(-491 -483)">
    <rect id="Rectangle_11037" data-name="Rectangle 11037" width="36" height="24" transform="translate(491 483)" fill="none"/>
    <g id="Group_21090" data-name="Group 21090" transform="translate(494 399.669)">
      <rect id="Rectangle_11045" data-name="Rectangle 11045" width="30" height="20" transform="translate(0 85.331)" fill="#d80027"/>
      <g id="Group_21089" data-name="Group 21089" transform="translate(10.231 90.197)">
        <path id="Path_19542" data-name="Path 19542" d="M233.527,171.079c-.227.945-.631.765-.829,1.589a2.174,2.174,0,0,1,1.016-4.227C233.318,170.089,233.73,170.233,233.527,171.079Z" transform="translate(-227.726 -168.38)" fill="#f0f0f0"/>
        <path id="Path_19543" data-name="Path 19543" d="M177.385,210.438c.829.508.532.837,1.255,1.28a2.174,2.174,0,0,1-3.706-2.273C176.379,210.331,176.643,209.984,177.385,210.438Z" transform="translate(-174.613 -207.039)" fill="#f0f0f0"/>
        <path id="Path_19544" data-name="Path 19544" d="M189.975,266.427c.74-.631.96-.248,1.605-.8a2.174,2.174,0,1,1-3.307,2.823C189.563,267.351,189.313,266.992,189.975,266.427Z" transform="translate(-187.473 -259.931)" fill="#f0f0f0"/>
        <path id="Path_19545" data-name="Path 19545" d="M261.939,268.818c-.372-.9.061-.99-.263-1.773a2.174,2.174,0,1,1,1.663,4.017C262.69,269.5,262.272,269.621,261.939,268.818Z" transform="translate(-256.575 -261.107)" fill="#f0f0f0"/>
        <path id="Path_19546" data-name="Path 19546" d="M272.455,217.471c-.969.076-.923-.364-1.768-.3a2.174,2.174,0,1,1,4.334-.34C273.331,216.967,273.322,217.4,272.455,217.471Z" transform="translate(-265.052 -212.108)" fill="#f0f0f0"/>
      </g>
    </g>
  </g>
</svg>
