<svg xmlns="http://www.w3.org/2000/svg" width="36" height="24" viewBox="0 0 36 24">
  <g id="flag_usa" data-name="flag / usa" transform="translate(-491 -483)">
    <rect id="Rectangle_11037" data-name="Rectangle 11037" width="36" height="24" transform="translate(491 483)" fill="none"/>
    <g id="Group_21082" data-name="Group 21082" transform="translate(493.737 396.724)">
      <path id="Path_19478" data-name="Path 19478" d="M30,108.276H.526A.526.526,0,0,1,0,107.75V88.8a.526.526,0,0,1,.526-.526H30a.526.526,0,0,1,.526.526V107.75A.526.526,0,0,1,30,108.276Z" fill="#f5f5f5"/>
      <g id="Group_21080" data-name="Group 21080" transform="translate(0 88.276)">
        <path id="Path_19479" data-name="Path 19479" d="M30.526,89.815H0V88.8a.526.526,0,0,1,.526-.526H30a.526.526,0,0,1,.526.526v1.012Z" transform="translate(0 -88.276)" fill="#ff4b55"/>
        <rect id="Rectangle_11039" data-name="Rectangle 11039" width="30.526" height="1.538" transform="translate(0 6.154)" fill="#ff4b55"/>
        <rect id="Rectangle_11040" data-name="Rectangle 11040" width="30.526" height="1.538" transform="translate(0 3.077)" fill="#ff4b55"/>
        <path id="Path_19480" data-name="Path 19480" d="M30.526,244.637h-30A.526.526,0,0,1,0,244.11V243.1H30.526Z" transform="translate(0 -233.867)" fill="#ff4b55"/>
        <rect id="Rectangle_11041" data-name="Rectangle 11041" width="30.526" height="1.538" transform="translate(0 15.385)" fill="#ff4b55"/>
        <path id="Path_19481" data-name="Path 19481" d="M30,399.459H.526A.526.526,0,0,1,0,398.933v-1.012H30.526v1.012A.526.526,0,0,1,30,399.459Z" transform="translate(0 -379.459)" fill="#ff4b55"/>
        <rect id="Rectangle_11042" data-name="Rectangle 11042" width="30.526" height="1.538" transform="translate(0 12.308)" fill="#ff4b55"/>
      </g>
      <path id="Path_19482" data-name="Path 19482" d="M13.684,88.277H.526A.526.526,0,0,0,0,88.8V98.52a.526.526,0,0,0,.526.526H13.684a.526.526,0,0,0,.526-.526V88.8A.526.526,0,0,0,13.684,88.277Z" transform="translate(0 -0.001)" fill="#41479b"/>
      <g id="Group_21081" data-name="Group 21081" transform="translate(0.85 89.45)">
        <path id="Path_19483" data-name="Path 19483" d="M14.881,108l.117.349.368,0a.05.05,0,0,1,.029.09l-.3.219.111.351a.05.05,0,0,1-.076.055l-.3-.214-.3.214a.05.05,0,0,1-.076-.055l.111-.351-.3-.219a.05.05,0,0,1,.029-.09l.368,0,.117-.349A.05.05,0,0,1,14.881,108Z" transform="translate(-14.253 -107.969)" fill="#f5f5f5"/>
        <path id="Path_19484" data-name="Path 19484" d="M14.881,138.658l.117.349.368,0a.05.05,0,0,1,.029.09l-.3.219.111.351a.05.05,0,0,1-.076.055l-.3-.214-.3.214a.05.05,0,0,1-.076-.055l.111-.351-.3-.219a.05.05,0,0,1,.029-.09l.368,0,.117-.349A.05.05,0,0,1,14.881,138.658Z" transform="translate(-14.253 -136.796)" fill="#f5f5f5"/>
        <path id="Path_19485" data-name="Path 19485" d="M14.881,169.312l.117.349.368,0a.05.05,0,0,1,.029.09l-.3.219.111.351a.05.05,0,0,1-.076.055l-.3-.214-.3.214a.05.05,0,0,1-.076-.055l.111-.351-.3-.219a.05.05,0,0,1,.029-.09l.368,0,.117-.349A.05.05,0,0,1,14.881,169.312Z" transform="translate(-14.253 -165.622)" fill="#f5f5f5"/>
        <path id="Path_19486" data-name="Path 19486" d="M14.881,199.966l.117.349.368,0a.05.05,0,0,1,.029.09l-.3.219.111.351a.05.05,0,0,1-.076.055l-.3-.214-.3.214a.05.05,0,0,1-.076-.055l.111-.351-.3-.219a.05.05,0,0,1,.029-.09l.368,0,.117-.349A.05.05,0,0,1,14.881,199.966Z" transform="translate(-14.253 -194.449)" fill="#f5f5f5"/>
        <path id="Path_19487" data-name="Path 19487" d="M14.881,230.619l.117.349.368,0a.05.05,0,0,1,.029.09l-.3.219.111.351a.05.05,0,0,1-.076.055l-.3-.214-.3.214a.05.05,0,0,1-.076-.055l.111-.351-.3-.219a.05.05,0,0,1,.029-.09l.368,0,.117-.349A.05.05,0,0,1,14.881,230.619Z" transform="translate(-14.253 -223.275)" fill="#f5f5f5"/>
        <path id="Path_19488" data-name="Path 19488" d="M38.674,123.032l.117.349.368,0a.05.05,0,0,1,.029.09l-.3.219.111.351a.05.05,0,0,1-.076.055l-.3-.214-.3.214a.05.05,0,0,1-.076-.055l.111-.351-.3-.219a.05.05,0,0,1,.029-.09l.368,0,.117-.349A.05.05,0,0,1,38.674,123.032Z" transform="translate(-36.627 -122.102)" fill="#f5f5f5"/>
        <path id="Path_19489" data-name="Path 19489" d="M38.674,153.687l.117.349.368,0a.05.05,0,0,1,.029.09l-.3.219L39,154.7a.05.05,0,0,1-.076.055l-.3-.214-.3.214a.05.05,0,0,1-.076-.055l.111-.351-.3-.219a.05.05,0,0,1,.029-.09l.368,0,.117-.349A.05.05,0,0,1,38.674,153.687Z" transform="translate(-36.627 -150.929)" fill="#f5f5f5"/>
        <path id="Path_19490" data-name="Path 19490" d="M38.674,184.341l.117.349.368,0a.05.05,0,0,1,.029.09l-.3.219.111.351a.05.05,0,0,1-.076.055l-.3-.214-.3.214a.05.05,0,0,1-.076-.055l.111-.351-.3-.219a.05.05,0,0,1,.029-.09l.368,0,.117-.349A.05.05,0,0,1,38.674,184.341Z" transform="translate(-36.627 -179.755)" fill="#f5f5f5"/>
        <path id="Path_19491" data-name="Path 19491" d="M38.674,215l.117.349.368,0a.05.05,0,0,1,.029.09l-.3.219.111.351a.05.05,0,0,1-.076.055l-.3-.214-.3.214a.05.05,0,0,1-.076-.055l.111-.351-.3-.219a.05.05,0,0,1,.029-.09l.368,0L38.58,215A.05.05,0,0,1,38.674,215Z" transform="translate(-36.627 -208.582)" fill="#f5f5f5"/>
        <path id="Path_19492" data-name="Path 19492" d="M62.467,108l.117.349.368,0a.05.05,0,0,1,.029.09l-.3.219.111.351a.05.05,0,0,1-.076.055l-.3-.214-.3.214a.05.05,0,0,1-.076-.055l.111-.351-.3-.219a.05.05,0,0,1,.029-.09l.368,0,.117-.349A.05.05,0,0,1,62.467,108Z" transform="translate(-59.001 -107.969)" fill="#f5f5f5"/>
        <path id="Path_19493" data-name="Path 19493" d="M62.467,138.657l.117.349.368,0a.05.05,0,0,1,.029.09l-.3.219.111.351a.05.05,0,0,1-.076.055l-.3-.214-.3.214a.05.05,0,0,1-.076-.055l.111-.351-.3-.219a.05.05,0,0,1,.029-.09l.368,0,.117-.349A.05.05,0,0,1,62.467,138.657Z" transform="translate(-59.001 -136.796)" fill="#f5f5f5"/>
        <path id="Path_19494" data-name="Path 19494" d="M62.467,169.311l.117.349.368,0a.05.05,0,0,1,.029.09l-.3.219.111.351a.05.05,0,0,1-.076.055l-.3-.214-.3.214a.05.05,0,0,1-.076-.055l.111-.351-.3-.219a.05.05,0,0,1,.029-.09l.368,0,.117-.349A.05.05,0,0,1,62.467,169.311Z" transform="translate(-59.001 -165.622)" fill="#f5f5f5"/>
        <path id="Path_19495" data-name="Path 19495" d="M62.467,199.966l.117.349.368,0a.05.05,0,0,1,.029.09l-.3.219.111.351a.05.05,0,0,1-.076.055l-.3-.214-.3.214a.05.05,0,0,1-.076-.055l.111-.351-.3-.219a.05.05,0,0,1,.029-.09l.368,0,.117-.349A.05.05,0,0,1,62.467,199.966Z" transform="translate(-59.001 -194.449)" fill="#f5f5f5"/>
        <path id="Path_19496" data-name="Path 19496" d="M62.467,230.619l.117.349.368,0a.05.05,0,0,1,.029.09l-.3.219.111.351a.05.05,0,0,1-.076.055l-.3-.214-.3.214a.05.05,0,0,1-.076-.055l.111-.351-.3-.219a.05.05,0,0,1,.029-.09l.368,0,.117-.349A.05.05,0,0,1,62.467,230.619Z" transform="translate(-59.001 -223.274)" fill="#f5f5f5"/>
        <path id="Path_19497" data-name="Path 19497" d="M86.261,123.032l.117.349.368,0a.05.05,0,0,1,.029.09l-.3.219.111.351a.05.05,0,0,1-.076.055l-.3-.214-.3.214a.05.05,0,0,1-.076-.055l.111-.351-.3-.219a.05.05,0,0,1,.029-.09l.368,0,.117-.349A.05.05,0,0,1,86.261,123.032Z" transform="translate(-81.377 -122.102)" fill="#f5f5f5"/>
        <path id="Path_19498" data-name="Path 19498" d="M86.261,153.687l.117.349.368,0a.05.05,0,0,1,.029.09l-.3.219.111.351a.05.05,0,0,1-.076.055l-.3-.214-.3.214a.05.05,0,0,1-.076-.055l.111-.351-.3-.219a.05.05,0,0,1,.029-.09l.368,0,.117-.349A.05.05,0,0,1,86.261,153.687Z" transform="translate(-81.377 -150.929)" fill="#f5f5f5"/>
        <path id="Path_19499" data-name="Path 19499" d="M86.261,184.341l.117.349.368,0a.05.05,0,0,1,.029.09l-.3.219.111.351a.05.05,0,0,1-.076.055l-.3-.214-.3.214a.05.05,0,0,1-.076-.055l.111-.351-.3-.219a.05.05,0,0,1,.029-.09l.368,0,.117-.349A.05.05,0,0,1,86.261,184.341Z" transform="translate(-81.377 -179.755)" fill="#f5f5f5"/>
        <path id="Path_19500" data-name="Path 19500" d="M86.261,215l.117.349.368,0a.05.05,0,0,1,.029.09l-.3.219.111.351a.05.05,0,0,1-.076.055l-.3-.214-.3.214a.05.05,0,0,1-.076-.055l.111-.351-.3-.219a.05.05,0,0,1,.029-.09l.368,0,.117-.349A.05.05,0,0,1,86.261,215Z" transform="translate(-81.377 -208.582)" fill="#f5f5f5"/>
        <path id="Path_19501" data-name="Path 19501" d="M110.053,108l.117.349.368,0a.05.05,0,0,1,.029.09l-.3.219.111.351a.05.05,0,0,1-.076.055l-.3-.214-.3.214a.05.05,0,0,1-.076-.055l.111-.351-.3-.219a.05.05,0,0,1,.029-.09l.368,0,.117-.349A.05.05,0,0,1,110.053,108Z" transform="translate(-103.75 -107.969)" fill="#f5f5f5"/>
        <path id="Path_19502" data-name="Path 19502" d="M110.053,138.657l.117.349.368,0a.05.05,0,0,1,.029.09l-.3.219.111.351a.05.05,0,0,1-.076.055l-.3-.214-.3.214a.05.05,0,0,1-.076-.055l.111-.351-.3-.219a.05.05,0,0,1,.029-.09l.368,0,.117-.349A.05.05,0,0,1,110.053,138.657Z" transform="translate(-103.75 -136.796)" fill="#f5f5f5"/>
        <path id="Path_19503" data-name="Path 19503" d="M110.053,169.311l.117.349.368,0a.05.05,0,0,1,.029.09l-.3.219.111.351a.05.05,0,0,1-.076.055l-.3-.214-.3.214a.05.05,0,0,1-.076-.055l.111-.351-.3-.219a.05.05,0,0,1,.029-.09l.368,0,.117-.349A.05.05,0,0,1,110.053,169.311Z" transform="translate(-103.75 -165.622)" fill="#f5f5f5"/>
        <path id="Path_19504" data-name="Path 19504" d="M110.053,199.966l.117.349.368,0a.05.05,0,0,1,.029.09l-.3.219.111.351a.05.05,0,0,1-.076.055l-.3-.214-.3.214a.05.05,0,0,1-.076-.055l.111-.351-.3-.219a.05.05,0,0,1,.029-.09l.368,0,.117-.349A.05.05,0,0,1,110.053,199.966Z" transform="translate(-103.75 -194.449)" fill="#f5f5f5"/>
        <path id="Path_19505" data-name="Path 19505" d="M110.053,230.619l.117.349.368,0a.05.05,0,0,1,.029.09l-.3.219.111.351a.05.05,0,0,1-.076.055l-.3-.214-.3.214a.05.05,0,0,1-.076-.055l.111-.351-.3-.219a.05.05,0,0,1,.029-.09l.368,0,.117-.349A.05.05,0,0,1,110.053,230.619Z" transform="translate(-103.75 -223.274)" fill="#f5f5f5"/>
        <path id="Path_19506" data-name="Path 19506" d="M133.847,123.032l.117.349.368,0a.05.05,0,0,1,.029.09l-.3.219.111.351a.05.05,0,0,1-.076.055l-.3-.214-.3.214a.05.05,0,0,1-.076-.055l.111-.351-.3-.219a.05.05,0,0,1,.029-.09l.368,0,.117-.349A.05.05,0,0,1,133.847,123.032Z" transform="translate(-126.126 -122.102)" fill="#f5f5f5"/>
        <path id="Path_19507" data-name="Path 19507" d="M133.847,153.687l.117.349.368,0a.05.05,0,0,1,.029.09l-.3.219.111.351a.05.05,0,0,1-.076.055l-.3-.214-.3.214a.05.05,0,0,1-.076-.055l.111-.351-.3-.219a.05.05,0,0,1,.029-.09l.368,0,.117-.349A.05.05,0,0,1,133.847,153.687Z" transform="translate(-126.126 -150.929)" fill="#f5f5f5"/>
        <path id="Path_19508" data-name="Path 19508" d="M133.847,184.341l.117.349.368,0a.05.05,0,0,1,.029.09l-.3.219.111.351a.05.05,0,0,1-.076.055l-.3-.214-.3.214a.05.05,0,0,1-.076-.055l.111-.351-.3-.219a.05.05,0,0,1,.029-.09l.368,0,.117-.349A.05.05,0,0,1,133.847,184.341Z" transform="translate(-126.126 -179.755)" fill="#f5f5f5"/>
        <path id="Path_19509" data-name="Path 19509" d="M133.847,215l.117.349.368,0a.05.05,0,0,1,.029.09l-.3.219.111.351a.05.05,0,0,1-.076.055l-.3-.214-.3.214a.05.05,0,0,1-.076-.055l.111-.351-.3-.219a.05.05,0,0,1,.029-.09l.368,0,.117-.349A.05.05,0,0,1,133.847,215Z" transform="translate(-126.126 -208.582)" fill="#f5f5f5"/>
        <path id="Path_19510" data-name="Path 19510" d="M157.641,108l.117.349.368,0a.05.05,0,0,1,.029.09l-.3.219.111.351a.05.05,0,0,1-.076.055l-.3-.214-.3.214a.05.05,0,0,1-.076-.055l.111-.351-.3-.219a.05.05,0,0,1,.029-.09l.368,0,.117-.349A.05.05,0,0,1,157.641,108Z" transform="translate(-148.501 -107.969)" fill="#f5f5f5"/>
        <path id="Path_19511" data-name="Path 19511" d="M157.641,138.657l.117.349.368,0a.05.05,0,0,1,.029.09l-.3.219.111.351a.05.05,0,0,1-.076.055l-.3-.214-.3.214a.05.05,0,0,1-.076-.055l.111-.351-.3-.219a.05.05,0,0,1,.029-.09l.368,0,.117-.349A.05.05,0,0,1,157.641,138.657Z" transform="translate(-148.501 -136.796)" fill="#f5f5f5"/>
        <path id="Path_19512" data-name="Path 19512" d="M157.641,169.311l.117.349.368,0a.05.05,0,0,1,.029.09l-.3.219.111.351a.05.05,0,0,1-.076.055l-.3-.214-.3.214a.05.05,0,0,1-.076-.055l.111-.351-.3-.219a.05.05,0,0,1,.029-.09l.368,0,.117-.349A.05.05,0,0,1,157.641,169.311Z" transform="translate(-148.501 -165.622)" fill="#f5f5f5"/>
        <path id="Path_19513" data-name="Path 19513" d="M157.641,199.966l.117.349.368,0a.05.05,0,0,1,.029.09l-.3.219.111.351a.05.05,0,0,1-.076.055l-.3-.214-.3.214a.05.05,0,0,1-.076-.055l.111-.351-.3-.219a.05.05,0,0,1,.029-.09l.368,0,.117-.349A.05.05,0,0,1,157.641,199.966Z" transform="translate(-148.501 -194.449)" fill="#f5f5f5"/>
        <path id="Path_19514" data-name="Path 19514" d="M157.641,230.619l.117.349.368,0a.05.05,0,0,1,.029.09l-.3.219.111.351a.05.05,0,0,1-.076.055l-.3-.214-.3.214a.05.05,0,0,1-.076-.055l.111-.351-.3-.219a.05.05,0,0,1,.029-.09l.368,0,.117-.349A.05.05,0,0,1,157.641,230.619Z" transform="translate(-148.501 -223.274)" fill="#f5f5f5"/>
        <path id="Path_19515" data-name="Path 19515" d="M181.434,123.032l.117.349.368,0a.05.05,0,0,1,.029.09l-.3.219.111.351a.05.05,0,0,1-.076.055l-.3-.214-.3.214a.05.05,0,0,1-.076-.055l.111-.351-.3-.219a.05.05,0,0,1,.029-.09l.368,0,.117-.349A.05.05,0,0,1,181.434,123.032Z" transform="translate(-170.875 -122.102)" fill="#f5f5f5"/>
        <path id="Path_19516" data-name="Path 19516" d="M181.434,153.687l.117.349.368,0a.05.05,0,0,1,.029.09l-.3.219.111.351a.05.05,0,0,1-.076.055l-.3-.214-.3.214a.05.05,0,0,1-.076-.055l.111-.351-.3-.219a.05.05,0,0,1,.029-.09l.368,0,.117-.349A.05.05,0,0,1,181.434,153.687Z" transform="translate(-170.875 -150.929)" fill="#f5f5f5"/>
        <path id="Path_19517" data-name="Path 19517" d="M181.434,184.341l.117.349.368,0a.05.05,0,0,1,.029.09l-.3.219.111.351a.05.05,0,0,1-.076.055l-.3-.214-.3.214a.05.05,0,0,1-.076-.055l.111-.351-.3-.219a.05.05,0,0,1,.029-.09l.368,0,.117-.349A.05.05,0,0,1,181.434,184.341Z" transform="translate(-170.875 -179.755)" fill="#f5f5f5"/>
        <path id="Path_19518" data-name="Path 19518" d="M181.434,215l.117.349.368,0a.05.05,0,0,1,.029.09l-.3.219.111.351a.05.05,0,0,1-.076.055l-.3-.214-.3.214a.05.05,0,0,1-.076-.055l.111-.351-.3-.219a.05.05,0,0,1,.029-.09l.368,0,.117-.349A.05.05,0,0,1,181.434,215Z" transform="translate(-170.875 -208.582)" fill="#f5f5f5"/>
        <path id="Path_19519" data-name="Path 19519" d="M205.228,108l.117.349.368,0a.05.05,0,0,1,.029.09l-.3.219.111.351a.05.05,0,0,1-.076.055l-.3-.214-.3.214a.05.05,0,0,1-.076-.055l.111-.351-.3-.219a.05.05,0,0,1,.029-.09l.368,0,.117-.349A.05.05,0,0,1,205.228,108Z" transform="translate(-193.251 -107.969)" fill="#f5f5f5"/>
        <path id="Path_19520" data-name="Path 19520" d="M205.228,138.657l.117.349.368,0a.05.05,0,0,1,.029.09l-.3.219.111.351a.05.05,0,0,1-.076.055l-.3-.214-.3.214a.05.05,0,0,1-.076-.055l.111-.351-.3-.219a.05.05,0,0,1,.029-.09l.368,0,.117-.349A.05.05,0,0,1,205.228,138.657Z" transform="translate(-193.251 -136.796)" fill="#f5f5f5"/>
        <path id="Path_19521" data-name="Path 19521" d="M205.228,169.311l.117.349.368,0a.05.05,0,0,1,.029.09l-.3.219.111.351a.05.05,0,0,1-.076.055l-.3-.214-.3.214a.05.05,0,0,1-.076-.055l.111-.351-.3-.219a.05.05,0,0,1,.029-.09l.368,0,.117-.349A.05.05,0,0,1,205.228,169.311Z" transform="translate(-193.251 -165.622)" fill="#f5f5f5"/>
        <path id="Path_19522" data-name="Path 19522" d="M205.228,199.966l.117.349.368,0a.05.05,0,0,1,.029.09l-.3.219.111.351a.05.05,0,0,1-.076.055l-.3-.214-.3.214a.05.05,0,0,1-.076-.055l.111-.351-.3-.219a.05.05,0,0,1,.029-.09l.368,0,.117-.349A.05.05,0,0,1,205.228,199.966Z" transform="translate(-193.251 -194.449)" fill="#f5f5f5"/>
        <path id="Path_19523" data-name="Path 19523" d="M205.228,230.619l.117.349.368,0a.05.05,0,0,1,.029.09l-.3.219.111.351a.05.05,0,0,1-.076.055l-.3-.214-.3.214a.05.05,0,0,1-.076-.055l.111-.351-.3-.219a.05.05,0,0,1,.029-.09l.368,0,.117-.349A.05.05,0,0,1,205.228,230.619Z" transform="translate(-193.251 -223.274)" fill="#f5f5f5"/>
      </g>
    </g>
  </g>
</svg>
