<svg xmlns="http://www.w3.org/2000/svg" width="36" height="24" viewBox="0 0 36 24">
  <g id="flag_euro" data-name="flag / euro" transform="translate(-491 -483)">
    <rect id="Rectangle_11037" data-name="Rectangle 11037" width="36" height="24" transform="translate(491 483)" fill="none"/>
    <g id="Group_21070" data-name="Group 21070" transform="translate(493.737 396.724)">
      <path id="Path_19440" data-name="Path 19440" d="M30,108.276H.526A.526.526,0,0,1,0,107.75V88.8a.526.526,0,0,1,.526-.526H30a.526.526,0,0,1,.526.526V107.75A.526.526,0,0,1,30,108.276Z" fill="#41479b"/>
      <g id="Group_21069" data-name="Group 21069" transform="translate(7.546 90.505)">
        <path id="Path_19441" data-name="Path 19441" d="M241.642,125.717l.211.633.667.005a.09.09,0,0,1,.053.162l-.537.4.2.636a.09.09,0,0,1-.138.1l-.543-.388-.543.388a.09.09,0,0,1-.138-.1l.2-.636-.537-.4a.09.09,0,0,1,.053-.162l.667-.005.211-.633A.09.09,0,0,1,241.642,125.717Z" transform="translate(-233.711 -125.656)" fill="#ffe15a"/>
        <path id="Path_19442" data-name="Path 19442" d="M241.642,353.579l.211.633.667.005a.09.09,0,0,1,.053.162l-.537.4.2.636a.09.09,0,0,1-.138.1l-.543-.388-.543.388a.09.09,0,0,1-.138-.1l.2-.636-.537-.4a.09.09,0,0,1,.053-.162l.667-.005.211-.633A.09.09,0,0,1,241.642,353.579Z" transform="translate(-233.711 -339.932)" fill="#ffe15a"/>
        <path id="Path_19443" data-name="Path 19443" d="M355.573,239.648l.211.633.667.005a.09.09,0,0,1,.053.162l-.537.4.2.636a.09.09,0,0,1-.138.1l-.543-.388-.543.388a.09.09,0,0,1-.138-.1l.2-.636-.537-.4a.09.09,0,0,1,.053-.162l.667-.005.211-.633A.09.09,0,0,1,355.573,239.648Z" transform="translate(-340.85 -232.794)" fill="#ffe15a"/>
        <path id="Path_19444" data-name="Path 19444" d="M127.71,239.648l.211.633.667.005a.09.09,0,0,1,.053.162l-.537.4.2.636a.09.09,0,0,1-.138.1l-.543-.388-.543.388a.09.09,0,0,1-.138-.1l.2-.636-.537-.4a.09.09,0,0,1,.053-.162l.667-.005.211-.633A.09.09,0,0,1,127.71,239.648Z" transform="translate(-126.572 -232.794)" fill="#ffe15a"/>
        <path id="Path_19445" data-name="Path 19445" d="M144.814,180.152l.211.633.667.005a.09.09,0,0,1,.053.162l-.537.4.2.636a.09.09,0,0,1-.138.1l-.543-.388-.543.388a.09.09,0,0,1-.138-.1l.2-.636-.537-.4a.09.09,0,0,1,.053-.162l.667-.005.211-.633A.09.09,0,0,1,144.814,180.152Z" transform="translate(-142.656 -176.845)" fill="#ffe15a"/>
        <path id="Path_19446" data-name="Path 19446" d="M342.148,294.083l.211.633.667.005a.09.09,0,0,1,.053.162l-.537.4.2.636a.09.09,0,0,1-.138.1l-.543-.388-.543.388a.09.09,0,0,1-.138-.1l.2-.636-.537-.4a.09.09,0,0,1,.053-.162l.667-.005.211-.633A.09.09,0,0,1,342.148,294.083Z" transform="translate(-328.225 -283.983)" fill="#ffe15a"/>
        <path id="Path_19447" data-name="Path 19447" d="M300.447,138.45l.211.633.667.005a.09.09,0,0,1,.053.162l-.537.4.2.636a.09.09,0,0,1-.138.1l-.543-.388-.543.388a.09.09,0,0,1-.138-.1l.2-.636-.537-.4a.09.09,0,0,1,.053-.162l.667-.005.211-.633A.09.09,0,0,1,300.447,138.45Z" transform="translate(-289.01 -137.629)" fill="#ffe15a"/>
        <path id="Path_19448" data-name="Path 19448" d="M186.515,335.785l.211.633.667.005a.09.09,0,0,1,.053.162l-.537.4.2.636a.09.09,0,0,1-.138.1l-.543-.388-.543.388a.09.09,0,0,1-.138-.1l.2-.636-.537-.4a.09.09,0,0,1,.053-.162l.667-.005.211-.633A.09.09,0,0,1,186.515,335.785Z" transform="translate(-181.871 -323.199)" fill="#ffe15a"/>
        <path id="Path_19449" data-name="Path 19449" d="M341.978,180.152l-.211.633-.667.005a.09.09,0,0,0-.053.162l.537.4-.2.636a.09.09,0,0,0,.138.1l.543-.388.543.388a.09.09,0,0,0,.138-.1l-.2-.636.537-.4a.09.09,0,0,0-.053-.162l-.667-.005-.211-.633A.09.09,0,0,0,341.978,180.152Z" transform="translate(-328.225 -176.845)" fill="#ffe15a"/>
        <path id="Path_19450" data-name="Path 19450" d="M144.644,294.083l-.211.633-.667.005a.09.09,0,0,0-.053.162l.537.4-.2.636a.09.09,0,0,0,.138.1l.543-.388.543.388a.09.09,0,0,0,.138-.1l-.2-.636.537-.4a.09.09,0,0,0-.053-.162l-.667-.005-.211-.633A.09.09,0,0,0,144.644,294.083Z" transform="translate(-142.656 -283.983)" fill="#ffe15a"/>
        <path id="Path_19451" data-name="Path 19451" d="M186.345,138.45l-.211.633-.667.005a.09.09,0,0,0-.053.162l.537.4-.2.636a.09.09,0,0,0,.138.1l.543-.388.543.388a.09.09,0,0,0,.138-.1l-.2-.636.537-.4a.09.09,0,0,0-.053-.162l-.667-.005-.211-.633A.09.09,0,0,0,186.345,138.45Z" transform="translate(-181.871 -137.629)" fill="#ffe15a"/>
        <path id="Path_19452" data-name="Path 19452" d="M300.276,335.785l-.211.633-.667.005a.09.09,0,0,0-.053.162l.537.4-.2.636a.09.09,0,0,0,.138.1l.543-.388.543.388a.09.09,0,0,0,.138-.1l-.2-.636.537-.4a.09.09,0,0,0-.053-.162l-.667-.005-.211-.633A.09.09,0,0,0,300.276,335.785Z" transform="translate(-289.009 -323.199)" fill="#ffe15a"/>
      </g>
    </g>
  </g>
</svg>
