<svg xmlns="http://www.w3.org/2000/svg" width="36" height="24" viewBox="0 0 36 24">
  <g id="flag_australia" data-name="flag / australia" transform="translate(-491 -483)">
    <rect id="Rectangle_11037" data-name="Rectangle 11037" width="36" height="24" transform="translate(491 483)" fill="none"/>
    <g id="Group_21079" data-name="Group 21079" transform="translate(493.737 396.724)">
      <path id="Path_19465" data-name="Path 19465" d="M30,108.276H.526A.526.526,0,0,1,0,107.75V88.8a.526.526,0,0,1,.526-.526H30a.526.526,0,0,1,.526.526V107.75A.526.526,0,0,1,30,108.276Z" fill="#41479b"/>
      <path id="Path_19466" data-name="Path 19466" d="M14.737,88.277h-.914L8.947,91.471V88.277H6.316v3.194L1.44,88.277H.526A.526.526,0,0,0,0,88.8v.417l4.183,2.74H0v2.632H4.183L0,97.333v.417a.526.526,0,0,0,.526.526h.914l4.875-3.194v3.194H8.947V95.083l4.875,3.194h.914a.526.526,0,0,0,.526-.526v-.417l-4.183-2.74h4.183V91.961H11.08l4.183-2.74V88.8A.526.526,0,0,0,14.737,88.277Z" transform="translate(0 -0.001)" fill="#f5f5f5"/>
      <g id="Group_21077" data-name="Group 21077" transform="translate(0 88.276)">
        <path id="Path_19467" data-name="Path 19467" d="M15.263,92.488H8.421V88.277H6.842v4.211H0v1.579H6.842v4.211H8.421V94.066h6.842Z" transform="translate(0 -88.277)" fill="#ff4b55"/>
        <path id="Path_19468" data-name="Path 19468" d="M5.789,93.364l-5.539-3.6A.518.518,0,0,0,0,90.206v.027l4.823,3.131Z" transform="translate(0 -89.68)" fill="#ff4b55"/>
        <path id="Path_19469" data-name="Path 19469" d="M151.036,91.961l5.269-3.42a.519.519,0,0,0-.446-.264h-.114l-5.676,3.684Z" transform="translate(-141.122 -88.277)" fill="#ff4b55"/>
        <path id="Path_19470" data-name="Path 19470" d="M6.528,194.208l-5.259,3.414a.52.52,0,0,0,.451.271h.1l5.676-3.684H6.528Z" transform="translate(-1.193 -187.892)" fill="#ff4b55"/>
        <path id="Path_19471" data-name="Path 19471" d="M162.875,197.407l-4.929-3.2h-.967l5.6,3.633A.521.521,0,0,0,162.875,197.407Z" transform="translate(-147.621 -187.892)" fill="#ff4b55"/>
      </g>
      <g id="Group_21078" data-name="Group 21078" transform="translate(5.281 91.78)">
        <path id="Path_19472" data-name="Path 19472" d="M91.083,302.807l.4,1.311,1.273-.507a.118.118,0,0,1,.141.177l-.778,1.128,1.19.679a.118.118,0,0,1-.05.221l-1.367.1.211,1.354a.118.118,0,0,1-.2.1l-.927-1.009-.927,1.009a.118.118,0,0,1-.2-.1l.211-1.354-1.367-.1a.118.118,0,0,1-.05-.221l1.19-.679-.778-1.128a.118.118,0,0,1,.141-.177l1.273.507.4-1.311A.118.118,0,0,1,91.083,302.807Z" transform="translate(-88.573 -293.441)" fill="#f5f5f5"/>
        <path id="Path_19473" data-name="Path 19473" d="M373.938,147.083l.194.641.622-.248a.058.058,0,0,1,.069.086l-.38.551.581.332a.058.058,0,0,1-.025.108l-.668.047.1.661a.058.058,0,0,1-.1.048l-.453-.493-.453.493a.058.058,0,0,1-.1-.048l.1-.661-.668-.047a.058.058,0,0,1-.025-.108l.581-.332-.38-.551a.058.058,0,0,1,.069-.086l.622.248.194-.641A.058.058,0,0,1,373.938,147.083Z" transform="translate(-355.771 -147.042)" fill="#f5f5f5"/>
        <path id="Path_19474" data-name="Path 19474" d="M301.361,229.559l.194.641.622-.248a.058.058,0,0,1,.069.086l-.38.551.581.332a.058.058,0,0,1-.025.108l-.668.047.1.661a.058.058,0,0,1-.1.048l-.453-.493-.453.493a.058.058,0,0,1-.1-.048l.1-.661-.668-.047a.058.058,0,0,1-.025-.108l.581-.332-.38-.551a.058.058,0,0,1,.069-.086l.622.248.194-.641A.058.058,0,0,1,301.361,229.559Z" transform="translate(-287.521 -224.601)" fill="#f5f5f5"/>
        <path id="Path_19475" data-name="Path 19475" d="M442.6,194.248l.194.641.622-.248a.058.058,0,0,1,.069.086l-.38.551.581.332a.058.058,0,0,1-.025.108l-.668.047.1.661a.058.058,0,0,1-.1.048l-.453-.493-.453.493a.058.058,0,0,1-.1-.048l.1-.661-.668-.047a.058.058,0,0,1-.025-.108l.581-.332-.38-.551a.058.058,0,0,1,.069-.086l.622.248.194-.641A.058.058,0,0,1,442.6,194.248Z" transform="translate(-420.342 -191.395)" fill="#f5f5f5"/>
        <path id="Path_19476" data-name="Path 19476" d="M373.938,335.49l.194.641.622-.248a.058.058,0,0,1,.069.086l-.38.551.581.332a.058.058,0,0,1-.025.108l-.668.047.1.661a.058.058,0,0,1-.1.048l-.453-.493-.453.493a.058.058,0,0,1-.1-.048l.1-.661-.668-.047a.058.058,0,0,1-.025-.108l.581-.332-.38-.551a.058.058,0,0,1,.069-.086l.622.248.194-.641A.058.058,0,0,1,373.938,335.49Z" transform="translate(-355.771 -324.216)" fill="#f5f5f5"/>
        <path id="Path_19477" data-name="Path 19477" d="M407.2,248.8l-.156.467-.492,0a.066.066,0,0,0-.039.12l.4.293-.149.47a.066.066,0,0,0,.1.074l.4-.286.4.286a.066.066,0,0,0,.1-.074l-.149-.47.4-.293a.066.066,0,0,0-.039-.12l-.492,0-.156-.467A.066.066,0,0,0,407.2,248.8Z" transform="translate(-387.528 -242.689)" fill="#f5f5f5"/>
      </g>
    </g>
  </g>
</svg>
