<svg id="ic_bdsd" xmlns="http://www.w3.org/2000/svg" width="24" height="24" viewBox="0 0 24 24">
  <rect id="Rectangle_11036" data-name="Rectangle 11036" width="24" height="24" fill="none"/>
  <g id="Group_21080" data-name="Group 21080" transform="translate(-445 -956.999)">
    <path id="Subtraction_67" data-name="Subtraction 67" d="M14,13H5.643a5.1,5.1,0,0,0,.929-2.954,5.164,5.164,0,0,0-.591-2.4,1.069,1.069,0,0,1,.3.241l.007.008.291.308a2.235,2.235,0,0,0,.761.6,2.132,2.132,0,0,0,.927.212h.029a2.148,2.148,0,0,0,.949-.238,2.231,2.231,0,0,0,.752-.632l1.329-1.65a.455.455,0,0,0-.055-.625.421.421,0,0,0-.6.058L9.328,7.586l0,.005a1.343,1.343,0,0,1-.463.39,1.3,1.3,0,0,1-.58.145H8.264A1.308,1.308,0,0,1,7.7,8a1.348,1.348,0,0,1-.472-.376l-.012-.014-.3-.318a1.92,1.92,0,0,0-.663-.495,1.846,1.846,0,0,0-.756-.162H5.433c-.048,0-.1.005-.146.011A4.8,4.8,0,0,0,1.715,5.023,4.7,4.7,0,0,0,0,5.345V2A2,2,0,0,1,2,0H14a2,2,0,0,1,2,2v9A2,2,0,0,1,14,13ZM11.706,5.023h0a.344.344,0,0,1,.228.105.364.364,0,0,1,.1.254V5.4a.053.053,0,0,1,0,.006.045.045,0,0,0,0,.005l-.184,2.066a.441.441,0,0,0,.388.482l.04,0a.433.433,0,0,0,.427-.4L12.888,5.5c0-.04.005-.078.005-.117a1.259,1.259,0,0,0-.351-.878,1.18,1.18,0,0,0-.848-.366h-.019l-2.051.179a.439.439,0,0,0-.391.479.432.432,0,0,0,.427.406.247.247,0,0,0,.037,0Z" transform="translate(451 960.999)" fill="rgba(255,255,255,0.87)"/>
    <g id="Group_18980" data-name="Group 18980" transform="translate(447 967.249)">
      <path id="Subtraction_66" data-name="Subtraction 66" d="M4.375,8.75A4.375,4.375,0,1,1,8.75,4.375,4.38,4.38,0,0,1,4.375,8.75ZM3.189,5.264a.468.468,0,0,0-.331.8,2.36,2.36,0,0,0,1.082.523v.439a.469.469,0,0,0,.938,0v-.44a1.538,1.538,0,0,0,.685-.375,1.23,1.23,0,0,0,.389-.893.038.038,0,0,0,0-.01A1.232,1.232,0,0,0,5.279,4.2a3.021,3.021,0,0,0-.856-.316l-.008,0-.107-.029-.011,0L4.2,3.822a.408.408,0,0,1-.261-.191.413.413,0,0,1-.04-.307C3.94,3.2,4,3,4.484,2.97h.041a1.011,1.011,0,0,1,.65.3l.7-.629a1.969,1.969,0,0,0-.993-.567V1.639a.469.469,0,0,0-.937,0v.478A1.341,1.341,0,0,0,3,3.061a1.366,1.366,0,0,0,.122,1.028,1.346,1.346,0,0,0,.831.638l.066.018.016,0,.132.035a2.246,2.246,0,0,1,.641.225.314.314,0,0,1,.2.312.3.3,0,0,1-.1.213.7.7,0,0,1-.483.17H4.4A1.674,1.674,0,0,1,3.518,5.4.464.464,0,0,0,3.189,5.264Z" fill="rgba(255,255,255,0.87)"/>
    </g>
  </g>
</svg>
