<svg xmlns="http://www.w3.org/2000/svg" width="24" height="24" viewBox="0 0 24 24"><rect width="24" height="24" fill="none"/><path d="M20467.939-16666.467a1.237,1.237,0,0,1-1.24-1.244v-11.172a1.238,1.238,0,0,1,1.24-1.24h15.518a1.244,1.244,0,0,1,1.242,1.24v11.172a1.242,1.242,0,0,1-1.242,1.244Zm.621-2.484a.619.619,0,0,0,.621.621h13.035a.626.626,0,0,0,.623-.621v-4.967h-14.279Zm0-8.691v1.861h14.279v-1.861a.624.624,0,0,0-.623-.619h-13.035A.617.617,0,0,0,20468.561-16677.643Zm1.963,7.82a.539.539,0,0,1-.539-.541.538.538,0,0,1,.539-.539h3.6a.543.543,0,0,1,.539.539.544.544,0,0,1-.539.541Z" transform="translate(-20463.699 16685.123)" fill="rgba(255,255,255,0.87)" stroke="rgba(0,0,0,0)" stroke-width="1"/></svg>