<svg xmlns="http://www.w3.org/2000/svg" xmlns:xlink="http://www.w3.org/1999/xlink" width="24" height="24" viewBox="0 0 24 24"><defs><clipPath id="a"><rect width="24" height="24" transform="translate(543 80)" fill="#fff"/></clipPath></defs><g transform="translate(-543 -80)" clip-path="url(#a)"><path d="M14.885,20.974a.631.631,0,0,1-.167-1.239A7.747,7.747,0,0,0,12.742,4.5,9.457,9.457,0,0,0,5.626,7.9H8.087A.632.632,0,1,1,8.1,9.161H4.386a.637.637,0,0,1-.176-.025.753.753,0,0,1-.2-.1.552.552,0,0,1-.176-.193.726.726,0,0,1-.084-.26V4.715a.628.628,0,0,1,1.256,0v2A10.514,10.514,0,0,1,12.75,3.25a9,9,0,0,1,2.294,17.707A1.023,1.023,0,0,1,14.885,20.974Zm-2.729.259a.144.144,0,0,1-.059-.011,8.764,8.764,0,0,1-2.612-.586.637.637,0,0,1-.4-.594.628.628,0,0,1,.854-.578,7.724,7.724,0,0,0,2.252.511H12.2a.627.627,0,0,1,.586.636v.033a.637.637,0,0,1-.629.589Zm-4.613-1.8A.623.623,0,0,1,7.15,19.3a9.06,9.06,0,0,1-1.826-1.967.611.611,0,0,1-.117-.352.618.618,0,0,1,.276-.519.636.636,0,0,1,.867.161,7.6,7.6,0,0,0,1.586,1.689.632.632,0,0,1,.234.486.645.645,0,0,1-.134.4.623.623,0,0,1-.493.236ZM4.75,15.348a.613.613,0,0,1-.6-.436,8.964,8.964,0,0,1-.4-2.662.628.628,0,0,1,1.256,0,7.793,7.793,0,0,0,.344,2.285.714.714,0,0,1,.025.193.621.621,0,0,1-.435.594A.762.762,0,0,1,4.75,15.348ZM15.537,14.11a3.349,3.349,0,1,0-1.5,1.233A3.349,3.349,0,0,0,15.537,14.11Z" transform="translate(542.25 79.75)" fill="rgba(255,255,255,0.87)" fill-rule="evenodd"/></g></svg>