<svg xmlns="http://www.w3.org/2000/svg" xmlns:xlink="http://www.w3.org/1999/xlink" width="24" height="24" viewBox="0 0 24 24"><defs><clipPath id="a"><rect width="24" height="24" transform="translate(485 81)" fill="#fff"/></clipPath></defs><g transform="translate(-485 -81)" clip-path="url(#a)"><g transform="translate(484.307 81.036)"><path d="M16.621,5V3.651a.651.651,0,1,0-1.3,0v1.3H9.681v-1.3a.651.651,0,1,0-1.3,0V5A3.685,3.685,0,0,0,4.727,8.691a.436.436,0,0,0,.434.46H19.839a.43.43,0,0,0,.434-.46A3.685,3.685,0,0,0,16.621,5Z" fill="#fff"/><path d="M19.44,10.451H5.56a.87.87,0,0,0-.867.867v5.344c0,2.6,1.3,4.337,4.337,4.337h6.94c3.036,0,4.337-1.735,4.337-4.337V11.318a.87.87,0,0,0-.867-.867Zm-9.36,7.261a1.368,1.368,0,0,1-.13.1.659.659,0,0,1-.156.078.554.554,0,0,1-.156.052,1.181,1.181,0,0,1-.173.017.865.865,0,0,1-.33-.069.9.9,0,0,1-.286-.182.88.88,0,0,1,0-1.232.9.9,0,0,1,.286-.182.828.828,0,0,1,.5-.052.548.548,0,0,1,.156.052.656.656,0,0,1,.156.078l.13.1a.88.88,0,0,1,0,1.232Zm0-3.036a.871.871,0,0,1-1.232-1.232.866.866,0,0,1,.945-.182.809.809,0,0,1,.286.182.881.881,0,0,1,0,1.232Zm3.036,3.036a.871.871,0,1,1,.255-.616A.872.872,0,0,1,13.116,17.712Zm0-3.036-.13.1a.66.66,0,0,1-.156.078.554.554,0,0,1-.156.052,1.182,1.182,0,0,1-.173.017.859.859,0,0,1-.867-.867.912.912,0,0,1,.252-.616.809.809,0,0,1,.286-.182.866.866,0,0,1,.946.182.88.88,0,0,1,0,1.232Zm3.036,3.036a.871.871,0,1,1,.255-.616A.872.872,0,0,1,16.152,17.712Zm0-3.036-.13.1a.66.66,0,0,1-.156.078.554.554,0,0,1-.156.052,1.3,1.3,0,0,1-.173.017.859.859,0,0,1-.867-.867.912.912,0,0,1,.252-.616.9.9,0,0,1,.286-.182.828.828,0,0,1,.5-.052.548.548,0,0,1,.156.052.656.656,0,0,1,.156.078l.13.1a.88.88,0,0,1,0,1.232Z" fill="#fff"/></g></g></svg>