<svg id="icon_24px_-_system_-_delete" data-name="icon 24px - system - delete" xmlns="http://www.w3.org/2000/svg" width="24" height="24" viewBox="0 0 24 24">
  <path id="Path_68369" data-name="Path 68369" d="M0,0H24V24H0Z" fill="none"/>
  <g id="Group_22682" data-name="Group 22682" transform="translate(4.267 4)">
    <path id="Path_16582" data-name="Path 16582" d="M18.2,4.667H13.667v-1.6A1.067,1.067,0,0,0,12.6,2H8.867A1.067,1.067,0,0,0,7.8,3.067v1.6H3.267a.267.267,0,1,0,0,.533H18.2a.267.267,0,1,0,0-.533Zm-9.867-1.6a.533.533,0,0,1,.533-.533H12.6a.533.533,0,0,1,.533.533v1.6h-4.8Z" transform="translate(-3 -2)" fill="rgba(255,255,255,0.87)"/>
    <path id="Path_16583" data-name="Path 16583" d="M21.465,16h-11.2a.267.267,0,0,0-.267.285l.712,10.5a1.606,1.606,0,0,0,1.6,1.486h7.117a1.606,1.606,0,0,0,1.6-1.487l.712-10.495A.267.267,0,0,0,21.465,16Z" transform="translate(-8.132 -12.267)" fill="rgba(255,255,255,0.87)"/>
  </g>
</svg>
