<svg xmlns="http://www.w3.org/2000/svg" width="24" height="24" viewBox="0 0 24 24"><path d="M0,0H24V24H0Z" fill="none"/><path d="M4.144,5.422,1.369,2.649,2.625,1.393,20.193,18.962l-1.256,1.255L16,17.28A9.765,9.765,0,0,1,1.181,10.8,9.745,9.745,0,0,1,4.145,5.422Zm9.084,9.084-1.3-1.3a2.662,2.662,0,0,1-3.55-3.55l-1.3-1.3a4.437,4.437,0,0,0,6.148,6.148ZM7.209,3.493A9.77,9.77,0,0,1,20.381,10.8,9.714,9.714,0,0,1,18.6,14.879l-3.425-3.425a4.437,4.437,0,0,0-5.04-5.04L7.209,3.494Z" transform="translate(1.436 1.479)" fill="rgba(255,255,255,0.6)"/></svg>