<svg id="icon_24px_-_default_acc" data-name="icon 24px - default acc" xmlns="http://www.w3.org/2000/svg" width="16" height="16" viewBox="0 0 16 16">
  <rect id="Rectangle_6446" data-name="Rectangle 6446" width="16" height="16" fill="none"/>
  <path id="Path_68410" data-name="Path 68410" d="M7,14a7,7,0,1,1,7-7A7.008,7.008,0,0,1,7,14Zm.02-4.413h0l.009,0c.911.466,1.42.724,1.687.858a.51.51,0,0,0,.219.054.313.313,0,0,0,.239-.1.449.449,0,0,0,.094-.352c-.079-.738-.223-1.834-.224-1.845S9.928,7.2,10.418,6.6a.341.341,0,0,0,.06-.341.422.422,0,0,0-.343-.249C9.492,5.892,8.527,5.7,8.34,5.666h0s-.593-1.107-.976-1.8c-.135-.256-.239-.335-.3-.356A.091.091,0,0,0,7.019,3.5c-.059,0-.182.047-.342.363-.375.67-.963,1.753-.988,1.8l-.166.032c-.333.064-1.112.215-1.654.317a.424.424,0,0,0-.348.25.338.338,0,0,0,.061.339c.485.583,1.353,1.558,1.39,1.6,0,.006-.144,1.1-.226,1.843a.444.444,0,0,0,.093.349.319.319,0,0,0,.243.1A.522.522,0,0,0,5.3,10.44c.612-.3,1.525-.758,1.716-.853Z" transform="translate(1 1)" fill="rgba(255,255,255,0.87)"/>
</svg>
