<svg id="ic_hddk" xmlns="http://www.w3.org/2000/svg" width="24" height="24" viewBox="0 0 24 24">
  <g id="Group_21081" data-name="Group 21081" transform="translate(-234 -25)">
    <path id="Subtraction_69" data-name="Subtraction 69" d="M8.883,18.947H2.118A2.114,2.114,0,0,1,0,16.841V3.806A2.114,2.114,0,0,1,2.118,1.7h2.1L4.5.629A.76.76,0,0,1,5.18,0H9.188a.762.762,0,0,1,.686.63L10.153,1.7h2.1a2.113,2.113,0,0,1,2.117,2.105V10.03a5.947,5.947,0,0,0-.6-.031,5.813,5.813,0,0,0-5.824,5.79,5.743,5.743,0,0,0,.941,3.157ZM3.771,10.584a.506.506,0,0,0,0,1.012H7.826a.506.506,0,0,0,0-1.012Zm0-2.022a.505.505,0,0,0,0,1.011H8.638a.505.505,0,1,0,0-1.011Zm0-2.023a.506.506,0,0,0,0,1.012H10.6a.506.506,0,0,0,0-1.012Z" transform="translate(237 27)" fill="rgba(255,255,255,0.87)"/>
    <path id="Path_68250" data-name="Path 68250" d="M6.235,10.471a4.235,4.235,0,1,1,4.235-4.235A4.235,4.235,0,0,1,6.235,10.471Zm.424-4.235V4.118H5.812V7.082H8.353V6.235Z" transform="translate(244.53 36.579)" fill="rgba(255,255,255,0.87)"/>
  </g>
  <rect id="Rectangle_11037" data-name="Rectangle 11037" width="24" height="24" fill="none"/>
</svg>
