<svg xmlns="http://www.w3.org/2000/svg" width="48" height="48" viewBox="0 0 48 48"><g transform="translate(-559 -691)"><rect width="48" height="48" rx="24" transform="translate(559 691)" fill="rgba(255,255,255,0.12)"/><g transform="translate(559 691)"><path d="M10946.58,22909a14.421,14.421,0,0,1-8.895-2.715,9.725,9.725,0,0,1-3.685-7.928,15.59,15.59,0,0,1,2.1-7.578,14.825,14.825,0,0,1,5.445-5.576l-.111-.334h10.283l-.11.334a14.787,14.787,0,0,1,5.438,5.576,15.512,15.512,0,0,1,2.11,7.578,9.721,9.721,0,0,1-3.686,7.928A14.393,14.393,0,0,1,10946.58,22909Zm0-22.256a8.866,8.866,0,0,0-6.842,3.8,13.168,13.168,0,0,0-2.834,7.813c0,4.846,3.617,7.738,9.676,7.738s9.677-2.893,9.677-7.738a13.158,13.158,0,0,0-2.835-7.812A8.863,8.863,0,0,0,10946.58,22886.744Zm6.139-4.871h-12.276l-.635-1.908a.967.967,0,0,1,.966-.965h11.614a.967.967,0,0,1,.966.965l-.635,1.906Z" transform="translate(-10923.001 -22870)" fill="rgba(255,255,255,0.87)"/><path d="M-.08-.314H11.651L11.023,1.5H.479Z" transform="translate(17.807 12.871)" fill="rgba(255,255,255,0.87)"/><path d="M10916.423,22920.514v-.658a4.346,4.346,0,0,1-1.887-.945,1,1,0,0,1,1.4-1.422,2.832,2.832,0,0,0,1.467.5h.017l.035,0a1.113,1.113,0,0,0,.753-.26.348.348,0,0,0,.127-.26c-.006-.207-.034-.275-.282-.414a3.737,3.737,0,0,0-1.1-.391c-.114-.029-.241-.062-.385-.1a2.58,2.58,0,0,1-1.582-1.215,2.626,2.626,0,0,1-.23-1.961,2.529,2.529,0,0,1,1.668-1.76v-.736a1,1,0,1,1,2,0v.641a3.7,3.7,0,0,1,1.732,1.033l-1.481,1.338a1.576,1.576,0,0,0-1.1-.469c-.76.045-.835.3-.892.512a.557.557,0,0,0,.42.689c.138.041.265.07.373.1a5.639,5.639,0,0,1,1.588.582,2.371,2.371,0,0,1,1.283,2.123v.016a2.372,2.372,0,0,1-.742,1.715,2.911,2.911,0,0,1-1.18.678v.662a1,1,0,1,1-2,0Zm2.244-6.609,0,0,.009.008Z" transform="translate(-10893.746 -22889.281)" fill="rgba(255,255,255,0.87)"/></g></g></svg>