<svg id="ic_nkgd" xmlns="http://www.w3.org/2000/svg" width="24" height="24" viewBox="0 0 24 24">
  <path id="Path_68245" data-name="Path 68245" d="M0,0H24V24H0Z" fill="none"/>
  <path id="Subtraction_59" data-name="Subtraction 59" d="M4273.232-372H4264.9a.9.9,0,0,1-.9-.9V-381h12.5a6.485,6.485,0,0,0-4,6,6.509,6.509,0,0,0,.732,3Zm8.768-8.767h0c-.162-.084-.329-.163-.5-.233h.5v.233Zm0-2.033h-18v-4.5a.9.9,0,0,1,.9-.9h3.6V-390h1.8v1.8h5.4V-390h1.8v1.8h3.6a.9.9,0,0,1,.9.9v4.5Z" transform="translate(-4262 392)" fill="rgba(255,255,255,0.87)"/>
  <path id="Path_68247" data-name="Path 68247" d="M7,12a5,5,0,1,1,5-5A5,5,0,0,1,7,12Zm.5-5V4.5h-1V8h3V7Z" transform="translate(10 10)" fill="rgba(255,255,255,0.87)"/>
</svg>
