<svg id="ic_otp" xmlns="http://www.w3.org/2000/svg" width="24" height="24" viewBox="0 0 24 24">
  <rect id="Rectangle_11035" data-name="Rectangle 11035" width="24" height="24" fill="none"/>
  <g id="Group_21078" data-name="Group 21078" transform="translate(-7.001 -4)">
    <path id="Subtraction_64" data-name="Subtraction 64" d="M1.47,14.27a1.407,1.407,0,0,1-.464-.076,1.429,1.429,0,0,1-.847-.735A1.407,1.407,0,0,1,0,12.8V2.646A2.649,2.649,0,0,1,2.646,0H12.657A4.5,4.5,0,0,0,12.5,1.189a4.524,4.524,0,0,0,4.118,4.483v4.334a2.65,2.65,0,0,1-2.647,2.647H5.052L2.129,14.117A1.5,1.5,0,0,1,1.47,14.27Zm9.4-10.293a.441.441,0,0,0-.441.441V8a.441.441,0,0,0,.882,0V6.908h.071a1.466,1.466,0,1,0,0-2.932Zm-3.6,0a.441.441,0,0,0,0,.883H8V8A.441.441,0,0,0,8.88,8V4.859H9.6a.441.441,0,0,0,0-.883Zm-2.038,0A1.466,1.466,0,0,0,3.77,5.442V6.978a1.466,1.466,0,0,0,2.931,0V5.442A1.468,1.468,0,0,0,5.234,3.976Zm0,3.585a.584.584,0,0,1-.583-.584V5.442a.584.584,0,0,1,1.167,0V6.978A.585.585,0,0,1,5.234,7.562Zm6.146-1.537H11.31V4.859h.071a.583.583,0,1,1,0,1.165Z" transform="translate(9.001 10.301)" fill="rgba(255,255,255,0.87)"/>
    <g id="Group_21079" data-name="Group 21079" transform="translate(22.211 8)">
      <path id="Subtraction_61" data-name="Subtraction 61" d="M3.4,6.791a3.4,3.4,0,1,1,3.4-3.4A3.4,3.4,0,0,1,3.4,6.791ZM2.614,4.513a.133.133,0,0,1,.073.023,1.349,1.349,0,0,0,.146.084.129.129,0,0,1,.071.089l.09.449a.127.127,0,0,0,.123.1h.556a.127.127,0,0,0,.123-.1l.09-.449a.127.127,0,0,1,.07-.089A1.327,1.327,0,0,0,4.1,4.536a.134.134,0,0,1,.073-.023.115.115,0,0,1,.038.006l.433.147a.127.127,0,0,0,.042.007A.124.124,0,0,0,4.8,4.61l.278-.481A.127.127,0,0,0,5.05,3.97l-.343-.3a.128.128,0,0,1-.043-.107c0-.027,0-.055,0-.083s0-.055,0-.083a.128.128,0,0,1,.043-.107l.343-.3a.126.126,0,0,0,.026-.158L4.8,2.347a.127.127,0,0,0-.15-.056l-.433.147a.117.117,0,0,1-.039.007A.129.129,0,0,1,4.1,2.422a1.227,1.227,0,0,0-.146-.085.125.125,0,0,1-.07-.089L3.8,1.8a.127.127,0,0,0-.123-.1H3.117a.126.126,0,0,0-.123.1l-.09.449a.128.128,0,0,1-.071.089,1.246,1.246,0,0,0-.146.085.128.128,0,0,1-.072.022.119.119,0,0,1-.04-.007l-.433-.147a.125.125,0,0,0-.04-.007.126.126,0,0,0-.11.063l-.278.482a.125.125,0,0,0,.026.158l.342.3a.128.128,0,0,1,.043.107c0,.025,0,.051,0,.083s0,.06,0,.083a.128.128,0,0,1-.043.107l-.342.3a.127.127,0,0,0-.026.159l.278.481a.124.124,0,0,0,.109.064.122.122,0,0,0,.041-.007l.433-.147A.118.118,0,0,1,2.614,4.513ZM3.4,3.978h0a.987.987,0,0,0-.187-.12A.383.383,0,0,1,3.16,3.83a.949.949,0,0,0-.2-.1,1.04,1.04,0,0,0,.01-.22c0-.01,0-.02,0-.03s0-.02,0-.03a.952.952,0,0,0-.011-.218,1.046,1.046,0,0,0,.2-.1A.376.376,0,0,1,3.208,3.1.992.992,0,0,0,3.4,2.98a1.045,1.045,0,0,0,.187.12.521.521,0,0,1,.046.026,1,1,0,0,0,.2.1,1.054,1.054,0,0,0-.01.222c0,.007,0,.016,0,.028V3.5a.979.979,0,0,0,.01.224,1.035,1.035,0,0,0-.2.1.555.555,0,0,1-.05.029.982.982,0,0,0-.185.119Z" transform="translate(0 0)" fill="rgba(255,255,255,0.87)"/>
    </g>
  </g>
</svg>
