<svg id="ic_ptxt" xmlns="http://www.w3.org/2000/svg" width="24" height="24" viewBox="0 0 24 24">
  <rect id="Rectangle_11034" data-name="Rectangle 11034" width="24" height="24" fill="none"/>
  <g id="Group_21077" data-name="Group 21077" transform="translate(-626.807 -179)">
    <path id="Subtraction_62" data-name="Subtraction 62" d="M4972.89-301a1.938,1.938,0,0,1-.42-.04,1.714,1.714,0,0,1-.274-.07,11.34,11.34,0,0,1-4.212-2.481,9.031,9.031,0,0,1-2.192-3.4,18.108,18.108,0,0,1-.775-6.715v-.058l.009-.264.009-.271a2.607,2.607,0,0,1,2.465-2.553,5.861,5.861,0,0,0,4.032-1.678,2,2,0,0,1,1.363-.537,1.955,1.955,0,0,1,1.276.508,6.754,6.754,0,0,0,.637.546,4.535,4.535,0,0,0-.114,1.013,4.5,4.5,0,0,0,4.5,4.5,4.491,4.491,0,0,0,1.538-.27,16.182,16.182,0,0,1-.792,5.78,9.146,9.146,0,0,1-2.2,3.4,11.288,11.288,0,0,1-4.2,2.476,1.7,1.7,0,0,1-.279.075A1.743,1.743,0,0,1,4972.89-301Zm-.423-12.217a3.207,3.207,0,0,0-2.823,3.081c0,.041,0,.077,0,.118a3.385,3.385,0,0,0,.051.572l0,.009v.005a3.214,3.214,0,0,0,2.993,2.622l.176.008h.177l.013,0v-6.055a2.846,2.846,0,0,1,2.59,2.243.032.032,0,0,0,0,.009.931.931,0,0,1,.016.131.589.589,0,0,1-.383.545c-.063.005-.115.008-.165.008h-1.849v3.082a3.208,3.208,0,0,0,2.823-3.079v-.061c0-.019,0-.039,0-.058a3.092,3.092,0,0,0-.051-.573v-.007a.036.036,0,0,1,0-.006,3.212,3.212,0,0,0-2.994-2.622l-.176-.008h-.19v6.055a2.844,2.844,0,0,1-2.59-2.241.811.811,0,0,1-.018-.14.587.587,0,0,1,.388-.545,1.528,1.528,0,0,1,.161-.009h1.849v-3.081Z" transform="translate(-4335.193 502)" fill="rgba(255,255,255,0.87)"/>
    <g id="Group_18994" data-name="Group 18994" transform="translate(640.319 181)">
      <path id="Subtraction_61" data-name="Subtraction 61" d="M4330.681-495a4,4,0,0,1-4-4,4,4,0,0,1,4-4,4,4,0,0,1,4,4A4,4,0,0,1,4330.681-495Zm-.92-2.684a.157.157,0,0,1,.086.027,1.6,1.6,0,0,0,.172.1.151.151,0,0,1,.083.1l.105.529a.15.15,0,0,0,.146.121h.655a.15.15,0,0,0,.146-.121l.105-.529a.149.149,0,0,1,.083-.1,1.594,1.594,0,0,0,.172-.1.156.156,0,0,1,.086-.027.136.136,0,0,1,.045.008l.51.173a.15.15,0,0,0,.049.008.146.146,0,0,0,.128-.075l.328-.567a.15.15,0,0,0-.03-.187l-.4-.355a.151.151,0,0,1-.05-.126c0-.032,0-.065,0-.1s0-.065,0-.1a.151.151,0,0,1,.05-.126l.4-.355a.148.148,0,0,0,.03-.186l-.328-.568a.149.149,0,0,0-.129-.074.149.149,0,0,0-.048.008l-.51.173a.139.139,0,0,1-.046.008.151.151,0,0,1-.085-.026,1.468,1.468,0,0,0-.172-.1.147.147,0,0,1-.083-.1l-.105-.529a.149.149,0,0,0-.146-.12h-.655a.149.149,0,0,0-.146.12l-.105.529a.15.15,0,0,1-.083.1,1.468,1.468,0,0,0-.172.1.151.151,0,0,1-.085.026.139.139,0,0,1-.046-.008l-.51-.173a.149.149,0,0,0-.048-.008.149.149,0,0,0-.129.074l-.328.568a.147.147,0,0,0,.031.186l.4.355a.151.151,0,0,1,.05.126c0,.029,0,.06,0,.1s0,.07,0,.1a.151.151,0,0,1-.05.126l-.4.355a.15.15,0,0,0-.031.187l.328.567a.146.146,0,0,0,.128.075.145.145,0,0,0,.049-.008l.51-.173A.137.137,0,0,1,4329.761-497.684Zm.92-.63h0a1.161,1.161,0,0,0-.22-.141.438.438,0,0,1-.057-.033,1.125,1.125,0,0,0-.232-.12,1.216,1.216,0,0,0,.012-.259c0-.012,0-.024,0-.036s0-.024,0-.036a1.122,1.122,0,0,0-.013-.257,1.248,1.248,0,0,0,.233-.121.431.431,0,0,1,.057-.033,1.17,1.17,0,0,0,.221-.141,1.225,1.225,0,0,0,.221.141c.018.008.036.02.055.031a1.166,1.166,0,0,0,.234.122,1.232,1.232,0,0,0-.012.261.308.308,0,0,1,0,.033v.029a1.145,1.145,0,0,0,.012.264,1.216,1.216,0,0,0-.233.121.664.664,0,0,1-.059.034,1.151,1.151,0,0,0-.218.14Z" transform="translate(-4327 503)" fill="rgba(255,255,255,0.87)"/>
    </g>
  </g>
</svg>
