<svg id="ic_safafi" xmlns="http://www.w3.org/2000/svg" width="24" height="24" viewBox="0 0 24 24">
  <path id="Path_68318" data-name="Path 68318" d="M0,0H24V24H0Z" fill="none"/>
  <g id="Group_20621" data-name="Group 20621">
    <path id="Path_68323" data-name="Path 68323" d="M0,0H24V24H0Z" fill="none"/>
    <path id="Path_68324" data-name="Path 68324" d="M16.7,6.8l-6.114,3.786L6.8,16.7l-.1-.1L5.281,18.01l.708.708L7.4,17.3l-.1-.1,6.114-3.785L17.2,7.3l.1.1L18.719,5.99l-.708-.708L16.6,6.7l.1.1ZM12,22A10,10,0,1,1,22,12,10,10,0,0,1,12,22ZM11.5,3V5h1V3Zm0,16v2h1V19ZM8.094,3.876l.765,1.848.924-.382L9.018,3.494Zm6.123,14.782.765,1.848.924-.382-.765-1.848Zm.765-15.164-.765,1.848.924.382.765-1.848ZM8.86,18.276l-.765,1.848.924.382.765-1.848ZM21,11.5H19v1h2Zm-16,0H3v1H5Zm15.458,3.615-1.835-.794-.4.918,1.835.794.4-.918ZM5.774,8.761,3.94,7.967l-.4.918,1.835.794.4-.918Zm14.35-.667-1.848.765.382.924,1.848-.765ZM5.342,14.217l-1.848.765.382.924,1.848-.765ZM18.718,18.01,17.3,16.6,16.6,17.3l1.414,1.415.708-.708ZM7.4,6.7,5.99,5.282l-.708.708L6.7,7.4,7.4,6.7Zm3.908,4.615,3.611-2.235-2.235,3.61Z" fill="rgba(255,255,255,0.87)"/>
  </g>
</svg>
