<svg id="ic_tablet" xmlns="http://www.w3.org/2000/svg" width="24" height="24" viewBox="0 0 24 24">
  <path id="Path_68318" data-name="Path 68318" d="M0,0H24V24H0Z" fill="none"/>
  <path id="Path_68322" data-name="Path 68322" d="M124,0H111.143a1.43,1.43,0,0,0-1.429,1.429V18.571A1.43,1.43,0,0,0,111.143,20H124a1.43,1.43,0,0,0,1.429-1.429V1.429A1.43,1.43,0,0,0,124,0Zm-6.429,16.964a.893.893,0,1,1,.893-.893A.893.893,0,0,1,117.571,16.964Z" transform="translate(21.855 -105.571) rotate(90)" fill="rgba(255,255,255,0.87)"/>
</svg>
