<svg id="Group_22722" data-name="Group 22722" xmlns="http://www.w3.org/2000/svg" width="24" height="24" viewBox="0 0 24 24">
  <rect id="Rectangle_6165" data-name="Rectangle 6165" width="24" height="24" fill="none"/>
  <path id="Union_81" data-name="Union 81" d="M1.261,10.885a3.21,3.21,0,0,1,3.9-5.1l.352.271.271-.352a3.2,3.2,0,0,1,4.5-.6,3.262,3.262,0,0,1,.624,4.527l-.271.353-3.931,5.1Zm10.085.162.488-.65A4.6,4.6,0,0,0,10.993,4a4.419,4.419,0,0,0-2.439-.922H8.445a4.442,4.442,0,0,1,8.079-.841l.3.542.542-.3a4.433,4.433,0,0,1,6.045,1.654,4.373,4.373,0,0,1-1.654,6.019l-.542.3-7.7,4.391Z" transform="translate(0.001 4.564)" fill="rgba(255,255,255,0.87)"/>
</svg>
