<svg width="25" height="24" viewBox="0 0 25 24" fill="none" xmlns="http://www.w3.org/2000/svg">
<path fill-rule="evenodd" clip-rule="evenodd" d="M14.7184 20.974C14.5659 20.9736 14.4188 20.918 14.3042 20.8175C14.1896 20.717 14.1152 20.5784 14.0948 20.4273C14.0745 20.2762 14.1095 20.1229 14.1934 19.9956C14.2773 19.8684 14.4045 19.7758 14.5514 19.735C16.3714 19.2551 17.9545 18.1291 19.0049 16.5672C20.0552 15.0053 20.501 13.1144 20.259 11.2478C20.0169 9.38115 19.1036 7.66651 17.6896 6.42417C16.2756 5.18184 14.4576 4.49679 12.5754 4.49701C11.2144 4.51827 9.87415 4.83305 8.64604 5.41984C7.41793 6.00662 6.33096 6.85159 5.45937 7.89701H7.92037C8.08799 7.89595 8.24916 7.96152 8.36844 8.07929C8.48771 8.19707 8.55531 8.3574 8.55637 8.52501C8.55744 8.69263 8.49187 8.8538 8.37409 8.97308C8.25632 9.09235 8.09599 9.15995 7.92837 9.16101H4.21937C4.15983 9.16095 4.10058 9.15253 4.04337 9.13601C3.9721 9.11282 3.90469 9.07912 3.84337 9.03601C3.77011 8.98669 3.70976 8.9205 3.66737 8.84301C3.62317 8.76245 3.59467 8.67422 3.58337 8.58301V4.71501C3.58442 4.54878 3.65092 4.38966 3.76847 4.27211C3.88602 4.15456 4.04514 4.08806 4.21137 4.08701C4.37761 4.08806 4.53673 4.15456 4.65428 4.27211C4.77182 4.38966 4.83833 4.54878 4.83937 4.71501V6.71501C5.81867 5.6312 7.01305 4.76334 8.34637 4.16676C9.67969 3.57017 11.1227 3.25795 12.5834 3.25001C14.7729 3.24605 16.8887 4.04036 18.5346 5.48419C20.1806 6.92802 21.2438 8.92235 21.5251 11.0937C21.8064 13.265 21.2865 15.4644 20.0628 17.28C18.8391 19.0956 16.9956 20.4029 14.8774 20.957C14.8249 20.9668 14.7717 20.9725 14.7184 20.974ZM11.9894 21.2331C11.9692 21.2336 11.949 21.2299 11.9304 21.2221C11.0348 21.1617 10.1539 20.964 9.31839 20.6361C9.19985 20.5886 9.09834 20.5065 9.02701 20.4006C8.95568 20.2947 8.91784 20.1698 8.91839 20.0421C8.91966 19.9408 8.94542 19.8413 8.99348 19.7521C9.04153 19.6629 9.11044 19.5867 9.19434 19.5299C9.27823 19.4731 9.37462 19.4375 9.47528 19.426C9.57593 19.4145 9.67787 19.4276 9.77239 19.4641C10.4932 19.7463 11.2523 19.9186 12.0244 19.9751H12.0324C12.193 19.9856 12.3435 20.0575 12.4526 20.1759C12.5617 20.2943 12.621 20.4501 12.6184 20.6111V20.6441C12.6064 20.8032 12.5351 20.952 12.4186 21.0611C12.3021 21.1701 12.1489 21.2315 11.9894 21.2331ZM7.37639 19.4331C7.2339 19.4347 7.09517 19.3874 6.98339 19.2991C6.28044 18.7377 5.66502 18.0748 5.15739 17.3321C5.08285 17.2297 5.04197 17.1067 5.04039 16.9801C5.03968 16.8774 5.06454 16.7763 5.11273 16.6857C5.16091 16.595 5.23091 16.5179 5.31639 16.4611C5.45369 16.3706 5.62068 16.3369 5.78232 16.3669C5.94396 16.3969 6.0877 16.4884 6.18339 16.6221C6.62262 17.2628 7.1575 17.8324 7.76939 18.3111C7.84183 18.3698 7.90038 18.4438 7.94084 18.5279C7.98129 18.6119 8.00265 18.7038 8.00339 18.7971C8.00482 18.9417 7.95762 19.0825 7.86939 19.1971C7.81055 19.2713 7.73558 19.3311 7.65015 19.372C7.56472 19.4129 7.47109 19.4338 7.37639 19.4331ZM4.58339 15.3481C4.44948 15.3509 4.31832 15.3098 4.20996 15.2311C4.10161 15.1524 4.02203 15.0403 3.98339 14.9121C3.7168 14.0499 3.58195 13.1525 3.58339 12.2501C3.58443 12.0838 3.65094 11.9247 3.76848 11.8072C3.88603 11.6896 4.04515 11.6231 4.21139 11.6221C4.37762 11.6231 4.53674 11.6896 4.65429 11.8072C4.77184 11.9247 4.83834 12.0838 4.83939 12.2501C4.83986 13.0246 4.95581 13.7947 5.18339 14.5351C5.20049 14.598 5.2089 14.6629 5.20839 14.7281C5.20871 14.8605 5.16667 14.9896 5.08841 15.0965C5.01014 15.2034 4.89976 15.2824 4.77339 15.3221C4.7114 15.3387 4.64756 15.3475 4.58339 15.3481ZM15.3704 14.1103C15.7383 13.5596 15.9347 12.9122 15.9347 12.2499C15.9347 11.8099 15.848 11.3743 15.6796 10.9678C15.5111 10.5614 15.2643 10.1921 14.9531 9.88107C14.6419 9.57006 14.2725 9.32342 13.8659 9.15523C13.4594 8.98705 13.0237 8.90062 12.5837 8.90088C11.9214 8.90128 11.2741 9.09803 10.7236 9.46626C10.1732 9.83449 9.74422 10.3577 9.49105 10.9697C9.23788 11.5816 9.17184 12.255 9.30129 12.9045C9.43074 13.554 9.74986 14.1505 10.2183 14.6187C10.6867 15.0869 11.2835 15.4056 11.9331 15.5347C12.5827 15.6637 13.2559 15.5973 13.8678 15.3438C14.4796 15.0902 15.0025 14.661 15.3704 14.1103Z" fill="white" fill-opacity="0.87"/>
</svg>
