<svg width="24" height="24" viewBox="0 0 24 24" fill="none" xmlns="http://www.w3.org/2000/svg">
<path fill-rule="evenodd" clip-rule="evenodd" d="M14.9338 6.667H19.4668C19.5032 6.66477 19.5396 6.67001 19.5739 6.68239C19.6082 6.69478 19.6395 6.71405 19.6661 6.73901C19.6926 6.76398 19.7138 6.79411 19.7282 6.82756C19.7427 6.86101 19.7502 6.89706 19.7502 6.9335C19.7502 6.96994 19.7427 7.00599 19.7282 7.03944C19.7138 7.07289 19.6926 7.10302 19.6661 7.12799C19.6395 7.15295 19.6082 7.17222 19.5739 7.1846C19.5396 7.19699 19.5032 7.20223 19.4668 7.2H4.53382C4.49745 7.20223 4.46101 7.19699 4.42674 7.1846C4.39247 7.17222 4.3611 7.15295 4.33456 7.12799C4.30801 7.10302 4.28686 7.07289 4.2724 7.03944C4.25795 7.00599 4.25049 6.96994 4.25049 6.9335C4.25049 6.89706 4.25795 6.86101 4.2724 6.82756C4.28686 6.79411 4.30801 6.76398 4.33456 6.73901C4.3611 6.71405 4.39247 6.69478 4.42674 6.68239C4.46101 6.67001 4.49745 6.66477 4.53382 6.667H9.06682V5.067C9.06682 4.78401 9.17924 4.51262 9.37934 4.31252C9.57944 4.11242 9.85083 4 10.1338 4H13.8668C14.1498 4 14.4212 4.11242 14.6213 4.31252C14.8214 4.51262 14.9338 4.78401 14.9338 5.067V6.667ZM9.75593 4.69011C9.65598 4.79007 9.59982 4.92564 9.59982 5.067V6.667H14.3998V5.067C14.3998 4.92564 14.3437 4.79007 14.2437 4.69011C14.1438 4.59016 14.0082 4.534 13.8668 4.534H10.1328C9.99146 4.534 9.85589 4.59016 9.75593 4.69011ZM6.39981 7.733H17.5998C17.6374 7.73188 17.6748 7.73871 17.7095 7.75305C17.7443 7.76738 17.7756 7.78889 17.8015 7.81618C17.8274 7.84346 17.8472 7.87589 17.8596 7.91136C17.8721 7.94683 17.8769 7.98453 17.8738 8.022L17.1618 18.517C17.1318 18.9209 16.9502 19.2986 16.6535 19.5744C16.3568 19.8501 15.9669 20.0036 15.5618 20.004H8.44481C8.03991 20.0036 7.65009 19.8503 7.3534 19.5748C7.05672 19.2992 6.87506 18.9218 6.84481 18.518L6.13281 8.018C6.13034 7.98145 6.13542 7.94479 6.14773 7.91029C6.16003 7.87578 6.17931 7.84418 6.20435 7.81745C6.2294 7.79072 6.25967 7.76943 6.2933 7.7549C6.32692 7.74037 6.36318 7.73291 6.39981 7.733Z" fill="white" fill-opacity="0.87"/>
</svg>
