<svg id="icon_24px_-_footer_-_stack" data-name="icon 24px - footer - stack" xmlns="http://www.w3.org/2000/svg" width="24" height="24" viewBox="0 0 24 24">
  <rect id="Rectangle_5690" data-name="Rectangle 5690" width="24" height="24" fill="none"/>
  <path id="Path_68452" data-name="Path 68452" d="M14.183,18H3.333A3.342,3.342,0,0,1,0,14.667V3.333A3.341,3.341,0,0,1,3.333,0H14.667A3.341,3.341,0,0,1,18,3.333v10.5l-1.607-1.607a5.565,5.565,0,0,0-2.861-1.53l-2.187-.442-.029,0a.752.752,0,0,0-.124-.013.776.776,0,0,0-.757.629.86.86,0,0,0,0,.3l.433,2.2a5.644,5.644,0,0,0,1.53,2.852L14.181,18ZM3.986,6.666a.9.9,0,1,0,0,1.8h9.9a.9.9,0,1,0,0-1.8Zm3.6-3.6a.9.9,0,1,0,0,1.8h6.3a.9.9,0,1,0,0-1.8Zm-3.6,0a.9.9,0,1,0,.9.9A.9.9,0,0,0,3.986,3.066ZM17.1,17.961a1,1,0,0,1-.72-.306l-2.709-2.709a3.74,3.74,0,0,1-1.035-1.935l-.145-.684.684.135A3.685,3.685,0,0,1,15.115,13.5l2.718,2.709A1.045,1.045,0,0,1,18,16.43v1a1.039,1.039,0,0,1-.9.527Z" transform="translate(3 3)" fill="rgba(255,255,255,0.87)"/>
</svg>
