<svg id="Icon_-_Favourist_-_Gift" data-name="Icon - Favourist - Gift" xmlns="http://www.w3.org/2000/svg" width="24" height="24" viewBox="0 0 24 24">
  <rect id="Rectangle_6164" data-name="Rectangle 6164" width="24" height="24" fill="none"/>
  <path id="Path_68449" data-name="Path 68449" d="M13497.177,24182a.378.378,0,0,1-.376-.377v-6.963a.378.378,0,0,1,.376-.377h13.651a.377.377,0,0,1,.374.377v6.963a.377.377,0,0,1-.374.377Zm7.5-8.572v-4.287h7.951a.376.376,0,0,1,.373.377v3.533a.376.376,0,0,1-.373.377Zm-9.3,0a.376.376,0,0,1-.374-.377v-3.533a.376.376,0,0,1,.374-.377h7.95v4.287Zm8.624-5.145s.9-4.285,4.052-4.285a2.145,2.145,0,1,1,0,4.285Zm-4.049,0a2.145,2.145,0,1,1,0-4.285c3.149,0,4.049,4.285,4.049,4.285Z" transform="translate(-13492.002 -24161)" fill="rgba(255,255,255,0.87)"/>
</svg>
