<svg width="25" height="24" viewBox="0 0 25 24" fill="none" xmlns="http://www.w3.org/2000/svg">
<path d="M12.501 18.801C12.3957 18.8016 12.2914 18.7814 12.1939 18.7416C12.0964 18.7018 12.0078 18.6431 11.933 18.569L5.71702 12.344C5.31719 11.9579 4.99827 11.496 4.77886 10.9852C4.55946 10.4745 4.44396 9.92522 4.43912 9.3694C4.43428 8.81357 4.54019 8.26234 4.75067 7.74788C4.96114 7.23343 5.27197 6.76604 5.66502 6.37299C6.05806 5.97995 6.52545 5.66912 7.03991 5.45864C7.55437 5.24817 8.10559 5.14226 8.66142 5.1471C9.21725 5.15194 9.76655 5.26743 10.2773 5.48684C10.788 5.70624 11.2499 6.02516 11.636 6.425L12.501 7.289L13.365 6.425C13.7512 6.02516 14.2131 5.70624 14.7238 5.48684C15.2345 5.26743 15.7838 5.15194 16.3396 5.1471C16.8954 5.14226 17.4467 5.24817 17.9611 5.45864C18.4756 5.66912 18.943 5.97995 19.336 6.37299C19.7291 6.76604 20.0399 7.23343 20.2504 7.74788C20.4608 8.26234 20.5668 8.81357 20.5619 9.3694C20.5571 9.92522 20.4416 10.4745 20.2222 10.9852C20.0028 11.496 19.6839 11.9579 19.284 12.344L13.069 18.567C12.9944 18.6415 12.9059 18.7005 12.8084 18.7407C12.7109 18.7808 12.6064 18.8013 12.501 18.801Z" fill="#DEB331"/>
</svg>
