<svg width="24" height="24" viewBox="0 0 24 24" fill="none" xmlns="http://www.w3.org/2000/svg">
<path d="M17.08 20.8731H6.40598C5.53689 20.871 4.70399 20.5248 4.08935 19.9104C3.47472 19.2959 3.12835 18.4632 3.12598 17.5941V6.44306C3.12809 5.57407 3.47423 4.74127 4.08871 4.12679C4.70318 3.51232 5.53598 3.16617 6.40498 3.16406H17.556C18.4251 3.16617 19.258 3.51229 19.8726 4.12673C20.4872 4.74118 20.8336 5.57398 20.836 6.44306V16.7761L19.254 15.1941C18.4853 14.4258 17.5054 13.9036 16.439 13.6941L14.287 13.2591H14.259C14.2187 13.2514 14.1779 13.247 14.137 13.2461C13.9605 13.2473 13.7899 13.3096 13.6543 13.4225C13.5186 13.5354 13.4263 13.6918 13.393 13.8651C13.3761 13.9617 13.3761 14.0605 13.393 14.1571L13.819 16.3181C14.0346 17.3797 14.556 18.3551 15.319 19.1241L17.074 20.8791L17.08 20.8731ZM7.04698 9.72206C6.93076 9.72206 6.81568 9.74495 6.7083 9.78943C6.60093 9.8339 6.50337 9.89909 6.42119 9.98127C6.33901 10.0635 6.27382 10.161 6.22934 10.2684C6.18487 10.3758 6.16198 10.4908 6.16198 10.6071C6.16198 10.7233 6.18487 10.8384 6.22934 10.9457C6.27382 11.0531 6.33901 11.1507 6.42119 11.2329C6.50337 11.315 6.60093 11.3802 6.7083 11.4247C6.81568 11.4692 6.93076 11.4921 7.04698 11.4921H16.787C16.9032 11.4921 17.0183 11.4692 17.1257 11.4247C17.233 11.3802 17.3306 11.315 17.4128 11.2329C17.4949 11.1507 17.5601 11.0531 17.6046 10.9457C17.6491 10.8384 17.672 10.7233 17.672 10.6071C17.672 10.4908 17.6491 10.3758 17.6046 10.2684C17.5601 10.161 17.4949 10.0635 17.4128 9.98127C17.3306 9.89909 17.233 9.8339 17.1257 9.78943C17.0183 9.74495 16.9032 9.72206 16.787 9.72206H7.04698ZM10.59 6.18106C10.3553 6.18106 10.1302 6.2743 9.96419 6.44027C9.79822 6.60624 9.70498 6.83135 9.70498 7.06606C9.70498 7.30078 9.79822 7.52588 9.96419 7.69185C10.1302 7.85782 10.3553 7.95106 10.59 7.95106H16.79C17.0247 7.95106 17.2498 7.85782 17.4158 7.69185C17.5817 7.52588 17.675 7.30078 17.675 7.06606C17.675 6.83135 17.5817 6.60624 17.4158 6.44027C17.2498 6.2743 17.0247 6.18106 16.79 6.18106H10.59ZM7.04798 6.18106C6.87298 6.18126 6.70198 6.23333 6.55657 6.3307C6.41116 6.42806 6.29789 6.56635 6.23106 6.72808C6.16423 6.88981 6.14684 7.06772 6.1811 7.23933C6.21536 7.41094 6.29973 7.56853 6.42354 7.6922C6.54735 7.81587 6.70504 7.90006 6.87669 7.93413C7.04834 7.9682 7.22623 7.95061 7.38788 7.8836C7.54954 7.81659 7.6877 7.70315 7.7849 7.55764C7.8821 7.41212 7.93398 7.24106 7.93398 7.06606C7.93385 6.94971 7.9108 6.83453 7.86615 6.72708C7.8215 6.61964 7.75613 6.52204 7.67377 6.43986C7.5914 6.35768 7.49366 6.29253 7.38611 6.24812C7.27857 6.20372 7.16433 6.18093 7.04798 6.18106ZM19.953 20.8351C19.8209 20.835 19.6901 20.8085 19.5685 20.7569C19.4469 20.7054 19.3369 20.6299 19.245 20.5351L16.58 17.8641C16.0586 17.3466 15.704 16.6848 15.562 15.9641L15.42 15.2911L16.093 15.4241C16.8149 15.563 17.4775 15.918 17.993 16.4421L20.667 19.1071C20.7317 19.173 20.7872 19.2473 20.832 19.3281V20.3151C20.7435 20.4714 20.6154 20.6017 20.4605 20.6928C20.3057 20.7839 20.1296 20.8326 19.95 20.8341L19.953 20.8351Z" fill="white" fill-opacity="0.87"/>
</svg>
