<svg width="25" height="24" viewBox="0 0 25 24" fill="none" xmlns="http://www.w3.org/2000/svg">
<path d="M16.621 4.99994V3.65094C16.6259 3.56254 16.6127 3.47408 16.5823 3.39095C16.5518 3.30783 16.5047 3.23178 16.4439 3.16747C16.383 3.10317 16.3097 3.05194 16.2284 3.01693C16.1471 2.98192 16.0595 2.96387 15.971 2.96387C15.8825 2.96387 15.7949 2.98192 15.7135 3.01693C15.6322 3.05194 15.5589 3.10317 15.4981 3.16747C15.4372 3.23178 15.3901 3.30783 15.3597 3.39095C15.3292 3.47408 15.3161 3.56254 15.321 3.65094V4.95094H9.68098V3.65094C9.68588 3.56254 9.67271 3.47408 9.64226 3.39095C9.61181 3.30783 9.56473 3.23178 9.50389 3.16747C9.44305 3.10317 9.36973 3.05194 9.28842 3.01693C9.20711 2.98192 9.11951 2.96387 9.03098 2.96387C8.94245 2.96387 8.85485 2.98192 8.77354 3.01693C8.69223 3.05194 8.61891 3.10317 8.55807 3.16747C8.49723 3.23178 8.45015 3.30783 8.4197 3.39095C8.38925 3.47408 8.37607 3.56254 8.38098 3.65094V4.99994C7.408 5.00812 6.47774 5.40079 5.79319 6.09228C5.10864 6.78376 4.72536 7.71792 4.72698 8.69094C4.72372 8.75001 4.73252 8.80913 4.75285 8.8647C4.77317 8.92026 4.80459 8.97111 4.84519 9.01414C4.88579 9.05718 4.93473 9.0915 4.98902 9.11502C5.04331 9.13853 5.10181 9.15075 5.16098 9.15094H19.839C19.8984 9.15163 19.9573 9.14001 20.012 9.11679C20.0667 9.09358 20.116 9.05928 20.1568 9.01605C20.1976 8.97283 20.229 8.92163 20.249 8.86567C20.2689 8.80971 20.2771 8.75022 20.273 8.69094C20.2746 7.71827 19.8916 6.7844 19.2075 6.09298C18.5234 5.40155 17.5936 5.00865 16.621 4.99994Z" fill="white" fill-opacity="0.87"/>
<path d="M19.44 10.4512H5.55999C5.33029 10.452 5.11023 10.5436 4.94781 10.706C4.78538 10.8684 4.69378 11.0885 4.69299 11.3182V16.6622C4.69299 19.2622 5.99299 20.9992 9.02999 20.9992H15.97C19.006 20.9992 20.307 19.2642 20.307 16.6622V11.3182C20.3062 11.0885 20.2146 10.8684 20.0522 10.706C19.8898 10.5436 19.6697 10.452 19.44 10.4512ZM10.08 17.7122C10.0387 17.7481 9.99529 17.7815 9.94999 17.8122C9.90169 17.845 9.84923 17.8712 9.79399 17.8902C9.74489 17.9152 9.6923 17.9327 9.63799 17.9422C9.58082 17.9521 9.523 17.9578 9.46499 17.9592C9.35153 17.9581 9.2394 17.9346 9.13499 17.8902C9.02899 17.8482 8.93194 17.7864 8.84899 17.7082C8.68775 17.5437 8.59744 17.3225 8.59744 17.0922C8.59744 16.8618 8.68775 16.6407 8.84899 16.4762C8.93194 16.3979 9.02899 16.3362 9.13499 16.2942C9.29226 16.2255 9.46696 16.2073 9.63499 16.2422C9.6893 16.2516 9.74189 16.2691 9.79099 16.2942C9.84623 16.3131 9.89869 16.3394 9.94699 16.3722L10.077 16.4722C10.2382 16.6367 10.3285 16.8578 10.3285 17.0882C10.3285 17.3185 10.2382 17.5397 10.077 17.7042L10.08 17.7122ZM10.08 14.6762C9.9155 14.8374 9.69434 14.9277 9.46399 14.9277C9.23365 14.9277 9.01249 14.8374 8.84799 14.6762C8.68675 14.5117 8.59644 14.2905 8.59644 14.0602C8.59644 13.8298 8.68675 13.6087 8.84799 13.4442C8.96985 13.3238 9.12467 13.2422 9.29288 13.2098C9.4611 13.1774 9.63514 13.1956 9.79299 13.2622C9.9001 13.302 9.99756 13.364 10.079 13.4442C10.2402 13.6087 10.3305 13.8298 10.3305 14.0602C10.3305 14.2905 10.2412 14.5117 10.08 14.6762ZM13.116 17.7122C12.9526 17.8755 12.731 17.9673 12.5 17.9673C12.2689 17.9673 12.0474 17.8755 11.884 17.7122C11.7206 17.5488 11.6288 17.3272 11.6288 17.0962C11.6288 16.8651 11.7206 16.6435 11.884 16.4802C12.0474 16.3168 12.2689 16.225 12.5 16.225C12.731 16.225 12.9526 16.3168 13.116 16.4802C13.2794 16.6435 13.3711 16.8651 13.3711 17.0962C13.3711 17.3272 13.2794 17.5488 13.116 17.7122ZM13.116 14.6762L12.986 14.7762C12.9377 14.809 12.8852 14.8352 12.83 14.8542C12.7809 14.8792 12.7283 14.8967 12.674 14.9062C12.6168 14.9161 12.559 14.9218 12.501 14.9232C12.3868 14.9242 12.2736 14.9025 12.1679 14.8594C12.0623 14.8162 11.9663 14.7523 11.8856 14.6716C11.8048 14.5909 11.741 14.4949 11.6978 14.3892C11.6546 14.2835 11.6329 14.1703 11.634 14.0562C11.6374 13.8264 11.7274 13.6064 11.886 13.4402C11.9674 13.36 12.0649 13.298 12.172 13.2582C12.33 13.1914 12.5042 13.1731 12.6726 13.2055C12.8411 13.2379 12.9961 13.3196 13.118 13.4402C13.2792 13.6047 13.3695 13.8258 13.3695 14.0562C13.3695 14.2865 13.2792 14.5077 13.118 14.6722L13.116 14.6762ZM16.152 17.7122C15.9886 17.8755 15.767 17.9673 15.536 17.9673C15.3049 17.9673 15.0834 17.8755 14.92 17.7122C14.7566 17.5488 14.6648 17.3272 14.6648 17.0962C14.6648 16.8651 14.7566 16.6435 14.92 16.4802C15.0834 16.3168 15.3049 16.225 15.536 16.225C15.767 16.225 15.9886 16.3168 16.152 16.4802C16.3154 16.6435 16.4071 16.8651 16.4071 17.0962C16.4071 17.3272 16.3154 17.5488 16.152 17.7122ZM16.152 14.6762L16.022 14.7762C15.9737 14.809 15.9212 14.8352 15.866 14.8542C15.8169 14.8792 15.7643 14.8967 15.71 14.9062C15.6528 14.9157 15.595 14.9214 15.537 14.9232C15.4228 14.9242 15.3096 14.9025 15.2039 14.8594C15.0983 14.8162 15.0023 14.7523 14.9216 14.6716C14.8408 14.5909 14.777 14.4949 14.7338 14.3892C14.6906 14.2835 14.6689 14.1703 14.67 14.0562C14.6734 13.8264 14.7634 13.6064 14.922 13.4402C15.0049 13.3619 15.102 13.3002 15.208 13.2582C15.3653 13.1895 15.54 13.1713 15.708 13.2062C15.7623 13.2156 15.8149 13.2331 15.864 13.2582C15.9192 13.2771 15.9717 13.3034 16.02 13.3362L16.15 13.4362C16.3112 13.6007 16.4015 13.8218 16.4015 14.0522C16.4015 14.2825 16.3112 14.5037 16.15 14.6682L16.152 14.6762Z" fill="white" fill-opacity="0.87"/>
</svg>
