<svg width="25" height="24" viewBox="0 0 25 24" fill="none" xmlns="http://www.w3.org/2000/svg">
<path d="M19.7145 14.7923C21.1065 11.4955 19.8571 7.60118 16.6778 5.76566C14.3804 4.43924 11.6558 4.5231 9.50633 5.74865L8.61335 4.18578C11.3002 2.65388 14.7059 2.54905 17.5777 4.20707C21.6186 6.54009 23.1655 11.534 21.2828 15.6977L22.4902 16.3948L18.7423 18.3872L18.5938 14.1452L19.7145 14.7923ZM6.44242 9.20774C5.05037 12.5045 6.29984 16.3988 9.47905 18.2343C11.7765 19.5608 14.501 19.4769 16.6504 18.2515L17.5434 19.8143C14.8566 21.3462 11.451 21.4509 8.5792 19.7929C4.5383 17.4599 2.99146 12.466 4.87408 8.30226L3.66666 7.60516L7.4146 5.6128L7.56313 9.85478L6.44242 9.20774ZM9.92898 13.7997H14.8781C15.1267 13.7997 15.3281 13.5983 15.3281 13.3497C15.3281 13.1013 15.1267 12.8998 14.8781 12.8998H11.2787C10.0363 12.8998 9.02913 11.8927 9.02913 10.6502C9.02913 9.40779 10.0363 8.4006 11.2787 8.4006H12.1786V7.50075H13.9783V8.4006H16.2279V10.2003H11.2787C11.0303 10.2003 10.8288 10.4017 10.8288 10.6502C10.8288 10.8987 11.0303 11.1001 11.2787 11.1001H14.8781C16.1206 11.1001 17.1278 12.1073 17.1278 13.3497C17.1278 14.5922 16.1206 15.5994 14.8781 15.5994H13.9783V16.4992H12.1786V15.5994H9.92898V13.7997Z" fill="white" fill-opacity="0.87"/>
</svg>
