<svg width="25" height="24" viewBox="0 0 25 24" fill="none" xmlns="http://www.w3.org/2000/svg">
<path d="M12.3333 22C10.3554 22 8.42205 21.4135 6.77755 20.3147C5.13306 19.2159 3.85134 17.6541 3.09446 15.8268C2.33758 13.9996 2.13955 11.9889 2.5254 10.0491C2.91126 8.10929 3.86366 6.32746 5.26219 4.92894C6.66071 3.53041 8.44254 2.578 10.3824 2.19215C12.3222 1.8063 14.3328 2.00433 16.1601 2.76121C17.9874 3.51809 19.5491 4.79981 20.648 6.4443C21.7468 8.08879 22.3333 10.0222 22.3333 12C22.3333 14.6522 21.2797 17.1957 19.4043 19.0711C17.529 20.9464 14.9854 22 12.3333 22ZM12.3333 10.586L9.50526 7.757L8.09026 9.172L10.9193 12L8.09026 14.828L9.50526 16.243L12.3333 13.414L15.1613 16.243L16.5763 14.828L13.7473 12L16.5763 9.172L15.1613 7.757L12.3333 10.586Z" fill="white" fill-opacity="0.87"/>
</svg>
