<svg width="20" height="20" viewBox="0 0 20 20" fill="none" xmlns="http://www.w3.org/2000/svg">
<path fill-rule="evenodd" clip-rule="evenodd" d="M11.219 7.5576H12.672C13.2914 7.5576 13.8853 7.8151 14.3233 8.27344C14.7612 8.73178 15.0073 9.35343 15.0073 10.0016V16.556C15.0073 17.2042 14.7612 17.8258 14.3233 18.2842C13.8853 18.7425 13.2914 19 12.672 19H3.33108C2.71246 18.9988 2.11955 18.7408 1.68251 18.2826C1.24546 17.8244 0.999999 17.2034 1 16.556V10.0016C1 9.35343 1.24603 8.73178 1.68397 8.27344C2.12192 7.8151 2.71589 7.5576 3.33524 7.5576H9.65906C9.65906 7.47939 9.65906 7.39249 9.65906 7.30451C9.65906 7.12419 9.65906 6.93628 9.65906 6.79832V5.10488C9.65906 2.83682 11.7483 1 14.3295 1C16.9107 1 19 2.83682 19 5.10488V6.43118C19 6.64724 18.918 6.85446 18.772 7.00724C18.626 7.16002 18.428 7.24585 18.2216 7.24585C18.0151 7.24585 17.8171 7.16002 17.6712 7.00724C17.5252 6.85446 17.4432 6.64724 17.4432 6.43118V5.10488C17.4329 4.78373 17.3547 4.46897 17.2141 4.18327C17.0736 3.89758 16.8743 3.64807 16.6305 3.45272C15.9728 2.91771 15.1636 2.62727 14.3306 2.62727C13.4976 2.62727 12.6883 2.91771 12.0306 3.45272C11.7877 3.64895 11.5889 3.89863 11.4483 4.18412C11.3077 4.46961 11.2287 4.78393 11.2169 5.10488L11.219 7.5576ZM9.59159 13.2788C9.59159 13.6071 9.49858 13.928 9.32432 14.2009C9.15006 14.4739 8.90238 14.6866 8.6126 14.8122C8.32282 14.9378 8.00395 14.9707 7.69632 14.9067C7.38869 14.8426 7.10611 14.6846 6.88432 14.4524C6.66253 14.2203 6.51149 13.9246 6.4503 13.6026C6.3891 13.2806 6.42051 12.9469 6.54054 12.6436C6.66057 12.3404 6.86384 12.0811 7.12464 11.8988C7.38544 11.7164 7.69205 11.619 8.00571 11.619C8.42631 11.619 8.82969 11.7939 9.1271 12.1052C9.42451 12.4164 9.59159 12.8386 9.59159 13.2788Z" fill="white" fill-opacity="0.87"/>
</svg>
