<svg width="20" height="20" viewBox="0 0 20 20" fill="none" xmlns="http://www.w3.org/2000/svg">
<path d="M5.49201 19C4.83088 18.9994 4.19736 18.7365 3.73008 18.2688C3.2628 17.8011 3 17.167 3 16.5058V9.86047C3 9.20033 3.26231 8.56652 3.729 8.09963C4.19569 7.63273 4.82862 7.37092 5.48876 7.37063V5.18579C5.48876 2.87321 7.71828 1 10.4728 1C13.2273 1 15.4568 2.87321 15.4568 5.18579V7.37063C16.1168 7.37122 16.7499 7.6328 17.2166 8.09963C17.6832 8.56646 17.9453 9.20042 17.9456 9.86047V16.5058C17.9456 17.1664 17.6831 17.7991 17.2166 18.2667C16.75 18.7343 16.1173 18.9985 15.4568 19H5.49201ZM8.81469 13.287C8.81469 13.6156 8.91227 13.9375 9.09482 14.2107C9.27737 14.4839 9.53647 14.6971 9.84004 14.8229C10.1436 14.9486 10.4782 14.98 10.8005 14.9159C11.1228 14.8518 11.4183 14.6939 11.6506 14.4616C11.883 14.2293 12.0408 13.9337 12.1049 13.6115C12.169 13.2892 12.1366 12.9546 12.0108 12.651C11.8851 12.3474 11.6718 12.0894 11.3986 11.9069C11.1254 11.7243 10.8046 11.6256 10.476 11.6256C10.0358 11.6262 9.61357 11.8009 9.30249 12.1124C8.9914 12.4239 8.81685 12.8468 8.81685 13.287H8.81469ZM13.7987 7.37063V5.18579C13.7877 4.85834 13.7042 4.53611 13.5543 4.2448C13.4043 3.9535 13.1914 3.69984 12.9313 3.50066C12.2294 2.95515 11.366 2.65918 10.4771 2.65918C9.58819 2.65918 8.7248 2.95515 8.02295 3.50066C7.76341 3.70048 7.55111 3.95582 7.40103 4.24697C7.25096 4.53812 7.1666 4.85847 7.15443 5.18579V7.37063H13.7987Z" fill="white" fill-opacity="0.87"/>
</svg>
