<svg width="25" height="24" viewBox="0 0 25 24" fill="none" xmlns="http://www.w3.org/2000/svg">
<path d="M13.4807 7.43815L17.2577 11.2161L8.44375 20.0291H4.66675V16.2521L13.4807 7.43815ZM14.7397 6.17915L16.6287 4.29015C16.7114 4.20745 16.8095 4.14185 16.9175 4.09709C17.0256 4.05233 17.1413 4.0293 17.2582 4.0293C17.3752 4.0293 17.4909 4.05233 17.599 4.09709C17.707 4.14185 17.8051 4.20745 17.8877 4.29015L20.4067 6.80915C20.4894 6.8918 20.555 6.98993 20.5998 7.09794C20.6446 7.20596 20.6676 7.32173 20.6676 7.43865C20.6676 7.55556 20.6446 7.67134 20.5998 7.77935C20.555 7.88736 20.4894 7.9855 20.4067 8.06815L18.5167 9.95615L14.7397 6.17915Z" fill="white" fill-opacity="0.87"/>
</svg>
