<svg width="24" height="24" viewBox="0 0 24 24" fill="none" xmlns="http://www.w3.org/2000/svg">
<path d="M12 22C10.0222 22 8.08879 21.4135 6.4443 20.3147C4.79981 19.2159 3.51809 17.6541 2.76121 15.8268C2.00433 13.9996 1.8063 11.9889 2.19215 10.0491C2.578 8.10928 3.53041 6.32745 4.92894 4.92893C6.32746 3.5304 8.10929 2.578 10.0491 2.19214C11.9889 1.80629 13.9996 2.00433 15.8268 2.7612C17.6541 3.51808 19.2159 4.7998 20.3147 6.44429C21.4135 8.08879 22 10.0222 22 12C22 14.6522 20.9464 17.1957 19.0711 19.0711C17.1957 20.9464 14.6522 22 12 22ZM11 16L18.07 8.929L16.659 7.515L11 13.172L8.174 10.343L6.76 11.757L11 16Z" fill="white" fill-opacity="0.87"/>
</svg>
