<svg xmlns="http://www.w3.org/2000/svg" width="24" height="24" viewBox="0 0 24 24"><rect width="24" height="24" fill="none"/><g transform="translate(2 2)"><path d="M266.643,7.6l0-.009A10.006,10.006,0,0,0,258.113.974c1.531.839,1.977,3.5,2.369,6.625a27.646,27.646,0,0,1,.005,6.629c-.388,3.144-.837,5.821-2.374,6.664a10.007,10.007,0,0,0,8.534-6.636l.01-.028a10.006,10.006,0,0,0-.013-6.629Z" transform="translate(-247.215 -0.933)" fill="#e12a28"/><path d="M13.782,6.666C13.391,3.538,12.429.88,10.9.041,10.6.015,10.3,0,10,0A10,10,0,0,0,.575,6.657l0,.009a10.008,10.008,0,0,0-.013,6.629l.01.028A10,10,0,0,0,10,20c.3,0,.6-.015.9-.041,1.537-.843,2.5-3.52,2.889-6.664A27.648,27.648,0,0,0,13.782,6.666Z" fill="#ed3432"/><path d="M120.562,115.454l1.188,3.656h3.845l-3.11,2.259,1.188,3.657-3.11-2.26-3.11,2.26,1.188-3.657-3.11-2.259h3.844Z" transform="translate(-110.652 -110.579)" fill="#fdce0c"/></g></svg>