<svg xmlns="http://www.w3.org/2000/svg" width="216" height="140" viewBox="0 0 216 140">
  <g id="pic_default" transform="translate(-821 -736)">
    <rect id="Rectangle_6495" data-name="Rectangle 6495" width="216" height="140" transform="translate(821 736)" fill="rgba(255,255,255,0.08)"/>
    <g id="Group_20571" data-name="Group 20571" transform="translate(911 788)" opacity="0.36">
      <path id="Path_68307" data-name="Path 68307" d="M0,0H36V36H0Z" fill="none"/>
      <path id="Path_68308" data-name="Path 68308" d="M30.8,6.333H5.2V29.667l14.867-15.49a1.555,1.555,0,0,1,2.262,0l8.47,8.84ZM2,4.655A1.634,1.634,0,0,1,3.587,3H32.413A1.622,1.622,0,0,1,34,4.655v26.69A1.634,1.634,0,0,1,32.413,33H3.587A1.623,1.623,0,0,1,2,31.345Zm9.6,11.678A3.269,3.269,0,0,1,8.4,13a3.269,3.269,0,0,1,3.2-3.333A3.269,3.269,0,0,1,14.8,13,3.269,3.269,0,0,1,11.6,16.333Z" transform="translate(0)" fill="rgba(255,255,255,0.6)"/>
    </g>
  </g>
</svg>
