<svg xmlns="http://www.w3.org/2000/svg" width="24" height="24" viewBox="0 0 24 24">
  <g id="login_ic2" transform="translate(-277 -749)" opacity="0.7">
    <rect id="Rectangle_3850" data-name="Rectangle 3850" width="24" height="24" transform="translate(277 749)" fill="none"/>
    <g id="Group_7086" data-name="Group 7086" transform="translate(279.502 751.5)">
      <path id="Path_10234" data-name="Path 10234" d="M10.914,12.134l-1.271,1.59A13.424,13.424,0,0,1,4.876,8.957l1.59-1.271A1.08,1.08,0,0,0,6.778,6.4L5.329,3.143A1.08,1.08,0,0,0,4.07,2.536l-2.76.72a1.08,1.08,0,0,0-.8,1.2,16.02,16.02,0,0,0,13.64,13.633,1.08,1.08,0,0,0,1.2-.8l.72-2.76a1.08,1.08,0,0,0-.607-1.258L12.2,11.824a1.08,1.08,0,0,0-1.282.311Z" transform="translate(0 0.4)" fill="#fff"/>
      <path id="Path_10235" data-name="Path 10235" d="M12.7.5A4.194,4.194,0,0,0,8.9,6.486L8.5,8.9l2.414-.4A4.2,4.2,0,1,0,12.7.5Z" transform="translate(1.6 0)" fill="#fff"/>
    </g>
  </g>
</svg>
