<svg xmlns="http://www.w3.org/2000/svg" width="181.294" height="32.409" viewBox="0 0 181.294 32.409">
  <g id="logo-type-2" transform="translate(-474.211 -994.287)">
    <g id="Group_1544" data-name="Group 1544" transform="translate(621.924 994.287)">
      <path id="Path_370" data-name="Path 370" d="M807.091,977.287c-2.359.476-3.223,1.54-3.138,3.073.118,2.152,2.5,6.256,3.632,8.086a50.281,50.281,0,0,0,6.946,8.74c2.118,2.082,3.441,2.533,5.7-.542a47.45,47.45,0,0,0,5.24-8.191,36.256,36.256,0,0,0,1.846-4.574c.6-1.971.378-3.716-1.556-5a4.972,4.972,0,0,1,2.8,4.42,15.9,15.9,0,0,1-.829,5.147,58.142,58.142,0,0,1-3.968,10.365,59.878,59.878,0,0,1-4.415,7.53c-3.5,4.8-6.866,3.248-10.807,0a40.986,40.986,0,0,1-6.96-7.513,57.1,57.1,0,0,1-5.737-10.4c-1.86-4.478-.414-6.77,1.882-8.224C800.255,978.613,804.035,977.707,807.091,977.287Z" transform="translate(-795.001 -976.978)" fill="#fff" fill-rule="evenodd"/>
      <path id="Path_371" data-name="Path 371" d="M828.975,986.261c3.427-.51,12.333-1.062,15.457.55a1.742,1.742,0,0,1,.971,2.1c.314-.562.62-1.144.914-1.75a34.041,34.041,0,0,0,1.734-4.3c.559-1.851.355-3.49-1.462-4.7l-.009,0a11.861,11.861,0,0,0-2.156-.811,32.808,32.808,0,0,0-6.64-1c-.948-.068-1.941-.062-2.946-.059a45.423,45.423,0,0,0-5.788.382c-2.214.447-3.026,1.447-2.947,2.886C826.2,981.279,827.833,984.332,828.975,986.261Z" transform="translate(-816.432 -976.287)" fill="#fff" fill-rule="evenodd"/>
    </g>
    <path id="Path_372" data-name="Path 372" d="M576.4,1096.109c1.9-.229,3.518-1.2,4.062-4.063a16.533,16.533,0,0,0-.218-6.517,3.887,3.887,0,0,0-1.133-1.924,5.211,5.211,0,0,0-6.089.144c-.207.167-.387.241-.387-.051l-.034-6.119-3.4.057.015,17.539c1.459.979,5.472,1.14,7.188.934Zm-91.3-.333c.716,0,.575.063,1.011-.532,2.96-4.042,5.759-12.657,5.721-17.466a15.237,15.237,0,0,0-4.165.5c-1.338,7.885-2.51,9.967-4.647,13.99h0c-2.138-4.023-3.31-6.106-4.648-13.99a15.234,15.234,0,0,0-4.165-.5c-.039,4.808,2.761,13.424,5.72,17.466.436.6.3.532,1.011.532Zm97.852-12.43.33,3.078c1.349-.128,2.45-.483,3.862-.582,2.129-.076,3.488-.128,3.421,1.408-1.592-.005-3.194,0-4.848.014-2.006.017-3.673.967-3.452,5.027.266,4.875,6.079,4.518,8.734,2.563v1.095h3.086c-.081-4.977.282-10.206-.619-11.619-1.721-2.7-7.357-1.708-10.513-.983Zm-72.695,12.016q-.171-1.506-.343-3.012a29.828,29.828,0,0,1-5.2.563c-1.625-.054-2.231-.831-2.223-3.139a2.862,2.862,0,0,0,2.151,1c2.121.023,4.105.058,6.2-.019.093-3.842.427-7.193-3.426-8.012a11.484,11.484,0,0,0-5.129.113,3.72,3.72,0,0,0-2.9,2.864c-.874,3.013-.629,7.478,1.318,9.2,2.234,1.977,6.738,1.272,9.554.438Zm-6.2-9.636h1.7a1.546,1.546,0,0,1,1.545,1.538v.682h-4.792v-.682a1.546,1.546,0,0,1,1.545-1.538Zm108.849,10.195.106-5.642c.006-.345.316.117.4.256a23.465,23.465,0,0,0,3.827,4.95c.47.469.566.435,1.4.435h3.571a19.656,19.656,0,0,1-5.445-6.464c-.278-.6-.265-.531.135-1.092.517-.594,1.168-1.395,1.887-2.212l3.042-3.566c.016-.028.03-.056.043-.083h-3.235c-.593,0-.573-.091-.991.359-1.232,1.325-2.645,2.874-3.783,4.126a2.72,2.72,0,0,1-.45.37c-.468.335-.384.246-.386-.235l-.03-9.583-3.446.024-.043,18.356Zm-79.993-.44-.3-2.993a24.623,24.623,0,0,1-4.851.37c-1.652-.185-1.855-1.054-1.871-2.391-.01-.81-.033-1.719.014-2.517.065-1.095.388-1.8,1.857-1.966a24.623,24.623,0,0,1,4.851.37l.3-2.992c-5.925-1.394-9.62-.7-10.447,3.875a20.481,20.481,0,0,0,.14,5.006c1.05,4,4.669,4.565,10.307,3.238Zm-18.6-12.783H512.15q-.009,1.585-.019,3.17l2.185.015c0,1.072,0,2.209-.006,3.285,0,1.134-.013,2.2-.007,3.119a3.888,3.888,0,0,0,1.03,3.1,2.632,2.632,0,0,0,1.348.451,10.954,10.954,0,0,0,4.166-.293q-.055-1.361-.111-2.722c-1.332.132-2.964.418-2.962-.261,0-2.312,0-4.36,0-6.672l3.147-.013q0-1.581-.007-3.162l-3.138-.015q0-1.576,0-3.152l-3.466.006q0,1.572,0,3.144Zm-21.155,13.222,3.368.065.123-13.237-3.5.017.014,13.154Zm45.906-13.4h3.022a4.3,4.3,0,0,1,4.292,4.273v5.055a4.3,4.3,0,0,1-4.292,4.273h-3.022a4.3,4.3,0,0,1-4.292-4.273v-5.055a4.3,4.3,0,0,1,4.292-4.273Zm.66,3.207a1.546,1.546,0,0,0-1.545,1.538v4.11a1.547,1.547,0,0,0,1.545,1.539h1.7a1.546,1.546,0,0,0,1.545-1.539v-4.11a1.546,1.546,0,0,0-1.545-1.538Zm12.279,10.193q.046-5.058.094-10.116l2.531,0a1.244,1.244,0,0,1,1.334,1.152v.466l.009,8.5h3.4l.094-10.126,2.775,0a1.206,1.206,0,0,1,1.353,1.239l.012,8.892h3.369l.115-9.563c.025-2.034-1.1-3.715-3.413-3.693l-2.2.02a2.847,2.847,0,0,0-2.378.916c-.511.529-.263.533-.728.039a3.221,3.221,0,0,0-2.544-.973h-1.554a3.028,3.028,0,0,0-2.255,1.048c-.564.567-.5.755-.5-.134v-.829h0l-2.9.014q.007,6.577.014,13.154Zm47.691,0q.048-5.058.1-10.116l2.567,0a1.24,1.24,0,0,1,1.354,1.222q0,4.449.009,8.9h3.449l.084-8.847c.022-2.337-.9-4.406-3.683-4.406H602a3.049,3.049,0,0,0-2.218.98c-.59.568-.574.879-.574-.026v-.879l-2.945,0c0,4.385.015,8.791.02,13.176Zm-12.814-5.7h3.753v1.953c0,.81-2.371.846-3.878.812-1.1-.025-.975,0-1.023-.975-.018-.363,0-.727,0-1.093,0-.748.154-.7,1.15-.7Zm-9.775-2.359v3.63a1.546,1.546,0,0,1-1.545,1.538h-1.739c-1.213,0-1.222.016-1.222-1.7v-3.9c0-1.721.009-1.705,1.222-1.705h1.739a1.546,1.546,0,0,1,1.545,1.539Z" transform="translate(0 -69.915)" fill="#fff" fill-rule="evenodd"/>
  </g>
</svg>
