<svg xmlns="http://www.w3.org/2000/svg" xmlns:xlink="http://www.w3.org/1999/xlink" width="187.206" height="44" viewBox="0 0 187.206 44">
  <defs>
    <linearGradient id="linear-gradient" x1="0.5" y1="1.096" x2="0.5" y2="-0.154" gradientUnits="objectBoundingBox">
      <stop offset="0" stop-color="#72501b"/>
      <stop offset="0.321" stop-color="#c2a87c"/>
      <stop offset="0.495" stop-color="#ead4ac"/>
      <stop offset="0.672" stop-color="#f3e0b8"/>
      <stop offset="0.713" stop-color="#eedab1"/>
      <stop offset="0.771" stop-color="#e2cc9e"/>
      <stop offset="0.84" stop-color="#cfb580"/>
      <stop offset="0.916" stop-color="#b39455"/>
      <stop offset="0.998" stop-color="#916b1f"/>
      <stop offset="1" stop-color="#906a1e"/>
    </linearGradient>
    <linearGradient id="linear-gradient-3" x1="0.5" y1="1.097" x2="0.5" y2="-0.154" xlink:href="#linear-gradient"/>
    <linearGradient id="linear-gradient-4" x1="0.5" y1="1.096" x2="0.5" y2="-0.154" xlink:href="#linear-gradient"/>
    <linearGradient id="linear-gradient-5" x1="0.5" y1="1.096" x2="0.5" y2="-0.155" xlink:href="#linear-gradient"/>
    <linearGradient id="linear-gradient-8" x1="0.5" y1="1.042" x2="0.5" y2="-0.102" gradientUnits="objectBoundingBox">
      <stop offset="0" stop-color="#734f1b"/>
      <stop offset="0.093" stop-color="#927140"/>
      <stop offset="0.221" stop-color="#b79b6e"/>
      <stop offset="0.336" stop-color="#d3ba8f"/>
      <stop offset="0.431" stop-color="#e3cda3"/>
      <stop offset="0.495" stop-color="#ead4ab"/>
      <stop offset="0.672" stop-color="#f3dfb7"/>
      <stop offset="0.713" stop-color="#eed9b0"/>
      <stop offset="0.772" stop-color="#e2cb9d"/>
      <stop offset="0.84" stop-color="#ceb37f"/>
      <stop offset="0.917" stop-color="#b29354"/>
      <stop offset="0.999" stop-color="#8f691e"/>
      <stop offset="1" stop-color="#8f691e"/>
    </linearGradient>
    <linearGradient id="linear-gradient-9" x1="0.835" y1="0.703" x2="-0.11" y2="0.145" xlink:href="#linear-gradient-8"/>
    <linearGradient id="linear-gradient-10" x1="0.5" y1="1.049" x2="0.5" y2="-0.3" xlink:href="#linear-gradient-8"/>
    <linearGradient id="linear-gradient-11" x1="0" y1="0.5" x2="1" y2="0.5" xlink:href="#linear-gradient"/>
    <linearGradient id="linear-gradient-13" x1="0" y1="0.5" x2="1" y2="0.5" xlink:href="#linear-gradient"/>
    <radialGradient id="radial-gradient" cx="1.13" cy="0.868" r="0.969" gradientTransform="translate(-0.17) scale(1.34 1)" gradientUnits="objectBoundingBox">
      <stop offset="0" stop-color="#734f1b"/>
      <stop offset="0.009" stop-color="#7e5c29"/>
      <stop offset="0.058" stop-color="#b89c6e"/>
      <stop offset="0.093" stop-color="#dcc49a"/>
      <stop offset="0.111" stop-color="#ead4ab"/>
      <stop offset="0.732" stop-color="#f3dfb7"/>
      <stop offset="0.765" stop-color="#eed9b0"/>
      <stop offset="0.813" stop-color="#e2cb9d"/>
      <stop offset="0.869" stop-color="#ceb37f"/>
      <stop offset="0.932" stop-color="#b29354"/>
      <stop offset="0.999" stop-color="#8f691e"/>
      <stop offset="1" stop-color="#8f691e"/>
    </radialGradient>
    <radialGradient id="radial-gradient-2" cx="-0.13" cy="0.132" r="0.798" gradientTransform="matrix(0, 1, -1.34, 0, 0.047, 0.262)" xlink:href="#radial-gradient"/>
    <linearGradient id="linear-gradient-18" x1="0.5" y1="1.001" x2="0.5" y2="0.001" xlink:href="#linear-gradient-8"/>
    <radialGradient id="radial-gradient-3" cx="0.5" cy="0.5" r="0.5" xlink:href="#linear-gradient-8"/>
  </defs>
  <g id="logo-white" transform="translate(-98.894 -95.979)">
    <g id="Group_7883" data-name="Group 7883" transform="translate(101.184 95.979)">
      <path id="Path_10941" data-name="Path 10941" d="M161.6,96.352h4.554v4.376l3.938-4.376h6.268l-4.819,5.422,5.027,9.359h-5.6l-2.907-5.565-1.912,2.2v3.368H161.6Z" transform="translate(-58.273 -95.724)" fill="url(#linear-gradient)"/>
      <path id="Path_10942" data-name="Path 10942" d="M151.246,96.352h4.131l6.663,8.265V96.352h4.432v14.782H162.04l-6.362-7.846.005,7.846h-4.438Z" transform="translate(-65.361 -95.724)" fill="url(#linear-gradient)"/>
      <path id="Path_10943" data-name="Path 10943" d="M104.817,100.059h6.5V96.348H100.254v14.77h11.062v-3.674h-6.5v-1.856h5.392v-3.709h-5.392v-1.819Z" transform="translate(-100.254 -95.727)" fill="url(#linear-gradient-3)"/>
      <path id="Path_10944" data-name="Path 10944" d="M132.975,96.352H141.5a4.646,4.646,0,0,1,3.273,1.056,3.426,3.426,0,0,1,1.14,2.619,3.308,3.308,0,0,1-.814,2.243,3.64,3.64,0,0,1-1.588.987,4.13,4.13,0,0,1,2.338,1.314,3.613,3.613,0,0,1,.748,2.339,4.05,4.05,0,0,1-.532,2.065,3.917,3.917,0,0,1-1.459,1.447,4.666,4.666,0,0,1-1.73.509,19.8,19.8,0,0,1-2.04.2h-7.862Zm4.595,5.789h1.981a2.285,2.285,0,0,0,1.484-.369,1.337,1.337,0,0,0,.416-1.061,1.263,1.263,0,0,0-.416-1.007,2.236,2.236,0,0,0-1.454-.362H137.57Zm0,5.8h2.323a2.549,2.549,0,0,0,1.657-.418,1.407,1.407,0,0,0,.483-1.122,1.306,1.306,0,0,0-.477-1.053,2.659,2.659,0,0,0-1.674-.4H137.57Z" transform="translate(-77.863 -95.724)" fill="url(#linear-gradient-4)"/>
      <path id="Path_10945" data-name="Path 10945" d="M151.6,108.668h-5.171l-.731,2.461h-4.638l5.54-14.769h4.967l5.54,14.769h-4.761Zm-.945-3.192-1.627-5.3-1.61,5.3Z" transform="translate(-72.329 -95.719)" fill="url(#linear-gradient-5)"/>
      <rect id="Rectangle_4051" data-name="Rectangle 4051" width="4.563" height="14.782" transform="translate(29.541 0.628)" fill="url(#linear-gradient)"/>
      <path id="Path_10946" data-name="Path 10946" d="M138.383,96.352h-5.974l-2.293,7.4-2.31-7.4h-5.99v14.782h4.573v-7.439l2.026,7.439h3.377l2.029-7.435v7.435h4.574V96.352Z" transform="translate(-85.499 -95.724)" fill="url(#linear-gradient)"/>
      <path id="Path_10947" data-name="Path 10947" d="M120.268,108.882l-.008-.013-.015-.015-.012-.007-2.914-2.915a3.035,3.035,0,0,1-.665-1.875,2.989,2.989,0,0,1,.847-2.07l2.739-2.74.015-.015a.133.133,0,0,0,.035-.091.139.139,0,0,0-.034-.089l0,0-.015-.015,0,0-3.018-3.017a.141.141,0,0,0-.093-.035.148.148,0,0,0-.1.037l-2.712,2.715-1.755,1.757,1.255,1.255a3.032,3.032,0,0,1,.975,2.356,3.235,3.235,0,0,1-1.166,2.456l-1.073,1.073c1.768,1.769,4.47,4.47,4.475,4.472a.138.138,0,0,0,.091.037.15.15,0,0,0,.093-.035c.005-.005,2.483-2.483,3.028-3.03l.022-.02a.152.152,0,0,0,.032-.089A.14.14,0,0,0,120.268,108.882Z" transform="translate(-91.837 -95.979)" fill="url(#linear-gradient-8)"/>
      <path id="Path_10948" data-name="Path 10948" d="M113.2,98.43c-.438-.44-2.414-2.414-2.417-2.415a.136.136,0,0,0-.091-.035.14.14,0,0,0-.091.034c-.007.005-2.484,2.484-3.03,3.03l-.02.022a.131.131,0,0,0-.035.088.135.135,0,0,0,.029.081l.008.012.015.015.012.008,2.915,2.914h0a3.049,3.049,0,0,1,.664,1.876,3,3,0,0,1-.847,2.07S115.13,102.384,113.2,98.43Z" transform="translate(-95.282 -95.979)" fill="url(#linear-gradient-9)"/>
      <path id="Path_10949" data-name="Path 10949" d="M116.76,100.993,113.2,97.434c1.7,3.8-2.348,7.158-2.889,7.7l-2.739,2.739-.015.015a.142.142,0,0,0-.037.091.137.137,0,0,0,.035.089l0,0,.015.015,0,0,3.02,3.017a.142.142,0,0,0,.093.037.141.141,0,0,0,.1-.039l2.712-2.715,3.094-3.094a2.885,2.885,0,0,0,1.043-2.195A2.714,2.714,0,0,0,116.76,100.993Z" transform="translate(-95.282 -94.983)" fill="url(#linear-gradient-10)"/>
    </g>
    <path id="Path_10950" data-name="Path 10950" d="M98.894,108.958V108.7h9.511a15.783,15.783,0,0,1,4.2.505,9.451,9.451,0,0,1,3.033,1.379,6.049,6.049,0,0,1,1.812,1.971,4.728,4.728,0,0,1,.6,2.307,4.915,4.915,0,0,1-.563,2.275,5.468,5.468,0,0,1-1.762,1.947,9.608,9.608,0,0,1-3.151,1.356,17.972,17.972,0,0,1-4.49.507q-.808,0-3.111-.185v7.788q0,2.405,3.15,2.483v.246H98.894v-.246a4.184,4.184,0,0,0,2.235-.6,2.083,2.083,0,0,0,.876-1.878V111.471a2.473,2.473,0,0,0-.315-1.3,1.942,1.942,0,0,0-.738-.744,3.556,3.556,0,0,0-.945-.328c-.349-.072-.589-.118-.719-.138Zm6.085.536v10.638a21.315,21.315,0,0,0,2.993.216,9.44,9.44,0,0,0,4.775-1.127q1.96-1.127,1.96-4.177a5.423,5.423,0,0,0-1.723-4.132,7.409,7.409,0,0,0-5.23-1.617A19.886,19.886,0,0,0,104.979,109.494Z" transform="translate(0 8.703)" fill="url(#linear-gradient-11)"/>
    <path id="Path_10951" data-name="Path 10951" d="M112.939,109.019h-.394V108.7H122.59a12.619,12.619,0,0,1,4.1.583,7.058,7.058,0,0,1,2.619,1.479,5.518,5.518,0,0,1,1.341,1.893,5.222,5.222,0,0,1,.4,1.962,4.594,4.594,0,0,1-.659,2.353,5.569,5.569,0,0,1-2.03,1.939,9.176,9.176,0,0,1-3.416,1.1v.062a11.11,11.11,0,0,1,4.805,3.892l2.619,3.449a11.7,11.7,0,0,0,2.845,2.927,4.991,4.991,0,0,0,2.117.691v.246h-5.277q-.336-.339-.632-.652c-.2-.209-.406-.431-.63-.667q-.2-.23-.581-.7a5.772,5.772,0,0,0-.461-.529l-3.468-4.46a12.146,12.146,0,0,0-2.136-2.217,8.388,8.388,0,0,0-2.038-1.218,7.116,7.116,0,0,0-1.7-.46,14.826,14.826,0,0,0-1.784-.093v8.263q0,2.405,3.151,2.483v.246h-9.237v-.246a5.485,5.485,0,0,0,1.536-.253,2.38,2.38,0,0,0,1.113-.766,2.255,2.255,0,0,0,.443-1.464V111.471a2.093,2.093,0,0,0-.847-1.9A3.313,3.313,0,0,0,112.939,109.019Zm5.691,10.668h1.656a13.1,13.1,0,0,0,4.263-.583,4.69,4.69,0,0,0,2.412-1.662,4.535,4.535,0,0,0,.75-2.644,5.34,5.34,0,0,0-.67-2.552,5.259,5.259,0,0,0-2.274-2.1,9.283,9.283,0,0,0-4.324-.851,9.716,9.716,0,0,0-1.812.138Z" transform="translate(9.341 8.703)" fill="url(#linear-gradient-11)"/>
    <path id="Path_10952" data-name="Path 10952" d="M138.5,108.7v.261a4.085,4.085,0,0,0-2.206.566,2.051,2.051,0,0,0-.9,1.886v17.137a2.053,2.053,0,0,0,.963,1.893,4.044,4.044,0,0,0,2.147.589v.246h-9.2v-.246a4.013,4.013,0,0,0,2.176-.574,2.079,2.079,0,0,0,.916-1.908V111.41a2.026,2.026,0,0,0-.916-1.932,4.33,4.33,0,0,0-2.176-.52V108.7Z" transform="translate(20.808 8.703)" fill="url(#linear-gradient-13)"/>
    <path id="Path_10953" data-name="Path 10953" d="M153.3,109.019h-.394V108.7h10.043a12.63,12.63,0,0,1,4.106.583,7.085,7.085,0,0,1,2.619,1.479,5.535,5.535,0,0,1,1.339,1.893,5.193,5.193,0,0,1,.4,1.962,4.6,4.6,0,0,1-.66,2.353,5.563,5.563,0,0,1-2.028,1.939,9.175,9.175,0,0,1-3.417,1.1v.062a11.1,11.1,0,0,1,4.805,3.892l2.619,3.449a11.723,11.723,0,0,0,2.846,2.927,4.977,4.977,0,0,0,2.115.691v.246h-5.277c-.224-.226-.433-.443-.63-.652l-.63-.667q-.2-.23-.581-.7a5.656,5.656,0,0,0-.463-.529l-3.466-4.46a12.1,12.1,0,0,0-2.137-2.217,8.356,8.356,0,0,0-2.038-1.218,7.075,7.075,0,0,0-1.7-.46,14.8,14.8,0,0,0-1.782-.093v8.263q0,2.405,3.151,2.483v.246h-9.237v-.246a5.485,5.485,0,0,0,1.536-.253,2.367,2.367,0,0,0,1.112-.766,2.245,2.245,0,0,0,.443-1.464V111.471a2.092,2.092,0,0,0-.846-1.9A3.321,3.321,0,0,0,153.3,109.019Zm5.691,10.668h1.654a13.1,13.1,0,0,0,4.263-.583,4.7,4.7,0,0,0,2.414-1.662,4.534,4.534,0,0,0,.748-2.644,5.34,5.34,0,0,0-.67-2.552,5.259,5.259,0,0,0-2.274-2.1,9.278,9.278,0,0,0-4.324-.851,9.7,9.7,0,0,0-1.811.138Z" transform="translate(36.961 8.703)" fill="url(#linear-gradient-11)"/>
    <path id="Path_10954" data-name="Path 10954" d="M178.644,108.7v.261a4.079,4.079,0,0,0-2.2.566,2.052,2.052,0,0,0-.906,1.886v17.137a2.054,2.054,0,0,0,.965,1.893,4.042,4.042,0,0,0,2.146.589v.246h-9.2v-.246a4.014,4.014,0,0,0,2.176-.574,2.082,2.082,0,0,0,.916-1.908V111.41a2.029,2.029,0,0,0-.916-1.932,4.331,4.331,0,0,0-2.176-.52V108.7Z" transform="translate(48.278 8.703)" fill="url(#linear-gradient-11)"/>
    <path id="Path_10955" data-name="Path 10955" d="M202.828,113.551h-.315a3.171,3.171,0,0,0-1.654-2.858,8.573,8.573,0,0,0-3.545-.652h-5.77V129q0,2.405,3.151,2.483v.246h-9.237v-.246a4.27,4.27,0,0,0,2.2-.589,2.057,2.057,0,0,0,.9-1.893V110.041h-5.77a8.5,8.5,0,0,0-3.535.652,3.213,3.213,0,0,0-1.664,2.858h-.315v-5.518h.315a3.782,3.782,0,0,0,.552.566,2.126,2.126,0,0,0,.61.315,3.9,3.9,0,0,0,.876.184,11.537,11.537,0,0,0,1.192.054H199.6a3.792,3.792,0,0,0,2.915-1.118h.315Z" transform="translate(53.628 8.248)" fill="url(#linear-gradient-11)"/>
    <path id="Path_10956" data-name="Path 10956" d="M220.972,108.7v.261a5.707,5.707,0,0,0-2.314.475,6.453,6.453,0,0,0-1.585.958,15.8,15.8,0,0,0-1.221,1.2l-6.774,7.94v9.045a2.018,2.018,0,0,0,.935,1.816,4.243,4.243,0,0,0,2.255.637v.246h-9.2v-.246a3.859,3.859,0,0,0,2.215-.622,2.107,2.107,0,0,0,.817-1.831v-8.661L198.72,111.3a7.254,7.254,0,0,0-2.117-1.854,6.074,6.074,0,0,0-2.531-.49V108.7h10.3v.261a2.99,2.99,0,0,0-2.018.529,1.391,1.391,0,0,0-.443.911,2.543,2.543,0,0,0,.768,1.379l6.045,6.975,5.358-6.284a4.043,4.043,0,0,0,1.221-2.161,1.038,1.038,0,0,0-.325-.813,1.665,1.665,0,0,0-.66-.382,6.566,6.566,0,0,0-.709-.153V108.7Z" transform="translate(65.127 8.703)" fill="url(#linear-gradient-11)"/>
    <g id="Group_7884" data-name="Group 7884" transform="translate(162.955 116.281)">
      <path id="Path_10957" data-name="Path 10957" d="M147.306,108.118a11.849,11.849,0,0,0-10.367,11.315h0v.007h0c-.005.141-.01.285-.01.428a12,12,0,0,0,.2,2.159s-.091-2.587,3.39-2.587h6.788Z" transform="translate(-136.929 -107.975)" fill="url(#radial-gradient)"/>
      <path id="Path_10958" data-name="Path 10958" d="M144.838,127.713A11.848,11.848,0,0,0,155.2,116.4h0v-.008h0c.005-.141.01-.285.01-.428a11.849,11.849,0,0,0-.2-2.159s.093,2.587-3.389,2.587h-6.789Z" transform="translate(-131.517 -104.084)" fill="url(#radial-gradient-2)"/>
      <path id="Path_10959" data-name="Path 10959" d="M144.942,108.074l-1.391-.008v23.568c.019,0,1.391.005,1.391.005Z" transform="translate(-132.398 -108.01)" fill="url(#linear-gradient-18)"/>
      <path id="Path_10960" data-name="Path 10960" d="M154.455,117.719a3.924,3.924,0,0,1,.061.514,2.134,2.134,0,0,1-1.768,2.1c3.064-.111,3.182-2.2,3.158-2.6a11.846,11.846,0,0,0-11.005-9.673l-.65-.025H143.6l-.051,0v2.439a1.288,1.288,0,0,1,1.4-.992A10.425,10.425,0,0,1,154.455,117.719Z" transform="translate(-132.398 -108.033)" fill="url(#radial-gradient-3)"/>
      <path id="Path_10961" data-name="Path 10961" d="M138.493,117.411a3.926,3.926,0,0,1-.061-.514,2.134,2.134,0,0,1,1.769-2.1c-3.064.111-3.182,2.2-3.158,2.6a11.845,11.845,0,0,0,11.005,9.673l.65.027h.648l.051-.005v-2.439a1.288,1.288,0,0,1-1.4.992A10.423,10.423,0,0,1,138.493,117.411Z" transform="translate(-136.853 -103.401)" fill="url(#radial-gradient-3)"/>
    </g>
  </g>
</svg>
