<svg xmlns="http://www.w3.org/2000/svg" width="15.606" height="15.599" viewBox="0 0 15.606 15.599">
  <path id="Path_10234" data-name="Path 10234" d="M10.914,12.134l-1.271,1.59A13.424,13.424,0,0,1,4.876,8.957l1.59-1.271A1.08,1.08,0,0,0,6.778,6.4L5.329,3.143A1.08,1.08,0,0,0,4.07,2.536l-2.76.72a1.08,1.08,0,0,0-.8,1.2,16.02,16.02,0,0,0,13.64,13.633,1.08,1.08,0,0,0,1.2-.8l.72-2.76a1.08,1.08,0,0,0-.607-1.258L12.2,11.824a1.08,1.08,0,0,0-1.282.311Z" transform="translate(-0.498 -2.501)" fill="#fff"/>
</svg>
