<svg xmlns="http://www.w3.org/2000/svg" width="64" height="54.517" viewBox="0 0 64 54.517">
  <g id="box" transform="translate(-63.664 -128.589)">
    <path id="Path_18543" data-name="Path 18543" d="M179.924,586.763a.516.516,0,0,0-.576.176l-3.766,4.919a1.18,1.18,0,0,1-.931.458,1.166,1.166,0,0,1-.581-.154l-17.254-9.847a.517.517,0,0,0-.774.449v7.68a.517.517,0,0,0,.258.448l23.2,13.422a.517.517,0,0,0,.259.07.517.517,0,0,0,.517-.517V587.253A.518.518,0,0,0,179.924,586.763Zm26.673-4.445a.516.516,0,0,0-.516,0l-17.255,9.848a1.175,1.175,0,0,1-1.511-.3l-3.766-4.92a.517.517,0,0,0-.928.314v16.614a.517.517,0,0,0,.776.448l23.2-13.422a.517.517,0,0,0,.258-.448v-7.68A.516.516,0,0,0,206.6,582.318Z" transform="translate(-85.784 -421.279)" fill="rgba(255,255,255,0.38)"/>
    <path id="Path_18544" data-name="Path 18544" d="M127.657,140.038a.518.518,0,0,0-.29-.384l-23.354-11.016a.518.518,0,0,0-.564.081l-6.675,5.907-.869-.461a.515.515,0,0,0-.485,0l-.869.461-6.674-5.907a.517.517,0,0,0-.563-.081L63.961,139.654a.517.517,0,0,0-.139.84l6.969,6.737-1.1.583a.518.518,0,0,0-.208.2L65.7,154.7a.518.518,0,0,0,.194.7l22.272,12.713a.517.517,0,0,0,.667-.134l4.706-6.147a.517.517,0,0,0-.161-.768L71.269,148.886l23.553-12.5v15.367l-5.782,3.351a.517.517,0,0,0,.01.9l6.364,3.507a.515.515,0,0,0,.5,0l6.364-3.507a.517.517,0,0,0,.01-.9l-5.782-3.351V136.388l23.553,12.5L97.949,161.068a.517.517,0,0,0-.161.768l4.706,6.147a.517.517,0,0,0,.667.134L125.433,155.4a.517.517,0,0,0,.194-.7l-3.786-6.685a.518.518,0,0,0-.207-.2l-1.1-.583,6.968-6.737a.517.517,0,0,0,.151-.456Z" fill="rgba(255,255,255,0.38)"/>
  </g>
</svg>
