<svg id="ic_eye-close" xmlns="http://www.w3.org/2000/svg" width="16" height="16" viewBox="0 0 16 16">
  <g id="Group_7061" data-name="Group 7061" transform="translate(-168 -103)" opacity="0.7">
    <rect id="Rectangle_3984" data-name="Rectangle 3984" width="16" height="16" transform="translate(168 103)" fill="none"/>
    <g id="Group_7076" data-name="Group 7076" transform="translate(170 105)" opacity="0.7">
      <path id="Path_10226" data-name="Path 10226" d="M12.55,5.6,6.4,11.75a6.564,6.564,0,0,0,1.2.15c2.7,0,4.8-2.325,5.7-3.675a1.463,1.463,0,0,0,0-1.725C13.15,6.275,12.85,5.975,12.55,5.6Z" transform="translate(-1.6 -1.4)" fill="#fff"/>
      <path id="Path_10227" data-name="Path 10227" d="M10.725.225,8.7,2.25A5.614,5.614,0,0,0,6,1.5C3.3,1.5,1.2,3.825.3,5.175a1.35,1.35,0,0,0,0,1.65A10.586,10.586,0,0,0,2.1,8.85L.225,10.725a.725.725,0,0,0,0,1.05A.681.681,0,0,0,.75,12a.681.681,0,0,0,.525-.225l10.5-10.5a.725.725,0,0,0,0-1.05A.725.725,0,0,0,10.725.225Zm-6.75,6.75A2.076,2.076,0,0,1,3.75,6,2.21,2.21,0,0,1,6,3.75a2.076,2.076,0,0,1,.975.225Z" transform="translate(0 0)" fill="#fff"/>
    </g>
  </g>
</svg>
