<svg xmlns="http://www.w3.org/2000/svg" xmlns:xlink="http://www.w3.org/1999/xlink" width="16" height="37" viewBox="0 0 16 37">
  <defs>
    <clipPath id="clip-path">
      <rect id="Rectangle_6398" data-name="Rectangle 6398" width="16" height="37" transform="translate(1578 645)" fill="#fff"/>
    </clipPath>
    <clipPath id="clip-path-2">
      <rect id="Rectangle_6392" data-name="Rectangle 6392" width="101" height="300" transform="translate(12349 19799)" fill="#222930"/>
    </clipPath>
  </defs>
  <g id="left_bg" transform="translate(-1578 -645)" opacity="0.8" clip-path="url(#clip-path)">
    <g id="left_cicle" transform="translate(-10771 -19387)" clip-path="url(#clip-path-2)">
      <g id="box_bg" transform="translate(12113.498 19465.492)">
        <path id="Subtraction_7" data-name="Subtraction 7" d="M754,300H16A16,16,0,0,1,0,284V268.765c0-2.017-1.177-4.214-.022-5.334a19.863,19.863,0,0,0,9.55-3.685,12.592,12.592,0,0,0,4.585-6.871,1.606,1.606,0,0,0,.05-.21,11.368,11.368,0,0,0,.273-2.478c0-7.012-6.47-12.722-14.422-12.729C0,237.215,0,236.983,0,236.765V16A16,16,0,0,1,16,0H754a16,16,0,0,1,16,16V236.765c0,.227,0,.459-.015.689-7.953.007-14.423,5.919-14.423,13.181a12.2,12.2,0,0,0,.171,2.036,16.277,16.277,0,0,1-1.734.093,16.265,16.265,0,0,1,1.767.1,12.955,12.955,0,0,0,4.6,7.591,15.207,15.207,0,0,0,8.851,3.347,15.984,15.984,0,0,1,.786,4.967V284a16,16,0,0,1-16,16Z" transform="translate(235.501 333.507)" fill="#222930"/>
      </g>
    </g>
  </g>
</svg>
