<svg xmlns="http://www.w3.org/2000/svg" xmlns:xlink="http://www.w3.org/1999/xlink" width="743" height="300" viewBox="0 0 743 300">
  <defs>
    <clipPath id="clip-path">
      <rect id="Rectangle_6393" data-name="Rectangle 6393" width="743" height="300" transform="translate(12376 20143)" fill="#fff"/>
    </clipPath>
  </defs>
  <g id="right_cicle" transform="translate(-12376 -20143)" clip-path="url(#clip-path)">
    <g id="box_bg" transform="translate(12113.498 19809.492)">
      <path id="Subtraction_7" data-name="Subtraction 7" d="M754,300H16A16,16,0,0,1,0,284V268.765a15.925,15.925,0,0,1,1.12-5.891,15.334,15.334,0,0,0,8.408-3.128,12.592,12.592,0,0,0,4.585-6.871,16.23,16.23,0,0,1,1.887-.11,16.246,16.246,0,0,1-1.837-.1,11.368,11.368,0,0,0,.273-2.478c0-7.012-6.47-12.722-14.422-12.729C0,237.215,0,236.983,0,236.765V16A16,16,0,0,1,16,0H754a16,16,0,0,1,16,16V236.765c0,.227,0,.459-.015.689-7.953.007-14.423,5.919-14.423,13.181a12.2,12.2,0,0,0,.171,2.036,16.284,16.284,0,0,1-1.734.093,16.263,16.263,0,0,1,1.767.1,12.955,12.955,0,0,0,4.6,7.591,15.207,15.207,0,0,0,8.851,3.347,15.984,15.984,0,0,1,.786,4.967V284a16,16,0,0,1-16,16Z" transform="translate(235.501 333.507)" fill="#212121"/>
      <line id="Line_828" data-name="Line 828" x2="742" transform="translate(248.5 584.978)" fill="none" stroke="rgba(255,255,255,0.04)" stroke-width="1"/>
    </g>
  </g>
</svg>
