<svg xmlns="http://www.w3.org/2000/svg" width="24" height="24" viewBox="0 0 24 24">
  <g id="login_ic1" transform="translate(-277 -749)" opacity="0.7">
    <rect id="Rectangle_3850" data-name="Rectangle 3850" width="24" height="24" transform="translate(277 749)" fill="none"/>
    <g id="mail" transform="translate(278.75 751.5)">
      <path id="Subtraction_2" data-name="Subtraction 2" d="M7178.438-6709.217h-7.5a4.693,4.693,0,0,1-4.687-4.687v-4.1a4.693,4.693,0,0,1,4.688-4.687h7.5a4.693,4.693,0,0,1,4.688,4.688v4.1A4.693,4.693,0,0,1,7178.438-6709.217Zm-8.281-8.673a.776.776,0,0,0-.626.313.784.784,0,0,0,.157,1.093l2.563,1.922a4.082,4.082,0,0,0,2.437.81,4.076,4.076,0,0,0,2.437-.81l2.563-1.922a.778.778,0,0,0,.306-.517.771.771,0,0,0-.149-.577.773.773,0,0,0-.625-.313.772.772,0,0,0-.468.157l-2.564,1.922a2.5,2.5,0,0,1-1.5.5,2.509,2.509,0,0,1-1.5-.5l-2.562-1.922A.778.778,0,0,0,7170.157-6717.89Zm15.312,1.951a.781.781,0,0,1-.781-.781v-6.094a3.129,3.129,0,0,0-3.125-3.125h-7.5a3.128,3.128,0,0,0-2.568,1.346.783.783,0,0,1-.642.335.776.776,0,0,1-.445-.141.774.774,0,0,1-.324-.5.782.782,0,0,1,.127-.585,4.7,4.7,0,0,1,3.853-2.014h7.5a4.692,4.692,0,0,1,4.687,4.687v6.094A.781.781,0,0,1,7185.468-6715.938Z" transform="translate(-7166.25 6727.5)" fill="#fff"/>
    </g>
  </g>
</svg>
