<svg xmlns="http://www.w3.org/2000/svg" xmlns:xlink="http://www.w3.org/1999/xlink" width="191.527" height="56" viewBox="0 0 191.527 56"><defs><linearGradient id="a" x1="0.5" y1="1.096" x2="0.5" y2="-0.154" gradientUnits="objectBoundingBox"><stop offset="0" stop-color="#72501b"/><stop offset="0.321" stop-color="#c2a87c"/><stop offset="0.495" stop-color="#ead4ac"/><stop offset="0.672" stop-color="#f3e0b8"/><stop offset="0.713" stop-color="#eedab1"/><stop offset="0.771" stop-color="#e2cc9e"/><stop offset="0.84" stop-color="#cfb580"/><stop offset="0.916" stop-color="#b39455"/><stop offset="0.998" stop-color="#916b1f"/><stop offset="1" stop-color="#906a1e"/></linearGradient><linearGradient id="c" x1="0.5" y1="1.097" x2="0.5" y2="-0.154" xlink:href="#a"/><linearGradient id="d" x1="0.5" y1="1.096" x2="0.5" y2="-0.154" xlink:href="#a"/><linearGradient id="e" x1="0.5" y1="1.096" x2="0.5" y2="-0.155" xlink:href="#a"/><linearGradient id="h" x1="0.5" y1="1.042" x2="0.5" y2="-0.102" gradientUnits="objectBoundingBox"><stop offset="0" stop-color="#734f1b"/><stop offset="0.093" stop-color="#927140"/><stop offset="0.221" stop-color="#b79b6e"/><stop offset="0.336" stop-color="#d3ba8f"/><stop offset="0.431" stop-color="#e3cda3"/><stop offset="0.495" stop-color="#ead4ab"/><stop offset="0.672" stop-color="#f3dfb7"/><stop offset="0.713" stop-color="#eed9b0"/><stop offset="0.772" stop-color="#e2cb9d"/><stop offset="0.84" stop-color="#ceb37f"/><stop offset="0.917" stop-color="#b29354"/><stop offset="0.999" stop-color="#8f691e"/><stop offset="1" stop-color="#8f691e"/></linearGradient><linearGradient id="i" x1="0.835" y1="0.703" x2="-0.11" y2="0.145" xlink:href="#h"/><linearGradient id="j" x1="0.5" y1="1.049" x2="0.5" y2="-0.3" xlink:href="#h"/><radialGradient id="k" cx="1.13" cy="0.868" r="0.969" gradientTransform="translate(-0.17) scale(1.34 1)" gradientUnits="objectBoundingBox"><stop offset="0" stop-color="#734f1b"/><stop offset="0.009" stop-color="#7e5c29"/><stop offset="0.058" stop-color="#b89c6e"/><stop offset="0.093" stop-color="#dcc49a"/><stop offset="0.111" stop-color="#ead4ab"/><stop offset="0.732" stop-color="#f3dfb7"/><stop offset="0.765" stop-color="#eed9b0"/><stop offset="0.813" stop-color="#e2cb9d"/><stop offset="0.869" stop-color="#ceb37f"/><stop offset="0.932" stop-color="#b29354"/><stop offset="0.999" stop-color="#8f691e"/><stop offset="1" stop-color="#8f691e"/></radialGradient><radialGradient id="l" cx="-0.13" cy="0.132" r="0.798" gradientTransform="matrix(0, 1, -1.34, 0, 0.047, 0.262)" xlink:href="#k"/><linearGradient id="m" x1="0.5" y1="1.001" x2="0.5" y2="0.001" xlink:href="#h"/><radialGradient id="n" cx="0.5" cy="0.5" r="0.5" xlink:href="#h"/></defs><g transform="translate(-7080.916 -295.457)"><g transform="translate(7080.916 309.961)"><path d="M161.6,96.352h6.247v6l5.4-6h8.6l-6.611,7.438,6.9,12.838h-7.676l-3.988-7.634-2.622,3.013v4.621H161.6Z" transform="translate(-19.854 -95.491)" fill="url(#a)"/><path d="M151.246,96.352h5.667l9.141,11.338V96.352h6.08v20.278h-6.08l-8.727-10.763.007,10.763h-6.088Z" transform="translate(-33.429 -95.491)" fill="url(#a)"/><path d="M106.514,101.439h8.915V96.348H100.254v20.261h15.175v-5.04h-8.915v-2.546h7.4v-5.089h-7.4v-2.5Z" transform="translate(-100.254 -95.496)" fill="url(#c)"/><path d="M132.975,96.352h11.7A6.374,6.374,0,0,1,149.16,97.8a4.7,4.7,0,0,1,1.564,3.593,4.538,4.538,0,0,1-1.116,3.078,4.994,4.994,0,0,1-2.179,1.354,5.665,5.665,0,0,1,3.207,1.8,4.957,4.957,0,0,1,1.026,3.209,5.555,5.555,0,0,1-.73,2.833,5.373,5.373,0,0,1-2,1.985,6.4,6.4,0,0,1-2.373.7,27.156,27.156,0,0,1-2.8.277H132.975Zm6.3,7.941H142a3.134,3.134,0,0,0,2.035-.506,1.834,1.834,0,0,0,.571-1.456,1.732,1.732,0,0,0-.571-1.382,3.068,3.068,0,0,0-1.994-.5h-2.759Zm0,7.953h3.186a3.5,3.5,0,0,0,2.274-.573,1.93,1.93,0,0,0,.663-1.539,1.792,1.792,0,0,0-.654-1.444,3.648,3.648,0,0,0-2.3-.545h-3.172Z" transform="translate(-57.373 -95.49)" fill="url(#d)"/><path d="M155.522,113.244h-7.093l-1,3.376h-6.363l7.6-20.261h6.814l7.6,20.261h-6.532Zm-1.3-4.378-2.232-7.276-2.209,7.276Z" transform="translate(-46.774 -95.481)" fill="url(#e)"/><rect width="6.26" height="20.278" transform="translate(40.525 0.861)" fill="url(#a)"/><path d="M144.543,96.352h-8.2L133.2,106.508l-3.169-10.157h-8.216v20.278h6.273v-10.2l2.779,10.2H135.5l2.783-10.2v10.2h6.275V96.352Z" transform="translate(-71.996 -95.491)" fill="url(#a)"/><path d="M123.136,113.68l-.012-.018-.021-.021-.016-.009-4-4a4.164,4.164,0,0,1-.913-2.572,4.1,4.1,0,0,1,1.162-2.84l3.757-3.759.021-.021a.183.183,0,0,0,.049-.125.191.191,0,0,0-.046-.122l0,0-.021-.021,0,0-4.14-4.138a.193.193,0,0,0-.127-.049.2.2,0,0,0-.132.051l-3.72,3.725-2.408,2.41,1.721,1.721a4.16,4.16,0,0,1,1.338,3.232,4.438,4.438,0,0,1-1.6,3.369l-1.472,1.472c2.426,2.426,6.132,6.132,6.139,6.134a.189.189,0,0,0,.125.051.206.206,0,0,0,.127-.049c.007-.007,3.406-3.406,4.154-4.157l.03-.028a.208.208,0,0,0,.044-.122A.192.192,0,0,0,123.136,113.68Z" transform="translate(-84.134 -95.979)" fill="url(#h)"/><path d="M115.318,99.341c-.6-.6-3.311-3.311-3.316-3.313a.187.187,0,0,0-.125-.049.193.193,0,0,0-.125.046c-.009.007-3.408,3.408-4.157,4.157l-.028.03a.18.18,0,0,0-.049.12.185.185,0,0,0,.039.111l.012.016.021.021.016.012,4,4h0a4.183,4.183,0,0,1,.91,2.574,4.109,4.109,0,0,1-1.162,2.84S117.959,104.766,115.318,99.341Z" transform="translate(-90.731 -95.979)" fill="url(#i)"/><path d="M120.2,102.316l-4.884-4.882c2.329,5.212-3.221,9.82-3.962,10.561l-3.757,3.757-.021.021a.194.194,0,0,0-.051.125.188.188,0,0,0,.049.122l0,0,.021.021,0,0,4.143,4.138a.2.2,0,0,0,.127.051.193.193,0,0,0,.132-.053l3.72-3.725,4.244-4.244a3.958,3.958,0,0,0,1.43-3.011A3.723,3.723,0,0,0,120.2,102.316Z" transform="translate(-90.731 -94.072)" fill="url(#j)"/></g><g transform="translate(7251.011 295.457)"><path d="M146.314,108.118a10.716,10.716,0,0,0-9.375,10.233h0v.006h0c0,.128-.009.257-.009.387a10.854,10.854,0,0,0,.18,1.953s-.082-2.34,3.066-2.34h6.139Z" transform="translate(-136.929 -107.989)" fill="url(#k)"/><path d="M144.838,126.383a10.715,10.715,0,0,0,9.375-10.231h0v-.008h0c0-.128.009-.257.009-.387a10.717,10.717,0,0,0-.18-1.953s.084,2.34-3.065,2.34h-6.14Z" transform="translate(-132.791 -105.013)" fill="url(#l)"/><path d="M144.809,108.074l-1.258-.008V129.38c.017,0,1.258,0,1.258,0Z" transform="translate(-133.464 -108.016)" fill="url(#m)"/><path d="M153.412,116.793a3.549,3.549,0,0,1,.055.465,1.93,1.93,0,0,1-1.6,1.895c2.771-.1,2.877-1.994,2.856-2.349a10.713,10.713,0,0,0-9.953-8.748l-.588-.023H143.6l-.046,0v2.206a1.165,1.165,0,0,1,1.266-.9A9.428,9.428,0,0,1,153.412,116.793Z" transform="translate(-133.464 -108.033)" fill="url(#n)"/><path d="M138.354,117.161a3.554,3.554,0,0,1-.055-.465,1.93,1.93,0,0,1,1.6-1.895c-2.771.1-2.877,1.994-2.856,2.349A10.713,10.713,0,0,0,147,125.9l.588.024h.586l.046,0v-2.206a1.165,1.165,0,0,1-1.266.9A9.427,9.427,0,0,1,138.354,117.161Z" transform="translate(-136.871 -104.491)" fill="url(#n)"/></g><g transform="translate(7153.569 336.192)"><path d="M75.982,0,89.631,4.8,71.549,15.264ZM68.294,15.264,65.522,12,68.93.169h3.717L68.3,15.264Zm-13.6,0-2.8-3.3,2.714-9.476a2.908,2.908,0,0,1,.438-.892,3.725,3.725,0,0,1,.7-.731,3.153,3.153,0,0,1,.867-.5,2.639,2.639,0,0,1,.946-.178h8.806L64.839,3.462H58.107L55.648,12h4.238l.765-2.681H58.243L59.8,6.052h5.539L62.7,15.264Zm-5.706,0L46.226,12,49.629.169h3.717L49,15.264Zm-13.19,0-2.843-3.355h-.015l2.421-8.493H34.4L35.49.194H45.752A1.921,1.921,0,0,1,46.6.372a1.509,1.509,0,0,1,.588.484,1.663,1.663,0,0,1,.269.723,2.165,2.165,0,0,1-.079.888l-3,10.476a3.049,3.049,0,0,1-.429.9,3.153,3.153,0,0,1-.7.743,3.42,3.42,0,0,1-.869.5,2.474,2.474,0,0,1-.932.182ZM36.631,12h4.278l2.454-8.58H39.083ZM0,15.264,6.581,7.229,2.615.194,19.486.169,15.8,12l2.846,3.268Z" fill="#f7941d"/><path d="M39.163,12.135l.766-2.658H46.3l.955-3.267h-6.4l.766-2.636h7.244L50.022.308H38.848l-3.42,11.873L38.159,15.4H49.232L46.48,12.135Z" transform="translate(-15.943 -0.138)" fill="#fff"/></g></g></svg>