<svg id="logo-vinaphone" xmlns="http://www.w3.org/2000/svg" width="24" height="24" viewBox="0 0 24 24">
  <rect id="Rectangle_5490" data-name="Rectangle 5490" width="24" height="24" fill="none"/>
  <path id="_152243432" d="M6.241,5.167c-1.1-1.158-1.793-3.488.526-4.819,1.792-.7,3.157-.4,3.9,1.358,1.516,4.434,3.621,5.8,5.257,5.651a4.066,4.066,0,0,0,4.205-2.935c.022-4,2.938-3.608,3.548-3.461,2.1.73,1.815,3.665.613,4.38-1.022,1.008-3.8.06-4.906,1.84-.937,1.338-.666,3.012-1.4,3.662a3.777,3.777,0,0,1-2.672.631c-2.451.685-.159,2.384-1.8,3.636-1.122.664-2.667.023-2.65-1.139.02-1.783,1.269-2.026,2.459-2.031a1.63,1.63,0,0,0,.8-1.133,2.956,2.956,0,0,0-1-3.188c-3.039-2.877-5.332-.889-6.877-2.453Z" transform="translate(-3.5 4.5)" fill="#0093dd" fill-rule="evenodd"/>
</svg>
