<svg xmlns="http://www.w3.org/2000/svg" xmlns:xlink="http://www.w3.org/1999/xlink" width="24" height="24" viewBox="0 0 24 24">
  <defs>
    <linearGradient id="linear-gradient" x1="-0.019" y1="0.5" x2="1.011" y2="0.5" gradientUnits="objectBoundingBox">
      <stop offset="0" stop-color="#083921"/>
      <stop offset="0.34" stop-color="#083921"/>
      <stop offset="0.91" stop-color="#7ab743"/>
      <stop offset="1" stop-color="#7ab743"/>
    </linearGradient>
    <linearGradient id="linear-gradient-2" x1="0.135" y1="0.017" x2="0.897" y2="0.678" gradientUnits="objectBoundingBox">
      <stop offset="0" stop-color="#7ab743"/>
      <stop offset="0.1" stop-color="#7ab743"/>
      <stop offset="0.53" stop-color="#bbd87e"/>
      <stop offset="1" stop-color="#fff"/>
    </linearGradient>
    <linearGradient id="linear-gradient-3" x1="0.135" y1="0.017" x2="0.897" y2="0.678" gradientUnits="objectBoundingBox">
      <stop offset="0" stop-color="#fff"/>
      <stop offset="0.1" stop-color="#73b543"/>
      <stop offset="0.7" stop-color="#003b23"/>
      <stop offset="1" stop-color="#083921"/>
    </linearGradient>
  </defs>
  <g id="Vietcombank" transform="translate(-5.667 -6)">
    <g id="Bank_Logo_VCB" data-name="Bank/Logo/VCB" transform="translate(5.667 6)">
      <rect id="Rectangle_5468" data-name="Rectangle 5468" width="24" height="24" fill="none"/>
      <g id="Group_17440" data-name="Group 17440" transform="translate(3 3)">
        <path id="Path_15369" data-name="Path 15369" d="M19.177,7.817h-.1a22.017,22.017,0,0,0-3.338.232h0l-.026,0,.039,0h0c-1.264.232-1.532.936-1.532.936h0c-.326.655.3,2.449,1.551,4.562h0a31.347,31.347,0,0,1,4.785-.295h0a9.76,9.76,0,0,1,4.21.69h0a1,1,0,0,1,.338,1.224h0a19.31,19.31,0,0,0,1.607-3.646h0a2.433,2.433,0,0,0-.01-1.682h0a1.914,1.914,0,0,0-.851-.961h0a14.043,14.043,0,0,0-4.577-.964h0C20.6,7.851,19.9,7.818,19.177,7.817Z" transform="translate(-9.357 -7.817)" fill-rule="evenodd" fill="url(#linear-gradient)"/>
        <g id="Group_17438" data-name="Group 17438" transform="translate(0 0.23)">
          <path id="Path_15370" data-name="Path 15370" d="M13.918,8.136Zm-.025,0-.036,0h0C10.322,8.628,8.78,9.71,8.174,10.31h0A2.4,2.4,0,0,0,7.5,12.032h0a12.027,12.027,0,0,0,1.257,4.033h0a28.384,28.384,0,0,0,2.232,3.673h0a23.373,23.373,0,0,0,2.79,3.168h0a15.843,15.843,0,0,0,2.964,2.261h0a2.977,2.977,0,0,0,1.247.289h0a2.657,2.657,0,0,0,1.688-.7h0a15.987,15.987,0,0,0,2.383-3.386h0a30.965,30.965,0,0,0,2.088-4.448h0a26.327,26.327,0,0,0,1.313-4.77h0a3.6,3.6,0,0,0-.233-1.872h0a2.647,2.647,0,0,0-.508-.792h0a2.527,2.527,0,0,0-.39-.331h0a2.593,2.593,0,0,0-.343-.189h0a1.914,1.914,0,0,1,.854.961h0a2.433,2.433,0,0,1,.01,1.682h0a19.352,19.352,0,0,1-1.606,3.64h0l0,.009h0c-.105.187-2.581,4.541-3.766,4.53h0c-1.186-.012-3.787-3.486-4.426-4.393h0c-.42-.6-.8-1.191-1.14-1.757h0c-1.254-2.115-1.877-3.906-1.551-4.56h0s.269-.7,1.532-.936h0Z" transform="translate(-7.499 -8.136)" fill-rule="evenodd" fill="url(#linear-gradient-2)"/>
        </g>
        <g id="Group_17439" data-name="Group 17439" transform="translate(0 0.23)">
          <path id="Path_15371" data-name="Path 15371" d="M13.918,8.136Zm-.025,0-.036,0h0C10.322,8.628,8.78,9.71,8.174,10.31h0A2.4,2.4,0,0,0,7.5,12.032h0a12.027,12.027,0,0,0,1.257,4.033h0a28.384,28.384,0,0,0,2.232,3.673h0a23.373,23.373,0,0,0,2.79,3.168h0a15.843,15.843,0,0,0,2.964,2.261h0a2.977,2.977,0,0,0,1.247.289h0a2.657,2.657,0,0,0,1.688-.7h0a15.987,15.987,0,0,0,2.383-3.386h0a30.965,30.965,0,0,0,2.088-4.448h0a26.327,26.327,0,0,0,1.313-4.77h0a3.6,3.6,0,0,0-.233-1.872h0a2.647,2.647,0,0,0-.508-.792h0a2.527,2.527,0,0,0-.39-.331h0a2.593,2.593,0,0,0-.343-.189h0a1.914,1.914,0,0,1,.854.961h0a2.433,2.433,0,0,1,.01,1.682h0a19.352,19.352,0,0,1-1.606,3.64h0l0,.009h0c-.105.187-2.581,4.541-3.766,4.53h0c-1.186-.012-3.787-3.486-4.426-4.393h0c-.42-.6-.8-1.191-1.14-1.757h0c-1.254-2.115-1.877-3.906-1.551-4.56h0s.269-.7,1.532-.936h0Z" transform="translate(-7.499 -8.136)" fill-rule="evenodd" fill="url(#linear-gradient-3)"/>
        </g>
      </g>
    </g>
  </g>
</svg>
