<svg xmlns="http://www.w3.org/2000/svg" width="24" height="24" viewBox="0 0 24 24">
  <g id="Wallet_link_default" data-name="Wallet link / default" transform="translate(-1147 -578)">
    <rect id="Rectangle_11053" data-name="Rectangle 11053" width="24" height="24" transform="translate(1147 578)" fill="none"/>
    <g id="Group_20071" data-name="Group 20071" transform="translate(1145 576)">
      <g id="Group" transform="translate(5.177 6.052)">
        <path id="Vector" d="M2.3-.75H11.82A3.053,3.053,0,0,1,14.87,2.3v8.033a.669.669,0,1,1-1.339,0A1.713,1.713,0,0,0,11.82,8.622H2.3A1.713,1.713,0,0,0,.589,10.333.669.669,0,0,1-.081,11a.669.669,0,0,1-.669-.669V2.3A3.053,3.053,0,0,1,2.3-.75ZM13.531,7.809V2.3A1.713,1.713,0,0,0,11.82.589H2.3A1.713,1.713,0,0,0,.589,2.3v5.51A3.032,3.032,0,0,1,2.3,7.283H11.82A3.032,3.032,0,0,1,13.531,7.809Z" transform="translate(1.94 0.75)" fill="rgba(255,255,255,0.87)"/>
        <path id="Vector-2" data-name="Vector" d="M1.11.589H-.081A.669.669,0,0,1-.75-.081.669.669,0,0,1-.081-.75H1.11a.669.669,0,0,1,.669.669A.669.669,0,0,1,1.11.589Z" transform="translate(16.221 12.651)" fill="rgba(255,255,255,0.87)"/>
        <path id="Vector-3" data-name="Vector" d="M1.11.589H-.081A.669.669,0,0,1-.75-.081.669.669,0,0,1-.081-.75H1.11a.669.669,0,0,1,.669.669A.669.669,0,0,1,1.11.589Z" transform="translate(0.75 12.651)" fill="rgba(255,255,255,0.87)"/>
      </g>
      <path id="Vector-4" data-name="Vector" d="M14.2,6.539a.669.669,0,0,1-.669-.669V2.3A1.713,1.713,0,0,0,11.82.589H2.3A1.713,1.713,0,0,0,.589,2.3V5.87a.669.669,0,0,1-.669.669A.669.669,0,0,1-.75,5.87V2.3A3.053,3.053,0,0,1,2.3-.75H11.82A3.053,3.053,0,0,1,14.87,2.3V5.87A.669.669,0,0,1,14.2,6.539Z" transform="translate(7.117 10.67)" fill="rgba(255,255,255,0.87)"/>
      <path id="Vector-5" data-name="Vector" d="M2.3-.75H11.82A3.053,3.053,0,0,1,14.87,2.3V3.787a.669.669,0,0,1-.669.669H10.643a3.645,3.645,0,0,1-7.166,0H-.081A.669.669,0,0,1-.75,3.787V2.3A3.053,3.053,0,0,1,2.3-.75ZM13.531,3.118V2.3A1.713,1.713,0,0,0,11.82.589H2.3A1.713,1.713,0,0,0,.589,2.3v.818h3.5a.669.669,0,0,1,.669.669,2.306,2.306,0,0,0,4.612,0,.669.669,0,0,1,.669-.669Z" transform="translate(7.117 14.835)" fill="rgba(255,255,255,0.87)"/>
    </g>
  </g>
</svg>
