<svg id="Visa" xmlns="http://www.w3.org/2000/svg" width="36" height="36" viewBox="0 0 36 36">
  <rect id="Rectangle_6168" data-name="Rectangle 6168" width="36" height="36" rx="18" fill="#1434cb"/>
  <path id="path3789" d="M16.132.5c-1.7,0-3.227.883-3.227,2.515,0,1.871,2.7,2,2.7,2.941,0,.4-.454.75-1.229.75a4.079,4.079,0,0,1-1.922-.5L12.1,7.858a6,6,0,0,0,2.2.418c1.863,0,3.329-.927,3.329-2.586,0-1.978-2.712-2.1-2.712-2.976,0-.31.372-.65,1.145-.65a3.892,3.892,0,0,1,1.583.36L18,.834A5.151,5.151,0,0,0,16.132.5ZM.541.62.5.86a8.015,8.015,0,0,1,1.363.393c.831.3.891.475,1.031,1.018L4.419,8.152H6.464L9.615.62H7.575L5.55,5.741,4.724,1.4A.893.893,0,0,0,3.794.62H.541Zm9.895,0-1.6,7.532h1.946L12.376.62h-1.94Zm10.853,0a.918.918,0,0,0-.9.69L17.538,8.152h2.041l.395-1.14h2.486l.24,1.14h1.8L22.929.62h-1.64Zm.265,2.035.6,2.827H20.539l1.016-2.827Z" transform="translate(5.5 13.612)" fill="#fff"/>
</svg>
