<svg xmlns="http://www.w3.org/2000/svg" xmlns:xlink="http://www.w3.org/1999/xlink" width="360" height="200" viewBox="0 0 360 200">
  <defs>
    <linearGradient id="linear-gradient" x1="-0.097" y1="0.879" x2="1" y2="0.365" gradientUnits="objectBoundingBox">
      <stop offset="0" stop-color="#72501b"/>
      <stop offset="1" stop-color="#c2a87c"/>
    </linearGradient>
    <linearGradient id="linear-gradient-2" x1="0.5" x2="0.5" y2="1" gradientUnits="objectBoundingBox">
      <stop offset="0" stop-color="#f3e0b8"/>
      <stop offset="0.134" stop-color="#f9c734"/>
      <stop offset="0.657" stop-color="#916b1f"/>
      <stop offset="1" stop-color="#72501b"/>
    </linearGradient>
    <linearGradient id="linear-gradient-4" x1="0.593" y1="0.963" x2="0.481" y2="-0.317" xlink:href="#linear-gradient-2"/>
  </defs>
  <g id="card_not_active" transform="translate(-9924 -2465.932)">
    <g id="phone" transform="translate(9991.036 2468.959)">
      <path id="Path_18562" data-name="Path 18562" d="M94.928,180.73a13.385,13.385,0,0,1-6.548-1.5L2.666,129.855A4.606,4.606,0,0,1,0,125.975c0-1.814,1.36-3.638,3.733-5L167.208,26.805c4.446-2.559,11.2-2.836,15.056-.615l85.715,49.373a4.609,4.609,0,0,1,2.665,3.88c0,1.814-1.359,3.639-3.732,5.006L103.435,178.615a17.531,17.531,0,0,1-8.507,2.115m-6.363-1.82c3.752,2.162,10.341,1.887,14.684-.615L266.725,84.13c2.255-1.3,3.549-3.007,3.549-4.686a4.257,4.257,0,0,0-2.481-3.561L182.078,26.51c-3.751-2.162-10.341-1.887-14.685.615L3.917,121.29c-2.254,1.3-3.548,3.007-3.548,4.685a4.262,4.262,0,0,0,2.481,3.561Z" transform="translate(0 -1.932)" fill="#c2a87c"/>
      <path id="Path_18563" data-name="Path 18563" d="M167.314,14.748,21.965,98.473.2,102.213l0,7.7.01,0a4.384,4.384,0,0,0,2.563,3.746l85.715,49.373c3.812,2.2,10.469,1.92,14.87-.615L266.832,68.249c2.369-1.365,3.59-3.106,3.628-4.765l.012,0v-7.7L258.16,57.9,182.184,14.134a13.2,13.2,0,0,0-6.459-1.483,17.313,17.313,0,0,0-8.412,2.1" transform="translate(-0.014 -1.077)" fill="#c2a87c"/>
      <path id="Path_18564" data-name="Path 18564" d="M88.486,154.391,2.771,105.018c-3.812-2.2-3.334-6.03,1.067-8.565L167.314,2.288c4.4-2.536,11.058-2.811,14.87-.616L267.9,51.047c3.812,2.2,3.334,6.03-1.067,8.565L103.356,153.776c-4.4,2.535-11.058,2.81-14.87.615" transform="translate(-0.014 -0.191)" fill="#72501b"/>
      <path id="Path_18565" data-name="Path 18565" d="M266.832,63.829,103.357,157.994c-4.4,2.535-11.059,2.81-14.871.615L2.772,109.236a4.61,4.61,0,0,1-2.528-3.245c-.236,1.581.586,3.125,2.528,4.243l85.715,49.373c3.812,2.2,10.47,1.92,14.871-.615L266.832,64.829c2.636-1.519,3.853-3.5,3.6-5.322-.228,1.522-1.437,3.078-3.6,4.322" transform="translate(-0.014 -4.408)" fill="#fff"/>
      <path id="Path_18566" data-name="Path 18566" d="M88.9,152.628,6.241,105c-3.689-2.124-3.226-5.835,1.033-8.289L167.716,4.319c4.26-2.453,10.7-2.72,14.389-.6l82.661,47.628c3.688,2.124,3.225,5.835-1.033,8.289L103.29,152.033c-4.259,2.453-10.7,2.72-14.389.6" transform="translate(-0.259 -0.34)" fill="url(#linear-gradient)"/>
    </g>
    <g id="card" transform="translate(10046.966 2465.932)">
      <path id="Path_18558" data-name="Path 18558" d="M91.726,120.193,20.279,79.038c-1.846-1.064-1.615-2.92.517-4.148L62.477,50.88a8.022,8.022,0,0,1,7.2-.3l71.448,41.155c1.846,1.064,1.614,2.921-.518,4.149L98.928,119.9a8.021,8.021,0,0,1-7.2.3" transform="translate(-1.312 -3.545)" fill="#c2a87c"/>
      <rect id="Rectangle_6466" data-name="Rectangle 6466" width="123.341" height="71.047" transform="translate(17.721 46.32)" fill="none"/>
      <path id="Path_18559" data-name="Path 18559" d="M158.781,56.328l-1.191-.155a4.659,4.659,0,0,0-.413-.268L65.2,2.924c-2.377-1.369-6.528-1.2-9.272.384L2.27,34.215A5.556,5.556,0,0,0,.631,35.585L0,35.4v1.851H0a2.75,2.75,0,0,0,1.6,2.3l91.977,52.98c2.377,1.369,6.528,1.2,9.272-.384l53.657-30.908c1.533-.883,2.3-2.019,2.267-3.09h0Z" transform="translate(0.001 -0.142)" fill="#f9c734"/>
      <path id="Path_18560" data-name="Path 18560" d="M93.581,90.537,1.6,37.557c-2.377-1.369-2.079-3.76.666-5.341L55.927,1.308C58.671-.273,62.823-.445,65.2.924L157.176,53.9c2.377,1.369,2.079,3.76-.666,5.341L102.852,90.153c-2.744,1.581-6.9,1.753-9.271.384" transform="translate(0.001 0)" fill="url(#linear-gradient-2)"/>
      <path id="Path_18561" data-name="Path 18561" d="M109,88.694,8.42,30.757,19.1,24.606,119.68,82.544Z" transform="translate(-0.58 -1.749)" fill="#fffa67"/>
      <rect id="Rectangle_6467" data-name="Rectangle 6467" width="158.781" height="117.366" transform="translate(0.001 0)" fill="none"/>
      <rect id="Rectangle_6468" data-name="Rectangle 6468" width="158.781" height="117.366" transform="translate(0.001 0)" fill="none"/>
    </g>
    <g id="Group_20042" data-name="Group 20042" transform="translate(10172.591 2575.4)">
      <path id="Path_18569" data-name="Path 18569" d="M55.7,92.542c-14.253,0-28.5-3.126-39.355-9.375C5.806,77.095,0,69.012,0,60.405S5.806,43.715,16.349,37.642c21.7-12.5,57.011-12.5,78.712,0C105.6,43.714,111.409,51.8,111.409,60.4S105.6,77.093,95.06,83.166c-10.851,6.25-25.1,9.375-39.357,9.375m0-63.958c-14.2,0-28.388,3.112-39.2,9.337C6.072,43.934.323,51.919.323,60.405s5.749,16.47,16.186,22.482c21.611,12.448,56.777,12.449,78.389,0,10.439-6.013,16.188-14,16.188-22.483S105.338,43.932,94.9,37.92c-10.8-6.224-25-9.336-39.194-9.336" transform="translate(0 -2.009)" fill="#f7c533"/>
      <path id="Path_18570" data-name="Path 18570" d="M57.266,81.328c-8.852,0-17.7-1.941-24.441-5.823-6.558-3.776-10.17-8.81-10.171-14.169s3.612-10.394,10.172-14.173c13.477-7.762,35.405-7.762,48.882,0,6.558,3.777,10.171,8.811,10.171,14.17S88.266,71.726,81.707,75.5c-6.738,3.882-15.59,5.823-24.441,5.823m0-39.671c-8.793,0-17.586,1.928-24.279,5.785-6.456,3.717-10.011,8.652-10.011,13.894s3.555,10.173,10.01,13.89c13.388,7.712,35.171,7.712,48.558,0C88,71.507,91.556,66.573,91.556,61.333S88,51.159,81.546,47.442c-6.693-3.857-15.486-5.785-24.279-5.785" transform="translate(-1.562 -2.939)" fill="#f7c533"/>
      <path id="Subtraction_54" data-name="Subtraction 54" d="M3.383,34.64h0L.235,33.408A18.967,18.967,0,0,1,0,30.351,32.962,32.962,0,0,1,4.769,14.342,33.061,33.061,0,0,1,16.281,2.218,14.714,14.714,0,0,1,23.549,0a8.38,8.38,0,0,1,4.26,1.091l3.076,1.794-.893.085C31.672,5.02,32.559,8,32.559,11.595a25.963,25.963,0,0,1-.593,5.376L3.384,34.64Z" transform="translate(37.364 36.485)" fill="#fffa67" stroke="rgba(0,0,0,0)" stroke-miterlimit="10" stroke-width="1"/>
      <path id="Subtraction_55" data-name="Subtraction 55" d="M.271,32.824h0l-.127-.05A19.764,19.764,0,0,1,0,30.353,32.962,32.962,0,0,1,4.769,14.343,33.061,33.061,0,0,1,16.281,2.219,14.725,14.725,0,0,1,23.552,0a8.045,8.045,0,0,1,6.509,3.042,13.567,13.567,0,0,1,2.5,8.553c0,.416-.013.85-.037,1.29L.271,32.823Z" transform="translate(40.476 38.301)" fill="url(#linear-gradient-2)"/>
      <path id="Path_18573" data-name="Path 18573" d="M83.433,0,32.449,29.367V62.73l10.233,5.886L83.433,45.141Z" transform="translate(-2.237 0)" fill="none"/>
    </g>
    <g id="Group_20074" data-name="Group 20074" transform="translate(9977.07 2483.468)">
      <path id="Path_18581" data-name="Path 18581" d="M23.987,42.226a7.121,7.121,0,0,1-3.471-.826L2.1,30.792A2.527,2.527,0,0,1,.616,28.7,2.525,2.525,0,0,1,2.1,26.607L20.515,16a7.7,7.7,0,0,1,6.942,0L45.874,26.607A2.526,2.526,0,0,1,47.358,28.7a2.526,2.526,0,0,1-1.483,2.093L27.458,41.4a7.126,7.126,0,0,1-3.471.826m0-26.738a6.768,6.768,0,0,0-3.31.789L2.26,26.886A2.222,2.222,0,0,0,.939,28.7,2.226,2.226,0,0,0,2.26,30.513L20.677,41.121a7.334,7.334,0,0,0,6.62,0L45.713,30.513A2.223,2.223,0,0,0,47.035,28.7a2.223,2.223,0,0,0-1.321-1.813L27.3,16.277a6.768,6.768,0,0,0-3.31-.789" transform="translate(-0.042 -1.079)" fill="#f9c734"/>
      <path id="Path_18582" data-name="Path 18582" d="M47.89,24.794V18.5l-1.155-.64c-.326,1.965-2.643,3.26-4.581,3.528l-13.2,7.7L23.2,31.165,4.815,21.7l.425-.244c-1.571-.732-2.417-2.407-3.267-3.935l-1.237.736L0,18.462v6.4a2.738,2.738,0,0,0,1.617,2.252L20.034,37.722a8.676,8.676,0,0,0,7.822,0L46.272,27.114A2.762,2.762,0,0,0,47.889,24.9c0-.036,0-.072,0-.108Z" transform="translate(0 -1.246)" fill="#f9c734"/>
      <path id="Path_18583" data-name="Path 18583" d="M.735,14.527,0,14.733V19a2.741,2.741,0,0,0,1.617,2.252L20.034,31.864a8.676,8.676,0,0,0,7.822,0L46.272,21.256a2.762,2.762,0,0,0,1.616-2.213c0-.036,0-.072,0-.108h0V14.773l-1.155-.64c-.326,1.965-2.644,3.259-4.582,3.528l-13.2,7.7L23.2,27.436,4.814,17.97l.425-.244c-1.572-.732-2.418-2.408-3.267-3.935Z" transform="translate(0 -0.98)" fill="#e0b32e"/>
      <path id="Path_18584" data-name="Path 18584" d="M43.927,17.691l-13.2,7.7L25.718,27.2v5.628a8.017,8.017,0,0,0,3.91-.931L48.045,21.285a2.764,2.764,0,0,0,1.617-2.213c0-.035,0-.072,0-.107h0V14.8l-1.055-.585H48.5c-.36,1.933-2.651,3.207-4.571,3.473" transform="translate(-1.773 -1.011)" fill="#95771f"/>
      <path id="Path_18585" data-name="Path 18585" d="M23.86,0a7.974,7.974,0,0,0-3.827.932L1.617,11.54c-2.156,1.242-2.156,3.263,0,4.505L20.034,26.653a8.67,8.67,0,0,0,7.822,0L46.272,16.045c2.156-1.241,2.156-3.263,0-4.5L27.855.932A7.974,7.974,0,0,0,24.029,0Z" fill="url(#linear-gradient-4)"/>
      <path id="Path_18586" data-name="Path 18586" d="M24.321,24.945a6.422,6.422,0,0,1-3.137-.747h0L6.8,15.912a2.294,2.294,0,0,1-1.344-1.9,2.292,2.292,0,0,1,1.344-1.9L21.184,3.824a6.959,6.959,0,0,1,6.272,0l14.388,8.289a2.29,2.29,0,0,1,1.344,1.9,2.29,2.29,0,0,1-1.344,1.9L27.456,24.2a6.418,6.418,0,0,1-3.136.747m0-21.552a6.085,6.085,0,0,0-2.974.71L6.958,12.391a1.989,1.989,0,0,0-1.183,1.62,1.992,1.992,0,0,0,1.183,1.621L21.346,23.92a6.6,6.6,0,0,0,5.949,0l14.388-8.288a1.99,1.99,0,0,0,1.183-1.621,1.99,1.99,0,0,0-1.183-1.619L27.294,4.1a6.091,6.091,0,0,0-2.975-.71" transform="translate(-0.376 -0.219)" fill="#af8b24"/>
      <path id="Path_18587" data-name="Path 18587" d="M46.272,17.12,27.856,27.729a8.676,8.676,0,0,1-7.822,0L1.617,17.12a2.9,2.9,0,0,1-1.6-1.993,2.6,2.6,0,0,0,1.6,2.512L20.034,28.248a8.676,8.676,0,0,0,7.822,0L46.272,17.639a2.6,2.6,0,0,0,1.6-2.512,2.9,2.9,0,0,1-1.6,1.993" transform="translate(0 -1.075)" fill="#fff"/>
    </g>
    <g id="Group_20077" data-name="Group 20077" transform="translate(9924 2572.82)">
      <path id="Path_18581-2" data-name="Path 18581" d="M23.987,42.226a7.121,7.121,0,0,1-3.471-.826L2.1,30.792A2.527,2.527,0,0,1,.616,28.7,2.525,2.525,0,0,1,2.1,26.607L20.515,16a7.7,7.7,0,0,1,6.942,0L45.874,26.607A2.526,2.526,0,0,1,47.358,28.7a2.526,2.526,0,0,1-1.483,2.093L27.458,41.4a7.126,7.126,0,0,1-3.471.826m0-26.738a6.768,6.768,0,0,0-3.31.789L2.26,26.886A2.222,2.222,0,0,0,.939,28.7,2.226,2.226,0,0,0,2.26,30.513L20.677,41.121a7.334,7.334,0,0,0,6.62,0L45.713,30.513A2.223,2.223,0,0,0,47.035,28.7a2.223,2.223,0,0,0-1.321-1.813L27.3,16.277a6.768,6.768,0,0,0-3.31-.789" transform="translate(-0.042 -1.079)" fill="#f9c734"/>
      <path id="Path_18582-2" data-name="Path 18582" d="M47.89,24.794V18.5l-1.155-.64c-.326,1.965-2.643,3.26-4.581,3.528l-13.2,7.7L23.2,31.165,4.815,21.7l.425-.244c-1.571-.732-2.417-2.407-3.267-3.935l-1.237.736L0,18.462v6.4a2.738,2.738,0,0,0,1.617,2.252L20.034,37.722a8.676,8.676,0,0,0,7.822,0L46.272,27.114A2.762,2.762,0,0,0,47.889,24.9c0-.036,0-.072,0-.108Z" transform="translate(0 -1.246)" fill="#f9c734"/>
      <path id="Path_18583-2" data-name="Path 18583" d="M.735,14.527,0,14.733V19a2.741,2.741,0,0,0,1.617,2.252L20.034,31.864a8.676,8.676,0,0,0,7.822,0L46.272,21.256a2.762,2.762,0,0,0,1.616-2.213c0-.036,0-.072,0-.108h0V14.773l-1.155-.64c-.326,1.965-2.644,3.259-4.582,3.528l-13.2,7.7L23.2,27.436,4.814,17.97l.425-.244c-1.572-.732-2.418-2.408-3.267-3.935Z" transform="translate(0 -0.98)" fill="#e0b32e"/>
      <path id="Path_18584-2" data-name="Path 18584" d="M43.927,17.691l-13.2,7.7L25.718,27.2v5.628a8.017,8.017,0,0,0,3.91-.931L48.045,21.285a2.764,2.764,0,0,0,1.617-2.213c0-.035,0-.072,0-.107h0V14.8l-1.055-.585H48.5c-.36,1.933-2.651,3.207-4.571,3.473" transform="translate(-1.773 -1.011)" fill="#95771f"/>
      <path id="Path_18585-2" data-name="Path 18585" d="M23.86,0a7.974,7.974,0,0,0-3.827.932L1.617,11.54c-2.156,1.242-2.156,3.263,0,4.505L20.034,26.653a8.67,8.67,0,0,0,7.822,0L46.272,16.045c2.156-1.241,2.156-3.263,0-4.5L27.855.932A7.974,7.974,0,0,0,24.029,0Z" fill="url(#linear-gradient-4)"/>
      <path id="Path_18586-2" data-name="Path 18586" d="M24.321,24.945a6.422,6.422,0,0,1-3.137-.747h0L6.8,15.912a2.294,2.294,0,0,1-1.344-1.9,2.292,2.292,0,0,1,1.344-1.9L21.184,3.824a6.959,6.959,0,0,1,6.272,0l14.388,8.289a2.29,2.29,0,0,1,1.344,1.9,2.29,2.29,0,0,1-1.344,1.9L27.456,24.2a6.418,6.418,0,0,1-3.136.747m0-21.552a6.085,6.085,0,0,0-2.974.71L6.958,12.391a1.989,1.989,0,0,0-1.183,1.62,1.992,1.992,0,0,0,1.183,1.621L21.346,23.92a6.6,6.6,0,0,0,5.949,0l14.388-8.288a1.99,1.99,0,0,0,1.183-1.621,1.99,1.99,0,0,0-1.183-1.619L27.294,4.1a6.091,6.091,0,0,0-2.975-.71" transform="translate(-0.376 -0.219)" fill="#af8b24"/>
      <path id="Path_18587-2" data-name="Path 18587" d="M46.272,17.12,27.856,27.729a8.676,8.676,0,0,1-7.822,0L1.617,17.12a2.9,2.9,0,0,1-1.6-1.993,2.6,2.6,0,0,0,1.6,2.512L20.034,28.248a8.676,8.676,0,0,0,7.822,0L46.272,17.639a2.6,2.6,0,0,0,1.6-2.512,2.9,2.9,0,0,1-1.6,1.993" transform="translate(0 -1.075)" fill="#fff"/>
    </g>
  </g>
</svg>
