<svg id="ic_24_lock" xmlns="http://www.w3.org/2000/svg" width="24" height="24" viewBox="0 0 24 24">
  <rect id="Rectangle_5" data-name="Rectangle 5" width="24" height="24" fill="none"/>
  <path id="Path_7" data-name="Path 7" d="M10578.3,22787.3a2.254,2.254,0,0,1-2.3-2.3v-6a2.247,2.247,0,0,1,2.247-2.25v-1.971c0-2.088,2.013-3.779,4.5-3.779s4.5,1.691,4.5,3.779v1.973a2.247,2.247,0,0,1,2.247,2.248v6a2.252,2.252,0,0,1-2.246,2.252Zm3-5.158a1.511,1.511,0,1,0,0-.043Zm4.5-5.342v-1.973a2,2,0,0,0-.783-1.521,3.609,3.609,0,0,0-4.432,0,2.014,2.014,0,0,0-.784,1.523v1.973Z" transform="translate(-10570.75 -22767.125)" fill="rgba(255,255,255,0.87)"/>
</svg>
