<svg xmlns="http://www.w3.org/2000/svg" width="24" height="24" viewBox="0 0 24 24"><rect width="24" height="24" fill="none"/><g transform="translate(-10 -15.473)"><path d="M10317.664,22778.08a1.669,1.669,0,1,1,1.669,1.67A1.67,1.67,0,0,1,10317.664,22778.08Zm-5.551,0a1.667,1.667,0,1,1,1.663,1.67A1.665,1.665,0,0,1,10312.113,22778.08Zm-5.558,0a1.667,1.667,0,1,1,1.664,1.67A1.666,1.666,0,0,1,10306.556,22778.08Zm-5.557,0a1.667,1.667,0,1,1,1.67,1.67A1.667,1.667,0,0,1,10301,22778.08Zm6.414-4.064a2.251,2.251,0,0,1-2.246-2.252v-4.248a2.254,2.254,0,0,1,1.875-2.221v-1.672c0-1.738,1.675-3.15,3.75-3.15s3.751,1.412,3.751,3.15v1.672a2.26,2.26,0,0,1,1.875,2.221v4.248a2.257,2.257,0,0,1-2.253,2.252Zm2.127-4.293a1.25,1.25,0,1,0,1.252-1.252A1.251,1.251,0,0,0,10309.54,22769.723Zm3.5-4.459v-1.641c0-.893-1.029-1.652-2.247-1.652s-2.252.76-2.252,1.652v1.641Z" transform="translate(-10288.998 -22742.602)" fill="rgba(255,255,255,0.87)"/></g></svg>