<svg id="ic_24_sms" xmlns="http://www.w3.org/2000/svg" width="24" height="24" viewBox="0 0 24 24">
  <rect id="Rectangle_2" data-name="Rectangle 2" width="24" height="24" fill="none"/>
  <g id="Group_2" data-name="Group 2" transform="translate(-2 -1.998)">
    <path id="Path_2" data-name="Path 2" d="M10500.1,22789.7a.412.412,0,0,1-.109-.348l.744-4.473a8.391,8.391,0,0,1,7.63-11.854l.028,0a8.393,8.393,0,1,1-3.466,16.037l-4.479.744a.427.427,0,0,1-.07.006.392.392,0,0,1-.277-.115Zm5.536-10.947v1.023a1.749,1.749,0,0,0-1.333,1.7v3.332a1.748,1.748,0,0,0,1.75,1.746h4.662a1.747,1.747,0,0,0,1.756-1.744v-3.336a1.752,1.752,0,0,0-1.333-1.7v-1.021a2.769,2.769,0,0,0-5.5,0Zm.417,6.3a.247.247,0,0,1-.252-.246v-3.334a.253.253,0,0,1,.251-.252h4.662a.252.252,0,0,1,.251.252v3.334a.244.244,0,0,1-.251.248Zm1.585-1.937a.978.978,0,1,1,.063-.016Zm-.5-3.393v-.973a1.294,1.294,0,0,1,2.5,0v.971Z" transform="translate(-10494.4 -22767.393)" fill="rgba(255,255,255,0.87)"/>
  </g>
</svg>
