<svg id="ic_24_tttt" xmlns="http://www.w3.org/2000/svg" width="24" height="24" viewBox="0 0 24 24">
  <path id="Path_8" data-name="Path 8" d="M0,0H24V24H0Z" fill="none"/>
  <g id="Group_3" data-name="Group 3" transform="translate(5.455 4.002)">
    <path id="Path_9" data-name="Path 9" d="M-10575.4-4297h-7.093a3,3,0,0,1-3-3v-10a3,3,0,0,1,3-3h7.093a3,3,0,0,1,3,3v10A3,3,0,0,1-10575.4-4297Zm-6.056-7.238a.745.745,0,0,0-.517.207.74.74,0,0,0-.235.523.744.744,0,0,0,.206.536c.015.019.475.5,1,.989,1.035.966,1.451,1.155,1.82,1.155.335,0,.751-.118,2.141-1.546a23.426,23.426,0,0,0,1.9-2.184.755.755,0,0,0-.171-1.05.745.745,0,0,0-.436-.143.751.751,0,0,0-.609.313,21.384,21.384,0,0,1-2.837,3.026,16.212,16.212,0,0,1-1.714-1.591.751.751,0,0,0-.493-.237Zm-.421-7.268h-.034a.736.736,0,0,0-.522.25.735.735,0,0,0-.187.54v.019a2.711,2.711,0,0,0,.568,1.836,2.122,2.122,0,0,0,.367.373,1.692,1.692,0,0,0,1.025.371h3.419a1.683,1.683,0,0,0,1.025-.372,2.067,2.067,0,0,0,.369-.373,2.7,2.7,0,0,0,.569-1.809.357.357,0,0,0,0-.046.744.744,0,0,0-.189-.541.749.749,0,0,0-.517-.249h-.039a.749.749,0,0,0-.75.71,1.987,1.987,0,0,1-.246.991.825.825,0,0,1-.6.186h-2.66a.835.835,0,0,1-.6-.183,1.954,1.954,0,0,1-.24-.874c0-.023,0-.043,0-.064v-.027a.265.265,0,0,1,0-.028.749.749,0,0,0-.682-.714Z" transform="translate(10585.455 4313)" fill="rgba(255,255,255,0.87)"/>
  </g>
</svg>
